<?xml version="1.0" encoding="UTF-8"?>
<svg id="Layer_1" data-name="Layer 1" xmlns="http://www.w3.org/2000/svg" viewBox="0 0 796 305">
  <defs>
    <style>
      .cls-1 {
        fill: #000;
      }

      .cls-1, .cls-2 {
        stroke-width: 0px;
      }

      .cls-2 {
        fill: #fff;
      }
    </style>
  </defs>
  <path class="cls-2" d="M0,305V0h796v305H0ZM133.89,89.63c-1.25-12.55-3.54-24.36-8.8-35.5-7.45-15.8-19.74-25.37-36.87-28.22-7.67-1.28-15.58-1.98-23.33-1.65-16.94.7-31.99,6.25-42.91,20.07-7.85,9.93-10.69,21.56-11.37,33.99-1.31,24.04,5.56,44.66,24.41,60.55,5.86,4.94,11.62,9.99,17.23,15.21,13.88,12.92,27.93,25.69,41.36,39.07,9.88,9.84,12.17,22.68,11.1,36.11-1.01,12.74-7.13,20.83-17.27,23.79-13.46,3.92-26.08.26-33.73-9.75-5.52-7.21-8.09-15.62-9.72-24.35-1.15-6.15-1.97-12.36-2.99-18.87-10.59,2.88-20.78,5.64-31.42,8.53.86,6.21,1.38,12.02,2.5,17.7,6.43,32.68,25.65,54.32,60.81,56.21,27.98,1.5,51.68-11.63,60.77-35.37,5.84-15.27,5.67-31.02,1.68-46.69-4.92-19.32-17.06-34.12-31.29-47.23-15.31-14.11-31.18-27.6-46.83-41.33-9.5-8.34-14.67-18.64-15.08-31.42-.39-11.93,4.71-22.03,13.83-26.24,18.72-8.66,38.52.46,43.85,20.27.99,3.69,1.68,7.47,2.35,11.23.68,3.86,1.16,7.76,1.78,12,10.18-2.75,19.79-5.34,29.96-8.09ZM719.3,50.07v126.29h17.9v-58.2h32.1v58.26h17.55V50.32h-17.96v54.2h-31.99v-54.45h-17.6ZM281.93,117.46c2.71,0,4.74.27,6.68-.05,5.37-.9,7.36,1.43,8.67,6.6,4.17,16.44,8.96,32.72,13.66,49.01.41,1.43,1.91,3.5,3.04,3.6,4.88.4,9.8.17,15.2.17-6.08-21.58-11.96-42.45-17.84-63.32,8.88-3.58,13.15-10.19,14.34-18.52.88-6.19,1.14-12.63.48-18.84-1.52-14.37-8.05-22.36-22.07-24.44-13.03-1.94-26.39-1.64-39.65-2.33v127.07h17.49v-58.92ZM189.86,106.94c-.38-.08-.77-.16-1.15-.24v-56.43h-17.4v126.21h17.53c0-12.28.55-24.27-.18-36.18-.54-8.74,3.92-14.87,8.19-22.2.93,2.17,1.6,3.67,2.22,5.19,6.73,16.48,13.4,32.98,20.24,49.41.66,1.58,2.27,3.77,3.61,3.9,4.88.47,9.83.19,15.3.19-.81-2.18-1.34-3.72-1.95-5.22-8.33-20.32-16.61-40.65-25.07-60.91-1.4-3.35-1.37-6.11.18-9.43,5.91-12.66,11.54-25.45,17.25-38.2,1.87-4.19,3.67-8.41,5.69-13.07-5.06,0-9.41-.26-13.7.14-1.54.14-3.59,1.52-4.3,2.9-4.86,9.47-9.42,19.1-14.08,28.67-4.11,8.44-8.25,16.86-12.37,25.29ZM687.17,95.15c-.65-8.24-.56-16.27-2.06-23.98-2.68-13.75-10.76-20.6-24.68-22-3.95-.4-8.02-.39-11.96.05-14.34,1.57-22.22,8.52-25.73,22.51-.81,3.21-1.55,6.54-1.6,9.82-.28,19.64-.55,39.29-.36,58.94.05,5.58,1.2,11.27,2.66,16.69,2.32,8.61,7.46,15.36,16.05,18.53,9.49,3.5,19.47,4.01,28.81.25,4.78-1.92,9.7-5.7,12.46-9.99,7.07-11,6.17-23.67,5.63-36.25h-16.07c-.37,6.86-.68,13.47-1.1,20.08-.79,12.24-7.78,16.28-20.16,13.45-8.01-1.83-9.72-8.83-9.85-15.61-.41-21.47-.32-42.95-.32-64.42,0-2.8.37-5.66.94-8.41,1.91-9.13,6.86-12.48,17.14-11.84,7.92.49,11.57,4.4,12.27,13.45.48,6.22.73,12.46,1.08,18.75h16.85ZM424.98,176.59c-9.09-42.56-18.05-84.48-27.06-126.66-4.58,0-8.9.15-13.2-.05-2.97-.14-4.23.62-4.91,3.88-6.39,30.78-13.04,61.5-19.59,92.24-2.14,10.05-4.2,20.12-6.42,30.8,4.7,0,8.83-.14,12.94.05,2.8.13,4.1-.63,4.59-3.68,1.36-8.37,3.03-16.69,4.86-24.97.28-1.26,2.07-3.05,3.22-3.09,7.47-.28,14.96-.14,22.74-.14,1.99,10.69,3.93,21.12,5.89,31.63h16.94ZM529.98,141.09c-.08,26.57,18.44,42.07,42.52,36.03,11.39-2.86,18.94-11.35,20.77-22.95,2.71-17.12-4.76-30.05-16.78-41.05-7.25-6.63-15.01-12.72-22.05-19.55-3.23-3.13-6.24-7.14-7.67-11.33-3.1-9.13.85-16.98,8.47-19,9.45-2.49,16.79,1.78,19.4,11.51.94,3.5,1.4,7.13,2.15,11.08,4.96-1.37,9.84-2.72,14.59-4.03-.8-23.07-13.02-34.25-35.22-32.83-14.34.92-24.37,10.02-25.94,23.75-1.57,13.78,2.04,25.48,13.04,34.82,9.88,8.39,19.38,17.28,28.5,26.5,5.67,5.73,6.52,13.31,4.49,21.03-1.41,5.37-5.27,8.37-10.77,8.86-8.84.78-14.44-3.03-17.32-12.4-1.44-4.67-2.12-9.57-3.2-14.6-5.27,1.46-10.19,2.82-14.99,4.15ZM467.13,63.4v113.03h18.15V63.25h20.36v-13.07h-59.67v13.21h21.16ZM531.13,264.65v-40.48c1.47,1.29,2.2,2.7,2.82,4.16,4.6,10.86,9.32,21.68,13.67,32.64,1.4,3.54,3.24,4.7,7.02,3.29v-62.83h-7.1v38.77c-1.83-1.36-2.61-2.91-3.29-4.5-4.39-10.24-8.9-20.43-13.05-30.76-1.53-3.81-3.66-4.65-7.2-3.19v62.91h7.13ZM491.06,232.98s-.04,0-.06,0c0-5.66.38-11.35-.08-16.97-.84-10.07-6.73-15.15-16.84-15.19-10.39-.05-16.42,4.66-16.98,14.85-.63,11.61-.39,23.29.02,34.92.22,6.12,3.05,11.23,9.25,13.64,12.63,4.9,23.63-1.83,24.61-15.26.39-5.3.06-10.65.06-15.98ZM207.4,233.64c-.43-6.97-.32-13.68-1.36-20.22-1.41-8.84-7.19-12.77-16.95-12.6-9.36.16-15.36,4.2-15.94,13.04-.84,12.73-.84,25.6.02,38.33.61,8.95,6.95,13.23,16.37,13.29,9.13.05,14.96-4.1,16.41-12.76,1.07-6.36,1.01-12.9,1.44-19.08ZM293.69,201.39c-.26.52-.52.81-.52,1.1-.06,10.83-.22,21.67-.09,32.5.07,6.31.3,12.65,1.03,18.9.55,4.69,3.11,8.6,7.83,10.15,9.74,3.2,23.09,2.31,24.25-13.96.11-1.49.34-2.99.34-4.48.03-13.5.03-27,0-40.51,0-1.24-.33-2.49-.5-3.67h-7.81c0,2.05,0,3.84,0,5.63,0,12.17.05,24.34-.04,36.5-.02,2.98-.13,6.04-.83,8.91-1.27,5.22-6.29,7.89-10.75,5.19-2.26-1.37-4.42-4.87-4.54-7.5-.64-14.3-.64-28.63-.85-42.95-.03-1.92,0-3.84,0-5.82h-7.51ZM586.25,247.06c1.12,10.77,5.06,16.47,12.33,17.87,6.39,1.24,12.48.54,16.63-5.16,4.38-6.02,4.17-12.81.52-18.82-2.7-4.44-6.9-7.99-10.58-11.8-3-3.1-6.99-5.53-9.09-9.11-1.48-2.52-1.4-6.81-.3-9.64.6-1.56,5.2-2.95,7.2-2.22,2.44.89,4.23,3.95,5.94,6.33.77,1.07.68,2.77,1.05,4.51,2.54-.68,4.72-1.26,7.12-1.89-.68-6.51-2.07-12.37-8.49-14.95-6-2.4-12.26-2.39-17.5,1.9-5.24,4.3-5.96,10.41-3.98,16.41,1.14,3.45,3.52,6.72,6.05,9.41,3.97,4.23,8.78,7.67,12.75,11.91,1.92,2.05,3.36,5.02,3.88,7.78.69,3.72-.1,7.44-4.76,8.56-4.31,1.04-7.81-.81-9.41-5.27-.89-2.47-1.3-5.11-1.99-7.93-2.43.69-4.78,1.36-7.35,2.09ZM375.14,264.56v-56.7h9.97v-6.35h-29.24v6.62h10.49v56.43h8.78ZM239.28,201.4v63.12h24.49v-6.17h-15.99v-56.95h-8.5ZM415.99,201.37v63.14h7.79v-63.14h-7.79Z"/>
  <path class="cls-1" d="M133.89,89.63c-10.17,2.74-19.78,5.34-29.96,8.09-.62-4.24-1.09-8.14-1.78-12-.66-3.77-1.36-7.54-2.35-11.23-5.33-19.81-25.13-28.93-43.85-20.27-9.12,4.22-14.21,14.31-13.83,26.24.41,12.78,5.58,23.08,15.08,31.42,15.65,13.73,31.52,27.22,46.83,41.33,14.22,13.11,26.37,27.9,31.29,47.23,3.99,15.67,4.16,31.42-1.68,46.69-9.09,23.75-32.79,36.88-60.77,35.37-35.16-1.89-54.38-23.53-60.81-56.21-1.12-5.68-1.64-11.49-2.5-17.7,10.64-2.89,20.83-5.66,31.42-8.53,1.02,6.52,1.84,12.73,2.99,18.87,1.64,8.73,4.21,17.14,9.72,24.35,7.66,10.01,20.27,13.67,33.73,9.75,10.14-2.96,16.26-11.05,17.27-23.79,1.07-13.42-1.23-26.26-11.1-36.11-13.43-13.38-27.48-26.14-41.36-39.07-5.61-5.22-11.37-10.28-17.23-15.21-18.85-15.9-25.72-36.51-24.41-60.55.68-12.43,3.52-24.06,11.37-33.99,10.92-13.82,25.97-19.37,42.91-20.07,7.75-.32,15.67.38,23.33,1.65,17.12,2.85,29.42,12.42,36.87,28.22,5.25,11.15,7.54,22.96,8.8,35.5Z"/>
  <path class="cls-1" d="M719.3,50.07h17.6v54.45h31.99v-54.2h17.96v126.1h-17.55v-58.26h-32.1v58.2h-17.9V50.07Z"/>
  <path class="cls-1" d="M281.93,117.46v58.92h-17.49V49.31c13.26.69,26.62.4,39.65,2.33,14.02,2.08,20.56,10.07,22.07,24.44.65,6.21.4,12.65-.48,18.84-1.18,8.33-5.46,14.94-14.34,18.52,5.88,20.87,11.76,41.74,17.84,63.32-5.4,0-10.33.23-15.2-.17-1.13-.09-2.63-2.17-3.04-3.6-4.71-16.29-9.5-32.57-13.66-49.01-1.31-5.17-3.3-7.5-8.67-6.6-1.93.32-3.97.05-6.68.05ZM282.09,104.51c9.19-.47,19.22,2.04,24.43-7.27,5.01-8.96,5.05-19.44-.5-28.16-5.5-8.64-15.29-5.7-23.93-6.13v41.56Z"/>
  <path class="cls-1" d="M189.86,106.94c4.13-8.43,8.26-16.86,12.37-25.29,4.67-9.57,9.23-19.2,14.08-28.67.71-1.38,2.76-2.76,4.3-2.9,4.29-.39,8.64-.14,13.7-.14-2.03,4.66-3.82,8.89-5.69,13.07-5.71,12.75-11.34,25.55-17.25,38.2-1.55,3.32-1.58,6.08-.18,9.43,8.47,20.26,16.74,40.6,25.07,60.91.62,1.5,1.14,3.04,1.95,5.22-5.47,0-10.42.28-15.3-.19-1.34-.13-2.95-2.31-3.61-3.9-6.84-16.43-13.52-32.93-20.24-49.41-.62-1.52-1.29-3.02-2.22-5.19-4.26,7.32-8.73,13.45-8.19,22.2.74,11.91.18,23.9.18,36.18h-17.53V50.27h17.4v56.43c.38.08.77.16,1.15.24Z"/>
  <path class="cls-1" d="M687.17,95.15h-16.85c-.35-6.28-.6-12.52-1.08-18.75-.7-9.04-4.35-12.95-12.27-13.45-10.29-.64-15.23,2.71-17.14,11.84-.57,2.75-.94,5.6-.94,8.41,0,21.47-.09,42.95.32,64.42.13,6.78,1.84,13.78,9.85,15.61,12.38,2.83,19.37-1.21,20.16-13.45.42-6.6.73-13.22,1.1-20.08h16.07c.55,12.58,1.44,25.24-5.63,36.25-2.76,4.29-7.68,8.07-12.46,9.99-9.35,3.76-19.33,3.25-28.81-.25-8.59-3.17-13.73-9.92-16.05-18.53-1.46-5.42-2.6-11.11-2.66-16.69-.19-19.64.08-39.29.36-58.94.05-3.28.79-6.61,1.6-9.82,3.51-13.99,11.39-20.93,25.73-22.51,3.95-.43,8.01-.45,11.96-.05,13.91,1.4,22,8.25,24.68,22,1.5,7.71,1.41,15.73,2.06,23.98Z"/>
  <path class="cls-1" d="M424.98,176.59h-16.94c-1.96-10.51-3.9-20.93-5.89-31.63-7.79,0-15.27-.14-22.74.14-1.15.04-2.94,1.84-3.22,3.09-1.84,8.28-3.5,16.6-4.86,24.97-.49,3.04-1.79,3.8-4.59,3.68-4.12-.19-8.24-.05-12.94-.05,2.22-10.68,4.28-20.75,6.42-30.8,6.55-30.74,13.2-61.46,19.59-92.24.68-3.26,1.94-4.02,4.91-3.88,4.3.2,8.62.05,13.2.05,9.01,42.18,17.96,84.09,27.06,126.66ZM399.78,131.8c-3.37-18.08-6.66-35.7-9.94-53.31-.31,0-.61,0-.92,0-3.24,17.69-6.49,35.37-9.78,53.31h20.64Z"/>
  <path class="cls-1" d="M529.98,141.09c4.8-1.33,9.72-2.69,14.99-4.15,1.07,5.02,1.76,9.92,3.2,14.6,2.88,9.37,8.48,13.18,17.32,12.4,5.51-.49,9.36-3.49,10.77-8.86,2.02-7.72,1.17-15.3-4.49-21.03-9.12-9.21-18.62-18.1-28.5-26.5-11-9.34-14.61-21.04-13.04-34.82,1.57-13.74,11.6-22.83,25.94-23.75,22.2-1.43,34.42,9.76,35.22,32.83-4.74,1.31-9.63,2.66-14.59,4.03-.75-3.95-1.21-7.58-2.15-11.08-2.61-9.73-9.96-14.01-19.4-11.51-7.63,2.01-11.57,9.87-8.47,19,1.42,4.19,4.44,8.2,7.67,11.33,7.04,6.83,14.81,12.92,22.05,19.55,12.02,11,19.48,23.93,16.78,41.05-1.83,11.6-9.38,20.09-20.77,22.95-24.08,6.05-42.6-9.46-42.52-36.03Z"/>
  <path class="cls-1" d="M467.13,63.4h-21.16v-13.21h59.67v13.07h-20.36v113.18h-18.15V63.4Z"/>
  <path class="cls-1" d="M531.13,264.65h-7.13v-62.91c3.54-1.45,5.66-.62,7.2,3.19,4.15,10.33,8.66,20.52,13.05,30.76.68,1.59,1.46,3.14,3.29,4.5v-38.77h7.1v62.83c-3.78,1.41-5.62.25-7.02-3.29-4.35-10.96-9.07-21.78-13.67-32.64-.62-1.46-1.35-2.87-2.82-4.16v40.48Z"/>
  <path class="cls-1" d="M491.06,232.98c0,5.33.32,10.68-.06,15.98-.98,13.43-11.98,20.16-24.61,15.26-6.21-2.4-9.04-7.52-9.25-13.64-.41-11.63-.65-23.31-.02-34.92.55-10.19,6.59-14.9,16.98-14.85,10.11.05,16,5.12,16.84,15.19.47,5.62.08,11.31.08,16.97.02,0,.04,0,.06,0ZM482.12,233.29s.01,0,.02,0c0-5.83.21-11.67-.06-17.49-.27-5.76-2.71-7.95-8.03-7.98-5.38-.04-8.09,2.07-8.23,7.77-.29,11.65-.27,23.32.06,34.97.16,5.66,3.03,7.96,8.2,7.91,5.11-.06,7.7-2.47,7.98-8.18.28-5.65.06-11.32.06-16.99Z"/>
  <path class="cls-1" d="M207.4,233.64c-.43,6.17-.37,12.72-1.44,19.08-1.45,8.66-7.28,12.81-16.41,12.76-9.42-.05-15.77-4.34-16.37-13.29-.86-12.73-.86-25.6-.02-38.33.58-8.84,6.58-12.88,15.94-13.04,9.75-.16,15.54,3.77,16.95,12.6,1.04,6.53.93,13.25,1.36,20.22ZM197.96,232.92c0-5.5.2-11.01-.05-16.49-.28-6.16-2.7-8.53-8.05-8.62-5.62-.09-8.43,2.37-8.58,8.61-.26,10.99-.26,22,.01,32.99.15,6.35,2.98,9.03,8.32,9.03,5.36,0,8.01-2.68,8.29-9.04.24-5.49.05-11,.06-16.49Z"/>
  <path class="cls-1" d="M293.69,201.39h7.51c0,1.98-.02,3.9,0,5.82.21,14.32.2,28.65.85,42.95.12,2.63,2.27,6.13,4.54,7.5,4.46,2.7,9.48.02,10.75-5.19.7-2.87.81-5.93.83-8.91.09-12.17.04-24.34.04-36.5,0-1.79,0-3.58,0-5.63h7.81c.17,1.18.5,2.43.5,3.67.04,13.5.03,27,0,40.51,0,1.49-.24,2.99-.34,4.48-1.15,16.28-14.51,17.16-24.25,13.96-4.72-1.55-7.28-5.46-7.83-10.15-.73-6.26-.96-12.6-1.03-18.9-.13-10.83.03-21.66.09-32.5,0-.29.26-.57.52-1.1Z"/>
  <path class="cls-1" d="M586.25,247.06c2.57-.73,4.92-1.4,7.35-2.09.69,2.82,1.11,5.46,1.99,7.93,1.6,4.46,5.1,6.31,9.41,5.27,4.66-1.12,5.45-4.84,4.76-8.56-.52-2.77-1.96-5.74-3.88-7.78-3.97-4.23-8.78-7.68-12.75-11.91-2.53-2.69-4.91-5.97-6.05-9.41-1.98-6-1.26-12.11,3.98-16.41,5.24-4.3,11.5-4.31,17.5-1.9,6.42,2.57,7.81,8.44,8.49,14.95-2.4.64-4.58,1.22-7.12,1.89-.37-1.74-.28-3.43-1.05-4.51-1.71-2.38-3.5-5.44-5.94-6.33-2-.73-6.6.67-7.2,2.22-1.1,2.83-1.17,7.12.3,9.64,2.1,3.58,6.09,6.01,9.09,9.11,3.68,3.8,7.89,7.36,10.58,11.8,3.65,6,3.86,12.8-.52,18.82-4.15,5.7-10.23,6.4-16.63,5.16-7.28-1.41-11.21-7.1-12.33-17.87Z"/>
  <path class="cls-1" d="M375.14,264.56h-8.78v-56.43h-10.49v-6.62h29.24v6.35h-9.97v56.7Z"/>
  <path class="cls-1" d="M239.28,201.4h8.5v56.95h15.99v6.17h-24.49v-63.12Z"/>
  <path class="cls-1" d="M415.99,201.37h7.79v63.14h-7.79v-63.14Z"/>
  <path class="cls-2" d="M282.09,104.51v-41.56c8.64.43,18.43-2.51,23.93,6.13,5.55,8.71,5.51,19.19.5,28.16-5.21,9.32-15.24,6.81-24.43,7.27Z"/>
  <path class="cls-2" d="M399.78,131.8h-20.64c3.29-17.94,6.53-35.62,9.78-53.31.31,0,.61,0,.92,0,3.29,17.62,6.57,35.23,9.94,53.31Z"/>
  <path class="cls-2" d="M482.12,233.29c0,5.66.22,11.34-.06,16.99-.28,5.71-2.87,8.12-7.98,8.18-5.16.06-8.04-2.25-8.2-7.91-.33-11.65-.35-23.32-.06-34.97.14-5.7,2.85-7.8,8.23-7.77,5.32.04,7.76,2.22,8.03,7.98.27,5.82.06,11.66.06,17.49,0,0-.01,0-.02,0Z"/>
  <path class="cls-2" d="M197.96,232.92c0,5.5.19,11.01-.05,16.49-.28,6.36-2.93,9.04-8.29,9.04-5.34,0-8.17-2.69-8.32-9.03-.27-10.99-.27-22-.01-32.99.15-6.24,2.96-8.7,8.58-8.61,5.35.08,7.76,2.46,8.05,8.62.25,5.49.05,11,.05,16.49Z"/>
</svg>