<svg xmlns="http://www.w3.org/2000/svg" viewBox="0 0 512 512"><defs><style>.cls-1{fill:#211915;}</style></defs><title>50-Computer-hardware-Line-Icons</title><g id="_44" data-name="44"><path class="cls-1" d="M129.7,308.33H106.88A64,64,0,0,1,43,241.42c1.45-32.45,28-59.23,60.45-60.95a64.43,64.43,0,0,1,16.65,1.28,6.27,6.27,0,0,0,5.9-1.82,6.64,6.64,0,0,0,1.64-6.24,83.7,83.7,0,0,1,8.83-62.47,2.5,2.5,0,0,1,4.32,2.52,78.68,78.68,0,0,0-8.3,58.73,11.57,11.57,0,0,1-2.89,10.92A11.29,11.29,0,0,1,119,186.64a59.76,59.76,0,0,0-15.36-1.17C73.78,187.05,49.3,211.73,48,241.65a59,59,0,0,0,58.92,61.68H129.7a2.5,2.5,0,0,1,0,5Z"/><path class="cls-1" d="M454.48,295.12a2.49,2.49,0,0,1-1.8-4.23,40.73,40.73,0,0,0-48.92-64,8.45,8.45,0,0,1-12.55-7.4v-.13A59,59,0,0,0,304,167.6,11.47,11.47,0,0,1,287.08,157c.07-1.42.1-2.86.09-4.28-.3-42.34-35-77.32-77.28-78a78.24,78.24,0,0,0-28.46,4.83,2.5,2.5,0,0,1-1.73-4.69A83,83,0,0,1,210,69.76c45,.71,81.88,37.91,82.2,82.94,0,1.51,0,3-.09,4.56a6.47,6.47,0,0,0,9.53,6,64,64,0,0,1,94.6,56.18v.14a3.36,3.36,0,0,0,1.68,3,3.46,3.46,0,0,0,3.45.05,45.72,45.72,0,0,1,54.94,71.81A2.49,2.49,0,0,1,454.48,295.12Z"/><path class="cls-1" d="M407.07,308.33H357.86a2.5,2.5,0,0,1,0-5h49.21a2.5,2.5,0,0,1,0,5Z"/><path class="cls-1" d="M347.86,308.33H306.27a2.5,2.5,0,0,1,0-5h41.59a2.5,2.5,0,0,1,0,5Z"/><path class="cls-1" d="M352.86,452.29a7.51,7.51,0,0,1-7.5-7.5V267.24H341a10,10,0,0,1-8.69-15.05l11.88-20.58a10,10,0,0,1,17.38,0l11.88,20.58a10,10,0,0,1-8.69,15.05h-4.38v87.58a2.5,2.5,0,1,1-5,0V264.74a2.5,2.5,0,0,1,2.5-2.5h6.88a5,5,0,0,0,4.36-7.55l-11.88-20.58a5,5,0,0,0-8.72,0l-11.88,20.58a5,5,0,0,0,4.36,7.55h6.88a2.5,2.5,0,0,1,2.5,2.5V444.79a2.5,2.5,0,1,0,5,0v-43a2.5,2.5,0,0,1,5,0v43A7.5,7.5,0,0,1,352.86,452.29Z"/><path class="cls-1" d="M287.08,452.29H148.89A21.71,21.71,0,0,1,127.2,430.6V223.19a21.71,21.71,0,0,1,21.69-21.69h79.36a2.5,2.5,0,0,1,0,5H148.89a16.71,16.71,0,0,0-16.69,16.69V430.6a16.71,16.71,0,0,0,16.69,16.69H287.08a16.71,16.71,0,0,0,16.69-16.69V223.19a16.71,16.71,0,0,0-16.69-16.69,2.5,2.5,0,0,1,0-5,21.71,21.71,0,0,1,21.69,21.69V430.6A21.71,21.71,0,0,1,287.08,452.29Z"/><path class="cls-1" d="M281,438H266.08a13.42,13.42,0,0,1-13.41-13.41V386a13.42,13.42,0,0,1,13.41-13.41H281A13.43,13.43,0,0,1,294.43,386v8.42a2.5,2.5,0,0,1-5,0V386a8.42,8.42,0,0,0-8.42-8.41H266.08a8.42,8.42,0,0,0-8.41,8.41v38.51a8.42,8.42,0,0,0,8.41,8.41H281a8.42,8.42,0,0,0,8.42-8.41v-6.81a2.5,2.5,0,0,1,5,0v6.81A13.43,13.43,0,0,1,281,438Z"/><path class="cls-1" d="M154.8,242.35a13.26,13.26,0,1,1,13.25-13.26A13.28,13.28,0,0,1,154.8,242.35Zm0-21.51a8.26,8.26,0,1,0,8.25,8.25A8.27,8.27,0,0,0,154.8,220.84Z"/><path class="cls-1" d="M281.17,242.35a13.26,13.26,0,1,1,13.26-13.26A13.27,13.27,0,0,1,281.17,242.35Zm0-21.51a8.26,8.26,0,1,0,8.26,8.25A8.26,8.26,0,0,0,281.17,220.84Z"/><path class="cls-1" d="M154.8,368.72a13.26,13.26,0,1,1,13.25-13.25A13.27,13.27,0,0,1,154.8,368.72Zm0-21.51a8.26,8.26,0,1,0,8.25,8.26A8.28,8.28,0,0,0,154.8,347.21Z"/><path class="cls-1" d="M281.17,368.72a13.26,13.26,0,1,1,13.26-13.25A13.26,13.26,0,0,1,281.17,368.72Zm0-21.51a8.26,8.26,0,1,0,8.26,8.26A8.27,8.27,0,0,0,281.17,347.21Z"/><path class="cls-1" d="M234.61,355.76a2.5,2.5,0,0,1-.66-4.91,60.7,60.7,0,1,0-71.47-83.15,2.5,2.5,0,1,1-4.57-2,65.7,65.7,0,1,1,77.35,90A2.48,2.48,0,0,1,234.61,355.76Z"/><path class="cls-1" d="M212.83,357.76h-.21a65.54,65.54,0,0,1-60-59,2.5,2.5,0,1,1,5-.49A60.57,60.57,0,0,0,213,352.77a2.5,2.5,0,0,1-.2,5Z"/><path class="cls-1" d="M224.78,341.78a2.5,2.5,0,0,1-2.47-2.14l-3.6-24.9a2.5,2.5,0,1,1,4.95-.71l3.6,24.89a2.49,2.49,0,0,1-2.12,2.83Z"/><path class="cls-1" d="M208.94,357.32l-.36,0a2.5,2.5,0,0,1-2.12-2.83L212.31,314a2.5,2.5,0,1,1,4.95.71l-5.85,40.43A2.5,2.5,0,0,1,208.94,357.32Z"/><path class="cls-1" d="M187.4,350.08a2.5,2.5,0,0,1-2.19-3.71L205,310.61a2.5,2.5,0,0,1,4.37,2.42l-19.78,35.76A2.47,2.47,0,0,1,187.4,350.08Z"/><path class="cls-1" d="M162.69,325.37a2.5,2.5,0,0,1-1.21-4.68l35.75-19.78a2.5,2.5,0,1,1,2.42,4.37L163.9,325.06A2.51,2.51,0,0,1,162.69,325.37Z"/><path class="cls-1" d="M228.79,275.24a2.47,2.47,0,0,1-1.2-.31,2.5,2.5,0,0,1-1-3.4l19.78-35.76a2.5,2.5,0,0,1,4.38,2.42L231,274A2.5,2.5,0,0,1,228.79,275.24Z"/><path class="cls-1" d="M237.53,284a2.5,2.5,0,0,1-1.21-4.69l35.75-19.78a2.5,2.5,0,1,1,2.42,4.38l-35.75,19.78A2.53,2.53,0,0,1,237.53,284Z"/><path class="cls-1" d="M200.09,281.41a2.45,2.45,0,0,1-1.49-.5l-32.73-24.45a2.5,2.5,0,1,1,3-4l32.73,24.46a2.5,2.5,0,0,1,.51,3.5A2.54,2.54,0,0,1,200.09,281.41Z"/><path class="cls-1" d="M204.62,276.89a2.51,2.51,0,0,1-2-1l-24.45-32.73a2.5,2.5,0,0,1,4-3l24.45,32.73a2.49,2.49,0,0,1-.51,3.5A2.45,2.45,0,0,1,204.62,276.89Z"/><path class="cls-1" d="M218,317.12a24.84,24.84,0,1,1,24.84-24.84A24.87,24.87,0,0,1,218,317.12Zm0-44.67a19.84,19.84,0,1,0,19.84,19.83A19.85,19.85,0,0,0,218,272.45Z"/><path class="cls-1" d="M218,305.05a12.77,12.77,0,1,1,0-25.54,2.5,2.5,0,1,1,0,5,7.77,7.77,0,1,0,7.77,7.77,2.5,2.5,0,0,1,5,0A12.78,12.78,0,0,1,218,305.05Z"/><path class="cls-1" d="M212,438H197.29a2.5,2.5,0,0,1,0-5H212a3.5,3.5,0,0,0,3.5-3.5V411.29a3.5,3.5,0,0,0-3.5-3.5h-.8A32.53,32.53,0,0,1,179,380.44a3.48,3.48,0,0,0-3.44-2.82H150.05a3.51,3.51,0,0,0-3.51,3.5v48.33a3.51,3.51,0,0,0,3.51,3.5h17.31a2.5,2.5,0,0,1,0,5H150.05a8.51,8.51,0,0,1-8.51-8.5V381.12a8.51,8.51,0,0,1,8.51-8.5h25.46a8.41,8.41,0,0,1,8.37,7,27.55,27.55,0,0,0,27.3,23.16h.8a8.51,8.51,0,0,1,8.5,8.5v18.16A8.51,8.51,0,0,1,212,438Z"/><path class="cls-1" d="M203.65,397a10,10,0,0,1-5.77-1.82l-3.24-2.27a10.12,10.12,0,0,1-2.31-14.38l40-53.5a9.91,9.91,0,0,1,16.24,11.35l-20.33,31.26a2.5,2.5,0,0,1-4.19-2.73l20.33-31.26a4.91,4.91,0,0,0-8-5.62l-40,53.5a5.12,5.12,0,0,0,1.17,7.28l3.24,2.27a5.14,5.14,0,0,0,7.25-1.42l2.74-4.22a2.5,2.5,0,1,1,4.19,2.73l-2.74,4.22a10.17,10.17,0,0,1-8.53,4.61Z"/></g></svg>