<svg xmlns="http://www.w3.org/2000/svg" viewBox="0 0 512 512"><defs><style>.cls-1{fill:#211915;}</style></defs><title>50-Computer-hardware-Line-Icons</title><g id="_18" data-name="18"><path class="cls-1" d="M148.29,391H114.14a22.05,22.05,0,0,1-22-22V265.66a2.5,2.5,0,0,1,5,0V368.94a17,17,0,0,0,17,17h34.15a2.5,2.5,0,0,1,0,5Z"/><path class="cls-1" d="M397.86,391H363.71a2.5,2.5,0,0,1,0-5h34.15a17,17,0,0,0,17-17V204.65a17,17,0,0,0-17-17H114.14a17,17,0,0,0-17,17,2.5,2.5,0,0,1-5,0,22.05,22.05,0,0,1,22-22H397.86a22.05,22.05,0,0,1,22,22V368.94A22.05,22.05,0,0,1,397.86,391Z"/><path class="cls-1" d="M357.22,304.56H154.78a9,9,0,0,1-9-9V278a9,9,0,0,1,9-9H263.3a2.5,2.5,0,0,1,0,5H154.78a4,4,0,0,0-4,4v17.57a4,4,0,0,0,4,4H357.22a4,4,0,0,0,4-4V278a4,4,0,0,0-4-4H333.71a2.5,2.5,0,0,1,0-5h23.51a9,9,0,0,1,9,9v17.57A9,9,0,0,1,357.22,304.56Z"/><path class="cls-1" d="M346.57,434.86H248.32a2.5,2.5,0,0,1,0-5h98.25a14.65,14.65,0,0,0,14.64-14.63V341.68H150.79v73.55a14.65,14.65,0,0,0,14.64,14.63H192a2.5,2.5,0,0,1,0,5H165.43a19.66,19.66,0,0,1-19.64-19.63V339.18a2.5,2.5,0,0,1,2.5-2.5H363.71a2.5,2.5,0,0,1,2.5,2.5v76.05A19.66,19.66,0,0,1,346.57,434.86Z"/><path class="cls-1" d="M363.71,227.62a12.52,12.52,0,0,1-12.5-12.5,2.5,2.5,0,1,1,5,0,7.5,7.5,0,1,0,7.5-7.5,2.5,2.5,0,1,1,0-5,12.5,12.5,0,0,1,0,25Z"/><path class="cls-1" d="M323.71,227.62a12.52,12.52,0,0,1-12.5-12.5,2.5,2.5,0,1,1,5,0,7.5,7.5,0,1,0,7.5-7.5,2.5,2.5,0,1,1,0-5,12.5,12.5,0,0,1,0,25Z"/><path class="cls-1" d="M363.71,187.62H148.29a2.5,2.5,0,0,1-2.5-2.5V122.25a19.65,19.65,0,0,1,19.64-19.63h12.86a2.5,2.5,0,0,1,0,5H165.43a14.65,14.65,0,0,0-14.64,14.63v60.37H361.21V122.25a14.65,14.65,0,0,0-14.64-14.63H333.71a2.5,2.5,0,0,1,0-5h12.86a19.65,19.65,0,0,1,19.64,19.63v62.87A2.5,2.5,0,0,1,363.71,187.62Z"/><path class="cls-1" d="M333.71,187.62H178.29a2.5,2.5,0,0,1-2.5-2.5V63.05a2.49,2.49,0,0,1,2.5-2.5h83.24a2.5,2.5,0,0,1,0,5H180.79V182.62H331.21V65.55H309.93a2.5,2.5,0,0,1,0-5h23.78a2.49,2.49,0,0,1,2.5,2.5V185.12A2.5,2.5,0,0,1,333.71,187.62Z"/><path class="cls-1" d="M304.93,97.62H207.07a7.5,7.5,0,0,1,0-15H217a2.5,2.5,0,0,1,0,5h-9.93a2.5,2.5,0,0,0,0,5h97.86a2.5,2.5,0,0,0,0-5H254.57a2.5,2.5,0,0,1,0-5h50.36a7.5,7.5,0,0,1,0,15Z"/><path class="cls-1" d="M304.93,117.62H207.07a7.5,7.5,0,0,1,0-15h24.61a2.5,2.5,0,0,1,0,5H207.07a2.5,2.5,0,0,0,0,5h97.86a2.5,2.5,0,0,0,0-5h-35a2.5,2.5,0,0,1,0-5h35a7.5,7.5,0,0,1,0,15Z"/><path class="cls-1" d="M304.93,137.62H207.07a7.5,7.5,0,0,1,0-15h38.81a2.5,2.5,0,0,1,0,5H207.07a2.5,2.5,0,0,0,0,5h97.86a2.5,2.5,0,0,0,0-5H284.06a2.5,2.5,0,0,1,0-5h20.87a7.5,7.5,0,0,1,0,15Z"/><path class="cls-1" d="M304.93,157.62H207.07a7.5,7.5,0,0,1,0-15h55a2.5,2.5,0,0,1,0,5h-55a2.5,2.5,0,0,0,0,5h97.86a2.5,2.5,0,0,0,0-5H293.19a2.5,2.5,0,0,1,0-5h11.74a7.5,7.5,0,0,1,0,15Z"/><path class="cls-1" d="M304.93,177.62H207.07a7.5,7.5,0,0,1,0-15h65.84a2.5,2.5,0,0,1,0,5H207.07a2.5,2.5,0,0,0,0,5h97.86a2.5,2.5,0,0,0,0-5H299a2.5,2.5,0,0,1,0-5h5.89a7.5,7.5,0,0,1,0,15Z"/></g></svg>