<svg xmlns="http://www.w3.org/2000/svg" viewBox="0 0 512 512"><defs><style>.cls-1{fill:#211915;}</style></defs><title>50-Computer-hardware-Line-Icons</title><g id="_42" data-name="42"><path class="cls-1" d="M158,424.06a12.52,12.52,0,0,1-12.5-12.5V366.39a2.5,2.5,0,0,1,5,0v45.17a7.5,7.5,0,0,0,15,0V366.39a2.5,2.5,0,0,1,5,0v45.17A12.51,12.51,0,0,1,158,424.06Z"/><path class="cls-1" d="M170.6,368.89H145.37a12.28,12.28,0,0,1-12.27-12.27v-9.29a2.5,2.5,0,0,1,5,0v9.29a7.28,7.28,0,0,0,7.27,7.27H170.6a7.28,7.28,0,0,0,7.27-7.27V308.89H138.1v15.44a2.5,2.5,0,0,1-5,0V306.39a2.5,2.5,0,0,1,2.5-2.5h44.77a2.5,2.5,0,0,1,2.5,2.5v50.23A12.28,12.28,0,0,1,170.6,368.89Z"/><path class="cls-1" d="M354,424.06a12.51,12.51,0,0,1-12.5-12.5V366.39a2.5,2.5,0,0,1,5,0v45.17a7.5,7.5,0,0,0,15,0V366.39a2.5,2.5,0,0,1,5,0v45.17A12.52,12.52,0,0,1,354,424.06Z"/><path class="cls-1" d="M366.63,368.89H341.4a12.28,12.28,0,0,1-12.27-12.27v-9.16a2.5,2.5,0,1,1,5,0v9.16a7.28,7.28,0,0,0,7.27,7.27h25.23a7.28,7.28,0,0,0,7.27-7.27V308.89H334.13v15.68a2.5,2.5,0,1,1-5,0V306.39a2.5,2.5,0,0,1,2.5-2.5H376.4a2.5,2.5,0,0,1,2.5,2.5v50.23A12.28,12.28,0,0,1,366.63,368.89Z"/><path class="cls-1" d="M266,414.65a2.5,2.5,0,0,1-2.5-2.5V366.39a2.5,2.5,0,0,1,5,0v45.76A2.5,2.5,0,0,1,266,414.65Z"/><path class="cls-1" d="M256,464.06a12.52,12.52,0,0,1-12.5-12.5V366.39a2.5,2.5,0,0,1,5,0v85.17a7.5,7.5,0,0,0,15,0v-10.4a2.5,2.5,0,0,1,5,0v10.4A12.52,12.52,0,0,1,256,464.06Z"/><path class="cls-1" d="M268.62,368.89H243.38a12.29,12.29,0,0,1-12.27-12.27v-9.05a2.5,2.5,0,0,1,5,0v9.05a7.28,7.28,0,0,0,7.27,7.27h25.24a7.28,7.28,0,0,0,7.27-7.27V308.89H236.11v13.75a2.5,2.5,0,0,1-5,0V306.39a2.5,2.5,0,0,1,2.5-2.5h44.78a2.5,2.5,0,0,1,2.5,2.5v50.23A12.29,12.29,0,0,1,268.62,368.89Z"/><path class="cls-1" d="M408.84,308.89H103.16A28.69,28.69,0,0,1,74.5,280.23V151.77a28.69,28.69,0,0,1,28.66-28.66h23.39a2.5,2.5,0,1,1,0,5H103.16A23.69,23.69,0,0,0,79.5,151.77V280.23a23.69,23.69,0,0,0,23.66,23.66H408.84a23.69,23.69,0,0,0,23.66-23.66V151.77a23.69,23.69,0,0,0-23.66-23.66H196.76a2.5,2.5,0,1,1,0-5H408.84a28.69,28.69,0,0,1,28.66,28.66V280.23A28.69,28.69,0,0,1,408.84,308.89Z"/><path class="cls-1" d="M435,282.73a2.5,2.5,0,0,1-.8-.14l-35.09-12a37.24,37.24,0,0,1-25.21-35.24V196.62a37.24,37.24,0,0,1,25.21-35.24l35.09-12a2.5,2.5,0,1,1,1.61,4.73l-35.08,12a32.24,32.24,0,0,0-21.83,30.51v38.76a32.24,32.24,0,0,0,21.83,30.51l35.08,12a2.5,2.5,0,0,1-.81,4.87Z"/><path class="cls-1" d="M77,282.73a2.5,2.5,0,0,1-.81-4.87l35.08-12a32.24,32.24,0,0,0,21.83-30.51V196.62a32.24,32.24,0,0,0-21.83-30.51l-35.08-12a2.5,2.5,0,1,1,1.61-4.73l35.09,12a37.24,37.24,0,0,1,25.21,35.24v38.76a37.24,37.24,0,0,1-25.21,35.24l-35.09,12A2.5,2.5,0,0,1,77,282.73Z"/><path class="cls-1" d="M333.94,268.5H178.06a12.5,12.5,0,0,1,0-25h52.2a2.5,2.5,0,0,1,0,5h-52.2a7.5,7.5,0,0,0,0,15H333.94a7.5,7.5,0,1,0,0-15h-51a2.5,2.5,0,0,1,0-5h51a12.5,12.5,0,1,1,0,25Z"/><path class="cls-1" d="M333.94,228.5H178.06a12.5,12.5,0,0,1,0-25H246a2.5,2.5,0,0,1,0,5H178.06a7.5,7.5,0,0,0,0,15H333.94a7.5,7.5,0,1,0,0-15H298.79a2.5,2.5,0,0,1,0-5h35.15a12.5,12.5,0,1,1,0,25Z"/><path class="cls-1" d="M333.94,188.5H178.06a12.5,12.5,0,0,1,0-25h84a2.5,2.5,0,0,1,0,5h-84a7.5,7.5,0,0,0,0,15H333.94a7.5,7.5,0,0,0,0-15H315.17a2.5,2.5,0,0,1,0-5h18.77a12.5,12.5,0,0,1,0,25Z"/></g></svg>