<svg xmlns="http://www.w3.org/2000/svg" viewBox="0 0 512 512"><defs><style>.cls-1{fill:#211915;}</style></defs><title>50-Computer-hardware-Line-Icons</title><g id="_38" data-name="38"><path class="cls-1" d="M432.66,386.29H419.57a6,6,0,0,1-5.95-6V336.13a2.49,2.49,0,0,1,2.5-2.5h20a2.5,2.5,0,0,1,2.5,2.5v44.21A6,6,0,0,1,432.66,386.29Zm-14-47.66v41.71a1,1,0,0,0,.95,1h13.09a1,1,0,0,0,1-1V338.63Z"/><path class="cls-1" d="M393,366.29H379.92a6,6,0,0,1-6-6V336.13a2.5,2.5,0,0,1,2.5-2.5h20a2.5,2.5,0,0,1,2.5,2.5v24.21A6,6,0,0,1,393,366.29ZM379,338.63v21.71a1,1,0,0,0,1,1H393a1,1,0,0,0,.95-1V338.63Z"/><path class="cls-1" d="M353.35,386.29H340.27a6,6,0,0,1-6-6V336.13a2.5,2.5,0,0,1,2.5-2.5h20a2.5,2.5,0,0,1,2.5,2.5v44.21A6,6,0,0,1,353.35,386.29Zm-14-47.66v41.71a1,1,0,0,0,1,1h13.08a1,1,0,0,0,1-1V338.63Z"/><path class="cls-1" d="M171.73,386.29H158.65a6,6,0,0,1-6-6V336.13a2.5,2.5,0,0,1,2.5-2.5h20a2.5,2.5,0,0,1,2.5,2.5v44.21A6,6,0,0,1,171.73,386.29Zm-14-47.66v41.71a1,1,0,0,0,1,1h13.08a1,1,0,0,0,1-1V338.63Z"/><path class="cls-1" d="M132.08,366.29H119a6,6,0,0,1-5.95-6V336.13a2.5,2.5,0,0,1,2.5-2.5h20a2.5,2.5,0,0,1,2.5,2.5v24.21A6,6,0,0,1,132.08,366.29Zm-14-27.66v21.71a1,1,0,0,0,.95,1h13.09a1,1,0,0,0,1-1V338.63Z"/><path class="cls-1" d="M92.43,386.29H79.34a6,6,0,0,1-6-6V336.13a2.5,2.5,0,0,1,2.5-2.5h20a2.49,2.49,0,0,1,2.5,2.5v44.21A6,6,0,0,1,92.43,386.29ZM78.38,338.63v41.71a1,1,0,0,0,1,1H92.43a1,1,0,0,0,.95-1V338.63Z"/><path class="cls-1" d="M445.17,338.63H327.76a14.28,14.28,0,0,1-14.26-14.26v-6.48a9.27,9.27,0,0,0-9.26-9.26h-4.92a2.5,2.5,0,0,1,0-5h4.92a14.27,14.27,0,0,1,14.26,14.26v6.48a9.27,9.27,0,0,0,9.26,9.26H445.17a9.28,9.28,0,0,0,9.26-9.26V167.63a9.28,9.28,0,0,0-9.26-9.26H281.46a7.69,7.69,0,0,0-6.41,3.44l-8.47,12.7a12.72,12.72,0,0,1-21.16,0L237,161.81a7.7,7.7,0,0,0-6.42-3.44H176a2.5,2.5,0,0,1,0-5h54.53A12.7,12.7,0,0,1,241.11,159l8.47,12.71a7.72,7.72,0,0,0,12.84,0L270.89,159a12.69,12.69,0,0,1,10.57-5.66H445.17a14.28,14.28,0,0,1,14.26,14.26V324.37A14.28,14.28,0,0,1,445.17,338.63Z"/><path class="cls-1" d="M184.24,338.63H66.83a14.28,14.28,0,0,1-14.26-14.26V167.63a14.28,14.28,0,0,1,14.26-14.26H95.31a2.5,2.5,0,0,1,0,5H66.83a9.28,9.28,0,0,0-9.26,9.26V324.37a9.28,9.28,0,0,0,9.26,9.26H184.24a9.27,9.27,0,0,0,9.26-9.26v-6.48a14.27,14.27,0,0,1,14.26-14.26h37.05a2.5,2.5,0,1,1,0,5H207.76a9.27,9.27,0,0,0-9.26,9.26v6.48A14.28,14.28,0,0,1,184.24,338.63Z"/><path class="cls-1" d="M425.31,318.63H408.08A14.14,14.14,0,0,1,394,304.51v-117a14.14,14.14,0,0,1,14.12-14.12h17.23a14.14,14.14,0,0,1,14.12,14.12v117A14.14,14.14,0,0,1,425.31,318.63ZM408.08,178.37a9.13,9.13,0,0,0-9.12,9.12v117a9.13,9.13,0,0,0,9.12,9.12h17.23a9.13,9.13,0,0,0,9.12-9.12v-117a9.13,9.13,0,0,0-9.12-9.12Z"/><path class="cls-1" d="M364.85,318.63H347.62a14.14,14.14,0,0,1-14.12-14.12v-117a14.14,14.14,0,0,1,14.12-14.12h17.23A14.13,14.13,0,0,1,379,187.49V201.2a2.5,2.5,0,0,1-5,0V187.49a9.13,9.13,0,0,0-9.11-9.12H347.62a9.13,9.13,0,0,0-9.12,9.12v117a9.13,9.13,0,0,0,9.12,9.12h17.23a9.13,9.13,0,0,0,9.11-9.12V256a2.5,2.5,0,0,1,5,0v48.51A14.13,14.13,0,0,1,364.85,318.63Z"/><path class="cls-1" d="M164.38,318.63H147.15A14.13,14.13,0,0,1,133,304.51v-117a14.13,14.13,0,0,1,14.11-14.12h17.23a14.14,14.14,0,0,1,14.12,14.12v117A14.14,14.14,0,0,1,164.38,318.63ZM147.15,178.37a9.13,9.13,0,0,0-9.11,9.12v117a9.13,9.13,0,0,0,9.11,9.12h17.23a9.13,9.13,0,0,0,9.12-9.12v-117a9.13,9.13,0,0,0-9.12-9.12Z"/><path class="cls-1" d="M103.92,318.63H86.69a14.14,14.14,0,0,1-14.12-14.12v-7.26a2.5,2.5,0,0,1,5,0v7.26a9.13,9.13,0,0,0,9.12,9.12h17.23a9.13,9.13,0,0,0,9.12-9.12v-117a9.13,9.13,0,0,0-9.12-9.12H86.69a9.13,9.13,0,0,0-9.12,9.12v64.84a2.5,2.5,0,0,1-5,0V187.49a14.14,14.14,0,0,1,14.12-14.12h17.23A14.14,14.14,0,0,1,118,187.49v117A14.14,14.14,0,0,1,103.92,318.63Z"/><path class="cls-1" d="M311,283.5H201a7.5,7.5,0,0,1,0-15h40.92a2.5,2.5,0,0,1,0,5H201a2.5,2.5,0,0,0,0,5H311a2.5,2.5,0,0,0,0-5H283.9a2.5,2.5,0,0,1,0-5H311a7.5,7.5,0,0,1,0,15Z"/><path class="cls-1" d="M311,253.5H201a7.5,7.5,0,0,1,0-15h24.33a2.5,2.5,0,1,1,0,5H201a2.5,2.5,0,0,0,0,5H311a2.5,2.5,0,0,0,0-5H267.06a2.5,2.5,0,0,1,0-5H311a7.5,7.5,0,0,1,0,15Z"/><path class="cls-1" d="M311,223.5H201a7.5,7.5,0,0,1,0-15h6.76a2.5,2.5,0,0,1,0,5H201a2.5,2.5,0,0,0,0,5H311a2.5,2.5,0,0,0,0-5H250.29a2.5,2.5,0,1,1,0-5H311a7.5,7.5,0,0,1,0,15Z"/></g></svg>