<svg id="_01" data-name="01" xmlns="http://www.w3.org/2000/svg" viewBox="0 0 512 512"><defs><style>.cls-1{fill:#211915;}</style></defs><title>50-Computer-hardware-Line-Icons</title><path class="cls-1" d="M401.09,425.91H110.9c-3.46,0-6.16-3.53-6.16-8s2.64-8.05,6-8.22l48-2.52a2.5,2.5,0,1,1,.26,5l-48,2.52c-.26,0-1.29,1.09-1.29,3.23,0,1.89.86,3,1.16,3H401.09c.3,0,1.16-1.15,1.16-3,0-2.14-1-3.22-1.29-3.23l-109.87-5.77a2.5,2.5,0,0,1-2.37-2.5V357.53a2.5,2.5,0,0,1,5,0V404l107.5,5.65c3.39.17,6,3.79,6,8.22S404.55,425.91,401.09,425.91Z"/><path class="cls-1" d="M194.5,410.25a2.5,2.5,0,0,1-.13-5l23.9-1.26V357.53a2.5,2.5,0,0,1,5,0v48.84a2.5,2.5,0,0,1-2.37,2.5l-26.27,1.38Z"/><path class="cls-1" d="M428.81,360H83.19a10.26,10.26,0,0,1-10.25-10.25V125.83a10.26,10.26,0,0,1,10.25-10.24h35.94a2.5,2.5,0,0,1,0,5H83.19a5.25,5.25,0,0,0-5.25,5.24v224A5.25,5.25,0,0,0,83.19,355H428.81a5.25,5.25,0,0,0,5.25-5.25V125.83a5.25,5.25,0,0,0-5.25-5.24H174.07a2.5,2.5,0,0,1,0-5H428.81a10.26,10.26,0,0,1,10.25,10.24v224A10.26,10.26,0,0,1,428.81,360Z"/><path class="cls-1" d="M414.73,332.77H380.94a2.5,2.5,0,0,1,0-5h31.29V137.85H99.76V327.77H332.17a2.5,2.5,0,1,1,0,5H97.26a2.5,2.5,0,0,1-2.5-2.5V135.35a2.5,2.5,0,0,1,2.5-2.5H414.73a2.5,2.5,0,0,1,2.5,2.5V330.27A2.5,2.5,0,0,1,414.73,332.77Z"/><path class="cls-1" d="M256,324.56a7.51,7.51,0,0,1-7.5-7.5v-11.6a2.5,2.5,0,0,1,5,0v11.6a2.5,2.5,0,0,0,5,0v-11.6a2.5,2.5,0,0,1,5,0v11.6A7.51,7.51,0,0,1,256,324.56Z"/><path class="cls-1" d="M256,308.46a27.39,27.39,0,0,1-27.37-27.36V266.44a2.5,2.5,0,0,1,2.5-2.5h49.73a2.5,2.5,0,0,1,2.5,2.5V281.1A27.39,27.39,0,0,1,256,308.46Zm-22.37-39.52V281.1a22.37,22.37,0,0,0,44.73,0V268.94Z"/><path class="cls-1" d="M280.86,278.94H231.13a2.5,2.5,0,0,1,0-5h49.73a2.5,2.5,0,0,1,0,5Z"/><path class="cls-1" d="M280.28,288.94H231.71a2.5,2.5,0,1,1,0-5h48.57a2.5,2.5,0,0,1,0,5Z"/><path class="cls-1" d="M275.55,298.94H236.44a2.5,2.5,0,0,1,0-5h39.11a2.5,2.5,0,0,1,0,5Z"/><path class="cls-1" d="M231.13,268.94a2.5,2.5,0,0,1-2.5-2.5v-1.39a74.83,74.83,0,0,0-14.09-43.15,50.29,50.29,0,0,1-9.18-30.66c.79-27,23.46-49.07,50.52-49.14H256a50.84,50.84,0,0,1,31.7,11.14,2.5,2.5,0,0,1-3.13,3.9,45.23,45.23,0,0,0-28.68-10,46,46,0,0,0-45.54,44.29A45.31,45.31,0,0,0,218.63,219a79.85,79.85,0,0,1,15,46v1.39A2.5,2.5,0,0,1,231.13,268.94Z"/><path class="cls-1" d="M280.86,268.94a2.5,2.5,0,0,1-2.5-2.5v-1a77.8,77.8,0,0,1,14.52-45.76,45.29,45.29,0,0,0,8.79-26.94,45.89,45.89,0,0,0-1.21-10.47,2.5,2.5,0,1,1,4.87-1.14,50.75,50.75,0,0,1-8.42,41.51,72.76,72.76,0,0,0-13.55,42.8v1A2.5,2.5,0,0,1,280.86,268.94Z"/><path class="cls-1" d="M239.26,268.94a2.5,2.5,0,0,1-2.5-2.5v-38a2.5,2.5,0,1,1,5,0v38A2.5,2.5,0,0,1,239.26,268.94Z"/><path class="cls-1" d="M272.73,268.94a2.5,2.5,0,0,1-2.5-2.5V197.26a2.5,2.5,0,0,0-5,0v10.88a2.5,2.5,0,0,1-2.5,2.5H249.26a2.5,2.5,0,0,1-2.5-2.5V197.26a2.5,2.5,0,0,0-5,0V208.1a2.5,2.5,0,1,1-5,0V197.26a7.5,7.5,0,0,1,15,0v8.38h8.47v-8.38a7.5,7.5,0,0,1,15,0v69.18A2.5,2.5,0,0,1,272.73,268.94Z"/><path class="cls-1" d="M262.73,268.94a2.5,2.5,0,0,1-2.5-2.5v-45.8h-8.47v45.8a2.5,2.5,0,1,1-5,0v-48.3a2.5,2.5,0,0,1,2.5-2.5h13.47a2.5,2.5,0,0,1,2.5,2.5v48.3A2.5,2.5,0,0,1,262.73,268.94Z"/></svg>