<svg xmlns="http://www.w3.org/2000/svg" viewBox="0 0 512 512"><defs><style>.cls-1{fill:#211915;}</style></defs><title>50-Computer-hardware-Line-Icons</title><g id="_22" data-name="22"><path class="cls-1" d="M256,459.72A30.79,30.79,0,0,1,227.19,418a2.5,2.5,0,1,1,4.68,1.77,25.48,25.48,0,0,0-1.67,9.11,25.83,25.83,0,0,0,25.8,25.8,2.5,2.5,0,0,1,0,5Zm0-10a20.79,20.79,0,0,1-17.41-32.17,2.5,2.5,0,0,1,4.19,2.74,15.8,15.8,0,1,0,26.44,0,2.5,2.5,0,1,1,4.18-2.74A20.78,20.78,0,0,1,256,449.72Zm25.2-5.43a2.55,2.55,0,0,1-1.14-.27,2.51,2.51,0,0,1-1.09-3.37,25.71,25.71,0,0,0,1.16-20.84,2.5,2.5,0,1,1,4.68-1.77,30.73,30.73,0,0,1-1.39,24.89A2.48,2.48,0,0,1,281.2,444.29Z"/><path class="cls-1" d="M296.9,421.42H215.1a48.72,48.72,0,0,1-48.66-48.66V166.35a23.14,23.14,0,0,1,23.11-23.11h132.9a23.14,23.14,0,0,1,23.11,23.11V372.76A48.72,48.72,0,0,1,296.9,421.42ZM189.55,148.24a18.13,18.13,0,0,0-18.11,18.11V372.76a43.71,43.71,0,0,0,43.66,43.66h81.8a43.71,43.71,0,0,0,43.66-43.66V166.35a18.13,18.13,0,0,0-18.11-18.11Z"/><path class="cls-1" d="M311.81,304.62a2.5,2.5,0,0,1-2.5-2.5V145.74a2.5,2.5,0,0,1,5,0V302.12A2.5,2.5,0,0,1,311.81,304.62Z"/><path class="cls-1" d="M293.83,390.17H218.17a20.5,20.5,0,0,1-20.48-20.47v-224a2.5,2.5,0,0,1,5,0v224a15.49,15.49,0,0,0,15.48,15.47h75.66a15.49,15.49,0,0,0,15.48-15.47V348.88a2.5,2.5,0,0,1,5,0V369.7A20.5,20.5,0,0,1,293.83,390.17Z"/><path class="cls-1" d="M290.45,212.34h-68.9a7.5,7.5,0,0,1,0-15h7.88a2.5,2.5,0,0,1,0,5h-7.88a2.5,2.5,0,0,0,0,5h68.9a2.5,2.5,0,0,0,0-5H259.29a2.5,2.5,0,0,1,0-5h31.16a7.5,7.5,0,0,1,0,15Z"/><path class="cls-1" d="M290.45,232.34h-68.9a7.5,7.5,0,0,1,0-15h19.34a2.5,2.5,0,0,1,0,5H221.55a2.5,2.5,0,0,0,0,5h68.9a2.5,2.5,0,0,0,0-5H268.9a2.5,2.5,0,0,1,0-5h21.55a7.5,7.5,0,0,1,0,15Z"/><path class="cls-1" d="M290.45,252.34h-68.9a7.5,7.5,0,0,1,0-15h32.58a2.5,2.5,0,0,1,0,5H221.55a2.5,2.5,0,0,0,0,5h68.9a2.5,2.5,0,0,0,0-5h-12a2.5,2.5,0,0,1,0-5h12a7.5,7.5,0,0,1,0,15Z"/><path class="cls-1" d="M311.81,148.24a2.5,2.5,0,0,1-2.5-2.5V90.87a10.8,10.8,0,0,0-10.79-10.79H266.64a2.5,2.5,0,0,1,0-5h31.88a15.8,15.8,0,0,1,15.79,15.79v54.87A2.5,2.5,0,0,1,311.81,148.24Z"/><path class="cls-1" d="M200.19,148.24a2.5,2.5,0,0,1-2.5-2.5V90.87a15.8,15.8,0,0,1,15.79-15.79H222a2.5,2.5,0,0,1,0,5h-8.51a10.8,10.8,0,0,0-10.79,10.79v54.87A2.5,2.5,0,0,1,200.19,148.24Z"/></g></svg>