<svg xmlns="http://www.w3.org/2000/svg" viewBox="0 0 512 512"><defs><style>.cls-1{fill:#211915;}</style></defs><title>50-Computer-hardware-Line-Icons</title><g id="_20" data-name="20"><path class="cls-1" d="M301.11,419.67H210.89a46.55,46.55,0,0,1-46.5-46.5V167.45a2.5,2.5,0,0,1,5,0V373.17a41.55,41.55,0,0,0,41.5,41.5h90.22a41.44,41.44,0,0,0,34.61-18.59,2.5,2.5,0,1,1,4.16,2.77A46.42,46.42,0,0,1,301.11,419.67Z"/><path class="cls-1" d="M345.11,339.08a2.49,2.49,0,0,1-2.5-2.5V138.83a41.55,41.55,0,0,0-41.5-41.5H210.89a41.38,41.38,0,0,0-32.06,15.15A2.5,2.5,0,1,1,175,109.3a46.38,46.38,0,0,1,35.92-17h90.22a46.55,46.55,0,0,1,46.5,46.5V336.58A2.49,2.49,0,0,1,345.11,339.08Z"/><path class="cls-1" d="M197.73,258.5H166.89a2.5,2.5,0,0,1,0-5h30.84a2.5,2.5,0,1,1,0,5Z"/><path class="cls-1" d="M345.11,258.5H237.52a2.5,2.5,0,1,1,0-5H345.11a2.5,2.5,0,0,1,0,5Z"/><path class="cls-1" d="M287.06,97.33H224.94a2.5,2.5,0,0,1-2.5-2.5V73.16a19,19,0,0,1,4.34-12.09,2.5,2.5,0,0,1,3.85,3.19,14,14,0,0,0-3.19,8.9V92.33h57.12V73.16a14,14,0,0,0-14-14H256a2.5,2.5,0,0,1,0-5h14.57a19,19,0,0,1,19,19V94.83A2.5,2.5,0,0,1,287.06,97.33Z"/><path class="cls-1" d="M256,457.84H241.43a19,19,0,0,1-19-19V417.17a2.5,2.5,0,0,1,2.5-2.5h62.12a2.5,2.5,0,0,1,2.5,2.5v21.67a18.86,18.86,0,0,1-7.44,15.08,2.5,2.5,0,1,1-3-4,13.91,13.91,0,0,0,5.48-11.11V419.67H227.44v19.17a14,14,0,0,0,14,14H256a2.5,2.5,0,0,1,0,5Z"/><path class="cls-1" d="M291.06,349.08H220.94a12.5,12.5,0,0,1,0-25h28.19a2.5,2.5,0,1,1,0,5H220.94a7.5,7.5,0,0,0,0,15h70.12a7.5,7.5,0,0,0,0-15H281.8a2.5,2.5,0,0,1,0-5h9.26a12.5,12.5,0,0,1,0,25Z"/><path class="cls-1" d="M256,223a12.52,12.52,0,0,1-12.5-12.5V187.92H220.94a12.5,12.5,0,0,1,0-25H243.5V140.35a12.5,12.5,0,0,1,25,0v22.57h22.56a12.5,12.5,0,0,1,0,25H268.5v22.56A12.52,12.52,0,0,1,256,223Zm-35.06-55.06a7.5,7.5,0,0,0,0,15H246a2.49,2.49,0,0,1,2.5,2.5v25.06a7.5,7.5,0,1,0,15,0V185.42a2.49,2.49,0,0,1,2.5-2.5h25.06a7.5,7.5,0,0,0,0-15H266a2.5,2.5,0,0,1-2.5-2.5V140.35a7.5,7.5,0,0,0-15,0v25.07a2.5,2.5,0,0,1-2.5,2.5Z"/></g></svg>