<svg xmlns="http://www.w3.org/2000/svg" viewBox="0 0 512 512"><defs><style>.cls-1{fill:#211915;}</style></defs><title>50-Computer-hardware-Line-Icons</title><g id="_49" data-name="49"><path class="cls-1" d="M189.06,459.75H171.14a6.85,6.85,0,0,1-6.84-6.84v-5.66a2.5,2.5,0,0,1,2.5-2.5h26.6a2.5,2.5,0,0,1,2.5,2.5v5.66A6.85,6.85,0,0,1,189.06,459.75Zm-19.76-10v3.16a1.84,1.84,0,0,0,1.84,1.84h17.92a1.85,1.85,0,0,0,1.84-1.84v-3.16Z"/><path class="cls-1" d="M340.86,459.75H322.94a6.85,6.85,0,0,1-6.84-6.84v-5.66a2.5,2.5,0,0,1,2.5-2.5h26.6a2.5,2.5,0,0,1,2.5,2.5v5.66A6.85,6.85,0,0,1,340.86,459.75Zm-19.76-10v3.16a1.85,1.85,0,0,0,1.84,1.84h17.92a1.84,1.84,0,0,0,1.84-1.84v-3.16Z"/><path class="cls-1" d="M347.93,449.75H164.07A19.79,19.79,0,0,1,144.3,430V178.83a2.5,2.5,0,1,1,5,0V430a14.79,14.79,0,0,0,14.77,14.77H347.93A14.79,14.79,0,0,0,362.7,430V398.89a2.5,2.5,0,0,1,5,0V430A19.79,19.79,0,0,1,347.93,449.75Z"/><path class="cls-1" d="M365.2,359.57a2.5,2.5,0,0,1-2.5-2.5V75.59a14.78,14.78,0,0,0-14.77-14.76H164.07A14.78,14.78,0,0,0,149.3,75.59v51.57a2.5,2.5,0,1,1-5,0V75.59a19.79,19.79,0,0,1,19.77-19.76H347.93A19.79,19.79,0,0,1,367.7,75.59V357.07A2.5,2.5,0,0,1,365.2,359.57Z"/><path class="cls-1" d="M342.19,312.76h-6.51a9.26,9.26,0,0,1-9.24-9.24V240.83a2.5,2.5,0,1,1,5,0v62.69a4.24,4.24,0,0,0,4.24,4.24h6.51a4.25,4.25,0,0,0,4.25-4.24V191.31a4.25,4.25,0,0,0-4.25-4.25h-6.51a4.24,4.24,0,0,0-4.24,4.25v19.17a2.5,2.5,0,0,1-5,0V191.31a9.26,9.26,0,0,1,9.24-9.25h6.51a9.26,9.26,0,0,1,9.25,9.25V303.52A9.26,9.26,0,0,1,342.19,312.76Z"/><path class="cls-1" d="M311.16,429.75H174.58a10.29,10.29,0,0,1-10.28-10.28V86.11a10.29,10.29,0,0,1,10.28-10.28h16a2.5,2.5,0,0,1,0,5h-16a5.29,5.29,0,0,0-5.28,5.28V419.47a5.29,5.29,0,0,0,5.28,5.28H311.16a5.29,5.29,0,0,0,5.28-5.28V86.11a5.29,5.29,0,0,0-5.28-5.28h-86a2.5,2.5,0,0,1,0-5h86a10.29,10.29,0,0,1,10.28,10.28V419.47A10.29,10.29,0,0,1,311.16,429.75Z"/><path class="cls-1" d="M318.94,409.75H166.8a2.5,2.5,0,1,1,0-5H318.94a2.5,2.5,0,1,1,0,5Z"/><path class="cls-1" d="M318.94,389.75H166.8a2.5,2.5,0,1,1,0-5H318.94a2.5,2.5,0,1,1,0,5Z"/><path class="cls-1" d="M318.94,309.75H166.8a2.5,2.5,0,0,1,0-5H318.94a2.5,2.5,0,1,1,0,5Z"/><path class="cls-1" d="M318.94,249.75H166.8a2.5,2.5,0,0,1,0-5H318.94a2.5,2.5,0,1,1,0,5Z"/><path class="cls-1" d="M318.94,229.75H166.8a2.5,2.5,0,0,1,0-5H318.94a2.5,2.5,0,1,1,0,5Z"/><path class="cls-1" d="M318.94,169.75H166.8a2.5,2.5,0,0,1,0-5H318.94a2.5,2.5,0,0,1,0,5Z"/><path class="cls-1" d="M318.94,149.75H166.8a2.5,2.5,0,0,1,0-5H318.94a2.5,2.5,0,0,1,0,5Z"/><path class="cls-1" d="M186.52,389.75a8.48,8.48,0,0,1-8.48-8.48V363a8.48,8.48,0,0,1,8.48-8.47h14a2.5,2.5,0,1,1,0,5h-14A3.48,3.48,0,0,0,183,363v18.23a3.48,3.48,0,0,0,3.48,3.48,2.5,2.5,0,0,1,0,5Z"/><path class="cls-1" d="M299.22,389.75a2.5,2.5,0,0,1,0-5,3.47,3.47,0,0,0,3.47-3.48V363a3.47,3.47,0,0,0-3.47-3.47H227.08a2.5,2.5,0,1,1,0-5h72.14a8.48,8.48,0,0,1,8.47,8.47v18.23A8.48,8.48,0,0,1,299.22,389.75Z"/><path class="cls-1" d="M271.06,379.79h-1.74a6.64,6.64,0,0,1-6.63-6.63V367.8a6.64,6.64,0,0,1,6.63-6.63h1.74a6.63,6.63,0,0,1,6.63,6.63v5.36A6.64,6.64,0,0,1,271.06,379.79Zm-1.74-13.62a1.63,1.63,0,0,0-1.63,1.63v5.36a1.63,1.63,0,0,0,1.63,1.63h1.74a1.63,1.63,0,0,0,1.63-1.63V367.8a1.63,1.63,0,0,0-1.63-1.63Z"/><path class="cls-1" d="M251.06,379.79h-1.74a6.64,6.64,0,0,1-6.63-6.63V367.8a6.64,6.64,0,0,1,6.63-6.63h1.74a6.63,6.63,0,0,1,6.63,6.63v5.36A6.64,6.64,0,0,1,251.06,379.79Zm-1.74-13.62a1.63,1.63,0,0,0-1.63,1.63v5.36a1.63,1.63,0,0,0,1.63,1.63h1.74a1.63,1.63,0,0,0,1.63-1.63V367.8a1.63,1.63,0,0,0-1.63-1.63Z"/><path class="cls-1" d="M231.06,379.79h-1.74a6.64,6.64,0,0,1-6.63-6.63V367.8a6.64,6.64,0,0,1,6.63-6.63h1.74a6.63,6.63,0,0,1,6.63,6.63v5.36A6.64,6.64,0,0,1,231.06,379.79Zm-1.74-13.62a1.63,1.63,0,0,0-1.63,1.63v5.36a1.63,1.63,0,0,0,1.63,1.63h1.74a1.63,1.63,0,0,0,1.63-1.63V367.8a1.63,1.63,0,0,0-1.63-1.63Z"/><path class="cls-1" d="M291.06,379.79h-1.74a6.64,6.64,0,0,1-6.63-6.63V367.8a6.64,6.64,0,0,1,6.63-6.63h1.74a6.63,6.63,0,0,1,6.63,6.63v5.36A6.64,6.64,0,0,1,291.06,379.79Zm-1.74-13.62a1.63,1.63,0,0,0-1.63,1.63v5.36a1.63,1.63,0,0,0,1.63,1.63h1.74a1.63,1.63,0,0,0,1.63-1.63V367.8a1.63,1.63,0,0,0-1.63-1.63Z"/><path class="cls-1" d="M195.54,379.66a7.5,7.5,0,1,1,7.5-7.5A7.52,7.52,0,0,1,195.54,379.66Zm0-10a2.5,2.5,0,1,0,2.5,2.5A2.51,2.51,0,0,0,195.54,369.66Z"/><path class="cls-1" d="M186.52,309.75a8.48,8.48,0,0,1-8.48-8.48V283a8.48,8.48,0,0,1,8.48-8.47h63.67a2.5,2.5,0,0,1,0,5H186.52A3.48,3.48,0,0,0,183,283v18.23a3.48,3.48,0,0,0,3.48,3.48,2.5,2.5,0,0,1,0,5Z"/><path class="cls-1" d="M299.22,309.75a2.5,2.5,0,0,1,0-5,3.47,3.47,0,0,0,3.47-3.48V283a3.47,3.47,0,0,0-3.47-3.47H280.84a2.5,2.5,0,0,1,0-5h18.38a8.48,8.48,0,0,1,8.47,8.47v18.23A8.48,8.48,0,0,1,299.22,309.75Z"/><path class="cls-1" d="M271.06,299.79h-1.74a6.64,6.64,0,0,1-6.63-6.63V287.8a6.64,6.64,0,0,1,6.63-6.63h1.74a6.63,6.63,0,0,1,6.63,6.63v5.36A6.64,6.64,0,0,1,271.06,299.79Zm-1.74-13.62a1.63,1.63,0,0,0-1.63,1.63v5.36a1.63,1.63,0,0,0,1.63,1.63h1.74a1.63,1.63,0,0,0,1.63-1.63V287.8a1.63,1.63,0,0,0-1.63-1.63Z"/><path class="cls-1" d="M251.06,299.79h-1.74a6.64,6.64,0,0,1-6.63-6.63V287.8a6.64,6.64,0,0,1,6.63-6.63h1.74a6.63,6.63,0,0,1,6.63,6.63v5.36A6.64,6.64,0,0,1,251.06,299.79Zm-1.74-13.62a1.63,1.63,0,0,0-1.63,1.63v5.36a1.63,1.63,0,0,0,1.63,1.63h1.74a1.63,1.63,0,0,0,1.63-1.63V287.8a1.63,1.63,0,0,0-1.63-1.63Z"/><path class="cls-1" d="M231.06,299.79h-1.74a6.64,6.64,0,0,1-6.63-6.63V287.8a6.64,6.64,0,0,1,6.63-6.63h1.74a6.63,6.63,0,0,1,6.63,6.63v5.36A6.64,6.64,0,0,1,231.06,299.79Zm-1.74-13.62a1.63,1.63,0,0,0-1.63,1.63v5.36a1.63,1.63,0,0,0,1.63,1.63h1.74a1.63,1.63,0,0,0,1.63-1.63V287.8a1.63,1.63,0,0,0-1.63-1.63Z"/><path class="cls-1" d="M291.06,299.79h-1.74a6.64,6.64,0,0,1-6.63-6.63V287.8a6.64,6.64,0,0,1,6.63-6.63h1.74a6.63,6.63,0,0,1,6.63,6.63v5.36A6.64,6.64,0,0,1,291.06,299.79Zm-1.74-13.62a1.63,1.63,0,0,0-1.63,1.63v5.36a1.63,1.63,0,0,0,1.63,1.63h1.74a1.63,1.63,0,0,0,1.63-1.63V287.8a1.63,1.63,0,0,0-1.63-1.63Z"/><path class="cls-1" d="M195.54,299.66a7.5,7.5,0,1,1,7.5-7.5A7.52,7.52,0,0,1,195.54,299.66Zm0-10a2.5,2.5,0,1,0,2.5,2.5A2.51,2.51,0,0,0,195.54,289.66Z"/><path class="cls-1" d="M299.22,229.75a2.5,2.5,0,0,1,0-5,3.47,3.47,0,0,0,3.47-3.48V203a3.47,3.47,0,0,0-3.47-3.47H186.52A3.48,3.48,0,0,0,183,203v18.23a3.48,3.48,0,0,0,3.48,3.48,2.5,2.5,0,0,1,0,5,8.48,8.48,0,0,1-8.48-8.48V203a8.48,8.48,0,0,1,8.48-8.47h112.7a8.48,8.48,0,0,1,8.47,8.47v18.23A8.48,8.48,0,0,1,299.22,229.75Z"/><path class="cls-1" d="M271.06,219.79h-1.74a6.64,6.64,0,0,1-6.63-6.63V207.8a6.64,6.64,0,0,1,6.63-6.63h1.74a6.63,6.63,0,0,1,6.63,6.63v5.36A6.64,6.64,0,0,1,271.06,219.79Zm-1.74-13.62a1.63,1.63,0,0,0-1.63,1.63v5.36a1.63,1.63,0,0,0,1.63,1.63h1.74a1.63,1.63,0,0,0,1.63-1.63V207.8a1.63,1.63,0,0,0-1.63-1.63Z"/><path class="cls-1" d="M251.06,219.79h-1.74a6.64,6.64,0,0,1-6.63-6.63V207.8a6.64,6.64,0,0,1,6.63-6.63h1.74a6.63,6.63,0,0,1,6.63,6.63v5.36A6.64,6.64,0,0,1,251.06,219.79Zm-1.74-13.62a1.63,1.63,0,0,0-1.63,1.63v5.36a1.63,1.63,0,0,0,1.63,1.63h1.74a1.63,1.63,0,0,0,1.63-1.63V207.8a1.63,1.63,0,0,0-1.63-1.63Z"/><path class="cls-1" d="M231.06,219.79h-1.74a6.64,6.64,0,0,1-6.63-6.63V207.8a6.64,6.64,0,0,1,6.63-6.63h1.74a6.63,6.63,0,0,1,6.63,6.63v5.36A6.64,6.64,0,0,1,231.06,219.79Zm-1.74-13.62a1.63,1.63,0,0,0-1.63,1.63v5.36a1.63,1.63,0,0,0,1.63,1.63h1.74a1.63,1.63,0,0,0,1.63-1.63V207.8a1.63,1.63,0,0,0-1.63-1.63Z"/><path class="cls-1" d="M291.06,219.79h-1.74a6.64,6.64,0,0,1-6.63-6.63V207.8a6.64,6.64,0,0,1,6.63-6.63h1.74a6.63,6.63,0,0,1,6.63,6.63v5.36A6.64,6.64,0,0,1,291.06,219.79Zm-1.74-13.62a1.63,1.63,0,0,0-1.63,1.63v5.36a1.63,1.63,0,0,0,1.63,1.63h1.74a1.63,1.63,0,0,0,1.63-1.63V207.8a1.63,1.63,0,0,0-1.63-1.63Z"/><path class="cls-1" d="M195.54,219.66a7.5,7.5,0,1,1,7.5-7.5A7.52,7.52,0,0,1,195.54,219.66Zm0-10a2.5,2.5,0,1,0,2.5,2.5A2.51,2.51,0,0,0,195.54,209.66Z"/><path class="cls-1" d="M299.22,149.75a2.5,2.5,0,0,1,0-5,3.47,3.47,0,0,0,3.47-3.48V123a3.47,3.47,0,0,0-3.47-3.47H186.52A3.48,3.48,0,0,0,183,123v18.23a3.48,3.48,0,0,0,3.48,3.48,2.5,2.5,0,0,1,0,5,8.48,8.48,0,0,1-8.48-8.48V123a8.48,8.48,0,0,1,8.48-8.47h112.7a8.48,8.48,0,0,1,8.47,8.47v18.23A8.48,8.48,0,0,1,299.22,149.75Z"/><path class="cls-1" d="M271.06,139.79h-1.74a6.64,6.64,0,0,1-6.63-6.63V127.8a6.64,6.64,0,0,1,6.63-6.63h1.74a6.63,6.63,0,0,1,6.63,6.63v5.36A6.64,6.64,0,0,1,271.06,139.79Zm-1.74-13.62a1.63,1.63,0,0,0-1.63,1.63v5.36a1.63,1.63,0,0,0,1.63,1.63h1.74a1.63,1.63,0,0,0,1.63-1.63V127.8a1.63,1.63,0,0,0-1.63-1.63Z"/><path class="cls-1" d="M251.06,139.79h-1.74a6.64,6.64,0,0,1-6.63-6.63V127.8a6.64,6.64,0,0,1,6.63-6.63h1.74a6.63,6.63,0,0,1,6.63,6.63v5.36A6.64,6.64,0,0,1,251.06,139.79Zm-1.74-13.62a1.63,1.63,0,0,0-1.63,1.63v5.36a1.63,1.63,0,0,0,1.63,1.63h1.74a1.63,1.63,0,0,0,1.63-1.63V127.8a1.63,1.63,0,0,0-1.63-1.63Z"/><path class="cls-1" d="M231.06,139.79h-1.74a6.64,6.64,0,0,1-6.63-6.63V127.8a6.64,6.64,0,0,1,6.63-6.63h1.74a6.63,6.63,0,0,1,6.63,6.63v5.36A6.64,6.64,0,0,1,231.06,139.79Zm-1.74-13.62a1.63,1.63,0,0,0-1.63,1.63v5.36a1.63,1.63,0,0,0,1.63,1.63h1.74a1.63,1.63,0,0,0,1.63-1.63V127.8a1.63,1.63,0,0,0-1.63-1.63Z"/><path class="cls-1" d="M291.06,139.79h-1.74a6.64,6.64,0,0,1-6.63-6.63V127.8a6.64,6.64,0,0,1,6.63-6.63h1.74a6.63,6.63,0,0,1,6.63,6.63v5.36A6.64,6.64,0,0,1,291.06,139.79Zm-1.74-13.62a1.63,1.63,0,0,0-1.63,1.63v5.36a1.63,1.63,0,0,0,1.63,1.63h1.74a1.63,1.63,0,0,0,1.63-1.63V127.8a1.63,1.63,0,0,0-1.63-1.63Z"/><path class="cls-1" d="M195.54,139.66a7.5,7.5,0,1,1,7.5-7.5A7.52,7.52,0,0,1,195.54,139.66Zm0-10a2.5,2.5,0,1,0,2.5,2.5A2.51,2.51,0,0,0,195.54,129.66Z"/></g></svg>