<svg xmlns="http://www.w3.org/2000/svg" viewBox="0 0 512 512"><defs><style>.cls-1{fill:#211915;}</style></defs><title>50-Computer-hardware-Line-Icons</title><g id="_39" data-name="39"><path class="cls-1" d="M256,486a12.52,12.52,0,0,1-12.5-12.5V428.37a2.49,2.49,0,0,1,2.5-2.5h20a2.49,2.49,0,0,1,2.5,2.5v45.17A12.52,12.52,0,0,1,256,486Zm-7.5-55.17v42.67a7.5,7.5,0,0,0,15,0V430.87Z"/><path class="cls-1" d="M268.62,430.87H243.38a12.29,12.29,0,0,1-12.27-12.28V408.37a2.5,2.5,0,0,1,5,0v10.22a7.29,7.29,0,0,0,7.27,7.28h25.24a7.29,7.29,0,0,0,7.27-7.28V408.37a2.5,2.5,0,0,1,5,0v10.22A12.29,12.29,0,0,1,268.62,430.87Z"/><path class="cls-1" d="M324.53,378.5a2.28,2.28,0,0,1-.85-.15,2.5,2.5,0,0,1-1.5-3.2,46.52,46.52,0,0,0,2.76-15.84V182.79a29,29,0,0,0-29-29H216.07a28.86,28.86,0,0,0-20.43,8.41,2.5,2.5,0,0,1-3.52-3.55,33.84,33.84,0,0,1,23.95-9.86h79.86a34.05,34.05,0,0,1,34,34V359.31a51.43,51.43,0,0,1-3.06,17.54A2.5,2.5,0,0,1,324.53,378.5Z"/><path class="cls-1" d="M278.39,410.87H233.61a51.62,51.62,0,0,1-51.55-51.56V203.55a2.5,2.5,0,0,1,5,0V359.31a46.61,46.61,0,0,0,46.55,46.56h44.78a46,46,0,0,0,21-5,2.5,2.5,0,1,1,2.25,4.46A51,51,0,0,1,278.39,410.87Z"/><path class="cls-1" d="M327.44,361.81H184.56a2.5,2.5,0,0,1-2.5-2.5v-20a2.5,2.5,0,0,1,2.5-2.5H253.4a2.5,2.5,0,1,1,0,5H187.06v15H324.94v-15h-42.1a2.5,2.5,0,0,1,0-5h44.6a2.5,2.5,0,0,1,2.5,2.5v20A2.5,2.5,0,0,1,327.44,361.81Z"/><path class="cls-1" d="M327.44,321.81H184.56a2.5,2.5,0,0,1-2.5-2.5v-20a2.5,2.5,0,0,1,2.5-2.5h43.92a2.5,2.5,0,0,1,0,5H187.06v15H324.94v-15h-63.4a2.5,2.5,0,0,1,0-5h65.9a2.5,2.5,0,0,1,2.5,2.5v20A2.5,2.5,0,0,1,327.44,321.81Z"/><path class="cls-1" d="M327.44,281.81H184.56a2.5,2.5,0,0,1-2.5-2.5v-20a2.5,2.5,0,0,1,2.5-2.5h21.11a2.5,2.5,0,1,1,0,5H187.06v15H324.94v-15H234.41a2.5,2.5,0,0,1,0-5h93a2.5,2.5,0,0,1,2.5,2.5v20A2.5,2.5,0,0,1,327.44,281.81Z"/><path class="cls-1" d="M276,153.78H236a2.49,2.49,0,0,1-2.5-2.5V52.85A22.52,22.52,0,0,1,256,30.35a22.24,22.24,0,0,1,9.86,2.27,2.5,2.5,0,1,1-2.2,4.49A17.28,17.28,0,0,0,256,35.35a17.52,17.52,0,0,0-17.5,17.5v95.93h35V52.85a2.5,2.5,0,0,1,5,0v98.43A2.49,2.49,0,0,1,276,153.78Z"/><path class="cls-1" d="M276,74H236a2.5,2.5,0,0,1,0-5h40a2.5,2.5,0,0,1,0,5Z"/><path class="cls-1" d="M276,64H236a2.5,2.5,0,0,1,0-5h40a2.5,2.5,0,0,1,0,5Z"/><path class="cls-1" d="M276,94H236a2.5,2.5,0,0,1,0-5h40a2.5,2.5,0,0,1,0,5Z"/><path class="cls-1" d="M276,84H236a2.5,2.5,0,0,1,0-5h40a2.5,2.5,0,0,1,0,5Z"/><path class="cls-1" d="M276,114H236a2.5,2.5,0,0,1,0-5h40a2.5,2.5,0,0,1,0,5Z"/><path class="cls-1" d="M276,104H236a2.5,2.5,0,0,1,0-5h40a2.5,2.5,0,0,1,0,5Z"/></g></svg>