<svg xmlns="http://www.w3.org/2000/svg" viewBox="0 0 512 512"><defs><style>.cls-1{fill:#211915;}</style></defs><title>50-Computer-hardware-Line-Icons</title><g id="_23" data-name="23"><path class="cls-1" d="M296,471.94H216a12.5,12.5,0,0,1,0-25h27.5V405.57A112,112,0,0,1,144.12,294.4V219.63a12.5,12.5,0,0,1,25,0V294.4a86.88,86.88,0,0,0,173.76,0V219.63a12.5,12.5,0,0,1,25,0V247a2.5,2.5,0,0,1-5,0V219.63a7.5,7.5,0,0,0-15,0V294.4a91.88,91.88,0,0,1-183.76,0V219.63a7.5,7.5,0,0,0-15,0V294.4a107,107,0,0,0,97.11,106.43,2.49,2.49,0,0,1,2.27,2.48v46.13a2.5,2.5,0,0,1-2.5,2.5H216a7.5,7.5,0,0,0,0,15h80a7.5,7.5,0,0,0,0-15H266a2.5,2.5,0,0,1-2.5-2.5V403.31a2.49,2.49,0,0,1,2.27-2.48A106.78,106.78,0,0,0,360,319.31a2.5,2.5,0,1,1,4.86,1.17,111.76,111.76,0,0,1-96.31,85.09v41.37H296a12.5,12.5,0,0,1,0,25Z"/><path class="cls-1" d="M256,366.28a71.61,71.61,0,0,1-49.44-19.7A2.5,2.5,0,0,1,210,343,66.88,66.88,0,0,0,322.88,294.4V170a2.5,2.5,0,1,1,5,0V294.4A72,72,0,0,1,256,366.28Z"/><path class="cls-1" d="M186.62,296.9a2.5,2.5,0,0,1-2.5-2.5V170a2.5,2.5,0,1,1,5,0V294.4A2.5,2.5,0,0,1,186.62,296.9Z"/><path class="cls-1" d="M256,231.72a22.09,22.09,0,1,1,16.39-36.9,2.5,2.5,0,0,1-3.71,3.35A17.09,17.09,0,1,0,271,217.76a2.5,2.5,0,0,1,4.4,2.39A22.1,22.1,0,0,1,256,231.72Z"/><path class="cls-1" d="M330.38,172.54H181.62a7.5,7.5,0,0,1,0-15H330.38a7.5,7.5,0,0,1,0,15Zm-148.76-10a2.5,2.5,0,0,0,0,5H330.38a2.5,2.5,0,0,0,0-5Z"/><path class="cls-1" d="M186.62,162.54a2.5,2.5,0,0,1-2.5-2.5V108.83A71.93,71.93,0,0,1,282.78,42.1a2.5,2.5,0,1,1-1.87,4.64,66.93,66.93,0,0,0-91.79,62.09V160A2.5,2.5,0,0,1,186.62,162.54Z"/><path class="cls-1" d="M325.38,162.54a2.5,2.5,0,0,1-2.5-2.5V108.83a66.59,66.59,0,0,0-11.18-37A2.5,2.5,0,0,1,315.87,69a71.62,71.62,0,0,1,12,39.8V160A2.5,2.5,0,0,1,325.38,162.54Z"/><path class="cls-1" d="M261,162.54a2.5,2.5,0,0,1-2.5-2.5V84.74a2.5,2.5,0,0,0-5,0V160a2.5,2.5,0,0,1-5,0V84.74a7.5,7.5,0,0,1,15,0V160A2.5,2.5,0,0,1,261,162.54Z"/><path class="cls-1" d="M221,162.54a2.5,2.5,0,0,1-2.5-2.5v-55.3a2.5,2.5,0,0,0-5,0V160a2.5,2.5,0,0,1-5,0v-55.3a7.5,7.5,0,0,1,15,0V160A2.5,2.5,0,0,1,221,162.54Z"/><path class="cls-1" d="M301,162.54a2.5,2.5,0,0,1-2.5-2.5v-55.3a2.5,2.5,0,0,0-5,0V160a2.5,2.5,0,0,1-5,0v-55.3a7.5,7.5,0,0,1,15,0V160A2.5,2.5,0,0,1,301,162.54Z"/></g></svg>