<svg xmlns="http://www.w3.org/2000/svg" viewBox="0 0 512 512"><defs><style>.cls-1{fill:#211915;}</style></defs><title>50-Computer-hardware-Line-Icons</title><g id="_27" data-name="27"><path class="cls-1" d="M91.7,225.48a2.5,2.5,0,0,1-2.5-2.5V113.3a21.4,21.4,0,0,1,21.37-21.37H213.1a2.5,2.5,0,0,1,0,5H110.57A16.39,16.39,0,0,0,94.2,113.3V223A2.5,2.5,0,0,1,91.7,225.48Z"/><path class="cls-1" d="M265.42,347.64H110.57A21.4,21.4,0,0,1,89.2,326.27V291.35a2.5,2.5,0,0,1,5,0v34.92a16.39,16.39,0,0,0,16.37,16.37H265.42a16.39,16.39,0,0,0,16.38-16.37v-213a16.39,16.39,0,0,0-16.38-16.37,2.5,2.5,0,0,1,0-5A21.4,21.4,0,0,1,286.8,113.3v213A21.4,21.4,0,0,1,265.42,347.64Z"/><path class="cls-1" d="M253.06,327.64H240.23a2.5,2.5,0,0,1,0-5h12.83a8.75,8.75,0,0,0,8.74-8.73v-20a8.74,8.74,0,0,0-8.74-8.73H179.23a8.74,8.74,0,0,0-8.73,8.73v20a8.74,8.74,0,0,0,8.73,8.73h21a2.5,2.5,0,0,1,0,5h-21a13.75,13.75,0,0,1-13.73-13.73v-20a13.75,13.75,0,0,1,13.73-13.73h73.83a13.75,13.75,0,0,1,13.74,13.73v20A13.75,13.75,0,0,1,253.06,327.64Z"/><path class="cls-1" d="M240.23,316.42a12.5,12.5,0,1,1,12.5-12.5A12.52,12.52,0,0,1,240.23,316.42Zm0-20a7.5,7.5,0,1,0,7.5,7.5A7.5,7.5,0,0,0,240.23,296.42Z"/><path class="cls-1" d="M157.4,376.43H121.17a13.11,13.11,0,0,1-13.1-13.09v-18.2a2.5,2.5,0,0,1,5,0v18.2a8.1,8.1,0,0,0,8.1,8.09H157.4a8.1,8.1,0,0,0,8.1-8.09v-18.2a2.5,2.5,0,0,1,5,0v18.2A13.1,13.1,0,0,1,157.4,376.43Z"/><path class="cls-1" d="M331.48,438.79H289.15a2.5,2.5,0,0,1,0-5h42.33a33.28,33.28,0,0,0,33.24-33.25V283.43a2.5,2.5,0,0,1,5,0V400.54A38.29,38.29,0,0,1,331.48,438.79Z"/><path class="cls-1" d="M207.34,438.79H180a38.29,38.29,0,0,1-38.24-38.25V373.93a2.5,2.5,0,0,1,5,0v26.61A33.28,33.28,0,0,0,180,433.79h27.31a2.5,2.5,0,0,1,0,5Z"/><path class="cls-1" d="M331.48,448.79H180a48.3,48.3,0,0,1-48.24-48.25V373.93a2.5,2.5,0,0,1,5,0v26.61A43.3,43.3,0,0,0,180,443.79H331.48a43.3,43.3,0,0,0,43.24-43.25V283.43a2.5,2.5,0,0,1,5,0V400.54A48.3,48.3,0,0,1,331.48,448.79Z"/><path class="cls-1" d="M390.34,285.93H354.11A13.11,13.11,0,0,1,341,272.84v-18.2a2.5,2.5,0,0,1,2.5-2.5h57.43a2.5,2.5,0,0,1,2.5,2.5v18.2A13.11,13.11,0,0,1,390.34,285.93ZM346,257.14v15.7a8.1,8.1,0,0,0,8.1,8.09h36.23a8.1,8.1,0,0,0,8.1-8.09v-15.7Z"/><path class="cls-1" d="M343.43,257.14a14.58,14.58,0,0,1-14.57-14.56V138.48a14.58,14.58,0,0,1,14.57-14.56H401a14.57,14.57,0,0,1,14.56,14.56V176a2.5,2.5,0,1,1-5,0V138.48a9.57,9.57,0,0,0-9.56-9.56H343.43a9.57,9.57,0,0,0-9.57,9.56v104.1a9.57,9.57,0,0,0,9.57,9.56,2.5,2.5,0,0,1,0,5Z"/><path class="cls-1" d="M401,257.14a2.5,2.5,0,0,1,0-5,9.57,9.57,0,0,0,9.56-9.56V229a2.5,2.5,0,1,1,5,0v13.61A14.57,14.57,0,0,1,401,257.14Z"/><path class="cls-1" d="M398.42,128.92a2.5,2.5,0,0,1-2.5-2.5V102.91a6,6,0,0,0-6-6H354.51a6,6,0,0,0-6,6v23.51a2.5,2.5,0,0,1-5,0V102.91a11,11,0,0,1,11-11h35.43a11,11,0,0,1,11,11v23.51A2.5,2.5,0,0,1,398.42,128.92Z"/></g></svg>