<svg xmlns="http://www.w3.org/2000/svg" viewBox="0 0 512 512"><defs><style>.cls-1{fill:#211915;}</style></defs><title>50-Computer-hardware-Line-Icons</title><g id="_05" data-name="05"><path class="cls-1" d="M372.93,414.55H139.07a41.67,41.67,0,0,1-41.62-41.62V139.07a41.67,41.67,0,0,1,41.62-41.62h23.81a2.5,2.5,0,0,1,0,5H139.07a36.66,36.66,0,0,0-36.62,36.62V372.93a36.66,36.66,0,0,0,36.62,36.62H372.93a36.66,36.66,0,0,0,36.62-36.62V335.29a2.5,2.5,0,0,1,5,0v37.64A41.67,41.67,0,0,1,372.93,414.55ZM256,386.07a130.05,130.05,0,1,1,105.19-53.55,2.5,2.5,0,1,1-4-2.94A124.91,124.91,0,1,0,307.44,370a2.5,2.5,0,1,1,2.06,4.56A129,129,0,0,1,256,386.07ZM412.05,261.52a2.5,2.5,0,0,1-2.5-2.5V139.07a36.66,36.66,0,0,0-36.62-36.62H229.54a2.5,2.5,0,0,1,0-5H372.93a41.67,41.67,0,0,1,41.62,41.62V259A2.5,2.5,0,0,1,412.05,261.52Z"/><path class="cls-1" d="M377.05,152.45a17.52,17.52,0,0,1-17.5-17.5,2.5,2.5,0,0,1,5,0,12.5,12.5,0,1,0,12.5-12.5,2.5,2.5,0,0,1,0-5,17.5,17.5,0,1,1,0,35Z"/><path class="cls-1" d="M377.05,394.55a17.52,17.52,0,0,1-17.5-17.5,2.5,2.5,0,0,1,5,0,12.5,12.5,0,1,0,12.5-12.5,2.5,2.5,0,0,1,0-5,17.5,17.5,0,0,1,0,35Z"/><path class="cls-1" d="M135,394.55a17.52,17.52,0,0,1-17.5-17.5,2.5,2.5,0,0,1,5,0,12.5,12.5,0,1,0,12.5-12.5,2.5,2.5,0,0,1,0-5,17.5,17.5,0,0,1,0,35Z"/><path class="cls-1" d="M135,152.45a17.52,17.52,0,0,1-17.5-17.5,2.5,2.5,0,0,1,5,0,12.5,12.5,0,1,0,12.5-12.5,2.5,2.5,0,0,1,0-5,17.5,17.5,0,1,1,0,35Z"/><path class="cls-1" d="M281.1,220.84a2.5,2.5,0,0,1-2.44-2c-.24-1.08-5.84-26.75-3.6-42.23C276.55,166.4,287,159.77,295.41,156a1.36,1.36,0,0,0,.85-1.34,1.4,1.4,0,0,0-.95-1.34,109.26,109.26,0,0,0-39.3-7.26c-2,0-4.15.06-6.31.18a108.91,108.91,0,0,0-10.94,1.17,4.41,4.41,0,0,0-3.7,4c-.18,2.06-.26,4.35-.23,6.79a2.5,2.5,0,0,1-2.46,2.54h0a2.51,2.51,0,0,1-2.5-2.47c0-2.61,0-5.07.25-7.32a9.41,9.41,0,0,1,7.9-8.44c3.73-.59,7.58-1,11.44-1.22,2.25-.12,4.47-.19,6.59-.19a114.46,114.46,0,0,1,41.09,7.59,6.45,6.45,0,0,1,4.16,5.87,6.33,6.33,0,0,1-3.82,6.05c-7.31,3.25-16.27,8.8-17.44,16.79-2.11,14.57,3.48,40.18,3.54,40.43a2.49,2.49,0,0,1-1.9,3A2.55,2.55,0,0,1,281.1,220.84Z"/><path class="cls-1" d="M244.16,214.82a2.49,2.49,0,0,1-2.34-1.64c-2.86-7.82-5.25-15.43-7.1-22.61a2.5,2.5,0,0,1,4.84-1.25c1.82,7,4.15,14.47,6.95,22.14a2.49,2.49,0,0,1-1.49,3.21A2.55,2.55,0,0,1,244.16,214.82Z"/><path class="cls-1" d="M157,282.17c-2.42,0-4.44-.1-6.1-.25a9.41,9.41,0,0,1-8.44-7.9c-.59-3.73-1-7.58-1.22-11.44-.13-2.25-.19-4.47-.19-6.59a114.46,114.46,0,0,1,7.59-41.09,6.44,6.44,0,0,1,5.87-4.16,6.33,6.33,0,0,1,6.05,3.82c3.25,7.31,8.8,16.27,16.79,17.44,14.57,2.11,40.18-3.48,40.43-3.54a2.5,2.5,0,0,1,1.08,4.88c-1.08.24-26.75,5.85-42.23,3.6-10.25-1.49-16.88-11.89-20.64-20.35a1.35,1.35,0,0,0-1.34-.85,1.4,1.4,0,0,0-1.34.95,109.26,109.26,0,0,0-7.26,39.3c0,2,.06,4.15.18,6.31a108.91,108.91,0,0,0,1.17,10.94,4.41,4.41,0,0,0,4,3.7c8.6.77,27.84.32,60.1-11.45a2.5,2.5,0,0,1,1.71,4.7C186.11,280.06,167.75,282.17,157,282.17Z"/><path class="cls-1" d="M256,370.93a114.46,114.46,0,0,1-41.09-7.59,6.45,6.45,0,0,1-4.16-5.87,6.33,6.33,0,0,1,3.82-6.05c7.31-3.25,16.27-8.8,17.44-16.79,2.11-14.57-3.48-40.18-3.54-40.43a2.5,2.5,0,0,1,4.88-1.08c.24,1.08,5.84,26.75,3.6,42.23-1.49,10.25-11.89,16.88-20.35,20.64a1.36,1.36,0,0,0-.85,1.34,1.4,1.4,0,0,0,.95,1.34,109.26,109.26,0,0,0,39.3,7.26c2,0,4.15-.06,6.31-.18a108.91,108.91,0,0,0,10.94-1.17,4.41,4.41,0,0,0,3.7-3.95c.16-1.85.24-3.88.23-6a2.51,2.51,0,0,1,2.49-2.51h0a2.5,2.5,0,0,1,2.5,2.49c0,2.3-.07,4.49-.25,6.5a9.41,9.41,0,0,1-7.9,8.44c-3.73.59-7.58,1-11.44,1.22C260.33,370.86,258.11,370.93,256,370.93Z"/><path class="cls-1" d="M275.16,325.74a2.5,2.5,0,0,1-2.42-1.89,239.07,239.07,0,0,0-7.25-23.31,2.5,2.5,0,1,1,4.69-1.72,241,241,0,0,1,7.4,23.81,2.49,2.49,0,0,1-1.81,3A2.55,2.55,0,0,1,275.16,325.74Z"/><path class="cls-1" d="M357.28,301.27a6.34,6.34,0,0,1-5.86-3.83c-3.25-7.31-8.8-16.27-16.79-17.44-14.57-2.11-40.18,3.48-40.43,3.54a2.5,2.5,0,0,1-1.08-4.88c1.08-.24,26.74-5.85,42.23-3.6C345.6,276.55,352.23,287,356,295.41a1.36,1.36,0,0,0,1.34.85,1.4,1.4,0,0,0,1.34-.95,109.26,109.26,0,0,0,7.26-39.3c0-2-.06-4.15-.18-6.31a108.91,108.91,0,0,0-1.17-10.94,4.41,4.41,0,0,0-3.95-3.7c-8.6-.77-27.84-.32-60.1,11.45a2.5,2.5,0,0,1-1.71-4.7c33.17-12.09,53.25-12.54,62.26-11.73a9.41,9.41,0,0,1,8.44,7.9c.59,3.73,1,7.58,1.22,11.44.13,2.25.19,4.47.19,6.59a114.46,114.46,0,0,1-7.59,41.09,6.44,6.44,0,0,1-5.87,4.16Z"/><path class="cls-1" d="M256,303.75A47.8,47.8,0,0,1,208.27,256a46.81,46.81,0,0,1,.92-9.31A47.73,47.73,0,1,1,256,303.75Zm0-90.5A42.75,42.75,0,1,0,298.74,256a41.48,41.48,0,0,0-.82-8.32A42.79,42.79,0,0,0,256,213.25Z"/></g></svg>