<svg xmlns="http://www.w3.org/2000/svg" viewBox="0 0 512 512"><defs><style>.cls-1{fill:#211915;}</style></defs><title>50-Computer-hardware-Line-Icons</title><g id="_31" data-name="31"><path class="cls-1" d="M150.46,412.48H134.23a13.11,13.11,0,0,1-13.1-13.09v-38.2a2.5,2.5,0,0,1,5,0v38.2a8.1,8.1,0,0,0,8.1,8.09h16.23a8.1,8.1,0,0,0,8.1-8.09v-38.2a2.5,2.5,0,0,1,5,0v38.2A13.11,13.11,0,0,1,150.46,412.48Z"/><path class="cls-1" d="M361.16,452.49H177.36A42.57,42.57,0,0,1,134.84,410a2.5,2.5,0,0,1,5,0,37.56,37.56,0,0,0,37.52,37.51h183.8a2.5,2.5,0,1,0,0-5H278.42a2.5,2.5,0,0,1,0-5h82.74a7.5,7.5,0,1,1,0,15Z"/><path class="cls-1" d="M200.14,442.49H177.36A32.55,32.55,0,0,1,144.84,410a2.5,2.5,0,0,1,5,0,27.55,27.55,0,0,0,27.52,27.51h22.78a2.5,2.5,0,0,1,0,5Z"/><path class="cls-1" d="M218.85,363.69H123.63A19.72,19.72,0,0,1,103.94,344V250a2.5,2.5,0,0,1,5,0v94a14.71,14.71,0,0,0,14.69,14.69h95.22A14.71,14.71,0,0,0,233.54,344V156a14.71,14.71,0,0,0-14.69-14.69H123.63A14.71,14.71,0,0,0,108.94,156v30.11a2.5,2.5,0,0,1-5,0V156a19.72,19.72,0,0,1,19.69-19.69h95.22A19.71,19.71,0,0,1,238.54,156V344A19.71,19.71,0,0,1,218.85,363.69Z"/><path class="cls-1" d="M128.9,171.31a12.5,12.5,0,1,1,12.5-12.5A12.51,12.51,0,0,1,128.9,171.31Zm0-20a7.5,7.5,0,1,0,7.5,7.5A7.52,7.52,0,0,0,128.9,151.31Z"/><path class="cls-1" d="M218.85,141.31a2.5,2.5,0,0,1-2.5-2.5v-38.2a8.1,8.1,0,0,0-8.09-8.09H192a8.1,8.1,0,0,0-8.09,8.09v38.2a2.5,2.5,0,0,1-5,0v-38.2A13.1,13.1,0,0,1,192,87.52h16.24a13.1,13.1,0,0,1,13.09,13.09v38.2A2.5,2.5,0,0,1,218.85,141.31Z"/><path class="cls-1" d="M351.7,265.44a2.5,2.5,0,0,1-2.5-2.5V75.79a16.16,16.16,0,0,0-16.15-16.15H223.79a16.17,16.17,0,0,0-16.15,16.15V90a2.5,2.5,0,0,1-5,0V75.79a21.18,21.18,0,0,1,21.15-21.15H333.05A21.18,21.18,0,0,1,354.2,75.79V262.94A2.5,2.5,0,0,1,351.7,265.44Z"/><path class="cls-1" d="M361.7,265.44a2.5,2.5,0,0,1-2.5-2.5V172.68a2.5,2.5,0,0,1,5,0v90.26A2.5,2.5,0,0,1,361.7,265.44Z"/><path class="cls-1" d="M361.7,105.57a2.5,2.5,0,0,1-2.5-2.5V75.79a26.18,26.18,0,0,0-26.15-26.15H223.79a26.18,26.18,0,0,0-26.15,26.15V90a2.5,2.5,0,0,1-5,0V75.79a31.18,31.18,0,0,1,31.15-31.15H333.05A31.18,31.18,0,0,1,364.2,75.79v27.28A2.5,2.5,0,0,1,361.7,105.57Z"/><path class="cls-1" d="M374.16,386.75a7.51,7.51,0,0,1-7.5-7.5v-35a2.5,2.5,0,0,1,5,0v35a2.5,2.5,0,0,0,5,0v-35a2.5,2.5,0,0,1,5,0v35A7.5,7.5,0,0,1,374.16,386.75Z"/><path class="cls-1" d="M339.24,386.75a7.5,7.5,0,0,1-7.5-7.5v-35a2.5,2.5,0,0,1,5,0v35a2.5,2.5,0,0,0,5,0v-35a2.5,2.5,0,0,1,5,0v35A7.5,7.5,0,0,1,339.24,386.75Z"/><path class="cls-1" d="M326.06,326.72a2.5,2.5,0,0,1-2.5-2.5v-41a22.86,22.86,0,0,1,22.84-22.83H367a22.66,22.66,0,0,1,16.15,6.69,2.5,2.5,0,0,1-3.53,3.53A17.72,17.72,0,0,0,367,265.44H346.4a17.85,17.85,0,0,0-17.84,17.83v41A2.5,2.5,0,0,1,326.06,326.72Z"/><path class="cls-1" d="M387.34,326.72a2.5,2.5,0,0,1-2.5-2.5V301.67a2.5,2.5,0,0,1,5,0v22.55A2.5,2.5,0,0,1,387.34,326.72Z"/><path class="cls-1" d="M393,346.72h-72.5a12.5,12.5,0,0,1,0-25H393a12.5,12.5,0,1,1,0,25Zm-72.5-20a7.5,7.5,0,0,0,0,15H393a7.5,7.5,0,1,0,0-15Z"/></g></svg>