<svg xmlns="http://www.w3.org/2000/svg" viewBox="0 0 512 512"><defs><style>.cls-1{fill:#211915;}</style></defs><title>50-Computer-hardware-Line-Icons</title><g id="_43" data-name="43"><path class="cls-1" d="M374.72,205.33a2.5,2.5,0,0,1-2.5-2.5V96.4a14.64,14.64,0,0,0-14.63-14.63H224.48a2.5,2.5,0,0,1,0-5H357.59A19.64,19.64,0,0,1,377.22,96.4V202.83A2.5,2.5,0,0,1,374.72,205.33Z"/><path class="cls-1" d="M357.59,328.89H154.41a19.65,19.65,0,0,1-19.63-19.63V96.4a19.64,19.64,0,0,1,19.63-19.63h17.87a2.5,2.5,0,0,1,0,5H154.41A14.64,14.64,0,0,0,139.78,96.4V309.26a14.64,14.64,0,0,0,14.63,14.63H357.59a14.64,14.64,0,0,0,14.63-14.63V249.32a2.5,2.5,0,1,1,5,0v59.94A19.65,19.65,0,0,1,357.59,328.89Z"/><path class="cls-1" d="M282.93,171.77H137.28a2.5,2.5,0,0,1,0-5H282.93a2.5,2.5,0,0,1,0,5Z"/><path class="cls-1" d="M374.72,171.77h-40a2.5,2.5,0,0,1,0-5h40a2.5,2.5,0,0,1,0,5Z"/><path class="cls-1" d="M349.72,151.77h-90a7.5,7.5,0,0,1,0-15h90a7.5,7.5,0,0,1,0,15Zm-90-10a2.5,2.5,0,0,0,0,5h90a2.5,2.5,0,0,0,0-5Z"/><path class="cls-1" d="M349.72,131.77h-90a7.5,7.5,0,0,1,0-15h90a7.5,7.5,0,0,1,0,15Zm-90-10a2.5,2.5,0,0,0,0,5h90a2.5,2.5,0,0,0,0-5Z"/><path class="cls-1" d="M349.72,111.77h-90a7.5,7.5,0,0,1,0-15h90a7.5,7.5,0,0,1,0,15Zm-90-10a2.5,2.5,0,0,0,0,5h90a2.5,2.5,0,0,0,0-5Z"/><path class="cls-1" d="M339.72,308.89a17.52,17.52,0,0,1-17.5-17.5,2.5,2.5,0,0,1,5,0,12.5,12.5,0,1,0,12.5-12.5,2.5,2.5,0,0,1,0-5,17.5,17.5,0,0,1,0,35Z"/><path class="cls-1" d="M172.28,308.89a17.52,17.52,0,0,1-17.5-17.5,2.5,2.5,0,0,1,5,0,12.5,12.5,0,1,0,12.5-12.5,2.5,2.5,0,1,1,0-5,17.5,17.5,0,0,1,0,35Z"/><path class="cls-1" d="M172.28,131.77a17.52,17.52,0,0,1-17.5-17.5,2.5,2.5,0,0,1,5,0,12.5,12.5,0,1,0,12.5-12.5,2.5,2.5,0,0,1,0-5,17.5,17.5,0,0,1,0,35Z"/><path class="cls-1" d="M351.65,438.71h-105a2.5,2.5,0,0,1,0-5h105a5.58,5.58,0,0,0,5.57-5.57v-3.86a5.58,5.58,0,0,0-5.57-5.57H160.35a5.58,5.58,0,0,0-5.57,5.57v3.86a5.58,5.58,0,0,0,5.57,5.57h36.83a2.5,2.5,0,0,1,0,5H160.35a10.58,10.58,0,0,1-10.57-10.57v-3.86a10.58,10.58,0,0,1,10.57-10.57h191.3a10.58,10.58,0,0,1,10.57,10.57v3.86A10.58,10.58,0,0,1,351.65,438.71Z"/><path class="cls-1" d="M339.72,418.71H172.28a2.5,2.5,0,0,1-2.5-2.5V326.39a2.5,2.5,0,0,1,5,0v87.32H337.22V326.39a2.5,2.5,0,0,1,5,0v89.82A2.5,2.5,0,0,1,339.72,418.71Z"/><path class="cls-1" d="M256,398.71a67.69,67.69,0,0,1-67.61-67.61c0-1.58.06-3.23.18-4.89a2.5,2.5,0,1,1,5,.36c-.1,1.54-.16,3.06-.16,4.53a62.62,62.62,0,0,0,97.09,52.27,2.5,2.5,0,0,1,2.76,4.17A67.31,67.31,0,0,1,256,398.71Zm60.44-40.85a2.56,2.56,0,0,1-.93-.18,2.51,2.51,0,0,1-1.39-3.25,62.32,62.32,0,0,0,4.49-23.33c0-1.46-.06-3-.16-4.53a2.5,2.5,0,1,1,5-.36c.12,1.67.18,3.31.18,4.89a67.24,67.24,0,0,1-4.85,25.19A2.51,2.51,0,0,1,316.44,357.86Z"/><path class="cls-1" d="M246.68,398l-.36,0a2.5,2.5,0,0,1-2.12-2.83l6-41.66a2.5,2.5,0,0,1,5,.72l-6,41.66A2.5,2.5,0,0,1,246.68,398Z"/><path class="cls-1" d="M265.32,398a2.5,2.5,0,0,1-2.47-2.14l-6-41.66a2.5,2.5,0,0,1,4.95-.72l6,41.66a2.5,2.5,0,0,1-2.12,2.83Z"/><path class="cls-1" d="M199,365.12a2.5,2.5,0,0,1-1.22-4.68l36.84-20.39a2.5,2.5,0,0,1,2.42,4.38l-36.84,20.38A2.47,2.47,0,0,1,199,365.12Z"/><path class="cls-1" d="M224.48,390.58a2.5,2.5,0,0,1-2.19-3.71L242.67,350a2.5,2.5,0,1,1,4.37,2.42l-20.37,36.84A2.49,2.49,0,0,1,224.48,390.58Z"/><path class="cls-1" d="M256,356.62a25.52,25.52,0,0,1-25-30.74,2.5,2.5,0,1,1,4.9,1,20.28,20.28,0,0,0-.44,4.19,20.51,20.51,0,1,0,41,0,20.28,20.28,0,0,0-.44-4.19,2.5,2.5,0,1,1,4.9-1,25.52,25.52,0,0,1-25,30.74Zm0-12.44a13.08,13.08,0,0,1-11.71-18.91,2.5,2.5,0,0,1,4.48,2.24,7.84,7.84,0,0,0-.85,3.59,8.08,8.08,0,1,0,16.16,0,8,8,0,0,0-.85-3.59,2.5,2.5,0,1,1,4.48-2.24A13.08,13.08,0,0,1,256,344.18Z"/></g></svg>