<svg xmlns="http://www.w3.org/2000/svg" viewBox="0 0 512 512"><defs><style>.cls-1{fill:#211915;}</style></defs><title>50-Computer-hardware-Line-Icons</title><g id="_19" data-name="19"><path class="cls-1" d="M373.21,317.22a2.5,2.5,0,0,1-2.5-2.5V99.21A17.83,17.83,0,0,0,352.89,81.4H159.11a17.83,17.83,0,0,0-17.82,17.81V128.9a2.5,2.5,0,0,1-5,0V99.21A22.84,22.84,0,0,1,159.11,76.4H352.89a22.84,22.84,0,0,1,22.82,22.81V314.72A2.5,2.5,0,0,1,373.21,317.22Z"/><path class="cls-1" d="M352.89,435.6H159.11a22.84,22.84,0,0,1-22.82-22.81V190.31a2.5,2.5,0,0,1,5,0V412.79a17.83,17.83,0,0,0,17.82,17.81H352.89a17.83,17.83,0,0,0,17.82-17.81V383.1a2.5,2.5,0,0,1,5,0v29.69A22.84,22.84,0,0,1,352.89,435.6Z"/><path class="cls-1" d="M167.87,131.4a17.5,17.5,0,1,1,17.5-17.5A17.52,17.52,0,0,1,167.87,131.4Zm0-30a12.5,12.5,0,1,0,12.5,12.5A12.51,12.51,0,0,0,167.87,101.4Z"/><path class="cls-1" d="M344.13,131.4a17.5,17.5,0,1,1,17.5-17.5A17.52,17.52,0,0,1,344.13,131.4Zm0-30a12.5,12.5,0,1,0,12.5,12.5A12.5,12.5,0,0,0,344.13,101.4Z"/><path class="cls-1" d="M167.87,415.6a17.5,17.5,0,1,1,17.5-17.5A17.52,17.52,0,0,1,167.87,415.6Zm0-30a12.5,12.5,0,1,0,12.5,12.5A12.52,12.52,0,0,0,167.87,385.6Z"/><path class="cls-1" d="M344.13,415.6a17.5,17.5,0,1,1,17.5-17.5A17.52,17.52,0,0,1,344.13,415.6Zm0-30a12.5,12.5,0,1,0,12.5,12.5A12.51,12.51,0,0,0,344.13,385.6Z"/><path class="cls-1" d="M256,410.89a87.65,87.65,0,1,1,87.65-87.65A87.75,87.75,0,0,1,256,410.89Zm0-170.3a82.65,82.65,0,1,0,82.65,82.65A82.75,82.75,0,0,0,256,240.59Z"/><path class="cls-1" d="M256,388a64.81,64.81,0,0,1-56.39-96.7,2.5,2.5,0,0,1,4.35,2.47,59.69,59.69,0,1,0,29.33-25.87,2.5,2.5,0,1,1-1.9-4.62A64.79,64.79,0,1,1,256,388Z"/><path class="cls-1" d="M256,365.78a42.54,42.54,0,1,1,42.54-42.54A42.59,42.59,0,0,1,256,365.78Zm0-80.08a37.54,37.54,0,1,0,37.54,37.54A37.58,37.58,0,0,0,256,285.7Z"/><path class="cls-1" d="M256,345.88a22.64,22.64,0,0,1,0-45.28,22.41,22.41,0,0,1,9.55,2.11,2.5,2.5,0,0,1-2.11,4.53,17.64,17.64,0,1,0,10.2,16,2.5,2.5,0,0,1,5,0A22.67,22.67,0,0,1,256,345.88Z"/><path class="cls-1" d="M256,226.6a64.47,64.47,0,1,1,25.18-123.83,2.5,2.5,0,0,1-2,4.6,59.46,59.46,0,1,0,30.65,29.55,2.5,2.5,0,1,1,4.53-2.12,63.81,63.81,0,0,1,6.07,27.33A64.54,64.54,0,0,1,256,226.6Z"/><path class="cls-1" d="M256,204.67a42.44,42.44,0,0,1-21.27-5.7,2.5,2.5,0,1,1,2.5-4.32,37.54,37.54,0,1,0-18.77-32.52,2.5,2.5,0,0,1-5,0A42.54,42.54,0,1,1,256,204.67Z"/><path class="cls-1" d="M256,184.77a22.64,22.64,0,1,1,22.64-22.64A22.67,22.67,0,0,1,256,184.77Zm0-40.27a17.64,17.64,0,1,0,17.64,17.63A17.66,17.66,0,0,0,256,144.5Z"/></g></svg>