<svg xmlns="http://www.w3.org/2000/svg" viewBox="0 0 512 512"><defs><style>.cls-1{fill:#211915;}</style></defs><title>50-Computer-hardware-Line-Icons</title><g id="_15" data-name="15"><path class="cls-1" d="M352.36,429.9H342.15a2.5,2.5,0,0,1,0-5h10.21a24.29,24.29,0,0,0,24.27-24.26V111.36A24.29,24.29,0,0,0,352.36,87.1H255a2.5,2.5,0,0,1,0-5h97.35a29.29,29.29,0,0,1,29.27,29.26V400.64A29.29,29.29,0,0,1,352.36,429.9Z"/><path class="cls-1" d="M268.38,429.9H159.64a29.29,29.29,0,0,1-29.27-29.26V111.36A29.29,29.29,0,0,1,159.64,82.1h13.15a2.5,2.5,0,0,1,0,5H159.64a24.29,24.29,0,0,0-24.27,24.26V400.64a24.29,24.29,0,0,0,24.27,24.26H268.38a2.5,2.5,0,0,1,0,5Z"/><path class="cls-1" d="M343.91,409.9H323.08a17.73,17.73,0,0,1-17.72-17.72V338.47a17.74,17.74,0,0,1,17.72-17.72h20.83a17.74,17.74,0,0,1,17.72,17.72v53.71A17.73,17.73,0,0,1,343.91,409.9Zm-20.83-84.15a12.74,12.74,0,0,0-12.72,12.72v53.71a12.73,12.73,0,0,0,12.72,12.72h20.83a12.73,12.73,0,0,0,12.72-12.72V338.47a12.74,12.74,0,0,0-12.72-12.72Z"/><path class="cls-1" d="M167.87,137.1a17.53,17.53,0,0,1-17.5-17.5,2.5,2.5,0,0,1,5,0,12.5,12.5,0,1,0,12.5-12.5,2.5,2.5,0,0,1,0-5,17.5,17.5,0,0,1,0,35Z"/><path class="cls-1" d="M344.13,137.1a17.53,17.53,0,0,1-17.5-17.5,2.5,2.5,0,0,1,5,0,12.5,12.5,0,1,0,12.5-12.5,2.5,2.5,0,0,1,0-5,17.5,17.5,0,0,1,0,35Z"/><path class="cls-1" d="M167.87,313.35a17.52,17.52,0,0,1-17.5-17.5,2.5,2.5,0,0,1,5,0,12.5,12.5,0,1,0,12.5-12.5,2.5,2.5,0,0,1,0-5,17.5,17.5,0,0,1,0,35Z"/><path class="cls-1" d="M344.13,313.35a17.52,17.52,0,0,1-17.5-17.5,2.5,2.5,0,0,1,5,0,12.5,12.5,0,1,0,12.5-12.5,2.5,2.5,0,0,1,0-5,17.5,17.5,0,0,1,0,35Z"/><path class="cls-1" d="M279.19,295.27a2.51,2.51,0,0,1-.66-4.92,85.46,85.46,0,0,0,55.11-46.47,2.5,2.5,0,0,1,4.53,2.11,90.5,90.5,0,0,1-58.32,49.19A2.5,2.5,0,0,1,279.19,295.27Z"/><path class="cls-1" d="M248.81,298.06h-.21a90.62,90.62,0,1,1,96-109.5,2.5,2.5,0,1,1-4.88,1A85.64,85.64,0,1,0,249,293.07a2.5,2.5,0,0,1-.2,5Z"/><path class="cls-1" d="M265.48,275.77a2.5,2.5,0,0,1-2.47-2.14l-5-34.72a2.5,2.5,0,0,1,4.95-.72l5,34.72a2.49,2.49,0,0,1-2.12,2.83Z"/><path class="cls-1" d="M243.38,297.44l-.36,0a2.49,2.49,0,0,1-2.11-2.83l8.16-56.39a2.5,2.5,0,1,1,4.94.72l-8.16,56.39A2.5,2.5,0,0,1,243.38,297.44Z"/><path class="cls-1" d="M213.34,287.35a2.5,2.5,0,0,1-2.19-3.71l27.58-49.87a2.5,2.5,0,1,1,4.38,2.42l-27.58,49.87A2.51,2.51,0,0,1,213.34,287.35Z"/><path class="cls-1" d="M178.88,252.89a2.5,2.5,0,0,1-1.21-4.69l49.86-27.59A2.5,2.5,0,1,1,230,225l-49.86,27.59A2.51,2.51,0,0,1,178.88,252.89Z"/><path class="cls-1" d="M271.08,183a2.5,2.5,0,0,1-2.19-3.71l27.59-49.86a2.5,2.5,0,0,1,4.38,2.42l-27.59,49.86A2.49,2.49,0,0,1,271.08,183Z"/><path class="cls-1" d="M283.26,195.14a2.5,2.5,0,0,1-1.21-4.69l49.86-27.58a2.5,2.5,0,0,1,2.42,4.38l-49.86,27.58A2.53,2.53,0,0,1,283.26,195.14Z"/><path class="cls-1" d="M231,191.58a2.52,2.52,0,0,1-1.49-.5L183.9,157a2.5,2.5,0,0,1,3-4l45.64,34.1a2.5,2.5,0,0,1-1.5,4.51Z"/><path class="cls-1" d="M237.36,185.27a2.51,2.51,0,0,1-2-1l-34.1-45.64a2.5,2.5,0,1,1,4-3l34.11,45.65a2.49,2.49,0,0,1-.51,3.5A2.45,2.45,0,0,1,237.36,185.27Z"/><path class="cls-1" d="M256,241.37a33.65,33.65,0,1,1,33.65-33.65A33.69,33.69,0,0,1,256,241.37Zm0-62.3a28.65,28.65,0,1,0,28.65,28.65A28.69,28.69,0,0,0,256,179.07Z"/><path class="cls-1" d="M256,224.55a16.83,16.83,0,1,1,16.82-16.83A16.84,16.84,0,0,1,256,224.55Zm0-28.65a11.83,11.83,0,1,0,11.82,11.82A11.83,11.83,0,0,0,256,195.9Z"/><path class="cls-1" d="M247.63,409.9H161.25A10.88,10.88,0,0,1,150.37,399V384.46a2.5,2.5,0,1,1,5,0V399a5.88,5.88,0,0,0,5.88,5.87h86.38A5.87,5.87,0,0,0,253.5,399V373.7a5.87,5.87,0,0,0-5.87-5.87h-1.12a44.38,44.38,0,0,1-44-37.31,5.84,5.84,0,0,0-5.77-4.77H161.25a5.89,5.89,0,0,0-5.88,5.87v12.21a2.5,2.5,0,0,1-5,0V331.62a10.89,10.89,0,0,1,10.88-10.87h35.51a10.74,10.74,0,0,1,10.7,9,39.41,39.41,0,0,0,39,33.12h1.12A10.89,10.89,0,0,1,258.5,373.7V399A10.88,10.88,0,0,1,247.63,409.9Z"/><path class="cls-1" d="M236,352.72a13,13,0,0,1-7.49-2.37L224,347.19a13.16,13.16,0,0,1-3-18.66l55.84-74.61a12.78,12.78,0,0,1,17.62-2.83h0a12.79,12.79,0,0,1,3.42,17.52l-50.81,78.13a13.21,13.21,0,0,1-11,6Zm51.09-99a7.83,7.83,0,0,0-6.27,3.15L225,331.53a8.15,8.15,0,0,0,1.86,11.56l4.52,3.16A8.13,8.13,0,0,0,242.88,344l50.8-78.12a7.8,7.8,0,0,0-2.08-10.7h0A7.8,7.8,0,0,0,287.11,253.77Z"/></g></svg>