<svg xmlns="http://www.w3.org/2000/svg" viewBox="0 0 512 512"><defs><style>.cls-1{fill:#211915;}</style></defs><title>50-Computer-hardware-Line-Icons</title><g id="_12" data-name="12"><path class="cls-1" d="M206.54,378.07h-43a24.2,24.2,0,0,1-24.17-24.17V339a2.5,2.5,0,0,1,5,0V353.9a19.19,19.19,0,0,0,19.17,19.17h43a2.5,2.5,0,1,1,0,5Z"/><path class="cls-1" d="M228.81,366.32a2.5,2.5,0,0,1-2.22-3.64,19,19,0,0,0,2.12-8.78V339a2.5,2.5,0,0,1,5,0V353.9A24.3,24.3,0,0,1,231,365,2.49,2.49,0,0,1,228.81,366.32Z"/><path class="cls-1" d="M354.47,440.93h-124A51.53,51.53,0,0,1,179,389.46V375.57a2.5,2.5,0,0,1,5,0v13.89a46.53,46.53,0,0,0,46.47,46.47h124A46.53,46.53,0,0,0,401,389.46V375.57a2.5,2.5,0,0,1,5,0v13.89A51.53,51.53,0,0,1,354.47,440.93Z"/><path class="cls-1" d="M354.47,430.93h-124A41.51,41.51,0,0,1,189,389.46V375.57a2.5,2.5,0,0,1,5,0v13.89a36.51,36.51,0,0,0,36.47,36.47h124A36.51,36.51,0,0,0,391,389.46V268.86a7.5,7.5,0,0,1,15,0V303.5a2.5,2.5,0,0,1-5,0V268.86a2.5,2.5,0,0,0-5,0v120.6A41.52,41.52,0,0,1,354.47,430.93Z"/><path class="cls-1" d="M231.21,341.46H141.84A54.54,54.54,0,0,1,87.37,287v-8.94a2.5,2.5,0,0,1,5,0V287a49.52,49.52,0,0,0,49.47,49.47h89.37a18.7,18.7,0,0,0,18.68-18.68V94.45a18.7,18.7,0,0,0-18.68-18.68H141.84a49.52,49.52,0,0,0-49.47,49.47V214.1a2.5,2.5,0,1,1-5,0V125.24a54.53,54.53,0,0,1,54.47-54.47h89.37a23.7,23.7,0,0,1,23.68,23.68V317.78A23.71,23.71,0,0,1,231.21,341.46Z"/><path class="cls-1" d="M388.45,159H318.38a2.5,2.5,0,0,1,0-5h70.07a7.5,7.5,0,1,0,0-15h-8.91a2.5,2.5,0,1,1,0-5h8.91a12.5,12.5,0,1,1,0,25Z"/><path class="cls-1" d="M346.8,139H318.38a2.5,2.5,0,0,1,0-5H346.8a2.5,2.5,0,0,1,0,5Z"/><path class="cls-1" d="M388.45,213.92H318.38a2.5,2.5,0,0,1,0-5h70.07a7.5,7.5,0,0,0,0-15H318.38a2.5,2.5,0,0,1,0-5h70.07a12.5,12.5,0,0,1,0,25Z"/><path class="cls-1" d="M275.72,233.92H252.39a2.5,2.5,0,0,1,0-5h23.33a2.5,2.5,0,0,1,0,5Z"/><path class="cls-1" d="M311.79,229.6a2.5,2.5,0,0,1-1.61-4.41,15.93,15.93,0,0,0,5.7-12.22v-78A16,16,0,0,0,299.93,119H252.39a2.5,2.5,0,0,1,0-5h47.54a21,21,0,0,1,20.95,20.94v78A20.93,20.93,0,0,1,313.4,229,2.51,2.51,0,0,1,311.79,229.6Z"/></g></svg>