<svg xmlns="http://www.w3.org/2000/svg" viewBox="0 0 512 512"><defs><style>.cls-1{fill:#211915;}</style></defs><title>50-Computer-hardware-Line-Icons</title><g id="_41" data-name="41"><path class="cls-1" d="M398.37,408.37H329.66a2.5,2.5,0,1,1,0-5h66.21v-15H329.66a2.5,2.5,0,1,1,0-5h68.71a2.49,2.49,0,0,1,2.5,2.5v20A2.5,2.5,0,0,1,398.37,408.37Z"/><path class="cls-1" d="M182.34,408.37H113.63a2.5,2.5,0,0,1-2.5-2.5v-20a2.49,2.49,0,0,1,2.5-2.5h68.71a2.5,2.5,0,1,1,0,5H116.13v15h66.21a2.5,2.5,0,1,1,0,5Z"/><path class="cls-1" d="M266,316.94a2.5,2.5,0,0,1-2.5-2.5V297.16a2.5,2.5,0,0,1,5,0v17.28A2.5,2.5,0,0,1,266,316.94Z"/><path class="cls-1" d="M266,368.37H246a2.5,2.5,0,0,1-2.5-2.5V297.16a2.5,2.5,0,0,1,5,0v66.21h15V345.72a2.5,2.5,0,0,1,5,0v20.15A2.5,2.5,0,0,1,266,368.37Z"/><path class="cls-1" d="M314.88,428.37H197.12a17.31,17.31,0,0,1-17.28-17.29V380.65a17.19,17.19,0,0,1,6.56-13.56,2.5,2.5,0,1,1,3.11,3.92,12.22,12.22,0,0,0-4.67,9.64v30.43a12.3,12.3,0,0,0,12.28,12.29H314.88a12.3,12.3,0,0,0,12.28-12.29V380.65a12.3,12.3,0,0,0-12.28-12.28H222.46a2.5,2.5,0,0,1,0-5h92.42a17.3,17.3,0,0,1,17.28,17.28v30.43A17.31,17.31,0,0,1,314.88,428.37Z"/><path class="cls-1" d="M403.89,299.66H108.11A38.9,38.9,0,0,1,69.25,260.8V161.2a38.9,38.9,0,0,1,38.86-38.86h13.64a2.5,2.5,0,0,1,0,5H108.11A33.9,33.9,0,0,0,74.25,161.2v99.6a33.9,33.9,0,0,0,33.86,33.86H403.89a33.9,33.9,0,0,0,33.86-33.86V161.2a33.9,33.9,0,0,0-33.86-33.86H188a2.5,2.5,0,0,1,0-5h215.9a38.9,38.9,0,0,1,38.86,38.86v99.6A38.9,38.9,0,0,1,403.89,299.66Z"/><path class="cls-1" d="M353.89,177.34H71.75a2.5,2.5,0,0,1,0-5H353.89a2.5,2.5,0,0,1,0,5Z"/><path class="cls-1" d="M440.25,177.34H405.34a2.5,2.5,0,0,1,0-5h34.91a2.5,2.5,0,0,1,0,5Z"/><path class="cls-1" d="M383.89,157.34a12.52,12.52,0,0,1-12.5-12.5v-20a2.5,2.5,0,0,1,2.5-2.5h20a2.5,2.5,0,0,1,2.5,2.5v20A12.51,12.51,0,0,1,383.89,157.34Zm-7.5-30v17.5a7.5,7.5,0,1,0,15,0v-17.5Z"/><path class="cls-1" d="M343.89,157.34a12.52,12.52,0,0,1-12.5-12.5v-20a2.5,2.5,0,0,1,2.5-2.5h20a2.5,2.5,0,0,1,2.5,2.5v20A12.51,12.51,0,0,1,343.89,157.34Zm-7.5-30v17.5a7.5,7.5,0,1,0,15,0v-17.5Z"/><path class="cls-1" d="M303.89,157.34a12.52,12.52,0,0,1-12.5-12.5v-20a2.5,2.5,0,0,1,2.5-2.5h20a2.5,2.5,0,0,1,2.5,2.5v20A12.51,12.51,0,0,1,303.89,157.34Zm-7.5-30v17.5a7.5,7.5,0,1,0,15,0v-17.5Z"/><path class="cls-1" d="M121.75,268.5a32.5,32.5,0,1,1,15.91-60.84,2.5,2.5,0,1,1-2.45,4.35,27.51,27.51,0,1,0,14,24,2.5,2.5,0,0,1,5,0A32.54,32.54,0,0,1,121.75,268.5Z"/><path class="cls-1" d="M388.89,243.5h-90a7.5,7.5,0,0,1,0-15h33.16a2.5,2.5,0,0,1,0,5H298.89a2.5,2.5,0,0,0,0,5h90a2.5,2.5,0,0,0,0-5H364a2.5,2.5,0,0,1,0-5h24.88a7.5,7.5,0,0,1,0,15Z"/><path class="cls-1" d="M388.89,223.5h-90a7.5,7.5,0,0,1,0-15h20.42a2.5,2.5,0,0,1,0,5H298.89a2.5,2.5,0,0,0,0,5h90a2.5,2.5,0,0,0,0-5h-35a2.5,2.5,0,0,1,0-5h35a7.5,7.5,0,0,1,0,15Z"/><path class="cls-1" d="M388.89,203.5h-90a7.5,7.5,0,0,1,0-15h9.16a2.5,2.5,0,0,1,0,5h-9.16a2.5,2.5,0,0,0,0,5h90a2.5,2.5,0,0,0,0-5h-51a2.5,2.5,0,0,1,0-5h51a7.5,7.5,0,0,1,0,15Z"/><path class="cls-1" d="M388.89,283.5h-90a7.5,7.5,0,0,1,0-15h55a2.5,2.5,0,0,1,0,5h-55a2.5,2.5,0,0,0,0,5h90a2.5,2.5,0,0,0,0-5h-5a2.5,2.5,0,0,1,0-5h5a7.5,7.5,0,0,1,0,15Z"/><path class="cls-1" d="M388.89,263.5h-90a7.5,7.5,0,0,1,0-15h45a2.5,2.5,0,0,1,0,5h-45a2.5,2.5,0,0,0,0,5h90a2.5,2.5,0,0,0,0-5H371.72a2.5,2.5,0,0,1,0-5h17.17a7.5,7.5,0,0,1,0,15Z"/></g></svg>