<svg xmlns="http://www.w3.org/2000/svg" viewBox="0 0 512 512"><defs><style>.cls-1{fill:#211915;}</style></defs><title>50-Computer-hardware-Line-Icons</title><g id="_35" data-name="35"><path class="cls-1" d="M157.54,402.49H121.69a11.19,11.19,0,0,1-11.17-11.17V380a2.5,2.5,0,0,1,5,0v11.33a6.18,6.18,0,0,0,6.17,6.17h35.85a6.18,6.18,0,0,0,6.17-6.17V380a2.5,2.5,0,0,1,5,0v11.33A11.19,11.19,0,0,1,157.54,402.49Z"/><path class="cls-1" d="M390.31,402.49H354.46a11.19,11.19,0,0,1-11.17-11.17V380a2.5,2.5,0,0,1,5,0v11.33a6.18,6.18,0,0,0,6.17,6.17h35.85a6.18,6.18,0,0,0,6.17-6.17V380a2.5,2.5,0,0,1,5,0v11.33A11.19,11.19,0,0,1,390.31,402.49Z"/><path class="cls-1" d="M433,348.46a2.5,2.5,0,0,1-2.5-2.5V334.11H99a2.5,2.5,0,0,1,0-5H433a2.5,2.5,0,0,1,2.5,2.5V346A2.5,2.5,0,0,1,433,348.46Z"/><path class="cls-1" d="M399,382.49H113A36.39,36.39,0,0,1,77,352a2.5,2.5,0,0,1,4.93-.83A31.41,31.41,0,0,0,113,377.49H399a31.47,31.47,0,0,0,15.51-4.08,2.5,2.5,0,0,1,2.47,4.35A36.58,36.58,0,0,1,399,382.49Z"/><path class="cls-1" d="M296,363.3H196.3a2.5,2.5,0,0,1,0-5H296a2.5,2.5,0,0,0,0-5H118a2.5,2.5,0,1,0,0,5h19.79a2.5,2.5,0,0,1,0,5H118a7.5,7.5,0,1,1,0-15H296a7.5,7.5,0,0,1,0,15Z"/><path class="cls-1" d="M359,368.3a12.5,12.5,0,1,1,12.5-12.5A12.52,12.52,0,0,1,359,368.3Zm0-20a7.5,7.5,0,1,0,7.5,7.5A7.5,7.5,0,0,0,359,348.3Z"/><path class="cls-1" d="M389,368.3a12.5,12.5,0,1,1,12.5-12.5A12.52,12.52,0,0,1,389,368.3Zm0-20a7.5,7.5,0,1,0,7.5,7.5A7.5,7.5,0,0,0,389,348.3Z"/><path class="cls-1" d="M399,334.11a2.5,2.5,0,0,1-2.5-2.5,7.52,7.52,0,0,0-7.5-7.5h-45.1a2.5,2.5,0,0,1,0-5H389a12.52,12.52,0,0,1,12.5,12.5A2.5,2.5,0,0,1,399,334.11Z"/><path class="cls-1" d="M113,334.11a2.5,2.5,0,0,1-2.5-2.5,12.52,12.52,0,0,1,12.5-12.5H277.09a2.5,2.5,0,1,1,0,5H123a7.52,7.52,0,0,0-7.5,7.5A2.5,2.5,0,0,1,113,334.11Z"/><path class="cls-1" d="M65.19,319.65a2.52,2.52,0,0,1-2-1,36.4,36.4,0,0,1,3.93-47l129-129a2.5,2.5,0,0,1,3.54,3.53l-129,129a31.4,31.4,0,0,0-3.4,40.57,2.51,2.51,0,0,1-.58,3.49A2.46,2.46,0,0,1,65.19,319.65Z"/><path class="cls-1" d="M93.14,320a2.5,2.5,0,0,1-1.77-4.27L325.78,81.29l-8.37-8.38a31.54,31.54,0,0,0-44.59,0L253.67,92.06a2.5,2.5,0,1,1-3.53-3.54l19.15-19.14a36.51,36.51,0,0,1,51.65,0l10.15,10.14a2.52,2.52,0,0,1,0,3.54L94.9,319.24A2.45,2.45,0,0,1,93.14,320Z"/><path class="cls-1" d="M79,354.11a22.5,22.5,0,1,1,22.5-22.5A22.53,22.53,0,0,1,79,354.11Zm0-40a17.5,17.5,0,1,0,17.5,17.5A17.52,17.52,0,0,0,79,314.11Z"/></g></svg>