<svg xmlns="http://www.w3.org/2000/svg" viewBox="0 0 512 512"><defs><style>.cls-1{fill:#211915;}</style></defs><title>50-Computer-hardware-Line-Icons</title><g id="_37" data-name="37"><path class="cls-1" d="M406.24,340.56H105.76a26.68,26.68,0,0,1-26.65-26.65V291.52H66.44a35.52,35.52,0,1,1,0-71H79.11V198.09a26.68,26.68,0,0,1,26.65-26.65h32.07a2.5,2.5,0,0,1,0,5H105.76a21.67,21.67,0,0,0-21.65,21.65V223a2.5,2.5,0,0,1-2.5,2.5H66.44a30.52,30.52,0,1,0,0,61H81.61a2.5,2.5,0,0,1,2.5,2.5v24.89a21.67,21.67,0,0,0,21.65,21.65H406.24a21.67,21.67,0,0,0,21.65-21.65V289a2.5,2.5,0,0,1,2.5-2.5h15.17a30.52,30.52,0,0,0,0-61H430.39a2.5,2.5,0,0,1-2.5-2.5V198.09a21.67,21.67,0,0,0-21.65-21.65H223.49a2.5,2.5,0,0,1,0-5H406.24a26.68,26.68,0,0,1,26.65,26.65v22.39h12.67a35.52,35.52,0,0,1,0,71H432.89v22.39A26.68,26.68,0,0,1,406.24,340.56Z"/><path class="cls-1" d="M445.56,278.5a22.5,22.5,0,1,1,11.25-42,2.5,2.5,0,0,1-2.5,4.33A17.5,17.5,0,1,0,463.06,256a2.5,2.5,0,1,1,5,0A22.53,22.53,0,0,1,445.56,278.5Z"/><path class="cls-1" d="M445.56,268.5a12.5,12.5,0,1,1,12.5-12.5A12.51,12.51,0,0,1,445.56,268.5Zm0-20a7.5,7.5,0,1,0,7.5,7.5A7.5,7.5,0,0,0,445.56,248.5Z"/><path class="cls-1" d="M339.08,308.5H316a2.5,2.5,0,0,1,0-5h23.08a22.68,22.68,0,0,0,22.19-18.2l10-49.73A22.64,22.64,0,0,0,349,208.5H163a22.64,22.64,0,0,0-22.2,27.07l9.95,49.73a22.68,22.68,0,0,0,22.19,18.2H269.5a2.5,2.5,0,0,1,0,5H172.92a27.71,27.71,0,0,1-27.1-22.22l-9.94-49.73A27.63,27.63,0,0,1,163,203.5H349a27.63,27.63,0,0,1,27.1,33.05l-9.94,49.73A27.71,27.71,0,0,1,339.08,308.5Z"/><path class="cls-1" d="M339.08,298.5H172.92a17.67,17.67,0,0,1-17.29-14.18l-9.95-49.73A17.64,17.64,0,0,1,163,213.5h23a2.5,2.5,0,0,1,0,5H163a12.62,12.62,0,0,0-12.39,15.11l9.94,49.73a12.67,12.67,0,0,0,12.39,10.16H339.08a12.67,12.67,0,0,0,12.39-10.16l9.94-49.73A12.63,12.63,0,0,0,349,218.5h-8a2.5,2.5,0,0,1,0-5h8a17.64,17.64,0,0,1,17.3,21.09l-9.95,49.73A17.67,17.67,0,0,1,339.08,298.5Z"/><path class="cls-1" d="M271,268.5A12.5,12.5,0,1,1,283.5,256,12.52,12.52,0,0,1,271,268.5Zm0-20a7.5,7.5,0,1,0,7.5,7.5A7.5,7.5,0,0,0,271,248.5Z"/><path class="cls-1" d="M241,268.5A12.5,12.5,0,1,1,253.5,256,12.52,12.52,0,0,1,241,268.5Zm0-20a7.5,7.5,0,1,0,7.5,7.5A7.5,7.5,0,0,0,241,248.5Z"/><path class="cls-1" d="M211,268.5A12.5,12.5,0,1,1,223.5,256,12.52,12.52,0,0,1,211,268.5Zm0-20a7.5,7.5,0,1,0,7.5,7.5A7.5,7.5,0,0,0,211,248.5Z"/><path class="cls-1" d="M301,268.5A12.5,12.5,0,1,1,313.5,256,12.52,12.52,0,0,1,301,268.5Zm0-20a7.5,7.5,0,1,0,7.5,7.5A7.5,7.5,0,0,0,301,248.5Z"/><path class="cls-1" d="M331,268.5A12.5,12.5,0,1,1,343.5,256,12.52,12.52,0,0,1,331,268.5Zm0-20a7.5,7.5,0,1,0,7.5,7.5A7.5,7.5,0,0,0,331,248.5Z"/><path class="cls-1" d="M256,243.5A12.5,12.5,0,1,1,268.5,231,12.52,12.52,0,0,1,256,243.5Zm0-20a7.5,7.5,0,1,0,7.5,7.5A7.5,7.5,0,0,0,256,223.5Z"/><path class="cls-1" d="M286,243.5A12.5,12.5,0,1,1,298.5,231,12.52,12.52,0,0,1,286,243.5Zm0-20a7.5,7.5,0,1,0,7.5,7.5A7.5,7.5,0,0,0,286,223.5Z"/><path class="cls-1" d="M316,243.5A12.5,12.5,0,1,1,328.5,231,12.52,12.52,0,0,1,316,243.5Zm0-20a7.5,7.5,0,1,0,7.5,7.5A7.5,7.5,0,0,0,316,223.5Z"/><path class="cls-1" d="M226,243.5A12.5,12.5,0,1,1,238.5,231,12.52,12.52,0,0,1,226,243.5Zm0-20a7.5,7.5,0,1,0,7.5,7.5A7.5,7.5,0,0,0,226,223.5Z"/><path class="cls-1" d="M196,243.5A12.5,12.5,0,1,1,208.5,231,12.52,12.52,0,0,1,196,243.5Zm0-20a7.5,7.5,0,1,0,7.5,7.5A7.5,7.5,0,0,0,196,223.5Z"/><path class="cls-1" d="M256,293.5A12.5,12.5,0,1,1,268.5,281,12.52,12.52,0,0,1,256,293.5Zm0-20a7.5,7.5,0,1,0,7.5,7.5A7.5,7.5,0,0,0,256,273.5Z"/><path class="cls-1" d="M286,293.5A12.5,12.5,0,1,1,298.5,281,12.52,12.52,0,0,1,286,293.5Zm0-20a7.5,7.5,0,1,0,7.5,7.5A7.5,7.5,0,0,0,286,273.5Z"/><path class="cls-1" d="M316,293.5A12.5,12.5,0,1,1,328.5,281,12.52,12.52,0,0,1,316,293.5Zm0-20a7.5,7.5,0,1,0,7.5,7.5A7.5,7.5,0,0,0,316,273.5Z"/><path class="cls-1" d="M226,293.5A12.5,12.5,0,1,1,238.5,281,12.52,12.52,0,0,1,226,293.5Zm0-20a7.5,7.5,0,1,0,7.5,7.5A7.5,7.5,0,0,0,226,273.5Z"/><path class="cls-1" d="M196,293.5A12.5,12.5,0,1,1,208.5,281,12.52,12.52,0,0,1,196,293.5Zm0-20a7.5,7.5,0,1,0,7.5,7.5A7.5,7.5,0,0,0,196,273.5Z"/><path class="cls-1" d="M66.44,278.5a22.5,22.5,0,1,1,11.26-42,2.5,2.5,0,1,1-2.51,4.33A17.5,17.5,0,1,0,83.94,256a2.5,2.5,0,0,1,5,0A22.52,22.52,0,0,1,66.44,278.5Z"/><path class="cls-1" d="M66.44,268.5A12.5,12.5,0,1,1,78.94,256,12.52,12.52,0,0,1,66.44,268.5Zm0-20a7.5,7.5,0,1,0,7.5,7.5A7.51,7.51,0,0,0,66.44,248.5Z"/></g></svg>