<svg xmlns="http://www.w3.org/2000/svg" viewBox="0 0 512 512"><defs><style>.cls-1{fill:#211915;}</style></defs><title>50-Computer-hardware-Line-Icons</title><g id="_17" data-name="17"><path class="cls-1" d="M133.33,386.53H108.8a9.33,9.33,0,0,1-9.31-9.31V366.83a2.5,2.5,0,0,1,5,0v10.39a4.32,4.32,0,0,0,4.31,4.31h24.53a4.32,4.32,0,0,0,4.31-4.31V366.83a2.5,2.5,0,0,1,5,0v10.39A9.33,9.33,0,0,1,133.33,386.53Z"/><path class="cls-1" d="M403.2,386.53H378.67a9.33,9.33,0,0,1-9.31-9.31V366.83a2.5,2.5,0,0,1,5,0v10.39a4.32,4.32,0,0,0,4.31,4.31H403.2a4.32,4.32,0,0,0,4.31-4.31V366.83a2.5,2.5,0,1,1,5,0v10.39A9.33,9.33,0,0,1,403.2,386.53Z"/><path class="cls-1" d="M462.23,287.2a2.5,2.5,0,0,1-2.5-2.5,24.82,24.82,0,0,0-24.79-24.79H179.21a2.5,2.5,0,0,1,0-5H434.94a29.83,29.83,0,0,1,29.79,29.79A2.5,2.5,0,0,1,462.23,287.2Z"/><path class="cls-1" d="M434.94,369.33H77.06a29.83,29.83,0,0,1-29.79-29.79V284.7a29.83,29.83,0,0,1,29.79-29.79H102a2.5,2.5,0,0,1,0,5H77.06A24.82,24.82,0,0,0,52.27,284.7v54.84a24.82,24.82,0,0,0,24.79,24.79H434.94a24.82,24.82,0,0,0,24.79-24.79V327.28a2.5,2.5,0,0,1,5,0v12.26A29.83,29.83,0,0,1,434.94,369.33Z"/><path class="cls-1" d="M129.28,329.78H112.85a13.37,13.37,0,0,1-13.36-13.35V286.86a13.37,13.37,0,0,1,13.36-13.36h16.43a13.37,13.37,0,0,1,13.36,13.36v29.57A13.37,13.37,0,0,1,129.28,329.78ZM112.85,278.5a8.37,8.37,0,0,0-8.36,8.36v29.57a8.37,8.37,0,0,0,8.36,8.35h16.43a8.37,8.37,0,0,0,8.36-8.35V286.86a8.37,8.37,0,0,0-8.36-8.36Z"/><path class="cls-1" d="M187.42,329.78H171a13.37,13.37,0,0,1-13.35-13.35V286.86A13.37,13.37,0,0,1,171,273.5h16.43a13.37,13.37,0,0,1,13.36,13.36v29.57A13.37,13.37,0,0,1,187.42,329.78ZM171,278.5a8.37,8.37,0,0,0-8.35,8.36v29.57a8.36,8.36,0,0,0,8.35,8.35h16.43a8.37,8.37,0,0,0,8.36-8.35V286.86a8.37,8.37,0,0,0-8.36-8.36Z"/><path class="cls-1" d="M245.57,329.78H229.14a13.37,13.37,0,0,1-13.36-13.35V286.86a13.37,13.37,0,0,1,13.36-13.36h16.43a13.38,13.38,0,0,1,13.36,13.36v29.57A13.38,13.38,0,0,1,245.57,329.78ZM229.14,278.5a8.37,8.37,0,0,0-8.36,8.36v29.57a8.37,8.37,0,0,0,8.36,8.35h16.43a8.37,8.37,0,0,0,8.36-8.35V286.86a8.37,8.37,0,0,0-8.36-8.36Z"/><path class="cls-1" d="M399.15,329.78H383.51a2.5,2.5,0,0,1,0-5h15.64a8.37,8.37,0,0,0,8.36-8.35V286.86a8.37,8.37,0,0,0-8.36-8.36H287.28a8.36,8.36,0,0,0-8.35,8.36v29.57a8.36,8.36,0,0,0,8.35,8.35h44.91a2.5,2.5,0,1,1,0,5H287.28a13.37,13.37,0,0,1-13.35-13.35V286.86a13.37,13.37,0,0,1,13.35-13.36H399.15a13.37,13.37,0,0,1,13.36,13.36v29.57A13.37,13.37,0,0,1,399.15,329.78Z"/><path class="cls-1" d="M347.1,259.91h-7.77a17.47,17.47,0,0,1-17.47-18.05l4.32-131.08a17,17,0,0,1,34.07,0L362.43,177a2.5,2.5,0,1,1-5,.17L355.25,111a12,12,0,0,0-24.07,0L326.86,242a12.47,12.47,0,0,0,12.47,12.89h7.77A12.47,12.47,0,0,0,359.57,242l-.72-22a2.5,2.5,0,1,1,5-.16l.73,22a17.47,17.47,0,0,1-17.47,18.05Z"/><path class="cls-1" d="M358.58,138.39H327.86a2.5,2.5,0,0,1,0-5h30.72a2.5,2.5,0,0,1,0,5Z"/><path class="cls-1" d="M358.25,128.39H328.19a2.5,2.5,0,0,1,0-5h30.06a2.5,2.5,0,1,1,0,5Z"/><path class="cls-1" d="M359.5,166.53H326.93a2.5,2.5,0,0,1,0-5H359.5a2.5,2.5,0,0,1,0,5Z"/><path class="cls-1" d="M359.17,156.53H327.26a2.5,2.5,0,0,1,0-5h31.91a2.5,2.5,0,0,1,0,5Z"/><path class="cls-1" d="M416.83,187.62a7.54,7.54,0,0,1-6.52-3.79,7.46,7.46,0,0,1-.72-5.7,130.38,130.38,0,0,0,0-67.62,7.5,7.5,0,1,1,14.47-4,145.44,145.44,0,0,1,0,75.54A7.51,7.51,0,0,1,416.83,187.62Zm0-81.59a2.5,2.5,0,0,0-.66.09,2.46,2.46,0,0,0-1.51,1.17,2.52,2.52,0,0,0-.24,1.9,135.31,135.31,0,0,1,0,70.26,2.51,2.51,0,0,0,1.75,3.08,2.54,2.54,0,0,0,3.08-1.76,140.51,140.51,0,0,0,0-72.9A2.52,2.52,0,0,0,416.82,106Z"/><path class="cls-1" d="M269.61,187.62a7.52,7.52,0,0,1-7.24-5.53,145.44,145.44,0,0,1,0-75.54,7.53,7.53,0,0,1,9.22-5.26,7.51,7.51,0,0,1,5.25,9.22,130.38,130.38,0,0,0,0,67.62,7.51,7.51,0,0,1-7.23,9.49Zm0-81.59a2.5,2.5,0,0,0-2.41,1.84,140.23,140.23,0,0,0,0,72.9,2.49,2.49,0,0,0,4.58.58,2.47,2.47,0,0,0,.24-1.9,135.31,135.31,0,0,1,0-70.26,2.5,2.5,0,0,0-1.75-3.07A2.5,2.5,0,0,0,269.61,106Z"/><path class="cls-1" d="M381.51,175.75a7.51,7.51,0,0,1-7.07-10,66.28,66.28,0,0,0,0-42.86,7.51,7.51,0,0,1,4.58-9.57,7.49,7.49,0,0,1,9.56,4.59,81.14,81.14,0,0,1,0,52.83A7.51,7.51,0,0,1,381.51,175.75Zm0-57.85a2.37,2.37,0,0,0-.83.14,2.46,2.46,0,0,0-1.42,1.28,2.48,2.48,0,0,0-.11,1.91,71.17,71.17,0,0,1,0,46.18,2.5,2.5,0,0,0,1.53,3.19,2.55,2.55,0,0,0,3.19-1.52,76.26,76.26,0,0,0,0-49.51,2.5,2.5,0,0,0-1.28-1.43A2.54,2.54,0,0,0,381.51,117.9Z"/><path class="cls-1" d="M304.92,175.75a7.52,7.52,0,0,1-7.07-5,81.14,81.14,0,0,1,0-52.83,7.5,7.5,0,1,1,14.15,5,66.11,66.11,0,0,0,0,42.86,7.52,7.52,0,0,1-7.08,10Zm0-57.85a2.48,2.48,0,0,0-2.36,1.67,76.26,76.26,0,0,0,0,49.51,2.54,2.54,0,0,0,3.19,1.52,2.5,2.5,0,0,0,1.53-3.19,71.17,71.17,0,0,1,0-46.18,2.49,2.49,0,0,0-1.53-3.19A2.37,2.37,0,0,0,304.92,117.9Z"/></g></svg>