<svg xmlns="http://www.w3.org/2000/svg" viewBox="0 0 512 512"><defs><style>.cls-1{fill:#211915;}</style></defs><title>50-Computer-hardware-Line-Icons</title><g id="_40" data-name="40"><path class="cls-1" d="M112.07,354.07H83.83a10.35,10.35,0,0,1-10.34-10.34v-12a2.5,2.5,0,0,1,2.5-2.5h43.92a2.5,2.5,0,0,1,2.5,2.5v12A10.35,10.35,0,0,1,112.07,354.07ZM78.49,334.26v9.47a5.35,5.35,0,0,0,5.34,5.34h28.24a5.35,5.35,0,0,0,5.34-5.34v-9.47Z"/><path class="cls-1" d="M428.17,354.07H399.93a10.35,10.35,0,0,1-10.34-10.34v-12a2.5,2.5,0,0,1,2.5-2.5H436a2.5,2.5,0,0,1,2.5,2.5v12A10.35,10.35,0,0,1,428.17,354.07Zm-33.58-19.81v9.47a5.35,5.35,0,0,0,5.34,5.34h28.24a5.35,5.35,0,0,0,5.34-5.34v-9.47Z"/><path class="cls-1" d="M460.16,334.26H221a2.5,2.5,0,0,1,0-5H460.16a18.36,18.36,0,0,0,18.34-18.34V202.6a18.36,18.36,0,0,0-18.34-18.34H431a2.5,2.5,0,0,1,0-5h29.16A23.37,23.37,0,0,1,483.5,202.6V310.92A23.37,23.37,0,0,1,460.16,334.26Z"/><path class="cls-1" d="M151,334.26H51.84A23.37,23.37,0,0,1,28.5,310.92V202.6a23.37,23.37,0,0,1,23.34-23.34H361a2.5,2.5,0,0,1,0,5H51.84A18.36,18.36,0,0,0,33.5,202.6V310.92a18.36,18.36,0,0,0,18.34,18.34H151a2.5,2.5,0,0,1,0,5Z"/><path class="cls-1" d="M456,314.26a7.5,7.5,0,0,1-7.5-7.5v-100a7.5,7.5,0,0,1,15,0v100A7.5,7.5,0,0,1,456,314.26Zm0-110a2.5,2.5,0,0,0-2.5,2.5v100a2.5,2.5,0,0,0,5,0v-100A2.5,2.5,0,0,0,456,204.26Z"/><path class="cls-1" d="M426,314.26a7.5,7.5,0,0,1-7.5-7.5v-100a7.5,7.5,0,0,1,15,0v100A7.5,7.5,0,0,1,426,314.26Zm0-110a2.5,2.5,0,0,0-2.5,2.5v100a2.5,2.5,0,0,0,5,0v-100A2.5,2.5,0,0,0,426,204.26Z"/><path class="cls-1" d="M396,314.26a7.5,7.5,0,0,1-7.5-7.5v-100a7.5,7.5,0,0,1,15,0v100A7.5,7.5,0,0,1,396,314.26Zm0-110a2.5,2.5,0,0,0-2.5,2.5v100a2.5,2.5,0,0,0,5,0v-100A2.5,2.5,0,0,0,396,204.26Z"/><path class="cls-1" d="M366,314.26a7.5,7.5,0,0,1-7.5-7.5v-100a7.5,7.5,0,0,1,15,0v100A7.5,7.5,0,0,1,366,314.26Zm0-110a2.5,2.5,0,0,0-2.5,2.5v100a2.5,2.5,0,0,0,5,0v-100A2.5,2.5,0,0,0,366,204.26Z"/><path class="cls-1" d="M336,314.26a7.5,7.5,0,0,1-7.5-7.5v-100a7.5,7.5,0,0,1,15,0v100A7.5,7.5,0,0,1,336,314.26Zm0-110a2.5,2.5,0,0,0-2.5,2.5v100a2.5,2.5,0,0,0,5,0v-100A2.5,2.5,0,0,0,336,204.26Z"/><path class="cls-1" d="M209.48,314.26h-57a14,14,0,0,1-14-14v-87a2.5,2.5,0,1,1,5,0v87a9,9,0,0,0,9,9h57a9,9,0,0,0,9-9v-87a9,9,0,0,0-9-9h-37.8a2.5,2.5,0,0,1,0-5h37.8a14,14,0,0,1,14,14v87A14,14,0,0,1,209.48,314.26Z"/><path class="cls-1" d="M204.79,254.26H157.21a8.72,8.72,0,0,1-8.71-8.71V238a8.72,8.72,0,0,1,8.71-8.71h7.58a3.71,3.71,0,0,0,3.71-3.71V218a8.72,8.72,0,0,1,8.71-8.71h7.58A8.72,8.72,0,0,1,193.5,218v7.58a3.71,3.71,0,0,0,3.71,3.71h7.58A8.72,8.72,0,0,1,213.5,238v7.58A8.72,8.72,0,0,1,204.79,254.26Zm-47.58-20A3.71,3.71,0,0,0,153.5,238v7.58a3.71,3.71,0,0,0,3.71,3.71h47.58a3.71,3.71,0,0,0,3.71-3.71V238a3.71,3.71,0,0,0-3.71-3.71h-7.58a8.72,8.72,0,0,1-8.71-8.71V218a3.71,3.71,0,0,0-3.71-3.71h-7.58A3.71,3.71,0,0,0,173.5,218v7.58a8.72,8.72,0,0,1-8.71,8.71Z"/><path class="cls-1" d="M204.79,304.26H157.21a8.72,8.72,0,0,1-8.71-8.71V288a8.72,8.72,0,0,1,8.71-8.71h7.58a3.71,3.71,0,0,0,3.71-3.71V268a8.72,8.72,0,0,1,8.71-8.71h7.58A8.72,8.72,0,0,1,193.5,268v7.58a3.71,3.71,0,0,0,3.71,3.71h7.58A8.72,8.72,0,0,1,213.5,288v7.58A8.72,8.72,0,0,1,204.79,304.26Zm-47.58-20A3.71,3.71,0,0,0,153.5,288v7.58a3.71,3.71,0,0,0,3.71,3.71h47.58a3.71,3.71,0,0,0,3.71-3.71V288a3.71,3.71,0,0,0-3.71-3.71h-7.58a8.72,8.72,0,0,1-8.71-8.71V268a3.71,3.71,0,0,0-3.71-3.71h-7.58A3.71,3.71,0,0,0,173.5,268v7.58a8.72,8.72,0,0,1-8.71,8.71Z"/><path class="cls-1" d="M299.48,314.26h-57a14,14,0,0,1-14-14v-87a2.5,2.5,0,1,1,5,0v87a9,9,0,0,0,9,9h57a9,9,0,0,0,9-9v-87a9,9,0,0,0-9-9H261.37a2.5,2.5,0,0,1,0-5h38.11a14,14,0,0,1,14,14v87A14,14,0,0,1,299.48,314.26Z"/><path class="cls-1" d="M294.79,254.26H247.21a8.72,8.72,0,0,1-8.71-8.71V238a8.72,8.72,0,0,1,8.71-8.71h7.58a3.71,3.71,0,0,0,3.71-3.71V218a8.72,8.72,0,0,1,8.71-8.71h7.58A8.72,8.72,0,0,1,283.5,218v7.58a3.71,3.71,0,0,0,3.71,3.71h7.58A8.72,8.72,0,0,1,303.5,238v7.58A8.72,8.72,0,0,1,294.79,254.26Zm-47.58-20A3.71,3.71,0,0,0,243.5,238v7.58a3.71,3.71,0,0,0,3.71,3.71h47.58a3.71,3.71,0,0,0,3.71-3.71V238a3.71,3.71,0,0,0-3.71-3.71h-7.58a8.72,8.72,0,0,1-8.71-8.71V218a3.71,3.71,0,0,0-3.71-3.71h-7.58A3.71,3.71,0,0,0,263.5,218v7.58a8.72,8.72,0,0,1-8.71,8.71Z"/><path class="cls-1" d="M294.79,304.26H247.21a8.72,8.72,0,0,1-8.71-8.71V288a8.72,8.72,0,0,1,8.71-8.71h7.58a3.71,3.71,0,0,0,3.71-3.71V268a8.72,8.72,0,0,1,8.71-8.71h7.58A8.72,8.72,0,0,1,283.5,268v7.58a3.71,3.71,0,0,0,3.71,3.71h7.58A8.72,8.72,0,0,1,303.5,288v7.58A8.72,8.72,0,0,1,294.79,304.26Zm-47.58-20A3.71,3.71,0,0,0,243.5,288v7.58a3.71,3.71,0,0,0,3.71,3.71h47.58a3.71,3.71,0,0,0,3.71-3.71V288a3.71,3.71,0,0,0-3.71-3.71h-7.58a8.72,8.72,0,0,1-8.71-8.71V268a3.71,3.71,0,0,0-3.71-3.71h-7.58A3.71,3.71,0,0,0,263.5,268v7.58a8.72,8.72,0,0,1-8.71,8.71Z"/><path class="cls-1" d="M119.48,314.26h-57a14,14,0,0,1-14-14v-87a2.5,2.5,0,1,1,5,0v87a9,9,0,0,0,9,9h57a9,9,0,0,0,9-9v-87a9,9,0,0,0-9-9H80.6a2.5,2.5,0,0,1,0-5h38.88a14,14,0,0,1,14,14v87A14,14,0,0,1,119.48,314.26Z"/><path class="cls-1" d="M114.79,254.26H67.21a8.72,8.72,0,0,1-8.71-8.71V238a8.72,8.72,0,0,1,8.71-8.71h7.58a3.71,3.71,0,0,0,3.71-3.71V218a8.72,8.72,0,0,1,8.71-8.71h7.58A8.72,8.72,0,0,1,103.5,218v7.58a3.71,3.71,0,0,0,3.71,3.71h7.58A8.72,8.72,0,0,1,123.5,238v7.58A8.72,8.72,0,0,1,114.79,254.26Zm-47.58-20A3.71,3.71,0,0,0,63.5,238v7.58a3.71,3.71,0,0,0,3.71,3.71h47.58a3.71,3.71,0,0,0,3.71-3.71V238a3.71,3.71,0,0,0-3.71-3.71h-7.58a8.72,8.72,0,0,1-8.71-8.71V218a3.71,3.71,0,0,0-3.71-3.71H87.21A3.71,3.71,0,0,0,83.5,218v7.58a8.72,8.72,0,0,1-8.71,8.71Z"/><path class="cls-1" d="M114.79,304.26H67.21a8.72,8.72,0,0,1-8.71-8.71V288a8.72,8.72,0,0,1,8.71-8.71h7.58a3.71,3.71,0,0,0,3.71-3.71V268a8.72,8.72,0,0,1,8.71-8.71h7.58A8.72,8.72,0,0,1,103.5,268v7.58a3.71,3.71,0,0,0,3.71,3.71h7.58A8.72,8.72,0,0,1,123.5,288v7.58A8.72,8.72,0,0,1,114.79,304.26Zm-47.58-20A3.71,3.71,0,0,0,63.5,288v7.58a3.71,3.71,0,0,0,3.71,3.71h47.58a3.71,3.71,0,0,0,3.71-3.71V288a3.71,3.71,0,0,0-3.71-3.71h-7.58a8.72,8.72,0,0,1-8.71-8.71V268a3.71,3.71,0,0,0-3.71-3.71H87.21A3.71,3.71,0,0,0,83.5,268v7.58a8.72,8.72,0,0,1-8.71,8.71Z"/></g></svg>