<svg xmlns="http://www.w3.org/2000/svg" viewBox="0 0 512 512"><defs><style>.cls-1{fill:#211915;}</style></defs><title>50-Computer-hardware-Line-Icons</title><g id="_09" data-name="09"><path class="cls-1" d="M173.33,430H148.8a9.32,9.32,0,0,1-9.31-9.3V410.3a2.5,2.5,0,0,1,2.5-2.5h38.15a2.5,2.5,0,0,1,2.5,2.5v10.4A9.32,9.32,0,0,1,173.33,430Zm-28.84-17.2v7.9a4.31,4.31,0,0,0,4.31,4.3h24.53a4.31,4.31,0,0,0,4.31-4.3v-7.9Z"/><path class="cls-1" d="M363.2,430H338.67a9.32,9.32,0,0,1-9.31-9.3V410.3a2.5,2.5,0,0,1,2.5-2.5H370a2.5,2.5,0,0,1,2.5,2.5v10.4A9.32,9.32,0,0,1,363.2,430Zm-28.84-17.2v7.9a4.31,4.31,0,0,0,4.31,4.3H363.2a4.31,4.31,0,0,0,4.31-4.3v-7.9Z"/><path class="cls-1" d="M420.62,312.59a2.5,2.5,0,0,1-2.5-2.5V199.85a23.21,23.21,0,0,0-23.18-23.18H117.06a23.21,23.21,0,0,0-23.18,23.18,2.5,2.5,0,1,1-5,0,28.21,28.21,0,0,1,28.18-28.18H394.94a28.21,28.21,0,0,1,28.18,28.18V310.09A2.5,2.5,0,0,1,420.62,312.59Z"/><path class="cls-1" d="M394.94,412.8H117.06a28.21,28.21,0,0,1-28.18-28.17V269.27a2.5,2.5,0,0,1,5,0V384.63a23.2,23.2,0,0,0,23.18,23.17H394.94a23.2,23.2,0,0,0,23.18-23.17V367.71a2.5,2.5,0,1,1,5,0v16.92A28.21,28.21,0,0,1,394.94,412.8Z"/><path class="cls-1" d="M356,308.44H156a12.5,12.5,0,0,1,0-25H276.16a2.5,2.5,0,0,1,0,5H156a7.5,7.5,0,0,0,0,15H356a7.5,7.5,0,0,0,0-15H331.86a2.5,2.5,0,0,1,0-5H356a12.5,12.5,0,0,1,0,25Z"/><path class="cls-1" d="M258.5,268.44h-5a10,10,0,0,1-10-10V222.52a10,10,0,0,1,10-10h5a10,10,0,0,1,10,10v35.92A10,10,0,0,1,258.5,268.44Zm-5-50.92a5,5,0,0,0-5,5v35.92a5,5,0,0,0,5,5h5a5,5,0,0,0,5-5V222.52a5,5,0,0,0-5-5Z"/><path class="cls-1" d="M308.5,268.44h-5a10,10,0,0,1-10-10V222.52a10,10,0,0,1,10-10h5a10,10,0,0,1,10,10v35.92A10,10,0,0,1,308.5,268.44Zm-5-50.92a5,5,0,0,0-5,5v35.92a5,5,0,0,0,5,5h5a5,5,0,0,0,5-5V222.52a5,5,0,0,0-5-5Z"/><path class="cls-1" d="M358.5,268.44h-5a10,10,0,0,1-10-10V222.52a10,10,0,0,1,10-10h5a10,10,0,0,1,10,10v35.92A10,10,0,0,1,358.5,268.44Zm-5-50.92a5,5,0,0,0-5,5v35.92a5,5,0,0,0,5,5h5a5,5,0,0,0,5-5V222.52a5,5,0,0,0-5-5Z"/><path class="cls-1" d="M208.5,268.44h-5a10,10,0,0,1-10-10V222.52a10,10,0,0,1,10-10h5a10,10,0,0,1,10,10v35.92A10,10,0,0,1,208.5,268.44Zm-5-50.92a5,5,0,0,0-5,5v35.92a5,5,0,0,0,5,5h5a5,5,0,0,0,5-5V222.52a5,5,0,0,0-5-5Z"/><path class="cls-1" d="M158.5,268.44h-5a10,10,0,0,1-10-10v-8.15a2.5,2.5,0,1,1,5,0v8.15a5,5,0,0,0,5,5h5a5,5,0,0,0,5-5V222.52a5,5,0,0,0-5-5h-5a5,5,0,0,0-5,5,2.5,2.5,0,0,1-5,0,10,10,0,0,1,10-10h5a10,10,0,0,1,10,10v35.92A10,10,0,0,1,158.5,268.44Z"/><path class="cls-1" d="M164.76,206.63H147.24a7.5,7.5,0,0,1,0-15h17.52a7.5,7.5,0,0,1,0,15Zm-17.52-10a2.5,2.5,0,0,0,0,5h17.52a2.5,2.5,0,0,0,0-5Z"/><path class="cls-1" d="M214.76,206.63H197.24a7.5,7.5,0,0,1,0-15h17.52a7.5,7.5,0,0,1,0,15Zm-17.52-10a2.5,2.5,0,0,0,0,5h17.52a2.5,2.5,0,0,0,0-5Z"/><path class="cls-1" d="M264.76,206.63H247.24a7.5,7.5,0,0,1,0-15h17.52a7.5,7.5,0,0,1,0,15Zm-17.52-10a2.5,2.5,0,0,0,0,5h17.52a2.5,2.5,0,0,0,0-5Z"/><path class="cls-1" d="M314.76,206.63H297.24a7.5,7.5,0,0,1,0-15h17.52a7.5,7.5,0,0,1,0,15Zm-17.52-10a2.5,2.5,0,0,0,0,5h17.52a2.5,2.5,0,0,0,0-5Z"/><path class="cls-1" d="M364.76,206.63H347.24a7.5,7.5,0,0,1,0-15h17.52a7.5,7.5,0,0,1,0,15Zm-17.52-10a2.5,2.5,0,0,0,0,5h17.52a2.5,2.5,0,0,0,0-5Z"/><path class="cls-1" d="M358.76,176.67h-5.52a13.14,13.14,0,0,1-13.14-13.58l.28-8.42a2.5,2.5,0,0,1,5,.16l-.28,8.43a8.15,8.15,0,0,0,8.14,8.41h5.52a8.15,8.15,0,0,0,8.14-8.41l-3.07-93.14a7.83,7.83,0,0,0-15.66,0l-1.63,49.37a2.49,2.49,0,0,1-2.49,2.41H344a2.5,2.5,0,0,1-2.42-2.58L343.17,70a12.84,12.84,0,0,1,25.66,0l3.07,93.14a13.14,13.14,0,0,1-13.14,13.58Z"/><path class="cls-1" d="M367,91.76H345a2.49,2.49,0,0,1-2.5-2.58l.33-10a2.5,2.5,0,0,1,2.5-2.42h21.26a2.5,2.5,0,0,1,2.5,2.42l.33,10a2.49,2.49,0,0,1-2.5,2.58Zm-19.34-5h16.76l-.17-5H347.79Z"/><path class="cls-1" d="M367.62,111.76H344.38a2.49,2.49,0,0,1-2.5-2.58l.33-10a2.5,2.5,0,0,1,2.5-2.42h22.58a2.5,2.5,0,0,1,2.5,2.42l.33,10a2.49,2.49,0,0,1-2.5,2.58Zm-20.66-5H365l-.17-5H347.13Z"/><path class="cls-1" d="M158.76,176.67h-5.52a13.14,13.14,0,0,1-13.14-13.58l.34-10.15a2.5,2.5,0,1,1,5,.16l-.33,10.15a8.15,8.15,0,0,0,8.14,8.42h5.52a8.15,8.15,0,0,0,8.14-8.41l-3.07-93.14a7.83,7.83,0,0,0-15.66,0l-1.65,49.94a2.53,2.53,0,0,1-2.58,2.42,2.49,2.49,0,0,1-2.41-2.58L143.17,70a12.84,12.84,0,0,1,25.66,0l3.07,93.14a13.14,13.14,0,0,1-13.14,13.58Z"/><path class="cls-1" d="M167,91.76H145a2.49,2.49,0,0,1-2.5-2.58l.33-10a2.5,2.5,0,0,1,2.5-2.42h21.26a2.5,2.5,0,0,1,2.5,2.42l.33,10a2.49,2.49,0,0,1-2.5,2.58Zm-19.34-5h16.76l-.17-5H147.79Z"/><path class="cls-1" d="M167.62,111.76H144.38a2.49,2.49,0,0,1-2.5-2.58l.33-10a2.5,2.5,0,0,1,2.5-2.42h22.58a2.5,2.5,0,0,1,2.5,2.42l.33,10a2.49,2.49,0,0,1-2.5,2.58Zm-20.66-5H165l-.17-5H147.13Z"/></g></svg>