<svg xmlns="http://www.w3.org/2000/svg" viewBox="0 0 512 512"><defs><style>.cls-1{fill:#211915;}</style></defs><title>50-Computer-hardware-Line-Icons</title><g id="_10" data-name="10"><path class="cls-1" d="M119.9,410.29a28.41,28.41,0,0,1-28.19-31.54l13.51-120.84a99,99,0,0,1,13.12-39.46,2.5,2.5,0,0,1,4.31,2.53,94,94,0,0,0-12.46,37.48L96.68,379.3a23.37,23.37,0,0,0,35.23,22.64l70.76-42.4A59,59,0,0,1,233,351.16h46a59,59,0,0,1,30.32,8.38,2.5,2.5,0,1,1-2.57,4.29A54,54,0,0,0,279,356.16H233a54,54,0,0,0-27.76,7.67l-70.76,42.4A28.33,28.33,0,0,1,119.9,410.29Z"/><path class="cls-1" d="M392.11,410.29a28.3,28.3,0,0,1-14.58-4.06L355.46,393a2.5,2.5,0,0,1,2.57-4.29l22.07,13.22a23.36,23.36,0,0,0,35.22-22.64L401.81,258.46a94.65,94.65,0,0,0-94.15-84.21H204.35a94.08,94.08,0,0,0-35.74,7,2.5,2.5,0,0,1-1.89-4.63,99.2,99.2,0,0,1,37.63-7.36H307.66a99.65,99.65,0,0,1,99.12,88.66l13.51,120.84a28.41,28.41,0,0,1-28.18,31.54Z"/><path class="cls-1" d="M331.87,262.13a18.08,18.08,0,0,1-18.06-18.06,17.8,17.8,0,0,1,.58-4.5,18.05,18.05,0,0,1,35,0,17.6,17.6,0,0,1,.57,4.49A18.08,18.08,0,0,1,331.87,262.13Zm0-31.11a13,13,0,0,0-12.64,9.8,12.71,12.71,0,0,0-.42,3.25,13.06,13.06,0,1,0,26.12,0,12.82,12.82,0,0,0-.41-3.23A13,13,0,0,0,331.87,231Z"/><path class="cls-1" d="M331.87,331.62a18.08,18.08,0,0,1-18.06-18.06,17.8,17.8,0,0,1,.58-4.5,18.05,18.05,0,0,1,35,0,17.66,17.66,0,0,1,.57,4.49A18.08,18.08,0,0,1,331.87,331.62Zm0-31.11a13,13,0,0,0-12.64,9.8,12.71,12.71,0,0,0-.42,3.25,13.06,13.06,0,1,0,26.12,0,12.82,12.82,0,0,0-.41-3.23A13,13,0,0,0,331.87,300.51Z"/><path class="cls-1" d="M366.62,293.72a18.08,18.08,0,0,1-18.06-18.06,17.79,17.79,0,0,1,.57-4.5,18,18,0,0,1,17.49-13.55,2.5,2.5,0,0,1,0,5,13.06,13.06,0,1,0,13.05,13.05,12.38,12.38,0,0,0-.41-3.23,2.5,2.5,0,1,1,4.84-1.27,17.79,17.79,0,0,1,.57,4.5A18.08,18.08,0,0,1,366.62,293.72Z"/><path class="cls-1" d="M297.12,293.72a18.08,18.08,0,0,1-18.06-18.06,17.8,17.8,0,0,1,.58-4.5,18.05,18.05,0,0,1,35,0,17.66,17.66,0,0,1,.57,4.49A18.08,18.08,0,0,1,297.12,293.72Zm0-31.11a13,13,0,0,0-12.64,9.8,12.65,12.65,0,0,0-.42,3.25,13.06,13.06,0,1,0,26.12,0,12.88,12.88,0,0,0-.41-3.23A13,13,0,0,0,297.12,262.61Z"/><path class="cls-1" d="M183.17,317.11h-10a10.8,10.8,0,0,1-10.8-10.79v-8.68a5.8,5.8,0,0,0-5.8-5.8H145.18a10.81,10.81,0,0,1-10.8-10.8v-10c0-.13,0-.26,0-.4a10.73,10.73,0,0,1,10.78-10.4h11.43a5.8,5.8,0,0,0,5.8-5.79v-8.69A10.8,10.8,0,0,1,173.21,235h10A10.8,10.8,0,0,1,194,245.81v8.69a5.8,5.8,0,0,0,5.8,5.79h11.43A10.74,10.74,0,0,1,222,270.69c0,.13,0,.27,0,.4v10a10.81,10.81,0,0,1-10.8,10.8,2.5,2.5,0,0,1,0-5A5.8,5.8,0,0,0,217,281v-10a1.09,1.09,0,0,1,0-.18,5.76,5.76,0,0,0-5.79-5.62H199.76A10.8,10.8,0,0,1,189,254.5v-8.69a5.8,5.8,0,0,0-5.79-5.79h-10a5.8,5.8,0,0,0-5.8,5.79v8.69a10.8,10.8,0,0,1-10.8,10.79H145.18a5.77,5.77,0,0,0-5.79,5.62,1.28,1.28,0,0,1,0,.19V281a5.81,5.81,0,0,0,5.8,5.8h11.43a10.81,10.81,0,0,1,10.8,10.8v8.68a5.8,5.8,0,0,0,5.8,5.79h10a5.8,5.8,0,0,0,5.79-5.79v-8.68a2.5,2.5,0,0,1,5,0v8.68A10.8,10.8,0,0,1,183.17,317.11Z"/><path class="cls-1" d="M288.91,229.08a2.5,2.5,0,0,1,0-5,12.28,12.28,0,1,0,0-24.55H223.09a12.28,12.28,0,1,0,0,24.55H251a2.5,2.5,0,0,1,0,5H223.09a17.28,17.28,0,1,1,0-34.55h65.82a17.28,17.28,0,1,1,0,34.55Z"/><path class="cls-1" d="M280.09,174.25H231.91a2.5,2.5,0,0,1-2.5-2.5V161.66a12.43,12.43,0,0,1,12.41-12.41h28.36a12.43,12.43,0,0,1,12.41,12.41v10.09A2.5,2.5,0,0,1,280.09,174.25Zm-45.68-5h43.18v-7.59a7.42,7.42,0,0,0-7.41-7.41H241.82a7.42,7.42,0,0,0-7.41,7.41Z"/><path class="cls-1" d="M261,154.25H251a2.5,2.5,0,0,1-2.5-2.5V49.47a7.5,7.5,0,0,1,15,0V70.39a2.5,2.5,0,0,1-5,0V49.47a2.5,2.5,0,0,0-5,0v99.78h5v-33a2.5,2.5,0,1,1,5,0v35.49A2.5,2.5,0,0,1,261,154.25Z"/></g></svg>