<svg xmlns="http://www.w3.org/2000/svg" viewBox="0 0 512 512"><defs><style>.cls-1{fill:#211915;}</style></defs><title>50-Computer-hardware-Line-Icons</title><g id="_11" data-name="11"><path class="cls-1" d="M401.19,381.46H78.67A20.39,20.39,0,0,1,58.31,361.1V182.56A20.39,20.39,0,0,1,78.67,162.2H89.91a2.5,2.5,0,0,1,0,5H78.67a15.38,15.38,0,0,0-15.36,15.36V361.1a15.38,15.38,0,0,0,15.36,15.36h320V123.54H271.29a15.26,15.26,0,0,0-9,2.94L211.65,163.3a20.23,20.23,0,0,1-12,3.9H149.19a2.5,2.5,0,0,1,0-5h50.48a15.29,15.29,0,0,0,9-2.94l50.6-36.82a20.26,20.26,0,0,1,12-3.9h129.9a2.5,2.5,0,0,1,2.5,2.5V379A2.5,2.5,0,0,1,401.19,381.46Z"/><path class="cls-1" d="M435.4,143.54H401.19a2.5,2.5,0,0,1,0-5H435.4a1,1,0,0,0,1-.95V124.5a1,1,0,0,0-1-1H401.19a2.5,2.5,0,0,1,0-5H435.4a6,6,0,0,1,6,6v13.09A6,6,0,0,1,435.4,143.54Z"/><path class="cls-1" d="M435.4,183.2H401.19a2.5,2.5,0,0,1,0-5H435.4a1,1,0,0,0,1-1V164.15a1,1,0,0,0-1-1H401.19a2.5,2.5,0,0,1,0-5H435.4a6,6,0,0,1,6,6v13.09A6,6,0,0,1,435.4,183.2Z"/><path class="cls-1" d="M435.4,222.85H401.19a2.5,2.5,0,0,1,0-5H435.4a1,1,0,0,0,1-1V203.8a1,1,0,0,0-1-1H401.19a2.5,2.5,0,0,1,0-5H435.4a6,6,0,0,1,6,6v13.09A6,6,0,0,1,435.4,222.85Z"/><path class="cls-1" d="M435.4,262.5H401.19a2.5,2.5,0,0,1,0-5H435.4a1,1,0,0,0,1-1V243.46a1,1,0,0,0-1-1H401.19a2.5,2.5,0,0,1,0-5H435.4a6,6,0,0,1,6,6v13.08A6,6,0,0,1,435.4,262.5Z"/><path class="cls-1" d="M435.4,302.15H401.19a2.5,2.5,0,1,1,0-5H435.4a1,1,0,0,0,1-.95V283.11a1,1,0,0,0-1-1H401.19a2.5,2.5,0,1,1,0-5H435.4a6,6,0,0,1,6,6V296.2A6,6,0,0,1,435.4,302.15Z"/><path class="cls-1" d="M435.4,341.8H401.19a2.5,2.5,0,0,1,0-5H435.4a1,1,0,0,0,1-.95V322.76a1,1,0,0,0-1-1H401.19a2.5,2.5,0,0,1,0-5H435.4a6,6,0,0,1,6,6v13.09A6,6,0,0,1,435.4,341.8Z"/><path class="cls-1" d="M435.4,381.46H401.19a2.5,2.5,0,0,1,0-5H435.4a1,1,0,0,0,1-1V362.41a1,1,0,0,0-1-1H401.19a2.5,2.5,0,0,1,0-5H435.4a6,6,0,0,1,6,6V375.5A6,6,0,0,1,435.4,381.46Z"/><path class="cls-1" d="M332.08,163.2h-40a9.14,9.14,0,0,1-9.12-9.13V121a2.5,2.5,0,0,1,5,0v33a4.13,4.13,0,0,0,4.12,4.13h40a2.5,2.5,0,0,1,0,5Z"/><path class="cls-1" d="M374.57,163.2H365a2.5,2.5,0,0,1,0-5h9.6a4.13,4.13,0,0,0,4.12-4.13V121a2.5,2.5,0,0,1,5,0v33A9.14,9.14,0,0,1,374.57,163.2Z"/><path class="cls-1" d="M285.48,381.46A2.5,2.5,0,0,1,283,379V331.83a2.5,2.5,0,1,1,5,0V379A2.5,2.5,0,0,1,285.48,381.46Z"/><path class="cls-1" d="M305.48,381.46A2.5,2.5,0,0,1,303,379V267.57a3.23,3.23,0,0,0-3.23-3.23h-8.53a3.24,3.24,0,0,0-3.24,3.23v20.89a2.5,2.5,0,1,1-5,0V267.57a8.25,8.25,0,0,1,8.24-8.23h8.53a8.24,8.24,0,0,1,8.23,8.23V379A2.5,2.5,0,0,1,305.48,381.46Z"/><path class="cls-1" d="M345.48,381.46A2.5,2.5,0,0,1,343,379V267.57a3.23,3.23,0,0,0-3.23-3.23h-8.53a3.24,3.24,0,0,0-3.24,3.23V379a2.5,2.5,0,1,1-5,0V267.57a8.25,8.25,0,0,1,8.24-8.23h8.53a8.24,8.24,0,0,1,8.23,8.23V379A2.5,2.5,0,0,1,345.48,381.46Z"/><path class="cls-1" d="M168.42,361.46H141.53a2.5,2.5,0,0,1,0-5h26.89a7,7,0,0,0,7-7v-78.1a7,7,0,0,0-7-7H90.32a7,7,0,0,0-7,7v78.1a7,7,0,0,0,7,7h9.41a2.5,2.5,0,1,1,0,5H90.32a12,12,0,0,1-12-12v-78.1a12,12,0,0,1,12-12h78.1a12,12,0,0,1,12,12v78.1A12,12,0,0,1,168.42,361.46Z"/><path class="cls-1" d="M124.37,264.34a2.5,2.5,0,0,1-2.5-2.5v-24.4a2.5,2.5,0,0,1,5,0v24.4A2.5,2.5,0,0,1,124.37,264.34Z"/><path class="cls-1" d="M134.37,264.34a2.5,2.5,0,0,1-2.5-2.5v-24.4a2.5,2.5,0,0,1,5,0v24.4A2.5,2.5,0,0,1,134.37,264.34Z"/><path class="cls-1" d="M129.37,241.32A12.32,12.32,0,1,1,141.69,229,12.34,12.34,0,0,1,129.37,241.32Zm0-19.64a7.32,7.32,0,1,0,7.32,7.32A7.33,7.33,0,0,0,129.37,221.68Z"/><path class="cls-1" d="M154,264.34a2.5,2.5,0,0,1-2.5-2.5v-24.4a2.5,2.5,0,0,1,5,0v24.4A2.5,2.5,0,0,1,154,264.34Z"/><path class="cls-1" d="M164,264.34a2.5,2.5,0,0,1-2.5-2.5v-24.4a2.5,2.5,0,0,1,5,0v24.4A2.5,2.5,0,0,1,164,264.34Z"/><path class="cls-1" d="M159,241.32A12.32,12.32,0,1,1,171.33,229,12.34,12.34,0,0,1,159,241.32Zm0-19.64a7.32,7.32,0,1,0,7.32,7.32A7.33,7.33,0,0,0,159,221.68Z"/><path class="cls-1" d="M94.73,264.34a2.5,2.5,0,0,1-2.5-2.5v-24.4a2.5,2.5,0,0,1,5,0v24.4A2.5,2.5,0,0,1,94.73,264.34Z"/><path class="cls-1" d="M104.73,264.34a2.5,2.5,0,0,1-2.5-2.5v-24.4a2.5,2.5,0,0,1,5,0v24.4A2.5,2.5,0,0,1,104.73,264.34Z"/><path class="cls-1" d="M99.73,241.32A12.32,12.32,0,1,1,112.05,229,12.34,12.34,0,0,1,99.73,241.32Zm0-19.64a7.32,7.32,0,1,0,7.32,7.32A7.33,7.33,0,0,0,99.73,221.68Z"/><path class="cls-1" d="M202.33,331.46h-24.4a2.5,2.5,0,0,1,0-5h24.4a2.5,2.5,0,0,1,0,5Z"/><path class="cls-1" d="M202.33,341.46h-24.4a2.5,2.5,0,0,1,0-5h24.4a2.5,2.5,0,0,1,0,5Z"/><path class="cls-1" d="M230.89,285.23h-53a2.5,2.5,0,0,1,0-5h53a.63.63,0,0,0,.63-.63V212.88a12,12,0,0,1,11.94-11.94H317a2.5,2.5,0,0,1,0,5H243.46a7,7,0,0,0-6.94,6.94V279.6A5.64,5.64,0,0,1,230.89,285.23Z"/><path class="cls-1" d="M234.58,295.23H177.93a2.5,2.5,0,0,1,0-5h56.65a7,7,0,0,0,6.94-6.94V216.57a5.64,5.64,0,0,1,5.63-5.63H317a2.5,2.5,0,0,1,0,5H247.15a.63.63,0,0,0-.63.63v66.72A12,12,0,0,1,234.58,295.23Z"/><path class="cls-1" d="M210.77,346.28A12.32,12.32,0,1,1,223.09,334,12.34,12.34,0,0,1,210.77,346.28Zm0-19.64a7.32,7.32,0,1,0,7.32,7.32A7.33,7.33,0,0,0,210.77,326.64Z"/><path class="cls-1" d="M325.48,220.76a12.32,12.32,0,1,1,12.32-12.32A12.34,12.34,0,0,1,325.48,220.76Zm0-19.64a7.32,7.32,0,1,0,7.32,7.32A7.33,7.33,0,0,0,325.48,201.12Z"/></g></svg>