<svg xmlns="http://www.w3.org/2000/svg" viewBox="0 0 512 512"><defs><style>.cls-1{fill:#211915;}</style></defs><title>50-Computer-hardware-Line-Icons</title><g id="_46" data-name="46"><path class="cls-1" d="M256,478.24a22.52,22.52,0,0,1-22.5-22.5v-8.63a2.5,2.5,0,0,1,5,0v8.63a17.5,17.5,0,0,0,35,0V367.9h-35v51.46a2.5,2.5,0,0,1-5,0v-54a2.5,2.5,0,0,1,2.5-2.5h40a2.5,2.5,0,0,1,2.5,2.5v90.34A22.52,22.52,0,0,1,256,478.24Z"/><path class="cls-1" d="M316,298.18H196A26.19,26.19,0,0,1,169.84,272v-27.1a2.5,2.5,0,0,1,5,0V272A21.18,21.18,0,0,0,196,293.18H316A21.18,21.18,0,0,0,337.16,272V210.08A21.18,21.18,0,0,0,316,188.92H196a21.18,21.18,0,0,0-21.16,21.16,2.5,2.5,0,0,1-5,0A26.18,26.18,0,0,1,196,183.92H316a26.18,26.18,0,0,1,26.16,26.16V272A26.19,26.19,0,0,1,316,298.18Z"/><path class="cls-1" d="M309,233.55H203a12.5,12.5,0,1,1,0-25h11.85a2.5,2.5,0,0,1,0,5H203a7.5,7.5,0,1,0,0,15H309a7.5,7.5,0,0,0,0-15H251.89a2.5,2.5,0,0,1,0-5H309a12.5,12.5,0,0,1,0,25Z"/><path class="cls-1" d="M309,273.55H203a12.5,12.5,0,1,1,0-25h28.3a2.5,2.5,0,0,1,0,5H203a7.5,7.5,0,1,0,0,15H309a7.5,7.5,0,0,0,0-15h-38a2.5,2.5,0,0,1,0-5h38a12.5,12.5,0,0,1,0,25Z"/><path class="cls-1" d="M286.21,367.9H225.79a24.45,24.45,0,0,1-24.42-24.42v-47.8a2.5,2.5,0,0,1,2.5-2.5H308.13a2.5,2.5,0,0,1,2.5,2.5v32.93a2.5,2.5,0,0,1-5,0V298.18H206.37v45.3a19.44,19.44,0,0,0,19.42,19.42h60.42a19.24,19.24,0,0,0,14.16-6.13,2.5,2.5,0,1,1,3.65,3.42A24.52,24.52,0,0,1,286.21,367.9Z"/><path class="cls-1" d="M316,188.92H196a2.5,2.5,0,0,1-2.5-2.5V115.8a20,20,0,0,1,20-20h17.77a2.5,2.5,0,0,1,0,5H213.49a15,15,0,0,0-15,15v68.12h115V115.8a15,15,0,0,0-15-15H280.74a2.5,2.5,0,0,1,0-5h17.77a20,20,0,0,1,20,20v70.62A2.5,2.5,0,0,1,316,188.92Z"/><path class="cls-1" d="M280.74,188.92H231.26a2.49,2.49,0,0,1-2.5-2.5V87.75A15.75,15.75,0,0,1,244.49,72h23a15.75,15.75,0,0,1,15.73,15.74v32.16a2.5,2.5,0,0,1-5,0V87.75A10.75,10.75,0,0,0,267.51,77h-23a10.75,10.75,0,0,0-10.73,10.74v96.17h44.48v-29.6a2.5,2.5,0,0,1,5,0v32.1A2.49,2.49,0,0,1,280.74,188.92Z"/></g></svg>