<svg xmlns="http://www.w3.org/2000/svg" viewBox="0 0 512 512"><defs><style>.cls-1{fill:#211915;}</style></defs><title>50-Computer-hardware-Line-Icons</title><g id="_45" data-name="45"><path class="cls-1" d="M117,353.36H93.53a9.85,9.85,0,0,1-9.85-9.84V330.86a2.5,2.5,0,0,1,2.5-2.5h38.15a2.5,2.5,0,0,1,2.5,2.5v12.66A9.85,9.85,0,0,1,117,353.36Zm-28.31-20v10.16a4.85,4.85,0,0,0,4.85,4.84H117a4.84,4.84,0,0,0,4.84-4.84V333.36Z"/><path class="cls-1" d="M418.47,353.36H395a9.85,9.85,0,0,1-9.84-9.84V330.86a2.5,2.5,0,0,1,2.5-2.5h38.15a2.5,2.5,0,0,1,2.5,2.5v12.66A9.85,9.85,0,0,1,418.47,353.36Zm-28.3-20v10.16a4.84,4.84,0,0,0,4.84,4.84h23.46a4.85,4.85,0,0,0,4.85-4.84V333.36Z"/><path class="cls-1" d="M455.87,229.86a2.47,2.47,0,0,1-1-.22A31.07,31.07,0,0,0,442,226.9H403a2.5,2.5,0,0,1,0-5h39a36,36,0,0,1,14.88,3.18,2.5,2.5,0,0,1-1,4.78Z"/><path class="cls-1" d="M442,333.36H342.28a2.5,2.5,0,0,1,0-5H442A31.39,31.39,0,0,0,473.37,297V258.25a2.5,2.5,0,0,1,5,0V297A36.4,36.4,0,0,1,442,333.36Z"/><path class="cls-1" d="M273.07,333.36H70A36.4,36.4,0,0,1,33.63,297V258.25A36.4,36.4,0,0,1,70,221.9H281.52a2.5,2.5,0,0,1,0,5H70a31.39,31.39,0,0,0-31.35,31.35V297A31.39,31.39,0,0,0,70,328.36H273.07a2.5,2.5,0,1,1,0,5Z"/><path class="cls-1" d="M475.87,293H389a2.5,2.5,0,0,1,0-5h86.92a2.5,2.5,0,0,1,0,5Z"/><path class="cls-1" d="M76.13,293h-40a2.5,2.5,0,1,1,0-5h40a2.5,2.5,0,0,1,0,5Z"/><path class="cls-1" d="M295.6,293H136.13a2.5,2.5,0,0,1,0-5H295.6a2.5,2.5,0,0,1,0,5Z"/><path class="cls-1" d="M440.87,276.9a17.5,17.5,0,1,1,17.5-17.5A17.52,17.52,0,0,1,440.87,276.9Zm0-30a12.5,12.5,0,1,0,12.5,12.5A12.52,12.52,0,0,0,440.87,246.9Z"/><path class="cls-1" d="M101.13,283a7.52,7.52,0,0,1-7.5-7.5V239.4a7.5,7.5,0,1,1,15,0v36.07A7.51,7.51,0,0,1,101.13,283Zm0-46.07a2.5,2.5,0,0,0-2.5,2.5v36.07a2.5,2.5,0,0,0,5,0V239.4A2.5,2.5,0,0,0,101.13,236.9Z"/><path class="cls-1" d="M131.13,283a7.52,7.52,0,0,1-7.5-7.5V239.4a7.5,7.5,0,1,1,15,0v36.07A7.51,7.51,0,0,1,131.13,283Zm0-46.07a2.5,2.5,0,0,0-2.5,2.5v36.07a2.5,2.5,0,0,0,5,0V239.4A2.5,2.5,0,0,0,131.13,236.9Z"/><path class="cls-1" d="M161.13,283a7.52,7.52,0,0,1-7.5-7.5V239.4a7.5,7.5,0,1,1,15,0v36.07A7.51,7.51,0,0,1,161.13,283Zm0-46.07a2.5,2.5,0,0,0-2.5,2.5v36.07a2.5,2.5,0,0,0,5,0V239.4A2.5,2.5,0,0,0,161.13,236.9Z"/><path class="cls-1" d="M191.13,283a7.52,7.52,0,0,1-7.5-7.5V239.4a7.5,7.5,0,1,1,15,0v36.07A7.51,7.51,0,0,1,191.13,283Zm0-46.07a2.5,2.5,0,0,0-2.5,2.5v36.07a2.5,2.5,0,0,0,5,0V239.4A2.5,2.5,0,0,0,191.13,236.9Z"/><path class="cls-1" d="M221.13,283a7.52,7.52,0,0,1-7.5-7.5V239.4a7.5,7.5,0,1,1,15,0v36.07A7.51,7.51,0,0,1,221.13,283Zm0-46.07a2.5,2.5,0,0,0-2.5,2.5v36.07a2.5,2.5,0,0,0,5,0V239.4A2.5,2.5,0,0,0,221.13,236.9Z"/><path class="cls-1" d="M71.13,283a7.52,7.52,0,0,1-7.5-7.5V239.4a7.5,7.5,0,0,1,15,0v36.07A7.51,7.51,0,0,1,71.13,283Zm0-46.07a2.5,2.5,0,0,0-2.5,2.5v36.07a2.5,2.5,0,0,0,5,0V239.4A2.5,2.5,0,0,0,71.13,236.9Z"/><path class="cls-1" d="M342.28,313A67,67,0,1,1,355.83,180.4a2.5,2.5,0,1,1-1,4.9A62,62,0,1,0,404.24,246a61.67,61.67,0,0,0-17.1-42.74,2.5,2.5,0,1,1,3.62-3.45A67,67,0,0,1,342.28,313Z"/><path class="cls-1" d="M342.28,293a46.7,46.7,0,0,1-33.22-13.76,2.5,2.5,0,0,1,3.54-3.53A42,42,0,1,0,300.31,246a2.5,2.5,0,0,1-5,0,47,47,0,1,1,47,47Z"/><path class="cls-1" d="M352.82,256.72a2.5,2.5,0,1,1,0-5,16.08,16.08,0,1,0-16.08-16.08,2.5,2.5,0,0,1-5,0,21.09,21.09,0,1,1,21.08,21.08Z"/></g></svg>