<svg xmlns="http://www.w3.org/2000/svg" viewBox="0 0 512 512"><defs><style>.cls-1{fill:#211915;}</style></defs><title>50-Computer-hardware-Line-Icons</title><g id="_50" data-name="50"><path class="cls-1" d="M365,424.33H147a15.2,15.2,0,0,1-14.4-20.05l17.29-51.39a33.33,33.33,0,0,1,31.62-22.72H330.46a33.17,33.17,0,0,1,20,6.68,2.5,2.5,0,0,1-3,4,28.13,28.13,0,0,0-17-5.68H181.54a28.34,28.34,0,0,0-26.88,19.31l-17.29,51.4A10.2,10.2,0,0,0,147,419.33H365a10.2,10.2,0,0,0,9.66-13.45L362.46,369.7a2.5,2.5,0,0,1,4.74-1.59l12.17,36.17A15.2,15.2,0,0,1,365,424.33Z"/><path class="cls-1" d="M317.11,397h-9.44a2.5,2.5,0,0,1,0-5h9.44a14.29,14.29,0,0,0,14.27-14.28v-5a14.29,14.29,0,0,0-14.27-14.28H235.55a14.3,14.3,0,0,0-14.28,14.28v5A14.3,14.3,0,0,0,235.55,392h34.83a2.5,2.5,0,0,1,0,5H235.55a19.3,19.3,0,0,1-19.28-19.28v-5a19.3,19.3,0,0,1,19.28-19.28h81.56a19.29,19.29,0,0,1,19.27,19.28v5A19.29,19.29,0,0,1,317.11,397Z"/><path class="cls-1" d="M256,335.17a2.5,2.5,0,0,1-2.5-2.5v-11a6.53,6.53,0,0,0-6.52-6.52H190.56a6.53,6.53,0,0,0-6.52,6.52v11a2.5,2.5,0,0,1-5,0v-11a11.54,11.54,0,0,1,11.52-11.52H247a11.54,11.54,0,0,1,11.52,11.52v11A2.5,2.5,0,0,1,256,335.17Z"/><path class="cls-1" d="M247,315.17a2.5,2.5,0,0,1-2.5-2.5v-8a9.49,9.49,0,0,0-9.48-9.47H211.71a2.5,2.5,0,1,1,0-5H235a14.49,14.49,0,0,1,14.48,14.47v8A2.5,2.5,0,0,1,247,315.17Z"/><path class="cls-1" d="M190.56,315.17a2.5,2.5,0,0,1-2.5-2.5v-8a14.43,14.43,0,0,1,3.72-9.68,2.5,2.5,0,1,1,3.71,3.34,9.49,9.49,0,0,0-2.43,6.34v8A2.5,2.5,0,0,1,190.56,315.17Z"/><path class="cls-1" d="M302.22,335.17h-20a2.5,2.5,0,0,1-2.5-2.5V268.29a2.5,2.5,0,1,1,5,0v61.88h15V268.29a2.5,2.5,0,1,1,5,0v64.38A2.5,2.5,0,0,1,302.22,335.17Z"/><path class="cls-1" d="M306.31,270.79h-28a26.74,26.74,0,0,1-26.62-23.88l-7.77-71.67a2.5,2.5,0,0,1,5-.54l7.78,71.67a21.73,21.73,0,0,0,21.64,19.42h28A21.74,21.74,0,0,0,328,246.37l14.13-130.2a29.18,29.18,0,0,0-21.39-31.42L278.13,73.08a29.31,29.31,0,0,0-36.88,31.43L243.69,127a2.5,2.5,0,0,1-5,.54L236.28,105a34.3,34.3,0,0,1,43.17-36.78L322,79.93a34.16,34.16,0,0,1,25,36.78l-14.13,130.2A26.73,26.73,0,0,1,306.31,270.79Z"/><path class="cls-1" d="M332.88,226.65H320.12a20.42,20.42,0,0,1-20.4-20.4V153.87a20.42,20.42,0,0,1,20.4-20.4h22.33a2.5,2.5,0,0,1,0,5H320.12a15.42,15.42,0,0,0-15.4,15.4v52.38a15.42,15.42,0,0,0,15.4,15.4h12.76a2.5,2.5,0,0,1,0,5Z"/></g></svg>