<svg xmlns="http://www.w3.org/2000/svg" viewBox="0 0 512 512"><defs><style>.cls-1{fill:#211915;}</style></defs><title>50-Computer-hardware-Line-Icons</title><g id="_13" data-name="13"><path class="cls-1" d="M256,451.86C148,451.86,60.14,364,60.14,256a195.12,195.12,0,0,1,53-134,2.5,2.5,0,0,1,3.65,3.42A190.14,190.14,0,0,0,65.14,256c0,105.24,85.62,190.86,190.86,190.86S446.86,361.24,446.86,256,361.24,65.14,256,65.14a190.93,190.93,0,0,0-52.67,7.36A2.5,2.5,0,1,1,202,67.69,196.25,196.25,0,0,1,256,60.14C364,60.14,451.86,148,451.86,256S364,451.86,256,451.86Z"/><path class="cls-1" d="M256,411.86c-85.94,0-155.86-69.92-155.86-155.86S170.06,100.14,256,100.14,411.86,170.06,411.86,256a157.3,157.3,0,0,1-3.32,32.17,2.5,2.5,0,0,1-4.9-1A151.54,151.54,0,0,0,406.86,256c0-83.19-67.67-150.86-150.86-150.86S105.14,172.81,105.14,256,172.81,406.86,256,406.86a149.52,149.52,0,0,0,91.62-31,2.5,2.5,0,1,1,3,4A154.38,154.38,0,0,1,256,411.86Z"/><path class="cls-1" d="M256,356.63a95.74,95.74,0,0,1-60.44-21.57,2.5,2.5,0,0,1,3.17-3.87,90.6,90.6,0,0,0,133.75-118.8,7.5,7.5,0,1,0-12.65,8.06,75.63,75.63,0,1,1-127.66,0,7.5,7.5,0,1,0-12.65-8.06,90.67,90.67,0,0,0-8.92,79,2.5,2.5,0,0,1-4.71,1.68,95.7,95.7,0,0,1,9.41-83.36,12.5,12.5,0,1,1,21.09,13.43,70.63,70.63,0,1,0,119.22,0A12.5,12.5,0,0,1,336.7,209.7,95.62,95.62,0,0,1,256,356.63Z"/><path class="cls-1" d="M256,243.47A12.52,12.52,0,0,1,243.5,231V153.7a12.5,12.5,0,0,1,25,0v8.6a2.5,2.5,0,0,1-5,0v-8.6a7.5,7.5,0,0,0-15,0V231a7.5,7.5,0,1,0,15,0V201.84a2.5,2.5,0,0,1,5,0V231A12.52,12.52,0,0,1,256,243.47Z"/></g></svg>