<svg xmlns="http://www.w3.org/2000/svg" viewBox="0 0 512 512"><defs><style>.cls-1{fill:#211915;}</style></defs><title>50-Computer-hardware-Line-Icons</title><g id="_48" data-name="48"><path class="cls-1" d="M364.44,348.09h-.14l-14.55-.76a2.5,2.5,0,0,1-2.37-2.5V309.64a2.5,2.5,0,0,1,5,0v32.81l12.18.64a2.5,2.5,0,0,1-.12,5Z"/><path class="cls-1" d="M429,359.59H321.32a2.5,2.5,0,0,1,0-5H428.78a2.58,2.58,0,0,0,.39-1.48,2.62,2.62,0,0,0-.47-1.64l-37.84-2a2.5,2.5,0,1,1,.26-5l38,2c2.85.15,5,3,5,6.63S431.91,359.59,429,359.59Z"/><path class="cls-1" d="M449,312.14H299.13a2.5,2.5,0,0,1,0-5H449a3.09,3.09,0,0,0,3.09-3.08V142.73a3.09,3.09,0,0,0-3.09-3.07H420.74a2.5,2.5,0,0,1,0-5H449a8.09,8.09,0,0,1,8.09,8.07V304.06A8.1,8.1,0,0,1,449,312.14Z"/><path class="cls-1" d="M194.44,200a2.5,2.5,0,0,1-2.5-2.5V142.73a8.08,8.08,0,0,1,8.08-8.07H370.58a2.5,2.5,0,0,1,0,5H200a3.08,3.08,0,0,0-3.08,3.07v54.73A2.5,2.5,0,0,1,194.44,200Z"/><path class="cls-1" d="M438.85,292.5H299.13a2.5,2.5,0,0,1,0-5H436.35v-20a2.5,2.5,0,0,1,5,0V290A2.5,2.5,0,0,1,438.85,292.5Z"/><path class="cls-1" d="M438.85,233a2.5,2.5,0,0,1-2.5-2.5V152.09H276.74a2.5,2.5,0,0,1,0-5H438.85a2.5,2.5,0,0,1,2.5,2.5v80.88A2.5,2.5,0,0,1,438.85,233Z"/><path class="cls-1" d="M210.16,200a2.5,2.5,0,0,1-2.5-2.5V149.59a2.5,2.5,0,0,1,2.5-2.5h32a2.5,2.5,0,0,1,0,5H212.66v45.37A2.5,2.5,0,0,1,210.16,200Z"/><path class="cls-1" d="M392.16,262.11H349.79a8.5,8.5,0,0,1-6.37-2.49,8.38,8.38,0,0,1-2.38-6,11,11,0,0,1,3.26-7.75,2.5,2.5,0,0,1,3.61,3.46,6,6,0,0,0-1.87,4.29,3.46,3.46,0,0,0,1,2.56,3.53,3.53,0,0,0,2.78,1h42.37c3.87,0,4.19-1.62,4.19-3.42s-.32-3.18-4.19-3.18H362.72a2.51,2.51,0,0,1-1.82-4.22l19.29-20.51a54.57,54.57,0,0,0,9.39-12.71,26.48,26.48,0,0,0,2.65-11.68c0-5.82-2-10.3-6-13.7s-9.71-5.21-16.73-5.21a37.51,37.51,0,0,0-12.34,2.15,36.31,36.31,0,0,0-10.74,5.78,5,5,0,0,0-1.28,1.51,4,4,0,0,0-.35,1.78,4.2,4.2,0,0,0,.87,2.69c.64.83,1.1.83,1.32.83a3,3,0,0,0,1.21-.28,11.71,11.71,0,0,0,1.81-1.05,47.14,47.14,0,0,1,9.15-5A26,26,0,0,1,369,189c4.34,0,7.8,1.16,10.28,3.45s3.81,5.66,3.81,9.87a21.34,21.34,0,0,1-2.44,9.66,46.44,46.44,0,0,1-7.24,10L364,232.06a2.5,2.5,0,1,1-3.66-3.41l9.41-10.11a41.9,41.9,0,0,0,6.46-8.85,16.44,16.44,0,0,0,1.9-7.4c0-2.8-.72-4.82-2.21-6.2S372,194,369,194a21.14,21.14,0,0,0-7.94,1.55,41.52,41.52,0,0,0-8.15,4.47,15.89,15.89,0,0,1-2.63,1.51,7.86,7.86,0,0,1-3.25.72,6.53,6.53,0,0,1-5.26-2.75,9.09,9.09,0,0,1-1.93-5.77,8.94,8.94,0,0,1,.88-4,9.86,9.86,0,0,1,2.59-3.14,41.4,41.4,0,0,1,12.26-6.63,42.6,42.6,0,0,1,14-2.43c8.23,0,15,2.15,20,6.39s7.75,10.24,7.75,17.52a31.42,31.42,0,0,1-3.15,13.86c-2,4.19-5.48,8.88-10.24,13.95L368.5,245.51h23.66c5.84,0,9.19,3,9.19,8.18C401.35,259,398,262.11,392.16,262.11Z"/><path class="cls-1" d="M292.16,390.17H102.82a2.5,2.5,0,0,1,0-5H292.16a26.79,26.79,0,0,0,26.75-26.76,8.26,8.26,0,0,0-8.26-8.25H63.12a8.27,8.27,0,0,0-8.26,8.25,26.76,26.76,0,0,0,11.78,22.17,2.5,2.5,0,0,1-2.8,4.14,31.75,31.75,0,0,1-14-26.31,13.27,13.27,0,0,1,13.26-13.25H310.65a13.27,13.27,0,0,1,13.26,13.25A31.79,31.79,0,0,1,292.16,390.17Z"/><path class="cls-1" d="M301.2,373.68H218.35a6.45,6.45,0,0,1-6.45-6.45v-6.18a6.46,6.46,0,0,1,6.45-6.46h41.43a2.5,2.5,0,0,1,0,5H218.35a1.46,1.46,0,0,0-1.45,1.46v6.18a1.45,1.45,0,0,0,1.45,1.45H301.2a1.46,1.46,0,0,0,1.46-1.45v-6.18a1.47,1.47,0,0,0-1.46-1.46h-9.54a2.5,2.5,0,0,1,0-5h9.54a6.47,6.47,0,0,1,6.46,6.46v6.18A6.46,6.46,0,0,1,301.2,373.68Z"/><path class="cls-1" d="M74.65,373.68a9.55,9.55,0,1,1,9.54-9.54A9.55,9.55,0,0,1,74.65,373.68Zm0-14.09a4.55,4.55,0,1,0,4.54,4.55A4.55,4.55,0,0,0,74.65,359.59Z"/><path class="cls-1" d="M95.78,373.68a9.55,9.55,0,1,1,9.54-9.54A9.55,9.55,0,0,1,95.78,373.68Zm0-14.09a4.55,4.55,0,1,0,4.54,4.55A4.55,4.55,0,0,0,95.78,359.59Z"/><path class="cls-1" d="M74.65,350.16a2.49,2.49,0,0,1-2.5-2.5V208.27A13.32,13.32,0,0,1,85.45,195h24.66a2.5,2.5,0,0,1,0,5H85.45a8.31,8.31,0,0,0-8.3,8.31V347.66A2.5,2.5,0,0,1,74.65,350.16Z"/><path class="cls-1" d="M299.13,350.16a2.5,2.5,0,0,1-2.5-2.5V208.27a8.32,8.32,0,0,0-8.31-8.31H154.64a2.5,2.5,0,0,1,0-5H288.32a13.32,13.32,0,0,1,13.31,13.31V347.66A2.5,2.5,0,0,1,299.13,350.16Z"/><path class="cls-1" d="M209.33,343.11a2.5,2.5,0,0,1,0-5,4.55,4.55,0,0,0,0-9.09H164.45a4.55,4.55,0,1,0,0,9.09H183a2.5,2.5,0,0,1,0,5h-18.5a9.55,9.55,0,1,1,0-19.09h44.88a9.55,9.55,0,0,1,0,19.09Z"/><path class="cls-1" d="M277.13,322h-130a2.5,2.5,0,0,1,0-5h130a5.42,5.42,0,0,0,5.41-5.41V219.46a5.42,5.42,0,0,0-5.41-5.41H96.64a5.42,5.42,0,0,0-5.41,5.41v92.11A5.42,5.42,0,0,0,96.64,317h13.47a2.5,2.5,0,1,1,0,5H96.64a10.42,10.42,0,0,1-10.41-10.41V219.46a10.42,10.42,0,0,1,10.41-10.41H277.13a10.42,10.42,0,0,1,10.41,10.41v92.11A10.42,10.42,0,0,1,277.13,322Z"/><path class="cls-1" d="M238.35,307.6H200.66c-5.91,0-9.3-3.06-9.3-8.41,0-2.46.9-8.19,9.3-8.19h9.1V247.12l-6.9,4.24a8.22,8.22,0,0,1-4.1,1.26,7.38,7.38,0,0,1-5.9-2.94,9.38,9.38,0,0,1-2.17-6,8.06,8.06,0,0,1,4.09-7.15l17.27-10.7a15,15,0,0,1,7.68-2.39,9.22,9.22,0,0,1,6.78,2.63,9.51,9.51,0,0,1,2.63,7v8.76a2.5,2.5,0,0,1-5,0v-8.76a4.68,4.68,0,0,0-1.16-3.47,4.29,4.29,0,0,0-3.25-1.17,10,10,0,0,0-5.07,1.66L197.4,240.76a3.12,3.12,0,0,0-1.71,2.9,4.46,4.46,0,0,0,1.06,2.89,2.42,2.42,0,0,0,2,1.07,3.33,3.33,0,0,0,1.55-.56L211,240.52a2.5,2.5,0,0,1,3.81,2.13V293.5a2.49,2.49,0,0,1-2.5,2.5h-11.6c-4,0-4.3,1.51-4.3,3.19s.33,3.41,4.3,3.41h37.69c3.87,0,4.19-1.61,4.19-3.41s-.32-3.19-4.19-3.19H226.64a2.49,2.49,0,0,1-2.5-2.5V263.14a2.5,2.5,0,0,1,5,0V291h9.21c5.84,0,9.19,3,9.19,8.19C247.54,304.54,244.19,307.6,238.35,307.6Z"/></g></svg>