<svg xmlns="http://www.w3.org/2000/svg" viewBox="0 0 512 512"><defs><style>.cls-1{fill:#211915;}</style></defs><title>50-Computer-hardware-Line-Icons</title><g id="_47" data-name="47"><path class="cls-1" d="M351.21,407.76a22.38,22.38,0,0,1-17.43-36.34,2.5,2.5,0,1,1,3.9,3.13,17.61,17.61,0,0,0-2.76,4.92,17.35,17.35,0,1,0,33.65,6.32,2.52,2.52,0,0,1,2.56-2.44,2.49,2.49,0,0,1,2.44,2.55,22.19,22.19,0,0,1-1.34,7.15A22.43,22.43,0,0,1,351.21,407.76Zm0-10a12.35,12.35,0,0,1-11.59-16.58,12.39,12.39,0,0,1,5.5-6.51,2.5,2.5,0,0,1,2.46,4.35,7.36,7.36,0,0,0,1.13,13.29,7.34,7.34,0,0,0,9.4-9.46,2.5,2.5,0,0,1,4.69-1.74,12.35,12.35,0,0,1-11.59,16.65Z"/><path class="cls-1" d="M388,392.63a31.83,31.83,0,0,1-10.93-1.95l-49-17.83A31.92,31.92,0,0,1,309,331.93l24.52-67.37a2.5,2.5,0,1,1,4.69,1.72l-24.52,67.36a26.92,26.92,0,0,0,16.1,34.51l49,17.83a26.94,26.94,0,0,0,34.51-16.09l45-123.63a10.66,10.66,0,0,0-6.36-13.64l-79.6-29A10.63,10.63,0,0,0,358.67,210l-5.1,14a2.5,2.5,0,0,1-4.7-1.71l5.1-14A15.66,15.66,0,0,1,374,199l79.6,29A15.67,15.67,0,0,1,463,248L418,371.6a32,32,0,0,1-30,21Z"/><path class="cls-1" d="M414.67,317.6a2.54,2.54,0,0,1-.85-.15,2.51,2.51,0,0,1-1.5-3.21L444,227.1a2.5,2.5,0,1,1,4.7,1.71L417,316A2.5,2.5,0,0,1,414.67,317.6Z"/><path class="cls-1" d="M386.81,372.15a14.19,14.19,0,0,1-4.79-.85L336.7,354.8a14,14,0,0,1-8.34-17.89l48.83-134.15a2.5,2.5,0,1,1,4.69,1.71L333.06,338.62a9,9,0,0,0,5.35,11.48l45.32,16.5a9,9,0,0,0,11.49-5.36L399,350.93a2.5,2.5,0,0,1,4.7,1.71L399.92,363a14,14,0,0,1-13.11,9.2Z"/><path class="cls-1" d="M419,265.58a7.45,7.45,0,0,1-2.56-.46l-37.86-13.78a7.5,7.5,0,1,1,5.13-14.09L421.57,251A7.5,7.5,0,0,1,419,265.58ZM381.15,241.8a2.5,2.5,0,0,0-.86,4.85l37.86,13.77a2.5,2.5,0,1,0,1.71-4.69h0L382,242A2.28,2.28,0,0,0,381.15,241.8Z"/><path class="cls-1" d="M412.17,284.37a7.65,7.65,0,0,1-2.57-.45l-37.86-13.78a7.5,7.5,0,0,1,5.13-14.1l37.86,13.78a7.51,7.51,0,0,1,.61,13.85A7.5,7.5,0,0,1,412.17,284.37Zm-37.86-23.78a2.5,2.5,0,0,0-.85,4.85l37.85,13.78a2.48,2.48,0,0,0,1.91-.08,2.52,2.52,0,0,0,1.3-1.42,2.44,2.44,0,0,0-.09-1.91,2.49,2.49,0,0,0-1.41-1.29h0l-37.86-13.78A2.5,2.5,0,0,0,374.31,260.59Z"/><path class="cls-1" d="M405.33,303.17a7.42,7.42,0,0,1-2.57-.46L364.9,288.93A7.5,7.5,0,0,1,370,274.84l37.86,13.78a7.5,7.5,0,0,1,.61,13.84A7.51,7.51,0,0,1,405.33,303.17Zm-37.86-23.79a2.51,2.51,0,0,0-2.27,3.56,2.55,2.55,0,0,0,1.41,1.29L404.47,298a2.5,2.5,0,0,0,1.71-4.7h0l-37.86-13.77A2.29,2.29,0,0,0,367.47,279.38Z"/><path class="cls-1" d="M446.39,230.45a2.31,2.31,0,0,1-.85-.15,2.5,2.5,0,0,1-1.5-3.2l12-32.87a6,6,0,0,0-3.57-7.65l-33.22-12.09a2.5,2.5,0,1,1,1.71-4.7l33.22,12.09a11,11,0,0,1,6.55,14.06l-12,32.87A2.51,2.51,0,0,1,446.39,230.45Z"/><path class="cls-1" d="M379.53,206.12a2.54,2.54,0,0,1-.85-.15,2.49,2.49,0,0,1-1.49-3.21l12-32.86a10.83,10.83,0,0,1,4.42-5.51,2.5,2.5,0,1,1,2.68,4.22,5.88,5.88,0,0,0-2.4,3l-12,32.86A2.49,2.49,0,0,1,379.53,206.12Z"/><path class="cls-1" d="M256,314.06a22.36,22.36,0,0,1-21.17-29.53,2.5,2.5,0,0,1,4.74,1.61A17.35,17.35,0,0,0,256,309.06a2.5,2.5,0,0,1,0,5Zm0-10a12.34,12.34,0,0,1-9.41-20.34A2.5,2.5,0,1,1,250.4,287a7.35,7.35,0,1,0,11.2,0,2.5,2.5,0,1,1,3.8-3.25,12.34,12.34,0,0,1-9.4,20.35ZM274.67,301a2.54,2.54,0,0,1-.85-.15,2.5,2.5,0,0,1-1.5-3.2,17.34,17.34,0,0,0,.11-11.46,2.5,2.5,0,0,1,4.74-1.61A22.38,22.38,0,0,1,277,299.3,2.5,2.5,0,0,1,274.67,301Z"/><path class="cls-1" d="M282.07,287.84H229.93A32,32,0,0,1,198,255.91V124.34a15.65,15.65,0,0,1,15.64-15.63h84.7A15.65,15.65,0,0,1,314,124.34V255.91A32,32,0,0,1,282.07,287.84ZM213.65,113.71A10.65,10.65,0,0,0,203,124.34V255.91a27,27,0,0,0,26.92,26.93h52.14A27,27,0,0,0,309,255.91V124.34a10.65,10.65,0,0,0-10.64-10.63Z"/><path class="cls-1" d="M280.11,267.92H231.89a14,14,0,0,1-14-14V168.88a2.5,2.5,0,0,1,5,0V254a9,9,0,0,0,9,9h48.22a9,9,0,0,0,9-9V111.21a2.5,2.5,0,1,1,5,0V254A14,14,0,0,1,280.11,267.92Z"/><path class="cls-1" d="M220.43,133.13a2.5,2.5,0,0,1-2.5-2.5V111.21a2.5,2.5,0,1,1,5,0v19.42A2.5,2.5,0,0,1,220.43,133.13Z"/><path class="cls-1" d="M276.14,156.38H235.86a7.5,7.5,0,0,1,0-15h40.28a7.5,7.5,0,0,1,0,15Zm-40.28-10a2.5,2.5,0,0,0,0,5h40.28a2.5,2.5,0,0,0,0-5Z"/><path class="cls-1" d="M276.14,176.38H235.86a7.5,7.5,0,0,1,0-15h40.28a7.5,7.5,0,0,1,0,15Zm-40.28-10a2.5,2.5,0,0,0,0,5h40.28a2.5,2.5,0,0,0,0-5Z"/><path class="cls-1" d="M276.14,196.38H235.86a7.5,7.5,0,0,1,0-15h40.28a7.5,7.5,0,0,1,0,15Zm-40.28-10a2.5,2.5,0,0,0,0,5h40.28a2.5,2.5,0,0,0,0-5Z"/><path class="cls-1" d="M291.57,113.71a2.5,2.5,0,0,1-2.5-2.5v-35a6,6,0,0,0-6-6H228.9a6,6,0,0,0-6,6v35a2.5,2.5,0,0,1-5,0v-35a11,11,0,0,1,11-11h54.2a11,11,0,0,1,11,11v35A2.5,2.5,0,0,1,291.57,113.71Z"/><path class="cls-1" d="M160.79,407.76a22.43,22.43,0,0,1-21-14.71,22.14,22.14,0,0,1-1.34-7.15,2.5,2.5,0,0,1,5-.1,17.35,17.35,0,1,0,33.65-6.33,17.73,17.73,0,0,0-2.77-4.93,2.5,2.5,0,0,1,3.91-3.12,22.36,22.36,0,0,1-17.43,36.34Zm0-10a12.35,12.35,0,0,1-11.59-16.65,2.5,2.5,0,0,1,4.69,1.74A7.34,7.34,0,1,0,164.42,379a2.5,2.5,0,0,1,2.46-4.35A12.35,12.35,0,0,1,165,397,12.19,12.19,0,0,1,160.79,397.76Z"/><path class="cls-1" d="M73.91,311.51a2.5,2.5,0,0,1-2.35-1.65L49,248a15.67,15.67,0,0,1,9.35-20.05L138,199A15.64,15.64,0,0,1,158,208.3a2.5,2.5,0,0,1-4.7,1.71,10.63,10.63,0,0,0-13.64-6.36l-79.6,29a10.66,10.66,0,0,0-6.36,13.64l22.53,61.89a2.5,2.5,0,0,1-1.49,3.21A2.55,2.55,0,0,1,73.91,311.51Z"/><path class="cls-1" d="M124,392.63a32,32,0,0,1-30-21l-7.16-19.67a2.5,2.5,0,1,1,4.7-1.71l7.16,19.67A26.94,26.94,0,0,0,133.24,386l49-17.83a26.92,26.92,0,0,0,16.1-34.51L168,250.32a2.5,2.5,0,0,1,4.7-1.71L203,331.93a31.92,31.92,0,0,1-19.08,40.92l-49,17.83A31.83,31.83,0,0,1,124,392.63Z"/><path class="cls-1" d="M165.84,297.81a2.51,2.51,0,0,1-2.35-1.64l-33.37-91.7a2.5,2.5,0,0,1,4.69-1.71l33.38,91.69a2.51,2.51,0,0,1-1.5,3.21A2.54,2.54,0,0,1,165.84,297.81Z"/><path class="cls-1" d="M125.19,372.15a14,14,0,0,1-13.11-9.2l-5.15-14.16a2.5,2.5,0,0,1,4.7-1.71l5.15,14.16a9,9,0,0,0,11.49,5.36l45.32-16.5a9,9,0,0,0,5.35-11.48l-3.84-10.57a2.5,2.5,0,1,1,4.69-1.71l3.85,10.57a14,14,0,0,1-8.34,17.89L130,371.3A14.19,14.19,0,0,1,125.19,372.15Z"/><path class="cls-1" d="M105.9,341.16a2.51,2.51,0,0,1-2.35-1.64L63.26,228.81A2.5,2.5,0,1,1,68,227.1l40.29,110.7a2.51,2.51,0,0,1-1.49,3.21A2.55,2.55,0,0,1,105.9,341.16Z"/><path class="cls-1" d="M93,265.58A7.5,7.5,0,0,1,90.43,251l37.86-13.78h0a7.5,7.5,0,0,1,5.13,14.09L95.56,265.12A7.45,7.45,0,0,1,93,265.58ZM130,242,92.14,255.73a2.5,2.5,0,1,0,1.71,4.69l37.86-13.77A2.5,2.5,0,0,0,130,242Z"/><path class="cls-1" d="M99.83,284.37a7.47,7.47,0,0,1-7-4.94,7.5,7.5,0,0,1,4.48-9.61L135.13,256h0a7.5,7.5,0,0,1,5.13,14.1L102.4,283.92A7.65,7.65,0,0,1,99.83,284.37Zm37-23.63L99,274.52a2.49,2.49,0,0,0-1.41,1.29,2.44,2.44,0,0,0-.09,1.91,2.52,2.52,0,0,0,1.3,1.42,2.48,2.48,0,0,0,1.91.08l37.86-13.78a2.5,2.5,0,0,0-1.71-4.7Z"/><path class="cls-1" d="M106.67,303.17a7.51,7.51,0,0,1-7-4.94,7.49,7.49,0,0,1,4.48-9.61L142,274.84h0a7.5,7.5,0,0,1,5.13,14.09l-37.86,13.78A7.42,7.42,0,0,1,106.67,303.17Zm37-23.63-37.86,13.77a2.47,2.47,0,0,0-1.41,1.3,2.53,2.53,0,0,0-.09,1.91,2.51,2.51,0,0,0,3.21,1.49l37.86-13.78a2.55,2.55,0,0,0,1.41-1.29,2.5,2.5,0,0,0-3.12-3.4Z"/><path class="cls-1" d="M132.47,206.12a2.49,2.49,0,0,1-2.35-1.65l-12-32.86A6,6,0,0,0,110.5,168l-7.6,2.76a2.5,2.5,0,0,1-1.71-4.7l7.6-2.76a11,11,0,0,1,14.06,6.56l12,32.86a2.49,2.49,0,0,1-1.49,3.21A2.54,2.54,0,0,1,132.47,206.12Z"/><path class="cls-1" d="M65.61,230.45a2.51,2.51,0,0,1-2.35-1.64l-12-32.87a11,11,0,0,1,6.55-14.06L73,176.36a2.5,2.5,0,0,1,1.71,4.7l-15.16,5.52A6,6,0,0,0,56,194.23L68,227.1a2.5,2.5,0,0,1-1.5,3.2A2.31,2.31,0,0,1,65.61,230.45Z"/><path class="cls-1" d="M379.23,144.15a8.29,8.29,0,0,1-8.28-8.28V125.3a10.82,10.82,0,0,0-10.81-10.81H349.57a8.29,8.29,0,0,1,0-16.57h10.57A10.82,10.82,0,0,0,371,87.11V76.54a8.28,8.28,0,1,1,16.56,0v6.14a2.5,2.5,0,0,1-5,0V76.54a3.28,3.28,0,1,0-6.56,0V87.11a15.82,15.82,0,0,1-15.81,15.81H349.57a3.29,3.29,0,0,0,0,6.57h10.57A15.82,15.82,0,0,1,376,125.3v10.57a3.28,3.28,0,1,0,6.56,0V125.3a15.82,15.82,0,0,1,15.81-15.81h10.57a3.29,3.29,0,0,0,0-6.57H398.32a16,16,0,0,1-7.21-1.73,2.5,2.5,0,1,1,2.29-4.45,10.62,10.62,0,0,0,4.92,1.18h10.57a8.29,8.29,0,0,1,0,16.57H398.32a10.82,10.82,0,0,0-10.81,10.81v10.57A8.29,8.29,0,0,1,379.23,144.15Z"/><path class="cls-1" d="M75.1,382.27A8.29,8.29,0,0,1,66.82,374V363.42A10.82,10.82,0,0,0,56,352.61H45.44a8.28,8.28,0,0,1,0-16.56H56a10.82,10.82,0,0,0,10.81-10.81V314.67a8.28,8.28,0,1,1,16.56,0v10.57A10.83,10.83,0,0,0,94.2,336.05h10.57a8.28,8.28,0,0,1,0,16.56H94.2a10.83,10.83,0,0,0-10.82,10.81V374A8.28,8.28,0,0,1,75.1,382.27ZM45.44,341.05a3.28,3.28,0,0,0,0,6.56H56a15.82,15.82,0,0,1,15.81,15.81V374a3.28,3.28,0,0,0,6.56,0V363.42A15.83,15.83,0,0,1,94.2,347.61h10.57a3.28,3.28,0,0,0,0-6.56H94.2a15.84,15.84,0,0,1-15.82-15.81V314.67a3.28,3.28,0,1,0-6.56,0v10.57A15.83,15.83,0,0,1,56,341.05Z"/><path class="cls-1" d="M303.1,462.25a7,7,0,0,1-7-6.94v-8.13a7.74,7.74,0,0,0-7.73-7.73h-8.13a6.95,6.95,0,0,1,0-13.89h8.13a7.68,7.68,0,0,0,2.48-.41,2.5,2.5,0,0,1,1.61,4.74,12.89,12.89,0,0,1-4.09.67h-8.13a1.95,1.95,0,0,0,0,3.89h8.13a12.74,12.74,0,0,1,12.73,12.73v8.13a1.95,1.95,0,0,0,3.89,0v-8.13a12.74,12.74,0,0,1,12.73-12.73h8.13a1.95,1.95,0,0,0,0-3.89h-8.13A12.74,12.74,0,0,1,305,417.83V409.7a1.95,1.95,0,0,0-3.89,0v4.74a2.5,2.5,0,0,1-5,0V409.7a6.95,6.95,0,0,1,13.89,0v8.13a7.74,7.74,0,0,0,7.73,7.73h8.13a6.95,6.95,0,0,1,0,13.89h-8.13a7.74,7.74,0,0,0-7.73,7.73v8.13A7,7,0,0,1,303.1,462.25Z"/></g></svg>