<svg xmlns="http://www.w3.org/2000/svg" viewBox="0 0 512 512"><defs><style>.cls-1{fill:#211915;}</style></defs><title>50-Computer-hardware-Line-Icons</title><g id="_14" data-name="14"><path class="cls-1" d="M256,463.89a7.51,7.51,0,0,1-7.5-7.5V359.31a2.5,2.5,0,1,1,5,0v97.08a2.5,2.5,0,0,0,5,0V359.31a2.5,2.5,0,1,1,5,0v97.08A7.51,7.51,0,0,1,256,463.89Z"/><path class="cls-1" d="M298.24,361.81H213.76a49.29,49.29,0,0,1-49.24-49.23V239.37a2.5,2.5,0,0,1,5,0v73.21a44.29,44.29,0,0,0,44.24,44.23h84.48a44.29,44.29,0,0,0,44.24-44.23V239.37a2.5,2.5,0,0,1,5,0v73.21A49.29,49.29,0,0,1,298.24,361.81Z"/><path class="cls-1" d="M312.4,304H199.6a10.31,10.31,0,1,1,0-20.61,2.5,2.5,0,0,1,0,5,5.31,5.31,0,1,0,0,10.61H312.4a5.31,5.31,0,1,0,0-10.61H241a2.5,2.5,0,0,1,0-5h71.4a10.31,10.31,0,1,1,0,20.61Z"/><path class="cls-1" d="M312.4,280.62H199.6a10.31,10.31,0,1,1,0-20.61,2.5,2.5,0,1,1,0,5,5.31,5.31,0,1,0,0,10.61H312.4a5.31,5.31,0,1,0,0-10.61H231a2.5,2.5,0,0,1,0-5h81.4a10.31,10.31,0,1,1,0,20.61Z"/><path class="cls-1" d="M312.4,327.44H199.6a10.31,10.31,0,1,1,0-20.61,2.5,2.5,0,0,1,0,5,5.31,5.31,0,1,0,0,10.61H312.4a5.31,5.31,0,1,0,0-10.61H251a2.5,2.5,0,1,1,0-5h61.4a10.31,10.31,0,1,1,0,20.61Z"/><path class="cls-1" d="M390.66,241.87H121.34A22.37,22.37,0,0,1,99,219.52V196.2a22.37,22.37,0,0,1,22.35-22.35H354a2.5,2.5,0,0,1,0,5H121.34A17.37,17.37,0,0,0,104,196.2v23.32a17.37,17.37,0,0,0,17.35,17.35H390.66A17.37,17.37,0,0,0,408,219.52V196.2a17.2,17.2,0,0,0-5.08-12.26,2.5,2.5,0,0,1,3.54-3.54A22.19,22.19,0,0,1,413,196.2v23.32A22.37,22.37,0,0,1,390.66,241.87Z"/><path class="cls-1" d="M387.22,301.84H363.8a2.5,2.5,0,0,1-2.49-2.34l-3.9-60a2.5,2.5,0,0,1,2.33-2.66,2.52,2.52,0,0,1,2.66,2.34l3.75,57.63h18.72l3.75-57.63a2.5,2.5,0,1,1,5,.32l-3.9,60A2.5,2.5,0,0,1,387.22,301.84Z"/><path class="cls-1" d="M122,258.5a2.5,2.5,0,0,1-2.49-2.34l-1.08-16.63a2.5,2.5,0,0,1,2.33-2.66,2.52,2.52,0,0,1,2.66,2.34l1.08,16.63a2.5,2.5,0,0,1-2.33,2.65Z"/><path class="cls-1" d="M148.2,301.84H124.78a2.5,2.5,0,0,1-2.49-2.34l-.68-10.43a2.5,2.5,0,0,1,5-.33l.53,8.1h18.72l3.75-57.63a2.5,2.5,0,1,1,5,.32l-3.9,60A2.5,2.5,0,0,1,148.2,301.84Z"/><path class="cls-1" d="M320.21,178.85a2.5,2.5,0,0,1-2.5-2.5V115.66a20,20,0,0,0-20-20H236.22a2.5,2.5,0,0,1,0-5h61.53a25,25,0,0,1,25,25v60.69A2.5,2.5,0,0,1,320.21,178.85Z"/><path class="cls-1" d="M191.79,178.85a2.5,2.5,0,0,1-2.5-2.5V115.66A24.86,24.86,0,0,1,196,98.6a2.5,2.5,0,1,1,3.64,3.42,19.92,19.92,0,0,0-5.39,13.64v60.69A2.5,2.5,0,0,1,191.79,178.85Z"/></g></svg>