<svg xmlns="http://www.w3.org/2000/svg" viewBox="0 0 512 512"><defs><style>.cls-1{fill:#211915;}</style></defs><title>50-Computer-hardware-Line-Icons</title><g id="_02" data-name="02"><path class="cls-1" d="M358,211.24a2.5,2.5,0,0,1-1.77-4.27l3.1-3.09a5.54,5.54,0,0,0,0-7.83l-15.78-15.77a5.53,5.53,0,0,0-7.82,0l-3.1,3.1a2.5,2.5,0,0,1-3.53-3.54l3.1-3.09a10.51,10.51,0,0,1,14.89,0l15.77,15.77a10.51,10.51,0,0,1,0,14.89l-3.1,3.1A2.45,2.45,0,0,1,358,211.24Z"/><path class="cls-1" d="M356.72,192.44a2.46,2.46,0,0,1-1.76-.74,2.49,2.49,0,0,1,0-3.53l10.75-10.76a41.42,41.42,0,0,0,0-58.52L312.23,65.41a41.43,41.43,0,0,0-58.52,0L228.57,90.55A2.5,2.5,0,0,1,225,87l25.15-25.15a46.43,46.43,0,0,1,65.58,0l53.49,53.49a46.44,46.44,0,0,1,0,65.59L358.49,191.7A2.5,2.5,0,0,1,356.72,192.44Z"/><path class="cls-1" d="M44.32,285.83A7.5,7.5,0,0,1,39,273L180.63,131.42a2.5,2.5,0,0,1,3.54,3.53L42.55,276.57a2.5,2.5,0,1,0,3.54,3.53L257.25,69a36.41,36.41,0,0,1,51.44,0l53.49,53.48a36.42,36.42,0,0,1,0,51.45l-10.76,10.75a2.5,2.5,0,1,1-3.54-3.53l10.76-10.76a31.41,31.41,0,0,0,0-44.38L305.16,72.48a31.43,31.43,0,0,0-44.38,0L49.62,283.64A7.47,7.47,0,0,1,44.32,285.83Z"/><path class="cls-1" d="M210.08,418.11a88.77,88.77,0,0,1-62.6-151.52l86.68-86.68a2.5,2.5,0,0,1,3.54,3.54L151,270.12A83.76,83.76,0,0,0,220.7,412.45a2.5,2.5,0,0,1,.62,5A90.69,90.69,0,0,1,210.08,418.11Z"/><path class="cls-1" d="M271.23,392.84a2.51,2.51,0,0,1-1.77-4.27L372.72,285.31a41.27,41.27,0,0,0,0-58.29l-60.15-60.15A41.13,41.13,0,0,0,271,156.69a2.5,2.5,0,0,1-1.49-4.77,46.1,46.1,0,0,1,46.55,11.41l60.16,60.16a46.27,46.27,0,0,1,0,65.36L273,392.1A2.5,2.5,0,0,1,271.23,392.84Z"/><path class="cls-1" d="M270.29,315.51a2.4,2.4,0,0,1-1.06-.24l-29.74-14a2.46,2.46,0,0,1-1.2-1.2l-39-83a2.5,2.5,0,1,1,4.52-2.13l38.61,82.18,28.93,13.59a2.5,2.5,0,0,1-1.07,4.76Z"/><path class="cls-1" d="M323.54,340.53a2.52,2.52,0,0,1-1.06-.24l-22.37-10.51a2.5,2.5,0,0,1,2.13-4.53l22.37,10.51a2.5,2.5,0,0,1-1.07,4.77Z"/><path class="cls-1" d="M245.36,303.8a2.51,2.51,0,0,1-1.77-4.27l24.94-24.94a2.5,2.5,0,0,1,3.53,3.54l-24.93,24.93A2.5,2.5,0,0,1,245.36,303.8Z"/><path class="cls-1" d="M238.29,296.73a2.51,2.51,0,0,1-1.77-4.27l24.94-24.94a2.5,2.5,0,1,1,3.53,3.54L240.06,296A2.5,2.5,0,0,1,238.29,296.73Z"/><path class="cls-1" d="M314.67,220.35a2.5,2.5,0,0,1-1.77-4.27l26.21-26.21a2.5,2.5,0,1,1,3.53,3.54l-26.21,26.21A2.45,2.45,0,0,1,314.67,220.35Z"/><path class="cls-1" d="M321.74,227.42a2.5,2.5,0,0,1-1.77-4.27l26.21-26.21a2.5,2.5,0,1,1,3.53,3.54L323.5,226.69A2.45,2.45,0,0,1,321.74,227.42Z"/><path class="cls-1" d="M280.33,283.37a15.78,15.78,0,0,1-11.19-4.63l-8.29-8.29a15.84,15.84,0,0,1,0-22.38l7.68-7.68a2.5,2.5,0,0,1,3.53,3.54l-7.68,7.68a10.83,10.83,0,0,0,0,15.3l8.29,8.29a10.84,10.84,0,0,0,15.31,0l32.6-32.6a10.82,10.82,0,0,0,0-15.3L312.29,219A10.84,10.84,0,0,0,297,219a2.5,2.5,0,0,1-3.53-3.54,15.83,15.83,0,0,1,22.37,0l8.29,8.29a15.81,15.81,0,0,1,0,22.38l-32.6,32.6A15.77,15.77,0,0,1,280.33,283.37Z"/></g></svg>