<svg xmlns="http://www.w3.org/2000/svg" viewBox="0 0 512 512"><defs><style>.cls-1{fill:#211915;}</style></defs><title>50-Computer-hardware-Line-Icons</title><g id="_30" data-name="30"><path class="cls-1" d="M391.47,410.8H120.53a19.35,19.35,0,0,1-19.33-19.33V359.84a2.5,2.5,0,0,1,5,0v31.63a14.35,14.35,0,0,0,14.33,14.33H391.47a14.35,14.35,0,0,0,14.33-14.33v-216a26.91,26.91,0,0,0-7.94-19.16l-42.14-42.14a26.91,26.91,0,0,0-19.16-7.94H238.85a2.5,2.5,0,0,1,0-5h97.71a31.92,31.92,0,0,1,22.7,9.4l42.14,42.14a31.92,31.92,0,0,1,9.4,22.7v216A19.35,19.35,0,0,1,391.47,410.8Zm6.83-25.92h-20a2.5,2.5,0,0,1-2.5-2.5v-20a2.49,2.49,0,0,1,2.5-2.5h20a2.49,2.49,0,0,1,2.5,2.5v20A2.5,2.5,0,0,1,398.3,384.88Zm-17.5-5h15v-15h-15ZM103.7,272.34a2.5,2.5,0,0,1-2.5-2.5V120.53a19.35,19.35,0,0,1,19.33-19.33h44.09a2.5,2.5,0,0,1,0,5H120.53a14.35,14.35,0,0,0-14.33,14.33V269.84A2.5,2.5,0,0,1,103.7,272.34Z"/><path class="cls-1" d="M368.3,410.8a2.5,2.5,0,0,1-2.5-2.5v-175a9.22,9.22,0,0,0-9.21-9.2H155.41a9.22,9.22,0,0,0-9.21,9.2v175a2.5,2.5,0,0,1-5,0v-175a14.22,14.22,0,0,1,14.21-14.2H356.59a14.22,14.22,0,0,1,14.21,14.2v175A2.5,2.5,0,0,1,368.3,410.8Z"/><path class="cls-1" d="M368.3,272.34H143.7a2.5,2.5,0,0,1,0-5H368.3a2.5,2.5,0,0,1,0,5Z"/><path class="cls-1" d="M355.32,302.34H156.68a7.5,7.5,0,0,1,0-15h16.68a2.5,2.5,0,0,1,0,5H156.68a2.5,2.5,0,0,0,0,5H355.32a2.5,2.5,0,0,0,0-5h-126a2.5,2.5,0,0,1,0-5h126a7.5,7.5,0,0,1,0,15Z"/><path class="cls-1" d="M355.32,332.34H156.68a7.5,7.5,0,0,1,0-15H195.1a2.5,2.5,0,0,1,0,5H156.68a2.5,2.5,0,0,0,0,5H355.32a2.5,2.5,0,0,0,0-5H248.23a2.5,2.5,0,1,1,0-5H355.32a7.5,7.5,0,0,1,0,15Z"/><path class="cls-1" d="M355.32,362.34H156.68a7.5,7.5,0,0,1,0-15H217.8a2.5,2.5,0,0,1,0,5H156.68a2.5,2.5,0,0,0,0,5H355.32a2.5,2.5,0,0,0,0-5H279.64a2.5,2.5,0,0,1,0-5h75.68a7.5,7.5,0,0,1,0,15Z"/><path class="cls-1" d="M355.32,392.34H156.68a7.5,7.5,0,0,1,0-15h87.2a2.5,2.5,0,1,1,0,5h-87.2a2.5,2.5,0,0,0,0,5H355.32a2.5,2.5,0,0,0,0-5H304.74a2.5,2.5,0,0,1,0-5h50.58a7.5,7.5,0,0,1,0,15Z"/><path class="cls-1" d="M305.69,184.3H152.91a11.72,11.72,0,0,1-11.71-11.7V103.7a2.5,2.5,0,1,1,5,0v68.9a6.72,6.72,0,0,0,6.71,6.7H305.69a6.72,6.72,0,0,0,6.71-6.7V103.7a2.5,2.5,0,1,1,5,0v68.9A11.72,11.72,0,0,1,305.69,184.3Z"/><path class="cls-1" d="M289.64,174.3h-20a2.5,2.5,0,0,1-2.5-2.5V113.7a2.5,2.5,0,0,1,2.5-2.5h20a2.5,2.5,0,0,1,2.5,2.5v11.06a2.5,2.5,0,0,1-5,0V116.2h-15v53.1h15V154.56a2.5,2.5,0,0,1,5,0V171.8A2.5,2.5,0,0,1,289.64,174.3Z"/></g></svg>