<svg xmlns="http://www.w3.org/2000/svg" viewBox="0 0 512 512"><defs><style>.cls-1{fill:#211915;}</style></defs><title>50-Computer-hardware-Line-Icons</title><g id="_24" data-name="24"><path class="cls-1" d="M436.15,380.09h-56.8a2.5,2.5,0,0,1,0-5h56.8a19.7,19.7,0,0,0,19.68-19.68V156.59a19.7,19.7,0,0,0-19.68-19.68H239a2.5,2.5,0,0,1,0-5H436.15a24.71,24.71,0,0,1,24.68,24.68V355.41A24.71,24.71,0,0,1,436.15,380.09Z"/><path class="cls-1" d="M302.55,380.09H125.85a24.71,24.71,0,0,1-24.68-24.68V156.59a24.71,24.71,0,0,1,24.68-24.68H143a2.5,2.5,0,0,1,0,5H125.85a19.7,19.7,0,0,0-19.68,19.68V355.41a19.7,19.7,0,0,0,19.68,19.68h176.7a2.5,2.5,0,0,1,0,5Z"/><path class="cls-1" d="M432.67,360.09H188a8.17,8.17,0,0,1-8.17-8.17V160.08a8.17,8.17,0,0,1,8.17-8.17H432.67a8.17,8.17,0,0,1,8.16,8.17v27.37a2.5,2.5,0,0,1-5,0V160.08a3.17,3.17,0,0,0-3.16-3.17H188a3.17,3.17,0,0,0-3.17,3.17V351.92a3.17,3.17,0,0,0,3.17,3.17H432.67a3.17,3.17,0,0,0,3.16-3.17V251a2.5,2.5,0,1,1,5,0V351.92A8.17,8.17,0,0,1,432.67,360.09Z"/><path class="cls-1" d="M158.6,357.05H127.41A5.46,5.46,0,0,1,122,351.6v-4.11a5.45,5.45,0,0,1,5.45-5.44H158.6a5.45,5.45,0,0,1,5.45,5.44v4.11A5.46,5.46,0,0,1,158.6,357.05Zm-31.19-10a.45.45,0,0,0-.45.44v4.11a.45.45,0,0,0,.45.45H158.6a.45.45,0,0,0,.45-.45v-4.11a.45.45,0,0,0-.45-.44Z"/><path class="cls-1" d="M158.6,337.05H127.41A5.46,5.46,0,0,1,122,331.6v-4.11a5.45,5.45,0,0,1,5.45-5.44H158.6a5.45,5.45,0,0,1,5.45,5.44v4.11A5.46,5.46,0,0,1,158.6,337.05Zm-31.19-10a.45.45,0,0,0-.45.44v4.11a.45.45,0,0,0,.45.45H158.6a.45.45,0,0,0,.45-.45v-4.11a.45.45,0,0,0-.45-.44Z"/><path class="cls-1" d="M158.6,317.05H127.41A5.46,5.46,0,0,1,122,311.6v-4.11a5.45,5.45,0,0,1,5.45-5.44H158.6a5.45,5.45,0,0,1,5.45,5.44v4.11A5.46,5.46,0,0,1,158.6,317.05Zm-31.19-10a.45.45,0,0,0-.45.44v4.11a.45.45,0,0,0,.45.45H158.6a.45.45,0,0,0,.45-.45v-4.11a.45.45,0,0,0-.45-.44Z"/><path class="cls-1" d="M143,287.05A31.05,31.05,0,1,1,174.05,256a2.5,2.5,0,0,1-5,0A26,26,0,1,0,143,282.05a2.5,2.5,0,0,1,0,5Z"/><path class="cls-1" d="M143,277.05A21.07,21.07,0,0,1,122,256a2.5,2.5,0,0,1,5,0A16,16,0,1,0,143,240a2.5,2.5,0,0,1,0-5,21.05,21.05,0,0,1,0,42.1Z"/><path class="cls-1" d="M158.6,210H127.41a5.45,5.45,0,0,1-5.45-5.44V200.4a5.46,5.46,0,0,1,5.45-5.45H158.6a5.46,5.46,0,0,1,5.45,5.45v4.11A5.45,5.45,0,0,1,158.6,210Zm-31.19-10a.45.45,0,0,0-.45.45v4.11a.45.45,0,0,0,.45.44H158.6a.45.45,0,0,0,.45-.44V200.4a.45.45,0,0,0-.45-.45Z"/><path class="cls-1" d="M158.6,190H127.41a5.45,5.45,0,0,1-5.45-5.44V180.4a5.46,5.46,0,0,1,5.45-5.45H158.6a5.46,5.46,0,0,1,5.45,5.45v4.11A5.45,5.45,0,0,1,158.6,190Zm-31.19-10a.45.45,0,0,0-.45.45v4.11a.45.45,0,0,0,.45.44H158.6a.45.45,0,0,0,.45-.44V180.4a.45.45,0,0,0-.45-.45Z"/><path class="cls-1" d="M158.6,170H127.41a5.45,5.45,0,0,1-5.45-5.44V160.4a5.46,5.46,0,0,1,5.45-5.45H158.6a5.46,5.46,0,0,1,5.45,5.45v4.11A5.45,5.45,0,0,1,158.6,170Zm-31.19-10a.45.45,0,0,0-.45.45v4.11a.45.45,0,0,0,.45.44H158.6a.45.45,0,0,0,.45-.44V160.4a.45.45,0,0,0-.45-.45Z"/><path class="cls-1" d="M103.67,302.48h-8a14.56,14.56,0,0,1-14.54-14.55V224.07a14.56,14.56,0,0,1,14.54-14.55h8a2.5,2.5,0,0,1,0,5h-8a9.55,9.55,0,0,0-9.54,9.55v63.86a9.55,9.55,0,0,0,9.54,9.55h8a2.5,2.5,0,1,1,0,5Z"/><path class="cls-1" d="M83.67,263.5H30.81a7.5,7.5,0,0,1,0-15H83.67a2.5,2.5,0,1,1,0,5H30.81a2.5,2.5,0,0,0,0,5H83.67a2.5,2.5,0,1,1,0,5Z"/></g></svg>