<svg xmlns="http://www.w3.org/2000/svg" viewBox="0 0 512 512"><defs><style>.cls-1{fill:#211915;}</style></defs><title>50-Computer-hardware-Line-Icons</title><g id="_04" data-name="04"><path class="cls-1" d="M281,356.19H231a2.5,2.5,0,0,1-2.5-2.5V314.57a2.5,2.5,0,1,1,5,0v36.62h45V314.57a2.5,2.5,0,1,1,5,0v39.12A2.5,2.5,0,0,1,281,356.19Z"/><path class="cls-1" d="M307.12,447a2.5,2.5,0,0,1,0-5,24.52,24.52,0,0,0,24.49-24.49V380.67a24.51,24.51,0,0,0-24.49-24.48H204.88a24.51,24.51,0,0,0-24.49,24.48v36.88A24.52,24.52,0,0,0,204.88,442h48.37a2.5,2.5,0,0,1,0,5H204.88a29.52,29.52,0,0,1-29.49-29.49V380.67a29.52,29.52,0,0,1,29.49-29.48H307.12a29.52,29.52,0,0,1,29.49,29.48v36.88A29.52,29.52,0,0,1,307.12,447Z"/><path class="cls-1" d="M308.37,386.19H203.63a7.5,7.5,0,1,1,0-15h8.5a2.5,2.5,0,0,1,0,5h-8.5a2.5,2.5,0,1,0,0,5H308.37a2.5,2.5,0,0,0,0-5H246.55a2.5,2.5,0,0,1,0-5h61.82a7.5,7.5,0,0,1,0,15Z"/><path class="cls-1" d="M308.37,406.19H203.63a7.5,7.5,0,1,1,0-15h22.83a2.5,2.5,0,0,1,0,5H203.63a2.5,2.5,0,1,0,0,5H308.37a2.5,2.5,0,0,0,0-5H261.91a2.5,2.5,0,0,1,0-5h46.46a7.5,7.5,0,0,1,0,15Z"/><path class="cls-1" d="M308.37,426.19H203.63a7.5,7.5,0,1,1,0-15h41.54a2.5,2.5,0,1,1,0,5H203.63a2.5,2.5,0,1,0,0,5H308.37a2.5,2.5,0,0,0,0-5H277.5a2.5,2.5,0,0,1,0-5h30.87a7.5,7.5,0,0,1,0,15Z"/><path class="cls-1" d="M256,319.52c-71.74,0-130.11-58.37-130.11-130.11A131.08,131.08,0,0,1,128.38,164a2.5,2.5,0,1,1,4.9,1,126.64,126.64,0,0,0-2.39,24.47,125.14,125.14,0,0,0,186.49,109,2.5,2.5,0,1,1,2.46,4.36A130.21,130.21,0,0,1,256,319.52Z"/><path class="cls-1" d="M365.83,256.92a2.56,2.56,0,0,1-1.27-.35,2.51,2.51,0,0,1-.88-3.43A125.12,125.12,0,0,0,161,108a2.5,2.5,0,0,1-3.8-3.25A130,130,0,0,1,256,59.3c71.74,0,130.11,58.37,130.11,130.11A130,130,0,0,1,368,255.69,2.51,2.51,0,0,1,365.83,256.92Z"/><path class="cls-1" d="M295.17,128a2.54,2.54,0,0,1-1.1-.26,2.5,2.5,0,0,1-1.13-3.36l23.43-47.25a2.5,2.5,0,1,1,4.48,2.22l-23.43,47.26A2.52,2.52,0,0,1,295.17,128Z"/><path class="cls-1" d="M216.83,128a2.52,2.52,0,0,1-2.25-1.39L191.15,79.3a2.5,2.5,0,0,1,4.48-2.22l23.43,47.26a2.5,2.5,0,0,1-1.13,3.35A2.54,2.54,0,0,1,216.83,128Z"/><path class="cls-1" d="M256,266.91a77.5,77.5,0,1,1,77.5-77.5A77.59,77.59,0,0,1,256,266.91Zm0-150a72.5,72.5,0,1,0,72.5,72.5A72.58,72.58,0,0,0,256,116.91Z"/><path class="cls-1" d="M256,256.91a67.44,67.44,0,1,1,62.44-41.81,2.5,2.5,0,0,1-4.62-1.91A62.45,62.45,0,1,0,280,247.12a2.5,2.5,0,1,1,1.92,4.61A66.94,66.94,0,0,1,256,256.91Z"/><path class="cls-1" d="M277.32,202.71a28.51,28.51,0,0,1-28.47-28.48,2.5,2.5,0,0,1,5,0,23.43,23.43,0,1,0,14.33-21.63,2.5,2.5,0,1,1-1.94-4.6,28.2,28.2,0,0,1,11.08-2.24,28.48,28.48,0,0,1,0,57Z"/><path class="cls-1" d="M333.58,146.07a21.1,21.1,0,1,1,21.1-21.1A21.13,21.13,0,0,1,333.58,146.07Zm0-37.2a16.1,16.1,0,1,0,16.1,16.1A16.12,16.12,0,0,0,333.58,108.87Z"/></g></svg>