<svg xmlns="http://www.w3.org/2000/svg" viewBox="0 0 512 512"><defs><style>.cls-1{fill:#211915;}</style></defs><title>50-Computer-hardware-Line-Icons</title><g id="_32" data-name="32"><path class="cls-1" d="M407.72,253.5H162.66a2.5,2.5,0,0,1-1.77-4.27l53.46-53.45a24.63,24.63,0,0,1,17.54-7.27h26.84a2.5,2.5,0,0,1,0,5H231.89a19.67,19.67,0,0,0-14,5.8L168.7,248.5h239a2.5,2.5,0,0,1,0,5Z"/><path class="cls-1" d="M308,323.49H281.88a24.61,24.61,0,0,1-17.54-7.27l-53.46-53.45a2.5,2.5,0,0,1,1.77-4.27H407.72a2.5,2.5,0,0,1,0,5h-189l49.19,49.19a19.67,19.67,0,0,0,14,5.8H308a2.5,2.5,0,0,1,0,5Z"/><path class="cls-1" d="M308,333.49h-27.6a31.14,31.14,0,0,1-22.14-9.17L197.47,263.5H108.05a2.5,2.5,0,0,1,0-5h90.46a2.51,2.51,0,0,1,1.77.73l61.55,61.56a26.16,26.16,0,0,0,18.6,7.7H308a2.5,2.5,0,0,1,0,5Z"/><path class="cls-1" d="M148.52,253.5H108.05a2.5,2.5,0,0,1,0-5h39.43l60.82-60.82a31.14,31.14,0,0,1,22.14-9.17h28.91a2.5,2.5,0,0,1,0,5H230.44a26.16,26.16,0,0,0-18.6,7.7l-61.55,61.56A2.51,2.51,0,0,1,148.52,253.5Z"/><path class="cls-1" d="M68.37,298.5a42.52,42.52,0,0,1-37.72-62.11,2.5,2.5,0,0,1,4.44,2.31,37.51,37.51,0,1,0,33.28-20.2,2.5,2.5,0,0,1,0-5,42.5,42.5,0,0,1,0,85Z"/><path class="cls-1" d="M288.56,220.31a32.5,32.5,0,0,1,0-65,32.17,32.17,0,0,1,14.13,3.22,2.5,2.5,0,0,1-2.17,4.51,27.25,27.25,0,0,0-12-2.73,27.5,27.5,0,1,0,27.5,27.5,2.5,2.5,0,0,1,5,0A32.54,32.54,0,0,1,288.56,220.31Z"/><path class="cls-1" d="M361.61,358.49H314.45a8.93,8.93,0,0,1-8.92-8.92V302.41a8.93,8.93,0,0,1,8.92-8.92h47.16a8.93,8.93,0,0,1,8.92,8.92,2.5,2.5,0,1,1-5,0,3.93,3.93,0,0,0-3.92-3.92H314.45a3.93,3.93,0,0,0-3.92,3.92v47.16a3.93,3.93,0,0,0,3.92,3.92h47.16a3.93,3.93,0,0,0,3.92-3.92V333a2.5,2.5,0,0,1,5,0v16.56A8.93,8.93,0,0,1,361.61,358.49Z"/><path class="cls-1" d="M417.58,298.51a12.39,12.39,0,0,1-12.36-12.37V225.86a12.37,12.37,0,0,1,17.89-11.06l60.27,30.14a12.36,12.36,0,0,1,0,22.12,2.5,2.5,0,0,1-2.23-4.47,7.37,7.37,0,0,0,0-13.18l-60.27-30.13a7.36,7.36,0,0,0-10.66,6.58v60.28a7.36,7.36,0,0,0,10.66,6.58l19-9.48a2.5,2.5,0,1,1,2.24,4.47l-19,9.49A12.48,12.48,0,0,1,417.58,298.51Z"/></g></svg>