<svg xmlns="http://www.w3.org/2000/svg" viewBox="0 0 512 512"><defs><style>.cls-1{fill:#211915;}</style></defs><title>50-Computer-hardware-Line-Icons</title><g id="_26" data-name="26"><path class="cls-1" d="M200.45,430.43H166.76A19.44,19.44,0,0,1,147.35,411V309.35a2.5,2.5,0,0,1,5,0V411a14.43,14.43,0,0,0,14.41,14.41H198V338.52a77.37,77.37,0,0,1,22.82-55.09l27.66-27.66a2.5,2.5,0,0,1,3.53,3.54L224.3,287A72.45,72.45,0,0,0,203,338.52v89.41A2.5,2.5,0,0,1,200.45,430.43Z"/><path class="cls-1" d="M214.53,318.19a2.5,2.5,0,0,1-2.35-3.37,67.38,67.38,0,0,1,15.66-24.32l27.66-27.66a2.5,2.5,0,0,1,3.53,3.54L231.37,294a62.57,62.57,0,0,0-14.5,22.53A2.51,2.51,0,0,1,214.53,318.19Z"/><path class="cls-1" d="M256,486.89a7.5,7.5,0,0,1-7.5-7.5V454.84a14.42,14.42,0,0,0-14.41-14.41H166.76A29.45,29.45,0,0,1,137.35,411V309.35a2.5,2.5,0,0,1,5,0V411a24.44,24.44,0,0,0,24.41,24.41h67.33a19.43,19.43,0,0,1,19.41,19.41v24.55a2.5,2.5,0,0,0,5,0V454.84a24.44,24.44,0,0,0-24.41-24.41H210.45a2.5,2.5,0,0,1-2.5-2.5V374.5a2.5,2.5,0,0,1,5,0v50.93h21.14a29.44,29.44,0,0,1,29.41,29.41v24.55A7.5,7.5,0,0,1,256,486.89Z"/><path class="cls-1" d="M156.94,311.85H132.77a19.14,19.14,0,0,1-19.12-19.11V170.37a2.5,2.5,0,0,1,5,0V292.74a14.13,14.13,0,0,0,14.12,14.11h24.17a14.13,14.13,0,0,0,14.11-14.11V218a2.5,2.5,0,0,1,2.5-2.5H194.7a33.8,33.8,0,0,0,33.76-33.76V154.52a33.8,33.8,0,0,0-33.76-33.75H150.14a31.18,31.18,0,0,0-22.94,9.92,2.5,2.5,0,1,1-3.64-3.43,36.65,36.65,0,0,1,26.58-11.49H194.7a38.8,38.8,0,0,1,38.76,38.75v27.19a38.81,38.81,0,0,1-38.76,38.76H176.05v72.27A19.13,19.13,0,0,1,156.94,311.85Z"/><path class="cls-1" d="M173.55,271.85h-57.4a2.5,2.5,0,1,1,0-5h57.4a2.5,2.5,0,0,1,0,5Z"/><path class="cls-1" d="M173.55,251.85h-26.7a2.5,2.5,0,0,1,0-5h26.7a2.5,2.5,0,0,1,0,5Z"/><path class="cls-1" d="M128.43,251.85H116.15a2.5,2.5,0,0,1,0-5h12.28a2.5,2.5,0,0,1,0,5Z"/><path class="cls-1" d="M173.55,220.47a2.5,2.5,0,0,1-2.5-2.5v-99.7a2.5,2.5,0,1,1,5,0V218A2.5,2.5,0,0,1,173.55,220.47Z"/><path class="cls-1" d="M230.39,150.62H216.88a2.5,2.5,0,0,1,0-5h13.51a2.5,2.5,0,0,1,0,5Z"/><path class="cls-1" d="M231,160.62H196.09a7.5,7.5,0,1,1,0-15,2.5,2.5,0,1,1,0,5,2.51,2.51,0,0,0-2.5,2.5,2.5,2.5,0,0,0,2.5,2.5H231a2.5,2.5,0,1,1,0,5Z"/><path class="cls-1" d="M230.39,190.62h-34.3a7.5,7.5,0,1,1,0-15H231a2.5,2.5,0,1,1,0,5H196.09a2.51,2.51,0,0,0-2.5,2.5,2.5,2.5,0,0,0,2.5,2.5h34.3a2.5,2.5,0,0,1,0,5Z"/><path class="cls-1" d="M424.1,163.71a2.5,2.5,0,0,1-1.77-.74l-31.51-31.51a31.49,31.49,0,0,0-44.53,0l-21.91,21.92a2.5,2.5,0,0,1-3.54-3.54l21.91-21.91a36.48,36.48,0,0,1,51.6,0l31.51,31.51a2.49,2.49,0,0,1,0,3.53A2.46,2.46,0,0,1,424.1,163.71Z"/><path class="cls-1" d="M274,277a19,19,0,0,1-13.52-5.6L243.42,254.3a19.15,19.15,0,0,1,0-27l44.07-44.07a2.5,2.5,0,1,1,3.54,3.53L247,230.8a14.14,14.14,0,0,0,0,20L264,267.85a14.11,14.11,0,0,0,20,0L336.88,215a2.56,2.56,0,0,1,3.53,0l15,15a33.79,33.79,0,0,0,47.73,0l19.23-19.22a33.8,33.8,0,0,0,8.61-14.66,2.5,2.5,0,1,1,4.81,1.36,38.8,38.8,0,0,1-9.89,16.83l-19.22,19.23a38.8,38.8,0,0,1-54.81,0l-13.18-13.19-51.11,51.11A19,19,0,0,1,274,277Z"/><path class="cls-1" d="M316.45,241.44a2.49,2.49,0,0,1-1.77-.73L274.1,200.12a2.5,2.5,0,0,1,3.53-3.53l40.59,40.58a2.52,2.52,0,0,1,0,3.54A2.49,2.49,0,0,1,316.45,241.44Z"/><path class="cls-1" d="M275.86,229.14a2.49,2.49,0,0,1-1.76-.73L260,214.26a2.5,2.5,0,0,1,3.54-3.53l14.14,14.14a2.5,2.5,0,0,1,0,3.54A2.53,2.53,0,0,1,275.86,229.14Z"/><path class="cls-1" d="M302.31,255.58a2.49,2.49,0,0,1-1.77-.73L292,246.27a2.5,2.5,0,0,1,3.53-3.54l8.58,8.58a2.5,2.5,0,0,1,0,3.54A2.45,2.45,0,0,1,302.31,255.58Z"/><path class="cls-1" d="M338.64,219.25a2.51,2.51,0,0,1-1.77-4.27l70.5-70.5a2.5,2.5,0,0,1,3.54,3.54l-70.5,70.49A2.5,2.5,0,0,1,338.64,219.25Z"/><path class="cls-1" d="M421.56,217.52a2.49,2.49,0,0,1-1.77-.73l-24.66-24.66a7.5,7.5,0,1,1,10.61-10.6L430,205.78a2.5,2.5,0,1,1-3.53,3.54L402.2,185.06a2.55,2.55,0,0,0-3.53,0,2.5,2.5,0,0,0,0,3.54l24.65,24.65a2.5,2.5,0,0,1,0,3.54A2.45,2.45,0,0,1,421.56,217.52Z"/><path class="cls-1" d="M399.94,238.33a2.49,2.49,0,0,1-1.77-.73l-24.25-24.25a7.5,7.5,0,1,1,10.61-10.61l24.65,24.66a2.5,2.5,0,0,1-3.53,3.53L381,206.28a2.57,2.57,0,0,0-3.54,0,2.52,2.52,0,0,0-.73,1.77,2.49,2.49,0,0,0,.73,1.77l24.26,24.25a2.52,2.52,0,0,1,0,3.54A2.49,2.49,0,0,1,399.94,238.33Z"/></g></svg>