<svg xmlns="http://www.w3.org/2000/svg" viewBox="0 0 512 512"><defs><style>.cls-1{fill:#211915;}</style></defs><title>50-Computer-hardware-Line-Icons</title><g id="_28" data-name="28"><path class="cls-1" d="M256,435.88c-99.19,0-179.88-80.69-179.88-179.88a2.5,2.5,0,0,1,5,0c0,96.43,78.45,174.88,174.88,174.88a174.16,174.16,0,0,0,61.82-11.24,2.5,2.5,0,1,1,1.76,4.68A179.19,179.19,0,0,1,256,435.88Zm131.71-58.57a2.51,2.51,0,0,1-1.85-4.18,174.5,174.5,0,0,0,45-117.13c0-96.43-78.45-174.88-174.88-174.88a174.91,174.91,0,0,0-156,95.82,2.5,2.5,0,1,1-4.46-2.27A179.9,179.9,0,0,1,256,76.12c99.19,0,179.88,80.69,179.88,179.88a179.5,179.5,0,0,1-46.31,120.48A2.49,2.49,0,0,1,387.71,377.31ZM256,287.33A31.33,31.33,0,1,1,287.33,256,31.36,31.36,0,0,1,256,287.33Zm0-57.66A26.33,26.33,0,1,0,282.33,256,26.36,26.36,0,0,0,256,229.67Z"/><path class="cls-1" d="M281.4,434.05a2.5,2.5,0,0,1-2.47-2.14L262.51,318.42a2.5,2.5,0,1,1,4.95-.72l16.42,113.49a2.5,2.5,0,0,1-2.12,2.83A2.19,2.19,0,0,1,281.4,434.05Z"/><path class="cls-1" d="M230.6,434.05a2.19,2.19,0,0,1-.36,0,2.49,2.49,0,0,1-2.11-2.83L244.55,317.7a2.5,2.5,0,1,1,4.94.72L233.07,431.91A2.5,2.5,0,0,1,230.6,434.05Z"/><path class="cls-1" d="M170.13,413.74a2.5,2.5,0,0,1-2.19-3.71l55.51-100.37a2.5,2.5,0,1,1,4.38,2.42L172.32,412.45A2.49,2.49,0,0,1,170.13,413.74Z"/><path class="cls-1" d="M167.71,307.34a2.5,2.5,0,0,1-1.21-4.69l33.42-18.49a2.5,2.5,0,0,1,2.42,4.38L168.92,307A2.51,2.51,0,0,1,167.71,307.34Z"/><path class="cls-1" d="M100.77,344.38a2.5,2.5,0,0,1-1.21-4.69L123,326.75a2.5,2.5,0,1,1,2.42,4.37L102,344.07A2.51,2.51,0,0,1,100.77,344.38Z"/><path class="cls-1" d="M329.8,125.11a2.53,2.53,0,0,1-1.21-.31,2.5,2.5,0,0,1-1-3.4L339.7,99.56a2.5,2.5,0,0,1,4.38,2.42L332,123.82A2.49,2.49,0,0,1,329.8,125.11Z"/><path class="cls-1" d="M286.35,203.63a2.53,2.53,0,0,1-1.21-.31,2.5,2.5,0,0,1-1-3.4l17.15-31a2.5,2.5,0,1,1,4.37,2.42l-17.15,31A2.51,2.51,0,0,1,286.35,203.63Z"/><path class="cls-1" d="M310.87,228.14a2.5,2.5,0,0,1-1.21-4.69L410,167.94a2.5,2.5,0,0,1,2.42,4.38L312.08,227.83A2.51,2.51,0,0,1,310.87,228.14Z"/><path class="cls-1" d="M205.77,221a2.49,2.49,0,0,1-1.49-.49L112.4,151.82a2.5,2.5,0,0,1,3-4l91.87,68.64a2.5,2.5,0,0,1,.5,3.5A2.48,2.48,0,0,1,205.77,221Z"/><path class="cls-1" d="M218.48,208.26a2.48,2.48,0,0,1-2-1l-68.64-91.87a2.5,2.5,0,1,1,4-3l68.65,91.88a2.49,2.49,0,0,1-2,4Z"/><path class="cls-1" d="M256,321.2A65.2,65.2,0,1,1,321.2,256a2.5,2.5,0,0,1-5,0,60.22,60.22,0,1,0-13.89,38.47,2.5,2.5,0,0,1,3.84,3.2,65.55,65.55,0,0,1-13.69,12.39A64.86,64.86,0,0,1,256,321.2Zm0-33.87A31.33,31.33,0,1,1,287.33,256,31.36,31.36,0,0,1,256,287.33Zm0-57.66A26.33,26.33,0,1,0,282.33,256,26.36,26.36,0,0,0,256,229.67Z"/></g></svg>