<svg xmlns="http://www.w3.org/2000/svg" width="96" height="96" viewBox="0 0 96 96"><defs><style>.cls-1{fill:#e5eefd;}.cls-2{fill:#c3d4ef;}.cls-3{fill:#fff;}.cls-4{fill:#283d54;}</style></defs><title>22.Web Server and Database</title><g id="_22.Web_Server_and_Database" data-name="22.Web Server and Database"><path class="cls-1" d="M83,35V55a3,3,0,0,1-3,3H10a3,3,0,0,1-3-3V35a3,3,0,0,1,3-3H80A3,3,0,0,1,83,35Z"/><polygon class="cls-2" points="77 32 13 32 18 27 72 27 77 32"/><circle class="cls-3" cx="19" cy="45" r="6"/><circle class="cls-3" cx="37" cy="45" r="6"/><path class="cls-1" d="M83,66V86a3,3,0,0,1-3,3H10a3,3,0,0,1-3-3V66a3,3,0,0,1,3-3H80A3,3,0,0,1,83,66Z"/><polygon class="cls-1" points="77 63 13 63 18 58 72 58 77 63"/><polygon class="cls-1" points="78 95 12 95 18 89 72 89 78 95"/><polygon class="cls-2" points="72 58 18 58 16 60 74 60 72 58"/><polygon class="cls-2" points="72 89 18 89 16 91 74 91 72 89"/><circle class="cls-3" cx="37" cy="76" r="6"/><circle class="cls-3" cx="19" cy="76" r="6"/><g id="_Group_" data-name="&lt;Group&gt;"><path class="cls-2" d="M89,25v8c0,3.31-7.61,6-17,6s-17-2.69-17-6V25c0,3.31,7.61,6,17,6S89,28.31,89,25Z"/><path class="cls-1" d="M89,16v9c0,3.31-7.61,6-17,6s-17-2.69-17-6V16c0,3.31,7.61,6,17,6S89,19.31,89,16Z"/><path class="cls-2" d="M72,13c9.39,0,17-2.69,17-6v9c0,3.31-7.61,6-17,6s-17-2.69-17-6V7C55,10.31,62.61,13,72,13Z"/><ellipse class="cls-1" cx="72" cy="7" rx="17" ry="6"/><path class="cls-4" d="M83,42a1,1,0,0,0-1,1V55a2,2,0,0,1-2,2H10a2,2,0,0,1-2-2V35a2,2,0,0,1,2-2H49a1,1,0,0,0,0-2H15.414l3-3H47a1,1,0,0,0,0-2H18a1,1,0,0,0-.707.293L12.586,31H10a4,4,0,0,0-4,4V55a4,4,0,0,0,4,4h5.586l-3,3H10a4,4,0,0,0-4,4V86a4,4,0,0,0,4,4h5.586l-4,4H7a1,1,0,0,0,0,2H24a1,1,0,0,0,0-2H14.414l4-4H71.586l4,4H30a1,1,0,0,0,0,2H83a1,1,0,0,0,0-2H78.414l-4-4H80a4,4,0,0,0,4-4V66a4,4,0,0,0-4-4H77.414l-3-3H80a4,4,0,0,0,4-4V43A1,1,0,0,0,83,42ZM82,66V86a2,2,0,0,1-2,2H10a2,2,0,0,1-2-2V66a2,2,0,0,1,2-2H80A2,2,0,0,1,82,66Zm-7.414-4H15.414l3-3H71.586Z"/><path class="cls-4" d="M12,45a7,7,0,1,0,7-7A7.008,7.008,0,0,0,12,45Zm12,0a5,5,0,1,1-5-5A5.006,5.006,0,0,1,24,45Z"/><path class="cls-4" d="M19,69a7,7,0,1,0,7,7A7.008,7.008,0,0,0,19,69Zm0,12a5,5,0,1,1,5-5A5.006,5.006,0,0,1,19,81Z"/><path class="cls-4" d="M30,45a7,7,0,1,0,7-7A7.008,7.008,0,0,0,30,45Zm12,0a5,5,0,1,1-5-5A5.006,5.006,0,0,1,42,45Z"/><path class="cls-4" d="M37,69a7,7,0,1,0,7,7A7.008,7.008,0,0,0,37,69Zm0,12a5,5,0,1,1,5-5A5.006,5.006,0,0,1,37,81Z"/><path class="cls-4" d="M17,45a1,1,0,0,0,1,1h2a1,1,0,0,0,0-2H18A1,1,0,0,0,17,45Z"/><path class="cls-4" d="M20,75H18a1,1,0,0,0,0,2h2a1,1,0,0,0,0-2Z"/><path class="cls-4" d="M35,45a1,1,0,0,0,1,1h2a1,1,0,0,0,0-2H36A1,1,0,0,0,35,45Z"/><path class="cls-4" d="M38,75H36a1,1,0,0,0,0,2h2a1,1,0,0,0,0-2Z"/><path class="cls-4" d="M49,42v6a1,1,0,0,0,2,0V42a1,1,0,0,0-2,0Z"/><path class="cls-4" d="M57,48V46a1,1,0,0,0-2,0v2a1,1,0,0,0,2,0Z"/><path class="cls-4" d="M63,48V46a1,1,0,0,0-2,0v2a1,1,0,0,0,2,0Z"/><path class="cls-4" d="M69,48V46a1,1,0,0,0-2,0v2a1,1,0,0,0,2,0Z"/><path class="cls-4" d="M75,48V46a1,1,0,0,0-2,0v2a1,1,0,0,0,2,0Z"/><path class="cls-4" d="M50,72a1,1,0,0,0-1,1v6a1,1,0,0,0,2,0V73A1,1,0,0,0,50,72Z"/><path class="cls-4" d="M56,72a1,1,0,0,0-1,1v6a1,1,0,0,0,2,0V73A1,1,0,0,0,56,72Z"/><path class="cls-4" d="M62,72a1,1,0,0,0-1,1v6a1,1,0,0,0,2,0V73A1,1,0,0,0,62,72Z"/><path class="cls-4" d="M68,72a1,1,0,0,0-1,1v6a1,1,0,0,0,2,0V73A1,1,0,0,0,68,72Z"/><path class="cls-4" d="M74,72a1,1,0,0,0-1,1v6a1,1,0,0,0,2,0V73A1,1,0,0,0,74,72Z"/><path class="cls-4" d="M89,14a1,1,0,0,0-1,1V33c0,2.088-6.087,5-16,5s-16-2.912-16-5V10.324C59.19,12.726,65.727,14,72,14c8.726,0,18-2.453,18-7S80.726,0,72,0,54,2.453,54,7V33c0,4.547,9.274,7,18,7s18-2.453,18-7V15A1,1,0,0,0,89,14ZM72,2c9.913,0,16,2.912,16,5s-6.087,5-16,5S56,9.088,56,7,62.087,2,72,2Z"/><path class="cls-4" d="M84.494,27.992A34.9,34.9,0,0,1,72,30a34.288,34.288,0,0,1-12.725-2.1,1,1,0,1,0-.786,1.839A36.284,36.284,0,0,0,72,32a36.964,36.964,0,0,0,13.251-2.156,1,1,0,0,0-.757-1.852Z"/><path class="cls-4" d="M86.038,19.422a1,1,0,0,0-1.313-.526A34.288,34.288,0,0,1,72,21a34.9,34.9,0,0,1-12.5-2.01,1,1,0,0,0-.758,1.852A36.964,36.964,0,0,0,72,23a36.284,36.284,0,0,0,13.511-2.265A1,1,0,0,0,86.038,19.422Z"/></g></g></svg>