<svg xmlns="http://www.w3.org/2000/svg" viewBox="0 0 64 64"><defs><style>.cls-1{fill:#9196aa;}.cls-2{fill:#adb2c7;}.cls-3{fill:#bec3d2;}.cls-4{fill:#f6fafd;}.cls-5{fill:#7e8596;}.cls-6{fill:#fff;}</style></defs><title>45-C File</title><g id="_45-C_File" data-name="45-C File"><polygon class="cls-1" points="19 1 19 13 8 13 19 1"/><path class="cls-2" d="M56,3V61a2.006,2.006,0,0,1-2,2H10a2.006,2.006,0,0,1-2-2V13H19V1H54A2.006,2.006,0,0,1,56,3Z"/><path class="cls-3" d="M25.394,46c7.6,0,7.6,2,15.2,2s7.6-2,15.2-2c.073,0,.132,0,.2,0V3a2.006,2.006,0,0,0-2-2H19V13H8V47.93c.663.041,1.374.07,2.2.07C17.794,48,17.794,46,25.394,46Z"/><path class="cls-4" d="M26.394,10c7.6,0,7.6,2,15.2,2,7.318,0,7.611-1.849,14.405-1.987V3a2.006,2.006,0,0,0-2-2H19v9.946A25.445,25.445,0,0,1,26.394,10Z"/><path class="cls-5" d="M8,13H19V10.813c-3.122-.363-4.6-1.159-7.561-1.564Z"/><path d="M54,0H19a1,1,0,0,0-.737.324l-11,12A1,1,0,0,0,7,13V61a3,3,0,0,0,3,3H54a3,3,0,0,0,3-3V3A3,3,0,0,0,54,0ZM18,3.57V12H10.273ZM55,61a1,1,0,0,1-1,1H10a1,1,0,0,1-1-1V14H19a1,1,0,0,0,1-1V2H54a1,1,0,0,1,1,1Z"/><path d="M51,9a.812.812,0,0,1-.71-.291c-.61-.742-.472-2.688-.31-3.514A1,1,0,0,0,49,4H47V6h.865a5.865,5.865,0,0,0,.877,3.977A2.715,2.715,0,0,0,50,10.845v.31a2.715,2.715,0,0,0-1.258.868A5.865,5.865,0,0,0,47.865,16H47v2h2a1,1,0,0,0,.98-1.2c-.162-.826-.3-2.772.31-3.514A.812.812,0,0,1,51,13a1,1,0,0,0,1-1V10A1,1,0,0,0,51,9Z"/><path d="M14.228,44.366a1,1,0,0,0-.208.829c.162.826.3,2.772-.31,3.514A.812.812,0,0,1,13,49a1,1,0,0,0-1,1v2a1,1,0,0,0,1,1,.812.812,0,0,1,.71.291c.61.742.472,2.688.31,3.514A1,1,0,0,0,15,58h2V56h-.865a5.865,5.865,0,0,0-.877-3.977A2.715,2.715,0,0,0,14,51.155v-.31a2.715,2.715,0,0,0,1.258-.868A5.865,5.865,0,0,0,16.135,46H17V44H15A1,1,0,0,0,14.228,44.366Z"/><rect x="27" y="14" width="15" height="2"/><rect x="27" y="10" width="15" height="2"/><rect x="36" y="6" width="6" height="2"/><rect x="20" y="46" width="15" height="2"/><rect x="20" y="50" width="15" height="2"/><rect x="20" y="54" width="6" height="2"/><path class="cls-6" d="M22,24a3,3,0,0,1,3,3h2a5,5,0,0,0-10,0v8a5,5,0,0,0,10,0H25a3,3,0,0,1-6,0V27A3,3,0,0,1,22,24Z"/><polygon class="cls-6" points="34 27 32 27 32 30 29 30 29 32 32 32 32 35 34 35 34 32 37 32 37 30 34 30 34 27"/><polygon class="cls-6" points="48 30 45 30 45 27 43 27 43 30 40 30 40 32 43 32 43 35 45 35 45 32 48 32 48 30"/></g></svg>