<svg xmlns="http://www.w3.org/2000/svg" viewBox="0 0 64 64"><defs><style>.cls-1{fill:#dfe1ea;}.cls-2{fill:#8dd5f6;}.cls-3{fill:#0096cf;}.cls-4{fill:#aedff7;}.cls-5{fill:#f6fafd;}.cls-6{fill:#fff;}.cls-7{fill:#ff636e;}.cls-8{fill:#adb2c7;}.cls-9{fill:none;}</style></defs><title>13-Develop</title><g id="_13-Develop" data-name="13-Develop"><path class="cls-1" d="M54,4V60a3,3,0,0,1-3,3H17a3,3,0,0,1-3-3V4a3,3,0,0,1,3-3H51A3,3,0,0,1,54,4ZM50,58V7a.979.979,0,0,0-1-1H41s-1,2-2,2H29c-1,0-2-2-2-2H19a.979.979,0,0,0-1,1V58a.979.979,0,0,0,1,1H49A.979.979,0,0,0,50,58Z"/><path class="cls-2" d="M50,7V58a.979.979,0,0,1-1,1H19a.979.979,0,0,1-1-1V7a.979.979,0,0,1,1-1h8s1,2,2,2H39c1,0,2-2,2-2h8A.979.979,0,0,1,50,7Z"/><rect class="cls-3" x="42" y="43" width="8" height="3" rx="0.661" ry="0.661"/><path class="cls-3" d="M38,35l1-2-1-2-4.32-.58a10.8,10.8,0,0,0-1.3-3.15l2.64-3.46-.71-2.12-2.12-.71-3.46,2.64a10.8,10.8,0,0,0-3.15-1.3L25,18l-2-1-2,1-.58,4.32a10.8,10.8,0,0,0-3.15,1.3L14,21.125v23.75l3.27-2.495a10.8,10.8,0,0,0,3.15,1.3L21,48l2,1,2-1,.58-4.32a10.8,10.8,0,0,0,3.15-1.3l3.46,2.64,2.12-.71.71-2.12-2.64-3.46a10.8,10.8,0,0,0,1.3-3.15ZM23,39a6,6,0,1,1,6-6A6,6,0,0,1,23,39Z"/><path class="cls-4" d="M45.6,17c-7.6,0-7.6-2-15.2-2C23.872,15,22.935,16.47,18,16.888v7C22.935,23.47,23.872,22,30.394,22c7.6,0,7.6,2,15.2,2A28.636,28.636,0,0,0,50,23.7v-7A28.636,28.636,0,0,1,45.6,17Z"/><path class="cls-5" d="M18,7v9.888C22.935,16.47,23.872,15,30.394,15c7.6,0,7.6,2,15.2,2A28.636,28.636,0,0,0,50,16.7V7a.979.979,0,0,0-1-1H41s-1,2-2,2H29c-1,0-2-2-2-2H19A.979.979,0,0,0,18,7Z"/><rect class="cls-6" x="40" y="29" width="20" height="14"/><rect class="cls-7" x="40" y="21" width="20" height="8"/><rect class="cls-1" x="43" y="32" width="14" height="8"/><path class="cls-8" d="M35,30l1,2-1,2-4.32.58a10.8,10.8,0,0,1-1.3,3.15l2.64,3.46-.71,2.12-2.12.71-3.46-2.64a10.8,10.8,0,0,1-3.15,1.3L22,47l-2,1-2-1-.58-4.32a10.8,10.8,0,0,1-3.15-1.3l-3.46,2.64-2.12-.71-.71-2.12,2.64-3.46a10.8,10.8,0,0,1-1.3-3.15L5,34,4,32l1-2,4.32-.58a10.8,10.8,0,0,1,1.3-3.15L7.98,22.81l.71-2.12,2.12-.71,3.46,2.64a10.8,10.8,0,0,1,3.15-1.3L18,17l2-1,2,1,.58,4.32a10.8,10.8,0,0,1,3.15,1.3l3.46-2.64,2.12.71.71,2.12-2.64,3.46a10.8,10.8,0,0,1,1.3,3.15Zm-9,2a6,6,0,1,0-6,6A6,6,0,0,0,26,32Z"/><rect class="cls-6" x="43" y="24" width="2" height="2"/><rect class="cls-6" x="47" y="24" width="2" height="2"/><path d="M8.525,35.479a11.954,11.954,0,0,0,.9,2.174L7.185,40.585a1,1,0,0,0-.155.924l.708,2.121a1,1,0,0,0,.632.632l2.121.708a1,1,0,0,0,.924-.155l2.932-2.242a11.954,11.954,0,0,0,2.174.9l.488,3.657a1,1,0,0,0,.544.763l2,1a1,1,0,0,0,.894,0l2-1a1,1,0,0,0,.544-.763l.488-3.657a11.954,11.954,0,0,0,2.174-.9l2.932,2.242a1,1,0,0,0,.924.155l2.121-.708a1,1,0,0,0,.632-.632l.708-2.121a1,1,0,0,0-.155-.924l-2.242-2.932a11.954,11.954,0,0,0,.9-2.174l3.657-.488a1,1,0,0,0,.763-.544l1-2a1,1,0,0,0,0-.894l-1-2a1,1,0,0,0-.763-.544l-3.657-.488a11.954,11.954,0,0,0-.9-2.174l2.242-2.932a1,1,0,0,0,.155-.924l-.708-2.121a1,1,0,0,0-.632-.632l-2.121-.708a1,1,0,0,0-.924.155l-2.932,2.242a11.954,11.954,0,0,0-2.174-.9l-.488-3.657a1,1,0,0,0-.544-.763l-2-1a1,1,0,0,0-.894,0l-2,1a1,1,0,0,0-.544.763l-.488,3.657a11.954,11.954,0,0,0-2.174.9l-2.932-2.242a1,1,0,0,0-.924-.155l-2.121.708a1,1,0,0,0-.632.632L7.03,22.491a1,1,0,0,0,.155.924l2.242,2.932a11.954,11.954,0,0,0-.9,2.174l-3.657.488a1,1,0,0,0-.763.544l-1,2a1,1,0,0,0,0,.894l1,2a1,1,0,0,0,.763.544ZM5.657,30.921l3.791-.5a1,1,0,0,0,.84-.757,9.934,9.934,0,0,1,1.19-2.869,1,1,0,0,0-.059-1.13L9.1,22.621l.382-1.144,1.144-.382,3.039,2.324a1,1,0,0,0,1.13.059,9.934,9.934,0,0,1,2.869-1.19,1,1,0,0,0,.757-.84l.5-3.791L20,17.118l1.079.539.5,3.791a1,1,0,0,0,.757.84,9.934,9.934,0,0,1,2.869,1.19,1,1,0,0,0,1.13-.059L29.379,21.1l1.144.382.382,1.144L28.581,25.66a1,1,0,0,0-.059,1.13,9.934,9.934,0,0,1,1.19,2.869,1,1,0,0,0,.84.757l3.791.5L34.882,32l-.539,1.079-3.791.505a1,1,0,0,0-.84.757,9.934,9.934,0,0,1-1.19,2.869,1,1,0,0,0,.059,1.13l2.324,3.039-.382,1.144-1.144.382L26.34,40.581a1,1,0,0,0-1.13-.059,9.934,9.934,0,0,1-2.869,1.19,1,1,0,0,0-.757.84l-.5,3.791L20,46.882l-1.079-.539-.5-3.791a1,1,0,0,0-.757-.84,9.934,9.934,0,0,1-2.869-1.19,1,1,0,0,0-1.13.059l-3.039,2.324-1.144-.382L9.1,41.379l2.324-3.039a1,1,0,0,0,.059-1.13,9.934,9.934,0,0,1-1.19-2.869,1,1,0,0,0-.84-.757l-3.791-.505L5.118,32Z"/><path d="M20,39a7,7,0,1,0-7-7A7.008,7.008,0,0,0,20,39Zm0-12a5,5,0,1,1-5,5A5.006,5.006,0,0,1,20,27Z"/><path d="M8,17a1,1,0,0,0,.707-.293l3-3-1.414-1.414L9,13.586V2H7V13.586L5.707,12.293,4.293,13.707l3,3A1,1,0,0,0,8,17Z"/><path d="M7.293,47.293l-3,3,1.414,1.414L7,50.414V62H9V50.414l1.293,1.293,1.414-1.414-3-3A1,1,0,0,0,7.293,47.293Z"/><path d="M60,20H55V4a4,4,0,0,0-4-4H17a4,4,0,0,0-4,4V18h2V4a2,2,0,0,1,2-2H51a2,2,0,0,1,2,2V20H51V7a1.959,1.959,0,0,0-2-2H41a1,1,0,0,0-.894.551A4.184,4.184,0,0,1,39,7l-9.956,0a3.775,3.775,0,0,1-1.15-1.454A1,1,0,0,0,27,5H19a1.959,1.959,0,0,0-2,2v7h2V7h7.412C26.9,7.807,27.827,9,29,9H39c1.173,0,2.1-1.193,2.588-2H49V20H40a1,1,0,0,0-1,1V43a1,1,0,0,0,1,1h9V58H19V50H17v8a1.959,1.959,0,0,0,2,2H49a1.959,1.959,0,0,0,2-2V44h2V60a2,2,0,0,1-2,2H17a2,2,0,0,1-2-2V46H13V60a4,4,0,0,0,4,4H51a4,4,0,0,0,4-4V44h5a1,1,0,0,0,1-1V21A1,1,0,0,0,60,20Zm-1,2v6H41V22ZM41,42V30H59V42Z"/><path d="M47.293,32.293l-3,3a1,1,0,0,0,0,1.414l3,3,1.414-1.414L46.414,36l2.293-2.293Z"/><path d="M52.707,32.293l-1.414,1.414L53.586,36l-2.293,2.293,1.414,1.414,3-3a1,1,0,0,0,0-1.414Z"/><circle class="cls-9" cx="23" cy="33" r="6"/></g></svg>