<svg xmlns="http://www.w3.org/2000/svg" viewBox="0 0 64 64"><defs><style>.cls-1{fill:#ffc247;}.cls-2{fill:#dfe1ea;}.cls-3{fill:#adb2c7;}.cls-4{fill:#f6fafd;}.cls-5{fill:#ffa426;}.cls-6{fill:#bec3d2;}.cls-7{fill:#7e8596;}.cls-8{fill:#ffcdbe;}.cls-9{fill:#b46e5a;}.cls-10{fill:#ffbeaa;}.cls-11{fill:#f2f6fc;}.cls-12{fill:#915041;}.cls-13{fill:#fff;}</style></defs><title>77-Coding</title><g id="_77-Coding" data-name="77-Coding"><polygon class="cls-1" points="26 1 26 13 15 13 26 1"/><path class="cls-2" d="M63,3V61a2.006,2.006,0,0,1-2,2H17a2.006,2.006,0,0,1-2-2V13H26V1H61A2.006,2.006,0,0,1,63,3Z"/><path class="cls-3" d="M48.6,12c-7.6,0-7.6-2-15.2-2A25.445,25.445,0,0,0,26,10.946V13H15v5.85a31.65,31.65,0,0,0,3.2.15c7.6,0,7.6-2,15.2-2s7.6,2,15.2,2c7.318,0,7.611-1.849,14.405-1.987v-7C56.206,10.151,55.913,12,48.6,12Z"/><path class="cls-4" d="M33.394,10c7.6,0,7.6,2,15.2,2,7.318,0,7.611-1.849,14.405-1.987V3a2.006,2.006,0,0,0-2-2H26v9.946A25.445,25.445,0,0,1,33.394,10Z"/><path class="cls-5" d="M15,13H26V10.813c-3.122-.363-4.6-1.159-7.561-1.564Z"/><path class="cls-6" d="M27,41H22V38.33A6.592,6.592,0,0,0,24,37c2-2,2-3,2-3V32h1a2,2,0,0,0,0-4H26V25h3s-.016-4.822-3.3-6.974A25.547,25.547,0,0,1,18.2,19,31.65,31.65,0,0,1,15,18.85V37.794a7.458,7.458,0,0,0,1,.536V41H15V61a2.006,2.006,0,0,0,2,2H32V46C32,41,27,41,27,41Z"/><path class="cls-7" d="M18.2,19a25.547,25.547,0,0,0,7.5-.974A6.558,6.558,0,0,0,22,17H17a5.344,5.344,0,0,0-2,.489V18.85A31.65,31.65,0,0,0,18.2,19Z"/><path class="cls-8" d="M22,28a2,2,0,0,1,0,4H21V28Z"/><path class="cls-9" d="M7,29V23c0-6,5-6,5-6h5c7,0,7,8,7,8H13C13,28,7,29,7,29Z"/><path class="cls-8" d="M7,29v3H6a2,2,0,0,1,0-4H7Z"/><path class="cls-8" d="M11,38.33A6.592,6.592,0,0,1,9,37c-2-2-2-3-2-3V29s6-1,6-4h8v9s0,1-2,3a6.592,6.592,0,0,1-2,1.33A8.459,8.459,0,0,1,14,39,8.459,8.459,0,0,1,11,38.33Z"/><path class="cls-10" d="M17,41v1a3,3,0,0,1-6,0V38.33A8.459,8.459,0,0,0,14,39a8.459,8.459,0,0,0,3-.67Z"/><path class="cls-11" d="M14,45a2.938,2.938,0,0,0,3-3l3,3s-2,4-6,4Z"/><path class="cls-11" d="M14,45v4c-4,0-6-4-6-4l3-3A2.938,2.938,0,0,0,14,45Z"/><path class="cls-6" d="M8,45s2,4,6,4,6-4,6-4l-3-3V41h5s5,0,5,5V63H1V46c0-5,5-5,5-5h5v1Z"/><path class="cls-10" d="M21,25H13c0,3-6,4-6,4v.168A31.293,31.293,0,0,1,10.394,29C16.049,29,17.5,30.106,21,30.673V25Z"/><path class="cls-12" d="M7,28v1s6-1,6-4H7Z"/><path class="cls-7" d="M6,41s-5,0-5,5V63H7V41Z"/><path class="cls-7" d="M22,41H21V63h6V46C27,41,22,41,22,41Z"/><rect class="cls-13" x="42" y="52" width="2" height="7"/><rect class="cls-13" x="48" y="42" width="2" height="7"/><rect class="cls-13" x="42" y="32" width="2" height="7"/><rect class="cls-13" x="48" y="22" width="2" height="7"/><path d="M61,0H26a1,1,0,0,0-.737.324l-11,12A1,1,0,0,0,14,13v3H12c-2.075,0-6,1.463-6,7v4a3,3,0,0,0,0,6v1c0,.332.166,1.579,2.293,3.707A7.034,7.034,0,0,0,10,38.938V40H6a5.785,5.785,0,0,0-6,6V63a1,1,0,0,0,1,1H27a1,1,0,0,0,1-1V46a5.785,5.785,0,0,0-6-6H18V38.938a7.034,7.034,0,0,0,1.707-1.231C21.834,35.579,22,34.332,22,34V33a3,3,0,0,0,0-6V26h2a1,1,0,0,0,1-1c0-3.113-1.672-9-8-9H16V14H26a1,1,0,0,0,1-1V2H61a1,1,0,0,1,1,1V61a1,1,0,0,1-1,1H31v2H61a3,3,0,0,0,3-3V3A3,3,0,0,0,61,0ZM5,30a1,1,0,0,1,1-1v2A1,1,0,0,1,5,30ZM17.523,43.937l1.213,1.213A6.474,6.474,0,0,1,15,47.894v-2A3.633,3.633,0,0,0,17.523,43.937ZM13,47.894A6.472,6.472,0,0,1,9.264,45.15l1.213-1.213A3.633,3.633,0,0,0,13,45.9ZM26,46V62H22V50H20V62H8V50H6V62H2V46a3.85,3.85,0,0,1,4-4H9.586L7.293,44.293a1,1,0,0,0-.188,1.154c.087.172,2,3.9,5.9,4.473V59h2V49.92c3.89-.57,5.808-4.3,5.9-4.473a1,1,0,0,0-.188-1.154L18.414,42H22C22.163,42,26,42.046,26,46ZM16,42a1.882,1.882,0,0,1-2,2,1.882,1.882,0,0,1-2-2V39.709A8.515,8.515,0,0,0,14,40a8.515,8.515,0,0,0,2-.291Zm2.293-5.707A6.8,6.8,0,0,1,14,38a6.8,6.8,0,0,1-4.293-1.707A6.466,6.466,0,0,1,8,33.995V29.816c1.652-.385,5.07-1.456,5.843-3.816H20l0,7.919C20,33.927,19.86,34.727,18.293,36.293ZM23,30a1,1,0,0,1-1,1V29A1,1,0,0,1,23,30Zm-.078-6H13a1,1,0,0,0-1,1c0,1.3-2.243,2.272-4,2.752V23c0-4.809,3.6-5,4-5h5C21.589,18,22.668,22.06,22.922,24ZM17.273,12,25,3.571V12Z"/><rect x="56" y="52" width="2" height="7"/><rect x="43" y="42" width="2" height="7"/><path d="M51,52H49a2,2,0,0,0-2,2v3a2,2,0,0,0,2,2h2a2,2,0,0,0,2-2V54A2,2,0,0,0,51,52Zm0,5H49V54h2Z"/><rect x="56" y="32" width="2" height="7"/><path d="M49,32a2,2,0,0,0-2,2v3a2,2,0,0,0,2,2h2a2,2,0,0,0,2-2V34a2,2,0,0,0-2-2Zm2,5H49V34h2Z"/><path d="M59,47V44a2,2,0,0,0-2-2H55a2,2,0,0,0-2,2v3a2,2,0,0,0,2,2h2A2,2,0,0,0,59,47Zm-2,0H55V44h2Z"/><path d="M34,47a2,2,0,0,0,2,2h2a2,2,0,0,0,2-2V44a2,2,0,0,0-2-2H36a2,2,0,0,0-2,2Zm2-3h2v3H36Z"/><rect x="43" y="22" width="2" height="7"/><path d="M59,24a2,2,0,0,0-2-2H55a2,2,0,0,0-2,2v3a2,2,0,0,0,2,2h2a2,2,0,0,0,2-2Zm-2,3H55V24h2Z"/><path d="M34,24v3a2,2,0,0,0,2,2h2a2,2,0,0,0,2-2V24a2,2,0,0,0-2-2H36A2,2,0,0,0,34,24Zm4,3H36V24h2Z"/><path d="M41.293,5.293l-5,5a1,1,0,0,0,0,1.414l5,5,1.414-1.414L38.414,11l4.293-4.293Z"/><path d="M52.707,16.707l5-5a1,1,0,0,0,0-1.414l-5-5L51.293,6.707,55.586,11l-4.293,4.293Z"/><rect x="41.41" y="10.5" width="11.18" height="2" transform="translate(27.286 55.688) rotate(-79.705)"/></g></svg>