<svg xmlns="http://www.w3.org/2000/svg" viewBox="0 0 64 64"><defs><style>.cls-1{fill:#0074ff;}.cls-2{fill:#ccd3eb;}.cls-3{fill:#f5f7ff;}.cls-4{fill:#647499;}.cls-5{fill:#033c59;}</style></defs><title>Sitemap</title><g id="Sitemap"><path class="cls-1" d="M61,6V18H4V6A2,2,0,0,1,6,4H59A2,2,0,0,1,61,6Z"/><path class="cls-2" d="M61,18V58a2,2,0,0,1-2,2H6a2,2,0,0,1-2-2V18Z"/><path class="cls-3" d="M56,18.9V51.29A5.88,5.88,0,0,1,50,57H5V19H6v-.1Z"/><rect class="cls-2" x="12" y="24" width="40" height="10" rx="2"/><rect class="cls-3" x="8" y="8" width="30" height="6" rx="2"/><circle class="cls-3" cx="49" cy="11" r="2"/><circle class="cls-3" cx="43" cy="11" r="2"/><circle class="cls-3" cx="55" cy="11" r="2"/><path class="cls-4" d="M33.5,29a1,1,0,0,0-1-1h-1a1,1,0,0,0,0,2h1A1,1,0,0,0,33.5,29Z"/><rect class="cls-1" x="47" y="46" width="8" height="8" rx="2.67"/><rect class="cls-1" x="28" y="46" width="8" height="8" rx="2.67"/><rect class="cls-1" x="9" y="46" width="8" height="8" rx="2.31"/><path class="cls-4" d="M27,28H26a1,1,0,0,0,0,2h1a1,1,0,0,0,0-2Z"/><path class="cls-4" d="M37,30h1a1,1,0,0,0,0-2H37a1,1,0,0,0,0,2Z"/><path class="cls-5" d="M52.33,45H52V42a3,3,0,0,0-3-3H33V35H50a3,3,0,0,0,3-3V26a3,3,0,0,0-3-3H14a3,3,0,0,0-3,3v6a3,3,0,0,0,3,3H31v4H15a3,3,0,0,0-3,3v3h-.69A3.31,3.31,0,0,0,8,48.31v3.38A3.31,3.31,0,0,0,11.31,55h3.38A3.31,3.31,0,0,0,18,51.69V48.31A3.31,3.31,0,0,0,14.69,45H14V42a1,1,0,0,1,1-1H31v4h-.33A3.67,3.67,0,0,0,27,48.67v2.66A3.67,3.67,0,0,0,30.67,55h2.66A3.67,3.67,0,0,0,37,51.33V48.67A3.67,3.67,0,0,0,33.33,45H33V41H49a1,1,0,0,1,1,1v3h-.33A3.67,3.67,0,0,0,46,48.67v2.66A3.67,3.67,0,0,0,49.67,55h2.66A3.67,3.67,0,0,0,56,51.33V48.67A3.67,3.67,0,0,0,52.33,45ZM13,32V26a1,1,0,0,1,1-1H50a1,1,0,0,1,1,1v6a1,1,0,0,1-1,1H14A1,1,0,0,1,13,32Zm3,16.31v3.38A1.31,1.31,0,0,1,14.69,53H11.31A1.31,1.31,0,0,1,10,51.69V48.31A1.31,1.31,0,0,1,11.31,47h3.38A1.31,1.31,0,0,1,16,48.31Zm19,.36v2.66A1.67,1.67,0,0,1,33.33,53H30.67A1.67,1.67,0,0,1,29,51.33V48.67A1.67,1.67,0,0,1,30.67,47h2.66A1.67,1.67,0,0,1,35,48.67Zm19,2.66A1.67,1.67,0,0,1,52.33,53H49.67A1.67,1.67,0,0,1,48,51.33V48.67A1.67,1.67,0,0,1,49.67,47h2.66A1.67,1.67,0,0,1,54,48.67Z"/><path class="cls-5" d="M15,9h1a1,1,0,0,0,0-2H15a1,1,0,0,0,0,2Z"/><path class="cls-5" d="M10,15H36a3,3,0,0,0,3-3V10a3,3,0,0,0-3-3H20a1,1,0,0,0,0,2H36a1,1,0,0,1,1,1v2a1,1,0,0,1-1,1H10a1,1,0,0,1-1-1V10a1,1,0,0,1,1-1h1a1,1,0,0,0,0-2H10a3,3,0,0,0-3,3v2A3,3,0,0,0,10,15Z"/><circle class="cls-3" cx="49" cy="11" r="2"/><circle class="cls-3" cx="43" cy="11" r="2"/><circle class="cls-3" cx="55" cy="11" r="2"/><path class="cls-5" d="M58,3H6A3,3,0,0,0,3,6V58a3,3,0,0,0,3,3H58a3,3,0,0,0,3-3V6A3,3,0,0,0,58,3ZM6,5H58a1,1,0,0,1,1,1V17H5V6A1,1,0,0,1,6,5ZM58,59H6a1,1,0,0,1-1-1V19H59V58A1,1,0,0,1,58,59Z"/></g></svg>