<svg xmlns="http://www.w3.org/2000/svg" xmlns:xlink="http://www.w3.org/1999/xlink" viewBox="0 0 64 64"><defs><style>.cls-1{fill:#ccd3eb;}.cls-2{fill:#f5f7ff;}.cls-3{fill:#96a1c3;}.cls-4{fill:url(#linear-gradient);}.cls-5{fill:#647499;}.cls-6{fill:#0668cb;}.cls-7{fill:#0074ff;}.cls-8{fill:#fe9661;}.cls-9{fill:#54a5ff;}.cls-10{fill:#d7e9f7;}.cls-11{fill:#b4cde1;}.cls-12{fill:#033c59;}</style><linearGradient id="linear-gradient" x1="30" y1="43" x2="34" y2="43" gradientUnits="userSpaceOnUse"><stop offset="0" stop-color="#d3e6f5"/><stop offset="1" stop-color="#f0f7fc"/></linearGradient></defs><title>Programming</title><g id="Programming"><path class="cls-1" d="M60,10V38H4V10A6,6,0,0,1,8,4.35,5.8,5.8,0,0,1,10,4H54A6,6,0,0,1,60,10Z"/><path class="cls-2" d="M57,10V38H4V10A6,6,0,0,1,8,4.35,5.8,5.8,0,0,1,10,4H51A6,6,0,0,1,57,10Z"/><path class="cls-3" d="M60,37v4a6,6,0,0,1-6,6H10a6,6,0,0,1-6-6V37Z"/><path class="cls-4" d="M33,44H31a1,1,0,0,1,0-2h2a1,1,0,0,1,0,2Z"/><polygon class="cls-5" points="42.29 60 21.71 60 25.83 48 38.17 48 42.29 60"/><path class="cls-4" d="M33,44H31a1,1,0,0,1,0-2h2a1,1,0,0,1,0,2Z"/><path class="cls-6" d="M44,61H20a1,1,0,0,1,0-2H44a1,1,0,0,1,0,2Z"/><path class="cls-7" d="M51,10v6H13V10a2,2,0,0,1,2-2H49A2,2,0,0,1,51,10Z"/><path class="cls-2" d="M51,16V32a2,2,0,0,1-2,2H15a2,2,0,0,1-2-2V16Z"/><path class="cls-8" d="M18,13H17a1,1,0,0,1,0-2h1a1,1,0,0,1,0,2Z"/><path class="cls-9" d="M23,13H22a1,1,0,0,1,0-2h1a1,1,0,0,1,0,2Z"/><path class="cls-10" d="M28,13H27a1,1,0,0,1,0-2h1a1,1,0,0,1,0,2Z"/><path class="cls-11" d="M44,24H42V22a1,1,0,0,0-2,0v2H38a1,1,0,0,0,0,2h2v2a1,1,0,0,0,2,0V26h2a1,1,0,0,0,0-2Z"/><path class="cls-11" d="M34,24H32V22a1,1,0,0,0-2,0v2H28a1,1,0,0,0,0,2h2v2a1,1,0,0,0,2,0V26h2a1,1,0,0,0,0-2Z"/><path class="cls-11" d="M25.61,28.67A4.11,4.11,0,0,1,24,29a4,4,0,0,1,0-8,4.11,4.11,0,0,1,1.61.33,1,1,0,0,0,.78-1.84A6.16,6.16,0,0,0,24,19a6,6,0,0,0,0,12,6.16,6.16,0,0,0,2.39-.49,1,1,0,0,0-.78-1.84Z"/><path class="cls-12" d="M33,42H31a1,1,0,0,0,0,2h2a1,1,0,0,0,0-2Z"/><path class="cls-12" d="M15,35H49a3,3,0,0,0,3-3V10a3,3,0,0,0-3-3H15a3,3,0,0,0-3,3V32A3,3,0,0,0,15,35ZM15,9H49a1,1,0,0,1,1,1v5H44a1,1,0,0,0,0,2h6V32a1,1,0,0,1-1,1H15a1,1,0,0,1-1-1V17H35a1,1,0,0,0,0-2H14V10A1,1,0,0,1,15,9Z"/><path class="cls-12" d="M39,17h1a1,1,0,0,0,0-2H39a1,1,0,0,0,0,2Z"/><path class="cls-2" d="M17,13h1a1,1,0,0,0,0-2H17a1,1,0,0,0,0,2Z"/><path class="cls-2" d="M22,13h1a1,1,0,0,0,0-2H22a1,1,0,0,0,0,2Z"/><path class="cls-2" d="M27,13h1a1,1,0,0,0,0-2H27a1,1,0,0,0,0,2Z"/><path class="cls-12" d="M54,3H10a7,7,0,0,0-7,7V42a7,7,0,0,0,7,7H24.43L21,59H20a1,1,0,0,0,0,2H44a1,1,0,0,0,0-2H43L39.57,49H54a7,7,0,0,0,7-7V10A7,7,0,0,0,54,3ZM10,5H54a5,5,0,0,1,5,5V37H5V10A5,5,0,0,1,10,5ZM40.89,59H23.11l3.43-10H37.46ZM54,47H10a5,5,0,0,1-5-5V39H59v3A5,5,0,0,1,54,47Z"/><path class="cls-7" d="M38,26h2v2a1,1,0,0,0,2,0V26h2a1,1,0,0,0,0-2H42V22a1,1,0,0,0-2,0v2H38a1,1,0,0,0,0,2Z"/><path class="cls-7" d="M34,24H32V22a1,1,0,0,0-2,0v2H28a1,1,0,0,0,0,2h2v2a1,1,0,0,0,2,0V26h2a1,1,0,0,0,0-2Z"/><path class="cls-7" d="M25.61,28.67A4.11,4.11,0,0,1,24,29a4,4,0,0,1,0-8,4.11,4.11,0,0,1,1.61.33,1,1,0,0,0,.78-1.84A6.16,6.16,0,0,0,24,19a6,6,0,0,0,0,12,6.16,6.16,0,0,0,2.39-.49,1,1,0,0,0-.78-1.84Z"/></g></svg>