<svg xmlns="http://www.w3.org/2000/svg" viewBox="0 0 64 64"><defs><style>.cls-1{fill:#ccd3eb;}.cls-2{fill:#f5f7ff;}.cls-3{fill:#0074ff;}.cls-4{fill:#033c59;}</style></defs><title>Update</title><g id="Update"><path class="cls-1" d="M60,13V51.1A2,2,0,0,1,58,53H6a2,2,0,0,1-2-1.9V13Z"/><path class="cls-2" d="M55,11.9V44.29A5.82,5.82,0,0,1,49.12,50H4V12H6l0-.1Z"/><path class="cls-3" d="M60,6v8H4V6A2,2,0,0,1,6,4H58A2,2,0,0,1,60,6Z"/><circle class="cls-2" cx="42" cy="9" r="2"/><circle class="cls-2" cx="48" cy="9" r="2"/><circle class="cls-2" cx="54" cy="9" r="2"/><path class="cls-2" d="M8,9a1,1,0,0,0,1,1H28a1,1,0,0,0,0-2H9A1,1,0,0,0,8,9Z"/><path class="cls-3" d="M47,45.25a15,15,0,1,1-6-12A15,15,0,0,1,47,45.25Z"/><path class="cls-2" d="M26.71,46.29a1,1,0,0,0-1.42,0l-.29.3V45a7,7,0,0,1,6.94-7L36,38a1,1,0,0,0,0-2h0l-4.06,0A9,9,0,0,0,23,45v1.56l-.29-.3a1,1,0,0,0-1.42,1.42l2,2,0,0a.85.85,0,0,0,.3.19h0A1,1,0,0,0,24,50a1.22,1.22,0,0,0,.38-.07,1.19,1.19,0,0,0,.33-.22l2-2A1,1,0,0,0,26.71,46.29Z"/><path class="cls-2" d="M42.71,42.29l-2-2,0,0a.85.85,0,0,0-.3-.19h0A.85.85,0,0,0,40,40h-.1a1,1,0,0,0-.25.05l-.1,0a1,1,0,0,0-.3.19l-2,2a1,1,0,0,0,1.42,1.42l.29-.3V45a7,7,0,0,1-6.94,7L28,52a1,1,0,0,0,0,2h0l4.07,0A9,9,0,0,0,41,45V43.41l.29.3a1,1,0,0,0,1.42,0A1,1,0,0,0,42.71,42.29Z"/><path class="cls-4" d="M58,3H56a1,1,0,0,0,0,2h2a1,1,0,0,1,1,1v7H5V6A1,1,0,0,1,6,5H47a1,1,0,0,0,0-2H6A3,3,0,0,0,3,6V51a3,3,0,0,0,3,3H18.78a16,16,0,0,0,26.44,0H58a3,3,0,0,0,3-3V6A3,3,0,0,0,58,3ZM32,59A14,14,0,1,1,46,45,14,14,0,0,1,32,59Zm26-7H46.37a16,16,0,1,0-28.74,0H6a1,1,0,0,1-1-1V15H59V51A1,1,0,0,1,58,52Z"/><path class="cls-4" d="M51,5h1a1,1,0,0,0,0-2H51a1,1,0,0,0,0,2Z"/><circle class="cls-2" cx="42" cy="9" r="2"/><circle class="cls-2" cx="48" cy="9" r="2"/><circle class="cls-2" cx="54" cy="9" r="2"/><path class="cls-2" d="M9,8a1,1,0,0,0,0,2H28a1,1,0,0,0,0-2Z"/></g></svg>