<svg xmlns="http://www.w3.org/2000/svg" viewBox="0 0 64 64"><defs><style>.cls-1{fill:#fff;}.cls-2{fill:#73c6b2;}.cls-3{fill:#dfe1ea;}.cls-4{fill:#ff636e;}.cls-5{fill:#ffc247;}.cls-6{fill:#ffa426;}.cls-7{fill:#f5cd62;}.cls-8{fill:#f5d882;}.cls-9{fill:#f5e3a7;}.cls-10{fill:#ffcdbe;}.cls-11{fill:#b46e5a;}.cls-12{fill:#ffbeaa;}.cls-13{fill:#f2f6fc;}.cls-14{fill:#bec3d2;}.cls-15{fill:#915041;}.cls-16{fill:#7e8596;}</style></defs><title>50-Programmer</title><g id="_50-Programmer" data-name="50-Programmer"><rect class="cls-1" x="1" y="42" width="20" height="14"/><rect class="cls-2" x="1" y="34" width="20" height="8"/><rect class="cls-3" x="4" y="45" width="14" height="8"/><rect class="cls-1" x="43" y="29" width="20" height="14"/><rect class="cls-4" x="44" y="21" width="19" height="8"/><rect class="cls-3" x="46" y="32" width="14" height="8"/><polygon class="cls-5" points="31 7 18 29 16 29 22 7 31 7"/><polygon class="cls-5" points="27 1 31 7 22 7 27 1"/><polygon class="cls-6" points="27 1 22 7 16 1 27 1"/><polygon class="cls-5" points="11 7 1 7 5 1 11 7"/><polygon class="cls-6" points="16 1 11 7 5 1 16 1"/><polygon class="cls-5" points="22 7 11 7 16 1 22 7"/><polygon class="cls-6" points="22 7 16 29 11 7 22 7"/><polygon class="cls-5" points="11 7 16 29 14 29 1 7 11 7"/><path class="cls-7" d="M26.6,12a25.883,25.883,0,0,1-5.806-.56L19,18a25.2,25.2,0,0,0,4.966.9l4.1-6.933C27.6,11.989,27.121,12,26.6,12Z"/><path class="cls-8" d="M13.285,17.052A25.159,25.159,0,0,1,19,18l1.789-6.561c-2.652-.579-4.381-1.4-9.106-1.435Z"/><path class="cls-9" d="M13.285,17.052l-1.6-7.047c-.1,0-.186-.005-.289-.005a26.29,26.29,0,0,0-7.973,1.1l3.657,6.189A28.748,28.748,0,0,1,11.394,17C12.09,17,12.7,17.022,13.285,17.052Z"/><path class="cls-10" d="M40,28a2,2,0,0,1,0,4H39V28Z"/><path class="cls-11" d="M25,29V23c0-6,5-6,5-6h5c7,0,7,8,7,8H31C31,28,25,29,25,29Z"/><path class="cls-10" d="M25,29v3H24a2,2,0,0,1,0-4h1Z"/><path class="cls-10" d="M29,38.33A6.592,6.592,0,0,1,27,37c-2-2-2-3-2-3V29s6-1,6-4h8v9s0,1-2,3a6.592,6.592,0,0,1-2,1.33A8.459,8.459,0,0,1,32,39,8.459,8.459,0,0,1,29,38.33Z"/><path class="cls-12" d="M35,41v1a3,3,0,0,1-6,0V38.33A8.459,8.459,0,0,0,32,39a8.459,8.459,0,0,0,3-.67Z"/><path class="cls-13" d="M32,45a2.938,2.938,0,0,0,3-3l3,3s-2,4-6,4Z"/><path class="cls-13" d="M32,45v4c-4,0-6-4-6-4l3-3A2.938,2.938,0,0,0,32,45Z"/><path class="cls-14" d="M26,45s2,4,6,4,6-4,6-4l-3-3V41h5s5,0,5,5V63H19V46c0-5,5-5,5-5h5v1Z"/><path class="cls-12" d="M39,25H31c0,3-6,4-6,4v.168A31.293,31.293,0,0,1,28.394,29C34.049,29,35.5,30.106,39,30.673V25Z"/><path class="cls-15" d="M25,28v1s6-1,6-4H25Z"/><path class="cls-16" d="M24,41s-5,0-5,5V63h6V41Z"/><path class="cls-16" d="M40,41H39V63h6V46C45,41,40,41,40,41Z"/><rect class="cls-1" x="46" y="24" width="2" height="2"/><rect class="cls-1" x="50" y="24" width="2" height="2"/><rect class="cls-1" x="8" y="37" width="2" height="2"/><rect class="cls-1" x="4" y="37" width="2" height="2"/><path d="M13.139,29.509A1,1,0,0,0,14,30h4a1,1,0,0,0,.861-.491l4-6.769-1.722-1.018L17.43,28h-.121L22.764,8h6.483l-3.836,6.491,1.723,1.018,4.727-8a1,1,0,0,0-.029-1.064l-4-6A1,1,0,0,0,27,0H5a1,1,0,0,0-.832.445l-4,6A1,1,0,0,0,.139,7.509ZM14.57,28,2.753,8H10.2l4.546,20Zm1.5-25.519L19.586,6H13.135ZM10.933,5.519,7.414,2h6.451ZM18.414,2h6.451L21.933,5.519Zm2.277,6-4.6,16.876L12.253,8Zm8.44-2h-5l2.776-3.331ZM5.156,2.57,8.586,6H2.869Z"/><path d="M63,5a.812.812,0,0,1-.71-.291c-.61-.742-.472-2.688-.31-3.514A1,1,0,0,0,61,0H59V2h.865a5.865,5.865,0,0,0,.877,3.977A2.715,2.715,0,0,0,62,6.845v.31a2.715,2.715,0,0,0-1.258.868A5.865,5.865,0,0,0,59.865,12H59v2h2a1,1,0,0,0,.98-1.2c-.162-.826-.3-2.772.31-3.514A.812.812,0,0,1,63,9a1,1,0,0,0,1-1V6A1,1,0,0,0,63,5Z"/><rect x="51" y="6" width="2" height="2"/><rect x="47" y="6" width="2" height="2"/><rect x="55" y="6" width="2" height="2"/><path d="M41,9a.812.812,0,0,1,.71.291c.61.742.472,2.688.31,3.514A1,1,0,0,0,43,14h2V12h-.865a5.865,5.865,0,0,0-.877-3.977A2.715,2.715,0,0,0,42,7.155v-.31a2.715,2.715,0,0,0,1.258-.868A5.865,5.865,0,0,0,44.135,2H45V0H43a1,1,0,0,0-.98,1.2c.162.826.3,2.772-.31,3.514A.812.812,0,0,1,41,5a1,1,0,0,0-1,1V8A1,1,0,0,0,41,9Z"/><path d="M63,20H41.763A7.222,7.222,0,0,0,35,16H30c-2.075,0-6,1.463-6,7v4a3,3,0,0,0,0,6v1c0,.332.165,1.58,2.293,3.707A7.034,7.034,0,0,0,28,38.938V40H24a6.736,6.736,0,0,0-3.443,1H2V35H20V33H1a1,1,0,0,0-1,1V56a1,1,0,0,0,1,1H18v6a1,1,0,0,0,1,1H45a1,1,0,0,0,1-1V46a6.893,6.893,0,0,0-.284-2H63a1,1,0,0,0,1-1V21A1,1,0,0,0,63,20ZM23,30a1,1,0,0,1,1-1v2A1,1,0,0,1,23,30Zm3-7c0-4.809,3.6-5,4-5h5c4.59,0,5.669,4.06,5.922,6H31a1,1,0,0,0-1,1c0,1.3-2.243,2.272-4,2.752Zm14,6a1,1,0,0,1,0,2ZM26,34v-4.18c1.652-.385,5.07-1.455,5.843-3.816H38l0,7.919c0,.008-.145.807-1.711,2.374A6.8,6.8,0,0,1,32,38a6.8,6.8,0,0,1-4.293-1.707A6.47,6.47,0,0,1,26,34Zm2.477,9.941A3.633,3.633,0,0,0,31,45.9v2a6.471,6.471,0,0,1-3.736-2.744ZM33,45.9a3.633,3.633,0,0,0,2.523-1.959l1.213,1.213A6.47,6.47,0,0,1,33,47.894ZM32,40a8.515,8.515,0,0,0,2-.291V42a2,2,0,0,1-4,0V39.709A8.515,8.515,0,0,0,32,40ZM2,55V43H18.681A6.326,6.326,0,0,0,18,46v9Zm42,7H40V50H38V62H26V50H24V62H20V46a3.85,3.85,0,0,1,4-4h3.586l-2.293,2.293a1,1,0,0,0-.188,1.154c.086.172,2,3.9,5.9,4.473V59h2V49.92c3.89-.569,5.809-4.3,5.9-4.473a1,1,0,0,0-.188-1.154L36.414,42H40c.163,0,4,.045,4,4Zm.633-20A6.388,6.388,0,0,0,40,40H36V38.938a7.034,7.034,0,0,0,1.707-1.231C39.835,35.58,40,34.332,40,34V33a3,3,0,0,0,0-6V26h2a1,1,0,0,0,1-1,11.23,11.23,0,0,0-.443-3H62v6H46v2H62V42Z"/><path d="M50.293,32.293l-3,3a1,1,0,0,0,0,1.414l3,3,1.414-1.414L49.414,36l2.293-2.293Z"/><path d="M55.707,32.293l-1.414,1.414L56.586,36l-2.293,2.293,1.414,1.414,3-3a1,1,0,0,0,0-1.414Z"/><path d="M13.707,45.293l-1.414,1.414L14.586,49l-2.293,2.293,1.414,1.414,3-3a1,1,0,0,0,0-1.414Z"/><path d="M8.293,45.293l-3,3a1,1,0,0,0,0,1.414l3,3,1.414-1.414L7.414,49l2.293-2.293Z"/></g></svg>