<svg xmlns="http://www.w3.org/2000/svg" viewBox="0 0 64 64"><defs><style>.cls-1{fill:#8dd5f6;}.cls-2{fill:#dfe1ea;}.cls-3{fill:#adb2c7;}.cls-4{fill:#aedff7;}.cls-5{fill:#f6fafd;}.cls-6{fill:#0096cf;}.cls-7{fill:#9196aa;}.cls-8{fill:#fff;}</style></defs><title>72-Html Code</title><g id="_72-Html_Code" data-name="72-Html Code"><rect class="cls-1" x="7" y="13" width="50" height="35" rx="1" ry="1"/><path class="cls-2" d="M61,10V52H40v2a1,1,0,0,1-1,1H25a1,1,0,0,1-1-1V52H3V10L4,9H60ZM57,47V14a1,1,0,0,0-1-1H8a1,1,0,0,0-1,1V47a1,1,0,0,0,1,1H56A1,1,0,0,0,57,47Z"/><path class="cls-3" d="M63,52v6l-1,1H2L1,58V52H24v2a1,1,0,0,0,1,1H39a1,1,0,0,0,1-1V52H63Z"/><path class="cls-4" d="M55.8,21c-7.6,0-7.6,2-15.2,2s-7.6-2-15.2-2-7.6,2-15.2,2A31.65,31.65,0,0,1,7,22.85v7a31.65,31.65,0,0,0,3.2.15c7.6,0,7.6-2,15.2-2s7.6,2,15.2,2,7.6-2,15.2-2c.43,0,.82.01,1.2.022v-7C56.617,21.01,56.227,21,55.8,21Z"/><path class="cls-5" d="M25.394,21c7.6,0,7.6,2,15.2,2s7.6-2,15.2-2c.43,0,.82.01,1.2.022V14a1,1,0,0,0-1-1H8a1,1,0,0,0-1,1v8.85a31.65,31.65,0,0,0,3.2.15C17.794,23,17.794,21,25.394,21Z"/><path class="cls-6" d="M40.6,30a31.021,31.021,0,0,1-3.567-.184L35.98,31.19l.71,2.12,2.12.71,3.46-2.64a10.8,10.8,0,0,0,3.15,1.3L46,37l2,1,2-1,.58-4.32a10.8,10.8,0,0,0,3.15-1.3l3.27,2.5V28.022c-.383-.012-.773-.022-1.2-.022C48.2,28,48.2,30,40.6,30Z"/><path class="cls-6" d="M53.918,21.051A6.066,6.066,0,0,1,54,22a6,6,0,0,1-11.914.969c-.466.019-.956.031-1.491.031a27.628,27.628,0,0,1-8.482-1.227L32,22l1,2,4.32.58a10.8,10.8,0,0,0,1.3,3.15l-1.592,2.086A31.021,31.021,0,0,0,40.6,30c7.6,0,7.6-2,15.2-2,.43,0,.82.01,1.2.022v-7c-.383-.012-.773-.022-1.2-.022C55.106,21,54.5,21.021,53.918,21.051Z"/><path class="cls-6" d="M37.32,19.42,33,20l-.887,1.773A27.628,27.628,0,0,0,40.6,23c.535,0,1.025-.012,1.491-.031a5.993,5.993,0,1,1,11.832-1.918C54.5,21.021,55.106,21,55.8,21c.43,0,.82.01,1.2.022V14a.986.986,0,0,0-.079-.388,1.007,1.007,0,0,0-.533-.533A.982.982,0,0,0,56,13H36.125l2.495,3.27A10.8,10.8,0,0,0,37.32,19.42Z"/><path class="cls-7" d="M60,19l1,2-1,2-4.32.58a10.8,10.8,0,0,1-1.3,3.15l2.64,3.46-.71,2.12-2.12.71-3.46-2.64a10.8,10.8,0,0,1-3.15,1.3L47,36l-2,1-2-1-.58-4.32a10.8,10.8,0,0,1-3.15-1.3l-3.46,2.64-2.12-.71-.71-2.12,2.64-3.46a10.8,10.8,0,0,1-1.3-3.15L30,23l-1-2,1-2,4.32-.58a10.8,10.8,0,0,1,1.3-3.15l-2.64-3.46.71-2.12,2.12-.71,3.46,2.64a10.8,10.8,0,0,1,3.15-1.3L43,6l2-1,2,1,.58,4.32a10.8,10.8,0,0,1,3.15,1.3l3.46-2.64,2.12.71.71,2.12-2.64,3.46a10.8,10.8,0,0,1,1.3,3.15Zm-9,2a6,6,0,1,0-6,6A6,6,0,0,0,51,21Z"/><rect class="cls-3" x="39" y="39" width="5" height="5"/><rect class="cls-8" x="48" y="39" width="5" height="5"/><path d="M63,51H62V26H60V51H40a1,1,0,0,0-1,1v2H25V52a1,1,0,0,0-1-1H4V10.414L4.414,10H31V8H4a1,1,0,0,0-.707.293l-1,1A1,1,0,0,0,2,10V51H1a1,1,0,0,0-1,1v6a1,1,0,0,0,.293.707l1,1A1,1,0,0,0,2,60H62a1,1,0,0,0,.707-.293l1-1A1,1,0,0,0,64,58V52A1,1,0,0,0,63,51Zm-1,6.586L61.586,58H2.414L2,57.586V53H23v1a2,2,0,0,0,2,2H39a2,2,0,0,0,2-2V53H62Z"/><path d="M30,12H8a2,2,0,0,0-2,2V47a2,2,0,0,0,2,2H56a2,2,0,0,0,2-2V36H56V47H8V14H30Z"/><path d="M34.831,15.875l1.588-1.215L34.1,11.621l.382-1.143,1.144-.382,3.039,2.323a1,1,0,0,0,1.131.059,9.894,9.894,0,0,1,2.868-1.19,1,1,0,0,0,.757-.841l.505-3.79L45,6.118l1.079.539.505,3.79a1,1,0,0,0,.757.841,9.894,9.894,0,0,1,2.868,1.19,1,1,0,0,0,1.131-.059L54.379,10.1l1.144.382.382,1.143L53.581,14.66a1,1,0,0,0-.059,1.13,9.94,9.94,0,0,1,1.19,2.868,1,1,0,0,0,.84.758l3.791.5L59.882,21l-.539,1.079-3.791.5a1,1,0,0,0-.84.758,9.94,9.94,0,0,1-1.19,2.868,1,1,0,0,0,.059,1.13l2.324,3.039-.382,1.143-1.144.382L51.34,29.581a1,1,0,0,0-1.131-.059,9.894,9.894,0,0,1-2.868,1.19l.468,1.945a11.91,11.91,0,0,0,2.844-1.084l2.932,2.241a.993.993,0,0,0,.924.155l2.121-.707a1,1,0,0,0,.632-.632l.708-2.121a1,1,0,0,0-.155-.924l-2.242-2.932a11.925,11.925,0,0,0,.9-2.174l3.657-.488a1,1,0,0,0,.763-.544l1-2a1,1,0,0,0,0-.894l-1-2a1,1,0,0,0-.763-.544l-3.657-.488a11.925,11.925,0,0,0-.9-2.174l2.242-2.932a1,1,0,0,0,.155-.924L57.262,9.37a1,1,0,0,0-.632-.632l-2.121-.707a.992.992,0,0,0-.924.155l-2.932,2.241a11.9,11.9,0,0,0-2.174-.9l-.488-3.657a1,1,0,0,0-.544-.763l-2-1a1,1,0,0,0-.894,0l-2,1a1,1,0,0,0-.544.763l-.488,3.657a11.9,11.9,0,0,0-2.174.9L36.415,8.186a.992.992,0,0,0-.924-.155l-2.121.707a1,1,0,0,0-.632.632l-.708,2.121a1,1,0,0,0,.155.924Z"/><path d="M52,21a7,7,0,0,0-13.063-3.5l1.731,1A5,5,0,1,1,45,26v2A7.008,7.008,0,0,0,52,21Z"/><path d="M48,45h5a1,1,0,0,0,1-1V39a1,1,0,0,0-1-1H48a1,1,0,0,0-1,1v5A1,1,0,0,0,48,45Zm1-5h3v3H49Z"/><path d="M38,39v5a1,1,0,0,0,1,1h5a1,1,0,0,0,1-1V39a1,1,0,0,0-1-1H39A1,1,0,0,0,38,39Zm2,1h3v3H40Z"/><polygon points="18 36 18 22 16 22 16 28 12 28 12 22 10 22 10 36 12 36 12 30 16 30 16 36 18 36"/><polygon points="25 36 25 24 28 24 28 22 20 22 20 24 23 24 23 36 25 36"/><path d="M30,23V36h2V28.515l1.063,2.837a1,1,0,0,0,1.874,0L36,28.515V36h2V23a1,1,0,0,0-1.937-.352L34,28.152l-2.063-5.5A1,1,0,0,0,30,23Z"/><path d="M40,22V33a2.916,2.916,0,0,0,3,3h4V34H43a.915.915,0,0,1-1-1V22Z"/></g></svg>