<svg xmlns="http://www.w3.org/2000/svg" viewBox="0 0 64 64"><defs><style>.cls-1{fill:#dfe1ea;}.cls-2{fill:#adb2c7;}.cls-3{fill:#cdd2e1;}.cls-4{fill:#e9edf5;}.cls-5{fill:#fff;}.cls-6{fill:#ffcdbe;}.cls-7{fill:#b46e5a;}.cls-8{fill:#ffbeaa;}.cls-9{fill:#f2f6fc;}.cls-10{fill:#bec3d2;}.cls-11{fill:#915041;}.cls-12{fill:#7e8596;}</style></defs><title>51-Programmer</title><g id="_51-Programmer" data-name="51-Programmer"><path class="cls-1" d="M63,11V54a2.006,2.006,0,0,1-2,2H3a2.006,2.006,0,0,1-2-2V11Z"/><path class="cls-2" d="M61,1a2.006,2.006,0,0,1,2,2v8H1V3A2.006,2.006,0,0,1,3,1Z"/><path class="cls-3" d="M39.6,21c-7.6,0-7.6-2-15.2-2s-7.6,2-15.2,2A26.743,26.743,0,0,1,1,19.844v8A26.743,26.743,0,0,0,9.2,29c7.6,0,7.6-2,15.2-2s7.6,2,15.2,2,7.6-2,15.2-2A26.787,26.787,0,0,1,63,28.157v-8A26.787,26.787,0,0,0,54.8,19C47.2,19,47.2,21,39.6,21Z"/><path class="cls-4" d="M1,11v8.844A26.743,26.743,0,0,0,9.2,21c7.6,0,7.6-2,15.2-2s7.6,2,15.2,2,7.6-2,15.2-2A26.787,26.787,0,0,1,63,20.157V11Z"/><rect class="cls-2" x="6" y="16" width="11" height="11" rx="0.561" ry="0.561"/><polygon class="cls-1" points="14 16 14 24 6 24 14 16"/><polygon class="cls-5" points="14 16 6 24 6 16 14 16"/><rect class="cls-2" x="6" y="30" width="11" height="11" rx="0.561" ry="0.561"/><polygon class="cls-1" points="14 30 14 38 6 38 14 30"/><polygon class="cls-5" points="14 30 6 38 6 30 14 30"/><rect class="cls-2" x="6" y="44" width="11" height="11" rx="0.561" ry="0.561"/><polygon class="cls-1" points="14 44 14 52 6 52 14 44"/><polygon class="cls-5" points="14 44 6 52 6 44 14 44"/><path class="cls-2" d="M56,41H51V38.33A6.592,6.592,0,0,0,53,37c2-2,2-3,2-3V32h1a2,2,0,0,0,0-4H55V25h3s0-8-7-8H46s-5,0-5,6v5H40a2,2,0,0,0,0,4h1v2s0,1,2,3a6.592,6.592,0,0,0,2,1.33V41H40s-5,0-5,5V56H61V46C61,41,56,41,56,41Z"/><path class="cls-6" d="M52,28a2,2,0,0,1,0,4H51V28Z"/><path class="cls-7" d="M37,29V23c0-6,5-6,5-6h5c7,0,7,8,7,8H43C43,28,37,29,37,29Z"/><path class="cls-6" d="M37,29v3H36a2,2,0,0,1,0-4h1Z"/><path class="cls-6" d="M41,38.33A6.592,6.592,0,0,1,39,37c-2-2-2-3-2-3V29s6-1,6-4h8v9s0,1-2,3a6.592,6.592,0,0,1-2,1.33A8.459,8.459,0,0,1,44,39,8.459,8.459,0,0,1,41,38.33Z"/><path class="cls-8" d="M47,41v1a3,3,0,0,1-6,0V38.33A8.459,8.459,0,0,0,44,39a8.459,8.459,0,0,0,3-.67Z"/><path class="cls-9" d="M44,45a2.938,2.938,0,0,0,3-3l3,3s-2,4-6,4Z"/><path class="cls-9" d="M44,45v4c-4,0-6-4-6-4l3-3A2.938,2.938,0,0,0,44,45Z"/><path class="cls-10" d="M38,45s2,4,6,4,6-4,6-4l-3-3V41h5s5,0,5,5V63H31V46c0-5,5-5,5-5h5v1Z"/><path class="cls-8" d="M51,25H43c0,3-6,4-6,4v.168A31.293,31.293,0,0,1,40.394,29C46.049,29,47.5,30.106,51,30.673V25Z"/><path class="cls-11" d="M37,28v1s6-1,6-4H37Z"/><path class="cls-12" d="M36,41s-5,0-5,5V63h6V41Z"/><path class="cls-12" d="M52,41H51V63h6V46C57,41,52,41,52,41Z"/><rect class="cls-5" x="5" y="5" width="2" height="2"/><rect class="cls-5" x="14" y="5" width="45" height="2"/><path d="M52,40H48V38.938a7.034,7.034,0,0,0,1.707-1.231C51.834,35.579,52,34.332,52,34V33a3,3,0,0,0,0-6V26h2a1,1,0,0,0,1-1c0-3.113-1.672-9-8-9H42c-2.075,0-6,1.463-6,7v4a3,3,0,0,0,0,6v1c0,.332.166,1.579,2.293,3.707A7.034,7.034,0,0,0,40,38.938V40H36a5.785,5.785,0,0,0-6,6V63a1,1,0,0,0,1,1H57a1,1,0,0,0,1-1V46A5.785,5.785,0,0,0,52,40ZM35,30a1,1,0,0,1,1-1v2A1,1,0,0,1,35,30Zm5.477,13.937A3.633,3.633,0,0,0,43,45.9v2a6.472,6.472,0,0,1-3.736-2.744ZM45,45.9a3.633,3.633,0,0,0,2.523-1.959l1.213,1.213A6.474,6.474,0,0,1,45,47.894ZM53,30a1,1,0,0,1-1,1V29A1,1,0,0,1,53,30ZM38,23c0-4.809,3.6-5,4-5h5c4.589,0,5.668,4.06,5.922,6H43a1,1,0,0,0-1,1c0,1.3-2.243,2.272-4,2.752Zm0,10.995V29.816c1.652-.385,5.07-1.456,5.843-3.816H50l0,7.919c0,.008-.144.808-1.711,2.374a6.252,6.252,0,0,1-8.586,0A6.466,6.466,0,0,1,38,33.995ZM44,40a8.515,8.515,0,0,0,2-.291V42a2,2,0,0,1-4,0V39.709A8.515,8.515,0,0,0,44,40ZM56,62H52V50H50V62H38V50H36V62H32V46a3.85,3.85,0,0,1,4-4h3.586l-2.293,2.293a1,1,0,0,0-.188,1.154c.087.172,2.005,3.9,5.9,4.473V59h2V49.92c3.89-.57,5.808-4.3,5.9-4.473a1,1,0,0,0-.188-1.154L48.414,42H52c.163,0,4,.046,4,4Z"/><path d="M61,0H3A3,3,0,0,0,0,3V54a3,3,0,0,0,3,3H28V55H3a1,1,0,0,1-1-1V12H62V54a1,1,0,0,1-1,1H60v2h1a3,3,0,0,0,3-3V3A3,3,0,0,0,61,0ZM2,10V3A1,1,0,0,1,3,2H61a1,1,0,0,1,1,1v7Z"/><rect x="9" y="5" width="2" height="2"/><path d="M15,16a1,1,0,0,0-1-1H6a1,1,0,0,0-1,1v8a1,1,0,0,0,1,1h8a1,1,0,0,0,1-1Zm-3.414,1L7,21.586V17ZM8.414,23,13,18.414V23Z"/><path d="M15,30a1,1,0,0,0-1-1H6a1,1,0,0,0-1,1v8a1,1,0,0,0,1,1h8a1,1,0,0,0,1-1Zm-3.414,1L7,35.586V31ZM8.414,37,13,32.414V37Z"/><path d="M14,43H6a1,1,0,0,0-1,1v8a1,1,0,0,0,1,1h8a1,1,0,0,0,1-1V44A1,1,0,0,0,14,43Zm-2.414,2L7,49.586V45ZM8.414,51,13,46.414V51Z"/><rect x="18" y="15" width="16" height="2"/><rect x="18" y="20" width="10" height="2"/><rect x="18" y="29" width="13" height="2"/><rect x="18" y="34" width="10" height="2"/><rect x="18" y="43" width="7" height="2"/><rect x="18" y="48" width="5" height="2"/></g></svg>