<svg xmlns="http://www.w3.org/2000/svg" viewBox="0 0 64 64"><defs><style>.cls-1{fill:#dfe1ea;}.cls-2{fill:#adb2c7;}.cls-3{fill:#cdd2e1;}.cls-4{fill:#f6fafd;}.cls-5{fill:#fff;}.cls-6{fill:#ffa426;}.cls-7{fill:#8dd5f6;}</style></defs><title>2-Coding</title><g id="_2-Coding" data-name="2-Coding"><path class="cls-1" d="M63,11V61a2.006,2.006,0,0,1-2,2H3a2.006,2.006,0,0,1-2-2V11Z"/><path class="cls-2" d="M61,1a2.006,2.006,0,0,1,2,2v8H1V3A2.006,2.006,0,0,1,3,1Z"/><path class="cls-3" d="M39.6,21c-7.6,0-7.6-2-15.2-2s-7.6,2-15.2,2A26.743,26.743,0,0,1,1,19.844v8A26.743,26.743,0,0,0,9.2,29c7.6,0,7.6-2,15.2-2s7.6,2,15.2,2,7.6-2,15.2-2A26.787,26.787,0,0,1,63,28.157v-8A26.787,26.787,0,0,0,54.8,19C47.2,19,47.2,21,39.6,21Z"/><path class="cls-4" d="M1,11v8.844A26.743,26.743,0,0,0,9.2,21c7.6,0,7.6-2,15.2-2s7.6,2,15.2,2,7.6-2,15.2-2A26.787,26.787,0,0,1,63,20.157V11Z"/><path class="cls-2" d="M61.054,16H38.946a.945.945,0,0,0-.946.946V37.054a.945.945,0,0,1-.946.946H33.946a.945.945,0,0,0-.946.946V62.054a.945.945,0,0,0,.946.946H56.054A.945.945,0,0,0,57,62.054V41.946A.945.945,0,0,1,57.946,41h3.108A.945.945,0,0,0,62,40.054V16.946A.945.945,0,0,0,61.054,16Z"/><circle class="cls-2" cx="20" cy="31" r="13"/><rect class="cls-5" x="38" y="23" width="20" height="14"/><rect class="cls-6" x="38" y="15" width="20" height="8"/><rect class="cls-1" x="41" y="26" width="14" height="8"/><rect class="cls-5" x="33" y="45" width="20" height="14"/><rect class="cls-7" x="33" y="37" width="20" height="8"/><rect class="cls-1" x="36" y="48" width="14" height="8"/><circle class="cls-5" cx="18" cy="28" r="13"/><rect class="cls-5" x="5" y="5" width="2" height="2"/><rect class="cls-5" x="14" y="5" width="45" height="2"/><rect class="cls-5" x="41" y="18" width="2" height="2"/><rect class="cls-5" x="45" y="18" width="2" height="2"/><rect class="cls-5" x="40" y="40" width="2" height="2"/><rect class="cls-5" x="36" y="40" width="2" height="2"/><path d="M61,0H3A3,3,0,0,0,0,3V61a3,3,0,0,0,3,3H61a3,3,0,0,0,3-3V3A3,3,0,0,0,61,0ZM3,2H61a1,1,0,0,1,1,1v7H2V3A1,1,0,0,1,3,2ZM61,62H3a1,1,0,0,1-1-1V12H62V61A1,1,0,0,1,61,62Z"/><path d="M18,42A14,14,0,1,0,4,28,14.015,14.015,0,0,0,18,42Zm0-26A12,12,0,1,1,6,28,12.013,12.013,0,0,1,18,16Z"/><path d="M14.707,32.293,10.414,28l4.293-4.293-1.414-1.414-5,5a1,1,0,0,0,0,1.414l5,5Z"/><path d="M22.707,33.707l5-5a1,1,0,0,0,0-1.414l-5-5-1.414,1.414L25.586,28l-4.293,4.293Z"/><path d="M58,14H38a1,1,0,0,0-1,1V36H33a1,1,0,0,0-1,1V59a1,1,0,0,0,1,1H53a1,1,0,0,0,1-1V38h4a1,1,0,0,0,1-1V15A1,1,0,0,0,58,14Zm-1,2v6H39V16ZM34,58V46H52V58ZM52,44H34V38H52Zm1-8H39V24H57V36Z"/><rect x="7" y="56" width="21" height="2"/><rect x="7" y="51" width="21" height="2"/><rect x="15" y="46" width="13" height="2"/><rect x="7" y="46" width="4" height="2"/><rect x="9" y="5" width="2" height="2"/><rect x="11.917" y="27" width="12.166" height="2" transform="translate(-12.58 41.147) rotate(-80.528)"/></g></svg>