<svg xmlns="http://www.w3.org/2000/svg" viewBox="0 0 64 64"><defs><style>.cls-1{fill:#8dd5f6;}.cls-2{fill:#dfe1ea;}.cls-3{fill:#adb2c7;}.cls-4{fill:#aedff7;}.cls-5{fill:#f6fafd;}.cls-6{fill:#0096cf;}.cls-7{fill:#9196aa;}.cls-8{fill:#fff;}</style></defs><title>74-C Code</title><g id="_74-C_Code" data-name="74-C Code"><rect class="cls-1" x="7" y="13" width="50" height="35" rx="1" ry="1"/><path class="cls-2" d="M61,10V52H40v2a1,1,0,0,1-1,1H25a1,1,0,0,1-1-1V52H3V10L4,9H60ZM57,47V14a1,1,0,0,0-1-1H8a1,1,0,0,0-1,1V47a1,1,0,0,0,1,1H56A1,1,0,0,0,57,47Z"/><path class="cls-3" d="M63,52v6l-1,1H2L1,58V52H24v2a1,1,0,0,0,1,1H39a1,1,0,0,0,1-1V52H63Z"/><path class="cls-4" d="M55.8,21c-7.6,0-7.6,2-15.2,2s-7.6-2-15.2-2-7.6,2-15.2,2A31.65,31.65,0,0,1,7,22.85v7a31.65,31.65,0,0,0,3.2.15c7.6,0,7.6-2,15.2-2s7.6,2,15.2,2,7.6-2,15.2-2c.43,0,.82.01,1.2.022v-7C56.617,21.01,56.227,21,55.8,21Z"/><path class="cls-5" d="M25.394,21c7.6,0,7.6,2,15.2,2s7.6-2,15.2-2c.43,0,.82.01,1.2.022V14a1,1,0,0,0-1-1H8a1,1,0,0,0-1,1v8.85a31.65,31.65,0,0,0,3.2.15C17.794,23,17.794,21,25.394,21Z"/><path class="cls-6" d="M40.6,30a31.021,31.021,0,0,1-3.567-.184L35.98,31.19l.71,2.12,2.12.71,3.46-2.64a10.8,10.8,0,0,0,3.15,1.3L46,37l2,1,2-1,.58-4.32a10.8,10.8,0,0,0,3.15-1.3l3.27,2.5V28.022c-.383-.012-.773-.022-1.2-.022C48.2,28,48.2,30,40.6,30Z"/><path class="cls-6" d="M53.918,21.051A6.066,6.066,0,0,1,54,22a6,6,0,0,1-11.914.969c-.466.019-.956.031-1.491.031a27.628,27.628,0,0,1-8.482-1.227L32,22l1,2,4.32.58a10.8,10.8,0,0,0,1.3,3.15l-1.592,2.086A31.021,31.021,0,0,0,40.6,30c7.6,0,7.6-2,15.2-2,.43,0,.82.01,1.2.022v-7c-.383-.012-.773-.022-1.2-.022C55.106,21,54.5,21.021,53.918,21.051Z"/><path class="cls-6" d="M37.32,19.42,33,20l-.887,1.773A27.628,27.628,0,0,0,40.6,23c.535,0,1.025-.012,1.491-.031a5.993,5.993,0,1,1,11.832-1.918C54.5,21.021,55.106,21,55.8,21c.43,0,.82.01,1.2.022V14a.986.986,0,0,0-.079-.388,1.007,1.007,0,0,0-.533-.533A.982.982,0,0,0,56,13H36.125l2.495,3.27A10.8,10.8,0,0,0,37.32,19.42Z"/><path class="cls-7" d="M60,19l1,2-1,2-4.32.58a10.8,10.8,0,0,1-1.3,3.15l2.64,3.46-.71,2.12-2.12.71-3.46-2.64a10.8,10.8,0,0,1-3.15,1.3L47,36l-2,1-2-1-.58-4.32a10.8,10.8,0,0,1-3.15-1.3l-3.46,2.64-2.12-.71-.71-2.12,2.64-3.46a10.8,10.8,0,0,1-1.3-3.15L30,23l-1-2,1-2,4.32-.58a10.8,10.8,0,0,1,1.3-3.15l-2.64-3.46.71-2.12,2.12-.71,3.46,2.64a10.8,10.8,0,0,1,3.15-1.3L43,6l2-1,2,1,.58,4.32a10.8,10.8,0,0,1,3.15,1.3l3.46-2.64,2.12.71.71,2.12-2.64,3.46a10.8,10.8,0,0,1,1.3,3.15Zm-9,2a6,6,0,1,0-6,6A6,6,0,0,0,51,21Z"/><rect class="cls-3" x="39" y="39" width="5" height="5"/><rect class="cls-8" x="48" y="39" width="5" height="5"/><path d="M63,51H62V26H60V51H40a1,1,0,0,0-1,1v2H25V52a1,1,0,0,0-1-1H4V10.414L4.414,10H31V8H4a1,1,0,0,0-.707.293l-1,1A1,1,0,0,0,2,10V51H1a1,1,0,0,0-1,1v6a1,1,0,0,0,.293.707l1,1A1,1,0,0,0,2,60H62a1,1,0,0,0,.707-.293l1-1A1,1,0,0,0,64,58V52A1,1,0,0,0,63,51Zm-1,6.586L61.586,58H2.414L2,57.586V53H23v1a2,2,0,0,0,2,2H39a2,2,0,0,0,2-2V53H62Z"/><path d="M6,14V47a2,2,0,0,0,2,2H56a2,2,0,0,0,2-2V36H56V47H8V14H30V12H8A2,2,0,0,0,6,14Z"/><path d="M34.831,15.875l1.588-1.215L34.1,11.621l.382-1.143,1.143-.382,3.039,2.323a1,1,0,0,0,1.13.059,9.911,9.911,0,0,1,2.869-1.19,1,1,0,0,0,.757-.841l.505-3.79L45,6.118l1.079.539.505,3.79a1,1,0,0,0,.757.841,9.911,9.911,0,0,1,2.869,1.19,1,1,0,0,0,1.13-.059L54.379,10.1l1.143.382.382,1.143L53.581,14.66a1,1,0,0,0-.059,1.13,9.911,9.911,0,0,1,1.19,2.869,1,1,0,0,0,.841.757l3.79.5L59.882,21l-.539,1.079-3.79.5a1,1,0,0,0-.841.757,9.911,9.911,0,0,1-1.19,2.869,1,1,0,0,0,.059,1.13L55.9,30.379l-.382,1.143-1.143.382L51.34,29.581a1,1,0,0,0-1.13-.059,9.911,9.911,0,0,1-2.869,1.19,1,1,0,0,0-.757.841l-.575,4.315,1.982.264.488-3.657a11.867,11.867,0,0,0,2.174-.9l2.932,2.241a.992.992,0,0,0,.924.155l2.121-.707a.994.994,0,0,0,.632-.632l.707-2.121a1,1,0,0,0-.155-.924l-2.241-2.932a11.867,11.867,0,0,0,.9-2.174l3.657-.488a1,1,0,0,0,.763-.544l1-2a1,1,0,0,0,0-.894l-1-2a1,1,0,0,0-.763-.544l-3.657-.488a11.867,11.867,0,0,0-.9-2.174l2.241-2.932a1,1,0,0,0,.155-.924L57.262,9.37a.994.994,0,0,0-.632-.632l-2.121-.707a.989.989,0,0,0-.924.155l-2.932,2.241a11.867,11.867,0,0,0-2.174-.9l-.488-3.657a1,1,0,0,0-.544-.763l-2-1a1,1,0,0,0-.894,0l-2,1a1,1,0,0,0-.544.763l-.488,3.657a11.867,11.867,0,0,0-2.174.9L36.415,8.186a.991.991,0,0,0-.924-.155l-2.121.707a.994.994,0,0,0-.632.632l-.707,2.121a1,1,0,0,0,.155.924Z"/><path d="M46.667,25.715l.666,1.887A7,7,0,1,0,38,21h2a5,5,0,1,1,6.667,4.715Z"/><path d="M53,45a1,1,0,0,0,1-1V39a1,1,0,0,0-1-1H48a1,1,0,0,0-1,1v5a1,1,0,0,0,1,1Zm-4-5h3v3H49Z"/><path d="M39,38a1,1,0,0,0-1,1v5a1,1,0,0,0,1,1h5a1,1,0,0,0,1-1V39a1,1,0,0,0-1-1Zm4,5H40V40h3Z"/><path d="M18,23a3,3,0,0,1,3,3h2a5,5,0,0,0-10,0v8a5,5,0,0,0,10,0H21a3,3,0,0,1-6,0V26A3,3,0,0,1,18,23Z"/><polygon points="29 34 29 31 32 31 32 29 29 29 29 26 27 26 27 29 24 29 24 31 27 31 27 34 29 34"/><polygon points="38 29 35 29 35 31 38 31 38 34 40 34 40 31 43 31 43 29 40 29 40 26 38 26 38 29"/></g></svg>