<svg xmlns="http://www.w3.org/2000/svg" viewBox="0 0 64 64"><defs><style>.cls-1{fill:#dfe1ea;}.cls-2{fill:#adb2c7;}.cls-3{fill:#cdd2e1;}.cls-4{fill:#f6fafd;}.cls-5{fill:#fff;}.cls-6{fill:#73c6b2;}</style></defs><title>61-Error</title><g id="_61-Error" data-name="61-Error"><path class="cls-1" d="M63,11V61a2.006,2.006,0,0,1-2,2H3a2.006,2.006,0,0,1-2-2V11Z"/><path class="cls-2" d="M61,1a2.006,2.006,0,0,1,2,2v8H1V3A2.006,2.006,0,0,1,3,1Z"/><path class="cls-3" d="M39.6,21c-7.6,0-7.6-2-15.2-2s-7.6,2-15.2,2A26.743,26.743,0,0,1,1,19.844v8A26.743,26.743,0,0,0,9.2,29c7.6,0,7.6-2,15.2-2s7.6,2,15.2,2,7.6-2,15.2-2A26.787,26.787,0,0,1,63,28.157v-8A26.787,26.787,0,0,0,54.8,19C47.2,19,47.2,21,39.6,21Z"/><path class="cls-4" d="M1,11v8.844A26.743,26.743,0,0,0,9.2,21c7.6,0,7.6-2,15.2-2s7.6,2,15.2,2,7.6-2,15.2-2A26.787,26.787,0,0,1,63,20.157V11Z"/><rect class="cls-2" x="7" y="23" width="22" height="23" rx="1.576" ry="1.576"/><rect class="cls-5" x="6" y="29" width="20" height="14"/><rect class="cls-6" x="6" y="21" width="20" height="8"/><rect class="cls-1" x="9" y="32" width="14" height="8"/><rect class="cls-5" x="5" y="5" width="2" height="2"/><rect class="cls-5" x="14" y="5" width="45" height="2"/><rect class="cls-5" x="9" y="24" width="2" height="2"/><rect class="cls-5" x="13" y="24" width="2" height="2"/><path d="M61,0H3A3,3,0,0,0,0,3V61a3,3,0,0,0,3,3H61a3,3,0,0,0,3-3V3A3,3,0,0,0,61,0ZM3,2H61a1,1,0,0,1,1,1v7H2V3A1,1,0,0,1,3,2ZM61,62H3a1,1,0,0,1-1-1V12H62V61A1,1,0,0,1,61,62Z"/><rect x="9" y="5" width="2" height="2"/><path d="M7,30H25v1h2V21a1,1,0,0,0-1-1H6a1,1,0,0,0-1,1V43a1,1,0,0,0,1,1H19V42H7Zm18-8v6H7V22Z"/><path d="M30,34a1,1,0,0,0-1-1H26a1,1,0,0,0-.94.658l-4,11A1.026,1.026,0,0,0,21,45a2.916,2.916,0,0,0,3,3h4v4h2V48h3V46H30ZM28,46H24a.888.888,0,0,1-.99-.853L26.7,35H28Z"/><path d="M56,34a1,1,0,0,0-1-1H52a1,1,0,0,0-.94.658l-4,11A1.026,1.026,0,0,0,47,45a2.916,2.916,0,0,0,3,3h4v4h2V48h3V46H56ZM54,46H50a.888.888,0,0,1-.99-.853L52.7,35H54Z"/><path d="M42,33H38a3,3,0,0,0-3,3V49a3,3,0,0,0,3,3h4a3,3,0,0,0,3-3V36A3,3,0,0,0,42,33Zm1,16a1,1,0,0,1-1,1H38a1,1,0,0,1-1-1V36a1,1,0,0,1,1-1h4a1,1,0,0,1,1,1Z"/><path d="M13.293,32.293l-3,3a1,1,0,0,0,0,1.414l3,3,1.414-1.414L12.414,36l2.293-2.293Z"/><path d="M18.707,39.707l3-3a1,1,0,0,0,0-1.414l-3-3-1.414,1.414L19.586,36l-2.293,2.293Z"/><rect x="30" y="29" width="11" height="2"/><rect x="30" y="25" width="6" height="2"/></g></svg>