<svg xmlns="http://www.w3.org/2000/svg" viewBox="0 0 64 64"><defs><style>.cls-1{fill:#dfe1ea;}.cls-2{fill:#8dd5f6;}.cls-3{fill:#aedff7;}.cls-4{fill:#f6fafd;}.cls-5{fill:#0096cf;}.cls-6{fill:#f2f6fc;}.cls-7{fill:#ffa426;}.cls-8{fill:#ffc247;}.cls-9{fill:#fff;}</style></defs><title>9-App Coding</title><g id="_9-App_Coding" data-name="9-App Coding"><path class="cls-1" d="M47,4V60a3,3,0,0,1-3,3H10a3,3,0,0,1-3-3V4a3,3,0,0,1,3-3H44A3,3,0,0,1,47,4ZM43,58V7a.979.979,0,0,0-1-1H34s-1,2-2,2H22c-1,0-2-2-2-2H12a.979.979,0,0,0-1,1V58a.979.979,0,0,0,1,1H42A.979.979,0,0,0,43,58Z"/><path class="cls-2" d="M43,7V58a.979.979,0,0,1-1,1H12a.979.979,0,0,1-1-1V7a.979.979,0,0,1,1-1h8s1,2,2,2H32c1,0,2-2,2-2h8A.979.979,0,0,1,43,7Z"/><path class="cls-3" d="M38.6,17c-7.6,0-7.6-2-15.2-2C16.872,15,15.935,16.47,11,16.888v7C15.935,23.47,16.872,22,23.394,22c7.6,0,7.6,2,15.2,2A28.636,28.636,0,0,0,43,23.7v-7A28.636,28.636,0,0,1,38.6,17Z"/><path class="cls-4" d="M11,7v9.888C15.935,16.47,16.872,15,23.394,15c7.6,0,7.6,2,15.2,2A28.636,28.636,0,0,0,43,16.7V7a.979.979,0,0,0-1-1H34s-1,2-2,2H22c-1,0-2-2-2-2H12A.979.979,0,0,0,11,7Z"/><path class="cls-5" d="M38.5,17A18.5,18.5,0,1,0,43,53.426V17.574A18.5,18.5,0,0,0,38.5,17Z"/><circle class="cls-6" cx="39" cy="33" r="18"/><circle class="cls-7" cx="39" cy="33" r="15"/><path class="cls-8" d="M51.994,25.528A26.584,26.584,0,0,1,46.6,26c-7.6,0-7.6-2-15.2-2a28.129,28.129,0,0,0-4.622.332A14.914,14.914,0,0,0,24,32.946,25.426,25.426,0,0,1,31.394,32c7.6,0,7.6,2,15.2,2a25.438,25.438,0,0,0,7.4-.948c0-.018,0-.035,0-.052A14.911,14.911,0,0,0,51.994,25.528Z"/><path d="M58,33A19.015,19.015,0,0,0,48,16.273V4a4,4,0,0,0-4-4H10A4,4,0,0,0,6,4V60a4,4,0,0,0,4,4H44a4,4,0,0,0,4-4V49.727A19.015,19.015,0,0,0,58,33ZM46,60a2,2,0,0,1-2,2H10a2,2,0,0,1-2-2V4a2,2,0,0,1,2-2H44a2,2,0,0,1,2,2V15.353a18.662,18.662,0,0,0-2-.663V7a1.959,1.959,0,0,0-2-2H34a1,1,0,0,0-.894.551A4.184,4.184,0,0,1,32,7l-9.955,0a3.765,3.765,0,0,1-1.151-1.454A1,1,0,0,0,20,5H12a1.959,1.959,0,0,0-2,2V58a1.959,1.959,0,0,0,2,2H42a1.959,1.959,0,0,0,2-2V51.31a18.662,18.662,0,0,0,2-.663ZM42,14.261a19,19,0,1,0,0,37.478V58H12V7h7.412C19.9,7.807,20.827,9,22,9H32c1.173,0,2.1-1.193,2.588-2H42ZM39,50A17,17,0,1,1,56,33,17.019,17.019,0,0,1,39,50Z"/><path d="M28.228,26.366a1,1,0,0,0-.208.829c.162.826.3,2.772-.31,3.514A.812.812,0,0,1,27,31a1,1,0,0,0-1,1v2a1,1,0,0,0,1,1,.812.812,0,0,1,.71.291c.61.742.472,2.688.31,3.514A1,1,0,0,0,29,40h2V38h-.865a5.865,5.865,0,0,0-.877-3.977A2.715,2.715,0,0,0,28,33.155v-.31a2.715,2.715,0,0,0,1.258-.868A5.865,5.865,0,0,0,30.135,28H31V26H29A1,1,0,0,0,28.228,26.366Z"/><path d="M51,31a.812.812,0,0,1-.71-.291c-.61-.742-.472-2.688-.31-3.514A1,1,0,0,0,49,26H47v2h.865a5.865,5.865,0,0,0,.877,3.977A2.715,2.715,0,0,0,50,32.845v.31a2.715,2.715,0,0,0-1.258.868A5.865,5.865,0,0,0,47.865,38H47v2h2a1,1,0,0,0,.98-1.2c-.162-.826-.3-2.772.31-3.514A.812.812,0,0,1,51,35a1,1,0,0,0,1-1V32A1,1,0,0,0,51,31Z"/><rect x="38" y="32" width="2" height="2"/><rect class="cls-9" x="43" y="32" width="2" height="2"/><rect class="cls-9" x="33" y="32" width="2" height="2"/></g></svg>