<svg xmlns="http://www.w3.org/2000/svg" viewBox="0 0 64 64"><defs><style>.cls-1{fill:#dfe1ea;}.cls-2{fill:#adb2c7;}.cls-3{fill:#cdd2e1;}.cls-4{fill:#f6fafd;}.cls-5{fill:#fff;}.cls-6{fill:#ff636e;}.cls-7{fill:#ffa426;}.cls-8{fill:#8dd5f6;}.cls-9{fill:#f5d882;}.cls-10{fill:#b5efff;}</style></defs><title>20-Report</title><g id="_20-Report" data-name="20-Report"><path class="cls-1" d="M63,11V54a2.006,2.006,0,0,1-2,2H3a2.006,2.006,0,0,1-2-2V11Z"/><path class="cls-2" d="M61,1a2.006,2.006,0,0,1,2,2v8H1V3A2.006,2.006,0,0,1,3,1Z"/><path class="cls-3" d="M39.6,21c-7.6,0-7.6-2-15.2-2s-7.6,2-15.2,2A26.743,26.743,0,0,1,1,19.844v8A26.743,26.743,0,0,0,9.2,29c7.6,0,7.6-2,15.2-2s7.6,2,15.2,2,7.6-2,15.2-2A26.787,26.787,0,0,1,63,28.157v-8A26.787,26.787,0,0,0,54.8,19C47.2,19,47.2,21,39.6,21Z"/><path class="cls-4" d="M1,11v8.844A26.743,26.743,0,0,0,9.2,21c7.6,0,7.6-2,15.2-2s7.6,2,15.2,2,7.6-2,15.2-2A26.787,26.787,0,0,1,63,20.157V11Z"/><rect class="cls-2" x="40" y="17" width="22" height="23" rx="1.576" ry="1.576"/><rect class="cls-5" x="39" y="23" width="20" height="14"/><rect class="cls-6" x="39" y="15" width="20" height="8"/><rect class="cls-1" x="42" y="26" width="14" height="8"/><g id="_Group_" data-name="&lt;Group&gt;"><path class="cls-3" d="M46.08,37A20,20,0,0,1,12.86,57.14L14,57,27,44V23A20,20,0,0,1,46.08,37Z"/><path class="cls-7" d="M27,23V44H7.03c-.02-.33-.03-.67-.03-1A19.994,19.994,0,0,1,27,23Z"/><path class="cls-8" d="M14,57l-1.14.14A19.9,19.9,0,0,1,7.03,44H27Z"/><path class="cls-9" d="M7.03,44H27V39.257A28.063,28.063,0,0,0,18.394,38c-5.912,0-7.237,1.207-11.106,1.745A20.059,20.059,0,0,0,7,43C7,43.33,7.01,43.67,7.03,44Z"/><path class="cls-10" d="M14,57l4.913-4.913C18.17,52.033,17.344,52,16.394,52a25.36,25.36,0,0,0-6.829.8,20.044,20.044,0,0,0,3.3,4.344Z"/><path class="cls-2" d="M27,44,14,57l-1.14.14a19.961,19.961,0,0,0,27.76.48Z"/><rect class="cls-5" x="5" y="5" width="2" height="2"/><rect class="cls-5" x="14" y="5" width="45" height="2"/><rect class="cls-5" x="42" y="18" width="2" height="2"/><rect class="cls-5" x="46" y="18" width="2" height="2"/><path d="M61,0H3A3,3,0,0,0,0,3V54a3,3,0,0,0,3,3H7V55H3a1,1,0,0,1-1-1V12H62V54a1,1,0,0,1-1,1H47v2H61a3,3,0,0,0,3-3V3A3,3,0,0,0,61,0ZM2,10V3A1,1,0,0,1,3,2H61a1,1,0,0,1,1,1v7Z"/><rect x="9" y="5" width="2" height="2"/><path d="M47.39,38H59a1,1,0,0,0,1-1V15a1,1,0,0,0-1-1H39a1,1,0,0,0-1,1V25.117A20.8,20.8,0,0,0,27,22,21.024,21.024,0,0,0,6,43c0,.351.011.711.031,1.049A21,21,0,1,0,47.39,38Zm-.606-2A21.1,21.1,0,0,0,40,26.526V24H58V36ZM58,16v6H40V16ZM26,24.051V43H8A19.007,19.007,0,0,1,26,24.051ZM8.129,45H24.586L13.37,56.216A18.908,18.908,0,0,1,8.129,45ZM27,62a18.849,18.849,0,0,1-12.167-4.419L27.707,44.707A1,1,0,0,0,28,44V24.04A18.8,18.8,0,0,1,38.4,27.8a19.084,19.084,0,0,1,6.726,9.5v0A19,19,0,0,1,27,62Z"/><path d="M8.293,14.293l-3,3a1,1,0,0,0,0,1.414l3,3,1.414-1.414L7.414,18l2.293-2.293Z"/><path d="M17.707,21.707l3-3a1,1,0,0,0,0-1.414l-3-3-1.414,1.414L18.586,18l-2.293,2.293Z"/><rect x="9.36" y="17.5" width="7.28" height="2.001" transform="translate(-8.36 25.916) rotate(-74.051)"/></g></g></svg>