<svg xmlns="http://www.w3.org/2000/svg" viewBox="0 0 64 64"><defs><style>.cls-1{fill:#dfe1ea;}.cls-2{fill:#adb2c7;}.cls-3{fill:#cdd2e1;}.cls-4{fill:#f6fafd;}.cls-5{fill:#fff;}.cls-6{fill:#ff636e;}.cls-7{fill:#73c6b2;}.cls-8{fill:#ff475a;}.cls-9{fill:#ffa8ad;}</style></defs><title>4-Browser</title><g id="_4-Browser" data-name="4-Browser"><path class="cls-1" d="M63,11V61a2.006,2.006,0,0,1-2,2H3a2.006,2.006,0,0,1-2-2V11Z"/><path class="cls-2" d="M61,1a2.006,2.006,0,0,1,2,2v8H1V3A2.006,2.006,0,0,1,3,1Z"/><path class="cls-3" d="M39.6,21c-7.6,0-7.6-2-15.2-2s-7.6,2-15.2,2A26.743,26.743,0,0,1,1,19.844v8A26.743,26.743,0,0,0,9.2,29c7.6,0,7.6-2,15.2-2s7.6,2,15.2,2,7.6-2,15.2-2A26.787,26.787,0,0,1,63,28.157v-8A26.787,26.787,0,0,0,54.8,19C47.2,19,47.2,21,39.6,21Z"/><path class="cls-4" d="M1,11v8.844A26.743,26.743,0,0,0,9.2,21c7.6,0,7.6-2,15.2-2s7.6,2,15.2,2,7.6-2,15.2-2A26.787,26.787,0,0,1,63,20.157V11Z"/><rect class="cls-2" x="7" y="18" width="26" height="21" rx="1.073" ry="1.073"/><path class="cls-2" d="M28,29.561V61.01a.561.561,0,0,1-.849.481l-3.863-2.318a.561.561,0,0,0-.576,0l-3.863,2.318A.561.561,0,0,1,18,61.01V29.561A.561.561,0,0,1,18.561,29h8.878A.561.561,0,0,1,28,29.561Z"/><rect class="cls-5" x="5" y="5" width="2" height="2"/><rect class="cls-5" x="14" y="5" width="45" height="2"/><polygon class="cls-6" points="25 37 25 59 20 56 15 59 15 36 25 36 25 37"/><polygon class="cls-7" points="29 16 29 36 25 36 15 36 5 36 5 16 29 16"/><path class="cls-8" d="M20.394,39A26.628,26.628,0,0,0,15,39.471v7A26.628,26.628,0,0,1,20.394,46,28.241,28.241,0,0,1,25,46.329v-7A28.241,28.241,0,0,0,20.394,39Z"/><path class="cls-9" d="M25,39.329V36H15v3.471A26.628,26.628,0,0,1,20.394,39,28.241,28.241,0,0,1,25,39.329Z"/><path d="M61,0H3A3,3,0,0,0,0,3V61a3,3,0,0,0,3,3H61a3,3,0,0,0,3-3V3A3,3,0,0,0,61,0ZM3,2H61a1,1,0,0,1,1,1v7H2V3A1,1,0,0,1,3,2ZM61,62H3a1,1,0,0,1-1-1V12H62V61A1,1,0,0,1,61,62Z"/><rect x="9" y="5" width="2" height="2"/><path d="M30,36V16a1,1,0,0,0-1-1H5a1,1,0,0,0-1,1V36a1,1,0,0,0,1,1h9V59a1,1,0,0,0,1.515.857L20,57.166l4.485,2.691A1,1,0,0,0,26,59V37h3A1,1,0,0,0,30,36ZM24,57.234l-3.485-2.091a1,1,0,0,0-1.03,0L16,57.234V37h8ZM28,35H6V17H28Z"/><rect x="4" y="40" width="8" height="2"/><rect x="4" y="45" width="8" height="2"/><rect x="4" y="50" width="8" height="2"/><rect x="28" y="40" width="32" height="2"/><rect x="32" y="35" width="28" height="2"/><rect x="32" y="30" width="28" height="2"/><rect x="32" y="25" width="28" height="2"/><rect x="32" y="20" width="28" height="2"/><rect x="37" y="15" width="23" height="2"/><rect x="28" y="45" width="32" height="2"/><rect x="28" y="50" width="32" height="2"/><rect x="4" y="55" width="8" height="2"/><rect x="54" y="55" width="6" height="2"/><rect x="28" y="55" width="24" height="2"/><rect class="cls-5" x="8" y="19" width="18" height="14"/></g></svg>