<svg xmlns="http://www.w3.org/2000/svg" viewBox="0 0 64 64"><defs><style>.cls-1{fill:#dfe1ea;}.cls-2{fill:#adb2c7;}.cls-3{fill:#cdd2e1;}.cls-4{fill:#e9edf5;}.cls-5{fill:#fff;}</style></defs><title>37-Coding</title><g id="_37-Coding" data-name="37-Coding"><path class="cls-1" d="M63,11V61a2.006,2.006,0,0,1-2,2H3a2.006,2.006,0,0,1-2-2V11Z"/><path class="cls-2" d="M61,1a2.006,2.006,0,0,1,2,2v8H1V3A2.006,2.006,0,0,1,3,1Z"/><path class="cls-3" d="M39.6,21c-7.6,0-7.6-2-15.2-2s-7.6,2-15.2,2A26.743,26.743,0,0,1,1,19.844v8A26.743,26.743,0,0,0,9.2,29c7.6,0,7.6-2,15.2-2s7.6,2,15.2,2,7.6-2,15.2-2A26.787,26.787,0,0,1,63,28.157v-8A26.787,26.787,0,0,0,54.8,19C47.2,19,47.2,21,39.6,21Z"/><path class="cls-4" d="M1,11v8.844A26.743,26.743,0,0,0,9.2,21c7.6,0,7.6-2,15.2-2s7.6,2,15.2,2,7.6-2,15.2-2A26.787,26.787,0,0,1,63,20.157V11Z"/><path class="cls-2" d="M60,32l1,2-1,2-4.32.58a10.8,10.8,0,0,1-1.3,3.15l2.64,3.46-.71,2.12-2.12.71-3.46-2.64a10.8,10.8,0,0,1-3.15,1.3L47,49l-2,1-2-1-.58-4.32a10.8,10.8,0,0,1-3.15-1.3l-3.46,2.64-2.12-.71-.71-2.12,2.64-3.46a10.8,10.8,0,0,1-1.3-3.15L30,36l-1-2,1-2,4.32-.58a10.8,10.8,0,0,1,1.3-3.15l-2.64-3.46.71-2.12,2.12-.71,3.46,2.64a10.8,10.8,0,0,1,3.15-1.3L43,19l2-1,2,1,.58,4.32a10.8,10.8,0,0,1,3.15,1.3l3.46-2.64,2.12.71.71,2.12-2.64,3.46a10.8,10.8,0,0,1,1.3,3.15Zm-9,2a6,6,0,1,0-6,6A6,6,0,0,0,51,34Z"/><path class="cls-5" d="M57,31l1,2-1,2-4.32.58a10.8,10.8,0,0,1-1.3,3.15l2.64,3.46-.71,2.12-2.12.71-3.46-2.64a10.8,10.8,0,0,1-3.15,1.3L44,48l-2,1-2-1-.58-4.32a10.8,10.8,0,0,1-3.15-1.3l-3.46,2.64-2.12-.71-.71-2.12,2.64-3.46a10.8,10.8,0,0,1-1.3-3.15L27,35l-1-2,1-2,4.32-.58a10.8,10.8,0,0,1,1.3-3.15l-2.64-3.46.71-2.12,2.12-.71,3.46,2.64a10.8,10.8,0,0,1,3.15-1.3L40,18l2-1,2,1,.58,4.32a10.8,10.8,0,0,1,3.15,1.3l3.46-2.64,2.12.71.71,2.12-2.64,3.46a10.8,10.8,0,0,1,1.3,3.15Zm-9,2a6,6,0,1,0-6,6A6,6,0,0,0,48,33Z"/><rect class="cls-5" x="5" y="5" width="2" height="2"/><rect class="cls-5" x="14" y="5" width="45" height="2"/><path d="M61,0H3A3,3,0,0,0,0,3V61a3,3,0,0,0,3,3H61a3,3,0,0,0,3-3V3A3,3,0,0,0,61,0ZM3,2H61a1,1,0,0,1,1,1v7H2V3A1,1,0,0,1,3,2ZM61,62H3a1,1,0,0,1-1-1V12H62V61A1,1,0,0,1,61,62Z"/><rect x="9" y="5" width="2" height="2"/><path d="M57.9,30.553a1,1,0,0,0-.763-.544l-3.657-.488a11.954,11.954,0,0,0-.9-2.174l2.242-2.932a1,1,0,0,0,.155-.924l-.708-2.121a1,1,0,0,0-.632-.632l-2.121-.708a1,1,0,0,0-.924.155l-2.932,2.242a11.954,11.954,0,0,0-2.174-.9l-.488-3.657a1,1,0,0,0-.544-.763l-2-1a1,1,0,0,0-.894,0l-2,1a1,1,0,0,0-.544.763l-.488,3.657a11.954,11.954,0,0,0-2.174.9l-2.932-2.242a1,1,0,0,0-.924-.155l-2.121.708a1,1,0,0,0-.632.632l-.708,2.121a1,1,0,0,0,.155.924l2.646,3.46,1.588-1.215L31.1,23.621l.382-1.144,1.144-.382,3.039,2.324a1,1,0,0,0,1.13.059,9.934,9.934,0,0,1,2.869-1.19,1,1,0,0,0,.757-.84l.505-3.791L42,18.118l1.079.539.505,3.791a1,1,0,0,0,.757.84,9.934,9.934,0,0,1,2.869,1.19,1,1,0,0,0,1.13-.059L51.379,22.1l1.144.382.382,1.144L50.581,26.66a1,1,0,0,0-.059,1.13,9.934,9.934,0,0,1,1.19,2.869,1,1,0,0,0,.84.757l3.791.5L56.882,33l-.539,1.079-3.791.505a1,1,0,0,0-.84.757,9.934,9.934,0,0,1-1.19,2.869,1,1,0,0,0,.059,1.13l2.324,3.039-.382,1.144-1.144.382L48.34,41.581a1,1,0,0,0-1.13-.059,9.934,9.934,0,0,1-2.869,1.19,1,1,0,0,0-.757.84l-.575,4.316,1.982.264.488-3.657a11.954,11.954,0,0,0,2.174-.9l2.932,2.242a1.006,1.006,0,0,0,.924.155l2.121-.708a1,1,0,0,0,.632-.632l.708-2.121a1,1,0,0,0-.155-.924l-2.242-2.932a11.954,11.954,0,0,0,.9-2.174l3.657-.488a1,1,0,0,0,.763-.544l1-2a1,1,0,0,0,0-.894Z"/><path d="M42,38v2a7,7,0,1,0-7-7h2a5,5,0,1,1,5,5Z"/><rect x="9" y="31" width="22" height="2"/><rect x="17" y="27" width="10" height="2"/><path d="M35,37a3,3,0,0,1,3,3h2a5,5,0,1,0-5,5,3,3,0,1,1-3,3H30a5,5,0,1,0,5-5,3,3,0,0,1,0-6Z"/><path d="M23,37a3,3,0,0,1,3,3h2a5,5,0,1,0-5,5,3,3,0,1,1-3,3H18a5,5,0,1,0,5-5,3,3,0,0,1,0-6Z"/><path d="M11,37a3,3,0,0,1,3,3h2A5,5,0,0,0,6,40v8a5,5,0,0,0,10,0H14a3,3,0,0,1-6,0V40A3,3,0,0,1,11,37Z"/></g></svg>