<svg xmlns="http://www.w3.org/2000/svg" width="96" height="96" viewBox="0 0 96 96"><defs><style>.cls-1{fill:#96c0ff;}.cls-2{fill:#c3d4ef;}.cls-3{fill:#e5eefd;}.cls-4{fill:#283d54;}</style></defs><title>24.App</title><g id="_24.App" data-name="24.App"><rect class="cls-1" x="21" y="11" width="54" height="73" rx="1" ry="1"/><path class="cls-2" d="M80,5V91a4,4,0,0,1-4,4H20a4,4,0,0,1-4-4V5a4,4,0,0,1,4-4H76A4,4,0,0,1,80,5ZM75,83V12a1,1,0,0,0-1-1H22a1,1,0,0,0-1,1V83a1,1,0,0,0,1,1H74A1,1,0,0,0,75,83Z"/><g id="_Group_" data-name="&lt;Group&gt;"><polygon class="cls-2" points="60 70 63 74 33 74 36 70 60 70"/><polygon class="cls-2" points="60 54 63 58 33 58 36 54 60 54"/><polygon class="cls-2" points="60 38 63 42 33 42 36 38 60 38"/><path class="cls-3" d="M67,61v6a3,3,0,0,1-3,3H32a3,3,0,0,1-3-3V61a3,3,0,0,1,3-3H64A3,3,0,0,1,67,61Z"/><path class="cls-3" d="M67,45v6a3,3,0,0,1-3,3H32a3,3,0,0,1-3-3V45a3,3,0,0,1,3-3H64A3,3,0,0,1,67,45Z"/><path class="cls-3" d="M67,29v6a3,3,0,0,1-3,3H32a3,3,0,0,1-3-3V29a3,3,0,0,1,3-3H64A3,3,0,0,1,67,29Z"/><path class="cls-4" d="M76,0H20a5.006,5.006,0,0,0-5,5V81a1,1,0,0,0,2,0V5a3,3,0,0,1,3-3H76a3,3,0,0,1,3,3V91a3,3,0,0,1-3,3H20a3,3,0,0,1-3-3V87a1,1,0,0,0-2,0v4a5.006,5.006,0,0,0,5,5H76a5.006,5.006,0,0,0,5-5V5A5.006,5.006,0,0,0,76,0Z"/><path class="cls-4" d="M20,12V83a2,2,0,0,0,2,2H74a2,2,0,0,0,2-2V12a2,2,0,0,0-2-2H22A2,2,0,0,0,20,12ZM74,83,22,83V12H74Z"/><path class="cls-4" d="M52,7a1,1,0,0,0,0-2H44a1,1,0,0,0,0,2Z"/><path class="cls-4" d="M46,88a1,1,0,0,0,0,2h4a1,1,0,0,0,0-2Z"/><path class="cls-4" d="M26,17h1a1,1,0,0,0,0-2H26a1,1,0,0,0,0,2Z"/><path class="cls-4" d="M31,17h1a1,1,0,0,0,0-2H31a1,1,0,0,0,0,2Z"/><path class="cls-4" d="M69,17h1a1,1,0,0,0,0-2H69a1,1,0,0,0,0,2Z"/><path class="cls-4" d="M28,35a4,4,0,0,0,4,4h2l-1.5,2H32a4,4,0,0,0-4,4v6a4,4,0,0,0,4,4h2l-1.5,2H32a4,4,0,0,0-4,4v6a4,4,0,0,0,4,4h2l-1.5,2H29a1,1,0,0,0,0,2H67a1,1,0,0,0,0-2H63.5L62,71h2a4,4,0,0,0,4-4V61a4,4,0,0,0-4-4h-.5L62,55h2a4,4,0,0,0,4-4V45a4,4,0,0,0-4-4h-.5L62,39h2a4,4,0,0,0,4-4V29a4,4,0,0,0-4-4H37a1,1,0,0,0,0,2H64a2,2,0,0,1,2,2v6a2,2,0,0,1-2,2H32a2,2,0,0,1-2-2V29a2,2,0,0,1,2-2,1,1,0,0,0,0-2,4,4,0,0,0-4,4ZM61,73H35l1.5-2h23Zm5-12v6a2,2,0,0,1-2,2H32a2,2,0,0,1-2-2V61a2,2,0,0,1,2-2H64A2,2,0,0,1,66,61Zm-5-4H35l1.5-2h23Zm5-12v6a2,2,0,0,1-2,2H32a2,2,0,0,1-2-2V45a2,2,0,0,1,2-2H64A2,2,0,0,1,66,45Zm-5-4H35l1.5-2h23Z"/><path class="cls-4" d="M33,33a1,1,0,0,0,2,0V31a1,1,0,0,0-2,0Z"/><path class="cls-4" d="M40,33V31a1,1,0,0,0-2,0v2a1,1,0,0,0,2,0Z"/><path class="cls-4" d="M45,33V31a1,1,0,0,0-2,0v2a1,1,0,0,0,2,0Z"/><path class="cls-4" d="M62,33a1,1,0,0,0,0-2H50a1,1,0,0,0,0,2Z"/><path class="cls-4" d="M34,46a1,1,0,0,0-1,1v2a1,1,0,0,0,2,0V47A1,1,0,0,0,34,46Z"/><path class="cls-4" d="M39,46a1,1,0,0,0-1,1v2a1,1,0,0,0,2,0V47A1,1,0,0,0,39,46Z"/><path class="cls-4" d="M44,46a1,1,0,0,0-1,1v2a1,1,0,0,0,2,0V47A1,1,0,0,0,44,46Z"/><path class="cls-4" d="M62,47H50a1,1,0,0,0,0,2H62a1,1,0,0,0,0-2Z"/><path class="cls-4" d="M34,62a1,1,0,0,0-1,1v2a1,1,0,0,0,2,0V63A1,1,0,0,0,34,62Z"/><path class="cls-4" d="M39,62a1,1,0,0,0-1,1v2a1,1,0,0,0,2,0V63A1,1,0,0,0,39,62Z"/><path class="cls-4" d="M44,62a1,1,0,0,0-1,1v2a1,1,0,0,0,2,0V63A1,1,0,0,0,44,62Z"/><path class="cls-4" d="M62,63H50a1,1,0,0,0,0,2H62a1,1,0,0,0,0-2Z"/></g></g></svg>