<svg xmlns="http://www.w3.org/2000/svg" viewBox="0 0 64 64"><defs><style>.cls-1{fill:#dfe1ea;}.cls-2{fill:#adb2c7;}.cls-3{fill:#cdd2e1;}.cls-4{fill:#f6fafd;}.cls-5{fill:#fff;}.cls-6{fill:#ffa426;}.cls-7{fill:#8dd5f6;}.cls-8{fill:#73c6b2;}</style></defs><title>18-Programming</title><g id="_18-Programming" data-name="18-Programming"><path class="cls-1" d="M63,11V61a2.006,2.006,0,0,1-2,2H3a2.006,2.006,0,0,1-2-2V11Z"/><path class="cls-2" d="M61,1a2.006,2.006,0,0,1,2,2v8H1V3A2.006,2.006,0,0,1,3,1Z"/><path class="cls-3" d="M39.6,21c-7.6,0-7.6-2-15.2-2s-7.6,2-15.2,2A26.743,26.743,0,0,1,1,19.844v8A26.743,26.743,0,0,0,9.2,29c7.6,0,7.6-2,15.2-2s7.6,2,15.2,2,7.6-2,15.2-2A26.787,26.787,0,0,1,63,28.157v-8A26.787,26.787,0,0,0,54.8,19C47.2,19,47.2,21,39.6,21Z"/><path class="cls-4" d="M1,11v8.844A26.743,26.743,0,0,0,9.2,21c7.6,0,7.6-2,15.2-2s7.6,2,15.2,2,7.6-2,15.2-2A26.787,26.787,0,0,1,63,20.157V11Z"/><path class="cls-2" d="M59.7,17H39.3A1.3,1.3,0,0,0,38,18.3V33.7A1.3,1.3,0,0,1,36.7,35H30.3A1.3,1.3,0,0,1,29,33.7V18.3A1.3,1.3,0,0,0,27.7,17H7.3A1.3,1.3,0,0,0,6,18.3V40.7A1.3,1.3,0,0,0,7.3,42H20.7A1.3,1.3,0,0,1,22,43.3V58.7A1.3,1.3,0,0,0,23.3,60H43.7A1.3,1.3,0,0,0,45,58.7V43.3A1.3,1.3,0,0,1,46.3,42H59.7A1.3,1.3,0,0,0,61,40.7V18.3A1.3,1.3,0,0,0,59.7,17Z"/><rect class="cls-5" x="22" y="43" width="20" height="14"/><rect class="cls-6" x="22" y="35" width="20" height="8"/><rect class="cls-1" x="25" y="46" width="14" height="8"/><rect class="cls-5" x="6" y="25" width="20" height="14"/><rect class="cls-7" x="6" y="17" width="20" height="8"/><rect class="cls-1" x="9" y="28" width="14" height="8"/><rect class="cls-5" x="38" y="25" width="20" height="14"/><rect class="cls-8" x="38" y="17" width="20" height="8"/><rect class="cls-1" x="41" y="28" width="14" height="8"/><rect class="cls-5" x="5" y="5" width="2" height="2"/><rect class="cls-5" x="14" y="5" width="45" height="2"/><rect class="cls-5" x="9" y="20" width="2" height="2"/><rect class="cls-5" x="41" y="20" width="2" height="2"/><rect class="cls-5" x="31" y="49" width="2" height="2"/><path d="M61,0H3A3,3,0,0,0,0,3V61a3,3,0,0,0,3,3H61a3,3,0,0,0,3-3V3A3,3,0,0,0,61,0ZM3,2H61a1,1,0,0,1,1,1v7H2V3A1,1,0,0,1,3,2ZM61,62H3a1,1,0,0,1-1-1V12H62V61A1,1,0,0,1,61,62Z"/><rect x="9" y="5" width="2" height="2"/><path d="M58,16H38a1,1,0,0,0-1,1V34H27V17a1,1,0,0,0-1-1H6a1,1,0,0,0-1,1V39a1,1,0,0,0,1,1H21V57a1,1,0,0,0,1,1H42a1,1,0,0,0,1-1V40H58a1,1,0,0,0,1-1V17A1,1,0,0,0,58,16Zm-1,2v6H39V18ZM25,18v6H7V18ZM7,26H25V38H7ZM23,56V44H41V56ZM41,42H23V40h3a1,1,0,0,0,1-1V36H37v3a1,1,0,0,0,1,1h3Zm-2-4V26H57V38Z"/><rect x="13" y="20" width="2" height="2"/><rect x="45" y="20" width="2" height="2"/><path d="M15.228,42.366a1,1,0,0,0-.209.829c.163.826.3,2.772-.309,3.514A.81.81,0,0,1,14,47a1,1,0,0,0-1,1v2a1,1,0,0,0,1,1,.81.81,0,0,1,.71.291c.611.742.472,2.688.309,3.514A1,1,0,0,0,16,56h2V54h-.865a5.871,5.871,0,0,0-.877-3.977A2.715,2.715,0,0,0,15,49.155v-.31a2.715,2.715,0,0,0,1.258-.868A5.871,5.871,0,0,0,17.135,44H18V42H16A1,1,0,0,0,15.228,42.366Z"/><path d="M50,47a.812.812,0,0,1-.71-.291c-.61-.742-.472-2.688-.31-3.514A1,1,0,0,0,48,42H46v2h.865a5.865,5.865,0,0,0,.877,3.977A2.715,2.715,0,0,0,49,48.845v.31a2.715,2.715,0,0,0-1.258.868A5.865,5.865,0,0,0,46.865,54H46v2h2a1,1,0,0,0,.98-1.2c-.162-.826-.3-2.772.31-3.514A.812.812,0,0,1,50,51a1,1,0,0,0,1-1V48A1,1,0,0,0,50,47Z"/><rect x="36" y="49" width="2" height="2"/><rect x="26" y="49" width="2" height="2"/></g></svg>