<svg xmlns="http://www.w3.org/2000/svg" viewBox="0 0 64 64"><defs><style>.cls-1{fill:#d7e9f7;}.cls-2{fill:#0074ff;}.cls-3{fill:#ccd3eb;}.cls-4{fill:#96a1c3;}.cls-5{fill:#033c59;}</style></defs><title>Networking</title><g id="Networking"><path class="cls-1" d="M6.83,49a1.2,1.2,0,0,1-1-.53A31,31,0,0,1,1,31.9,30.44,30.44,0,0,1,4,18.62a1.2,1.2,0,0,1,1.53-.55,1,1,0,0,1,.6,1.41A28.58,28.58,0,0,0,3.33,31.9,29,29,0,0,0,7.84,47.37a1,1,0,0,1-.42,1.47A1.38,1.38,0,0,1,6.83,49Z"/><path class="cls-1" d="M57.67,49a1.38,1.38,0,0,1-.59-.14,1,1,0,0,1-.42-1.47A29,29,0,0,0,61.17,31.9a28.58,28.58,0,0,0-2.83-12.42,1,1,0,0,1,.6-1.41,1.2,1.2,0,0,1,1.53.55,30.44,30.44,0,0,1,3,13.28,31,31,0,0,1-4.82,16.55A1.2,1.2,0,0,1,57.67,49Z"/><path class="cls-1" d="M53,10.74a1,1,0,0,1-.7-.26,31.18,31.18,0,0,0-40.52,0,1.07,1.07,0,0,1-1.47-.07A1,1,0,0,1,10.34,9,33.32,33.32,0,0,1,53.66,9a1,1,0,0,1,.07,1.41A1.06,1.06,0,0,1,53,10.74Z"/><path class="cls-1" d="M32,63a33.49,33.49,0,0,1-19.58-6.2,1,1,0,0,1-.21-1.4,1.09,1.09,0,0,1,1.47-.2,31.83,31.83,0,0,0,36.64,0,1.09,1.09,0,0,1,1.47.2,1,1,0,0,1-.21,1.4A33.49,33.49,0,0,1,32,63Z"/><path class="cls-2" d="M28.57,19.46s0,0,0,.05c-.15.25-.29.52-.43.8l-.09.21a9.36,9.36,0,0,0-.38.9l0,.06c-.12.33-.24.69-.35,1.06a2,2,0,0,0-.08.26c-.11.37-.22.76-.31,1.16a.08.08,0,0,0,0,0H21.76A13.09,13.09,0,0,1,28.57,19.46Z"/><path class="cls-2" d="M42.24,24H37.13a.08.08,0,0,0,0,0c-.09-.4-.2-.79-.31-1.16a2.76,2.76,0,0,0-.08-.27c-.11-.36-.23-.72-.35-1.05l0-.07c-.12-.31-.25-.61-.38-.89l-.09-.21c-.14-.28-.28-.55-.43-.8,0,0,0,0,0-.05A13.09,13.09,0,0,1,42.24,24Z"/><path class="cls-2" d="M35.06,24H28.94s0-.08,0-.12l.15-.49c.07-.24.14-.49.22-.72l.17-.45c.07-.2.15-.4.23-.59s.12-.26.18-.39a5.39,5.39,0,0,1,.25-.48l.18-.32c.08-.14.17-.26.25-.38a2.5,2.5,0,0,1,.18-.24,3.84,3.84,0,0,1,.27-.29c.05-.05.11-.12.16-.16a2,2,0,0,1,.28-.19l.13-.09a.89.89,0,0,1,.78,0l.13.09a2,2,0,0,1,.28.19c.05,0,.11.11.16.16a3.84,3.84,0,0,1,.27.29,2.5,2.5,0,0,1,.18.24c.08.12.17.24.25.38l.18.32a4.47,4.47,0,0,1,.25.49c.06.12.12.24.18.38s.16.39.24.6l.16.44c.08.23.15.49.23.74s.09.3.14.47S35.05,24,35.06,24Z"/><path class="cls-2" d="M26.47,26a2.51,2.51,0,0,0,0,.27c0,.19-.06.39-.08.59-.05.35-.1.7-.13,1.06,0,.21,0,.41-.06.62,0,.38-.06.77-.09,1.16l0,.56c0,.57,0,1.15,0,1.74,0,.79,0,1.58.08,2.36,0,.23,0,.46.05.69s0,.64.07,1H19.63a13,13,0,0,1,.84-10Z"/><path class="cls-2" d="M28.59,44.53h0A13.11,13.11,0,0,1,20.48,38h6c0,.18.07.36.1.54s0,.24.07.36.07.34.1.5l.09.4.12.47c0,.13.06.27.1.4s.09.32.14.48.07.25.11.37.09.27.14.4c.14.41.28.82.45,1.2.06.15.13.3.2.44s.09.2.13.29.16.28.23.42Z"/><path class="cls-2" d="M43.52,38a13.11,13.11,0,0,1-8.11,6.54h0l.14-.25c.07-.14.15-.28.23-.42s.08-.19.13-.29.14-.29.2-.44c.17-.38.31-.79.45-1.2,0-.13.1-.26.14-.4s.07-.25.11-.37.1-.32.14-.48.07-.27.1-.4l.12-.47.09-.4c0-.16.07-.33.1-.5s0-.24.07-.36.07-.36.1-.54h6Z"/><path class="cls-2" d="M35.5,38c0,.15-.06.3-.08.45s0,.22-.07.33-.08.41-.13.61,0,.14,0,.2c-.06.27-.13.52-.19.76a.74.74,0,0,0,0,.14c-.06.2-.12.39-.17.57s-.05.14-.08.22l-.15.43a1.43,1.43,0,0,1-.08.22l-.15.37-.09.21-.15.33L34,43l-.15.28a1,1,0,0,1-.1.18l-.15.24c0,.06-.07.11-.1.16l-.15.2-.1.14-.15.17-.11.1-.15.14-.1.08-.15.1-.09,0-.16.07-.08,0a.9.9,0,0,1-.46,0l-.08,0-.16-.07-.09,0-.15-.1-.1-.08L31,44.5l-.11-.1-.15-.17-.1-.14-.15-.2s-.07-.1-.1-.16l-.15-.24a1,1,0,0,1-.1-.18L30,43l-.1-.19-.15-.33-.09-.21-.15-.37a1.43,1.43,0,0,1-.08-.22l-.15-.43c0-.08,0-.15-.08-.22s-.11-.37-.17-.57a.74.74,0,0,0,0-.14c-.06-.24-.13-.49-.19-.76,0-.06,0-.14,0-.2s-.09-.4-.13-.61,0-.22-.07-.33,0-.3-.08-.45Z"/><path class="cls-2" d="M36,32c0,.76,0,1.52-.07,2.27l-.06.7c0,.35-.07.69-.1,1H28.23c0-.34-.07-.68-.1-1l-.06-.7C28,33.52,28,32.76,28,32c0-.57,0-1.13,0-1.69l0-.52c0-.38.05-.76.08-1.13l.06-.6c0-.33.08-.67.13-1s.05-.4.08-.59l.09-.47h7l.09.47c0,.19.06.39.08.59s.09.67.13,1l.06.59c0,.37.06.75.08,1.13l0,.52C36,30.87,36,31.43,36,32Z"/><path class="cls-2" d="M46,32a10.81,10.81,0,0,1-.76,4H37.33c0-.31,0-.63.08-1s.05-.46.06-.69c.06-.78.1-1.57.1-2.36,0-.59,0-1.17,0-1.74,0-.19,0-.37,0-.56,0-.39-.06-.78-.11-1.16a4.36,4.36,0,0,0-.07-.62c0-.36-.1-.71-.16-1.06,0-.2-.06-.4-.09-.59A2.56,2.56,0,0,0,37,26h7.23A11.22,11.22,0,0,1,46,32Z"/><path class="cls-3" d="M58,7V9a3,3,0,0,1-6,0V7a3,3,0,0,1,6,0Z"/><path class="cls-4" d="M60,16v3a1,1,0,0,1-1,1H51a1,1,0,0,1-1-1V16a4,4,0,0,1,1.36-3,3.88,3.88,0,0,1,1-.64A3.93,3.93,0,0,1,54,12h2A4,4,0,0,1,60,16Z"/><path class="cls-3" d="M12,7V9A3,3,0,0,1,6,9V7a3,3,0,0,1,6,0Z"/><path class="cls-4" d="M14,16v4H4V16a4,4,0,0,1,2.36-3.64A3.93,3.93,0,0,1,8,12h2A4,4,0,0,1,14,16Z"/><path class="cls-3" d="M58,47v2a3,3,0,0,1-6,0V47a3,3,0,0,1,6,0Z"/><path class="cls-4" d="M60,56v3a1,1,0,0,1-1,1H51a1,1,0,0,1-1-1V56a4,4,0,0,1,1.36-3,3.88,3.88,0,0,1,1-.64A3.93,3.93,0,0,1,54,52h2A4,4,0,0,1,60,56Z"/><path class="cls-3" d="M12,47v2a3,3,0,0,1-6,0V47a3,3,0,0,1,6,0Z"/><path class="cls-4" d="M14,56v3a1,1,0,0,1-1,1H5a1,1,0,0,1-1-1V56a4,4,0,0,1,1.36-3,3.88,3.88,0,0,1,1-.64A3.93,3.93,0,0,1,8,52h2A4,4,0,0,1,14,56Z"/><path class="cls-3" d="M57,57v2H51a2,2,0,0,1-1-.27V56a4,4,0,0,1,1.36-3H53A4,4,0,0,1,57,57Z"/><path class="cls-3" d="M11,57v2H5a2,2,0,0,1-1-.27V56a4,4,0,0,1,1.36-3H7A4,4,0,0,1,11,57Z"/><path class="cls-3" d="M5.36,13H7a4,4,0,0,1,4,4v2H5a2,2,0,0,1-1-.27Z"/><path class="cls-3" d="M57,17v2H51a2,2,0,0,1-1-.27V16a4,4,0,0,1,1.36-3H53A4,4,0,0,1,57,17Z"/><path class="cls-5" d="M45.89,34a1,1,0,0,0-1.19.77c-.08.37-.18.74-.3,1.12a.56.56,0,0,0,0,.12H37.79A38,38,0,0,0,38,32a36.9,36.9,0,0,0-.49-6h6c.08.15.16.29.23.45a1,1,0,0,0,1.82-.83c-.17-.38-.38-.76-.58-1.12A15,15,0,0,0,17,32a14.52,14.52,0,0,0,.08,1.48,14,14,0,0,0,.48,2.58c.13.44.27.87.44,1.3h0a15,15,0,0,0,28,0,15.46,15.46,0,0,0,.66-2.18A1,1,0,0,0,45.89,34ZM36,32a35.46,35.46,0,0,1-.22,4H28.22A35.46,35.46,0,0,1,28,32a34.27,34.27,0,0,1,.51-6h7A33.33,33.33,0,0,1,36,32ZM32,45c-1.17,0-2.71-2.61-3.49-7h7C34.71,42.39,33.17,45,32,45Zm0-26c1,0,2.22,1.83,3.06,5H28.94C29.78,20.83,31,19,32,19Zm10.24,5H37.11a16.37,16.37,0,0,0-1.73-4.55A13.08,13.08,0,0,1,42.24,24ZM28.62,19.45A16.37,16.37,0,0,0,26.89,24H21.76A13.08,13.08,0,0,1,28.62,19.45ZM19.11,30.36c0-.18.06-.35.09-.53.06-.36.13-.72.22-1.07s.12-.4.18-.61.2-.63.33-.94.18-.41.27-.61.19-.4.3-.6h6A36.9,36.9,0,0,0,26,32a38,38,0,0,0,.21,4H19.65a2.29,2.29,0,0,1-.09-.28,3.31,3.31,0,0,1-.12-.42c-.06-.22-.11-.44-.16-.67s-.06-.28-.08-.42-.08-.49-.11-.74,0-.24,0-.36c0-.37-.05-.74-.05-1.11A12.78,12.78,0,0,1,19.11,30.36ZM20.49,38h6a19.35,19.35,0,0,0,2.12,6.53A13.09,13.09,0,0,1,20.49,38Zm14.9,6.53A19.35,19.35,0,0,0,37.51,38h6A13.09,13.09,0,0,1,35.39,44.53Z"/><path class="cls-5" d="M45.68,28.83A1,1,0,0,0,44.84,30c.06.37.1.73.13,1.11A1,1,0,0,0,46,32h.08A1,1,0,0,0,47,30.92c0-.42-.09-.84-.15-1.25A1,1,0,0,0,45.68,28.83Z"/><path class="cls-5" d="M58.11,51.48A3.93,3.93,0,0,0,59,49V47.21A30.91,30.91,0,0,0,63,32a30.47,30.47,0,0,0-2.2-11.43A1,1,0,0,0,61,20V16a5,5,0,0,0-2.89-4.52A3.93,3.93,0,0,0,59,9V7a4,4,0,0,0-8,0v.52a30.94,30.94,0,0,0-38,0V7A4,4,0,0,0,5,7V9a3.93,3.93,0,0,0,.89,2.48A5,5,0,0,0,3,16v4a1,1,0,0,0,.2.57A30.47,30.47,0,0,0,1,32,30.91,30.91,0,0,0,5,47.21V49a3.93,3.93,0,0,0,.89,2.48A5,5,0,0,0,3,56v4a1,1,0,0,0,1,1H14a1,1,0,0,0,1-1V57.9a30.88,30.88,0,0,0,34,0V60a1,1,0,0,0,1,1H60a1,1,0,0,0,1-1V56A5,5,0,0,0,58.11,51.48ZM53,49V47a2,2,0,0,1,4,0v2a2,2,0,0,1-4,0Zm6-33v3H51V16a3,3,0,0,1,3-3h2A3,3,0,0,1,59,16ZM53,7a2,2,0,0,1,4,0V9a2,2,0,0,1-4,0ZM7,7a2,2,0,0,1,4,0V9A2,2,0,0,1,7,9ZM5,16a3,3,0,0,1,3-3h2a3,3,0,0,1,3,3v3H5Zm6,33a2,2,0,0,1-4,0V47a2,2,0,0,1,4,0Zm2,10H5V56a3,3,0,0,1,3-3h2a3,3,0,0,1,3,3Zm1.94-3.56a5,5,0,0,0-2.83-4A3.93,3.93,0,0,0,13,49V47a4,4,0,0,0-7.14-2.45A29,29,0,0,1,3,32,28.63,28.63,0,0,1,5.18,21H14a1,1,0,0,0,1-1V16a5,5,0,0,0-2.89-4.52,3.77,3.77,0,0,0,.65-1.16,28.95,28.95,0,0,1,38.48,0,3.77,3.77,0,0,0,.65,1.16A5,5,0,0,0,49,16v4a1,1,0,0,0,1,1h8.82A28.63,28.63,0,0,1,61,32a29,29,0,0,1-2.86,12.55A4,4,0,0,0,51,47v2a3.93,3.93,0,0,0,.89,2.48,5,5,0,0,0-2.83,4,29,29,0,0,1-34.12,0ZM59,59H51V56a3,3,0,0,1,3-3h2a3,3,0,0,1,3,3Z"/></g></svg>