<svg xmlns="http://www.w3.org/2000/svg" xmlns:xlink="http://www.w3.org/1999/xlink" viewBox="0 0 64 64"><defs><style>.cls-1{fill:#ccd3eb;}.cls-2{fill:#f5f7ff;}.cls-3{fill:#96a1c3;}.cls-4{fill:#647499;}.cls-5{fill:#0668cb;}.cls-6{fill:url(#linear-gradient);}.cls-7{fill:#0074ff;}.cls-8{fill:#f0f7fc;}.cls-9{fill:#d7e9f7;}.cls-10{fill:#4795ea;}.cls-11{fill:#eb7f58;}.cls-12{fill:#033c59;}</style><linearGradient id="linear-gradient" x1="30" y1="45" x2="34" y2="45" gradientUnits="userSpaceOnUse"><stop offset="0" stop-color="#d3e6f5"/><stop offset="1" stop-color="#f0f7fc"/></linearGradient></defs><title>Web concept</title><g id="Web_concept" data-name="Web concept"><path class="cls-1" d="M60,11V39H4V11A6,6,0,0,1,8,5.35,5.8,5.8,0,0,1,10,5H54A6,6,0,0,1,60,11Z"/><path class="cls-2" d="M57,11V39H4V11A6,6,0,0,1,8,5.35,5.8,5.8,0,0,1,10,5H51A6,6,0,0,1,57,11Z"/><path class="cls-3" d="M60,40v4a6,6,0,0,1-6,6H10a6,6,0,0,1-6-6V40Z"/><polygon class="cls-4" points="42.29 62 21.71 62 25.83 50 38.17 50 42.29 62"/><path class="cls-5" d="M44,63H20a1,1,0,0,1,0-2H44a1,1,0,0,1,0,2Z"/><path class="cls-6" d="M33,46H31a1,1,0,0,1,0-2h2a1,1,0,0,1,0,2Z"/><path class="cls-7" d="M55,4v8H9V4a2,2,0,0,1,2-2H53A2,2,0,0,1,55,4Z"/><path class="cls-8" d="M55,12V33a2,2,0,0,1-2,2H11a2,2,0,0,1-2-2V12Z"/><path class="cls-9" d="M49,9a2,2,0,1,1,2-2A2,2,0,0,1,49,9Zm0-2Z"/><path class="cls-10" d="M43,9a2,2,0,1,1,2-2A2,2,0,0,1,43,9Zm0-2Z"/><path class="cls-11" d="M37,9a2,2,0,1,1,2-2A2,2,0,0,1,37,9Zm0-2Z"/><path class="cls-10" d="M31,8H14a1,1,0,0,1,0-2H31a1,1,0,0,1,0,2Z"/><rect class="cls-1" x="16" y="17" width="10" height="12" rx="1"/><path class="cls-1" d="M48,30H31a1,1,0,0,1,0-2H48a1,1,0,0,1,0,2Z"/><path class="cls-1" d="M48,26H31a1,1,0,0,1,0-2H48a1,1,0,0,1,0,2Z"/><rect class="cls-1" x="31" y="17" width="17" height="4" rx="1"/><path class="cls-12" d="M33,44H31a1,1,0,0,0,0,2h2a1,1,0,0,0,0-2Z"/><path class="cls-12" d="M56,5.3V4a3,3,0,0,0-3-3H11A3,3,0,0,0,8,4V5.3A7,7,0,0,0,3,12V44a7,7,0,0,0,7,7H24.43L21,61H20a1,1,0,0,0,0,2H44a1,1,0,0,0,0-2H43L39.57,51H54a7,7,0,0,0,7-7V12A7,7,0,0,0,56,5.3ZM10,4a1,1,0,0,1,1-1H53a1,1,0,0,1,1,1v7H10ZM8,7.44V33a3,3,0,0,0,3,3H53a3,3,0,0,0,3-3V23a1,1,0,0,0-2,0V33a1,1,0,0,1-1,1H11a1,1,0,0,1-1-1V13H54v1a1,1,0,0,0,2,0V7.44A4.94,4.94,0,0,1,59,12V39H5V12A4.94,4.94,0,0,1,8,7.44ZM40.89,61H23.11l3.43-10H37.46ZM54,49H10a5,5,0,0,1-5-5V41H59v3A5,5,0,0,1,54,49Z"/><path class="cls-12" d="M56,18a1,1,0,0,0-2,0v1a1,1,0,0,0,2,0Z"/><circle class="cls-2" cx="49" cy="7" r="2"/><circle class="cls-2" cx="43" cy="7" r="2"/><circle class="cls-2" cx="37" cy="7" r="2"/><path class="cls-2" d="M31,6H14a1,1,0,0,0,0,2H31a1,1,0,0,0,0-2Z"/><path class="cls-3" d="M26,16H16a1,1,0,0,0-1,1V29a1,1,0,0,0,1,1H26a1,1,0,0,0,1-1V17A1,1,0,0,0,26,16ZM25,28H17V18h8Z"/><path class="cls-3" d="M48,28H31a1,1,0,0,0,0,2H48a1,1,0,0,0,0-2Z"/><path class="cls-3" d="M48,24H31a1,1,0,0,0,0,2H48a1,1,0,0,0,0-2Z"/><path class="cls-3" d="M48,16H31a1,1,0,0,0-1,1v4a1,1,0,0,0,1,1H48a1,1,0,0,0,1-1V17A1,1,0,0,0,48,16Zm-1,4H32V18H47Z"/></g></svg>