<svg xmlns="http://www.w3.org/2000/svg" viewBox="0 0 64 64"><defs><style>.cls-1{fill:#8dd5f6;}.cls-2{fill:#dfe1ea;}.cls-3{fill:#adb2c7;}.cls-4{fill:#aedff7;}.cls-5{fill:#f6fafd;}.cls-6{fill:#0096cf;}.cls-7{fill:#bec3d2;}.cls-8{fill:#ffcdbe;}.cls-9{fill:#b46e5a;}.cls-10{fill:#ffbeaa;}.cls-11{fill:#f2f6fc;}.cls-12{fill:#915041;}.cls-13{fill:#7e8596;}.cls-14{fill:#fff;}</style></defs><title>67-Programmer</title><g id="_67-Programmer" data-name="67-Programmer"><rect class="cls-1" x="7" y="14" width="50" height="35" rx="1" ry="1"/><path class="cls-2" d="M61,11V53H40v2a1,1,0,0,1-1,1H25a1,1,0,0,1-1-1V53H3V11l1-1H60ZM57,48V15a1,1,0,0,0-1-1H8a1,1,0,0,0-1,1V48a1,1,0,0,0,1,1H56A1,1,0,0,0,57,48Z"/><path class="cls-3" d="M63,53v6l-1,1H2L1,59V53H24v2a1,1,0,0,0,1,1H39a1,1,0,0,0,1-1V53H63Z"/><path class="cls-4" d="M55.8,22c-7.6,0-7.6,2-15.2,2s-7.6-2-15.2-2-7.6,2-15.2,2A31.65,31.65,0,0,1,7,23.85v7a31.65,31.65,0,0,0,3.2.15c7.6,0,7.6-2,15.2-2s7.6,2,15.2,2,7.6-2,15.2-2c.43,0,.82.01,1.2.022v-7C56.617,22.01,56.227,22,55.8,22Z"/><path class="cls-5" d="M25.394,22c7.6,0,7.6,2,15.2,2s7.6-2,15.2-2c.43,0,.82.01,1.2.022V15a1,1,0,0,0-1-1H8a1,1,0,0,0-1,1v8.85a31.65,31.65,0,0,0,3.2.15C17.794,24,17.794,22,25.394,22Z"/><path class="cls-6" d="M37,28H32V25.33A6.592,6.592,0,0,0,34,24c2-2,2-3,2-3V19h1a2,2,0,0,0,0-4H36V14H22v1H21a2,2,0,0,0,0,4h1v2s0,1,2,3a6.592,6.592,0,0,0,2,1.33V28H21s-5,0-5,5V49H42V33C42,28,37,28,37,28Z"/><path class="cls-7" d="M36,12h3a11.033,11.033,0,0,0-.247-2H22v4H36Z"/><path class="cls-8" d="M33,15a2,2,0,0,1,0,4H32V15Z"/><path class="cls-9" d="M18,16V10c0-6,5-6,5-6h5c7,0,7,8,7,8H24C24,15,18,16,18,16Z"/><path class="cls-8" d="M18,16v3H17a2,2,0,0,1,0-4h1Z"/><path class="cls-8" d="M22,25.33A6.592,6.592,0,0,1,20,24c-2-2-2-3-2-3V16s6-1,6-4h8v9s0,1-2,3a6.592,6.592,0,0,1-2,1.33A8.459,8.459,0,0,1,25,26,8.459,8.459,0,0,1,22,25.33Z"/><path class="cls-10" d="M28,28v1a3,3,0,0,1-6,0V25.33A8.459,8.459,0,0,0,25,26a8.459,8.459,0,0,0,3-.67Z"/><path class="cls-11" d="M25,32a2.938,2.938,0,0,0,3-3l3,3s-2,4-6,4Z"/><path class="cls-11" d="M25,32v4c-4,0-6-4-6-4l3-3A2.938,2.938,0,0,0,25,32Z"/><path class="cls-7" d="M19,32s2,4,6,4,6-4,6-4l-3-3V28h5s5,0,5,5V49H12V33c0-5,5-5,5-5h5v1Z"/><path class="cls-10" d="M32,12H24c0,3-6,4-6,4v.168A31.293,31.293,0,0,1,21.394,16C27.049,16,28.5,17.106,32,17.673V12Z"/><path class="cls-12" d="M18,15v1s6-1,6-4H18Z"/><path class="cls-13" d="M17,28s-5,0-5,5V49h6V28Z"/><path class="cls-13" d="M33,28H32V49h6V33C38,28,33,28,33,28Z"/><rect class="cls-14" x="43" y="42" width="11" height="2"/><path d="M63,52H62V11a1,1,0,0,0-.293-.707l-1-1A1,1,0,0,0,60,9H35.557C34.731,6.106,32.6,3,28,3H23c-1.944,0-5.512,1.284-5.954,6H4a1,1,0,0,0-.707.293l-1,1A1,1,0,0,0,2,11V52H1a1,1,0,0,0-1,1v6a1,1,0,0,0,.293.707l1,1A1,1,0,0,0,2,61H62a1,1,0,0,0,.707-.293l1-1A1,1,0,0,0,64,59V53A1,1,0,0,0,63,52ZM19,10c0-4.809,3.6-4.995,4-5h5c4.589,0,5.668,4.06,5.922,6H24a1,1,0,0,0-1,1c0,1.3-2.243,2.272-4,2.752Zm14,6a1,1,0,0,1,0,2Zm-14,.816c1.652-.385,5.07-1.456,5.843-3.816H31l0,7.919c0,.008-.144.808-1.711,2.374A6.8,6.8,0,0,1,25,25a6.8,6.8,0,0,1-4.293-1.707A6.466,6.466,0,0,1,19,21V16.816ZM37,48H33V37H31V48H19V37H17V48H13V33a3.85,3.85,0,0,1,4-4h3.586l-2.293,2.293a1,1,0,0,0-.188,1.154c.087.172,2,3.9,5.9,4.473V46h2V36.92c3.89-.57,5.808-4.3,5.9-4.473a1,1,0,0,0-.188-1.154L29.414,29H33c.163,0,4,.046,4,4ZM28.523,30.937l1.213,1.213A6.474,6.474,0,0,1,26,34.894v-2A3.633,3.633,0,0,0,28.523,30.937ZM24,34.894a6.472,6.472,0,0,1-3.736-2.744l1.213-1.213A3.633,3.633,0,0,0,24,32.9ZM27,29a2,2,0,0,1-4,0V26.709A8.515,8.515,0,0,0,25,27a8.515,8.515,0,0,0,2-.291ZM17,18a1,1,0,0,1,0-2ZM4,11.414,4.414,11H17v3a3,3,0,0,0,0,6v1c0,.332.166,1.579,2.293,3.707A7.034,7.034,0,0,0,21,25.938V27H17a5.785,5.785,0,0,0-6,6V48H8V15h5V13H8a2,2,0,0,0-2,2V48a2,2,0,0,0,2,2H56a2,2,0,0,0,2-2V15a2,2,0,0,0-2-2H37v2H56V48H39V33a5.785,5.785,0,0,0-6-6H29V25.938a7.034,7.034,0,0,0,1.707-1.231C32.834,22.579,33,21.332,33,21V20a3,3,0,0,0,0-6V13h2a1,1,0,0,0,1-1c0-.307-.022-.647-.057-1H59.586l.414.414V52H40a1,1,0,0,0-1,1v2H25V53a1,1,0,0,0-1-1H4ZM62,58.586,61.586,59H2.414L2,58.586V54H23v1a2,2,0,0,0,2,2H39a2,2,0,0,0,2-2V54H62Z"/><path d="M41.293,25.707l1.414-1.414L40.414,22l2.293-2.293-1.414-1.414-3,3a1,1,0,0,0,0,1.414Z"/><path d="M50.707,25.707l3-3a1,1,0,0,0,0-1.414l-3-3-1.414,1.414L51.586,22l-2.293,2.293Z"/><rect x="42.36" y="21.5" width="7.28" height="2" transform="translate(11.739 60.558) rotate(-74.07)"/><rect x="43" y="37" width="11" height="2"/><rect class="cls-14" x="48" y="32" width="6" height="2"/></g></svg>