<svg xmlns="http://www.w3.org/2000/svg" viewBox="0 0 64 64"><defs><style>.cls-1{fill:#ccd3eb;}.cls-2{fill:#0074ff;}.cls-3{fill:#f5f7ff;}.cls-4{fill:#96a1c3;}.cls-5{fill:#033c59;}.cls-6{fill:#f0f7fc;}</style></defs><title>Speed</title><g id="Speed"><path class="cls-1" d="M60,18V58a2,2,0,0,1-2,2H6a2,2,0,0,1-2-2V18Z"/><path class="cls-2" d="M61,6V18H4V6A2,2,0,0,1,6,4H59A2,2,0,0,1,61,6Z"/><path class="cls-3" d="M6,18H56V51.15A5.94,5.94,0,0,1,50,57H4V18.1"/><circle class="cls-4" cx="32" cy="39" r="17"/><rect class="cls-3" x="8" y="8" width="30" height="6" rx="2"/><circle class="cls-3" cx="49" cy="11" r="2"/><circle class="cls-3" cx="43" cy="11" r="2"/><circle class="cls-3" cx="55" cy="11" r="2"/><path class="cls-5" d="M58,3H6A3,3,0,0,0,3,6V58a3,3,0,0,0,3,3H58a3,3,0,0,0,3-3V6A3,3,0,0,0,58,3Zm1,55a1,1,0,0,1-1,1H6a1,1,0,0,1-1-1V19H59Zm0-41H5V6A1,1,0,0,1,6,5H58a1,1,0,0,1,1,1Z"/><path class="cls-5" d="M32,21A18,18,0,1,0,50,39,18,18,0,0,0,32,21Zm0,34A16,16,0,1,1,48,39,16,16,0,0,1,32,55Z"/><path class="cls-5" d="M32,57A18,18,0,1,1,50,39,18,18,0,0,1,32,57Zm0-34A16,16,0,1,0,48,39,16,16,0,0,0,32,23Z"/><path class="cls-1" d="M44,39a12,12,0,0,1-4.06,9H24.06A12,12,0,1,1,44,39Z"/><path class="cls-3" d="M41,40a12,12,0,0,1-3.06,8H24.06a12,12,0,0,1,2.66-19.78A11.45,11.45,0,0,1,29,28,12,12,0,0,1,41,40Z"/><path class="cls-6" d="M32,46a1,1,0,0,1-1-1V33a1,1,0,0,1,2,0V45A1,1,0,0,1,32,46Z"/><circle class="cls-2" cx="32" cy="48" r="4"/><path class="cls-5" d="M42.4,32.92a1,1,0,0,0-.47,1.33A11,11,0,0,1,39.55,47H35.86A4,4,0,0,0,33,44.14V33a1,1,0,0,0-2,0V44.14A4,4,0,0,0,28.14,47H24.45A11,11,0,0,1,36,28.76a1,1,0,1,0,.74-1.86A12.77,12.77,0,0,0,32,26a13,13,0,0,0-8.65,22.7h0l0,0,.16.1c.05,0,.08.06.13.08a1.16,1.16,0,0,0,.37.07h4.08a4,4,0,0,0,7.72,0h4.08a1.16,1.16,0,0,0,.37-.07s.08-.06.13-.08l.16-.1,0,0h0a13,13,0,0,0,3.08-15.31A1,1,0,0,0,42.4,32.92ZM32,50a2,2,0,1,1,2-2A2,2,0,0,1,32,50Z"/><path class="cls-5" d="M39.87,31.31a1,1,0,0,0,1.42,0,1,1,0,0,0,0-1.42l-.83-.77a1,1,0,0,0-1.32,1.5C39.39,30.84,39.64,31.07,39.87,31.31Z"/><path class="cls-5" d="M10,15H36a3,3,0,0,0,3-3V10a3,3,0,0,0-3-3H10a3,3,0,0,0-3,3v2A3,3,0,0,0,10,15ZM9,10a1,1,0,0,1,1-1H36a1,1,0,0,1,1,1v2a1,1,0,0,1-1,1H10a1,1,0,0,1-1-1Z"/><circle class="cls-3" cx="49" cy="11" r="2"/><circle class="cls-3" cx="43" cy="11" r="2"/><circle class="cls-3" cx="55" cy="11" r="2"/><path class="cls-5" d="M58,3H6A3,3,0,0,0,3,6V58a3,3,0,0,0,3,3H58a3,3,0,0,0,3-3V6A3,3,0,0,0,58,3ZM6,5H58a1,1,0,0,1,1,1V17H5V6A1,1,0,0,1,6,5ZM58,59H6a1,1,0,0,1-1-1V19H59V58A1,1,0,0,1,58,59Z"/></g></svg>