<svg xmlns="http://www.w3.org/2000/svg" width="96" height="96" viewBox="0 0 96 96"><defs><style>.cls-1{fill:#e5eefd;}.cls-2{fill:#d3bcfb;}.cls-3{fill:#f8fafd;}.cls-4{fill:#c3d4ef;}.cls-5{fill:#283d54;}</style></defs><title>9.Web Server</title><g id="_9.Web_Server" data-name="9.Web Server"><path class="cls-1" d="M95,16V87a3,3,0,0,1-3,3H4a3,3,0,0,1-3-3V16Z"/><path class="cls-2" d="M95,9v7H1V9A3,3,0,0,1,4,6H92A3,3,0,0,1,95,9Z"/><path class="cls-3" d="M89,24V82a2.006,2.006,0,0,1-2,2H48V22H87A2.006,2.006,0,0,1,89,24Z"/><path class="cls-3" d="M48,22V84H9a2.006,2.006,0,0,1-2-2V24a2.006,2.006,0,0,1,2-2Z"/><g id="_Group_" data-name="&lt;Group&gt;"><polygon class="cls-4" points="60 73 63 77 33 77 36 73 60 73"/><polygon class="cls-4" points="60 57 63 61 33 61 36 57 60 57"/><polygon class="cls-4" points="60 41 63 45 33 45 36 41 60 41"/><path class="cls-1" d="M67,64v6a3,3,0,0,1-3,3H32a3,3,0,0,1-3-3V64a3,3,0,0,1,3-3H64A3,3,0,0,1,67,64Z"/><path class="cls-1" d="M67,48v6a3,3,0,0,1-3,3H32a3,3,0,0,1-3-3V48a3,3,0,0,1,3-3H64A3,3,0,0,1,67,48Z"/><path class="cls-1" d="M67,32v6a3,3,0,0,1-3,3H32a3,3,0,0,1-3-3V32a3,3,0,0,1,3-3H64A3,3,0,0,1,67,32Z"/><path class="cls-5" d="M95,21a1,1,0,0,0,1-1V9a4,4,0,0,0-4-4H4A4,4,0,0,0,0,9V87a4,4,0,0,0,4,4H92a4,4,0,0,0,4-4V25a1,1,0,0,0-2,0V87a2,2,0,0,1-2,2H4a2,2,0,0,1-2-2V9A2,2,0,0,1,4,7H92a2,2,0,0,1,2,2V20A1,1,0,0,0,95,21Z"/><path class="cls-5" d="M92,16a1,1,0,0,0-1-1H5a1,1,0,0,0,0,2H91A1,1,0,0,0,92,16Z"/><path class="cls-5" d="M8,12a1,1,0,0,0,0-2H6a1,1,0,0,0,0,2Z"/><path class="cls-5" d="M15,12a1,1,0,0,0,0-2H13a1,1,0,0,0,0,2Z"/><path class="cls-5" d="M89,12a1,1,0,0,0,0-2H23a1,1,0,0,0,0,2Z"/><path class="cls-5" d="M15,84a1,1,0,0,0,1,1H87a3,3,0,0,0,3-3V24a3,3,0,0,0-3-3H9a3,3,0,0,0-3,3V82a3,3,0,0,0,3,3h2a1,1,0,0,0,0-2H9a1,1,0,0,1-1-1V24a1,1,0,0,1,1-1H87a1,1,0,0,1,1,1V82a1,1,0,0,1-1,1H16A1,1,0,0,0,15,84Z"/><path class="cls-5" d="M29,76a1,1,0,0,0,0,2H67a1,1,0,0,0,0-2H63.5L62,74h2a4,4,0,0,0,4-4V64a4,4,0,0,0-4-4h-.5L62,58h2a4,4,0,0,0,4-4V48a4,4,0,0,0-4-4h-.5L62,42h2a4,4,0,0,0,4-4V32a4,4,0,0,0-4-4H37a1,1,0,0,0,0,2H64a2,2,0,0,1,2,2v6a2,2,0,0,1-2,2H32a2,2,0,0,1-2-2V32a2,2,0,0,1,2-2,1,1,0,0,0,0-2,4,4,0,0,0-4,4v6a4,4,0,0,0,4,4h2l-1.5,2H32a4,4,0,0,0-4,4v6a4,4,0,0,0,4,4h2l-1.5,2H32a4,4,0,0,0-4,4v6a4,4,0,0,0,4,4h2l-1.5,2Zm7.5-34h23L61,44H35ZM30,54V48a2,2,0,0,1,2-2H64a2,2,0,0,1,2,2v6a2,2,0,0,1-2,2H32A2,2,0,0,1,30,54Zm6.5,4h23L61,60H35ZM30,70V64a2,2,0,0,1,2-2H64a2,2,0,0,1,2,2v6a2,2,0,0,1-2,2H32A2,2,0,0,1,30,70Zm6.5,4h23L61,76H35Z"/><path class="cls-5" d="M34,37a1,1,0,0,0,1-1V34a1,1,0,0,0-2,0v2A1,1,0,0,0,34,37Z"/><path class="cls-5" d="M40,36V34a1,1,0,0,0-2,0v2a1,1,0,0,0,2,0Z"/><path class="cls-5" d="M45,36V34a1,1,0,0,0-2,0v2a1,1,0,0,0,2,0Z"/><path class="cls-5" d="M62,36a1,1,0,0,0,0-2H50a1,1,0,0,0,0,2Z"/><path class="cls-5" d="M34,49a1,1,0,0,0-1,1v2a1,1,0,0,0,2,0V50A1,1,0,0,0,34,49Z"/><path class="cls-5" d="M39,49a1,1,0,0,0-1,1v2a1,1,0,0,0,2,0V50A1,1,0,0,0,39,49Z"/><path class="cls-5" d="M44,49a1,1,0,0,0-1,1v2a1,1,0,0,0,2,0V50A1,1,0,0,0,44,49Z"/><path class="cls-5" d="M62,50H50a1,1,0,0,0,0,2H62a1,1,0,0,0,0-2Z"/><path class="cls-5" d="M34,65a1,1,0,0,0-1,1v2a1,1,0,0,0,2,0V66A1,1,0,0,0,34,65Z"/><path class="cls-5" d="M39,65a1,1,0,0,0-1,1v2a1,1,0,0,0,2,0V66A1,1,0,0,0,39,65Z"/><path class="cls-5" d="M44,65a1,1,0,0,0-1,1v2a1,1,0,0,0,2,0V66A1,1,0,0,0,44,65Z"/><path class="cls-5" d="M62,66H50a1,1,0,0,0,0,2H62a1,1,0,0,0,0-2Z"/></g></g></svg>