<svg xmlns="http://www.w3.org/2000/svg" viewBox="0 0 64 64"><defs><style>.cls-1{fill:#8dd5f6;}.cls-2{fill:#0096cf;}.cls-3{fill:#aedff7;}.cls-4{fill:#f6fafd;}.cls-5{fill:#7e8596;}</style></defs><title>41-Development</title><g id="_41-Development" data-name="41-Development"><g id="_Group_" data-name="&lt;Group&gt;"><path class="cls-1" d="M54.2,21.45A11.991,11.991,0,0,1,51,45H13a12,12,0,0,1,0-24,12.17,12.17,0,0,1,4.02.7A11.977,11.977,0,0,1,29,10a12.405,12.405,0,0,1,1.95.17A12.984,12.984,0,0,1,54.2,21.45Z"/><path class="cls-2" d="M45.68,43.42a10.8,10.8,0,0,0-1.3-3.15l2.64-3.46-.71-2.12-2.12-.71-3.46,2.64a10.8,10.8,0,0,0-3.15-1.3L37,31l-2-1-2,1-.58,4.32a10.8,10.8,0,0,0-3.15,1.3l-3.46-2.64-2.12.71-.71,2.12,2.64,3.46a10.8,10.8,0,0,0-1.3,3.15L20,44l-.5,1h9.59a5.993,5.993,0,0,1,11.82,0H50.5L50,44Z"/></g><path class="cls-3" d="M54.2,21.45A13.157,13.157,0,0,0,54.831,19H54.8c-7.6,0-7.6,2-15.2,2s-7.6-2-15.2-2a25.277,25.277,0,0,0-7.181.891A11.976,11.976,0,0,0,17.02,21.7,12.17,12.17,0,0,0,13,21,11.991,11.991,0,0,0,2.479,27.228,25.227,25.227,0,0,0,9.2,28c7.6,0,7.6-2,15.2-2s7.6,2,15.2,2,7.6-2,15.2-2a25.376,25.376,0,0,1,6.4.7A12.029,12.029,0,0,0,54.2,21.45Z"/><path class="cls-4" d="M52.943,10a12.974,12.974,0,0,0-21.88,0c-.037.057-.077.112-.113.17A12.405,12.405,0,0,0,29,10a11.969,11.969,0,0,0-11.787,9.891A25.277,25.277,0,0,1,24.394,19c7.6,0,7.6,2,15.2,2s7.6-2,15.2-2h.034A12.712,12.712,0,0,0,55,17,12.926,12.926,0,0,0,52.943,10Z"/><path class="cls-5" d="M47,43l1,2-1,2-4.32.58a10.8,10.8,0,0,1-1.3,3.15l2.64,3.46-.71,2.12-2.12.71-3.46-2.64a10.8,10.8,0,0,1-3.15,1.3L34,60l-2,1-2-1-.58-4.32a10.8,10.8,0,0,1-3.15-1.3l-3.46,2.64-2.12-.71-.71-2.12,2.64-3.46a10.8,10.8,0,0,1-1.3-3.15L17,47l-1-2,1-2,4.32-.58a10.8,10.8,0,0,1,1.3-3.15l-2.64-3.46.71-2.12,2.12-.71,3.46,2.64a10.8,10.8,0,0,1,3.15-1.3L30,30l2-1,2,1,.58,4.32a10.8,10.8,0,0,1,3.15,1.3l3.46-2.64,2.12.71.71,2.12-2.64,3.46a10.8,10.8,0,0,1,1.3,3.15Zm-9,2a6,6,0,1,0-6,6A6,6,0,0,0,38,45Z"/><path d="M55.463,20.8A13.792,13.792,0,0,0,56,17,13.99,13.99,0,0,0,30.462,9.093,11.923,11.923,0,0,0,29,9,12.907,12.907,0,0,0,16.109,20.386,12.765,12.765,0,0,0,13,20a13,13,0,0,0,0,26V44a11,11,0,1,1,3.68-21.354,1,1,0,0,0,1.335-.918A10.913,10.913,0,0,1,30.79,11.16,1,1,0,0,0,31.8,10.7,11.984,11.984,0,0,1,53.264,21.1a1,1,0,0,0,.673,1.306A10.994,10.994,0,0,1,51,44v2a12.994,12.994,0,0,0,4.463-25.2Z"/><path d="M47.9,42.553a1,1,0,0,0-.763-.544l-3.657-.488a11.954,11.954,0,0,0-.9-2.174l2.242-2.932a1,1,0,0,0,.155-.924l-.708-2.121a1,1,0,0,0-.632-.632l-2.121-.708a1,1,0,0,0-.924.155l-2.932,2.242a11.954,11.954,0,0,0-2.174-.9l-.488-3.657a1,1,0,0,0-.544-.763l-2-1a1,1,0,0,0-.894,0l-2,1a1,1,0,0,0-.544.763l-.488,3.657a11.954,11.954,0,0,0-2.174.9l-2.932-2.242a1,1,0,0,0-.924-.155l-2.121.708a1,1,0,0,0-.632.632l-.708,2.121a1,1,0,0,0,.155.924l2.242,2.932a11.954,11.954,0,0,0-.9,2.174l-3.657.488a1,1,0,0,0-.763.544l-1,2a1,1,0,0,0,0,.894l1,2a1,1,0,0,0,.763.544l3.657.488a11.954,11.954,0,0,0,.9,2.174l-2.242,2.932a1,1,0,0,0-.155.924l.708,2.121a1,1,0,0,0,.632.632l2.121.708a1.008,1.008,0,0,0,.924-.155l2.932-2.242a11.954,11.954,0,0,0,2.174.9l.488,3.657a1,1,0,0,0,.544.763l2,1a1,1,0,0,0,.894,0l2-1a1,1,0,0,0,.544-.763l.488-3.657a11.954,11.954,0,0,0,2.174-.9l2.932,2.242a1.007,1.007,0,0,0,.924.155l2.121-.708a1,1,0,0,0,.632-.632l.708-2.121a1,1,0,0,0-.155-.924l-2.242-2.932a11.954,11.954,0,0,0,.9-2.174l3.657-.488a1,1,0,0,0,.763-.544l1-2a1,1,0,0,0,0-.894Zm-1.552,3.526-3.791.505a1,1,0,0,0-.84.757,9.934,9.934,0,0,1-1.19,2.869,1,1,0,0,0,.059,1.13l2.324,3.039-.382,1.144-1.144.382L38.34,53.581a1,1,0,0,0-1.13-.059,9.934,9.934,0,0,1-2.869,1.19,1,1,0,0,0-.757.84l-.505,3.791L32,59.882l-1.079-.539-.5-3.791a1,1,0,0,0-.757-.84,9.934,9.934,0,0,1-2.869-1.19,1,1,0,0,0-1.13.059l-3.039,2.324-1.144-.382L21.1,54.379l2.324-3.039a1,1,0,0,0,.059-1.13,9.934,9.934,0,0,1-1.19-2.869,1,1,0,0,0-.84-.757l-3.791-.505L17.118,45l.539-1.079,3.791-.505a1,1,0,0,0,.84-.757,9.934,9.934,0,0,1,1.19-2.869,1,1,0,0,0-.059-1.13L21.1,35.621l.382-1.144,1.144-.382,3.039,2.324a1,1,0,0,0,1.13.059,9.934,9.934,0,0,1,2.869-1.19,1,1,0,0,0,.757-.84l.5-3.791L32,30.118l1.079.539.505,3.791a1,1,0,0,0,.757.84,9.934,9.934,0,0,1,2.869,1.19,1,1,0,0,0,1.13-.059L41.379,34.1l1.144.382.382,1.144L40.581,38.66a1,1,0,0,0-.059,1.13,9.934,9.934,0,0,1,1.19,2.869,1,1,0,0,0,.84.757l3.791.505L46.882,45Z"/><path d="M32,38a7,7,0,1,0,7,7A7.008,7.008,0,0,0,32,38Zm0,12a5,5,0,1,1,5-5A5.006,5.006,0,0,1,32,50Z"/><path d="M59,52a.81.81,0,0,1-.71-.291c-.611-.742-.472-2.688-.309-3.514A1,1,0,0,0,57,47H55v2h.865a5.871,5.871,0,0,0,.877,3.977A2.715,2.715,0,0,0,58,53.845v.31a2.715,2.715,0,0,0-1.258.868A5.871,5.871,0,0,0,55.865,59H55v2h2a1,1,0,0,0,.981-1.2c-.163-.826-.3-2.772.309-3.514A.81.81,0,0,1,59,56a1,1,0,0,0,1-1V53A1,1,0,0,0,59,52Z"/><rect x="47" y="53" width="2" height="2"/><rect x="52" y="53" width="2" height="2"/><path d="M6.228,47.366a1,1,0,0,0-.209.829c.163.826.3,2.772-.309,3.514A.81.81,0,0,1,5,52a1,1,0,0,0-1,1v2a1,1,0,0,0,1,1,.81.81,0,0,1,.71.291c.611.742.472,2.688.309,3.514A1,1,0,0,0,7,61H9V59H8.135a5.871,5.871,0,0,0-.877-3.977A2.715,2.715,0,0,0,6,54.155v-.31a2.715,2.715,0,0,0,1.258-.868A5.871,5.871,0,0,0,8.135,49H9V47H7A1,1,0,0,0,6.228,47.366Z"/><rect x="15" y="53" width="2" height="2"/><rect x="10" y="53" width="2" height="2"/></g></svg>