<svg xmlns="http://www.w3.org/2000/svg" viewBox="0 0 64 64"><defs><style>.cls-1{fill:#dfe1ea;}.cls-2{fill:#adb2c7;}.cls-3{fill:#cdd2e1;}.cls-4{fill:#f6fafd;}.cls-5{fill:#fff;}.cls-6{fill:#fc9942;}.cls-7{fill:#ffc247;}.cls-8{fill:#ffc170;}.cls-9{fill:#ffeccf;}</style></defs><title>97-404 Error Site</title><g id="_97-404_Error_Site" data-name="97-404 Error Site"><path class="cls-1" d="M63,11V61a2.006,2.006,0,0,1-2,2H3a2.006,2.006,0,0,1-2-2V11Z"/><path class="cls-2" d="M61,1a2.006,2.006,0,0,1,2,2v8H1V3A2.006,2.006,0,0,1,3,1Z"/><path class="cls-3" d="M39.6,21c-7.6,0-7.6-2-15.2-2s-7.6,2-15.2,2A26.743,26.743,0,0,1,1,19.844v8A26.743,26.743,0,0,0,9.2,29c7.6,0,7.6-2,15.2-2s7.6,2,15.2,2,7.6-2,15.2-2A26.787,26.787,0,0,1,63,28.157v-8A26.787,26.787,0,0,0,54.8,19C47.2,19,47.2,21,39.6,21Z"/><path class="cls-4" d="M1,11v8.844A26.743,26.743,0,0,0,9.2,21c7.6,0,7.6-2,15.2-2s7.6,2,15.2,2,7.6-2,15.2-2A26.787,26.787,0,0,1,63,20.157V11Z"/><rect class="cls-2" x="14" y="25" width="40" height="6" rx="0.706" ry="0.706"/><rect class="cls-5" x="5" y="5" width="2" height="2"/><rect class="cls-5" x="14" y="5" width="45" height="2"/><polygon class="cls-2" points="59 15 56 18 8 18 5 15 59 15"/><polygon class="cls-2" points="59 59 5 59 8 56 56 56 59 59"/><g id="_Group_" data-name="&lt;Group&gt;"><polygon class="cls-6" points="42 23 37 28 30 28 35 23 42 23"/><polygon class="cls-7" points="35 23 30 28 23 28 28 23 35 23"/><polygon class="cls-6" points="28 23 23 28 16 28 21 23 28 23"/><polygon class="cls-7" points="21 23 16 28 13 28 13 23 21 23"/><polygon class="cls-7" points="49 23 44 28 37 28 42 23 49 23"/><polygon class="cls-6" points="51 23 51 28 44 28 49 23 51 23"/><path class="cls-8" d="M35.6,27c.936,0,1.755-.031,2.489-.084L42,23H35l-3.715,3.715A28.812,28.812,0,0,0,35.6,27Z"/><path class="cls-9" d="M31.285,26.715,35,23H28l-2.43,2.43C27.622,25.82,29.028,26.379,31.285,26.715Z"/><path class="cls-8" d="M20.394,25a27,27,0,0,1,5.176.43L28,23H21l-2.027,2.027C19.418,25.01,19.887,25,20.394,25Z"/><path class="cls-9" d="M21,23H13v2.947a24.545,24.545,0,0,1,5.973-.92Z"/><path class="cls-9" d="M46.751,25.249,49,23H42l-3.916,3.916C42.005,26.632,43.46,25.7,46.751,25.249Z"/><path class="cls-8" d="M49,23l-2.249,2.249A29.379,29.379,0,0,1,50.8,25c.073,0,.132,0,.2,0V23Z"/><path d="M61,0H3A3,3,0,0,0,0,3V61a3,3,0,0,0,3,3H61a3,3,0,0,0,3-3V3A3,3,0,0,0,61,0ZM3,2H61a1,1,0,0,1,1,1v7H2V3A1,1,0,0,1,3,2ZM61,62H3a1,1,0,0,1-1-1V12H62V61A1,1,0,0,1,61,62Z"/><rect x="9" y="5" width="2" height="2"/><path d="M55.586,17H8.414L5.707,14.293,4.293,15.707l3,3A1,1,0,0,0,8,19H56a1,1,0,0,0,.707-.293l3-3-1.414-1.414Z"/><path d="M56,55H8a1,1,0,0,0-.707.293l-3,3,1.414,1.414L8.414,57H55.586l2.707,2.707,1.414-1.414-3-3A1,1,0,0,0,56,55Z"/><path d="M15,47h4v4h2V47h3V45H21V33a1,1,0,0,0-1-1H17a1,1,0,0,0-.94.658l-4,11A1.026,1.026,0,0,0,12,44,2.916,2.916,0,0,0,15,47Zm2.7-13H19V45H15a.888.888,0,0,1-.99-.853Z"/><path d="M48,51V47h3V45H48V33a1,1,0,0,0-1-1H44a1,1,0,0,0-.94.658l-4,11A1.026,1.026,0,0,0,39,44a2.916,2.916,0,0,0,3,3h4v4Zm-6-6a.888.888,0,0,1-.99-.853L44.7,34H46V45Z"/><path d="M29,32a3,3,0,0,0-3,3V48a3,3,0,0,0,3,3h5a3,3,0,0,0,3-3V35a3,3,0,0,0-3-3Zm6,3V48a1,1,0,0,1-1,1H29a1,1,0,0,1-1-1V35a1,1,0,0,1,1-1h5A1,1,0,0,1,35,35Z"/><path d="M52,28V23a1,1,0,0,0-1-1H13a1,1,0,0,0-1,1v5a1,1,0,0,0,1,1H51A1,1,0,0,0,52,28ZM28.414,24h4.172l-3,3H25.414Zm-5.828,3H18.414l3-3h4.172Zm12.828-3h4.172l-3,3H32.414Zm7,0h4.172l-3,3H39.414ZM14,24h4.586l-3,3H14Zm36,3H46.414l3-3H50Z"/></g></g></svg>