<svg xmlns="http://www.w3.org/2000/svg" viewBox="0 0 64 64"><defs><style>.cls-1{fill:#8dd5f6;}.cls-2{fill:#dfe1ea;}.cls-3{fill:#adb2c7;}.cls-4{fill:#aedff7;}.cls-5{fill:#f6fafd;}.cls-6{fill:#0096cf;}.cls-7{fill:#ffc247;}.cls-8{fill:#ffa426;}.cls-9{fill:#f5cd62;}.cls-10{fill:#f5d882;}.cls-11{fill:#f5e3a7;}.cls-12{fill:#fff;}</style></defs><title>64-Coding</title><g id="_64-Coding" data-name="64-Coding"><rect class="cls-1" x="7" y="11" width="50" height="35" rx="1" ry="1"/><path class="cls-2" d="M61,8V50H40v2a1,1,0,0,1-1,1H25a1,1,0,0,1-1-1V50H3V8L4,7H60ZM57,45V12a1,1,0,0,0-1-1H8a1,1,0,0,0-1,1V45a1,1,0,0,0,1,1H56A1,1,0,0,0,57,45Z"/><path class="cls-3" d="M63,50v6l-1,1H2L1,56V50H24v2a1,1,0,0,0,1,1H39a1,1,0,0,0,1-1V50H63Z"/><path class="cls-4" d="M55.8,19c-7.6,0-7.6,2-15.2,2s-7.6-2-15.2-2-7.6,2-15.2,2A31.65,31.65,0,0,1,7,20.85v7a31.65,31.65,0,0,0,3.2.15c7.6,0,7.6-2,15.2-2s7.6,2,15.2,2,7.6-2,15.2-2c.43,0,.82.01,1.2.022v-7C56.617,19.01,56.227,19,55.8,19Z"/><path class="cls-5" d="M25.394,19c7.6,0,7.6,2,15.2,2s7.6-2,15.2-2c.43,0,.82.01,1.2.022V12a1,1,0,0,0-1-1H8a1,1,0,0,0-1,1v8.85a31.65,31.65,0,0,0,3.2.15C17.794,21,17.794,19,25.394,19Z"/><path class="cls-6" d="M45.718,19.077A2.418,2.418,0,0,0,43.705,18H24.3a2.418,2.418,0,0,0-2.013,1.077l-2.439,3.659a2.418,2.418,0,0,0-.07,2.572L31.3,44.811A2.418,2.418,0,0,0,33.381,46h1.238A2.418,2.418,0,0,0,36.7,44.811l11.525-19.5a2.418,2.418,0,0,0-.07-2.572Z"/><polygon class="cls-7" points="47 21 34 42 32 42 38 21 47 21"/><polygon class="cls-7" points="43 15 47 21 38 21 43 15"/><polygon class="cls-8" points="43 15 38 21 32 15 43 15"/><polygon class="cls-7" points="27 21 17 21 21 15 27 21"/><polygon class="cls-8" points="32 15 27 21 21 15 32 15"/><polygon class="cls-7" points="38 21 27 21 32 15 38 21"/><polygon class="cls-8" points="38 21 32 42 27 21 38 21"/><polygon class="cls-7" points="27 21 32 42 30 42 17 21 27 21"/><path class="cls-9" d="M42.6,26a25.883,25.883,0,0,1-5.806-.56L35,32a25.2,25.2,0,0,0,4.966.9l4.1-6.933C43.6,25.989,43.121,26,42.6,26Z"/><path class="cls-10" d="M29.285,31.052A25.159,25.159,0,0,1,35,32l1.789-6.561c-2.652-.579-4.381-1.4-9.106-1.435Z"/><path class="cls-11" d="M29.285,31.052l-1.6-7.047c-.1,0-.186,0-.289,0a26.29,26.29,0,0,0-7.973,1.1l3.657,6.189A28.748,28.748,0,0,1,27.394,31C28.09,31,28.7,31.022,29.285,31.052Z"/><rect class="cls-12" x="44" y="34" width="2" height="2"/><rect class="cls-12" x="18" y="34" width="2" height="2"/><path d="M63,49H62V8a1,1,0,0,0-.293-.707l-1-1A1,1,0,0,0,60,6H4a1,1,0,0,0-.707.293l-1,1A1,1,0,0,0,2,8V49H1a1,1,0,0,0-1,1v6a1,1,0,0,0,.293.707l1,1A1,1,0,0,0,2,58H62a1,1,0,0,0,.707-.293l1-1A1,1,0,0,0,64,56V50A1,1,0,0,0,63,49ZM4,8.414,4.414,8H59.586L60,8.414V49H40a1,1,0,0,0-1,1v2H25V50a1,1,0,0,0-1-1H4ZM62,55.586,61.586,56H2.414L2,55.586V51H23v1a2,2,0,0,0,2,2H39a2,2,0,0,0,2-2V51H62Z"/><path d="M58,45V12a2,2,0,0,0-2-2H8a2,2,0,0,0-2,2V45a2,2,0,0,0,2,2H56A2,2,0,0,0,58,45ZM8,12H56V45L8,45Z"/><path d="M43.832,14.445A1,1,0,0,0,43,14H21a1,1,0,0,0-.832.445l-4,6a1,1,0,0,0-.019,1.081l13,21A1,1,0,0,0,30,43h4a1,1,0,0,0,.851-.474l13-21a1,1,0,0,0-.019-1.081ZM32.067,16.481,35.586,20h-6.45Zm-5.134,3.038L23.414,16h6.45ZM34.414,16h6.45l-2.931,3.519Zm2.26,6L32.088,38.052,28.266,22Zm6.237-5.331L45.131,20H40.136Zm-21.755-.1L24.586,20H18.869ZM18.8,22H26.21l4.524,19h-.177ZM33.443,41h-.117l5.429-19h6.45Z"/><path d="M52,33a.811.811,0,0,1-.71-.29c-.61-.743-.472-2.689-.31-3.516A1,1,0,0,0,50,28H48v2h.865a5.866,5.866,0,0,0,.877,3.977A2.717,2.717,0,0,0,51,34.846v.308a2.717,2.717,0,0,0-1.258.869A5.866,5.866,0,0,0,48.865,40H48v2h2a1,1,0,0,0,.98-1.194c-.162-.827-.3-2.773.31-3.516A.811.811,0,0,1,52,37a1,1,0,0,0,1-1V34A1,1,0,0,0,52,33Z"/><path d="M13.228,28.365a1,1,0,0,0-.208.829c.162.827.3,2.773-.31,3.516A.811.811,0,0,1,12,33a1,1,0,0,0-1,1v2a1,1,0,0,0,1,1,.811.811,0,0,1,.71.29c.61.743.472,2.689.31,3.516A1,1,0,0,0,14,42h2V40h-.865a5.866,5.866,0,0,0-.877-3.977A2.717,2.717,0,0,0,13,35.154v-.308a2.717,2.717,0,0,0,1.258-.869A5.866,5.866,0,0,0,15.135,30H16V28H14A1,1,0,0,0,13.228,28.365Z"/></g></svg>