<svg id="_1.Web_Server" data-name="1.Web Server" xmlns="http://www.w3.org/2000/svg" width="96" height="96" viewBox="0 0 96 96"><defs><style>.cls-1{fill:#f8fafd;}.cls-2{fill:#c3d4ef;}.cls-3{fill:#e5eefd;}.cls-4{fill:#ebf4ff;}.cls-5{fill:#fff;}.cls-6{fill:#a9ebc8;}.cls-7{fill:#283d54;}</style></defs><title>1.Web Server</title><path class="cls-1" d="M95,11V82a3,3,0,0,1-3,3H4a3,3,0,0,1-3-3V11Z"/><path class="cls-2" d="M95,4v7H1V4A3,3,0,0,1,4,1H92A3,3,0,0,1,95,4Z"/><path class="cls-2" d="M90,55V35a3,3,0,0,0-3-3H17a3,3,0,0,0-3,3V55a3,3,0,0,0,3,3h8l-5,5H17a3,3,0,0,0-3,3V85H90V66a3,3,0,0,0-3-3H84l-5-5h8A3,3,0,0,0,90,55Z"/><path class="cls-3" d="M86,66V86a3,3,0,0,1-3,3H13a3,3,0,0,1-3-3V66a3,3,0,0,1,3-3H83A3,3,0,0,1,86,66Z"/><polygon class="cls-4" points="80 63 16 63 21 58 75 58 80 63"/><polygon class="cls-4" points="81 95 15 95 21 89 75 89 81 95"/><polygon class="cls-2" points="75 58 21 58 19 60 77 60 75 58"/><polygon class="cls-2" points="75 89 21 89 19 91 77 91 75 89"/><circle class="cls-5" cx="40" cy="76" r="6"/><circle class="cls-5" cx="22" cy="76" r="6"/><path class="cls-3" d="M86,35V55a3,3,0,0,1-3,3H13a3,3,0,0,1-3-3V35a3,3,0,0,1,3-3H83A3,3,0,0,1,86,35Z"/><circle class="cls-5" cx="40" cy="45" r="6"/><circle class="cls-5" cx="22" cy="45" r="6"/><circle class="cls-6" cx="72" cy="35" r="17"/><path class="cls-7" d="M95,22a1,1,0,0,0,1-1V4a4,4,0,0,0-4-4H4A4,4,0,0,0,0,4V82a4,4,0,0,0,4,4H9a4,4,0,0,0,4,4h5.586l-4,4H10a1,1,0,0,0,0,2H31a1,1,0,0,0,0-2H17.414l4-4H74.586l4,4H37a1,1,0,0,0,0,2H86a1,1,0,0,0,0-2H81.414l-4-4H83a4,4,0,0,0,4-4h5a4,4,0,0,0,4-4V26a1,1,0,0,0-2,0V82a2,2,0,0,1-2,2H87V66a4,4,0,0,0-4-4H80.414l-3-3H83a4,4,0,0,0,4-4V50a1,1,0,0,0-2,0v5a2,2,0,0,1-2,2H13a2,2,0,0,1-2-2V35a2,2,0,0,1,2-2H49a1,1,0,0,0,0-2H13a4,4,0,0,0-4,4V55a4,4,0,0,0,4,4h5.586l-3,3H13a4,4,0,0,0-4,4V84H4a2,2,0,0,1-2-2V4A2,2,0,0,1,4,2H92a2,2,0,0,1,2,2V21A1,1,0,0,0,95,22ZM21.414,59H74.586l3,3H18.414ZM11,66a2,2,0,0,1,2-2H83a2,2,0,0,1,2,2V86a2,2,0,0,1-2,2H13a2,2,0,0,1-2-2Z"/><path class="cls-7" d="M92,11a1,1,0,0,0-1-1H5a1,1,0,0,0,0,2H91A1,1,0,0,0,92,11Z"/><path class="cls-7" d="M8,7A1,1,0,0,0,8,5H6A1,1,0,0,0,6,7Z"/><path class="cls-7" d="M15,7a1,1,0,0,0,0-2H13a1,1,0,0,0,0,2Z"/><path class="cls-7" d="M89,7a1,1,0,0,0,0-2H23a1,1,0,0,0,0,2Z"/><path class="cls-7" d="M22,83a7,7,0,1,0-7-7A7.008,7.008,0,0,0,22,83Zm0-12a5,5,0,1,1-5,5A5.006,5.006,0,0,1,22,71Z"/><path class="cls-7" d="M40,83a7,7,0,1,0-7-7A7.008,7.008,0,0,0,40,83Zm0-12a5,5,0,1,1-5,5A5.006,5.006,0,0,1,40,71Z"/><path class="cls-7" d="M21,77h2a1,1,0,0,0,0-2H21a1,1,0,0,0,0,2Z"/><path class="cls-7" d="M39,77h2a1,1,0,0,0,0-2H39a1,1,0,0,0,0,2Z"/><path class="cls-7" d="M53,80a1,1,0,0,0,1-1V73a1,1,0,0,0-2,0v6A1,1,0,0,0,53,80Z"/><path class="cls-7" d="M59,80a1,1,0,0,0,1-1V73a1,1,0,0,0-2,0v6A1,1,0,0,0,59,80Z"/><path class="cls-7" d="M65,80a1,1,0,0,0,1-1V73a1,1,0,0,0-2,0v6A1,1,0,0,0,65,80Z"/><path class="cls-7" d="M71,80a1,1,0,0,0,1-1V73a1,1,0,0,0-2,0v6A1,1,0,0,0,71,80Z"/><path class="cls-7" d="M77,80a1,1,0,0,0,1-1V73a1,1,0,0,0-2,0v6A1,1,0,0,0,77,80Z"/><path class="cls-7" d="M15,45a7,7,0,1,0,7-7A7.008,7.008,0,0,0,15,45Zm12,0a5,5,0,1,1-5-5A5.006,5.006,0,0,1,27,45Z"/><path class="cls-7" d="M33,45a7,7,0,1,0,7-7A7.008,7.008,0,0,0,33,45Zm12,0a5,5,0,1,1-5-5A5.006,5.006,0,0,1,45,45Z"/><path class="cls-7" d="M20,45a1,1,0,0,0,1,1h2a1,1,0,0,0,0-2H21A1,1,0,0,0,20,45Z"/><path class="cls-7" d="M38,45a1,1,0,0,0,1,1h2a1,1,0,0,0,0-2H39A1,1,0,0,0,38,45Z"/><path class="cls-7" d="M54,35A18,18,0,1,0,72,17,18.021,18.021,0,0,0,54,35Zm34,0A16,16,0,1,1,72,19,16.019,16.019,0,0,1,88,35Z"/><path class="cls-7" d="M72,26a1,1,0,0,0,0,2,6.513,6.513,0,0,1,5.059,1.942,8.805,8.805,0,0,1,1.93,5.182l-1.434-.956a1,1,0,0,0-1.11,1.664l3,2c.016.011.035.014.052.024s.055.026.084.04a.971.971,0,0,0,.269.082c.019,0,.034.014.052.016a.838.838,0,0,0,.086,0L80,38a.737.737,0,0,0,.079-.016,1,1,0,0,0,.29-.056c.031-.013.056-.038.086-.053a1.034,1.034,0,0,0,.231-.154c.006-.006.015-.008.021-.014l3-3a1,1,0,0,0-1.414-1.414l-1.335,1.335a10.56,10.56,0,0,0-2.41-6.021A8.419,8.419,0,0,0,72,26Z"/><path class="cls-7" d="M72,42a6.513,6.513,0,0,1-5.059-1.942,8.805,8.805,0,0,1-1.93-5.182l1.434.956a1,1,0,0,0,1.11-1.664l-3-2c-.015-.01-.032-.012-.048-.021a.959.959,0,0,0-.118-.052.976.976,0,0,0-.238-.073c-.019,0-.034-.014-.053-.016s-.051.008-.077.007a.968.968,0,0,0-.228.021.934.934,0,0,0-.151.042.912.912,0,0,0-.171.092.951.951,0,0,0-.138.1c-.013.011-.028.016-.04.028l-3,3a1,1,0,1,0,1.414,1.414l1.335-1.335a10.56,10.56,0,0,0,2.41,6.021A8.419,8.419,0,0,0,72,44a1,1,0,0,0,0-2Z"/></svg>