<svg xmlns="http://www.w3.org/2000/svg" viewBox="0 0 64 64"><defs><style>.cls-1{fill:#dfe1ea;}.cls-2{fill:#adb2c7;}.cls-3{fill:#cdd2e1;}.cls-4{fill:#f6fafd;}.cls-5{fill:#bec3d2;}.cls-6{fill:#7e8596;}.cls-7{fill:#fff;}.cls-8{fill:#afb4c8;}.cls-9{fill:#ffa426;}.cls-10{fill:#9196aa;}.cls-11{fill:#ffc247;}.cls-12{fill:#f5e3a7;}</style></defs><title>80-Programming</title><g id="_80-Programming" data-name="80-Programming"><path class="cls-1" d="M63,11V57a2.006,2.006,0,0,1-2,2H3a2.006,2.006,0,0,1-2-2V11Z"/><path class="cls-2" d="M61,1a2.006,2.006,0,0,1,2,2v8H1V3A2.006,2.006,0,0,1,3,1Z"/><path class="cls-3" d="M39.6,21c-7.6,0-7.6-2-15.2-2s-7.6,2-15.2,2A26.743,26.743,0,0,1,1,19.844v8A26.743,26.743,0,0,0,9.2,29c7.6,0,7.6-2,15.2-2s7.6,2,15.2,2,7.6-2,15.2-2A26.787,26.787,0,0,1,63,28.157v-8A26.787,26.787,0,0,0,54.8,19C47.2,19,47.2,21,39.6,21Z"/><path class="cls-4" d="M1,11v8.844A26.743,26.743,0,0,0,9.2,21c7.6,0,7.6-2,15.2-2s7.6,2,15.2,2,7.6-2,15.2-2A26.787,26.787,0,0,1,63,20.157V11Z"/><path class="cls-5" d="M36,46a4,4,0,0,0-4,4v9h8V50A4,4,0,0,0,36,46Z"/><path class="cls-5" d="M39.6,29c-7.6,0-7.6-2-15.2-2a25.389,25.389,0,0,0-7.347.934A18.988,18.988,0,0,0,55,27c-.071,0-.13,0-.2,0C47.2,27,47.2,29,39.6,29Z"/><path class="cls-6" d="M36,8a18.887,18.887,0,0,0-10.217,3H46.217A18.887,18.887,0,0,0,36,8Z"/><path class="cls-5" d="M24.394,19a25.832,25.832,0,0,0-5.887.577A18.939,18.939,0,0,0,17,27c0,.315.032.623.047.934A25.389,25.389,0,0,1,24.394,27c7.6,0,7.6,2,15.2,2s7.6-2,15.2-2c.073,0,.132,0,.2,0v0a18.882,18.882,0,0,0-1.769-7.965C47.165,19.29,46.63,21,39.6,21,32,21,32,19,24.394,19Z"/><path class="cls-5" d="M18.507,19.577A25.832,25.832,0,0,1,24.394,19c7.6,0,7.6,2,15.2,2,7.035,0,7.57-1.71,13.636-1.965A19.053,19.053,0,0,0,46.217,11H25.783A19.067,19.067,0,0,0,18.507,19.577Z"/><rect class="cls-7" x="9" y="5" width="2" height="2"/><path class="cls-8" d="M36,50V64H28V50a4,4,0,0,0,8,0Z"/><circle class="cls-9" cx="32" cy="27" r="15"/><circle class="cls-3" cx="32" cy="50" r="4"/><path class="cls-2" d="M32,8A19,19,0,1,1,13,27,19,19,0,0,1,32,8ZM47,27A15,15,0,1,0,32,42,15.005,15.005,0,0,0,47,27Z"/><path class="cls-10" d="M32,54a4,4,0,0,1-4-4v6.037c3.866.167,5.492.924,8,1.449V50A4,4,0,0,1,32,54Z"/><path class="cls-11" d="M45.466,20.427A25.877,25.877,0,0,1,39.6,21c-7.6,0-7.6-2-15.2-2a26.718,26.718,0,0,0-5.345.461A14.9,14.9,0,0,0,17,27c0,.315.028.624.047.934A25.389,25.389,0,0,1,24.394,27c7.6,0,7.6,2,15.2,2a25.4,25.4,0,0,0,7.351-.935C46.971,27.712,47,27.36,47,27A14.9,14.9,0,0,0,45.466,20.427Z"/><path class="cls-12" d="M39.6,21a25.877,25.877,0,0,0,5.871-.573,14.972,14.972,0,0,0-26.417-.966A26.718,26.718,0,0,1,24.394,19C32,19,32,21,39.6,21Z"/><rect class="cls-3" x="28" y="60" width="8" height="4"/><rect class="cls-7" x="26.41" y="26.5" width="11.18" height="1.999" transform="translate(-0.778 54.067) rotate(-79.7)"/><rect class="cls-7" x="57" y="49" width="2" height="7"/><rect class="cls-7" x="5" y="49" width="2" height="7"/><path d="M61,0H3A3,3,0,0,0,0,3V57a3,3,0,0,0,3,3H27v4h2V53.974a4.9,4.9,0,0,0,6,0V64h2V60H61a3,3,0,0,0,3-3V3A3,3,0,0,0,61,0ZM32,53a3,3,0,1,1,3-3A3,3,0,0,1,32,53Zm0-8A18,18,0,1,1,50,27,18.021,18.021,0,0,1,32,45ZM61,58H37V50a4.965,4.965,0,0,0-1.318-3.354,20,20,0,1,0-7.364,0A4.965,4.965,0,0,0,27,50v8H3a1,1,0,0,1-1-1V12H16V10H2V3A1,1,0,0,1,3,2H61a1,1,0,0,1,1,1v7H48v2H62V57A1,1,0,0,1,61,58Z"/><rect x="5" y="5" width="2" height="2"/><path d="M32,11A16,16,0,1,0,48,27,16.019,16.019,0,0,0,32,11Zm0,30A14,14,0,1,1,46,27,14.015,14.015,0,0,1,32,41Z"/><path d="M26.293,21.293l-5,5a1,1,0,0,0,0,1.414l5,5,1.414-1.414L23.414,27l4.293-4.293Z"/><path d="M42.707,26.293l-5-5-1.414,1.414L40.586,27l-4.293,4.293,1.414,1.414,5-5A1,1,0,0,0,42.707,26.293Z"/><path d="M59,25a.811.811,0,0,1-.71-.29c-.61-.743-.472-2.689-.31-3.516A1,1,0,0,0,57,20H55v2h.865a5.866,5.866,0,0,0,.877,3.977A2.717,2.717,0,0,0,58,26.846v.308a2.717,2.717,0,0,0-1.258.869A5.866,5.866,0,0,0,55.865,32H55v2h2a1,1,0,0,0,.98-1.194c-.162-.827-.3-2.773.31-3.516A.811.811,0,0,1,59,29a1,1,0,0,0,1-1V26A1,1,0,0,0,59,25Z"/><path d="M5,29a.811.811,0,0,1,.71.29c.61.743.472,2.689.31,3.516A1,1,0,0,0,7,34H9V32H8.135a5.866,5.866,0,0,0-.877-3.977A2.717,2.717,0,0,0,6,27.154v-.308a2.717,2.717,0,0,0,1.258-.869A5.866,5.866,0,0,0,8.135,22H9V20H7a1,1,0,0,0-.98,1.194c.162.827.3,2.773-.31,3.516A.811.811,0,0,1,5,25a1,1,0,0,0-1,1v2A1,1,0,0,0,5,29Z"/><rect x="45" y="49" width="2" height="7"/><path d="M53,49H51a2,2,0,0,0-2,2v3a2,2,0,0,0,2,2h2a2,2,0,0,0,2-2V51A2,2,0,0,0,53,49Zm0,5-2,0V51h2Z"/><path d="M58,40H56a2,2,0,0,0-2,2v3a2,2,0,0,0,2,2h2a2,2,0,0,0,2-2V42A2,2,0,0,0,58,40Zm0,5-2,0V42h2Z"/><rect x="17" y="49" width="2" height="7"/><path d="M9,51v3a2,2,0,0,0,2,2h2a2,2,0,0,0,2-2V51a2,2,0,0,0-2-2H11A2,2,0,0,0,9,51Zm4,3H11V51h2Z"/><path d="M10,45V42a2,2,0,0,0-2-2H6a2,2,0,0,0-2,2v3a2,2,0,0,0,2,2H8A2,2,0,0,0,10,45ZM8,45H6V42H8Z"/><circle class="cls-1" cx="32" cy="50" r="2"/></g></svg>