<svg xmlns="http://www.w3.org/2000/svg" xmlns:xlink="http://www.w3.org/1999/xlink" viewBox="0 0 64 64"><defs><style>.cls-1{fill:#ccd3eb;}.cls-2{fill:#f5f7ff;}.cls-3{fill:#96a1c3;}.cls-4{fill:#647499;}.cls-5{fill:url(#linear-gradient);}.cls-6{fill:#0668cb;}.cls-7{fill:url(#linear-gradient-2);}.cls-8{fill:#033c59;}</style><linearGradient id="linear-gradient" x1="30" y1="43" x2="34" y2="43" gradientUnits="userSpaceOnUse"><stop offset="0" stop-color="#d3e6f5"/><stop offset="1" stop-color="#f0f7fc"/></linearGradient><linearGradient id="linear-gradient-2" x1="46.5" y1="56" x2="49.5" y2="56" xlink:href="#linear-gradient"/></defs><title>Responsive display</title><g id="Responsive_display" data-name="Responsive display"><path class="cls-1" d="M60,10V38H4V10A6,6,0,0,1,8,4.35,5.8,5.8,0,0,1,10,4H54A6,6,0,0,1,60,10Z"/><path class="cls-2" d="M57,10V38H4V10A6,6,0,0,1,8,4.35,5.8,5.8,0,0,1,10,4H51A6,6,0,0,1,57,10Z"/><path class="cls-3" d="M60,38v4a6,6,0,0,1-6,6H10a6,6,0,0,1-6-6V38Z"/><polygon class="cls-4" points="42.29 59 21.71 59 25.83 47 38.17 47 42.29 59"/><path class="cls-5" d="M33,44H31a1,1,0,0,1,0-2h2a1,1,0,0,1,0,2Z"/><path class="cls-6" d="M44,61H20a1,1,0,0,1,0-2H44a1,1,0,0,1,0,2Z"/><path class="cls-3" d="M60,52v4a3.93,3.93,0,0,1-.36,1.64A4,4,0,0,1,56,60H40a4,4,0,0,1-4-4V52Z"/><path class="cls-1" d="M55,52v4a3.93,3.93,0,0,1-.36,1.64A4,4,0,0,1,51,60H40a4,4,0,0,1-4-4V52Z"/><path class="cls-7" d="M48.5,57h-1a1,1,0,0,1,0-2h1a1,1,0,0,1,0,2Z"/><path class="cls-1" d="M60,25V51H36V23a4,4,0,0,1,4-4H54A6,6,0,0,1,60,25Z"/><path class="cls-2" d="M57,25V51H36V23a4,4,0,0,1,4-4H51A6,6,0,0,1,57,25Z"/><path class="cls-3" d="M53,20v2a2,2,0,0,1-2,2H45a2,2,0,0,1-2-2V20Z"/><path class="cls-1" d="M51,20v1a2,2,0,0,1-2,2H43.27A2,2,0,0,1,43,22V20Z"/><path class="cls-8" d="M48.5,55h-1a1,1,0,0,0,0,2h1a1,1,0,0,0,0-2Z"/><path class="cls-8" d="M31,44h2a1,1,0,0,0,0-2H31a1,1,0,0,0,0,2Z"/><path class="cls-8" d="M54,3H10a7,7,0,0,0-7,7V42a7,7,0,0,0,7,7H24.43L21,59H20a1,1,0,0,0,0,2H56a5,5,0,0,0,5-5V10A7,7,0,0,0,54,3ZM5,42V39H35v8H10A5,5,0,0,1,5,42Zm21.54,7H35v7a4.92,4.92,0,0,0,1,3H23.11ZM56,59H40a3,3,0,0,1-3-3V53H59v3A3,3,0,0,1,56,59ZM44,21h8v1a1,1,0,0,1-1,1H45a1,1,0,0,1-1-1Zm9-2H40a5,5,0,0,0-5,5,1,1,0,0,0,2,0,3,3,0,0,1,3-3h2v1a3,3,0,0,0,3,3h6a3,3,0,0,0,3-3V21a5,5,0,0,1,5,5V51H37V33a1,1,0,0,0-2,0v4H5V10a5,5,0,0,1,5-5H54a5,5,0,0,1,5,5V21.11A7,7,0,0,0,54,19Z"/><path class="cls-8" d="M35,29a1,1,0,0,0,2,0V28a1,1,0,0,0-2,0Z"/></g></svg>