<svg xmlns="http://www.w3.org/2000/svg" viewBox="0 0 64 64"><defs><style>.cls-1{fill:#979faf;}.cls-2{fill:#adb2c7;}.cls-3{fill:#8dd5f6;}.cls-4{fill:#dfe1ea;}.cls-5{fill:#aedff7;}.cls-6{fill:#f6fafd;}.cls-7{fill:#7e8596;}.cls-8{fill:#0096cf;}.cls-9{fill:#ffc247;}.cls-10{fill:#ffa426;}.cls-11{fill:#f5cd62;}.cls-12{fill:#f5d882;}.cls-13{fill:#f5e3a7;}.cls-14{fill:#ffcdbe;}.cls-15{fill:#b46e5a;}.cls-16{fill:#ffbeaa;}.cls-17{fill:#f2f6fc;}.cls-18{fill:#bec3d2;}.cls-19{fill:#915041;}</style></defs><title>52-Programmer</title><g id="_52-Programmer" data-name="52-Programmer"><rect class="cls-1" x="19" y="59" width="26" height="3"/><polygon class="cls-2" points="40 50 45 59 19 59 24 50 40 50"/><path class="cls-3" d="M63,4V42H1V4A2.006,2.006,0,0,1,3,2H61A2.006,2.006,0,0,1,63,4Z"/><path class="cls-4" d="M63,42v6a2.006,2.006,0,0,1-2,2H3a2.006,2.006,0,0,1-2-2V42Z"/><path class="cls-5" d="M61,2H3A2.006,2.006,0,0,0,1,4V18.844A26.743,26.743,0,0,0,9.2,20c7.6,0,7.6-2,15.2-2s7.6,2,15.2,2,7.6-2,15.2-2A26.787,26.787,0,0,1,63,19.157V4A2.006,2.006,0,0,0,61,2Z"/><path class="cls-6" d="M61,2H3A2.006,2.006,0,0,0,1,4v7.844A26.743,26.743,0,0,0,9.2,13c7.6,0,7.6-2,15.2-2s7.6,2,15.2,2,7.6-2,15.2-2A26.787,26.787,0,0,1,63,12.157V4A2.006,2.006,0,0,0,61,2Z"/><path class="cls-7" d="M24,50l-1.832,3.3A25.289,25.289,0,0,0,28.6,54c6.6,0,7.475-1.507,12.57-1.9L40,50Z"/><path class="cls-8" d="M32,30H27V27.33A6.592,6.592,0,0,0,29,26c2-2,2-3,2-3V21h1a2,2,0,0,0,0-4H31V14h3s0-8-7-8H22s-5,0-5,6v5H16a2,2,0,0,0,0,4h1v2s0,1,2,3a6.592,6.592,0,0,0,2,1.33V30H16s-5,0-5,5v7H37V35C37,30,32,30,32,30Z"/><path class="cls-8" d="M59.718,13.077A2.418,2.418,0,0,0,57.705,12H38.3a2.418,2.418,0,0,0-2.013,1.077l-2.439,3.659a2.418,2.418,0,0,0-.07,2.572L45.3,38.811A2.418,2.418,0,0,0,47.381,40h1.238A2.418,2.418,0,0,0,50.7,38.811l11.525-19.5a2.418,2.418,0,0,0-.07-2.572Z"/><polygon class="cls-9" points="60 15 47 37 45 37 51 15 60 15"/><polygon class="cls-9" points="56 9 60 15 51 15 56 9"/><polygon class="cls-10" points="56 9 51 15 45 9 56 9"/><polygon class="cls-9" points="40 15 30 15 34 9 40 15"/><polygon class="cls-10" points="45 9 40 15 34 9 45 9"/><polygon class="cls-9" points="51 15 40 15 45 9 51 15"/><polygon class="cls-10" points="51 15 45 37 40 15 51 15"/><polygon class="cls-9" points="40 15 45 37 43 37 30 15 40 15"/><path class="cls-11" d="M55.6,20a25.883,25.883,0,0,1-5.806-.56L48,26a25.2,25.2,0,0,0,4.966.9l4.1-6.933C56.6,19.989,56.121,20,55.6,20Z"/><path class="cls-12" d="M42.285,25.052A25.159,25.159,0,0,1,48,26l1.789-6.561c-2.652-.579-4.381-1.4-9.106-1.435Z"/><path class="cls-13" d="M42.285,25.052l-1.6-7.047c-.1,0-.186,0-.289,0a26.29,26.29,0,0,0-7.973,1.1l3.657,6.189A28.748,28.748,0,0,1,40.394,25C41.09,25,41.7,25.022,42.285,25.052Z"/><path class="cls-14" d="M28,17a2,2,0,0,1,0,4H27V17Z"/><path class="cls-15" d="M13,18V12c0-6,5-6,5-6h5c7,0,7,8,7,8H19C19,17,13,18,13,18Z"/><path class="cls-14" d="M13,18v3H12a2,2,0,0,1,0-4h1Z"/><path class="cls-14" d="M17,27.33A6.592,6.592,0,0,1,15,26c-2-2-2-3-2-3V18s6-1,6-4h8v9s0,1-2,3a6.592,6.592,0,0,1-2,1.33A8.459,8.459,0,0,1,20,28,8.459,8.459,0,0,1,17,27.33Z"/><path class="cls-16" d="M23,30v1a3,3,0,0,1-6,0V27.33A8.459,8.459,0,0,0,20,28a8.459,8.459,0,0,0,3-.67Z"/><path class="cls-17" d="M20,34a2.938,2.938,0,0,0,3-3l3,3s-2,4-6,4Z"/><path class="cls-17" d="M20,34v4c-4,0-6-4-6-4l3-3A2.938,2.938,0,0,0,20,34Z"/><path class="cls-18" d="M14,34s2,4,6,4,6-4,6-4l-3-3V30h5s5,0,5,5v7H7V35c0-5,5-5,5-5h5v1Z"/><path class="cls-16" d="M27,14H19c0,3-6,4-6,4v.168A31.293,31.293,0,0,1,16.394,18C22.049,18,23.5,19.106,27,19.673V14Z"/><path class="cls-19" d="M13,17v1s6-1,6-4H13Z"/><path class="cls-7" d="M12,30s-5,0-5,5v7h6V30Z"/><path class="cls-7" d="M28,30H27V42h6V35C33,30,28,30,28,30Z"/><path d="M61,1H3A3,3,0,0,0,0,4V48a3,3,0,0,0,3,3H22.3l-4.175,7.515A.991.991,0,0,0,18,59v2H16v2H48V61H46V59a.991.991,0,0,0-.126-.485L41.7,51H61a3,3,0,0,0,3-3V4A3,3,0,0,0,61,1ZM3,3H61a1,1,0,0,1,1,1V41H34V35a5.785,5.785,0,0,0-6-6H24V27.938a7.034,7.034,0,0,0,1.707-1.231C27.834,24.579,28,23.332,28,23V22a3,3,0,0,0,0-6V15h2a1,1,0,0,0,1-1c0-3.113-1.672-9-8-9H18c-2.075,0-6,1.463-6,7v4a3,3,0,0,0,0,6v1c0,.332.166,1.579,2.293,3.707A7.034,7.034,0,0,0,16,27.938V29H12a5.785,5.785,0,0,0-6,6v6H2V4A1,1,0,0,1,3,3ZM26,39v2H21V38.92c3.89-.57,5.808-4.3,5.9-4.473a1,1,0,0,0-.188-1.154L24.414,31H28c.163,0,4,.046,4,4v6H28V39ZM12,39v2H8V35a3.85,3.85,0,0,1,4-4h3.586l-2.293,2.293a1,1,0,0,0-.188,1.154c.087.172,2,3.9,5.9,4.473V41H14V39ZM28,18a1,1,0,0,1,0,2Zm-9-5a1,1,0,0,0-1,1c0,1.3-2.243,2.272-4,2.752V12c0-4.809,3.6-4.995,4-5h5c4.589,0,5.668,4.06,5.922,6Zm.843,2H26l0,7.919c0,.008-.144.808-1.711,2.374A6.8,6.8,0,0,1,20,27a6.8,6.8,0,0,1-4.293-1.707A6.466,6.466,0,0,1,14,23V18.816C15.652,18.431,19.07,17.36,19.843,15ZM16.477,32.937A3.633,3.633,0,0,0,19,34.9v2a6.472,6.472,0,0,1-3.736-2.744ZM21,34.9a3.633,3.633,0,0,0,2.523-1.959l1.213,1.213A6.474,6.474,0,0,1,21,36.894ZM20,29a8.515,8.515,0,0,0,2-.291V31a1.882,1.882,0,0,1-2,2,1.882,1.882,0,0,1-2-2V28.709A8.515,8.515,0,0,0,20,29Zm-8-9a1,1,0,0,1,0-2Zm8,41V60H44v1Zm23.3-3H20.7l3.889-7H39.412ZM61,49H3a1,1,0,0,1-1-1V43H62v5A1,1,0,0,1,61,49Z"/><path d="M37.586,14H34v2h5.2l4.545,20h-.176L35,21.491l-1.722,1.018,8.864,15A1,1,0,0,0,43,38h4a1,1,0,0,0,.861-.491l13-22a1,1,0,0,0-.029-1.064l-4-6A1,1,0,0,0,56,8H34a1,1,0,0,0-.707,1.707Zm3.667,2h8.438l-4.6,16.876Zm5.176,20h-.12l5.455-20h6.483Zm11.7-22h-5l2.776-3.331Zm-4.266-4-2.932,3.519L47.414,10Zm-5.279,4H42.135l2.932-3.519Zm-5.721-4-2.932,3.519L36.414,10Z"/></g></svg>