<svg xmlns="http://www.w3.org/2000/svg" viewBox="0 0 64 64"><defs><style>.cls-1{fill:#979faf;}.cls-2{fill:#adb2c7;}.cls-3{fill:#8dd5f6;}.cls-4{fill:#dfe1ea;}.cls-5{fill:#aedff7;}.cls-6{fill:#f6fafd;}.cls-7{fill:#7e8596;}.cls-8{fill:#0096cf;}.cls-9{fill:#fff;}</style></defs><title>57-Error Site</title><g id="_57-Error_Site" data-name="57-Error Site"><rect class="cls-1" x="19" y="59" width="26" height="3"/><polygon class="cls-2" points="40 50 45 59 19 59 24 50 40 50"/><path class="cls-3" d="M63,4V42H1V4A2.006,2.006,0,0,1,3,2H61A2.006,2.006,0,0,1,63,4Z"/><path class="cls-4" d="M63,42v6a2.006,2.006,0,0,1-2,2H3a2.006,2.006,0,0,1-2-2V42Z"/><path class="cls-5" d="M61,2H3A2.006,2.006,0,0,0,1,4V18.844A26.743,26.743,0,0,0,9.2,20c7.6,0,7.6-2,15.2-2s7.6,2,15.2,2,7.6-2,15.2-2A26.787,26.787,0,0,1,63,19.157V4A2.006,2.006,0,0,0,61,2Z"/><path class="cls-6" d="M61,2H3A2.006,2.006,0,0,0,1,4v7.844A26.743,26.743,0,0,0,9.2,13c7.6,0,7.6-2,15.2-2s7.6,2,15.2,2,7.6-2,15.2-2A26.787,26.787,0,0,1,63,12.157V4A2.006,2.006,0,0,0,61,2Z"/><path class="cls-7" d="M24,50l-1.832,3.3A25.289,25.289,0,0,0,28.6,54c6.6,0,7.475-1.507,12.57-1.9L40,50Z"/><rect class="cls-8" x="7" y="9" width="22" height="23" rx="1.576" ry="1.576"/><rect class="cls-9" x="6" y="15" width="20" height="14"/><rect class="cls-7" x="6" y="7" width="20" height="8"/><rect class="cls-4" x="9" y="18" width="14" height="8"/><rect class="cls-9" x="9" y="10" width="2" height="2"/><rect class="cls-9" x="13" y="10" width="2" height="2"/><path d="M61,1H3A3,3,0,0,0,0,4V48a3,3,0,0,0,3,3H22.3l-4.175,7.515A.991.991,0,0,0,18,59v2H16v2H48V61H46V59a.991.991,0,0,0-.126-.485L41.7,51H61a3,3,0,0,0,3-3V4A3,3,0,0,0,61,1ZM3,3H61a1,1,0,0,1,1,1V41H2V4A1,1,0,0,1,3,3ZM20,61V60H44v1Zm23.3-3H20.7l3.889-7H39.412ZM61,49H3a1,1,0,0,1-1-1V43H62v5A1,1,0,0,1,61,49Z"/><path d="M6,30H19V28H7V16H25v1h2V7a1,1,0,0,0-1-1H6A1,1,0,0,0,5,7V29A1,1,0,0,0,6,30ZM25,8v6H7V8Z"/><path d="M25.06,19.658l-4,11A1.026,1.026,0,0,0,21,31a2.916,2.916,0,0,0,3,3h4v4h2V34h3V32H30V20a1,1,0,0,0-1-1H26A1,1,0,0,0,25.06,19.658ZM28,21V32H24a.888.888,0,0,1-.99-.853L26.7,21Z"/><path d="M50,34h4v4h2V34h3V32H56V20a1,1,0,0,0-1-1H52a1,1,0,0,0-.94.658l-4,11A1.026,1.026,0,0,0,47,31,2.916,2.916,0,0,0,50,34Zm2.7-13H54V32H50a.888.888,0,0,1-.99-.853Z"/><path d="M35,22V35a3,3,0,0,0,3,3h4a3,3,0,0,0,3-3V22a3,3,0,0,0-3-3H38A3,3,0,0,0,35,22Zm8,0V35a1,1,0,0,1-1,1H38a1,1,0,0,1-1-1V22a1,1,0,0,1,1-1h4A1,1,0,0,1,43,22Z"/><path d="M13.293,18.293l-3,3a1,1,0,0,0,0,1.414l3,3,1.414-1.414L12.414,22l2.293-2.293Z"/><path d="M18.707,25.707l3-3a1,1,0,0,0,0-1.414l-3-3-1.414,1.414L19.586,22l-2.293,2.293Z"/><rect x="30" y="15" width="11" height="2"/><rect x="30" y="11" width="6" height="2"/></g></svg>