<svg xmlns="http://www.w3.org/2000/svg" viewBox="0 0 64 64"><defs><style>.cls-1{fill:#dfe1ea;}.cls-2{fill:#adb2c7;}.cls-3{fill:#cdd2e1;}.cls-4{fill:#f6fafd;}.cls-5{fill:#fff;}.cls-6{fill:#73c6b2;}.cls-7{fill:#c8f5e6;}</style></defs><title>24-Coding</title><g id="_24-Coding" data-name="24-Coding"><path class="cls-1" d="M63,11V54a2.006,2.006,0,0,1-2,2H3a2.006,2.006,0,0,1-2-2V11Z"/><path class="cls-2" d="M61,1a2.006,2.006,0,0,1,2,2v8H1V3A2.006,2.006,0,0,1,3,1Z"/><path class="cls-3" d="M39.6,21c-7.6,0-7.6-2-15.2-2s-7.6,2-15.2,2A26.743,26.743,0,0,1,1,19.844v8A26.743,26.743,0,0,0,9.2,29c7.6,0,7.6-2,15.2-2s7.6,2,15.2,2,7.6-2,15.2-2A26.787,26.787,0,0,1,63,28.157v-8A26.787,26.787,0,0,0,54.8,19C47.2,19,47.2,21,39.6,21Z"/><path class="cls-4" d="M1,11v8.844A26.743,26.743,0,0,0,9.2,21c7.6,0,7.6-2,15.2-2s7.6,2,15.2,2,7.6-2,15.2-2A26.787,26.787,0,0,1,63,20.157V11Z"/><path class="cls-2" d="M46,35A14.989,14.989,0,0,0,32.258,56H59.742A14.989,14.989,0,0,0,46,35Z"/><rect class="cls-2" x="6" y="16" width="11" height="11" rx="0.88" ry="0.88"/><polygon class="cls-3" points="14 16 14 24 6 24 14 16"/><polygon class="cls-5" points="14 16 6 24 6 16 14 16"/><rect class="cls-2" x="6" y="30" width="11" height="11" rx="0.88" ry="0.88"/><polygon class="cls-3" points="14 30 14 38 6 38 14 30"/><polygon class="cls-5" points="14 30 6 38 6 30 14 30"/><rect class="cls-2" x="6" y="44" width="11" height="11" rx="0.88" ry="0.88"/><polygon class="cls-3" points="14 44 14 52 6 52 14 44"/><polygon class="cls-5" points="14 44 6 52 6 44 14 44"/><rect class="cls-5" x="5" y="5" width="2" height="2"/><rect class="cls-5" x="14" y="5" width="45" height="2"/><circle class="cls-6" cx="44" cy="48" r="15"/><path class="cls-7" d="M44,33a15,15,0,0,0-13.771,9.061A25.391,25.391,0,0,0,37.6,43c7.6,0,7.6-2,15.2-2a27.968,27.968,0,0,1,4.624.335A14.991,14.991,0,0,0,44,33Z"/><path d="M61,0H3A3,3,0,0,0,0,3V54a3,3,0,0,0,3,3H28V55H3a1,1,0,0,1-1-1V12H62V54a1,1,0,0,1-1,1v2a3,3,0,0,0,3-3V3A3,3,0,0,0,61,0ZM2,10V3A1,1,0,0,1,3,2H61a1,1,0,0,1,1,1v7Z"/><rect x="9" y="5" width="2" height="2"/><path d="M15,16a1,1,0,0,0-1-1H6a1,1,0,0,0-1,1v8a1,1,0,0,0,1,1h8a1,1,0,0,0,1-1Zm-3.414,1L7,21.586V17ZM8.414,23,13,18.414V23Z"/><path d="M15,30a1,1,0,0,0-1-1H6a1,1,0,0,0-1,1v8a1,1,0,0,0,1,1h8a1,1,0,0,0,1-1Zm-3.414,1L7,35.586V31ZM8.414,37,13,32.414V37Z"/><path d="M14,43H6a1,1,0,0,0-1,1v8a1,1,0,0,0,1,1h8a1,1,0,0,0,1-1V44A1,1,0,0,0,14,43Zm-2.414,2L7,49.586V45ZM8.414,51,13,46.414V51Z"/><rect x="18" y="15" width="22" height="2"/><rect x="18" y="20" width="10" height="2"/><rect x="18" y="29" width="19" height="2"/><rect x="18" y="34" width="10" height="2"/><rect x="18" y="43" width="7" height="2"/><rect x="18" y="48" width="5" height="2"/><path d="M44,32A16,16,0,1,0,60,48,16.019,16.019,0,0,0,44,32Zm0,30A14,14,0,1,1,58,48,14.015,14.015,0,0,1,44,62Z"/><path d="M45.293,18.293l-3,3a1,1,0,0,0,0,1.414l3,3,1.414-1.414L44.414,22l2.293-2.293Z"/><path d="M54.707,25.707l3-3a1,1,0,0,0,0-1.414l-3-3-1.414,1.414L55.586,22l-2.293,2.293Z"/><rect x="46.36" y="21.5" width="7.28" height="2.001" transform="translate(14.63 64.395) rotate(-74.055)"/><path d="M40.864,52.921a18.376,18.376,0,0,1-3.157-2.628l-1.414,1.414C37.8,53.209,39.831,55,41,55c.561,0,1.5,0,10.8-12.4l-1.6-1.2C46.454,46.4,42.117,51.833,40.864,52.921Z"/></g></svg>