<svg xmlns="http://www.w3.org/2000/svg" viewBox="0 0 64 64"><defs><style>.cls-1{fill:#dfe1ea;}.cls-2{fill:#adb2c7;}.cls-3{fill:#cdd2e1;}.cls-4{fill:#e9edf5;}.cls-5{fill:#f2f6fc;}.cls-6{fill:#ffc247;}.cls-7{fill:#ffa426;}.cls-8{fill:#f5cd62;}.cls-9{fill:#f5d882;}.cls-10{fill:#f5e3a7;}.cls-11{fill:#fff;}</style></defs><title>47-Development</title><g id="_47-Development" data-name="47-Development"><path class="cls-1" d="M63,11V61a2.006,2.006,0,0,1-2,2H3a2.006,2.006,0,0,1-2-2V11Z"/><path class="cls-2" d="M61,1a2.006,2.006,0,0,1,2,2v8H1V3A2.006,2.006,0,0,1,3,1Z"/><path class="cls-3" d="M39.6,21c-7.6,0-7.6-2-15.2-2s-7.6,2-15.2,2A26.743,26.743,0,0,1,1,19.844v8A26.743,26.743,0,0,0,9.2,29c7.6,0,7.6-2,15.2-2s7.6,2,15.2,2,7.6-2,15.2-2A26.787,26.787,0,0,1,63,28.157v-8A26.787,26.787,0,0,0,54.8,19C47.2,19,47.2,21,39.6,21Z"/><path class="cls-4" d="M1,11v8.844A26.743,26.743,0,0,0,9.2,21c7.6,0,7.6-2,15.2-2s7.6,2,15.2,2,7.6-2,15.2-2A26.787,26.787,0,0,1,63,20.157V11Z"/><path class="cls-2" d="M38.718,34.077A2.418,2.418,0,0,0,36.705,33H17.3a2.418,2.418,0,0,0-2.013,1.077l-2.439,3.659a2.418,2.418,0,0,0-.07,2.572L24.3,59.811A2.418,2.418,0,0,0,26.381,61h1.238A2.418,2.418,0,0,0,29.7,59.811l11.525-19.5a2.418,2.418,0,0,0-.07-2.572Z"/><path class="cls-2" d="M60,30l1,2-1,2-4.32.58a10.8,10.8,0,0,1-1.3,3.15l2.64,3.46-.71,2.12-2.12.71-3.46-2.64a10.8,10.8,0,0,1-3.15,1.3L47,47l-2,1-2-1-.58-4.32a10.8,10.8,0,0,1-3.15-1.3l-3.46,2.64-2.12-.71-.71-2.12,2.64-3.46a10.8,10.8,0,0,1-1.3-3.15L30,34l-1-2,1-2,4.32-.58a10.8,10.8,0,0,1,1.3-3.15l-2.64-3.46.71-2.12,2.12-.71,3.46,2.64a10.8,10.8,0,0,1,3.15-1.3L43,17l2-1,2,1,.58,4.32a10.8,10.8,0,0,1,3.15,1.3l3.46-2.64,2.12.71.71,2.12-2.64,3.46a10.8,10.8,0,0,1,1.3,3.15Zm-9,2a6,6,0,1,0-6,6A6,6,0,0,0,51,32Z"/><path class="cls-5" d="M57,29l1,2-1,2-4.32.58a10.8,10.8,0,0,1-1.3,3.15l2.64,3.46-.71,2.12-2.12.71-3.46-2.64a10.8,10.8,0,0,1-3.15,1.3L44,46l-2,1-2-1-.58-4.32a10.8,10.8,0,0,1-3.15-1.3l-3.46,2.64-2.12-.71-.71-2.12,2.64-3.46a10.8,10.8,0,0,1-1.3-3.15L27,33l-1-2,1-2,4.32-.58a10.8,10.8,0,0,1,1.3-3.15l-2.64-3.46.71-2.12,2.12-.71,3.46,2.64a10.8,10.8,0,0,1,3.15-1.3l.58-4.32,2-1,2,1,.58,4.32a10.8,10.8,0,0,1,3.15,1.3l3.46-2.64,2.12.71.71,2.12-2.64,3.46a10.8,10.8,0,0,1,1.3,3.15Zm-9,2a6,6,0,1,0-6,6A6,6,0,0,0,48,31Z"/><polygon class="cls-6" points="39 36 26 58 24 58 30 36 39 36"/><polygon class="cls-6" points="35 30 39 36 30 36 35 30"/><polygon class="cls-7" points="35 30 30 36 24 30 35 30"/><polygon class="cls-6" points="19 36 9 36 13 30 19 36"/><polygon class="cls-7" points="24 30 19 36 13 30 24 30"/><polygon class="cls-6" points="30 36 19 36 24 30 30 36"/><polygon class="cls-7" points="30 36 24 58 19 36 30 36"/><polygon class="cls-6" points="19 36 24 58 22 58 9 36 19 36"/><path class="cls-8" d="M34.6,41a25.883,25.883,0,0,1-5.806-.56L27,47a25.2,25.2,0,0,0,4.966.9l4.1-6.933C35.6,40.989,35.121,41,34.6,41Z"/><path class="cls-9" d="M21.285,46.052A25.159,25.159,0,0,1,27,47l1.789-6.561c-2.652-.579-4.381-1.4-9.106-1.435Z"/><path class="cls-10" d="M21.285,46.052l-1.6-7.047c-.1,0-.186-.005-.289-.005a26.29,26.29,0,0,0-7.973,1.1l3.657,6.189A28.748,28.748,0,0,1,19.394,46C20.09,46,20.7,46.022,21.285,46.052Z"/><rect class="cls-11" x="5" y="5" width="2" height="2"/><rect class="cls-11" x="14" y="5" width="45" height="2"/><path d="M61,0H3A3,3,0,0,0,0,3V61a3,3,0,0,0,3,3H61a3,3,0,0,0,3-3V3A3,3,0,0,0,61,0ZM3,2H61a1,1,0,0,1,1,1v7H2V3A1,1,0,0,1,3,2ZM61,62H3a1,1,0,0,1-1-1V12H62V61A1,1,0,0,1,61,62Z"/><rect x="9" y="5" width="2" height="2"/><path d="M57.9,28.553a1,1,0,0,0-.763-.544l-3.657-.488a11.954,11.954,0,0,0-.9-2.174l2.242-2.932a1,1,0,0,0,.155-.924l-.708-2.121a1,1,0,0,0-.632-.632l-2.121-.708a1,1,0,0,0-.924.155l-2.932,2.242a11.954,11.954,0,0,0-2.174-.9l-.488-3.657a1,1,0,0,0-.544-.763l-2-1a1,1,0,0,0-.894,0l-2,1a1,1,0,0,0-.544.763l-.488,3.657a11.954,11.954,0,0,0-2.174.9l-2.932-2.242a1,1,0,0,0-.924-.155l-2.121.708a1,1,0,0,0-.632.632l-.708,2.121a1,1,0,0,0,.155.924l2.646,3.46,1.588-1.215L31.1,21.621l.382-1.144,1.144-.382,3.039,2.324a1,1,0,0,0,1.13.059,9.934,9.934,0,0,1,2.869-1.19,1,1,0,0,0,.757-.84l.505-3.791L42,16.118l1.079.539.505,3.791a1,1,0,0,0,.757.84,9.934,9.934,0,0,1,2.869,1.19,1,1,0,0,0,1.13-.059L51.379,20.1l1.144.382.382,1.144L50.581,24.66a1,1,0,0,0-.059,1.13,9.934,9.934,0,0,1,1.19,2.869,1,1,0,0,0,.84.757l3.791.5L56.882,31l-.539,1.079-3.791.505a1,1,0,0,0-.84.757,9.934,9.934,0,0,1-1.19,2.869,1,1,0,0,0,.059,1.13l2.324,3.039-.382,1.144-1.144.382L48.34,39.581a1,1,0,0,0-1.13-.059,9.934,9.934,0,0,1-2.869,1.19,1,1,0,0,0-.757.84l-.575,4.316,1.982.264.488-3.657a11.954,11.954,0,0,0,2.174-.9l2.932,2.242a1,1,0,0,0,.924.155l2.121-.708a1,1,0,0,0,.632-.632l.708-2.121a1,1,0,0,0-.155-.924l-2.242-2.932a11.954,11.954,0,0,0,.9-2.174l3.657-.488a1,1,0,0,0,.763-.544l1-2a1,1,0,0,0,0-.894Z"/><path d="M42,36v2a7,7,0,1,0-5.833-10.871l1.665,1.107A5,5,0,1,1,42,36Z"/><rect x="6" y="24" width="22" height="2"/><rect x="14" y="20" width="10" height="2"/><path d="M35.832,29.445A1,1,0,0,0,35,29H13a1,1,0,0,0-.832.445l-4,6a1,1,0,0,0-.029,1.064l13,22A1,1,0,0,0,22,59h4a1,1,0,0,0,.861-.491l13-22a1,1,0,0,0-.029-1.064ZM24.067,31.481,27.586,35H21.135Zm-5.134,3.038L15.414,31h6.451ZM26.414,31h6.451l-2.932,3.519Zm2.277,6-4.6,16.876L20.253,37Zm6.22-5.331L37.131,35h-5Zm-21.755-.1L16.586,35H10.869ZM10.753,37H18.2l4.545,20h-.176ZM25.429,57h-.12l5.455-20h6.483Z"/></g></svg>