<svg xmlns="http://www.w3.org/2000/svg" viewBox="0 0 64 64"><defs><style>.cls-1{fill:#dfe1ea;}.cls-2{fill:#adb2c7;}.cls-3{fill:#cdd2e1;}.cls-4{fill:#f6fafd;}.cls-5{fill:#fff;}.cls-6{fill:#ffc247;}</style></defs><title>91-Php Code</title><g id="_91-Php_Code" data-name="91-Php Code"><path class="cls-1" d="M63,11V61a2.006,2.006,0,0,1-2,2H3a2.006,2.006,0,0,1-2-2V11Z"/><path class="cls-2" d="M61,1a2.006,2.006,0,0,1,2,2v8H1V3A2.006,2.006,0,0,1,3,1Z"/><path class="cls-3" d="M39.6,21c-7.6,0-7.6-2-15.2-2s-7.6,2-15.2,2A26.743,26.743,0,0,1,1,19.844v8A26.743,26.743,0,0,0,9.2,29c7.6,0,7.6-2,15.2-2s7.6,2,15.2,2,7.6-2,15.2-2A26.787,26.787,0,0,1,63,28.157v-8A26.787,26.787,0,0,0,54.8,19C47.2,19,47.2,21,39.6,21Z"/><path class="cls-4" d="M1,11v8.844A26.743,26.743,0,0,0,9.2,21c7.6,0,7.6-2,15.2-2s7.6,2,15.2,2,7.6-2,15.2-2A26.787,26.787,0,0,1,63,20.157V11Z"/><rect class="cls-2" x="9" y="23" width="22" height="23" rx="1.576" ry="1.576"/><rect class="cls-5" x="8" y="29" width="20" height="14"/><rect class="cls-6" x="8" y="21" width="20" height="8"/><rect class="cls-1" x="11" y="32" width="14" height="8"/><rect class="cls-5" x="5" y="5" width="2" height="2"/><rect class="cls-5" x="14" y="5" width="45" height="2"/><rect class="cls-5" x="11" y="24" width="2" height="2"/><rect class="cls-5" x="15" y="24" width="2" height="2"/><path d="M61,0H3A3,3,0,0,0,0,3V61a3,3,0,0,0,3,3H61a3,3,0,0,0,3-3V3A3,3,0,0,0,61,0ZM3,2H61a1,1,0,0,1,1,1v7H2V3A1,1,0,0,1,3,2ZM61,62H3a1,1,0,0,1-1-1V12H62V61A1,1,0,0,1,61,62Z"/><rect x="9" y="5" width="2" height="2"/><path d="M9,30H27v1h2V21a1,1,0,0,0-1-1H8a1,1,0,0,0-1,1V43a1,1,0,0,0,1,1H21V42H9Zm18-8v6H9V22Z"/><path d="M15.293,32.293l-3,3a1,1,0,0,0,0,1.414l3,3,1.414-1.414L14.414,36l2.293-2.293Z"/><path d="M20.707,32.293l-1.414,1.414L21.586,36l-2.293,2.293,1.414,1.414,3-3a1,1,0,0,0,0-1.414Z"/><rect x="32" y="29" width="11" height="2"/><rect x="32" y="25" width="6" height="2"/><path d="M31,34H27a1,1,0,0,0-1,1V52h2V44.062a8.13,8.13,0,0,0,5.162-1.6A5.624,5.624,0,0,0,35,38,3.887,3.887,0,0,0,31,34Zm.857,6.95A6.107,6.107,0,0,1,28,42.062V36h3a1.883,1.883,0,0,1,2,2A3.674,3.674,0,0,1,31.857,40.95Z"/><path d="M54,34H50a1,1,0,0,0-1,1V52h2V44.062a8.127,8.127,0,0,0,5.162-1.6A5.624,5.624,0,0,0,58,38,3.887,3.887,0,0,0,54,34Zm.857,6.95A6.106,6.106,0,0,1,51,42.062V36h3a1.883,1.883,0,0,1,2,2A3.674,3.674,0,0,1,54.857,40.95Z"/><polygon points="45 42 39 42 39 34 37 34 37 52 39 52 39 44 45 44 45 52 47 52 47 34 45 34 45 42"/></g></svg>