<svg xmlns="http://www.w3.org/2000/svg" viewBox="0 0 64 64"><defs><style>.cls-1{fill:#979faf;}.cls-2{fill:#adb2c7;}.cls-3{fill:#8dd5f6;}.cls-4{fill:#dfe1ea;}.cls-5{fill:#aedff7;}.cls-6{fill:#f6fafd;}.cls-7{fill:#7e8596;}.cls-8{fill:#0096cf;}.cls-9{fill:#fff;}.cls-10{fill:#73c6b2;}.cls-11{fill:#ffa426;}</style></defs><title>14-Programming</title><g id="_14-Programming" data-name="14-Programming"><rect class="cls-1" x="19" y="59" width="26" height="3"/><polygon class="cls-2" points="40 50 45 59 19 59 24 50 40 50"/><path class="cls-3" d="M63,4V42H1V4A2.006,2.006,0,0,1,3,2H61A2.006,2.006,0,0,1,63,4Z"/><path class="cls-4" d="M63,42v6a2.006,2.006,0,0,1-2,2H3a2.006,2.006,0,0,1-2-2V42Z"/><path class="cls-5" d="M61,2H3A2.006,2.006,0,0,0,1,4V18.844A26.743,26.743,0,0,0,9.2,20c7.6,0,7.6-2,15.2-2s7.6,2,15.2,2,7.6-2,15.2-2A26.787,26.787,0,0,1,63,19.157V4A2.006,2.006,0,0,0,61,2Z"/><path class="cls-6" d="M61,2H3A2.006,2.006,0,0,0,1,4v7.844A26.743,26.743,0,0,0,9.2,13c7.6,0,7.6-2,15.2-2s7.6,2,15.2,2,7.6-2,15.2-2A26.787,26.787,0,0,1,63,12.157V4A2.006,2.006,0,0,0,61,2Z"/><path class="cls-7" d="M24,50l-1.832,3.3A25.289,25.289,0,0,0,28.6,54c6.6,0,7.475-1.507,12.57-1.9L40,50Z"/><path class="cls-8" d="M35,14.4V9.6A1.6,1.6,0,0,0,33.4,8H13.6A1.6,1.6,0,0,0,12,9.6V30.4A1.6,1.6,0,0,0,13.6,32H30.4A1.6,1.6,0,0,1,32,33.6v4.8A1.6,1.6,0,0,0,33.6,40H53.4A1.6,1.6,0,0,0,55,38.4V17.6A1.6,1.6,0,0,0,53.4,16H36.6A1.6,1.6,0,0,1,35,14.4Z"/><rect class="cls-9" x="12" y="15" width="20" height="14"/><rect class="cls-10" x="12" y="7" width="20" height="8"/><rect class="cls-4" x="15" y="18" width="14" height="8"/><rect class="cls-9" x="32" y="23" width="20" height="14"/><rect class="cls-11" x="32" y="15" width="20" height="8"/><rect class="cls-4" x="35" y="26" width="14" height="8"/><rect class="cls-9" x="15" y="10" width="2" height="2"/><rect class="cls-9" x="19" y="10" width="2" height="2"/><rect class="cls-9" x="35" y="18" width="2" height="2"/><rect class="cls-9" x="39" y="18" width="2" height="2"/><path d="M61,1H3A3,3,0,0,0,0,4V48a3,3,0,0,0,3,3H22.3l-4.175,7.514A1,1,0,0,0,18,59v2H16v2H48V61H46V59a1,1,0,0,0-.126-.486L41.7,51H61a3,3,0,0,0,3-3V4A3,3,0,0,0,61,1ZM3,3H61a1,1,0,0,1,1,1V41H2V4A1,1,0,0,1,3,3ZM20,61V60H44v1Zm23.3-3H20.7l3.888-7H39.412ZM61,49H3a1,1,0,0,1-1-1V43H62v5A1,1,0,0,1,61,49Z"/><path d="M12,30H31v7a1,1,0,0,0,1,1H52a1,1,0,0,0,1-1V15a1,1,0,0,0-1-1H33V7a1,1,0,0,0-1-1H12a1,1,0,0,0-1,1V29A1,1,0,0,0,12,30Zm1-2V16H31V28Zm20,8V24H51V36ZM51,16v6H33V16ZM31,8v6H13V8Z"/><path d="M57.772,37.634a1,1,0,0,0,.208-.829c-.162-.826-.3-2.772.31-3.514A.812.812,0,0,1,59,33a1,1,0,0,0,1-1V30a1,1,0,0,0-1-1,.812.812,0,0,1-.71-.291c-.61-.742-.472-2.688-.31-3.514A1,1,0,0,0,57,24H55v2h.865a5.865,5.865,0,0,0,.877,3.977A2.715,2.715,0,0,0,58,30.845v.31a2.715,2.715,0,0,0-1.258.868A5.865,5.865,0,0,0,55.865,36H55v2h2A1,1,0,0,0,57.772,37.634Z"/><path d="M5,15a.812.812,0,0,1,.71.291c.61.742.472,2.688.31,3.514A1,1,0,0,0,7,20H9V18H8.135a5.865,5.865,0,0,0-.877-3.977A2.715,2.715,0,0,0,6,13.155v-.31a2.715,2.715,0,0,0,1.258-.868A5.865,5.865,0,0,0,8.135,8H9V6H7a1,1,0,0,0-.98,1.2c.162.826.3,2.772-.31,3.514A.812.812,0,0,1,5,11a1,1,0,0,0-1,1v2A1,1,0,0,0,5,15Z"/><path d="M26.293,18.293l-3,3a1,1,0,0,0,0,1.414l3,3,1.414-1.414L25.414,22l2.293-2.293Z"/><path d="M37.707,26.293l-1.414,1.414L38.586,30l-2.293,2.293,1.414,1.414,3-3a1,1,0,0,0,0-1.414Z"/></g></svg>