<svg xmlns="http://www.w3.org/2000/svg" viewBox="0 0 64 64"><defs><style>.cls-1{fill:#0074ff;}.cls-2{fill:#ccd3eb;}.cls-3{fill:#f5f7ff;}.cls-4{fill:#b4cde1;}.cls-5{fill:#033c59;}</style></defs><title>Target</title><g id="Target"><path class="cls-1" d="M61,7V19H4V7A2,2,0,0,1,6,5H59A2,2,0,0,1,61,7Z"/><path class="cls-2" d="M61,19V59a2,2,0,0,1-2,2H7a2,2,0,0,1-2-2V19Z"/><path class="cls-3" d="M6,18H56V51.15A5.94,5.94,0,0,1,50,57H4V18.1"/><rect class="cls-3" x="8" y="9" width="30" height="6" rx="2"/><circle class="cls-3" cx="49" cy="12" r="2"/><circle class="cls-3" cx="43" cy="12" r="2"/><circle class="cls-3" cx="55" cy="12" r="2"/><circle class="cls-4" cx="32" cy="40" r="6"/><path class="cls-5" d="M40.27,30.08a1,1,0,0,0,.65.24,1,1,0,0,0,.65-1.76c-.35-.29-.7-.56-1.08-.82a1,1,0,1,0-1.14,1.64A11.1,11.1,0,0,1,40.27,30.08Z"/><path class="cls-5" d="M49,39H46.87a14.81,14.81,0,0,0-2.49-7.31,1,1,0,0,0-1.66,1.12A12.79,12.79,0,0,1,44.87,39H42a1,1,0,0,0,0,2h2.86A12.92,12.92,0,0,1,33,52.86V50a1,1,0,0,0-2,0v2.86A12.92,12.92,0,0,1,19.14,41H22a1,1,0,0,0,0-2H19.14A12.92,12.92,0,0,1,31,27.14V30a1,1,0,0,0,2,0V27.13a12.31,12.31,0,0,1,3.08.63,1,1,0,1,0,.64-1.9A14.52,14.52,0,0,0,33,25.13V23a1,1,0,0,0-2,0v2.14A14.92,14.92,0,0,0,17.14,39H15a1,1,0,0,0,0,2h2.14A14.92,14.92,0,0,0,31,54.86V57a1,1,0,0,0,2,0V54.86A14.92,14.92,0,0,0,46.86,41H49a1,1,0,0,0,0-2Z"/><path class="cls-1" d="M32,33a7,7,0,1,0,7,7A7,7,0,0,0,32,33Zm0,12a5,5,0,1,1,5-5A5,5,0,0,1,32,45Z"/><path class="cls-5" d="M10,16H36a3,3,0,0,0,3-3V11a3,3,0,0,0-3-3H10a3,3,0,0,0-3,3v2A3,3,0,0,0,10,16ZM9,11a1,1,0,0,1,1-1H36a1,1,0,0,1,1,1v2a1,1,0,0,1-1,1H10a1,1,0,0,1-1-1Z"/><circle class="cls-3" cx="49" cy="12" r="2"/><circle class="cls-3" cx="43" cy="12" r="2"/><circle class="cls-3" cx="55" cy="12" r="2"/><path class="cls-5" d="M58,3H6A3,3,0,0,0,3,6V58a3,3,0,0,0,3,3H58a3,3,0,0,0,3-3V6A3,3,0,0,0,58,3ZM6,5H58a1,1,0,0,1,1,1V18H5V6A1,1,0,0,1,6,5ZM58,59H6a1,1,0,0,1-1-1V20H59V58A1,1,0,0,1,58,59Z"/><path class="cls-1" d="M32,54.91A14.91,14.91,0,1,1,46.91,40,14.93,14.93,0,0,1,32,54.91Zm0-27.82A12.91,12.91,0,1,0,44.91,40,12.92,12.92,0,0,0,32,27.09Z"/><path class="cls-1" d="M32,58a1,1,0,0,1-1-1V50a1,1,0,0,1,2,0v7A1,1,0,0,1,32,58Z"/><path class="cls-1" d="M32,31a1,1,0,0,1-1-1V23a1,1,0,0,1,2,0v7A1,1,0,0,1,32,31Z"/><path class="cls-1" d="M49,41H42a1,1,0,0,1,0-2h7a1,1,0,0,1,0,2Z"/><path class="cls-1" d="M22,41H15a1,1,0,0,1,0-2h7a1,1,0,0,1,0,2Z"/></g></svg>