<svg xmlns="http://www.w3.org/2000/svg" viewBox="0 0 64 64"><defs><style>.cls-1{fill:#dfe1ea;}.cls-2{fill:#adb2c7;}.cls-3{fill:#cdd2e1;}.cls-4{fill:#f6fafd;}.cls-5{fill:#fff;}.cls-6{fill:#f2f6fc;}.cls-7{fill:#ffa426;}.cls-8{fill:#ffc247;}</style></defs><title>8-Coding</title><g id="_8-Coding" data-name="8-Coding"><path class="cls-1" d="M63,11V61a2.006,2.006,0,0,1-2,2H3a2.006,2.006,0,0,1-2-2V11Z"/><path class="cls-2" d="M61,1a2.006,2.006,0,0,1,2,2v8H1V3A2.006,2.006,0,0,1,3,1Z"/><path class="cls-3" d="M39.6,21c-7.6,0-7.6-2-15.2-2s-7.6,2-15.2,2A26.743,26.743,0,0,1,1,19.844v8A26.743,26.743,0,0,0,9.2,29c7.6,0,7.6-2,15.2-2s7.6,2,15.2,2,7.6-2,15.2-2A26.787,26.787,0,0,1,63,28.157v-8A26.787,26.787,0,0,0,54.8,19C47.2,19,47.2,21,39.6,21Z"/><path class="cls-4" d="M1,11v8.844A26.743,26.743,0,0,0,9.2,21c7.6,0,7.6-2,15.2-2s7.6,2,15.2,2,7.6-2,15.2-2A26.787,26.787,0,0,1,63,20.157V11Z"/><circle class="cls-2" cx="33.5" cy="39.5" r="18.5"/><rect class="cls-5" x="5" y="5" width="2" height="2"/><rect class="cls-5" x="14" y="5" width="45" height="2"/><circle class="cls-6" cx="32" cy="37" r="18"/><circle class="cls-7" cx="32" cy="37" r="15"/><path class="cls-8" d="M44.994,29.528A26.584,26.584,0,0,1,39.6,30c-7.6,0-7.6-2-15.2-2a28.129,28.129,0,0,0-4.622.332A14.914,14.914,0,0,0,17,36.946,25.426,25.426,0,0,1,24.394,36c7.6,0,7.6,2,15.2,2a25.438,25.438,0,0,0,7.4-.948c0-.018,0-.035,0-.052A14.911,14.911,0,0,0,44.994,29.528Z"/><rect class="cls-5" x="31" y="36" width="2" height="2"/><path d="M61,0H3A3,3,0,0,0,0,3V61a3,3,0,0,0,3,3H61a3,3,0,0,0,3-3V3A3,3,0,0,0,61,0ZM3,2H61a1,1,0,0,1,1,1v7H2V3A1,1,0,0,1,3,2ZM61,62H3a1,1,0,0,1-1-1V12H62V61A1,1,0,0,1,61,62Z"/><rect x="9" y="5" width="2" height="2"/><path d="M32,18A19,19,0,1,0,51,37,19.021,19.021,0,0,0,32,18Zm0,36A17,17,0,1,1,49,37,17.019,17.019,0,0,1,32,54Z"/><path d="M21.228,30.366a1,1,0,0,0-.209.829c.163.826.3,2.772-.309,3.514A.81.81,0,0,1,20,35a1,1,0,0,0-1,1v2a1,1,0,0,0,1,1,.81.81,0,0,1,.71.291c.611.742.472,2.688.309,3.514A1,1,0,0,0,22,44h2V42h-.865a5.871,5.871,0,0,0-.877-3.977A2.715,2.715,0,0,0,21,37.155v-.31a2.715,2.715,0,0,0,1.258-.868A5.871,5.871,0,0,0,23.135,32H24V30H22A1,1,0,0,0,21.228,30.366Z"/><path d="M43.29,34.709c-.61-.742-.472-2.688-.31-3.514A1,1,0,0,0,42,30H40v2h.865a5.865,5.865,0,0,0,.877,3.977A2.715,2.715,0,0,0,43,36.845v.31a2.715,2.715,0,0,0-1.258.868A5.865,5.865,0,0,0,40.865,42H40v2h2a1,1,0,0,0,.98-1.2c-.162-.826-.3-2.772.31-3.514A.812.812,0,0,1,44,39a1,1,0,0,0,1-1V36a1,1,0,0,0-1-1A.812.812,0,0,1,43.29,34.709Z"/><rect x="36" y="36" width="2" height="2"/><rect x="26" y="36" width="2" height="2"/></g></svg>