<svg xmlns="http://www.w3.org/2000/svg" width="96" height="96" viewBox="0 0 96 96"><defs><style>.cls-1{fill:#c3d4ef;}.cls-2{fill:#e5eefd;}.cls-3{fill:#283d54;}</style></defs><title>10.Network</title><g id="_10.Network" data-name="10.Network"><polygon class="cls-1" points="60 45 63 49 33 49 36 45 60 45"/><polygon class="cls-1" points="60 29 63 33 33 33 36 29 60 29"/><polygon class="cls-1" points="60 13 63 17 33 17 36 13 60 13"/><path class="cls-2" d="M67,36v6a3,3,0,0,1-3,3H32a3,3,0,0,1-3-3V36a3,3,0,0,1,3-3H64A3,3,0,0,1,67,36Z"/><path class="cls-2" d="M67,20v6a3,3,0,0,1-3,3H32a3,3,0,0,1-3-3V20a3,3,0,0,1,3-3H64A3,3,0,0,1,67,20Z"/><path class="cls-2" d="M67,4v6a3,3,0,0,1-3,3H32a3,3,0,0,1-3-3V4a3,3,0,0,1,3-3H64A3,3,0,0,1,67,4Z"/><g id="_Group_" data-name="&lt;Group&gt;"><path class="cls-2" d="M84,87v5c0,1.66-3.13,3-7,3s-7-1.34-7-3V87c0,1.66,3.13,3,7,3S84,88.66,84,87Z"/><path class="cls-1" d="M77,85c3.87,0,7-1.34,7-3v5c0,1.66-3.13,3-7,3s-7-1.34-7-3V82C70,83.66,73.13,85,77,85Z"/><ellipse class="cls-2" cx="77" cy="82" rx="7" ry="3"/><ellipse class="cls-2" cx="48" cy="82" rx="7" ry="3"/><path class="cls-2" d="M55,82v5c0,1.66-3.13,3-7,3s-7-1.34-7-3V82c0,1.66,3.13,3,7,3S55,83.66,55,82Z"/><path class="cls-1" d="M55,87v5c0,1.66-3.13,3-7,3s-7-1.34-7-3V87c0,1.66,3.13,3,7,3S55,88.66,55,87Z"/><path class="cls-2" d="M26,87v5c0,1.66-3.13,3-7,3s-7-1.34-7-3V87c0,1.66,3.13,3,7,3S26,88.66,26,87Z"/><path class="cls-1" d="M19,85c3.87,0,7-1.34,7-3v5c0,1.66-3.13,3-7,3s-7-1.34-7-3V82C12,83.66,15.13,85,19,85Z"/><ellipse class="cls-2" cx="19" cy="82" rx="7" ry="3"/><path class="cls-3" d="M33,8a1,1,0,0,0,2,0V6a1,1,0,0,0-2,0Z"/><path class="cls-3" d="M40,8V6a1,1,0,0,0-2,0V8a1,1,0,0,0,2,0Z"/><path class="cls-3" d="M45,8V6a1,1,0,0,0-2,0V8a1,1,0,0,0,2,0Z"/><path class="cls-3" d="M62,8a1,1,0,0,0,0-2H50a1,1,0,0,0,0,2Z"/><path class="cls-3" d="M34,21a1,1,0,0,0-1,1v2a1,1,0,0,0,2,0V22A1,1,0,0,0,34,21Z"/><path class="cls-3" d="M39,21a1,1,0,0,0-1,1v2a1,1,0,0,0,2,0V22A1,1,0,0,0,39,21Z"/><path class="cls-3" d="M44,21a1,1,0,0,0-1,1v2a1,1,0,0,0,2,0V22A1,1,0,0,0,44,21Z"/><path class="cls-3" d="M62,22H50a1,1,0,0,0,0,2H62a1,1,0,0,0,0-2Z"/><path class="cls-3" d="M34,37a1,1,0,0,0-1,1v2a1,1,0,0,0,2,0V38A1,1,0,0,0,34,37Z"/><path class="cls-3" d="M39,37a1,1,0,0,0-1,1v2a1,1,0,0,0,2,0V38A1,1,0,0,0,39,37Z"/><path class="cls-3" d="M44,37a1,1,0,0,0-1,1v2a1,1,0,0,0,2,0V38A1,1,0,0,0,44,37Z"/><path class="cls-3" d="M62,38H50a1,1,0,0,0,0,2H62a1,1,0,0,0,0-2Z"/><path class="cls-3" d="M19,75a1,1,0,0,0,1-1V63c0-4.822,4.487-5,5-5a1,1,0,0,0,0-2c-2.421,0-7,1.463-7,7V74A1,1,0,0,0,19,75Z"/><path class="cls-3" d="M48,56.705A3.767,3.767,0,0,0,51,58H71c.2,0,5,.057,5,5V74a1,1,0,0,0,2,0V63c0-5.537-4.579-7-7-7H51a1.885,1.885,0,0,1-2-2.006V50H67a1,1,0,0,0,0-2H63.5L62,46h2a4,4,0,0,0,4-4V36a4,4,0,0,0-4-4h-.5L62,30h2a4,4,0,0,0,4-4V20a4,4,0,0,0-4-4h-.5L62,14h2a4,4,0,0,0,4-4V4a4,4,0,0,0-4-4H37a1,1,0,0,0,0,2H64a2,2,0,0,1,2,2v6a2,2,0,0,1-2,2H32a2,2,0,0,1-2-2V4a2,2,0,0,1,2-2,1,1,0,0,0,0-2,4,4,0,0,0-4,4v6a4,4,0,0,0,4,4h2l-1.5,2H32a4,4,0,0,0-4,4v6a4,4,0,0,0,4,4h2l-1.5,2H32a4,4,0,0,0-4,4v6a4,4,0,0,0,4,4h2l-1.5,2H29a1,1,0,0,0,0,2H47v4a1.883,1.883,0,0,1-2,2H29a1,1,0,0,0,0,2H45A3.767,3.767,0,0,0,48,56.705ZM36.5,14h23L61,16H35ZM30,26V20a2,2,0,0,1,2-2H64a2,2,0,0,1,2,2v6a2,2,0,0,1-2,2H32A2,2,0,0,1,30,26Zm6.5,4h23L61,32H35ZM30,42V36a2,2,0,0,1,2-2H64a2,2,0,0,1,2,2v6a2,2,0,0,1-2,2H32A2,2,0,0,1,30,42Zm6.5,4h23L61,48H35Z"/><path class="cls-3" d="M47,61V74a1,1,0,0,0,2,0V61a1,1,0,0,0-2,0Z"/><path class="cls-3" d="M77,78c-3.976,0-8,1.374-8,4V92c0,2.626,4.024,4,8,4s8-1.374,8-4V82C85,79.374,80.976,78,77,78Zm6,9c0,.7-2.278,2-6,2s-6-1.3-6-2V84.732a14.83,14.83,0,0,0,12,0Zm-6-7c3.722,0,6,1.3,6,2s-2.278,2-6,2-6-1.3-6-2S73.278,80,77,80Zm0,14c-3.722,0-6-1.3-6-2V89.732a14.83,14.83,0,0,0,12,0V92C83,92.705,80.722,94,77,94Z"/><path class="cls-3" d="M48,78c-3.976,0-8,1.374-8,4V92c0,2.626,4.024,4,8,4s8-1.374,8-4V82C56,79.374,51.976,78,48,78Zm6,9c0,.7-2.278,2-6,2s-6-1.3-6-2V84.732A13.183,13.183,0,0,0,48,86a13.183,13.183,0,0,0,6-1.268Zm-6-7c3.722,0,6,1.3,6,2s-2.278,2-6,2-6-1.3-6-2S44.278,80,48,80Zm0,14c-3.722,0-6-1.3-6-2V89.732A13.183,13.183,0,0,0,48,91a13.183,13.183,0,0,0,6-1.268V92C54,92.705,51.722,94,48,94Z"/><path class="cls-3" d="M19,78c-3.976,0-8,1.374-8,4V92c0,2.626,4.024,4,8,4s8-1.374,8-4V82C27,79.374,22.976,78,19,78Zm6,9c0,.7-2.278,2-6,2s-6-1.3-6-2V84.732A13.183,13.183,0,0,0,19,86a13.183,13.183,0,0,0,6-1.268Zm-6-7c3.722,0,6,1.3,6,2s-2.278,2-6,2-6-1.3-6-2S15.278,80,19,80Zm0,14c-3.722,0-6-1.3-6-2V89.732A13.183,13.183,0,0,0,19,91a13.183,13.183,0,0,0,6-1.268V92C25,92.705,22.722,94,19,94Z"/></g></g></svg>