<svg xmlns="http://www.w3.org/2000/svg" viewBox="0 0 64 64"><defs><style>.cls-1{fill:#979faf;}.cls-2{fill:#adb2c7;}.cls-3{fill:#8dd5f6;}.cls-4{fill:#dfe1ea;}.cls-5{fill:#aedff7;}.cls-6{fill:#f6fafd;}.cls-7{fill:#7e8596;}.cls-8{fill:#0096cf;}.cls-9{fill:#fff;}.cls-10{fill:#ffa426;}</style></defs><title>6-Programming</title><g id="_6-Programming" data-name="6-Programming"><rect class="cls-1" x="19" y="59" width="26" height="3"/><polygon class="cls-2" points="40 50 45 59 19 59 24 50 40 50"/><path class="cls-3" d="M63,4V42H1V4A2.006,2.006,0,0,1,3,2H61A2.006,2.006,0,0,1,63,4Z"/><path class="cls-4" d="M63,42v6a2.006,2.006,0,0,1-2,2H3a2.006,2.006,0,0,1-2-2V42Z"/><path class="cls-5" d="M61,2H3A2.006,2.006,0,0,0,1,4V18.844A26.743,26.743,0,0,0,9.2,20c7.6,0,7.6-2,15.2-2s7.6,2,15.2,2,7.6-2,15.2-2A26.787,26.787,0,0,1,63,19.157V4A2.006,2.006,0,0,0,61,2Z"/><path class="cls-6" d="M61,2H3A2.006,2.006,0,0,0,1,4v7.844A26.743,26.743,0,0,0,9.2,13c7.6,0,7.6-2,15.2-2s7.6,2,15.2,2,7.6-2,15.2-2A26.787,26.787,0,0,1,63,12.157V4A2.006,2.006,0,0,0,61,2Z"/><path class="cls-7" d="M24,50l-1.832,3.3A25.289,25.289,0,0,0,28.6,54c6.6,0,7.475-1.507,12.57-1.9L40,50Z"/><rect class="cls-8" x="10" y="9" width="20" height="22" rx="0.99" ry="0.99"/><rect class="cls-9" x="6" y="14" width="20" height="14"/><rect class="cls-10" x="6" y="6" width="20" height="8"/><rect class="cls-4" x="9" y="17" width="14" height="8"/><rect class="cls-9" x="6" y="32" width="20" height="6"/><rect class="cls-4" x="6" y="32" width="7" height="6"/><rect class="cls-9" x="9" y="9" width="2" height="2"/><rect class="cls-9" x="13" y="9" width="2" height="2"/><path d="M61,1H3A3,3,0,0,0,0,4V48a3,3,0,0,0,3,3H22.3l-4.175,7.514A1,1,0,0,0,18,59v2H16v2H48V61H46V59a1,1,0,0,0-.126-.486L41.7,51H61a3,3,0,0,0,3-3V4A3,3,0,0,0,61,1Zm1,3V41H33V3H61A1,1,0,0,1,62,4ZM3,3H31V41H2V4A1,1,0,0,1,3,3ZM20,61V60H44v1Zm23.3-3H20.7l3.888-7H39.412ZM61,49H3a1,1,0,0,1-1-1V43H62v5A1,1,0,0,1,61,49Z"/><path d="M6,29H26a1,1,0,0,0,1-1V6a1,1,0,0,0-1-1H6A1,1,0,0,0,5,6V28A1,1,0,0,0,6,29Zm1-2V15H25V27ZM25,7v6H7V7Z"/><path d="M6,39H26a1,1,0,0,0,1-1V32a1,1,0,0,0-1-1H6a1,1,0,0,0-1,1v6A1,1,0,0,0,6,39Zm1-6H25v4H7Z"/><path d="M13.293,17.293l-3,3a1,1,0,0,0,0,1.414l3,3,1.414-1.414L12.414,21l2.293-2.293Z"/><path d="M18.707,17.293l-1.414,1.414L19.586,21l-2.293,2.293,1.414,1.414,3-3a1,1,0,0,0,0-1.414Z"/><path d="M38,26a.81.81,0,0,1,.71.291c.611.742.472,2.688.309,3.514A1,1,0,0,0,40,31h2V29h-.865a5.871,5.871,0,0,0-.877-3.977A2.715,2.715,0,0,0,39,24.155v-.31a2.715,2.715,0,0,0,1.258-.868A5.871,5.871,0,0,0,41.135,19H42V17H40a1,1,0,0,0-.981,1.2c.163.826.3,2.772-.309,3.514A.81.81,0,0,1,38,22a1,1,0,0,0-1,1v2A1,1,0,0,0,38,26Z"/><path d="M56.772,30.634a1,1,0,0,0,.209-.829c-.163-.826-.3-2.772.309-3.514A.81.81,0,0,1,58,26a1,1,0,0,0,1-1V23a1,1,0,0,0-1-1,.81.81,0,0,1-.71-.291c-.611-.742-.472-2.688-.309-3.514A1,1,0,0,0,56,17H54v2h.865a5.871,5.871,0,0,0,.877,3.977A2.715,2.715,0,0,0,57,23.845v.31a2.715,2.715,0,0,0-1.258.868A5.871,5.871,0,0,0,54.865,29H54v2h2A1,1,0,0,0,56.772,30.634Z"/><rect x="47" y="23" width="2" height="2"/><rect class="cls-9" x="51" y="23" width="2" height="2"/><rect class="cls-9" x="43" y="23" width="2" height="2"/></g></svg>