<svg xmlns="http://www.w3.org/2000/svg" viewBox="0 0 64 64"><defs><style>.cls-1{fill:#dfe1ea;}.cls-2{fill:#adb2c7;}.cls-3{fill:#cdd2e1;}.cls-4{fill:#e9edf5;}.cls-5{fill:#fff;}.cls-6{fill:#ffc247;}</style></defs><title>26-Browser</title><g id="_26-Browser" data-name="26-Browser"><path class="cls-1" d="M63,14V58a2.006,2.006,0,0,1-2,2H3a2.006,2.006,0,0,1-2-2V14Z"/><path class="cls-2" d="M61,4a2.006,2.006,0,0,1,2,2v8H1V6A2.006,2.006,0,0,1,3,4Z"/><path class="cls-3" d="M39.6,24c-7.6,0-7.6-2-15.2-2s-7.6,2-15.2,2A26.743,26.743,0,0,1,1,22.844v8A26.743,26.743,0,0,0,9.2,32c7.6,0,7.6-2,15.2-2s7.6,2,15.2,2,7.6-2,15.2-2A26.787,26.787,0,0,1,63,31.157v-8A26.787,26.787,0,0,0,54.8,22C47.2,22,47.2,24,39.6,24Z"/><path class="cls-4" d="M1,14v8.844A26.743,26.743,0,0,0,9.2,24c7.6,0,7.6-2,15.2-2s7.6,2,15.2,2,7.6-2,15.2-2A26.787,26.787,0,0,1,63,23.157V14Z"/><rect class="cls-2" x="48" y="22" width="11" height="36" rx="1" ry="1"/><rect class="cls-2" x="9" y="19" width="34" height="39" rx="1.743" ry="1.743"/><path class="cls-3" d="M40,47v6a2.006,2.006,0,0,1-2,2H17V47Z"/><path class="cls-1" d="M40,21V47H17V19H38A2.006,2.006,0,0,1,40,21Z"/><path class="cls-2" d="M17,47v8H10a2.006,2.006,0,0,1-2-2V21a2.006,2.006,0,0,1,2-2h7V47Z"/><path class="cls-4" d="M38,19H17v8.094C22.118,27.487,22.982,29,29.6,29c5.542,0,7.052-1.061,10.405-1.637V21A2.006,2.006,0,0,0,38,19Z"/><path class="cls-3" d="M38,19H17v3.094C22.118,22.487,22.982,24,29.6,24c5.542,0,7.052-1.061,10.405-1.637V21A2.006,2.006,0,0,0,38,19Z"/><rect class="cls-5" x="5" y="8" width="2" height="2"/><rect class="cls-5" x="14" y="8" width="45" height="2"/><rect class="cls-6" x="45" y="19" width="11" height="36" rx="1" ry="1"/><rect class="cls-5" x="19" y="34" width="2" height="2"/><rect class="cls-5" x="27" y="34" width="2" height="2"/><path d="M61,3H3A3,3,0,0,0,0,6V58a3,3,0,0,0,3,3H61a3,3,0,0,0,3-3V6A3,3,0,0,0,61,3ZM3,5H61a1,1,0,0,1,1,1v7H2V6A1,1,0,0,1,3,5ZM61,59H3a1,1,0,0,1-1-1V15H62V58A1,1,0,0,1,61,59Z"/><rect x="9" y="8" width="2" height="2"/><path d="M38,18H10a3,3,0,0,0-3,3V53a3,3,0,0,0,3,3H38a3,3,0,0,0,3-3V21A3,3,0,0,0,38,18ZM9,53V21a1,1,0,0,1,1-1h6v6h2V20H38a1,1,0,0,1,1,1V46H18V44H16V54H10A1,1,0,0,1,9,53Zm29,1H18V48H39v5A1,1,0,0,1,38,54Z"/><path d="M55,18H46a2,2,0,0,0-2,2V54a2,2,0,0,0,2,2h9a2,2,0,0,0,2-2V20A2,2,0,0,0,55,18ZM46,54V20h9v6H52v2h3v3H49v2h6v3H52v2h3v3H49v2h6v3H52v2h3v6Z"/><path d="M16.019,40.805A1,1,0,0,0,17,42h2V40h-.865a5.871,5.871,0,0,0-.877-3.977A2.715,2.715,0,0,0,16,35.155v-.31a2.715,2.715,0,0,0,1.258-.868A5.871,5.871,0,0,0,18.135,30H19V28H17a1,1,0,0,0-.981,1.2c.163.826.3,2.772-.309,3.514A.81.81,0,0,1,15,33a1,1,0,0,0-1,1v2a1,1,0,0,0,1,1,.81.81,0,0,1,.71.291C16.321,38.033,16.182,39.979,16.019,40.805Z"/><path d="M31.772,41.634a1,1,0,0,0,.209-.829c-.163-.826-.3-2.772.309-3.514A.81.81,0,0,1,33,37a1,1,0,0,0,1-1V34a1,1,0,0,0-1-1,.81.81,0,0,1-.71-.291c-.611-.742-.472-2.688-.309-3.514A1,1,0,0,0,31,28H29v2h.865a5.871,5.871,0,0,0,.877,3.977A2.715,2.715,0,0,0,32,34.845v.31a2.715,2.715,0,0,0-1.258.868A5.871,5.871,0,0,0,29.865,40H29v2h2A1,1,0,0,0,31.772,41.634Z"/><rect x="23" y="34" width="2" height="2"/></g></svg>