<svg xmlns="http://www.w3.org/2000/svg" viewBox="0 0 64 64"><defs><style>.cls-1{fill:#7e8596;}.cls-2{fill:#cdd2e1;}.cls-3{fill:#8dd5f6;}.cls-4{fill:#dfe1ea;}.cls-5{fill:#e9edf5;}.cls-6{fill:#aedff7;}.cls-7{fill:#f6fafd;}.cls-8{fill:#9196aa;}.cls-9{fill:#ffc247;}.cls-10{fill:#ffa426;}.cls-11{fill:#f5cd62;}.cls-12{fill:#f5d882;}.cls-13{fill:#f5e3a7;}.cls-14{fill:#fff;}</style></defs><title>78-Coding</title><g id="_78-Coding" data-name="78-Coding"><path class="cls-1" d="M36,51V64H28V51a4,4,0,0,0,8,0Z"/><circle class="cls-2" cx="32" cy="51" r="4"/><circle class="cls-3" cx="32" cy="24" r="18"/><path class="cls-4" d="M32,1A23,23,0,1,1,9,24,23,23,0,0,1,32,1ZM50,24A18,18,0,1,0,32,42,18,18,0,0,0,50,24Z"/><rect class="cls-5" x="28" y="59" width="8" height="5"/><path class="cls-6" d="M38.6,15c-7.6,0-7.6-2-15.2-2a25.633,25.633,0,0,0-6.082.619,17.886,17.886,0,0,0-3.1,7.776C16.8,20.806,18.565,20,23.394,20c7.6,0,7.6,2,15.2,2,5.864,0,7.215-1.188,11.012-1.732a17.884,17.884,0,0,0-2.761-6.437A26.948,26.948,0,0,1,38.6,15Z"/><path class="cls-7" d="M38.6,15a26.948,26.948,0,0,0,8.251-1.169,17.978,17.978,0,0,0-29.534-.212A25.633,25.633,0,0,1,23.394,13C31,13,31,15,38.6,15Z"/><path class="cls-8" d="M48.534,16.887q.345.8.612,1.639Q48.879,17.688,48.534,16.887Z"/><path class="cls-8" d="M47.762,15.313q.42.76.767,1.564Q48.183,16.075,47.762,15.313Z"/><path class="cls-8" d="M49.152,18.542q.269.844.455,1.724Q49.421,19.387,49.152,18.542Z"/><path class="cls-8" d="M47.762,15.313c-.248-.449-.513-.888-.8-1.313h-.013C47.237,14.427,47.512,14.862,47.762,15.313Z"/><path class="cls-8" d="M55,24a22.9,22.9,0,0,0-2.284-10H46.964c.285.425.55.864.8,1.313h0q.42.76.767,1.564l0,.01q.345.8.612,1.639l.006.016q.269.844.455,1.724v0h0A17.944,17.944,0,0,1,42.84,38.345L44.3,40.812a2.414,2.414,0,0,0,2.02,1.18A22.956,22.956,0,0,0,55,24Z"/><path class="cls-8" d="M47.762,15.313Z"/><path class="cls-8" d="M48.529,16.877l0,.01Z"/><path class="cls-8" d="M49.146,18.526l.006.016Z"/><polygon class="cls-8" points="49.607 20.268 49.607 20.266 49.607 20.268 49.607 20.268"/><circle class="cls-5" cx="32" cy="51" r="2"/><polygon class="cls-9" points="59 17 46 39 44 39 50 17 59 17"/><polygon class="cls-9" points="55 11 59 17 50 17 55 11"/><polygon class="cls-10" points="55 11 50 17 44 11 55 11"/><polygon class="cls-9" points="39 17 29 17 33 11 39 17"/><polygon class="cls-10" points="44 11 39 17 33 11 44 11"/><polygon class="cls-9" points="50 17 39 17 44 11 50 17"/><polygon class="cls-10" points="50 17 44 39 39 17 50 17"/><polygon class="cls-9" points="39 17 44 39 42 39 29 17 39 17"/><path class="cls-11" d="M54.6,22a25.883,25.883,0,0,1-5.806-.56L47,28a25.2,25.2,0,0,0,4.966.9l4.1-6.933C55.6,21.989,55.121,22,54.6,22Z"/><path class="cls-12" d="M41.285,27.052A25.159,25.159,0,0,1,47,28l1.789-6.561c-2.652-.579-4.381-1.4-9.106-1.435Z"/><path class="cls-13" d="M41.285,27.052l-1.6-7.047c-.1,0-.186,0-.289,0a26.29,26.29,0,0,0-7.973,1.1l3.657,6.189A28.748,28.748,0,0,1,39.394,27C40.09,27,40.7,27.022,41.285,27.052Z"/><path d="M32,46A22,22,0,1,1,47.8,8.7l1.437-1.39a24,24,0,1,0-20.974,40.4A4.956,4.956,0,0,0,27,51V64h2V60h6v4h2V51a4.956,4.956,0,0,0-1.267-3.292A23.9,23.9,0,0,0,54.868,31.3L52.962,30.7A21.924,21.924,0,0,1,32,46ZM29,58V54.974a4.9,4.9,0,0,0,6,0V58Zm6-7a3,3,0,1,1-3-3A3,3,0,0,1,35,51Z"/><path d="M32,7a16.813,16.813,0,0,1,7.8,1.889l.918-1.778a19,19,0,1,0-1.323,34.4l-.78-1.842A17,17,0,1,1,32,7Z"/><path d="M59.832,16.445l-4-6A1,1,0,0,0,55,10H33a1,1,0,0,0-.832.445l-4,6a1,1,0,0,0-.018,1.081l13,21A1,1,0,0,0,42,39h4a1,1,0,0,0,.851-.474l13-21A1,1,0,0,0,59.832,16.445ZM44.067,12.481,47.586,16h-6.45Zm-5.134,3.038L35.414,12h6.45ZM46.414,12h6.45l-2.931,3.519Zm2.26,6L44.088,34.052,40.266,18Zm6.237-5.331L57.131,16H52.136Zm-21.755-.1L36.586,16H30.869ZM30.8,18H38.21l4.524,19h-.177ZM45.443,37h-.117l5.429-19h6.45Z"/><path class="cls-14" d="M32,38A14.015,14.015,0,0,1,18,24h2A12.013,12.013,0,0,0,32,36Z"/></g></svg>