<svg xmlns="http://www.w3.org/2000/svg" viewBox="0 0 64 64"><defs><style>.cls-1{fill:#cdd2e1;}.cls-2{fill:#f2f6fc;}.cls-3{fill:#adb2c7;}.cls-4{fill:#fff;}.cls-5{fill:#dfe1ea;}.cls-6{fill:#8dd5f6;}.cls-7{fill:#ffe4c2;}.cls-8{fill:#ffc247;}.cls-9{fill:#ffa426;}</style></defs><title>21-Coding</title><g id="_21-Coding" data-name="21-Coding"><path class="cls-1" d="M55,58v3a2.006,2.006,0,0,1-2,2H14V58Z"/><path class="cls-1" d="M14,58v5H3a2.006,2.006,0,0,1-2-2V47H14v5H7L5,54v2l2,2h7Z"/><path class="cls-2" d="M14,9V47H1V3A2.006,2.006,0,0,1,3,1H14Z"/><polygon class="cls-1" points="55 49 55 52 14 52 14 47 14 9 55 9 55 49"/><path class="cls-3" d="M55,3V9H14V1H53A2.006,2.006,0,0,1,55,3Z"/><path class="cls-3" d="M55,58H14v4H54.721A1.975,1.975,0,0,0,55,61Z"/><polygon class="cls-3" points="9 62 12 62 14 62 14 58 10 58 7 58 7 60 9 62"/><path class="cls-3" d="M14,9v6.206A27.314,27.314,0,0,1,22.394,14c7.6,0,7.6,2,15.2,2s7.6-2,15.2-2c.824,0,1.538.029,2.2.071V9Z"/><rect class="cls-3" x="21" y="30" width="14" height="11" rx="0.803" ry="0.803"/><rect class="cls-3" x="29" y="33" width="18" height="17" rx="0.763" ry="0.763"/><polygon class="cls-4" points="44 31 44 47 28 47 44 31"/><polygon class="cls-5" points="34 37 34 31 44 31 28 47 28 37 34 37"/><polygon class="cls-4" points="34 31 34 37 28 37 18 37 34 21 34 25 34 31"/><polygon class="cls-5" points="34 21 18 37 18 25 18 21 34 21"/><polygon class="cls-6" points="10 52 10 58 7 58 5 56 5 54 7 52 10 52"/><polygon class="cls-7" points="63 55 55 58 56 55 55 52 63 55"/><polygon class="cls-8" points="55 52 56 55 55 58 35 58 10 58 10 52 35 52 55 52"/><path class="cls-9" d="M56,55l-1-3H48.306a24.977,24.977,0,0,1,.687,6H55Z"/><rect class="cls-4" x="17" y="4" width="2" height="2"/><rect class="cls-4" x="26" y="4" width="26" height="2"/><path d="M28,48H44a1,1,0,0,0,1-1V31a1,1,0,0,0-1-1H35V21a1,1,0,0,0-1-1H18a1,1,0,0,0-1,1V37a1,1,0,0,0,1,1h9v9A1,1,0,0,0,28,48Zm2.414-2L43,33.414V46ZM41.586,32,29,44.586V38h5a1,1,0,0,0,1-1V32ZM20.414,36,33,23.414V36ZM31.586,22,19,34.586V22Z"/><rect x="21" y="4" width="2" height="2"/><path d="M63.351,54.063l-8-3,0,.006A.973.973,0,0,0,55,51H15V10H54V49h2V3a3,3,0,0,0-3-3H3A3,3,0,0,0,0,3V61a3,3,0,0,0,3,3H53a3,3,0,0,0,3-3H54a1,1,0,0,1-1,1H15V59H55a1,1,0,0,0,.349-.069l0,.006,8-3a1,1,0,0,0,0-1.874ZM54,3V8H15V2H53A1,1,0,0,1,54,3ZM3,2H13V46H2V3A1,1,0,0,1,3,2ZM13,62H3a1,1,0,0,1-1-1V48H13v3H7a1,1,0,0,0-.707.293l-2,2A1,1,0,0,0,4,54v2a1,1,0,0,0,.293.707l2,2A1,1,0,0,0,7,59h6ZM7.414,57,6,55.586V54.414L7.414,53H9v4ZM11,57V53H54.279l.667,2-.667,2Zm45.612-.673.337-1.011a1,1,0,0,0,0-.632l-.337-1.011L60.152,55Z"/><rect x="4" y="5" width="7" height="2"/><rect x="4" y="10" width="7" height="2"/><rect x="4" y="15" width="7" height="2"/><rect x="4" y="20" width="7" height="2"/><path d="M38.293,13.293l-3,3a1,1,0,0,0,0,1.414l3,3,1.414-1.414L37.414,17l2.293-2.293Z"/><path d="M47.707,20.707l3-3a1,1,0,0,0,0-1.414l-3-3-1.414,1.414L48.586,17l-2.293,2.293Z"/><rect class="cls-4" x="39.36" y="16.5" width="7.28" height="2" transform="matrix(0.275, -0.961, 0.961, 0.275, 14.353, 54.032)"/></g></svg>