<svg xmlns="http://www.w3.org/2000/svg" viewBox="0 0 64 64"><defs><style>.cls-1{fill:#b4cde1;}.cls-2{fill:#f5f7ff;}.cls-3{fill:#0074ff;}.cls-4{fill:#d7e9f7;}.cls-5{fill:#4795ea;}.cls-6{fill:#ccd3eb;}.cls-7{fill:#eb7f58;}.cls-8{fill:#033c59;}.cls-9{fill:#96a1c3;}</style></defs><title>Site mapping</title><g id="Site_mapping" data-name="Site mapping"><path class="cls-1" d="M15,40a1,1,0,0,1-1-1V36a5,5,0,0,1,5-5H31V28a1,1,0,0,1,2,0v4a1,1,0,0,1-1,1H19a3,3,0,0,0-3,3v3A1,1,0,0,1,15,40Z"/><path class="cls-1" d="M49,40a1,1,0,0,1-1-1V36a3,3,0,0,0-3-3H32a1,1,0,0,1,0-2H45a5,5,0,0,1,5,5v3A1,1,0,0,1,49,40Z"/><path class="cls-2" d="M4,47V58a2,2,0,0,0,2,2H26a2,2,0,0,0,2-2V47Z"/><path class="cls-3" d="M4,41v6H28V41a2,2,0,0,0-2-2H6A2,2,0,0,0,4,41Z"/><path class="cls-4" d="M20,44h1a1,1,0,0,0,0-2H20a1,1,0,0,0,0,2Z"/><path class="cls-5" d="M15,44h1a1,1,0,0,0,0-2H15a1,1,0,0,0,0,2Z"/><path class="cls-1" d="M9,57h8a1,1,0,0,0,0-2H9a1,1,0,0,0,0,2Z"/><path class="cls-3" d="M53,6v6H11V6a2,2,0,0,1,2-2H51A2,2,0,0,1,53,6Z"/><path class="cls-2" d="M53,12V26a2,2,0,0,1-2,2H13a2,2,0,0,1-2-2V12Z"/><path class="cls-3" d="M60,41v6H36V41a2,2,0,0,1,2-2H58A2,2,0,0,1,60,41Z"/><path class="cls-2" d="M60,47V58a2,2,0,0,1-2,2H38a2,2,0,0,1-2-2V47Z"/><rect class="cls-6" x="17" y="16" width="8" height="8" rx="1"/><path class="cls-1" d="M37,17H29a1,1,0,0,1,0-2h8a1,1,0,0,1,0,2Z"/><path class="cls-1" d="M41,21H29a1,1,0,0,1,0-2H41a1,1,0,0,1,0,2Z"/><path class="cls-1" d="M45,25H29a1,1,0,0,1,0-2H45a1,1,0,0,1,0,2Z"/><path class="cls-7" d="M16,9H15a1,1,0,0,1,0-2h1a1,1,0,0,1,0,2Z"/><path class="cls-5" d="M20,9H19a1,1,0,0,1,0-2h1a1,1,0,0,1,0,2Z"/><path class="cls-4" d="M24,9H23a1,1,0,0,1,0-2h1a1,1,0,0,1,0,2Z"/><path class="cls-7" d="M44,44H43a1,1,0,0,1,0-2h1a1,1,0,0,1,0,2Z"/><path class="cls-4" d="M54,44H53a1,1,0,0,1,0-2h1a1,1,0,0,1,0,2Z"/><path class="cls-5" d="M49,44H48a1,1,0,0,1,0-2h1a1,1,0,0,1,0,2Z"/><path class="cls-7" d="M11,44H10a1,1,0,0,1,0-2h1a1,1,0,0,1,0,2Z"/><path class="cls-1" d="M55,52H50a1,1,0,0,1,0-2h5a1,1,0,0,1,0,2Z"/><path class="cls-1" d="M14,52H9a1,1,0,0,1,0-2h5a1,1,0,0,1,0,2Z"/><path class="cls-1" d="M55,57H47a1,1,0,0,1,0-2h8a1,1,0,0,1,0,2Z"/><path class="cls-8" d="M11,20a1,1,0,0,0,1-1V18a1,1,0,0,0-2,0v1A1,1,0,0,0,11,20Z"/><path class="cls-8" d="M58,38H50V36a5,5,0,0,0-5-5H33V29H51a3,3,0,0,0,3-3V6a3,3,0,0,0-3-3H13a3,3,0,0,0-3,3v8a1,1,0,0,0,2,0V13H52V26a1,1,0,0,1-1,1H13a1,1,0,0,1-1-1V23a1,1,0,0,0-2,0v3a3,3,0,0,0,3,3H31v2H19a5,5,0,0,0-5,5v2H6a3,3,0,0,0-3,3V58a3,3,0,0,0,3,3H26a3,3,0,0,0,3-3V41a3,3,0,0,0-3-3H16V36a3,3,0,0,1,3-3H45a3,3,0,0,1,3,3v2H38a3,3,0,0,0-3,3V58a3,3,0,0,0,3,3H58a3,3,0,0,0,3-3V41A3,3,0,0,0,58,38ZM12,11V6a1,1,0,0,1,1-1H51a1,1,0,0,1,1,1v5ZM26,59H6a1,1,0,0,1-1-1V48H27V58A1,1,0,0,1,26,59Zm1-18v5H5V41a1,1,0,0,1,1-1H26A1,1,0,0,1,27,41Zm11-1H58a1,1,0,0,1,1,1v5H37V41A1,1,0,0,1,38,40ZM58,59H38a1,1,0,0,1-1-1V48H59V58A1,1,0,0,1,58,59Z"/><path class="cls-9" d="M25,25a1,1,0,0,0,1-1V16a1,1,0,0,0-1-1H17a1,1,0,0,0-1,1v8a1,1,0,0,0,1,1Zm-7-8h6v6H18Z"/><path class="cls-6" d="M29,17h8a1,1,0,0,0,0-2H29a1,1,0,0,0,0,2Z"/><path class="cls-6" d="M29,21H41a1,1,0,0,0,0-2H29a1,1,0,0,0,0,2Z"/><path class="cls-6" d="M29,25H45a1,1,0,0,0,0-2H29a1,1,0,0,0,0,2Z"/><path class="cls-2" d="M16,7H15a1,1,0,0,0,0,2h1a1,1,0,0,0,0-2Z"/><path class="cls-2" d="M20,7H19a1,1,0,0,0,0,2h1a1,1,0,0,0,0-2Z"/><path class="cls-2" d="M24,7H23a1,1,0,0,0,0,2h1a1,1,0,0,0,0-2Z"/><path class="cls-6" d="M11,42H10a1,1,0,0,0,0,2h1a1,1,0,0,0,0-2Z"/><path class="cls-6" d="M14,43a1,1,0,0,0,1,1h1a1,1,0,0,0,0-2H15A1,1,0,0,0,14,43Z"/><path class="cls-6" d="M20,44h1a1,1,0,0,0,0-2H20a1,1,0,0,0,0,2Z"/><path class="cls-6" d="M43,44h1a1,1,0,0,0,0-2H43a1,1,0,0,0,0,2Z"/><path class="cls-6" d="M48,44h1a1,1,0,0,0,0-2H48a1,1,0,0,0,0,2Z"/><path class="cls-6" d="M53,44h1a1,1,0,0,0,0-2H53a1,1,0,0,0,0,2Z"/><path class="cls-9" d="M9,52h5a1,1,0,0,0,0-2H9a1,1,0,0,0,0,2Z"/><path class="cls-9" d="M17,55H9a1,1,0,0,0,0,2h8a1,1,0,0,0,0-2Z"/><path class="cls-9" d="M55,50H50a1,1,0,0,0,0,2h5a1,1,0,0,0,0-2Z"/><path class="cls-9" d="M55,55H47a1,1,0,0,0,0,2h8a1,1,0,0,0,0-2Z"/></g></svg>