<svg xmlns="http://www.w3.org/2000/svg" viewBox="0 0 64 64"><defs><style>.cls-1{fill:#dfe1ea;}.cls-2{fill:#adb2c7;}.cls-3{fill:#cdd2e1;}.cls-4{fill:#f6fafd;}.cls-5{fill:#fff;}.cls-6{fill:#ffa426;}.cls-7{fill:#ffdfb0;}.cls-8{fill:#f2f6fc;}</style></defs><title>15-Browser</title><g id="_15-Browser" data-name="15-Browser"><path class="cls-1" d="M63,11V61a2.006,2.006,0,0,1-2,2H3a2.006,2.006,0,0,1-2-2V11Z"/><path class="cls-2" d="M61,1a2.006,2.006,0,0,1,2,2v8H1V3A2.006,2.006,0,0,1,3,1Z"/><path class="cls-3" d="M39.6,21c-7.6,0-7.6-2-15.2-2s-7.6,2-15.2,2A26.743,26.743,0,0,1,1,19.844v8A26.743,26.743,0,0,0,9.2,29c7.6,0,7.6-2,15.2-2s7.6,2,15.2,2,7.6-2,15.2-2A26.787,26.787,0,0,1,63,28.157v-8A26.787,26.787,0,0,0,54.8,19C47.2,19,47.2,21,39.6,21Z"/><path class="cls-4" d="M1,11v8.844A26.743,26.743,0,0,0,9.2,21c7.6,0,7.6-2,15.2-2s7.6,2,15.2,2,7.6-2,15.2-2A26.787,26.787,0,0,1,63,20.157V11Z"/><path class="cls-2" d="M47.16,55.97A1.994,1.994,0,0,1,45.45,59H12.55a1.994,1.994,0,0,1-1.71-3.03L27.29,28.82a2,2,0,0,1,3.42,0Z"/><path class="cls-2" d="M60,32l1,2-1,2-4.32.58a10.8,10.8,0,0,1-1.3,3.15l2.64,3.46-.71,2.12-2.12.71-3.46-2.64a10.8,10.8,0,0,1-3.15,1.3L47,49l-2,1-2-1-.58-4.32a10.8,10.8,0,0,1-3.15-1.3l-3.46,2.64-2.12-.71-.71-2.12,2.64-3.46a10.8,10.8,0,0,1-1.3-3.15L30,36l-1-2,1-2,4.32-.58a10.8,10.8,0,0,1,1.3-3.15l-2.64-3.46.71-2.12,2.12-.71,3.46,2.64a10.8,10.8,0,0,1,3.15-1.3L43,19l2-1,2,1,.58,4.32a10.8,10.8,0,0,1,3.15,1.3l3.46-2.64,2.12.71.71,2.12-2.64,3.46a10.8,10.8,0,0,1,1.3,3.15Zm-9,2a6,6,0,1,0-6,6A6,6,0,0,0,51,34Z"/><path class="cls-5" d="M57,31l1,2-1,2-4.32.58a10.8,10.8,0,0,1-1.3,3.15l2.64,3.46-.71,2.12-2.12.71-3.46-2.64a10.8,10.8,0,0,1-3.15,1.3L44,48l-2,1-2-1-.58-4.32a10.8,10.8,0,0,1-3.15-1.3l-3.46,2.64-2.12-.71-.71-2.12,2.64-3.46a10.8,10.8,0,0,1-1.3-3.15L27,35l-1-2,1-2,4.32-.58a10.8,10.8,0,0,1,1.3-3.15l-2.64-3.46.71-2.12,2.12-.71,3.46,2.64a10.8,10.8,0,0,1,3.15-1.3L40,18l2-1,2,1,.58,4.32a10.8,10.8,0,0,1,3.15,1.3l3.46-2.64,2.12.71.71,2.12-2.64,3.46a10.8,10.8,0,0,1,1.3,3.15Zm-9,2a6,6,0,1,0-6,6A6,6,0,0,0,48,33Z"/><rect class="cls-5" x="5" y="5" width="2" height="2"/><rect class="cls-5" x="14" y="5" width="45" height="2"/><path class="cls-6" d="M43.16,53.97A1.994,1.994,0,0,1,41.45,57H8.55a1.994,1.994,0,0,1-1.71-3.03L23.29,26.82a2,2,0,0,1,3.42,0Z"/><path class="cls-7" d="M23.29,26.82,15.3,40.015C21.99,40.169,22.314,42,29.6,42a25.773,25.773,0,0,0,5.954-.591L26.71,26.82A2,2,0,0,0,23.29,26.82Z"/><circle class="cls-8" cx="25" cy="51" r="2"/><path class="cls-8" d="M27,35v8a2,2,0,0,1-4,0V35a2,2,0,0,1,4,0Z"/><path d="M61,0H3A3,3,0,0,0,0,3V61a3,3,0,0,0,3,3H61a3,3,0,0,0,3-3V3A3,3,0,0,0,61,0ZM3,2H61a1,1,0,0,1,1,1v7H2V3A1,1,0,0,1,3,2ZM61,62H3a1,1,0,0,1-1-1V12H62V61A1,1,0,0,1,61,62Z"/><rect x="9" y="5" width="2" height="2"/><path d="M27.563,26.3a3,3,0,0,0-5.128,0L5.985,53.45A3,3,0,0,0,8.55,58h32.9a3,3,0,0,0,2.566-4.548ZM42.324,55.49a.983.983,0,0,1-.874.51H8.55A.995.995,0,0,1,7.7,54.488L24.144,27.34a1,1,0,0,1,1.71,0L42.306,54.49A.972.972,0,0,1,42.324,55.49Z"/><path d="M25,32a3,3,0,0,0-3,3v8a3,3,0,0,0,6,0V35A3,3,0,0,0,25,32Zm1,11a1,1,0,0,1-2,0V35a1,1,0,0,1,2,0Z"/><path d="M25,48a3,3,0,1,0,3,3A3,3,0,0,0,25,48Zm0,4a1,1,0,1,1,1-1A1,1,0,0,1,25,52Z"/><path d="M57.9,30.553a1,1,0,0,0-.763-.544l-3.657-.488a11.9,11.9,0,0,0-.9-2.174l2.241-2.932a1,1,0,0,0,.155-.924l-.707-2.121a1,1,0,0,0-.632-.632l-2.121-.708a1,1,0,0,0-.924.155l-2.932,2.242a11.925,11.925,0,0,0-2.174-.9l-.488-3.657a1,1,0,0,0-.544-.763l-2-1a1,1,0,0,0-.894,0l-2,1a1,1,0,0,0-.544.763l-.488,3.657a11.925,11.925,0,0,0-2.174.9l-2.932-2.242a1,1,0,0,0-.924-.155l-2.121.708a1,1,0,0,0-.632.632l-.707,2.121a1,1,0,0,0,.155.924l2.645,3.46,1.588-1.215L31.1,23.621l.382-1.144,1.143-.382,3.039,2.324a1,1,0,0,0,1.13.059,9.94,9.94,0,0,1,2.868-1.19,1,1,0,0,0,.758-.84l.505-3.791L42,18.118l1.079.539.505,3.791a1,1,0,0,0,.758.84,9.94,9.94,0,0,1,2.868,1.19,1,1,0,0,0,1.13-.059L51.379,22.1l1.143.382.382,1.144L50.581,26.66a1,1,0,0,0-.059,1.131,9.894,9.894,0,0,1,1.19,2.868,1,1,0,0,0,.841.757l3.79.5L56.882,33l-.539,1.079-3.79.505a1,1,0,0,0-.841.757,9.894,9.894,0,0,1-1.19,2.868,1,1,0,0,0,.059,1.131L52.9,42.379l-.382,1.144-1.143.382L48.34,41.581a1,1,0,0,0-1.13-.059,9.94,9.94,0,0,1-2.868,1.19,1,1,0,0,0-.758.84l-.575,4.316,1.982.264.488-3.657a11.925,11.925,0,0,0,2.174-.9l2.932,2.242a1,1,0,0,0,.924.155l2.121-.708a1,1,0,0,0,.632-.632l.707-2.121a1,1,0,0,0-.155-.924l-2.241-2.932a11.9,11.9,0,0,0,.9-2.174l3.657-.488a1,1,0,0,0,.763-.544l1-2a1,1,0,0,0,0-.894Z"/><path d="M49,33a7,7,0,1,0-7,7A7.008,7.008,0,0,0,49,33ZM37,33a5,5,0,1,1,5,5A5.006,5.006,0,0,1,37,33Z"/><path d="M9.293,23.707l1.414-1.414L8.414,20l2.293-2.293L9.293,16.293l-3,3a1,1,0,0,0,0,1.414Z"/><path d="M18.707,23.707l3-3a1,1,0,0,0,0-1.414l-3-3-1.414,1.414L19.586,20l-2.293,2.293Z"/><rect x="10.36" y="19.5" width="7.28" height="2.001" transform="translate(-9.558 28.328) rotate(-74.051)"/></g></svg>