<svg xmlns="http://www.w3.org/2000/svg" viewBox="0 0 64 64"><defs><style>.cls-1{fill:#979faf;}.cls-2{fill:#adb2c7;}.cls-3{fill:#8dd5f6;}.cls-4{fill:#dfe1ea;}.cls-5{fill:#aedff7;}.cls-6{fill:#f6fafd;}.cls-7{fill:#7e8596;}</style></defs><title>27-App</title><g id="_27-App" data-name="27-App"><rect class="cls-1" x="19" y="59" width="26" height="3"/><polygon class="cls-2" points="40 50 45 59 19 59 24 50 40 50"/><path class="cls-3" d="M63,4V42H1V4A2.006,2.006,0,0,1,3,2H61A2.006,2.006,0,0,1,63,4Z"/><path class="cls-4" d="M63,42v6a2.006,2.006,0,0,1-2,2H3a2.006,2.006,0,0,1-2-2V42Z"/><path class="cls-5" d="M61,2H3A2.006,2.006,0,0,0,1,4V18.844A26.743,26.743,0,0,0,9.2,20c7.6,0,7.6-2,15.2-2s7.6,2,15.2,2,7.6-2,15.2-2A26.787,26.787,0,0,1,63,19.157V4A2.006,2.006,0,0,0,61,2Z"/><path class="cls-6" d="M61,2H3A2.006,2.006,0,0,0,1,4v7.844A26.743,26.743,0,0,0,9.2,13c7.6,0,7.6-2,15.2-2s7.6,2,15.2,2,7.6-2,15.2-2A26.787,26.787,0,0,1,63,12.157V4A2.006,2.006,0,0,0,61,2Z"/><path class="cls-7" d="M24,50l-1.832,3.3A25.289,25.289,0,0,0,28.6,54c6.6,0,7.475-1.507,12.57-1.9L40,50Z"/><path d="M61,1H3A3,3,0,0,0,0,4V48a3,3,0,0,0,3,3H22.3l-4.175,7.514A1,1,0,0,0,18,59v2H16v2H48V61H46V59a1,1,0,0,0-.126-.486L41.7,51H61a3,3,0,0,0,3-3V4A3,3,0,0,0,61,1ZM3,3H61a1,1,0,0,1,1,1V41H2V4A1,1,0,0,1,3,3ZM20,61V60H44v1Zm23.3-3H20.7l3.888-7H39.412ZM61,49H3a1,1,0,0,1-1-1V43H62v5A1,1,0,0,1,61,49Z"/><rect x="42" y="36" width="17" height="2"/><rect x="44" y="32" width="15" height="2"/><rect x="42" y="10" width="17" height="2"/><rect x="40" y="6" width="19" height="2"/><rect x="54" y="28" width="5" height="2"/><rect x="47" y="28" width="5" height="2"/><rect x="54" y="14" width="5" height="2"/><rect x="47" y="14" width="5" height="2"/><path d="M10,27h8v5h2V19a4.821,4.821,0,0,0-5-5H13a4.821,4.821,0,0,0-5,5V32h2Zm3-11h2a2.852,2.852,0,0,1,3,3v6H10v-6A2.853,2.853,0,0,1,13,16Z"/><path d="M24,25.824c2.814-.677,7-2.923,7-7.824,0-3.164-1.962-4-3-4H23a1,1,0,0,0-1,1V32h2ZM24,16h3.971c.172.011,1.029.16,1.029,2,0,3.731-3.22,5.21-5,5.743Z"/><polygon points="41 30 38 30 38 16 41 16 41 14 33 14 33 16 36 16 36 30 33 30 33 32 41 32 41 30"/></g></svg>