<svg xmlns="http://www.w3.org/2000/svg" viewBox="0 0 64 64"><defs><style>.cls-1{fill:#0074ff;}.cls-2{fill:#ccd3eb;}.cls-3{fill:#f5f7ff;}.cls-4{fill:#f0f7fc;}.cls-5{fill:#033c59;}</style></defs><title>Success</title><g id="Success"><path class="cls-1" d="M61,6V18H4V6A2,2,0,0,1,6,4H59A2,2,0,0,1,61,6Z"/><path class="cls-2" d="M61,18V58a2,2,0,0,1-2,2H7a2,2,0,0,1-2-2V18Z"/><path class="cls-3" d="M6,18H56V51.15A5.94,5.94,0,0,1,50,57H4V18.1"/><rect class="cls-3" x="8" y="8" width="30" height="6" rx="2"/><circle class="cls-3" cx="49" cy="11" r="2"/><circle class="cls-3" cx="43" cy="11" r="2"/><circle class="cls-3" cx="55" cy="11" r="2"/><path class="cls-1" d="M48,39a16,16,0,1,1-8.51-14.14A16,16,0,0,1,48,39Z"/><path class="cls-4" d="M32,43.5a1,1,0,0,1-.6-.2l-4-3a1,1,0,1,1,1.2-1.6l3.25,2.44,5.39-6.29a1,1,0,0,1,1.52,1.3l-6,7A1,1,0,0,1,32,43.5Z"/><path class="cls-5" d="M16.24,36l.25,0a1,1,0,0,0,1-.75c.11-.44.24-.87.39-1.3A1,1,0,0,0,16,33.34c-.17.48-.32,1-.45,1.47A1,1,0,0,0,16.24,36Z"/><path class="cls-5" d="M32,56A17,17,0,1,0,17.85,29.56a1,1,0,1,0,1.66,1.12A15,15,0,1,1,17,39a1,1,0,0,0-2,0A17,17,0,0,0,32,56Z"/><path class="cls-3" d="M32,43.5a1,1,0,0,0,.76-.35l6-7a1,1,0,0,0-1.52-1.3l-5.39,6.29L28.6,38.7a1,1,0,1,0-1.2,1.6l4,3A1,1,0,0,0,32,43.5Z"/><path class="cls-5" d="M36,7H10a3,3,0,0,0-3,3v2a3,3,0,0,0,3,3H36a3,3,0,0,0,3-3V10A3,3,0,0,0,36,7Zm1,5a1,1,0,0,1-1,1H10a1,1,0,0,1-1-1V10a1,1,0,0,1,1-1H36a1,1,0,0,1,1,1Z"/><circle class="cls-3" cx="49" cy="11" r="2"/><circle class="cls-3" cx="43" cy="11" r="2"/><circle class="cls-3" cx="55" cy="11" r="2"/><path class="cls-5" d="M58,3H6A3,3,0,0,0,3,6V58a3,3,0,0,0,3,3H58a3,3,0,0,0,3-3V6A3,3,0,0,0,58,3Zm1,55a1,1,0,0,1-1,1H6a1,1,0,0,1-1-1V19H59Zm0-41H5V6A1,1,0,0,1,6,5H58a1,1,0,0,1,1,1Z"/></g></svg>