<svg xmlns="http://www.w3.org/2000/svg" viewBox="0 0 64 64"><defs><style>.cls-1{fill:#fff;}.cls-2{fill:#73c6b2;}.cls-3{fill:#dfe1ea;}.cls-4{fill:#ffcdbe;}.cls-5{fill:#b46e5a;}.cls-6{fill:#ffbeaa;}.cls-7{fill:#f2f6fc;}.cls-8{fill:#bec3d2;}.cls-9{fill:#915041;}.cls-10{fill:#7e8596;}.cls-11{fill:#afb4c8;}.cls-12{fill:#dce1eb;}.cls-13{fill:#f6fafd;}</style></defs><title>55-Programmer</title><g id="_55-Programmer" data-name="55-Programmer"><polygon class="cls-1" points="55 9 55 23 45 23 41 26 41 23 35 23 35 9 55 9"/><rect class="cls-2" x="35" y="1" width="20" height="8"/><rect class="cls-3" x="38" y="12" width="14" height="8"/><path class="cls-4" d="M27,28a2,2,0,0,1,0,4H26V28Z"/><path class="cls-5" d="M12,29V23c0-6,5-6,5-6h5c7,0,7,8,7,8H18C18,28,12,29,12,29Z"/><path class="cls-4" d="M12,29v3H11a2,2,0,0,1,0-4h1Z"/><path class="cls-4" d="M16,38.33A6.592,6.592,0,0,1,14,37c-2-2-2-3-2-3V29s6-1,6-4h8v9s0,1-2,3a6.592,6.592,0,0,1-2,1.33A8.459,8.459,0,0,1,19,39,8.459,8.459,0,0,1,16,38.33Z"/><path class="cls-6" d="M22,41v1a3,3,0,0,1-6,0V38.33A8.459,8.459,0,0,0,19,39a8.459,8.459,0,0,0,3-.67Z"/><path class="cls-7" d="M19,45a2.938,2.938,0,0,0,3-3l3,3s-2,4-6,4Z"/><path class="cls-7" d="M19,45v4c-4,0-6-4-6-4l3-3A2.938,2.938,0,0,0,19,45Z"/><path class="cls-8" d="M13,45s2,4,6,4,6-4,6-4l-3-3V41h5s5,0,5,5V63H6V46c0-5,5-5,5-5h5v1Z"/><path class="cls-6" d="M26,25H18c0,3-6,4-6,4v.168A31.293,31.293,0,0,1,15.394,29C21.049,29,22.5,30.106,26,30.673V25Z"/><path class="cls-9" d="M12,28v1s6-1,6-4H12Z"/><path class="cls-10" d="M11,41s-5,0-5,5V63h6V41Z"/><path class="cls-10" d="M27,41H26V63h6V46C32,41,27,41,27,41Z"/><polygon class="cls-11" points="44 55 45 63 35 63 36 55 44 55"/><circle class="cls-11" cx="40" cy="43" r="2"/><path class="cls-12" d="M58,29V55H22V29ZM42,43a2,2,0,1,0-2,2A2.006,2.006,0,0,0,42,43Z"/><path class="cls-13" d="M22,33.694A25.327,25.327,0,0,1,28.394,33c7.6,0,7.6,2,15.2,2,7.318,0,7.611-1.849,14.405-1.987V29H22Z"/><path class="cls-10" d="M36,55l-.373,2.984c.314.008.625.016.968.016a25.913,25.913,0,0,0,7.654-1.008L44,55Z"/><rect class="cls-1" x="38" y="4" width="2" height="2"/><rect class="cls-1" x="42" y="4" width="2" height="2"/><path d="M58,28H27V26h2a1,1,0,0,0,1-1c0-3.113-1.672-9-8-9H17c-2.075,0-6,1.463-6,7v4a3,3,0,0,0,0,6v1c0,.332.165,1.579,2.293,3.707A7.034,7.034,0,0,0,15,38.938V40H11a5.785,5.785,0,0,0-6,6V63a1,1,0,0,0,1,1H30V62H27V56h7.867l-.75,6H32v2H48V62H45.883l-.75-6H58a1,1,0,0,0,1-1V29A1,1,0,0,0,58,28ZM10,30a1,1,0,0,1,1-1v2A1,1,0,0,1,10,30Zm3-7c0-4.809,3.6-5,4-5h5c4.59,0,5.669,4.06,5.922,6H18a1,1,0,0,0-1,1c0,1.3-2.243,2.272-4,2.752Zm0,10.995V29.816c1.652-.385,5.07-1.456,5.843-3.816H25v2H22a1,1,0,0,0-1,1v8.624A7.106,7.106,0,0,1,19,38a6.8,6.8,0,0,1-4.293-1.707A6.466,6.466,0,0,1,13,33.995ZM19,40a8.542,8.542,0,0,0,2-.3V42a1.883,1.883,0,0,1-2,2,1.883,1.883,0,0,1-2-2V39.709A8.515,8.515,0,0,0,19,40Zm-3.523,3.937A3.633,3.633,0,0,0,18,45.9v2a6.475,6.475,0,0,1-3.736-2.744ZM25,62H13V50H11V62H7V46a3.85,3.85,0,0,1,4-4h3.586l-2.293,2.293a1,1,0,0,0-.188,1.154c.086.172,2,3.9,5.9,4.473V59h2V45.9a3.7,3.7,0,0,0,1-.383V55a1,1,0,0,0,1,1h3Zm11.133,0,.75-6h6.234l.75,6ZM57,54H23V30H57Z"/><path d="M40,46a3,3,0,1,0-3-3A3,3,0,0,0,40,46Zm0-4a1,1,0,1,1-1,1A1,1,0,0,1,40,42Z"/><path d="M42.293,12.293l-3,3a1,1,0,0,0,0,1.414l3,3,1.414-1.414L41.414,16l2.293-2.293Z"/><path d="M47.707,12.293l-1.414,1.414L48.586,16l-2.293,2.293,1.414,1.414,3-3a1,1,0,0,0,0-1.414Z"/><path d="M35,24h5v2a1,1,0,0,0,1.6.8L45.333,24H55a1,1,0,0,0,1-1V1a1,1,0,0,0-1-1H35a1,1,0,0,0-1,1V23A1,1,0,0,0,35,24Zm10-2a1,1,0,0,0-.6.2L42,24V23a1,1,0,0,0-1-1H36V10H54V22ZM54,2V8H36V2Z"/><path d="M29.772,13.635a1,1,0,0,0,.208-.829c-.162-.827-.3-2.773.31-3.516A.811.811,0,0,1,31,9a1,1,0,0,0,1-1V6a1,1,0,0,0-1-1,.811.811,0,0,1-.71-.29c-.61-.743-.472-2.689-.31-3.516A1,1,0,0,0,29,0H27V2h.865a5.866,5.866,0,0,0,.877,3.977A2.717,2.717,0,0,0,30,6.846v.308a2.717,2.717,0,0,0-1.258.869A5.866,5.866,0,0,0,27.865,12H27v2h2A1,1,0,0,0,29.772,13.635Z"/><rect x="19" y="6" width="2" height="2"/><rect x="15" y="6" width="2" height="2"/><rect x="23" y="6" width="2" height="2"/><path d="M9,9a.811.811,0,0,1,.71.29c.61.743.472,2.689.31,3.516A1,1,0,0,0,11,14h2V12h-.865a5.866,5.866,0,0,0-.877-3.977A2.717,2.717,0,0,0,10,7.154V6.846a2.717,2.717,0,0,0,1.258-.869A5.866,5.866,0,0,0,12.135,2H13V0H11a1,1,0,0,0-.98,1.194c.162.827.3,2.773-.31,3.516A.811.811,0,0,1,9,5,1,1,0,0,0,8,6V8A1,1,0,0,0,9,9Z"/></g></svg>