<svg xmlns="http://www.w3.org/2000/svg" width="96" height="96" viewBox="0 0 96 96"><defs><style>.cls-1{fill:#96c0ff;}.cls-2{fill:#b8d4ff;}.cls-3{fill:#fff;}.cls-4{fill:#ebf4ff;}.cls-5{fill:#c3d4ef;}.cls-6{fill:#d3bcfb;}.cls-7{fill:#f8fafd;}.cls-8{fill:#e5eefd;}.cls-9{fill:#283d54;}</style></defs><title>6.Web Server</title><g id="_6.Web_Server" data-name="6.Web Server"><g id="_Group_" data-name="&lt;Group&gt;"><path class="cls-1" d="M95,11V68H1V11A4,4,0,0,1,5,7H91A4,4,0,0,1,95,11Z"/></g><rect class="cls-2" x="7" y="7" width="3" height="61"/><rect class="cls-2" x="86" y="7" width="3" height="61"/><polygon class="cls-3" points="58 83 67 95 29 95 38 83 58 83"/><path class="cls-4" d="M95,68V79a4,4,0,0,1-4,4H5a4,4,0,0,1-4-4V68Z"/><polygon class="cls-5" points="58 83 38 83 35 87 61 87 58 83"/><path class="cls-6" d="M86,4v7H10V4a3,3,0,0,1,3-3H83A3,3,0,0,1,86,4Z"/><rect class="cls-7" x="10" y="11" width="76" height="57"/><rect class="cls-4" x="19" y="20" width="64" height="44" rx="2" ry="2"/><rect class="cls-7" x="15" y="16" width="64" height="44" rx="2" ry="2"/><g id="_Group_2" data-name="&lt;Group&gt;"><polygon class="cls-8" points="58 52 36 52 40 48 54 48 58 52"/><path class="cls-5" d="M60,42v4a2.006,2.006,0,0,1-2,2H36a2.006,2.006,0,0,1-2-2V42a2.006,2.006,0,0,1,2-2H58A2.006,2.006,0,0,1,60,42Z"/><path class="cls-5" d="M60,30v4a2.006,2.006,0,0,1-2,2H36a2.006,2.006,0,0,1-2-2V30a2.006,2.006,0,0,1,2-2H58A2.006,2.006,0,0,1,60,30Z"/><polygon class="cls-8" points="58 40 36 40 40 36 54 36 58 40"/><polygon class="cls-8" points="56 28 38 28 42 25 52 25 56 28"/><path class="cls-9" d="M91,6H87V4a4,4,0,0,0-4-4H13A4,4,0,0,0,9,4V6H5a5.006,5.006,0,0,0-5,5V79a5.006,5.006,0,0,0,5,5,1,1,0,0,0,0-2,3,3,0,0,1-3-3V69H94V79a3,3,0,0,1-3,3H10a1,1,0,0,0,0,2H36L28.5,94H25a1,1,0,0,0,0,2H71a1,1,0,0,0,0-2H67.5L60,84H91a5.006,5.006,0,0,0,5-5V11A5.006,5.006,0,0,0,91,6ZM65,94H31l7.5-10h19ZM11,4a2,2,0,0,1,2-2H83a2,2,0,0,1,2,2v6H11ZM2,11A3,3,0,0,1,5,8H9V67H2ZM87,67V32a1,1,0,0,0-2,0V67H11V12H85V27a1,1,0,0,0,2,0V8h4a3,3,0,0,1,3,3V67Z"/><path class="cls-9" d="M50,76a1,1,0,0,0,0-2H46a1,1,0,0,0,0,2Z"/><path class="cls-9" d="M15,7h3a1,1,0,0,0,0-2H15a1,1,0,0,0,0,2Z"/><path class="cls-9" d="M79,7h2a1,1,0,0,0,0-2H79a1,1,0,0,0,0,2Z"/><path class="cls-9" d="M72,7h2a1,1,0,0,0,0-2H72a1,1,0,0,0,0,2Z"/><path class="cls-9" d="M77,15H17a3,3,0,0,0-3,3V58a3,3,0,0,0,3,3h9a1,1,0,0,0,0-2H17a1,1,0,0,1-1-1V18a1,1,0,0,1,1-1H77a1,1,0,0,1,1,1V58a1,1,0,0,1-1,1H31a1,1,0,0,0,0,2H77a3,3,0,0,0,3-3V18A3,3,0,0,0,77,15Z"/><path class="cls-9" d="M20,20a1,1,0,0,0,0,2h2a1,1,0,0,0,0-2Z"/><path class="cls-9" d="M29,20H27a1,1,0,0,0,0,2h2a1,1,0,0,0,0-2Z"/><path class="cls-9" d="M74,22a1,1,0,0,0,0-2H72a1,1,0,0,0,0,2Z"/><path class="cls-9" d="M33,51a1,1,0,0,0,0,2H61a1,1,0,0,0,0-2H58.414l-2-2H58a3,3,0,0,0,3-3V42a3,3,0,0,0-2.539-2.953L56.414,37H58a3,3,0,0,0,3-3V30a3,3,0,0,0-3-3H56.333L52.6,24.2A1,1,0,0,0,52,24H42a1,1,0,0,0-.6.2L37.667,27H36a3,3,0,0,0-3,3v4a3,3,0,0,0,3,3h1.586l-2.047,2.047A3,3,0,0,0,33,42v4a3,3,0,0,0,3,3h1.586l-2,2Zm9.333-25h9.334L53,27H41ZM35,34V30a1,1,0,0,1,1-1H58a1,1,0,0,1,1,1v4a1,1,0,0,1-1,1H36A1,1,0,0,1,35,34Zm18.586,3,2,2H38.414l2-2ZM35,46V42a1,1,0,0,1,1-1H58a1,1,0,0,1,1,1v4a1,1,0,0,1-1,1H36A1,1,0,0,1,35,46Zm5.414,3H53.586l2,2H38.414Z"/></g></g></svg>