<svg xmlns="http://www.w3.org/2000/svg" viewBox="0 0 64 64"><defs><style>.cls-1{fill:#dfe1ea;}.cls-2{fill:#8dd5f6;}.cls-3{fill:#aedff7;}.cls-4{fill:#f6fafd;}.cls-5{fill:#0096cf;}.cls-6{fill:#fff;}.cls-7{fill:#7e8596;}.cls-8{fill:#adb2c7;}.cls-9{fill:#ff636e;}.cls-10{fill:#73c6b2;}</style></defs><title>39-App Development</title><g id="_39-App_Development" data-name="39-App Development"><path class="cls-1" d="M52,4V60a3,3,0,0,1-3,3H15a3,3,0,0,1-3-3V4a3,3,0,0,1,3-3H49A3,3,0,0,1,52,4ZM48,58V7a.979.979,0,0,0-1-1H39s-1,2-2,2H27c-1,0-2-2-2-2H17a.979.979,0,0,0-1,1V58a.979.979,0,0,0,1,1H47A.979.979,0,0,0,48,58Z"/><path class="cls-2" d="M48,7V58a.979.979,0,0,1-1,1H17a.979.979,0,0,1-1-1V7a.979.979,0,0,1,1-1h8s1,2,2,2H37c1,0,2-2,2-2h8A.979.979,0,0,1,48,7Z"/><path class="cls-3" d="M43.6,17c-7.6,0-7.6-2-15.2-2C21.872,15,20.935,16.47,16,16.888v7C20.935,23.47,21.872,22,28.394,22c7.6,0,7.6,2,15.2,2A28.636,28.636,0,0,0,48,23.7v-7A28.636,28.636,0,0,1,43.6,17Z"/><path class="cls-4" d="M16,7v9.888C20.935,16.47,21.872,15,28.394,15c7.6,0,7.6,2,15.2,2A28.636,28.636,0,0,0,48,16.7V7a.979.979,0,0,0-1-1H39s-1,2-2,2H27c-1,0-2-2-2-2H17A.979.979,0,0,0,16,7Z"/><rect class="cls-5" x="40" y="43" width="8" height="4" rx="0.684" ry="0.684"/><rect class="cls-6" x="38" y="29" width="20" height="14"/><rect class="cls-7" x="38" y="21" width="20" height="8"/><rect class="cls-1" x="41" y="32" width="14" height="8"/><rect class="cls-8" x="12" y="32" width="4" height="3"/><rect class="cls-5" x="16" y="32" width="22" height="3"/><polygon class="cls-1" points="30 28 30 36 22 36 30 28"/><polygon class="cls-6" points="30 28 22 36 22 28 30 28"/><polygon class="cls-1" points="6 36 6 28 14 28 6 36"/><polygon class="cls-6" points="6 36 14 28 14 36 6 36"/><polygon class="cls-1" points="14 12 14 20 6 20 14 12"/><polygon class="cls-6" points="14 12 6 20 6 12 14 12"/><polygon class="cls-1" points="14 44 14 52 6 52 14 44"/><polygon class="cls-6" points="14 44 6 52 6 44 14 44"/><rect class="cls-6" x="41" y="24" width="2" height="2"/><rect class="cls-6" x="45" y="24" width="2" height="2"/><circle class="cls-9" cx="26" cy="46" r="4"/><path class="cls-10" d="M29.6,21.19a.565.565,0,0,1-.51.81H22.91a.565.565,0,0,1-.51-.81L25.5,15a.56.56,0,0,1,1,0Z"/><path d="M58,20H53V4a4,4,0,0,0-4-4H15a4,4,0,0,0-4,4V9h2V4a2,2,0,0,1,2-2H49a2,2,0,0,1,2,2V20H49V7a1.959,1.959,0,0,0-2-2H39a1,1,0,0,0-.894.551A4.184,4.184,0,0,1,37,7l-9.955,0a3.765,3.765,0,0,1-1.151-1.454A1,1,0,0,0,25,5H17a1.959,1.959,0,0,0-2,2V9h2V7h7.412C24.9,7.807,25.827,9,27,9H37c1.173,0,2.1-1.193,2.588-2H47V20H38a1,1,0,0,0-1,1V31H31V28a1,1,0,0,0-1-1H27V23h2.09a1.565,1.565,0,0,0,1.4-2.258l-3.1-6.2a1.561,1.561,0,0,0-2.786.008l-3.1,6.2A1.565,1.565,0,0,0,22.91,23H25v4H22a1,1,0,0,0-1,1v3H15V28a1,1,0,0,0-1-1H11V21h3a1,1,0,0,0,1-1V12a1,1,0,0,0-1-1H6a1,1,0,0,0-1,1v8a1,1,0,0,0,1,1H9v6H6a1,1,0,0,0-1,1v8a1,1,0,0,0,1,1H9v6H6a1,1,0,0,0-1,1v8a1,1,0,0,0,1,1h8a1,1,0,0,0,1-1V44a1,1,0,0,0-1-1H11V37h3a1,1,0,0,0,1-1V33h6v3a1,1,0,0,0,1,1h3v4.1a5,5,0,1,0,2,0V37h3a1,1,0,0,0,1-1V33h6V43a1,1,0,0,0,1,1h9V58H17V55H15v3a1.959,1.959,0,0,0,2,2H47a1.959,1.959,0,0,0,2-2V44h2V60a2,2,0,0,1-2,2H15a2,2,0,0,1-2-2V55H11v5a4,4,0,0,0,4,4H49a4,4,0,0,0,4-4V44h5a1,1,0,0,0,1-1V21A1,1,0,0,0,58,20ZM26,16.235,28.386,21H23.614ZM7,13h6v6H7Zm6,38H7V45h6ZM11.586,29,7,33.586V29ZM8.414,35,13,30.414V35ZM29,46a3,3,0,1,1-3-3A3,3,0,0,1,29,46ZM27.586,29,23,33.586V29Zm-3.172,6L29,30.414V35ZM57,22v6H39V22ZM39,42V30H57V42Z"/><path d="M45.293,32.293l-3,3a1,1,0,0,0,0,1.414l3,3,1.414-1.414L44.414,36l2.293-2.293Z"/><path d="M50.707,32.293l-1.414,1.414L51.586,36l-2.293,2.293,1.414,1.414,3-3a1,1,0,0,0,0-1.414Z"/></g></svg>