<svg xmlns="http://www.w3.org/2000/svg" xmlns:xlink="http://www.w3.org/1999/xlink" viewBox="0 0 64 64"><defs><style>.cls-1{fill:#ccd3eb;}.cls-2{fill:#f5f7ff;}.cls-3{fill:#96a1c3;}.cls-4{fill:#647499;}.cls-5{fill:url(#linear-gradient);}.cls-6{fill:#0074ff;}.cls-7{fill:#0668cb;}.cls-8{fill:#033c59;}</style><linearGradient id="linear-gradient" x1="30" y1="43" x2="34" y2="43" gradientUnits="userSpaceOnUse"><stop offset="0" stop-color="#d3e6f5"/><stop offset="1" stop-color="#f0f7fc"/></linearGradient></defs><title>Launching</title><g id="Launching"><path class="cls-1" d="M60,11V39H4V11A6,6,0,0,1,8,5.35,5.8,5.8,0,0,1,10,5H54A6,6,0,0,1,60,11Z"/><path class="cls-2" d="M57,11V39H4V11A6,6,0,0,1,8,5.35,5.8,5.8,0,0,1,10,5H51A6,6,0,0,1,57,11Z"/><path class="cls-3" d="M60,38v4a6,6,0,0,1-6,6H10a6,6,0,0,1-6-6V38Z"/><polygon class="cls-4" points="42.29 60 21.71 60 25.83 48 38.17 48 42.29 60"/><path class="cls-5" d="M33,44H31a1,1,0,0,1,0-2h2a1,1,0,0,1,0,2Z"/><path class="cls-4" d="M36,29v2a2,2,0,0,1-2,2H30a2,2,0,0,1-2-2V29Z"/><path class="cls-3" d="M34,29v2a2,2,0,0,1-2,2H30a2,2,0,0,1-2-2V29Z"/><path class="cls-3" d="M40,16V26.61A3.68,3.68,0,0,1,39.13,29,2.82,2.82,0,0,1,37,30H27a2.82,2.82,0,0,1-2.13-1A3.68,3.68,0,0,1,24,26.61V16a9.62,9.62,0,0,1,2.73-6.81L31,5l1-1,1,1,4.28,4.23A9.62,9.62,0,0,1,40,16Z"/><path class="cls-1" d="M37,15V25.61A3.68,3.68,0,0,1,36.13,28,2.82,2.82,0,0,1,34,29H24.87A3.68,3.68,0,0,1,24,26.61V16a9.62,9.62,0,0,1,2.73-6.81L31,5l3.26,3.23A9.62,9.62,0,0,1,37,15Z"/><path class="cls-6" d="M24,20v7H19.41a1,1,0,0,1-.7-1.71Z"/><path class="cls-6" d="M44.8,27H40V19l5.55,6.34A1,1,0,0,1,44.8,27Z"/><circle class="cls-6" cx="32" cy="22" r="3"/><circle class="cls-6" cx="32" cy="12" r="2"/><path class="cls-7" d="M44,61H20a1,1,0,0,1,0-2H44a1,1,0,0,1,0,2Z"/><path class="cls-8" d="M31,44h2a1,1,0,0,0,0-2H31a1,1,0,0,0,0,2Z"/><path class="cls-8" d="M54,5H34.44L32.7,3.29a1,1,0,0,0-1.4,0L29.57,5H10a7,7,0,0,0-7,7V42a7,7,0,0,0,7,7H24.43L21,59H20a1,1,0,0,0,0,2H44a1,1,0,0,0,0-2H43L39.57,49H54a7,7,0,0,0,7-7V12A7,7,0,0,0,54,5ZM40.89,59H23.11l3.43-10H37.46ZM59,42a5,5,0,0,1-5,5H10a5,5,0,0,1-5-5V39H59Zm0-5H5V12a5,5,0,0,1,5-5H27.54L26,8.5A10.63,10.63,0,0,0,23,16v3.57l-6.71,6.7a1,1,0,0,0-.21,1.09A1,1,0,0,0,17,28h6.22A4.06,4.06,0,0,0,27,31v1a3,3,0,0,0,3,3h4a3,3,0,0,0,3-3V31a4.06,4.06,0,0,0,3.78-3H47a1,1,0,0,0,.75-1.66L41,18.62V17a1,1,0,0,0-2,0v9.61A2.22,2.22,0,0,1,37,29H27a2.22,2.22,0,0,1-2-2.39V16a8.64,8.64,0,0,1,2.43-6.1l3.25-3.21h0L32,5.41l1.3,1.28,0,0,2.58,2.55a1,1,0,1,0,1.4-1.42L36.46,7H54a5,5,0,0,1,5,5ZM23,22.41V26H19.41ZM29,32V31h6v1a1,1,0,0,1-1,1H30A1,1,0,0,1,29,32Zm12-6V21.66L44.8,26Z"/><path class="cls-8" d="M39.93,11.27a1,1,0,1,0-1.8.88,7.56,7.56,0,0,1,.46,1.19,1,1,0,0,0,1,.71,1,1,0,0,0,.29,0,1,1,0,0,0,.67-1.25A10.76,10.76,0,0,0,39.93,11.27Z"/><path class="cls-8" d="M32,18a4,4,0,1,0,4,4A4,4,0,0,0,32,18Zm0,6a2,2,0,1,1,2-2A2,2,0,0,1,32,24Z"/><path class="cls-8" d="M32,15a3,3,0,1,0-3-3A3,3,0,0,0,32,15Zm0-4a1,1,0,1,1-1,1A1,1,0,0,1,32,11Z"/></g></svg>