<svg xmlns="http://www.w3.org/2000/svg" width="96" height="96" viewBox="0 0 96 96"><defs><style>.cls-1{fill:#96c0ff;}.cls-2{fill:#fff;}.cls-3{fill:#e5eefd;}.cls-4{fill:#c3d4ef;}.cls-5{fill:#b8d4ff;}.cls-6{fill:#d3bcfb;}.cls-7{fill:#283d54;}</style></defs><title>25.Ftp login</title><g id="_25.Ftp_login" data-name="25.Ftp login"><path class="cls-1" d="M95,8V65H1V8A4,4,0,0,1,5,4H91A4,4,0,0,1,95,8Z"/><polygon class="cls-2" points="58 80 67 92 29 92 38 80 58 80"/><path class="cls-3" d="M95,65V76a4,4,0,0,1-4,4H5a4,4,0,0,1-4-4V65Z"/><polygon class="cls-4" points="58 80 38 80 35 84 61 84 58 80"/><circle class="cls-5" cx="29" cy="33" r="25"/><polygon class="cls-4" points="41 56 44 60 14 60 17 56 41 56"/><polygon class="cls-4" points="41 40 44 44 14 44 17 40 41 40"/><polygon class="cls-4" points="41 24 44 28 14 28 17 24 41 24"/><path class="cls-3" d="M48,47v6a3,3,0,0,1-3,3H13a3,3,0,0,1-3-3V47a3,3,0,0,1,3-3H45A3,3,0,0,1,48,47Z"/><path class="cls-3" d="M48,31v6a3,3,0,0,1-3,3H13a3,3,0,0,1-3-3V31a3,3,0,0,1,3-3H45A3,3,0,0,1,48,31Z"/><path class="cls-3" d="M48,15v6a3,3,0,0,1-3,3H13a3,3,0,0,1-3-3V15a3,3,0,0,1,3-3H45A3,3,0,0,1,48,15Z"/><rect class="cls-2" x="57" y="36" width="30" height="8" rx="2" ry="2"/><rect class="cls-2" x="75" y="49" width="10" height="6" rx="2" ry="2"/><rect class="cls-2" x="59" y="49" width="10" height="6" rx="2" ry="2"/><circle class="cls-6" cx="72" cy="23" r="8"/><path class="cls-7" d="M91,3H5A5.006,5.006,0,0,0,0,8V76a5.006,5.006,0,0,0,5,5,1,1,0,0,0,0-2,3,3,0,0,1-3-3V66H94V76a3,3,0,0,1-3,3H11a1,1,0,0,0,0,2H36L28.5,91H25a1,1,0,0,0,0,2H71a1,1,0,0,0,0-2H67.5L60,81H91a5.006,5.006,0,0,0,5-5V8A5.006,5.006,0,0,0,91,3ZM65,91H31l7.5-10h19ZM2,64V8A3,3,0,0,1,5,5H91a3,3,0,0,1,3,3V64Z"/><path class="cls-7" d="M50,73a1,1,0,0,0,0-2H46a1,1,0,0,0,0,2Z"/><path class="cls-7" d="M45,11H18a1,1,0,0,0,0,2H45a2,2,0,0,1,2,2v6a2,2,0,0,1-2,2H13a2,2,0,0,1-2-2V15a2,2,0,0,1,2-2,1,1,0,0,0,0-2,4,4,0,0,0-4,4v6a4,4,0,0,0,4,4h2l-1.5,2H13a4,4,0,0,0-4,4v6a4,4,0,0,0,4,4h2l-1.5,2H13a4,4,0,0,0-4,4v6a4,4,0,0,0,4,4h2l-1.5,2H10a1,1,0,0,0,0,2H48a1,1,0,0,0,0-2H44.5L43,57h2a4,4,0,0,0,4-4V47a4,4,0,0,0-4-4h-.5L43,41h2a4,4,0,0,0,4-4V31a4,4,0,0,0-4-4h-.5L43,25h2a4,4,0,0,0,4-4V15A4,4,0,0,0,45,11ZM42,59H16l1.5-2h23Zm5-12v6a2,2,0,0,1-2,2H13a2,2,0,0,1-2-2V47a2,2,0,0,1,2-2H45A2,2,0,0,1,47,47Zm-5-4H16l1.5-2h23Zm5-12v6a2,2,0,0,1-2,2H13a2,2,0,0,1-2-2V31a2,2,0,0,1,2-2H45A2,2,0,0,1,47,31Zm-5-4H16l1.5-2h23Z"/><path class="cls-7" d="M14,19a1,1,0,0,0,2,0V17a1,1,0,0,0-2,0Z"/><path class="cls-7" d="M21,19V17a1,1,0,0,0-2,0v2a1,1,0,0,0,2,0Z"/><path class="cls-7" d="M26,19V17a1,1,0,0,0-2,0v2a1,1,0,0,0,2,0Z"/><path class="cls-7" d="M43,19a1,1,0,0,0,0-2H31a1,1,0,0,0,0,2Z"/><path class="cls-7" d="M15,32a1,1,0,0,0-1,1v2a1,1,0,0,0,2,0V33A1,1,0,0,0,15,32Z"/><path class="cls-7" d="M20,32a1,1,0,0,0-1,1v2a1,1,0,0,0,2,0V33A1,1,0,0,0,20,32Z"/><path class="cls-7" d="M25,32a1,1,0,0,0-1,1v2a1,1,0,0,0,2,0V33A1,1,0,0,0,25,32Z"/><path class="cls-7" d="M43,33H31a1,1,0,0,0,0,2H43a1,1,0,0,0,0-2Z"/><path class="cls-7" d="M15,48a1,1,0,0,0-1,1v2a1,1,0,0,0,2,0V49A1,1,0,0,0,15,48Z"/><path class="cls-7" d="M20,48a1,1,0,0,0-1,1v2a1,1,0,0,0,2,0V49A1,1,0,0,0,20,48Z"/><path class="cls-7" d="M25,48a1,1,0,0,0-1,1v2a1,1,0,0,0,2,0V49A1,1,0,0,0,25,48Z"/><path class="cls-7" d="M43,49H31a1,1,0,0,0,0,2H43a1,1,0,0,0,0-2Z"/><path class="cls-7" d="M85,35a1,1,0,0,0,0,2,1,1,0,0,1,1,1v4a1,1,0,0,1-1,1H59a1,1,0,0,1-1-1V38a1,1,0,0,1,1-1H81a1,1,0,0,0,0-2H59a3,3,0,0,0-3,3v4a3,3,0,0,0,3,3H85a3,3,0,0,0,3-3V38A3,3,0,0,0,85,35Z"/><path class="cls-7" d="M83,48H77a3,3,0,0,0-3,3v2a3,3,0,0,0,3,3h6a3,3,0,0,0,3-3V51A3,3,0,0,0,83,48Zm1,5a1,1,0,0,1-1,1H77a1,1,0,0,1-1-1V51a1,1,0,0,1,1-1h6a1,1,0,0,1,1,1Z"/><path class="cls-7" d="M67,48H61a3,3,0,0,0-3,3v2a3,3,0,0,0,3,3h6a3,3,0,0,0,3-3V51A3,3,0,0,0,67,48Zm1,5a1,1,0,0,1-1,1H61a1,1,0,0,1-1-1V51a1,1,0,0,1,1-1h6a1,1,0,0,1,1,1Z"/><path class="cls-7" d="M72,32a9,9,0,1,0-9-9A9.01,9.01,0,0,0,72,32Zm0-16a7,7,0,1,1-7,7A7.009,7.009,0,0,1,72,16Z"/><path class="cls-7" d="M70.707,23.707,72,22.414l1.293,1.293a1,1,0,0,0,1.414-1.414l-2-2a1,1,0,0,0-1.414,0l-2,2a1,1,0,0,0,1.414,1.414Z"/></g></svg>