<svg xmlns="http://www.w3.org/2000/svg" xmlns:xlink="http://www.w3.org/1999/xlink" viewBox="0 0 64 64"><defs><style>.cls-1{fill:#ccd3eb;}.cls-2{fill:#f5f7ff;}.cls-3{fill:#96a1c3;}.cls-4{fill:#647499;}.cls-5{fill:url(#linear-gradient);}.cls-6{fill:#0074ff;}.cls-7{fill:#033c59;}</style><linearGradient id="linear-gradient" x1="30" y1="43" x2="34" y2="43" gradientUnits="userSpaceOnUse"><stop offset="0" stop-color="#d3e6f5"/><stop offset="1" stop-color="#f0f7fc"/></linearGradient></defs><title>Setting display</title><g id="Setting_display" data-name="Setting display"><path class="cls-1" d="M60,10V38H4V10A6,6,0,0,1,8,4.35,5.8,5.8,0,0,1,10,4H54A6,6,0,0,1,60,10Z"/><path class="cls-2" d="M57,10V38H4V10A6,6,0,0,1,8,4.35,5.8,5.8,0,0,1,10,4H51A6,6,0,0,1,57,10Z"/><path class="cls-3" d="M60,37v4a6,6,0,0,1-6,6H10a6,6,0,0,1-6-6V37Z"/><polygon class="cls-4" points="42.29 60 21.71 60 25.83 48 38.17 48 42.29 60"/><path class="cls-5" d="M33,44H31a1,1,0,0,1,0-2h2a1,1,0,0,1,0,2Z"/><path class="cls-6" d="M43,19H40.78a9.05,9.05,0,0,0-1.16-2.79l1.57-1.57a1,1,0,0,0,0-1.42l-1.41-1.41a1,1,0,0,0-1.42,0l-1.57,1.57A9.05,9.05,0,0,0,34,12.22V10a1,1,0,0,0-1-1H31a1,1,0,0,0-1,1v2.22a9.05,9.05,0,0,0-2.79,1.16l-1.57-1.57a1,1,0,0,0-1.42,0l-1.41,1.41a1,1,0,0,0,0,1.42l1.57,1.57A9.05,9.05,0,0,0,23.22,19H21a1,1,0,0,0-1,1v2a1,1,0,0,0,1,1h2.22a9.05,9.05,0,0,0,1.16,2.79l-1.57,1.57a1,1,0,0,0,0,1.42l1.41,1.41a1,1,0,0,0,1.42,0l1.57-1.57A9.05,9.05,0,0,0,30,29.78V32a1,1,0,0,0,1,1h2a1,1,0,0,0,1-1V29.78a9.05,9.05,0,0,0,2.79-1.16l1.57,1.57a1,1,0,0,0,1.42,0l1.41-1.41a1,1,0,0,0,0-1.42l-1.57-1.57A9.05,9.05,0,0,0,40.78,23H43a1,1,0,0,0,1-1V20A1,1,0,0,0,43,19ZM32,26a5,5,0,1,1,5-5A5,5,0,0,1,32,26Z"/><path class="cls-7" d="M33,42H31a1,1,0,0,0,0,2h2a1,1,0,0,0,0-2Z"/><path class="cls-7" d="M47,5h1a1,1,0,0,0,0-2H47a1,1,0,0,0,0,2Z"/><path class="cls-7" d="M54,3H52a1,1,0,0,0,0,2h2a5,5,0,0,1,5,5V37H5V10a5,5,0,0,1,5-5H43a1,1,0,0,0,0-2H10a7,7,0,0,0-7,7V42a7,7,0,0,0,7,7H24.43L21,59H20a1,1,0,0,0,0,2H44a1,1,0,0,0,0-2H43L39.57,49H54a7,7,0,0,0,7-7V10A7,7,0,0,0,54,3ZM40.89,59H23.11l3.43-10H37.46ZM54,47H10a5,5,0,0,1-5-5V39H59v3A5,5,0,0,1,54,47Z"/><path class="cls-7" d="M41.54,18a10.42,10.42,0,0,0-.67-1.62l1-1a2,2,0,0,0,0-2.84L40.49,11.1a2,2,0,0,0-2.84,0l-1,1A10.42,10.42,0,0,0,35,11.46V10a2,2,0,0,0-2-2H31a2,2,0,0,0-2,2v1.46a10.42,10.42,0,0,0-1.62.67l-1-1a2,2,0,0,0-2.84,0L22.1,12.51a2,2,0,0,0,0,2.84l1,1A10.42,10.42,0,0,0,22.46,18H21a2,2,0,0,0-2,2v2a2,2,0,0,0,2,2h1.46a10.42,10.42,0,0,0,.67,1.62l-1,1a2,2,0,0,0,0,2.84l1.41,1.41a2,2,0,0,0,2.84,0l1-1a10.42,10.42,0,0,0,1.62.67V32a2,2,0,0,0,2,2h2a2,2,0,0,0,2-2V30.54a10.42,10.42,0,0,0,1.62-.67l1,1a2,2,0,0,0,2.84,0l1.41-1.41a2,2,0,0,0,0-2.84l-1-1A10.42,10.42,0,0,0,41.54,24H43a2,2,0,0,0,2-2V20a2,2,0,0,0-2-2ZM43,22H40.78l-.08,0a.65.65,0,0,0-.2,0l-.18.06-.15.11a.86.86,0,0,0-.14.13l-.11.15a1.08,1.08,0,0,0-.08.19.19.19,0,0,0,0,.08,8.32,8.32,0,0,1-1,2.48.41.41,0,0,1,0,.08,1.07,1.07,0,0,0-.07.19.57.57,0,0,0,0,.18.61.61,0,0,0,0,.19,1.62,1.62,0,0,0,0,.19c0,.05,0,.11.07.17a.91.91,0,0,0,.11.16.56.56,0,0,0,0,.08l1.57,1.57-1.41,1.41L37.5,27.91l-.08-.05-.16-.11-.18-.07-.18,0a.61.61,0,0,0-.19,0,.57.57,0,0,0-.18,0l-.19.07-.08,0a8.22,8.22,0,0,1-2.48,1,.19.19,0,0,0-.08,0l-.19.08-.15.11a.86.86,0,0,0-.13.14l-.11.15a1.27,1.27,0,0,0-.06.18.65.65,0,0,0,0,.2.24.24,0,0,0,0,.08V32H31V29.78a.24.24,0,0,0,0-.08.65.65,0,0,0,0-.2,1.27,1.27,0,0,0-.06-.18l-.11-.15a.86.86,0,0,0-.13-.14l-.15-.11-.19-.08a.19.19,0,0,0-.08,0,8.22,8.22,0,0,1-2.48-1l-.08,0-.19-.07a.57.57,0,0,0-.18,0,.61.61,0,0,0-.19,0l-.18,0-.18.07-.16.11-.08.05-1.57,1.57-1.41-1.41,1.57-1.57a.56.56,0,0,0,.05-.08.91.91,0,0,0,.11-.16c0-.06.05-.12.07-.17a1.62,1.62,0,0,0,0-.19.61.61,0,0,0,0-.19.57.57,0,0,0,0-.18,1.07,1.07,0,0,0-.07-.19.41.41,0,0,1,0-.08,8.32,8.32,0,0,1-1-2.48.19.19,0,0,0,0-.08,1.08,1.08,0,0,0-.08-.19L24,22.36a.86.86,0,0,0-.14-.13l-.15-.11a1.27,1.27,0,0,0-.18-.06.65.65,0,0,0-.2,0l-.08,0H21V20h2.22a1,1,0,0,0,.36-.07l.11-.06.19-.13a.52.52,0,0,0,.1-.11l.12-.18.06-.13s0-.06,0-.1a8.32,8.32,0,0,1,1-2.48.41.41,0,0,1,0-.08,1.07,1.07,0,0,0,.07-.19.57.57,0,0,0,0-.18.61.61,0,0,0,0-.19,1.62,1.62,0,0,0,0-.19c0-.05,0-.11-.07-.17a.91.91,0,0,0-.11-.16.56.56,0,0,0-.05-.08l-1.57-1.57,1.41-1.41,1.57,1.57h0a1.08,1.08,0,0,0,.29.2l.08,0a1.14,1.14,0,0,0,.33.06h0a.93.93,0,0,0,.33-.07l.1,0,.1,0a8.22,8.22,0,0,1,2.48-1,.19.19,0,0,0,.08,0l.19-.08.15-.11a.86.86,0,0,0,.13-.14l.11-.15a1.27,1.27,0,0,0,.06-.18.65.65,0,0,0,0-.2.24.24,0,0,0,0-.08V10h2v2.22a.24.24,0,0,0,0,.08.65.65,0,0,0,0,.2,1.27,1.27,0,0,0,.06.18l.11.15a.86.86,0,0,0,.13.14l.15.11.19.08a.19.19,0,0,0,.08,0,8.22,8.22,0,0,1,2.48,1l.1,0,.1,0a.93.93,0,0,0,.33.07h0a1.14,1.14,0,0,0,.33-.06l.08,0a1.08,1.08,0,0,0,.29-.2h0l1.57-1.57,1.41,1.41L38.91,15.5a.56.56,0,0,0,0,.08.91.91,0,0,0-.11.16c0,.06,0,.12-.07.17a1.62,1.62,0,0,0,0,.19.61.61,0,0,0,0,.19.57.57,0,0,0,0,.18,1.07,1.07,0,0,0,.07.19.41.41,0,0,1,0,.08,8.32,8.32,0,0,1,1,2.48s0,.06,0,.1l.06.13a1.4,1.4,0,0,0,.12.18.52.52,0,0,0,.1.11l.19.13.11.06a1,1,0,0,0,.36.07H43Z"/><path class="cls-7" d="M32,15a6,6,0,1,0,6,6A6,6,0,0,0,32,15Zm0,10a4,4,0,1,1,4-4A4,4,0,0,1,32,25Z"/></g></svg>