<svg xmlns="http://www.w3.org/2000/svg" viewBox="0 0 64 64"><defs><style>.cls-1{fill:#979faf;}.cls-2{fill:#adb2c7;}.cls-3{fill:#8dd5f6;}.cls-4{fill:#dfe1ea;}.cls-5{fill:#aedff7;}.cls-6{fill:#f6fafd;}.cls-7{fill:#7e8596;}.cls-8{fill:#0096cf;}.cls-9{fill:#fff;}.cls-10{fill:#ff636e;}</style></defs><title>84-Development</title><g id="_84-Development" data-name="84-Development"><rect class="cls-1" x="19" y="59" width="26" height="3"/><polygon class="cls-2" points="40 50 45 59 19 59 24 50 40 50"/><path class="cls-3" d="M63,4V42H1V4A2.006,2.006,0,0,1,3,2H61A2.006,2.006,0,0,1,63,4Z"/><path class="cls-4" d="M63,42v6a2.006,2.006,0,0,1-2,2H3a2.006,2.006,0,0,1-2-2V42Z"/><path class="cls-5" d="M61,2H3A2.006,2.006,0,0,0,1,4V18.844A26.743,26.743,0,0,0,9.2,20c7.6,0,7.6-2,15.2-2s7.6,2,15.2,2,7.6-2,15.2-2A26.787,26.787,0,0,1,63,19.157V4A2.006,2.006,0,0,0,61,2Z"/><path class="cls-6" d="M61,2H3A2.006,2.006,0,0,0,1,4v7.844A26.743,26.743,0,0,0,9.2,13c7.6,0,7.6-2,15.2-2s7.6,2,15.2,2,7.6-2,15.2-2A26.787,26.787,0,0,1,63,12.157V4A2.006,2.006,0,0,0,61,2Z"/><path class="cls-7" d="M24,50l-1.832,3.3A25.289,25.289,0,0,0,28.6,54c6.6,0,7.475-1.507,12.57-1.9L40,50Z"/><rect class="cls-8" x="7" y="9" width="22" height="23" rx="1.576" ry="1.576"/><rect class="cls-9" x="6" y="15" width="20" height="14"/><rect class="cls-10" x="6" y="7" width="20" height="8"/><rect class="cls-4" x="9" y="18" width="14" height="8"/><rect class="cls-9" x="9" y="10" width="2" height="2"/><rect class="cls-9" x="13" y="10" width="2" height="2"/><path d="M61,1H3A3,3,0,0,0,0,4V48a3,3,0,0,0,3,3H22.3l-4.175,7.515A.991.991,0,0,0,18,59v2H16v2H48V61H46V59a.991.991,0,0,0-.126-.485L41.7,51H61a3,3,0,0,0,3-3V4A3,3,0,0,0,61,1ZM3,3H61a1,1,0,0,1,1,1V41H2V4A1,1,0,0,1,3,3ZM20,61V60H44v1Zm23.3-3H20.7l3.889-7H39.412ZM61,49H3a1,1,0,0,1-1-1V43H62v5A1,1,0,0,1,61,49Z"/><path d="M6,30H19V28H7V16H25v1h2V7a1,1,0,0,0-1-1H6A1,1,0,0,0,5,7V29A1,1,0,0,0,6,30ZM25,8v6H7V8Z"/><path d="M13.293,18.293l-3,3a1,1,0,0,0,0,1.414l3,3,1.414-1.414L12.414,22l2.293-2.293Z"/><path d="M18.707,25.707l3-3a1,1,0,0,0,0-1.414l-3-3-1.414,1.414L19.586,22l-2.293,2.293Z"/><rect x="30" y="15" width="11" height="2"/><rect x="30" y="11" width="6" height="2"/><path d="M25,34H24a2,2,0,0,1-2-2V26H20v6a4,4,0,0,0,4,4h1a4,4,0,0,0,4-4H27A2,2,0,0,1,25,34Z"/><path d="M24,20v2h1a2,2,0,0,1,2,2h2a4,4,0,0,0-4-4Z"/><path d="M36,20H35a4,4,0,0,0-4,4v8a4,4,0,0,0,4,4h1a4,4,0,0,0,4-4V24A4,4,0,0,0,36,20Zm2,12a2,2,0,0,1-2,2H35a2,2,0,0,1-2-2V24a2,2,0,0,1,2-2h1a2,2,0,0,1,2,2Z"/><path d="M43,36h3a4,4,0,0,0,4-4V24a4,4,0,0,0-4-4H43a1,1,0,0,0-1,1V35A1,1,0,0,0,43,36Zm1-14h2a2,2,0,0,1,2,2v8a2,2,0,0,1-2,2H44Z"/><path d="M53,36h6V34H54V29h5V27H54V22h5V20H53a1,1,0,0,0-1,1V35A1,1,0,0,0,53,36Z"/></g></svg>