<svg xmlns="http://www.w3.org/2000/svg" viewBox="0 0 64 64"><defs><style>.cls-1{fill:#dfe1ea;}.cls-2{fill:#8dd5f6;}.cls-3{fill:#0096cf;}.cls-4{fill:#aedff7;}.cls-5{fill:#f6fafd;}.cls-6{fill:#fff;}.cls-7{fill:#ff636e;}.cls-8{fill:#adb2c7;}</style></defs><title>63-App</title><g id="_63-App" data-name="63-App"><path class="cls-1" d="M52,4V60a3,3,0,0,1-3,3H15a3,3,0,0,1-3-3V4a3,3,0,0,1,3-3H49A3,3,0,0,1,52,4ZM48,58V7a.979.979,0,0,0-1-1H39s-1,2-2,2H27c-1,0-2-2-2-2H17a.979.979,0,0,0-1,1V58a.979.979,0,0,0,1,1H47A.979.979,0,0,0,48,58Z"/><path class="cls-2" d="M48,7V58a.979.979,0,0,1-1,1H17a.979.979,0,0,1-1-1V7a.979.979,0,0,1,1-1h8s1,2,2,2H37c1,0,2-2,2-2h8A.979.979,0,0,1,48,7Z"/><rect class="cls-3" x="22" y="46" width="11" height="11" rx="0.561" ry="0.561"/><rect class="cls-3" x="34" y="46" width="11" height="11" rx="0.561" ry="0.561"/><path class="cls-4" d="M43.6,17c-7.6,0-7.6-2-15.2-2C21.872,15,20.935,16.47,16,16.888v7C20.935,23.47,21.872,22,28.394,22c7.6,0,7.6,2,15.2,2A28.636,28.636,0,0,0,48,23.7v-7A28.636,28.636,0,0,1,43.6,17Z"/><path class="cls-5" d="M16,7v9.888C20.935,16.47,21.872,15,28.394,15c7.6,0,7.6,2,15.2,2A28.636,28.636,0,0,0,48,16.7V7a.979.979,0,0,0-1-1H39s-1,2-2,2H27c-1,0-2-2-2-2H17A.979.979,0,0,0,16,7Z"/><rect class="cls-3" x="23" y="16" width="22" height="23" rx="1.576" ry="1.576"/><rect class="cls-6" x="22" y="22" width="20" height="14"/><rect class="cls-7" x="22" y="14" width="20" height="8"/><rect class="cls-1" x="25" y="25" width="14" height="8"/><polygon class="cls-8" points="30 46 30 54 22 54 30 46"/><polygon class="cls-6" points="30 46 22 54 22 46 30 46"/><polygon class="cls-8" points="42 46 42 54 34 54 42 46"/><polygon class="cls-6" points="42 46 34 54 34 46 42 46"/><rect class="cls-6" x="25" y="17" width="2" height="2"/><rect class="cls-6" x="29" y="17" width="2" height="2"/><rect class="cls-6" x="26" y="40" width="2" height="2"/><rect class="cls-6" x="36" y="40" width="2" height="2"/><path d="M49,0H15a4,4,0,0,0-4,4V60a4,4,0,0,0,4,4H49a4,4,0,0,0,4-4V4A4,4,0,0,0,49,0Zm2,60a2,2,0,0,1-2,2H15a2,2,0,0,1-2-2V4a2,2,0,0,1,2-2H49a2,2,0,0,1,2,2Z"/><path d="M47,5H39a1,1,0,0,0-.894.552A4.188,4.188,0,0,1,37,7l-9.956,0a3.778,3.778,0,0,1-1.15-1.453A1,1,0,0,0,25,5H17a1.959,1.959,0,0,0-2,2V58a1.959,1.959,0,0,0,2,2H47a1.959,1.959,0,0,0,2-2V7A1.959,1.959,0,0,0,47,5Zm0,53H17V7h7.412C24.9,7.808,25.827,9,27,9H37c1.173,0,2.1-1.192,2.588-2H47Z"/><path d="M30,45H22a1,1,0,0,0-1,1v8a1,1,0,0,0,1,1h8a1,1,0,0,0,1-1V46A1,1,0,0,0,30,45Zm-2.414,2L23,51.586V47Zm-3.172,6L29,48.414V53Z"/><path d="M42,45H34a1,1,0,0,0-1,1v8a1,1,0,0,0,1,1h8a1,1,0,0,0,1-1V46A1,1,0,0,0,42,45Zm-2.414,2L35,51.586V47Zm-3.172,6L41,48.414V53Z"/><path d="M21,14V36a1,1,0,0,0,1,1H42a1,1,0,0,0,1-1V14a1,1,0,0,0-1-1H22A1,1,0,0,0,21,14Zm2,21V23H41V35ZM41,15v6H23V15Z"/><path d="M29.293,25.293l-3,3a1,1,0,0,0,0,1.414l3,3,1.414-1.414L28.414,29l2.293-2.293Z"/><path d="M34.707,25.293l-1.414,1.414L35.586,29l-2.293,2.293,1.414,1.414,3-3a1,1,0,0,0,0-1.414Z"/><rect x="21" y="40" width="2" height="2"/><rect x="31" y="40" width="2" height="2"/><rect x="41" y="40" width="2" height="2"/></g></svg>