<svg xmlns="http://www.w3.org/2000/svg" viewBox="0 0 64 64"><defs><style>.cls-1{fill:#dfe1ea;}.cls-2{fill:#adb2c7;}.cls-3{fill:#cdd2e1;}.cls-4{fill:#e9edf5;}.cls-5{fill:#fff;}.cls-6{fill:#ff636e;}.cls-7{fill:#8dd5f6;}.cls-8{fill:#ffc247;}.cls-9{fill:#aedff7;}.cls-10{fill:#f6fafd;}</style></defs><title>38-Flowchart</title><g id="_38-Flowchart" data-name="38-Flowchart"><path class="cls-1" d="M63,11V61a2.006,2.006,0,0,1-2,2H3a2.006,2.006,0,0,1-2-2V11Z"/><path class="cls-2" d="M61,1a2.006,2.006,0,0,1,2,2v8H1V3A2.006,2.006,0,0,1,3,1Z"/><path class="cls-3" d="M39.6,21c-7.6,0-7.6-2-15.2-2s-7.6,2-15.2,2A26.743,26.743,0,0,1,1,19.844v8A26.743,26.743,0,0,0,9.2,29c7.6,0,7.6-2,15.2-2s7.6,2,15.2,2,7.6-2,15.2-2A26.787,26.787,0,0,1,63,28.157v-8A26.787,26.787,0,0,0,54.8,19C47.2,19,47.2,21,39.6,21Z"/><path class="cls-4" d="M1,11v8.844A26.743,26.743,0,0,0,9.2,21c7.6,0,7.6-2,15.2-2s7.6,2,15.2,2,7.6-2,15.2-2A26.787,26.787,0,0,1,63,20.157V11Z"/><rect class="cls-2" x="13" y="26" width="11" height="11" rx="0.561" ry="0.561"/><rect class="cls-2" x="43" y="26" width="11" height="11" rx="0.561" ry="0.561"/><path class="cls-2" d="M43.14,46.5a1,1,0,0,1-.87,1.5H34c-.77,0-3.38-3.33-3-4l4.13-8.47a1,1,0,0,1,1.74,0Z"/><rect class="cls-2" x="32" y="23" width="3" height="32"/><circle class="cls-2" cx="34" cy="22" r="5"/><rect class="cls-2" x="25" y="56" width="17" height="6" rx="0.513" ry="0.513"/><polygon class="cls-2" points="21 26 21 34 13 34 21 26"/><polygon class="cls-5" points="21 26 13 34 13 26 21 26"/><polygon class="cls-2" points="51 26 51 34 43 34 51 26"/><polygon class="cls-5" points="51 26 43 34 43 26 51 26"/><rect class="cls-6" x="24" y="53" width="15" height="6"/><path class="cls-7" d="M39.14,44.5a1,1,0,0,1-.87,1.5H25.73a1,1,0,0,1-.87-1.5l6.27-10.97a1,1,0,0,1,1.74,0Z"/><circle class="cls-8" cx="32" cy="20" r="5"/><path class="cls-9" d="M31.13,33.53l-2.63,4.6A25.259,25.259,0,0,0,35.6,39c.141,0,.262-.005.4-.006L32.87,33.53A1,1,0,0,0,31.13,33.53Z"/><path class="cls-5" d="M37.711,42H26.289L24.86,44.5a1,1,0,0,0,.87,1.5H38.27a1,1,0,0,0,.87-1.5Z"/><rect class="cls-10" x="25" y="53" width="5" height="6"/><circle class="cls-10" cx="32" cy="20" r="2"/><rect class="cls-5" x="5" y="5" width="2" height="2"/><rect class="cls-5" x="14" y="5" width="45" height="2"/><path d="M61,0H3A3,3,0,0,0,0,3V61a3,3,0,0,0,3,3H61a3,3,0,0,0,3-3V3A3,3,0,0,0,61,0ZM3,2H61a1,1,0,0,1,1,1v7H2V3A1,1,0,0,1,3,2ZM61,62H3a1,1,0,0,1-1-1V12H62V61A1,1,0,0,1,61,62Z"/><rect x="9" y="5" width="2" height="2"/><path d="M33.741,33.031A2,2,0,0,0,33,32.285V25.91a6,6,0,1,0-2,0v6.375a2,2,0,0,0-.741.746L23.991,44a2.006,2.006,0,0,0,1.74,3H31v5H25a1,1,0,0,0-1,1v6a1,1,0,0,0,1,1H39a1,1,0,0,0,1-1V53a1,1,0,0,0-1-1H33V47h5.269a2.006,2.006,0,0,0,1.74-3ZM38,58H26V54H38ZM28,20a4,4,0,1,1,4,4A4,4,0,0,1,28,20Zm4,14.023L35.99,41H28.012ZM38.269,45l-12.542-.007L26.867,43H37.132l1.142,2Z"/><path d="M51,25H43a1,1,0,0,0-1,1v3H36v2h6v3a1,1,0,0,0,1,1h8a1,1,0,0,0,1-1V26A1,1,0,0,0,51,25Zm-2.414,2L44,31.586V27Zm-3.172,6L50,28.414V33Z"/><path d="M28,31V29H22V26a1,1,0,0,0-1-1H13a1,1,0,0,0-1,1v8a1,1,0,0,0,1,1h8a1,1,0,0,0,1-1V31Zm-9.414-4L14,31.586V27Zm-3.172,6L20,28.414V33Z"/></g></svg>