<svg xmlns="http://www.w3.org/2000/svg" width="96" height="96" viewBox="0 0 96 96"><defs><style>.cls-1{fill:#c3d4ef;}.cls-2{fill:#e5eefd;}.cls-3{fill:#96c0ff;}.cls-4{fill:#a9ebc8;}.cls-5{fill:#283d54;}</style></defs><title>12.Network</title><g id="_12.Network" data-name="12.Network"><polygon class="cls-1" points="60 45 63 49 33 49 36 45 60 45"/><polygon class="cls-1" points="60 29 63 33 33 33 36 29 60 29"/><polygon class="cls-1" points="60 13 63 17 33 17 36 13 60 13"/><path class="cls-2" d="M67,36v6a3,3,0,0,1-3,3H32a3,3,0,0,1-3-3V36a3,3,0,0,1,3-3H64A3,3,0,0,1,67,36Z"/><path class="cls-2" d="M67,20v6a3,3,0,0,1-3,3H32a3,3,0,0,1-3-3V20a3,3,0,0,1,3-3H64A3,3,0,0,1,67,20Z"/><path class="cls-2" d="M67,4v6a3,3,0,0,1-3,3H32a3,3,0,0,1-3-3V4a3,3,0,0,1,3-3H64A3,3,0,0,1,67,4Z"/><path class="cls-3" d="M22,86h3a1,1,0,0,1,1,1v7a1,1,0,0,1-1,1H14a1,1,0,0,1-1-1V87a1,1,0,0,1,1-1l2-1V84a1,1,0,0,1,1-1h4a1,1,0,0,1,1,1Z"/><path class="cls-4" d="M51,86h3a1,1,0,0,1,1,1v7a1,1,0,0,1-1,1H43a1,1,0,0,1-1-1V87a1,1,0,0,1,1-1l2-1V84a1,1,0,0,1,1-1h4a1,1,0,0,1,1,1Z"/><g id="_Group_" data-name="&lt;Group&gt;"><path class="cls-3" d="M79,86h3a1,1,0,0,1,1,1v7a1,1,0,0,1-1,1H71a1,1,0,0,1-1-1V87a1,1,0,0,1,1-1l2-1V84a1,1,0,0,1,1-1h4a1,1,0,0,1,1,1Z"/><path class="cls-5" d="M67,50a1,1,0,0,0,0-2H63.5L62,46h2a4,4,0,0,0,4-4V36a4,4,0,0,0-4-4h-.5L62,30h2a4,4,0,0,0,4-4V20a4,4,0,0,0-4-4h-.5L62,14h2a4,4,0,0,0,4-4V4a4,4,0,0,0-4-4H38a1,1,0,0,0,0,2H64a2,2,0,0,1,2,2v6a2,2,0,0,1-2,2H32a2,2,0,0,1-2-2V4a2,2,0,0,1,2-2,1,1,0,0,0,0-2,4,4,0,0,0-4,4v6a4,4,0,0,0,4,4h2l-1.5,2H32a4,4,0,0,0-4,4v6a4,4,0,0,0,4,4h2l-1.5,2H32a4,4,0,0,0-4,4v6a4,4,0,0,0,4,4h2l-1.5,2H29a1,1,0,0,0,0,2ZM36.5,14h23L61,16H35ZM30,26V20a2,2,0,0,1,2-2H64a2,2,0,0,1,2,2v6a2,2,0,0,1-2,2H32A2,2,0,0,1,30,26Zm6.5,4h23L61,32H35ZM30,42V36a2,2,0,0,1,2-2H64a2,2,0,0,1,2,2v6a2,2,0,0,1-2,2H32A2,2,0,0,1,30,42Zm6.5,4h23L61,48H35Z"/><path class="cls-5" d="M33,8a1,1,0,0,0,2,0V6a1,1,0,0,0-2,0Z"/><path class="cls-5" d="M40,8V6a1,1,0,0,0-2,0V8a1,1,0,0,0,2,0Z"/><path class="cls-5" d="M45,8V6a1,1,0,0,0-2,0V8a1,1,0,0,0,2,0Z"/><path class="cls-5" d="M62,8a1,1,0,0,0,0-2H50a1,1,0,0,0,0,2Z"/><path class="cls-5" d="M34,21a1,1,0,0,0-1,1v2a1,1,0,0,0,2,0V22A1,1,0,0,0,34,21Z"/><path class="cls-5" d="M39,21a1,1,0,0,0-1,1v2a1,1,0,0,0,2,0V22A1,1,0,0,0,39,21Z"/><path class="cls-5" d="M44,21a1,1,0,0,0-1,1v2a1,1,0,0,0,2,0V22A1,1,0,0,0,44,21Z"/><path class="cls-5" d="M62,22H50a1,1,0,0,0,0,2H62a1,1,0,0,0,0-2Z"/><path class="cls-5" d="M34,37a1,1,0,0,0-1,1v2a1,1,0,0,0,2,0V38A1,1,0,0,0,34,37Z"/><path class="cls-5" d="M39,37a1,1,0,0,0-1,1v2a1,1,0,0,0,2,0V38A1,1,0,0,0,39,37Z"/><path class="cls-5" d="M44,37a1,1,0,0,0-1,1v2a1,1,0,0,0,2,0V38A1,1,0,0,0,44,37Z"/><path class="cls-5" d="M62,38H50a1,1,0,0,0,0,2H62a1,1,0,0,0,0-2Z"/><path class="cls-5" d="M19,79a1,1,0,0,0,1-1V67c0-4.821,4.487-5,5-5a1,1,0,0,0,0-2c-2.421,0-7,1.463-7,7V78A1,1,0,0,0,19,79Z"/><path class="cls-5" d="M48,60.705A3.767,3.767,0,0,0,51,62H71c.2,0,5,.057,5,5V78a1,1,0,0,0,2,0V67c0-5.537-4.579-7-7-7H51a1.885,1.885,0,0,1-2-2.006V53a1,1,0,0,0-2,0v5a1.882,1.882,0,0,1-2,2H30a1,1,0,0,0,0,2H45A3.767,3.767,0,0,0,48,60.705Z"/><path class="cls-5" d="M47,65V78a1,1,0,0,0,2,0V65a1,1,0,0,0-2,0Z"/><path class="cls-5" d="M25,85H23V84a2,2,0,0,0-2-2H17a2,2,0,0,0-2,2v.382l-1.273.637A2,2,0,0,0,12,87v7a2,2,0,0,0,2,2H25a2,2,0,0,0,2-2V87A2,2,0,0,0,25,85Zm0,9H14l0-7a1.229,1.229,0,0,0,.444-.105l2-1A1,1,0,0,0,17,85V84h4v1H20a1,1,0,0,0,0,2h5Z"/><path class="cls-5" d="M54,85H52V84a2,2,0,0,0-2-2H46a2,2,0,0,0-2,2v.382l-1.273.637A2,2,0,0,0,41,87v7a2,2,0,0,0,2,2H54a2,2,0,0,0,2-2V87A2,2,0,0,0,54,85Zm0,9H43l0-7a1.229,1.229,0,0,0,.444-.105l2-1A1,1,0,0,0,46,85V84h4v1H49a1,1,0,0,0,0,2h5Z"/><path class="cls-5" d="M82,85H80V84a2,2,0,0,0-2-2H74a2,2,0,0,0-2,2v.382l-1.273.637A2,2,0,0,0,69,87v7a2,2,0,0,0,2,2H82a2,2,0,0,0,2-2V87A2,2,0,0,0,82,85Zm0,9H71l0-7a1.229,1.229,0,0,0,.444-.105l2-1A1,1,0,0,0,74,85V84h4v1H77a1,1,0,0,0,0,2h5Z"/></g></g></svg>