<svg xmlns="http://www.w3.org/2000/svg" viewBox="0 0 64 64"><defs><style>.cls-1{fill:#dfe1ea;}.cls-2{fill:#bec3d2;}.cls-3{fill:#f2f6fc;}.cls-4{fill:#ffa426;}.cls-5{fill:#ffc247;}.cls-6{fill:#7e8596;}.cls-7{fill:#fff;}.cls-8{fill:#ff636e;}</style></defs><title>12-Coding</title><g id="_12-Coding" data-name="12-Coding"><path class="cls-1" d="M50,3,48,61a2.006,2.006,0,0,1-2,2H4a2.006,2.006,0,0,1-2-2V3A2.006,2.006,0,0,1,4,1H48A2.006,2.006,0,0,1,50,3Z"/><path class="cls-2" d="M31.6,34c-7.6,0-7.6-2-15.2-2C9.08,32,8.785,33.847,2,33.987V61a2.006,2.006,0,0,0,2,2H48a2.006,2.006,0,0,0,2-2V32c-.383-.012-2.773,0-3.2,0C39.2,32,39.2,34,31.6,34Z"/><circle class="cls-3" cx="26" cy="24" r="18"/><circle class="cls-4" cx="26" cy="24" r="15"/><path class="cls-5" d="M38.994,16.528A26.584,26.584,0,0,1,33.6,17c-7.6,0-7.6-2-15.2-2a28.129,28.129,0,0,0-4.622.332A14.914,14.914,0,0,0,11,23.946,25.426,25.426,0,0,1,18.394,23c7.6,0,7.6,2,15.2,2a25.438,25.438,0,0,0,7.4-.948c0-.018,0-.035,0-.052A14.911,14.911,0,0,0,38.994,16.528Z"/><rect class="cls-6" x="42" y="60" width="8" height="3" rx="0.661" ry="0.661"/><rect class="cls-7" x="42" y="46" width="20" height="14"/><rect class="cls-8" x="42" y="38" width="20" height="8"/><rect class="cls-1" x="45" y="49" width="14" height="8"/><rect class="cls-7" x="30" y="23" width="2" height="2"/><rect class="cls-7" x="20" y="23" width="2" height="2"/><rect class="cls-7" x="45" y="41" width="2" height="2"/><rect class="cls-7" x="49" y="41" width="2" height="2"/><path d="M26,5A19,19,0,1,0,45,24,19.021,19.021,0,0,0,26,5Zm0,36A17,17,0,1,1,43,24,17.019,17.019,0,0,1,26,41Z"/><path d="M15.228,17.366a1,1,0,0,0-.209.829c.163.826.3,2.772-.309,3.514A.81.81,0,0,1,14,22a1,1,0,0,0-1,1v2a1,1,0,0,0,1,1,.81.81,0,0,1,.71.291c.611.742.472,2.688.309,3.514A1,1,0,0,0,16,31h2V29h-.865a5.871,5.871,0,0,0-.877-3.977A2.715,2.715,0,0,0,15,24.155v-.31a2.715,2.715,0,0,0,1.258-.868A5.871,5.871,0,0,0,17.135,19H18V17H16A1,1,0,0,0,15.228,17.366Z"/><path d="M38,22a.81.81,0,0,1-.71-.291c-.611-.742-.472-2.688-.309-3.514A1,1,0,0,0,36,17H34v2h.865a5.871,5.871,0,0,0,.877,3.977A2.715,2.715,0,0,0,37,23.845v.31a2.715,2.715,0,0,0-1.258.868A5.871,5.871,0,0,0,34.865,29H34v2h2a1,1,0,0,0,.981-1.2c-.163-.826-.3-2.772.309-3.514A.81.81,0,0,1,38,26a1,1,0,0,0,1-1V23A1,1,0,0,0,38,22Z"/><rect x="25" y="23" width="2" height="2"/><rect x="7" y="56" width="32" height="2"/><rect x="7" y="51" width="32" height="2"/><rect x="7" y="46" width="32" height="2"/><rect x="7" y="41" width="4" height="2"/><path d="M62,37H51V3a3,3,0,0,0-3-3H4A3,3,0,0,0,1,3V61a3,3,0,0,0,3,3H48a3,3,0,0,0,3-3H62a1,1,0,0,0,1-1V38A1,1,0,0,0,62,37Zm-1,8H43V39H61ZM48,62H4a1,1,0,0,1-1-1V3A1,1,0,0,1,4,2H48a1,1,0,0,1,1,1V37H42a1,1,0,0,0-1,1V60a1,1,0,0,0,1,1h7A1,1,0,0,1,48,62Zm-5-3V47H61V59Z"/><path d="M49.293,49.293l-3,3a1,1,0,0,0,0,1.414l3,3,1.414-1.414L48.414,53l2.293-2.293Z"/><path d="M54.707,49.293l-1.414,1.414L55.586,53l-2.293,2.293,1.414,1.414,3-3a1,1,0,0,0,0-1.414Z"/></g></svg>