<svg xmlns="http://www.w3.org/2000/svg" viewBox="0 0 64 64"><defs><style>.cls-1{fill:#dfe1ea;}.cls-2{fill:#adb2c7;}.cls-3{fill:#cdd2e1;}.cls-4{fill:#f6fafd;}.cls-5{fill:#fff;}.cls-6{fill:#7e8596;}.cls-7{fill:#afb4c8;}.cls-8{fill:#ff636e;}.cls-9{fill:#ff475a;}.cls-10{fill:#f03049;}.cls-11{fill:#636978;}</style></defs><title>98-Bug</title><g id="_98-Bug" data-name="98-Bug"><path class="cls-1" d="M63,11V61a2.006,2.006,0,0,1-2,2H3a2.006,2.006,0,0,1-2-2V11Z"/><path class="cls-2" d="M61,1a2.006,2.006,0,0,1,2,2v8H1V3A2.006,2.006,0,0,1,3,1Z"/><path class="cls-3" d="M39.6,21c-7.6,0-7.6-2-15.2-2s-7.6,2-15.2,2A26.743,26.743,0,0,1,1,19.844v8A26.743,26.743,0,0,0,9.2,29c7.6,0,7.6-2,15.2-2s7.6,2,15.2,2,7.6-2,15.2-2A26.787,26.787,0,0,1,63,28.157v-8A26.787,26.787,0,0,0,54.8,19C47.2,19,47.2,21,39.6,21Z"/><path class="cls-4" d="M1,11v8.844A26.743,26.743,0,0,0,9.2,21c7.6,0,7.6-2,15.2-2s7.6,2,15.2,2,7.6-2,15.2-2A26.787,26.787,0,0,1,63,20.157V11Z"/><circle class="cls-2" cx="36" cy="27" r="3"/><path class="cls-2" d="M40.99,31.03A11.59,11.59,0,0,0,36,30a11.59,11.59,0,0,0-4.99,1.03C26.84,33,25,37.62,25,43c0,0,3.89,7.13,8.02,9.9A5.458,5.458,0,0,0,36,54a5.458,5.458,0,0,0,2.98-1.1C43.11,50.13,47,43,47,43,47,37.62,45.16,33,40.99,31.03Z"/><rect class="cls-5" x="5" y="5" width="2" height="2"/><rect class="cls-5" x="14" y="5" width="45" height="2"/><circle class="cls-6" cx="32" cy="25" r="3"/><path class="cls-7" d="M36.99,29.03C36.9,29.37,35.81,33,32,33s-4.9-3.63-4.99-3.97A11.59,11.59,0,0,1,32,28,11.59,11.59,0,0,1,36.99,29.03Z"/><path class="cls-8" d="M32,33,29.04,52.73C24.9,49.46,21,41,21,41c0-5.38,1.84-10,6.01-11.97C27.1,29.37,28.19,33,32,33Z"/><path class="cls-8" d="M36.99,29.03C41.16,31,43,35.62,43,41c0,0-3.9,8.46-8.04,11.73L32,33C35.81,33,36.9,29.37,36.99,29.03Z"/><path class="cls-6" d="M32,33l2.96,19.73A4.984,4.984,0,0,1,32,54a4.984,4.984,0,0,1-2.96-1.27Z"/><path class="cls-9" d="M22.782,33.079a15.752,15.752,0,0,0-1.761,6.931c4.969.079,6.531,1.055,9.686,1.611l1.027-6.845C28.283,34.333,26.849,33.359,22.782,33.079Z"/><path class="cls-9" d="M41.822,34.347A25.478,25.478,0,0,1,35.6,35a31.261,31.261,0,0,1-3.319-.161l1.063,7.089c.677.044,1.413.072,2.256.072a25.414,25.414,0,0,0,7.378-.942L43,41A17.623,17.623,0,0,0,41.822,34.347Z"/><path class="cls-10" d="M32,33c-3.81,0-4.9-3.63-4.99-3.97a9.369,9.369,0,0,0-4.228,4.049c4.067.28,5.5,1.254,8.952,1.7Z"/><path class="cls-10" d="M35.6,35a25.478,25.478,0,0,0,6.227-.653A9.711,9.711,0,0,0,36.99,29.03C36.9,29.37,35.81,33,32,33l.276,1.839A31.261,31.261,0,0,0,35.6,35Z"/><path class="cls-11" d="M30,46.329c1.609.262,2.792.635,4.144.964L32,33Z"/><path class="cls-7" d="M32,22a2.986,2.986,0,0,0-2.839,2.07c.671-.042,1.4-.07,2.233-.07a30.939,30.939,0,0,1,3.477.176A2.985,2.985,0,0,0,32,22Z"/><path d="M61,0H3A3,3,0,0,0,0,3V61a3,3,0,0,0,3,3H61a3,3,0,0,0,3-3V3A3,3,0,0,0,61,0ZM3,2H61a1,1,0,0,1,1,1v7H2V3A1,1,0,0,1,3,2ZM61,62H3a1,1,0,0,1-1-1V12H62V61A1,1,0,0,1,61,62Z"/><rect x="9" y="5" width="2" height="2"/><path d="M47.316,37.052a4.78,4.78,0,0,0-3.657.061A13.831,13.831,0,0,0,41.3,31.342,4.017,4.017,0,0,1,44.97,29V27A5.919,5.919,0,0,0,39.9,29.789a10.1,10.1,0,0,0-2.48-1.663,11.341,11.341,0,0,0-2.214-.754,3.925,3.925,0,0,0,.443-4A7.316,7.316,0,0,0,38.9,20.447l-1.79-.894a5.9,5.9,0,0,1-2.754,2.227,3.933,3.933,0,0,0-4.7,0A5.866,5.866,0,0,1,26.9,19.553l-1.79.894a7.316,7.316,0,0,0,3.249,2.925,3.925,3.925,0,0,0,.443,4,11.318,11.318,0,0,0-2.214.754,10.1,10.1,0,0,0-2.5,1.68A5.922,5.922,0,0,0,19,27v2a4.024,4.024,0,0,1,3.678,2.365,13.859,13.859,0,0,0-2.337,5.748,4.789,4.789,0,0,0-3.657-.061.876.876,0,0,0-.131.053l-2,1,.894,1.79,1.934-.967c1.757-.562,2.481.177,2.68.453C20.025,39.909,20,40.445,20,41a1,1,0,0,0,.092.419c.083.18,1.123,2.415,2.683,5.016A4.077,4.077,0,0,1,19,49v2a5.9,5.9,0,0,0,4.982-2.654,23.052,23.052,0,0,0,4.439,5.171A5.844,5.844,0,0,0,32,55a5.841,5.841,0,0,0,3.578-1.483l0,0A22.974,22.974,0,0,0,40,48.368,5.894,5.894,0,0,0,44.97,51V49a4.069,4.069,0,0,1-3.762-2.537c1.569-2.613,2.617-4.864,2.7-5.044A1,1,0,0,0,44,41c0-.556-.025-1.093-.061-1.621.168-.241.875-1.03,2.68-.451l1.934.967.894-1.79-2-1A.876.876,0,0,0,47.316,37.052ZM32,32a4.047,4.047,0,0,1-3.7-2.408,11.858,11.858,0,0,1,7.4,0A4.043,4.043,0,0,1,32,32Zm-2-7a2,2,0,1,1,2,2A2,2,0,0,1,30,25ZM22,40.778c.026-2.514.52-6.4,2.951-9.016l.018,0,0-.011a8.043,8.043,0,0,1,1.527-1.283,6.112,6.112,0,0,0,4.361,3.43L28.332,50.709C25.27,47.451,22.533,41.892,22,40.778Zm8.119,11.5L32,39.74l1.88,12.533A3.533,3.533,0,0,1,32,53,3.53,3.53,0,0,1,30.12,52.273Zm5.548-1.563L33.145,33.894a6.1,6.1,0,0,0,4.361-3.429,8.046,8.046,0,0,1,1.5,1.257l-.01.036.056.014c2.424,2.617,2.917,6.5,2.943,9.006C41.467,41.892,38.733,47.45,35.668,50.71Z"/><path d="M22.965,19.189l1.964-.378a8.085,8.085,0,0,1,.052-2.616A1,1,0,0,0,24,15H22v2h.869A8.605,8.605,0,0,0,22.965,19.189Z"/><path d="M7.228,15.365a1,1,0,0,0-.209.829c.163.827.3,2.773-.309,3.516A.81.81,0,0,1,6,20a1,1,0,0,0-1,1v2a1,1,0,0,0,1,1,.81.81,0,0,1,.71.29c.611.743.472,2.689.309,3.516A1,1,0,0,0,8,29h2V27H9.135a5.872,5.872,0,0,0-.877-3.977A2.717,2.717,0,0,0,7,22.154v-.308a2.717,2.717,0,0,0,1.258-.869A5.872,5.872,0,0,0,9.135,17H10V15H8A1,1,0,0,0,7.228,15.365Z"/><rect x="11" y="21" width="2" height="2"/><rect x="19" y="21" width="2" height="2"/><rect class="cls-5" x="15" y="21" width="2" height="2"/><path class="cls-5" d="M47.293,59.707l-3-3a1,1,0,0,1,0-1.414l3-3,1.414,1.414L46.414,56l2.293,2.293Z"/><path class="cls-5" d="M55.707,59.707l-1.414-1.414L56.586,56l-2.293-2.293,1.414-1.414,3,3a1,1,0,0,1,0,1.414Z"/></g></svg>