<svg xmlns="http://www.w3.org/2000/svg" viewBox="0 0 64 64"><defs><style>.cls-1{fill:#96a1c3;}.cls-2{fill:#ccd3eb;}.cls-3{fill:#d7e9f7;}.cls-4{fill:#4795ea;}.cls-5{fill:#fe9661;}.cls-6{fill:#0074ff;}.cls-7{fill:#033c59;}.cls-8{fill:#647499;}</style></defs><title>Router</title><g id="Router"><path class="cls-1" d="M56,36H8a4,4,0,0,0-4,4V52a4,4,0,0,0,4,4H56a4,4,0,0,0,4-4V40A4,4,0,0,0,56,36ZM14,50a4,4,0,1,1,4-4A4,4,0,0,1,14,50Z"/><path class="cls-1" d="M60,40V52a4.43,4.43,0,0,1-.1.9A4,4,0,0,1,56,56H8a4,4,0,0,1-3.87-3A3.66,3.66,0,0,1,4,52V40a4,4,0,0,1,3.1-3.9A4.43,4.43,0,0,1,8,36H56A4,4,0,0,1,60,40Z"/><path class="cls-2" d="M56,37V49a4.43,4.43,0,0,1-.1.9A4,4,0,0,1,52,53H4.13A3.66,3.66,0,0,1,4,52V40a4,4,0,0,1,3.1-3.9A4.43,4.43,0,0,1,8,36H55.87A3.66,3.66,0,0,1,56,37Z"/><path class="cls-3" d="M15,19a1,1,0,0,1-1-1V4a1,1,0,0,1,2,0V18A1,1,0,0,1,15,19Z"/><path class="cls-3" d="M50,19a1,1,0,0,1-1-1V4a1,1,0,0,1,2,0V18A1,1,0,0,1,50,19Z"/><path class="cls-1" d="M53,56v2.21A1.79,1.79,0,0,1,51.21,60H46.79A1.81,1.81,0,0,1,45,58.21V56Z"/><path class="cls-1" d="M19,56v2.21A1.79,1.79,0,0,1,17.21,60H12.79A1.81,1.81,0,0,1,11,58.21V56Z"/><path class="cls-2" d="M51,56v1.21A1.79,1.79,0,0,1,49.21,59h-4a1.77,1.77,0,0,1-.19-.79V56Z"/><path class="cls-2" d="M17,56v1.21A1.79,1.79,0,0,1,15.21,59h-4a1.77,1.77,0,0,1-.19-.79V56Z"/><path class="cls-3" d="M53,51a1,1,0,0,1-1-1V41a1,1,0,0,1,2,0v9A1,1,0,0,1,53,51Z"/><path class="cls-4" d="M46,51a1,1,0,0,1-1-1V41a1,1,0,0,1,2,0v9A1,1,0,0,1,46,51Z"/><path class="cls-5" d="M39,51a1,1,0,0,1-1-1V41a1,1,0,0,1,2,0v9A1,1,0,0,1,39,51Z"/><path class="cls-1" d="M18,20.5V36H12V20.5a2.48,2.48,0,0,1,.5-1.5A2.57,2.57,0,0,1,14,18a2.32,2.32,0,0,1,.46,0h1A2.5,2.5,0,0,1,18,20.5Z"/><path class="cls-1" d="M53,20.5V36H47V20.5a2.48,2.48,0,0,1,.5-1.5A2.57,2.57,0,0,1,49,18a2.32,2.32,0,0,1,.46,0h1A2.5,2.5,0,0,1,53,20.5Z"/><path class="cls-2" d="M16,21.5V36H12V20.5a2.48,2.48,0,0,1,.5-1.5h1A2.5,2.5,0,0,1,16,21.5Z"/><path class="cls-2" d="M51,21.5V36H47V20.5a2.48,2.48,0,0,1,.5-1.5h1A2.5,2.5,0,0,1,51,21.5Z"/><path class="cls-6" d="M18,46a4,4,0,0,1-1.28,2.93,4,4,0,0,1-5.44,0,4,4,0,0,1,2-6.86,3.74,3.74,0,0,1,1.44,0A4,4,0,0,1,18,46Z"/><path class="cls-7" d="M56,35H54V20.5a3.5,3.5,0,0,0-3-3.45V4a1,1,0,0,0-2,0V17.05a3.5,3.5,0,0,0-3,3.45V35H19V20.5a3.5,3.5,0,0,0-3-3.45V4a1,1,0,0,0-2,0V17.05a3.5,3.5,0,0,0-3,3.45V21a1,1,0,0,0,2,0v-.5A1.5,1.5,0,0,1,14.5,19h1A1.5,1.5,0,0,1,17,20.5V35H13V30a1,1,0,0,0-2,0v5H8a5,5,0,0,0-5,5V52a5,5,0,0,0,5,5h2v1.21A2.79,2.79,0,0,0,12.79,61h4.42A2.79,2.79,0,0,0,20,58.21V57H44v1.21A2.79,2.79,0,0,0,46.79,61h4.42A2.79,2.79,0,0,0,54,58.21V57h2a5,5,0,0,0,5-5V40A5,5,0,0,0,56,35ZM48,20.5A1.5,1.5,0,0,1,49.5,19h1A1.5,1.5,0,0,1,52,20.5V35H48ZM18,58.21a.79.79,0,0,1-.79.79H12.79a.79.79,0,0,1-.79-.79V57h6Zm34,0a.79.79,0,0,1-.79.79H46.79a.79.79,0,0,1-.79-.79V57h6ZM59,52a3,3,0,0,1-3,3H8a3,3,0,0,1-3-3V40a3,3,0,0,1,3-3H56a3,3,0,0,1,3,3Z"/><path class="cls-7" d="M14,41a5,5,0,1,0,5,5A5,5,0,0,0,14,41Zm0,8a3,3,0,1,1,3-3A3,3,0,0,1,14,49Z"/><path class="cls-8" d="M53,40a1,1,0,0,0-1,1v9a1,1,0,0,0,2,0V41A1,1,0,0,0,53,40Z"/><path class="cls-8" d="M46,40a1,1,0,0,0-1,1v9a1,1,0,0,0,2,0V41A1,1,0,0,0,46,40Z"/><path class="cls-8" d="M39,40a1,1,0,0,0-1,1v9a1,1,0,0,0,2,0V41A1,1,0,0,0,39,40Z"/><path class="cls-7" d="M12,27a1,1,0,0,0,1-1V25a1,1,0,0,0-2,0v1A1,1,0,0,0,12,27Z"/></g></svg>