<svg xmlns="http://www.w3.org/2000/svg" width="96" height="96" viewBox="0 0 96 96"><defs><style>.cls-1{fill:#e5eefd;}.cls-2{fill:#c3d4ef;}.cls-3{fill:#fff;}.cls-4{fill:#d3bcfb;}.cls-5{fill:#283d54;}</style></defs><title>21.Network</title><g id="_21.Network" data-name="21.Network"><path class="cls-1" d="M86,40V60a3,3,0,0,1-3,3H13a3,3,0,0,1-3-3V40a3,3,0,0,1,3-3H83A3,3,0,0,1,86,40Z"/><path class="cls-1" d="M86,9V29a3,3,0,0,1-3,3H13a3,3,0,0,1-3-3V9a3,3,0,0,1,3-3H83A3,3,0,0,1,86,9Z"/><polygon class="cls-1" points="80 6 16 6 21 1 75 1 80 6"/><polygon class="cls-1" points="80 37 16 37 21 32 75 32 80 37"/><polygon class="cls-2" points="75 1 21 1 19 3 77 3 75 1"/><polygon class="cls-2" points="75 32 21 32 19 34 77 34 75 32"/><circle class="cls-3" cx="40" cy="50" r="6"/><circle class="cls-3" cx="22" cy="50" r="6"/><circle class="cls-3" cx="22" cy="19" r="6"/><circle class="cls-3" cx="40" cy="19" r="6"/><g id="_Group_" data-name="&lt;Group&gt;"><circle class="cls-4" cx="77" cy="92" r="3"/><circle class="cls-4" cx="48" cy="92" r="3"/><circle class="cls-4" cx="19" cy="92" r="3"/><path class="cls-5" d="M83,33a4,4,0,0,0,4-4V9a4,4,0,0,0-4-4H80.414L75.707.293A1,1,0,0,0,75,0H21a1,1,0,0,0-.707.293L15.586,5H13A4,4,0,0,0,9,9V29a4,4,0,0,0,4,4h5.586l-3,3H13a4,4,0,0,0-4,4V54a1,1,0,0,0,2,0V40a2,2,0,0,1,2-2H83a2,2,0,0,1,2,2V60a2,2,0,0,1-2,2H13a2,2,0,0,1-2-2,1,1,0,0,0-2,0,4,4,0,0,0,4,4H47v4a1.882,1.882,0,0,1-2,2H30a1,1,0,0,0,0,2H45a3.767,3.767,0,0,0,3-1.3A3.767,3.767,0,0,0,51,72H71c.2,0,5,.057,5,5V88.142a4,4,0,1,0,2,0V77c0-5.537-4.579-7-7-7H51a1.885,1.885,0,0,1-2-2.006V64H83a4,4,0,0,0,4-4V40a4,4,0,0,0-4-4H80.414l-3-3ZM79,92a2,2,0,1,1-2-2A2,2,0,0,1,79,92ZM11,29V9a2,2,0,0,1,2-2H73a1,1,0,0,0,0-2H18.414l3-3H74.586l4.706,4.706A1.012,1.012,0,0,0,80,7h3a2,2,0,0,1,2,2V29a2,2,0,0,1-2,2H13A2,2,0,0,1,11,29Zm66.586,7H18.414l3-3H74.586Z"/><path class="cls-5" d="M29,19a7,7,0,1,0-7,7A7.008,7.008,0,0,0,29,19ZM17,19a5,5,0,1,1,5,5A5.006,5.006,0,0,1,17,19Z"/><path class="cls-5" d="M29,50a7,7,0,1,0-7,7A7.008,7.008,0,0,0,29,50ZM17,50a5,5,0,1,1,5,5A5.006,5.006,0,0,1,17,50Z"/><path class="cls-5" d="M40,26a7,7,0,1,0-7-7A7.008,7.008,0,0,0,40,26Zm0-12a5,5,0,1,1-5,5A5.006,5.006,0,0,1,40,14Z"/><path class="cls-5" d="M47,50a7,7,0,1,0-7,7A7.008,7.008,0,0,0,47,50ZM35,50a5,5,0,1,1,5,5A5.006,5.006,0,0,1,35,50Z"/><path class="cls-5" d="M24,19a1,1,0,0,0-1-1H21a1,1,0,0,0,0,2h2A1,1,0,0,0,24,19Z"/><path class="cls-5" d="M24,50a1,1,0,0,0-1-1H21a1,1,0,0,0,0,2h2A1,1,0,0,0,24,50Z"/><path class="cls-5" d="M39,20h2a1,1,0,0,0,0-2H39a1,1,0,0,0,0,2Z"/><path class="cls-5" d="M42,50a1,1,0,0,0-1-1H39a1,1,0,0,0,0,2h2A1,1,0,0,0,42,50Z"/><path class="cls-5" d="M53,23a1,1,0,0,0,1-1V16a1,1,0,0,0-2,0v6A1,1,0,0,0,53,23Z"/><path class="cls-5" d="M59,23a1,1,0,0,0,1-1V16a1,1,0,0,0-2,0v6A1,1,0,0,0,59,23Z"/><path class="cls-5" d="M65,23a1,1,0,0,0,1-1V16a1,1,0,0,0-2,0v6A1,1,0,0,0,65,23Z"/><path class="cls-5" d="M71,23a1,1,0,0,0,1-1V16a1,1,0,0,0-2,0v6A1,1,0,0,0,71,23Z"/><path class="cls-5" d="M77,23a1,1,0,0,0,1-1V16a1,1,0,0,0-2,0v6A1,1,0,0,0,77,23Z"/><path class="cls-5" d="M54,53V47a1,1,0,0,0-2,0v6a1,1,0,0,0,2,0Z"/><path class="cls-5" d="M60,53V47a1,1,0,0,0-2,0v6a1,1,0,0,0,2,0Z"/><path class="cls-5" d="M66,53V47a1,1,0,0,0-2,0v6a1,1,0,0,0,2,0Z"/><path class="cls-5" d="M72,53V47a1,1,0,0,0-2,0v6a1,1,0,0,0,2,0Z"/><path class="cls-5" d="M78,53V47a1,1,0,0,0-2,0v6a1,1,0,0,0,2,0Z"/><path class="cls-5" d="M25,70c-2.421,0-7,1.463-7,7V88.142a4,4,0,1,0,2,0V77c0-4.821,4.487-5,5-5a1,1,0,0,0,0-2ZM21,92a2,2,0,1,1-2-2A2,2,0,0,1,21,92Z"/><path class="cls-5" d="M49,88.142V75a1,1,0,0,0-2,0V88.142a4,4,0,1,0,2,0ZM48,94a2,2,0,1,1,2-2A2,2,0,0,1,48,94Z"/></g></g></svg>