<svg xmlns="http://www.w3.org/2000/svg" viewBox="0 0 64 64"><defs><style>.cls-1{fill:#979faf;}.cls-2{fill:#adb2c7;}.cls-3{fill:#8dd5f6;}.cls-4{fill:#dfe1ea;}.cls-5{fill:#aedff7;}.cls-6{fill:#f6fafd;}.cls-7{fill:#7e8596;}.cls-8{fill:#0096cf;}.cls-9{fill:#afb4c8;}.cls-10{fill:#fff;}</style></defs><title>10-Development</title><g id="_10-Development" data-name="10-Development"><rect class="cls-1" x="19" y="59" width="26" height="3"/><polygon class="cls-2" points="40 50 45 59 19 59 24 50 40 50"/><path class="cls-3" d="M63,4V42H1V4A2.006,2.006,0,0,1,3,2H61A2.006,2.006,0,0,1,63,4Z"/><path class="cls-4" d="M63,42v6a2.006,2.006,0,0,1-2,2H3a2.006,2.006,0,0,1-2-2V42Z"/><path class="cls-5" d="M61,2H3A2.006,2.006,0,0,0,1,4V18.844A26.743,26.743,0,0,0,9.2,20c7.6,0,7.6-2,15.2-2s7.6,2,15.2,2,7.6-2,15.2-2A26.787,26.787,0,0,1,63,19.157V4A2.006,2.006,0,0,0,61,2Z"/><path class="cls-6" d="M61,2H3A2.006,2.006,0,0,0,1,4v7.844A26.743,26.743,0,0,0,9.2,13c7.6,0,7.6-2,15.2-2s7.6,2,15.2,2,7.6-2,15.2-2A26.787,26.787,0,0,1,63,12.157V4A2.006,2.006,0,0,0,61,2Z"/><path class="cls-7" d="M24,50l-1.832,3.3A25.289,25.289,0,0,0,28.6,54c6.6,0,7.475-1.507,12.57-1.9L40,50Z"/><path class="cls-8" d="M40,21l1,2-1,2-4.32.58a10.8,10.8,0,0,1-1.3,3.15l2.64,3.46-.71,2.12-2.12.71-3.46-2.64a10.8,10.8,0,0,1-3.15,1.3L27,38l-2,1-2-1-.58-4.32a10.8,10.8,0,0,1-3.15-1.3l-3.46,2.64-2.12-.71-.71-2.12,2.64-3.46a10.8,10.8,0,0,1-1.3-3.15L10,25,9,23l1-2,4.32-.58a10.8,10.8,0,0,1,1.3-3.15l-2.64-3.46.71-2.12,2.12-.71,3.46,2.64a10.8,10.8,0,0,1,3.15-1.3L23,8l2-1,2,1,.58,4.32a10.8,10.8,0,0,1,3.15,1.3l3.46-2.64,2.12.71.71,2.12-2.64,3.46a10.8,10.8,0,0,1,1.3,3.15Zm-9,2a6,6,0,1,0-6,6A6,6,0,0,0,31,23Z"/><g id="_Group_" data-name="&lt;Group&gt;"><path class="cls-9" d="M37,20l1,2-1,2-4.32.58a10.8,10.8,0,0,1-1.3,3.15l2.64,3.46-.71,2.12-2.12.71-3.46-2.64a10.8,10.8,0,0,1-3.15,1.3L24,37l-2,1-2-1-.58-4.32a10.8,10.8,0,0,1-3.15-1.3l-3.46,2.64-2.12-.71-.71-2.12,2.64-3.46a10.8,10.8,0,0,1-1.3-3.15L7,24,6,22l1-2,4.32-.58a10.8,10.8,0,0,1,1.3-3.15L9.98,12.81l.71-2.12,2.12-.71,3.46,2.64a10.8,10.8,0,0,1,3.15-1.3L20,7l2-1,2,1,.58,4.32a10.8,10.8,0,0,1,3.15,1.3l3.46-2.64,2.12.71.71,2.12-2.64,3.46a10.8,10.8,0,0,1,1.3,3.15Zm-9,2a6,6,0,1,0-6,6A6,6,0,0,0,28,22Z"/><path d="M61,1H3A3,3,0,0,0,0,4V48a3,3,0,0,0,3,3H22.3l-4.175,7.514A1,1,0,0,0,18,59v2H16v2H48V61H46V59a1,1,0,0,0-.126-.486L41.7,51H61a3,3,0,0,0,3-3V4A3,3,0,0,0,61,1ZM3,3H61a1,1,0,0,1,1,1V41H2V4A1,1,0,0,1,3,3ZM20,61V60H44v1Zm23.3-3H20.7l3.888-7H39.412ZM61,49H3a1,1,0,0,1-1-1V43H62v5A1,1,0,0,1,61,49Z"/><path d="M6.105,24.447a1,1,0,0,0,.762.544l3.661.492a11.751,11.751,0,0,0,.895,2.168L9.186,30.583a1,1,0,0,0-.154.924l.71,2.12a1,1,0,0,0,.631.631l2.119.71a1,1,0,0,0,.924-.153l2.933-2.237a11.8,11.8,0,0,0,2.169.894l.491,3.661a1,1,0,0,0,.544.762l2,1a1,1,0,0,0,.894,0l2-1a1,1,0,0,0,.544-.762l.491-3.661a11.8,11.8,0,0,0,2.169-.894l2.933,2.237a1,1,0,0,0,.924.153l2.119-.71a1,1,0,0,0,.631-.631l.71-2.12a1,1,0,0,0-.154-.924l-2.237-2.932a11.751,11.751,0,0,0,.9-2.168l3.661-.492a1,1,0,0,0,.762-.544l1-2a1,1,0,0,0,0-.894l-1-2a1,1,0,0,0-.762-.544l-3.661-.492a11.751,11.751,0,0,0-.9-2.168l2.237-2.932a1,1,0,0,0,.154-.924l-.71-2.12a1,1,0,0,0-.631-.631l-2.119-.71a1,1,0,0,0-.924.153l-2.933,2.237a11.8,11.8,0,0,0-2.169-.894l-.491-3.661a1,1,0,0,0-.544-.762l-2-1a1,1,0,0,0-.894,0l-2,1a1,1,0,0,0-.544.762l-.491,3.661a11.8,11.8,0,0,0-2.169.894L13.416,9.185a1,1,0,0,0-.924-.153l-2.119.71a1,1,0,0,0-.631.631l-.71,2.12a1,1,0,0,0,.154.924l2.237,2.932a11.751,11.751,0,0,0-.895,2.168l-3.661.492a1,1,0,0,0-.762.544l-1,2a1,1,0,0,0,0,.894Zm1.552-3.526,3.8-.51a1,1,0,0,0,.84-.759,9.8,9.8,0,0,1,1.179-2.859,1,1,0,0,0-.057-1.129L11.1,12.625l.383-1.145,1.144-.383,3.039,2.318a1,1,0,0,0,1.13.057,9.828,9.828,0,0,1,2.859-1.18,1,1,0,0,0,.759-.839l.51-3.795L22,7.118l1.079.54.51,3.795a1,1,0,0,0,.759.839,9.828,9.828,0,0,1,2.859,1.18,1,1,0,0,0,1.13-.057L31.376,11.1l1.144.383.383,1.145-2.318,3.039a1,1,0,0,0-.057,1.129,9.8,9.8,0,0,1,1.179,2.859,1,1,0,0,0,.84.759l3.8.51L36.882,22l-.539,1.079-3.8.51a1,1,0,0,0-.84.759,9.8,9.8,0,0,1-1.179,2.859,1,1,0,0,0,.057,1.129L32.9,31.375,32.52,32.52l-1.144.383-3.039-2.318a1,1,0,0,0-1.13-.057,9.828,9.828,0,0,1-2.859,1.18,1,1,0,0,0-.759.839l-.51,3.8L22,36.882l-1.079-.54-.51-3.8a1,1,0,0,0-.759-.839,9.828,9.828,0,0,1-2.859-1.18,1,1,0,0,0-1.13.057L12.624,32.9,11.48,32.52,11.1,31.375l2.318-3.039a1,1,0,0,0,.057-1.129,9.8,9.8,0,0,1-1.179-2.859,1,1,0,0,0-.84-.759l-3.8-.51L7.118,22Z"/><path d="M22,29a7,7,0,1,0-7-7A7.008,7.008,0,0,0,22,29Zm0-12a5,5,0,1,1-5,5A5.006,5.006,0,0,1,22,17Z"/><path d="M56.772,28.634a1,1,0,0,0,.208-.829c-.162-.826-.3-2.772.31-3.514A.812.812,0,0,1,58,24a1,1,0,0,0,1-1V21a1,1,0,0,0-1-1,.812.812,0,0,1-.71-.291c-.61-.742-.472-2.688-.31-3.514A1,1,0,0,0,56,15H54v2h.865a5.865,5.865,0,0,0,.877,3.977A2.715,2.715,0,0,0,57,21.845v.31a2.715,2.715,0,0,0-1.258.868A5.865,5.865,0,0,0,54.865,27H54v2h2A1,1,0,0,0,56.772,28.634Z"/><rect x="46" y="21" width="2" height="2"/><rect class="cls-10" x="51" y="21" width="2" height="2"/><rect class="cls-10" x="41" y="21" width="2" height="2"/></g></g></svg>