<svg xmlns="http://www.w3.org/2000/svg" width="96" height="96" viewBox="0 0 96 96"><defs><style>.cls-1{fill:#f4f7fc;}.cls-2{fill:#c3d4ef;}.cls-3{fill:#e5eefd;}.cls-4{fill:#96c0ff;}.cls-5{fill:#a9ebc8;}.cls-6{fill:#283d54;}</style></defs><title>23.Network</title><g id="_23.Network" data-name="23.Network"><circle class="cls-1" cx="48" cy="48" r="37"/><polygon class="cls-2" points="60 68 63 72 33 72 36 68 60 68"/><polygon class="cls-2" points="60 52 63 56 33 56 36 52 60 52"/><polygon class="cls-2" points="60 36 63 40 33 40 36 36 60 36"/><path class="cls-3" d="M67,59v6a3,3,0,0,1-3,3H32a3,3,0,0,1-3-3V59a3,3,0,0,1,3-3H64A3,3,0,0,1,67,59Z"/><path class="cls-3" d="M67,43v6a3,3,0,0,1-3,3H32a3,3,0,0,1-3-3V43a3,3,0,0,1,3-3H64A3,3,0,0,1,67,43Z"/><path class="cls-3" d="M67,27v6a3,3,0,0,1-3,3H32a3,3,0,0,1-3-3V27a3,3,0,0,1,3-3H64A3,3,0,0,1,67,27Z"/><circle class="cls-4" cx="12" cy="62" r="2"/><circle class="cls-5" cx="9" cy="34" r="2"/><circle class="cls-4" cx="84" cy="34" r="2"/><circle class="cls-5" cx="87" cy="62" r="2"/><circle class="cls-4" cx="62" cy="90" r="2"/><circle class="cls-5" cx="34" cy="93" r="2"/><circle class="cls-4" cx="34" cy="6" r="2"/><g id="_Group_" data-name="&lt;Group&gt;"><circle class="cls-5" cx="62" cy="3" r="2"/><path class="cls-6" d="M64,23H37a1,1,0,0,0,0,2H64a2,2,0,0,1,2,2v6a2,2,0,0,1-2,2H32a2,2,0,0,1-2-2V27a2,2,0,0,1,2-2,1,1,0,0,0,0-2,4,4,0,0,0-4,4v6a4,4,0,0,0,4,4h2l-1.5,2H32a4,4,0,0,0-4,4v6a4,4,0,0,0,4,4h2l-1.5,2H32a4,4,0,0,0-4,4v6a4,4,0,0,0,4,4h2l-1.5,2H29a1,1,0,0,0,0,2H67a1,1,0,0,0,0-2H63.5L62,69h2a4,4,0,0,0,4-4V59a4,4,0,0,0-4-4h-.5L62,53h2a4,4,0,0,0,4-4V43a4,4,0,0,0-4-4h-.5L62,37h2a4,4,0,0,0,4-4V27A4,4,0,0,0,64,23ZM61,71H35l1.5-2h23Zm5-12v6a2,2,0,0,1-2,2H32a2,2,0,0,1-2-2V59a2,2,0,0,1,2-2H64A2,2,0,0,1,66,59Zm-5-4H35l1.5-2h23Zm5-12v6a2,2,0,0,1-2,2H32a2,2,0,0,1-2-2V43a2,2,0,0,1,2-2H64A2,2,0,0,1,66,43Zm-5-4H35l1.5-2h23Z"/><path class="cls-6" d="M33,29v2a1,1,0,0,0,2,0V29a1,1,0,0,0-2,0Z"/><path class="cls-6" d="M40,31V29a1,1,0,0,0-2,0v2a1,1,0,0,0,2,0Z"/><path class="cls-6" d="M45,31V29a1,1,0,0,0-2,0v2a1,1,0,0,0,2,0Z"/><path class="cls-6" d="M62,31a1,1,0,0,0,0-2H50a1,1,0,0,0,0,2Z"/><path class="cls-6" d="M34,44a1,1,0,0,0-1,1v2a1,1,0,0,0,2,0V45A1,1,0,0,0,34,44Z"/><path class="cls-6" d="M39,44a1,1,0,0,0-1,1v2a1,1,0,0,0,2,0V45A1,1,0,0,0,39,44Z"/><path class="cls-6" d="M44,44a1,1,0,0,0-1,1v2a1,1,0,0,0,2,0V45A1,1,0,0,0,44,44Z"/><path class="cls-6" d="M62,45H50a1,1,0,0,0,0,2H62a1,1,0,0,0,0-2Z"/><path class="cls-6" d="M34,60a1,1,0,0,0-1,1v2a1,1,0,0,0,2,0V61A1,1,0,0,0,34,60Z"/><path class="cls-6" d="M39,60a1,1,0,0,0-1,1v2a1,1,0,0,0,2,0V61A1,1,0,0,0,39,60Z"/><path class="cls-6" d="M44,60a1,1,0,0,0-1,1v2a1,1,0,0,0,2,0V61A1,1,0,0,0,44,60Z"/><path class="cls-6" d="M62,61H50a1,1,0,0,0,0,2H62a1,1,0,0,0,0-2Z"/><path class="cls-6" d="M23,47H19V37a3.888,3.888,0,0,0-4-4H11.816a3,3,0,1,0,0,2H15a1.882,1.882,0,0,1,2,2V47H15a3.887,3.887,0,0,0-4,4v8.184a3,3,0,1,0,2,0V51a1.884,1.884,0,0,1,2-2h8a1,1,0,0,0,0-2ZM9,35a1,1,0,1,1,1-1A1,1,0,0,1,9,35Zm3,28a1,1,0,1,1,1-1A1,1,0,0,1,12,63Z"/><path class="cls-6" d="M87,59a3,3,0,0,0-2.816,2H81a1.883,1.883,0,0,1-2-2V49h2a3.888,3.888,0,0,0,4-4V36.816a3,3,0,1,0-2,0V45a1.883,1.883,0,0,1-2,2H73a1,1,0,0,0,0,2h4V59a3.888,3.888,0,0,0,4,4h3.184A2.995,2.995,0,1,0,87,59ZM84,33a1,1,0,1,1-1,1A1,1,0,0,1,84,33Zm3,30a1,1,0,1,1,1-1A1,1,0,0,1,87,63Z"/><path class="cls-6" d="M62,87a3,3,0,0,0-2.816,2H51a1.883,1.883,0,0,1-2-2V79a1,1,0,0,0-2,0v4H37a3.887,3.887,0,0,0-4,4v3.184a3,3,0,1,0,2,0V87a1.884,1.884,0,0,1,2-2H47v2a3.888,3.888,0,0,0,4,4h8.184A2.995,2.995,0,1,0,62,87ZM34,94a1,1,0,1,1,1-1A1,1,0,0,1,34,94Zm28-3a1,1,0,1,1,1-1A1,1,0,0,1,62,91Z"/><path class="cls-6" d="M34,9a3,3,0,0,0,2.816-2H45a1.882,1.882,0,0,1,2,2v8a1,1,0,0,0,2,0V13H59a3.888,3.888,0,0,0,4-4V5.816a3,3,0,1,0-2,0V9a1.883,1.883,0,0,1-2,2H49V9a3.888,3.888,0,0,0-4-4H36.816A2.995,2.995,0,1,0,34,9ZM62,2a1,1,0,1,1-1,1A1,1,0,0,1,62,2ZM34,5a1,1,0,1,1-1,1A1,1,0,0,1,34,5Z"/></g></g></svg>