<svg xmlns="http://www.w3.org/2000/svg" viewBox="0 0 64 64"><defs><style>.cls-1{fill:#73c6b2;}.cls-2{fill:#adb2c7;}.cls-3{fill:#11a892;}.cls-4{fill:#bec3d2;}.cls-5{fill:#f6fafd;}.cls-6{fill:#9196aa;}.cls-7{fill:#f2f6fc;}</style></defs><title>46-File Management</title><g id="_46-File_Management" data-name="46-File Management"><polygon class="cls-1" points="17 1 17 13 6 13 17 1"/><path class="cls-2" d="M54,3V61a2.006,2.006,0,0,1-2,2H8a2.006,2.006,0,0,1-2-2V13H17V1H52A2.006,2.006,0,0,1,54,3Z"/><path class="cls-3" d="M6,13H17V10.813c-3.122-.363-4.6-1.159-7.561-1.564Z"/><path class="cls-4" d="M23.394,46c7.6,0,7.6,2,15.2,2s7.6-2,15.2-2c.073,0,.132,0,.2,0V3a2.006,2.006,0,0,0-2-2H17V13H6V47.93c.663.041,1.374.07,2.2.07C15.794,48,15.794,46,23.394,46Z"/><path class="cls-5" d="M24.394,10c7.6,0,7.6,2,15.2,2,7.318,0,7.611-1.849,14.405-1.987V3a2.006,2.006,0,0,0-2-2H17v9.946A25.445,25.445,0,0,1,24.394,10Z"/><path class="cls-6" d="M53.8,46c-1.21,0-2.213.055-3.1.14A6,6,0,1,1,38.995,48v0c-.137,0-.258.007-.4.007a29.374,29.374,0,0,1-8.933-1.337L29,48l1,2,4.32.58a10.8,10.8,0,0,0,1.3,3.15l-2.64,3.46.71,2.12,2.12.71,3.46-2.64a10.8,10.8,0,0,0,3.15,1.3L43,63,43,63h3.99l0,0,.58-4.32a10.8,10.8,0,0,0,3.15-1.3L54,59.876V46C53.929,46,53.87,46,53.8,46Z"/><path class="cls-2" d="M47.575,37.317,47,33l-2-1-2,1-.58,4.32a10.8,10.8,0,0,0-3.15,1.3l-3.46-2.64-2.12.71-.71,2.12,2.64,3.46a10.8,10.8,0,0,0-1.3,3.15L30,46l-.333.666A29.374,29.374,0,0,0,38.6,48c.142,0,.263-.005.4-.007A6,6,0,0,1,50.7,46.14c.886-.085,1.889-.14,3.1-.14.073,0,.132,0,.2,0V36.119l-3.275,2.5A10.8,10.8,0,0,0,47.575,37.317Z"/><path class="cls-7" d="M57,45l1,2-1,2-4.32.58a10.8,10.8,0,0,1-1.3,3.15l2.64,3.46-.71,2.12-2.12.71-3.46-2.64a10.8,10.8,0,0,1-3.15,1.3L44,62l-2,1-2-1-.58-4.32a10.8,10.8,0,0,1-3.15-1.3l-3.46,2.64-2.12-.71-.71-2.12,2.64-3.46a10.8,10.8,0,0,1-1.3-3.15L27,49l-1-2,1-2,4.32-.58a10.8,10.8,0,0,1,1.3-3.15l-2.64-3.46.71-2.12,2.12-.71,3.46,2.64a10.8,10.8,0,0,1,3.15-1.3l.58-4.32,2-1,2,1,.58,4.32a10.8,10.8,0,0,1,3.15,1.3l3.46-2.64,2.12.71.71,2.12-2.64,3.46a10.8,10.8,0,0,1,1.3,3.15Zm-9,2a6,6,0,1,0-6,6A6,6,0,0,0,48,47Z"/><polygon class="cls-5" points="44.995 63.997 46.99 63 43 63 44.995 63.997"/><path d="M7,61V14H17a1,1,0,0,0,1-1V2H52a1,1,0,0,1,1,1V32h2V3a3,3,0,0,0-3-3H17a1,1,0,0,0-.737.324l-11,12A1,1,0,0,0,5,13V61a3,3,0,0,0,3,3H37V62H8A1,1,0,0,1,7,61ZM8.273,12,16,3.571V12Z"/><path d="M49,13a1,1,0,0,0,1-1V10a1,1,0,0,0-1-1,.81.81,0,0,1-.71-.291c-.611-.742-.472-2.688-.309-3.514A1,1,0,0,0,47,4H45V6h.865a5.871,5.871,0,0,0,.877,3.977A2.715,2.715,0,0,0,48,10.845v.31a2.715,2.715,0,0,0-1.258.868A5.871,5.871,0,0,0,45.865,16H45v2h2a1,1,0,0,0,.981-1.2c-.163-.826-.3-2.772.309-3.514A.81.81,0,0,1,49,13Z"/><path d="M15,44H13a1,1,0,0,0-.981,1.2c.163.826.3,2.772-.309,3.514A.81.81,0,0,1,11,49a1,1,0,0,0-1,1v2a1,1,0,0,0,1,1,.81.81,0,0,1,.71.291c.611.742.472,2.688.309,3.514A1,1,0,0,0,13,58h2V56h-.865a5.871,5.871,0,0,0-.877-3.977A2.715,2.715,0,0,0,12,51.155v-.31a2.715,2.715,0,0,0,1.258-.868A5.871,5.871,0,0,0,14.135,46H15Z"/><rect x="25" y="14" width="15" height="2"/><rect x="25" y="10" width="15" height="2"/><rect x="34" y="6" width="6" height="2"/><rect x="18" y="46" width="5" height="2"/><rect x="18" y="50" width="5" height="2"/><rect x="18" y="54" width="9" height="2"/><path d="M59.9,46.553l-1-2a1,1,0,0,0-.763-.544l-3.657-.488a11.954,11.954,0,0,0-.9-2.174l2.242-2.932a1,1,0,0,0,.155-.924l-.708-2.121a1,1,0,0,0-.632-.632l-2.121-.708a1,1,0,0,0-.924.155l-2.932,2.242a11.954,11.954,0,0,0-2.174-.9l-.488-3.657a1,1,0,0,0-.544-.763l-2-1a1,1,0,0,0-.894,0l-2,1a1,1,0,0,0-.544.763l-.488,3.657a11.954,11.954,0,0,0-2.174.9l-2.932-2.242a1,1,0,0,0-.924-.155l-2.121.708a1,1,0,0,0-.632.632l-.708,2.121a1,1,0,0,0,.155.924l2.242,2.932a11.954,11.954,0,0,0-.9,2.174l-3.657.488a1,1,0,0,0-.763.544l-1,2a1,1,0,0,0,0,.894l1,2a1,1,0,0,0,.763.544l3.657.488a11.954,11.954,0,0,0,.9,2.174l-2.242,2.932a1,1,0,0,0-.155.924l.708,2.121a1,1,0,0,0,.632.632l2.121.708a1.008,1.008,0,0,0,.924-.155l2.932-2.242a11.954,11.954,0,0,0,2.174.9l.488,3.657a1,1,0,0,0,.544.763l2,1a1,1,0,0,0,.894,0l2-1a1,1,0,0,0,.544-.763l.488-3.657a11.954,11.954,0,0,0,2.174-.9l2.932,2.242a1.007,1.007,0,0,0,.924.155l2.121-.708a1,1,0,0,0,.632-.632l.708-2.121a1,1,0,0,0-.155-.924l-2.242-2.932a11.954,11.954,0,0,0,.9-2.174l3.657-.488a1,1,0,0,0,.763-.544l1-2A1,1,0,0,0,59.9,46.553Zm-2.552,1.526-3.791.505a1,1,0,0,0-.84.757,9.934,9.934,0,0,1-1.19,2.869,1,1,0,0,0,.059,1.13l2.324,3.039-.382,1.144-1.144.382L49.34,55.581a1,1,0,0,0-1.13-.059,9.934,9.934,0,0,1-2.869,1.19,1,1,0,0,0-.757.84l-.505,3.791L43,61.882l-1.079-.539-.505-3.791a1,1,0,0,0-.757-.84,9.934,9.934,0,0,1-2.869-1.19,1,1,0,0,0-1.13.059l-3.039,2.324-1.144-.382L32.1,56.379l2.324-3.039a1,1,0,0,0,.059-1.13,9.934,9.934,0,0,1-1.19-2.869,1,1,0,0,0-.84-.757l-3.791-.505L28.118,47l.539-1.079,3.791-.505a1,1,0,0,0,.84-.757,9.934,9.934,0,0,1,1.19-2.869,1,1,0,0,0-.059-1.13L32.1,37.621l.382-1.144,1.144-.382,3.039,2.324a1,1,0,0,0,1.13.059,9.934,9.934,0,0,1,2.869-1.19,1,1,0,0,0,.757-.84l.505-3.791L43,32.118l1.079.539.505,3.791a1,1,0,0,0,.757.84,9.934,9.934,0,0,1,2.869,1.19,1,1,0,0,0,1.13-.059L52.379,36.1l1.144.382.382,1.144L51.581,40.66a1,1,0,0,0-.059,1.13,9.934,9.934,0,0,1,1.19,2.869,1,1,0,0,0,.84.757l3.791.505L57.882,47Z"/><path d="M43,40a7,7,0,1,0,7,7A7.008,7.008,0,0,0,43,40Zm0,12a5,5,0,1,1,5-5A5.006,5.006,0,0,1,43,52Z"/></g></svg>