<svg xmlns="http://www.w3.org/2000/svg" viewBox="0 0 64 64"><defs><style>.cls-1{fill:#dfe1ea;}.cls-2{fill:#8dd5f6;}.cls-3{fill:#aedff7;}.cls-4{fill:#f6fafd;}.cls-5{fill:#0096cf;}.cls-6{fill:#adb2c7;}.cls-7{fill:#ffc247;}.cls-8{fill:#ffa426;}.cls-9{fill:#f5cd62;}.cls-10{fill:#f5d882;}.cls-11{fill:#f5e3a7;}.cls-12{fill:#fff;}.cls-13{fill:#7e8596;}</style></defs><title>42-App Development</title><g id="_42-App_Development" data-name="42-App Development"><path class="cls-1" d="M53,4V60a3,3,0,0,1-3,3H16a3,3,0,0,1-3-3V4a3,3,0,0,1,3-3H50A3,3,0,0,1,53,4ZM49,58V7a.979.979,0,0,0-1-1H40s-1,2-2,2H28c-1,0-2-2-2-2H18a.979.979,0,0,0-1,1V58a.979.979,0,0,0,1,1H48A.979.979,0,0,0,49,58Z"/><path class="cls-2" d="M49,7V58a.979.979,0,0,1-1,1H18a.979.979,0,0,1-1-1V7a.979.979,0,0,1,1-1h8s1,2,2,2H38c1,0,2-2,2-2h8A.979.979,0,0,1,49,7Z"/><path class="cls-3" d="M44.6,17c-7.6,0-7.6-2-15.2-2C22.872,15,21.935,16.47,17,16.888v7C21.935,23.47,22.872,22,29.394,22c7.6,0,7.6,2,15.2,2A28.636,28.636,0,0,0,49,23.7v-7A28.636,28.636,0,0,1,44.6,17Z"/><path class="cls-4" d="M17,7v9.888C21.935,16.47,22.872,15,29.394,15c7.6,0,7.6,2,15.2,2A28.636,28.636,0,0,0,49,16.7V7a.979.979,0,0,0-1-1H40s-1,2-2,2H28c-1,0-2-2-2-2H18A.979.979,0,0,0,17,7Z"/><path class="cls-5" d="M37.157,27.736l-2.439-3.659A2.418,2.418,0,0,0,32.705,23H17V44.231l3.3,5.58A2.418,2.418,0,0,0,22.381,51h1.238A2.418,2.418,0,0,0,25.7,49.811l11.525-19.5A2.418,2.418,0,0,0,37.157,27.736Z"/><path class="cls-6" d="M13.3,23a2.222,2.222,0,0,0-.295.037V37.462l4,6.769V23Z"/><rect class="cls-5" x="41" y="43" width="8" height="4" rx="0.684" ry="0.684"/><polygon class="cls-7" points="35 25 22 47 20 47 26 25 35 25"/><polygon class="cls-7" points="31 19 35 25 26 25 31 19"/><polygon class="cls-8" points="31 19 26 25 20 19 31 19"/><polygon class="cls-7" points="15 25 5 25 9 19 15 25"/><polygon class="cls-8" points="20 19 15 25 9 19 20 19"/><polygon class="cls-7" points="26 25 15 25 20 19 26 25"/><polygon class="cls-8" points="26 25 20 47 15 25 26 25"/><polygon class="cls-7" points="15 25 20 47 18 47 5 25 15 25"/><path class="cls-9" d="M30.6,30a25.883,25.883,0,0,1-5.806-.56L23,36a25.2,25.2,0,0,0,4.966.9l4.1-6.933C31.6,29.989,31.121,30,30.6,30Z"/><path class="cls-10" d="M17.285,35.052A25.159,25.159,0,0,1,23,36l1.789-6.561c-2.652-.579-4.381-1.4-9.106-1.435Z"/><path class="cls-11" d="M17.285,35.052l-1.6-7.047c-.1,0-.186,0-.289,0a26.29,26.29,0,0,0-7.973,1.1l3.657,6.189A28.748,28.748,0,0,1,15.394,35C16.09,35,16.7,35.022,17.285,35.052Z"/><rect class="cls-12" x="39" y="29" width="20" height="14"/><rect class="cls-13" x="39" y="21" width="20" height="8"/><rect class="cls-1" x="42" y="32" width="14" height="8"/><rect class="cls-12" x="42" y="24" width="2" height="2"/><rect class="cls-12" x="46" y="24" width="2" height="2"/><path d="M59,20H54V4a4,4,0,0,0-4-4H16a4,4,0,0,0-4,4V18H9a1,1,0,0,0-.832.445l-4,6a1,1,0,0,0-.029,1.064l13,22A1,1,0,0,0,18,48h4a1,1,0,0,0,.861-.491l13-22a1,1,0,0,0-.029-1.064l-4-6A1,1,0,0,0,31,18H18V7h7.412C25.9,7.807,26.827,9,28,9H38c1.173,0,2.1-1.193,2.588-2H48V20H39a1,1,0,0,0-1,1V43a1,1,0,0,0,1,1h9V58H18V50H16v8a1.959,1.959,0,0,0,2,2H48a1.959,1.959,0,0,0,2-2V44h2V60a2,2,0,0,1-2,2H16a2,2,0,0,1-2-2V46H12V60a4,4,0,0,0,4,4H50a4,4,0,0,0,4-4V44h5a1,1,0,0,0,1-1V21A1,1,0,0,0,59,20ZM17.865,20l-2.932,3.519L11.414,20Zm-8.709.57L12.586,24H6.869ZM18.571,46,6.753,26H14.2l4.545,20ZM16.253,26h8.438l-4.6,16.876Zm5.176,20h-.12l5.455-20h6.483Zm11.7-22h-5l2.776-3.331Zm-4.266-4-2.932,3.519L22.414,20Zm-8.8.481L23.586,24H17.135ZM40,5a1,1,0,0,0-.894.551A4.184,4.184,0,0,1,38,7l-9.956,0a3.775,3.775,0,0,1-1.15-1.454A1,1,0,0,0,26,5H18a1.959,1.959,0,0,0-2,2V18H14V4a2,2,0,0,1,2-2H50a2,2,0,0,1,2,2V20H50V7a1.959,1.959,0,0,0-2-2ZM58,42H40V30H58Zm0-14H40V22H58Z"/><path d="M46.293,39.707l1.414-1.414L45.414,36l2.293-2.293-1.414-1.414-3,3a1,1,0,0,0,0,1.414Z"/><path d="M51.707,39.707l3-3a1,1,0,0,0,0-1.414l-3-3-1.414,1.414L52.586,36l-2.293,2.293Z"/></g></svg>