<svg id="Workflow" xmlns="http://www.w3.org/2000/svg" xmlns:xlink="http://www.w3.org/1999/xlink" viewBox="0 0 64 64"><defs><style>.cls-1{fill:#ccd3eb;}.cls-2{fill:#f5f7ff;}.cls-3{fill:url(#linear-gradient);}.cls-4{fill:#96a1c3;}.cls-5{fill:url(#linear-gradient-2);}.cls-6{fill:#0074ff;}.cls-7{fill:#d7e9f7;}.cls-8{fill:#033c59;}</style><linearGradient id="linear-gradient" x1="27" y1="44" x2="27" y2="36" gradientUnits="userSpaceOnUse"><stop offset="0" stop-color="#54a5ff"/><stop offset="1" stop-color="#8ad3fe"/></linearGradient><linearGradient id="linear-gradient-2" y2="30" xlink:href="#linear-gradient"/></defs><title>Workflow</title><path class="cls-1" d="M51,4l-.1.14a5.85,5.85,0,0,0-2.16,1.13,5.05,5.05,0,0,0-1.74,4V10l0,0V58a2,2,0,0,1-1.89,2H8.91A2,2,0,0,1,7,58V53H7V10a6,6,0,0,1,6-6Z"/><path class="cls-2" d="M44,4H13a6,6,0,0,0-6,6V57H38a6,6,0,0,0,6-6V9a5,5,0,0,1,5-5Z"/><path class="cls-3" d="M39,44a1,1,0,0,1-1-1V39a1,1,0,0,0-1-1H17a1,1,0,0,0-1,1v4a1,1,0,0,1-2,0V39a3,3,0,0,1,3-3H37a3,3,0,0,1,3,3v4A1,1,0,0,1,39,44Z"/><rect class="cls-4" x="11" y="43" width="8" height="6" rx="2"/><path class="cls-5" d="M27,44a1,1,0,0,1-1-1V31a1,1,0,0,1,2,0V43A1,1,0,0,1,27,44Z"/><rect class="cls-4" x="35" y="43" width="8" height="6" rx="2"/><rect class="cls-4" x="23" y="43" width="8" height="6" rx="2"/><path class="cls-1" d="M17,43v2a2,2,0,0,1-2,2H11V45a2,2,0,0,1,2-2Z"/><path class="cls-1" d="M41,43v2a2,2,0,0,1-2,2H35V45a2,2,0,0,1,2-2Z"/><path class="cls-1" d="M29,43v2a2,2,0,0,1-2,2H23V45a2,2,0,0,1,2-2Z"/><path class="cls-6" d="M34,16.88V29.12A1.83,1.83,0,0,1,32.22,31H21.78A1.83,1.83,0,0,1,20,29.12V16.88A1.83,1.83,0,0,1,21.78,15H32.22A1.83,1.83,0,0,1,34,16.88Z"/><path class="cls-7" d="M30,20H24a1,1,0,0,1,0-2h6a1,1,0,0,1,0,2Z"/><path class="cls-7" d="M30,24H24a1,1,0,0,1,0-2h6a1,1,0,0,1,0,2Z"/><path class="cls-7" d="M30,28H24a1,1,0,0,1,0-2h6a1,1,0,0,1,0,2Z"/><path class="cls-4" d="M57,10v2.47A1.42,1.42,0,0,1,55.72,14H47V9.22a5.05,5.05,0,0,1,1.74-4,5.81,5.81,0,0,1,1.75-1l.41-.13C54.14,3.31,57,6.26,57,10Z"/><path class="cls-8" d="M47,22a1,1,0,0,0-1,1v1a1,1,0,0,0,2,0V23A1,1,0,0,0,47,22Z"/><path class="cls-8" d="M54.28,3.52a5.21,5.21,0,0,0-3-.46A.88.88,0,0,0,51,3H13a7,7,0,0,0-7,7V53s0,.06,0,.1V58a3,3,0,0,0,2.89,3H45.09A3,3,0,0,0,48,58V28a1,1,0,1,0-2,0V58a1,1,0,0,1-.89,1H8.91A1,1,0,0,1,8,58V53s0-.06,0-.1V10a5,5,0,0,1,5-5H47.57A6.24,6.24,0,0,0,46,9.22V9.9s0,.07,0,.1v9a1,1,0,0,0,2,0V15h7.74A2.42,2.42,0,0,0,58,12.47V10A7.08,7.08,0,0,0,54.28,3.52Zm1.72,9c0,.33-.19.53-.28.53H48V9.22a4.11,4.11,0,0,1,1.36-3.17,3.71,3.71,0,0,1,4.06-.72A5.15,5.15,0,0,1,56,10Z"/><path class="cls-8" d="M37,42a3,3,0,0,0-3,3v2a3,3,0,0,0,3,3h4a3,3,0,0,0,3-3V45a3,3,0,0,0-3-3H40V39a3,3,0,0,0-3-3H28V32h4.22A2.84,2.84,0,0,0,35,29.12V16.88A2.84,2.84,0,0,0,32.22,14H21.78A2.84,2.84,0,0,0,19,16.88V29.12A2.84,2.84,0,0,0,21.78,32H26v4H17a3,3,0,0,0-3,3v3H13a3,3,0,0,0-3,3v2a3,3,0,0,0,3,3h4a3,3,0,0,0,3-3V45a3,3,0,0,0-3-3H16V39a1,1,0,0,1,1-1h9v4H25a3,3,0,0,0-3,3v2a3,3,0,0,0,3,3h4a3,3,0,0,0,3-3V45a3,3,0,0,0-3-3H28V38h9a1,1,0,0,1,1,1v3ZM21,29.12V16.88a.84.84,0,0,1,.78-.88H32.22a.84.84,0,0,1,.78.88V29.12a.84.84,0,0,1-.78.88H21.78A.84.84,0,0,1,21,29.12ZM18,45v2a1,1,0,0,1-1,1H13a1,1,0,0,1-1-1V45a1,1,0,0,1,1-1h4A1,1,0,0,1,18,45Zm12,0v2a1,1,0,0,1-1,1H25a1,1,0,0,1-1-1V45a1,1,0,0,1,1-1h4A1,1,0,0,1,30,45Zm12,0v2a1,1,0,0,1-1,1H37a1,1,0,0,1-1-1V45a1,1,0,0,1,1-1h4A1,1,0,0,1,42,45Z"/><path class="cls-2" d="M24,20h6a1,1,0,0,0,0-2H24a1,1,0,0,0,0,2Z"/><path class="cls-2" d="M24,24h6a1,1,0,0,0,0-2H24a1,1,0,0,0,0,2Z"/><path class="cls-2" d="M31,27a1,1,0,0,0-1-1H24a1,1,0,0,0,0,2h6A1,1,0,0,0,31,27Z"/></svg>