<svg xmlns="http://www.w3.org/2000/svg" width="96" height="96" viewBox="0 0 96 96"><defs><style>.cls-1{fill:#96c0ff;}.cls-2{fill:#fff;}.cls-3{fill:#ebf4ff;}.cls-4{fill:#c3d4ef;}.cls-5{fill:#b8d4ff;}.cls-6{fill:#e5eefd;}.cls-7{fill:#fc9a9a;}.cls-8{fill:#283d54;}</style></defs><title>14.Web Server</title><g id="_14.Web_Server" data-name="14.Web Server"><path class="cls-1" d="M95,8V65H1V8A4,4,0,0,1,5,4H91A4,4,0,0,1,95,8Z"/><polygon class="cls-2" points="58 80 67 92 29 92 38 80 58 80"/><path class="cls-3" d="M95,65V76a4,4,0,0,1-4,4H5a4,4,0,0,1-4-4V65Z"/><polygon class="cls-4" points="58 80 38 80 35 84 61 84 58 80"/><circle class="cls-5" cx="29" cy="33" r="25"/><polygon class="cls-4" points="41 56 44 60 14 60 17 56 41 56"/><polygon class="cls-4" points="41 40 44 44 14 44 17 40 41 40"/><polygon class="cls-4" points="41 24 44 28 14 28 17 24 41 24"/><path class="cls-6" d="M48,47v6a3,3,0,0,1-3,3H13a3,3,0,0,1-3-3V47a3,3,0,0,1,3-3H45A3,3,0,0,1,48,47Z"/><path class="cls-6" d="M48,31v6a3,3,0,0,1-3,3H13a3,3,0,0,1-3-3V31a3,3,0,0,1,3-3H45A3,3,0,0,1,48,31Z"/><path class="cls-6" d="M48,15v6a3,3,0,0,1-3,3H13a3,3,0,0,1-3-3V15a3,3,0,0,1,3-3H45A3,3,0,0,1,48,15Z"/><circle class="cls-7" cx="72" cy="35" r="17"/><path class="cls-8" d="M91,3H5A5.006,5.006,0,0,0,0,8V76a5.006,5.006,0,0,0,5,5,1,1,0,0,0,0-2,3,3,0,0,1-3-3V66H94V76a3,3,0,0,1-3,3H10a1,1,0,0,0,0,2H36L28.5,91H25a1,1,0,0,0,0,2H71a1,1,0,0,0,0-2H67.5L60,81H91a5.006,5.006,0,0,0,5-5V8A5.006,5.006,0,0,0,91,3ZM65,91H31l7.5-10h19ZM2,64V8A3,3,0,0,1,5,5H91a3,3,0,0,1,3,3V64Z"/><path class="cls-8" d="M50,73a1,1,0,0,0,0-2H46a1,1,0,0,0,0,2Z"/><path class="cls-8" d="M45,11H18a1,1,0,0,0,0,2H45a2,2,0,0,1,2,2v6a2,2,0,0,1-2,2H13a2,2,0,0,1-2-2V15a2,2,0,0,1,2-2,1,1,0,0,0,0-2,4,4,0,0,0-4,4v6a4,4,0,0,0,4,4h2l-1.5,2H13a4,4,0,0,0-4,4v6a4,4,0,0,0,4,4h2l-1.5,2H13a4,4,0,0,0-4,4v6a4,4,0,0,0,4,4h2l-1.5,2H10a1,1,0,0,0,0,2H48a1,1,0,0,0,0-2H44.5L43,57h2a4,4,0,0,0,4-4V47a4,4,0,0,0-4-4h-.5L43,41h2a4,4,0,0,0,4-4V31a4,4,0,0,0-4-4h-.5L43,25h2a4,4,0,0,0,4-4V15A4,4,0,0,0,45,11ZM42,59H16l1.5-2h23Zm5-12v6a2,2,0,0,1-2,2H13a2,2,0,0,1-2-2V47a2,2,0,0,1,2-2H45A2,2,0,0,1,47,47Zm-5-4H16l1.5-2h23Zm5-12v6a2,2,0,0,1-2,2H13a2,2,0,0,1-2-2V31a2,2,0,0,1,2-2H45A2,2,0,0,1,47,31Zm-5-4H16l1.5-2h23Z"/><path class="cls-8" d="M14,19a1,1,0,0,0,2,0V17a1,1,0,0,0-2,0Z"/><path class="cls-8" d="M21,19V17a1,1,0,0,0-2,0v2a1,1,0,0,0,2,0Z"/><path class="cls-8" d="M26,19V17a1,1,0,0,0-2,0v2a1,1,0,0,0,2,0Z"/><path class="cls-8" d="M43,19a1,1,0,0,0,0-2H31a1,1,0,0,0,0,2Z"/><path class="cls-8" d="M15,32a1,1,0,0,0-1,1v2a1,1,0,0,0,2,0V33A1,1,0,0,0,15,32Z"/><path class="cls-8" d="M20,32a1,1,0,0,0-1,1v2a1,1,0,0,0,2,0V33A1,1,0,0,0,20,32Z"/><path class="cls-8" d="M25,32a1,1,0,0,0-1,1v2a1,1,0,0,0,2,0V33A1,1,0,0,0,25,32Z"/><path class="cls-8" d="M43,33H31a1,1,0,0,0,0,2H43a1,1,0,0,0,0-2Z"/><path class="cls-8" d="M15,48a1,1,0,0,0-1,1v2a1,1,0,0,0,2,0V49A1,1,0,0,0,15,48Z"/><path class="cls-8" d="M20,48a1,1,0,0,0-1,1v2a1,1,0,0,0,2,0V49A1,1,0,0,0,20,48Z"/><path class="cls-8" d="M25,48a1,1,0,0,0-1,1v2a1,1,0,0,0,2,0V49A1,1,0,0,0,25,48Z"/><path class="cls-8" d="M43,49H31a1,1,0,0,0,0,2H43a1,1,0,0,0,0-2Z"/><path class="cls-8" d="M72,17A18,18,0,1,0,90,35,18.021,18.021,0,0,0,72,17Zm0,34A16,16,0,1,1,88,35,16.019,16.019,0,0,1,72,51Z"/><path class="cls-8" d="M82.293,33.293l-1.335,1.335a10.56,10.56,0,0,0-2.41-6.021A8.419,8.419,0,0,0,72,26a1,1,0,0,0,0,2,6.511,6.511,0,0,1,5.059,1.942,8.8,8.8,0,0,1,1.93,5.182l-1.434-.956a1,1,0,0,0-1.11,1.664l3,2c.017.011.035.014.052.024s.055.026.084.04a1,1,0,0,0,.269.082c.019,0,.033.014.052.016a.871.871,0,0,0,.087,0L80,38c.034,0,.065-.016.1-.019a1.044,1.044,0,0,0,.269-.053,1.03,1.03,0,0,0,.09-.055,1,1,0,0,0,.228-.152c.006-.006.015-.008.021-.014l3-3a1,1,0,0,0-1.414-1.414Z"/><path class="cls-8" d="M72,42a6.511,6.511,0,0,1-5.059-1.942,8.8,8.8,0,0,1-1.93-5.182l1.434.956a1,1,0,0,0,1.11-1.664l-3-2c-.015-.01-.033-.012-.048-.021a1.122,1.122,0,0,0-.117-.052,1.029,1.029,0,0,0-.239-.073c-.019,0-.034-.014-.053-.016s-.051.008-.077.007a.973.973,0,0,0-.228.021,1.035,1.035,0,0,0-.159.044.988.988,0,0,0-.15.081.951.951,0,0,0-.161.113c-.009.008-.021.012-.03.021l-3,3a1,1,0,1,0,1.414,1.414l1.335-1.335a10.56,10.56,0,0,0,2.41,6.021A8.419,8.419,0,0,0,72,44a1,1,0,0,0,0-2Z"/></g></svg>