<svg xmlns="http://www.w3.org/2000/svg" viewBox="0 0 64 64"><defs><style>.cls-1{fill:#dfe1ea;}.cls-2{fill:#adb2c7;}.cls-3{fill:#cdd2e1;}.cls-4{fill:#f6fafd;}.cls-5{fill:#ffc247;}.cls-6{fill:#ffa426;}.cls-7{fill:#f5cd62;}.cls-8{fill:#f5d882;}.cls-9{fill:#f5e3a7;}.cls-10{fill:#fff;}</style></defs><title>19-Coding</title><g id="_19-Coding" data-name="19-Coding"><path class="cls-1" d="M63,11V61a2.006,2.006,0,0,1-2,2H3a2.006,2.006,0,0,1-2-2V11Z"/><path class="cls-2" d="M61,1a2.006,2.006,0,0,1,2,2v8H1V3A2.006,2.006,0,0,1,3,1Z"/><path class="cls-3" d="M39.6,21c-7.6,0-7.6-2-15.2-2s-7.6,2-15.2,2A26.743,26.743,0,0,1,1,19.844v8A26.743,26.743,0,0,0,9.2,29c7.6,0,7.6-2,15.2-2s7.6,2,15.2,2,7.6-2,15.2-2A26.787,26.787,0,0,1,63,28.157v-8A26.787,26.787,0,0,0,54.8,19C47.2,19,47.2,21,39.6,21Z"/><path class="cls-4" d="M1,11v8.844A26.743,26.743,0,0,0,9.2,21c7.6,0,7.6-2,15.2-2s7.6,2,15.2,2,7.6-2,15.2-2A26.787,26.787,0,0,1,63,20.157V11Z"/><g id="_Group_" data-name="&lt;Group&gt;"><path class="cls-2" d="M46.718,27.077A2.418,2.418,0,0,0,44.705,26H25.3a2.418,2.418,0,0,0-2.013,1.077l-2.439,3.659a2.418,2.418,0,0,0-.07,2.572L32.3,52.811A2.418,2.418,0,0,0,34.381,54h1.238A2.418,2.418,0,0,0,37.7,52.811l11.525-19.5a2.418,2.418,0,0,0-.07-2.572Z"/></g><polygon class="cls-5" points="47 29 34 51 32 51 38 29 47 29"/><polygon class="cls-5" points="43 23 47 29 38 29 43 23"/><polygon class="cls-6" points="43 23 38 29 32 23 43 23"/><polygon class="cls-5" points="27 29 17 29 21 23 27 29"/><polygon class="cls-6" points="32 23 27 29 21 23 32 23"/><polygon class="cls-5" points="38 29 27 29 32 23 38 29"/><polygon class="cls-6" points="38 29 32 51 27 29 38 29"/><polygon class="cls-5" points="27 29 32 51 30 51 17 29 27 29"/><path class="cls-7" d="M42.6,34a25.883,25.883,0,0,1-5.806-.56L35,40a25.2,25.2,0,0,0,4.966.9l4.1-6.933C43.6,33.989,43.121,34,42.6,34Z"/><path class="cls-8" d="M29.285,39.052A25.159,25.159,0,0,1,35,40l1.789-6.561c-2.652-.579-4.381-1.4-9.106-1.435Z"/><path class="cls-9" d="M29.285,39.052l-1.6-7.047c-.1,0-.186-.005-.289-.005a26.29,26.29,0,0,0-7.973,1.1l3.657,6.189A28.748,28.748,0,0,1,27.394,39C28.09,39,28.7,39.022,29.285,39.052Z"/><rect class="cls-10" x="5" y="5" width="2" height="2"/><rect class="cls-10" x="14" y="5" width="45" height="2"/><rect class="cls-10" x="45" y="41" width="2" height="2"/><rect class="cls-10" x="17" y="41" width="2" height="2"/><path d="M61,0H3A3,3,0,0,0,0,3V61a3,3,0,0,0,3,3H61a3,3,0,0,0,3-3V3A3,3,0,0,0,61,0ZM3,2H61a1,1,0,0,1,1,1v7H2V3A1,1,0,0,1,3,2ZM61,62H3a1,1,0,0,1-1-1V12H62V61A1,1,0,0,1,61,62Z"/><rect x="9" y="5" width="2" height="2"/><path d="M43.832,22.445A1,1,0,0,0,43,22H21a1,1,0,0,0-.832.445l-4,6a1,1,0,0,0-.029,1.064l13,22A1,1,0,0,0,30,52h4a1,1,0,0,0,.861-.491l13-22a1,1,0,0,0-.029-1.064ZM32.067,24.481,35.586,28H29.135Zm-5.134,3.038L23.414,24h6.451ZM34.414,24h6.451l-2.932,3.519Zm2.277,6-4.6,16.876L28.253,30Zm6.22-5.331L45.131,28h-5Zm-21.755-.1L24.586,28H18.869ZM18.753,30H26.2l4.546,20H30.57ZM33.43,50h-.121l5.455-20h6.483Z"/><path d="M57,40a.812.812,0,0,1-.71-.291c-.61-.742-.472-2.688-.31-3.514A1,1,0,0,0,55,35H53v2h.865a5.865,5.865,0,0,0,.877,3.977A2.715,2.715,0,0,0,56,41.845v.31a2.715,2.715,0,0,0-1.258.868A5.865,5.865,0,0,0,53.865,47H53v2h2a1,1,0,0,0,.98-1.2c-.162-.826-.3-2.772.31-3.514A.812.812,0,0,1,57,44a1,1,0,0,0,1-1V41A1,1,0,0,0,57,40Z"/><rect x="49" y="41" width="2" height="2"/><rect x="13" y="41" width="2" height="2"/><path d="M8.228,35.366a1,1,0,0,0-.208.829c.162.826.3,2.772-.31,3.514A.812.812,0,0,1,7,40a1,1,0,0,0-1,1v2a1,1,0,0,0,1,1,.812.812,0,0,1,.71.291c.61.742.472,2.688.31,3.514A1,1,0,0,0,9,49h2V47h-.865a5.865,5.865,0,0,0-.877-3.977A2.715,2.715,0,0,0,8,42.155v-.31a2.715,2.715,0,0,0,1.258-.868A5.865,5.865,0,0,0,10.135,37H11V35H9A1,1,0,0,0,8.228,35.366Z"/></g></svg>