<svg xmlns="http://www.w3.org/2000/svg" viewBox="0 0 64 64"><defs><style>.cls-1{fill:#0074ff;}.cls-2{fill:#ccd3eb;}.cls-3{fill:#f5f7ff;}.cls-4{fill:#033c59;}.cls-5{fill:#96a1c3;}</style></defs><title>Layout</title><g id="Layout"><path class="cls-1" d="M61,6V18H4V6A2,2,0,0,1,6,4H59A2,2,0,0,1,61,6Z"/><path class="cls-2" d="M61,18V58a2,2,0,0,1-2,2H7a2,2,0,0,1-2-2V18Z"/><path class="cls-3" d="M56,18.9V51.29A5.88,5.88,0,0,1,50,57H4V19H6v-.1Z"/><rect class="cls-3" x="8" y="8" width="30" height="6" rx="2"/><circle class="cls-3" cx="49" cy="11" r="2"/><circle class="cls-3" cx="43" cy="11" r="2"/><circle class="cls-3" cx="55" cy="11" r="2"/><path class="cls-4" d="M10,15H36a3,3,0,0,0,3-3V10a3,3,0,0,0-3-3H10a3,3,0,0,0-3,3v2A3,3,0,0,0,10,15ZM9,10a1,1,0,0,1,1-1H36a1,1,0,0,1,1,1v2a1,1,0,0,1-1,1H10a1,1,0,0,1-1-1Z"/><path class="cls-4" d="M58,3H6A3,3,0,0,0,3,6V58a3,3,0,0,0,3,3H58a3,3,0,0,0,3-3V6A3,3,0,0,0,58,3ZM6,5H58a1,1,0,0,1,1,1V17H5V6A1,1,0,0,1,6,5ZM58,59H6a1,1,0,0,1-1-1V19H59V58A1,1,0,0,1,58,59Z"/><rect class="cls-5" x="10" y="23" width="44" height="13" rx="1"/><path class="cls-2" d="M50,23v7a3,3,0,0,1-3,3H10V24a1,1,0,0,1,1-1Z"/><path class="cls-4" d="M54,22H48a1,1,0,0,0,0,2h5V35H11V24H39a1,1,0,0,0,0-2H10a1,1,0,0,0-1,1V36a1,1,0,0,0,1,1H54a1,1,0,0,0,1-1V23A1,1,0,0,0,54,22Z"/><path class="cls-4" d="M43,24h1a1,1,0,0,0,0-2H43a1,1,0,0,0,0,2Z"/><rect class="cls-5" x="10" y="40" width="22" height="16" rx="1"/><rect class="cls-5" x="36" y="40" width="18" height="6" rx="1"/><rect class="cls-5" x="36" y="50" width="18" height="6" rx="1"/><path class="cls-2" d="M28,40V50a3,3,0,0,1-3,3H10V41a1,1,0,0,1,1-1Z"/><path class="cls-2" d="M50,40v2a1,1,0,0,1-1,1H36V41a1,1,0,0,1,1-1Z"/><path class="cls-2" d="M50,50v2a1,1,0,0,1-1,1H36V51a1,1,0,0,1,1-1Z"/><path class="cls-4" d="M32,39H10a1,1,0,0,0-1,1V56a1,1,0,0,0,1,1H32a1,1,0,0,0,1-1V40A1,1,0,0,0,32,39ZM31,55H11V41H31Z"/><path class="cls-4" d="M54,39H36a1,1,0,0,0-1,1v6a1,1,0,0,0,1,1H54a1,1,0,0,0,1-1V40A1,1,0,0,0,54,39Zm-1,6H37V41H53Z"/><path class="cls-4" d="M54,49H36a1,1,0,0,0-1,1v6a1,1,0,0,0,1,1H54a1,1,0,0,0,1-1V50A1,1,0,0,0,54,49Zm-1,6H37V51H53Z"/></g></svg>