<svg xmlns="http://www.w3.org/2000/svg" viewBox="0 0 64 64"><defs><style>.cls-1{fill:#ccd3eb;}.cls-2{fill:#f5f7ff;}.cls-3{fill:#96a1c3;}.cls-4{fill:#647499;}.cls-5{fill:#0668cb;}.cls-6{fill:#b4cde1;}.cls-7{fill:#0074ff;}.cls-8{fill:#033c59;}</style></defs><title>Maintenance setting</title><g id="Maintenance_setting" data-name="Maintenance setting"><path class="cls-1" d="M60,10V38H4V10A6,6,0,0,1,8,4.35,5.8,5.8,0,0,1,10,4H54A6,6,0,0,1,60,10Z"/><path class="cls-2" d="M57,10V38H4V10A6,6,0,0,1,8,4.35,5.8,5.8,0,0,1,10,4H51A6,6,0,0,1,57,10Z"/><path class="cls-3" d="M60,37v4a6,6,0,0,1-6,6H10a6,6,0,0,1-6-6V37Z"/><polygon class="cls-4" points="42.29 59 21.71 59 25.83 47 38.17 47 42.29 59"/><path class="cls-5" d="M44,61H20a1,1,0,0,1,0-2H44a1,1,0,0,1,0,2Z"/><path class="cls-6" d="M20,23a1,1,0,0,1-1-1V17a1,1,0,0,1,2,0v5A1,1,0,0,1,20,23Z"/><rect class="cls-3" x="18" y="21" width="4" height="4" rx="1"/><path class="cls-1" d="M20,21v2a1,1,0,0,1-1,1H18V22a1,1,0,0,1,1-1Z"/><path class="cls-3" d="M23,26v4.84a3.2,3.2,0,0,1-2,3,2.63,2.63,0,0,1-.85.18,3,3,0,0,1-2.4-1A2.92,2.92,0,0,1,17,31V26a1,1,0,0,1,1-1h4A1,1,0,0,1,23,26Z"/><path class="cls-1" d="M21,25v4.84a3.2,3.2,0,0,1-2,3,2.63,2.63,0,0,1-.85.18,1.76,1.76,0,0,1-.4,0A2.92,2.92,0,0,1,17,31V26a1,1,0,0,1,1-1Z"/><path class="cls-7" d="M50,20H48.54a1,1,0,0,1-1-.73A9.75,9.75,0,0,0,47,17.86a1,1,0,0,1,.16-1.18l1-1a1,1,0,0,0,0-1.42l-1.41-1.41a1,1,0,0,0-1.42,0l-1,1a1,1,0,0,1-1.18.16,9.75,9.75,0,0,0-1.41-.59,1,1,0,0,1-.73-1V11a1,1,0,0,0-1-1H38a1,1,0,0,0-1,1v1.46a1,1,0,0,1-.73,1,9.75,9.75,0,0,0-1.41.59,1,1,0,0,1-1.18-.16l-1-1a1,1,0,0,0-1.42,0l-1.41,1.41a1,1,0,0,0,0,1.42l1,1A1,1,0,0,1,31,17.86a9.75,9.75,0,0,0-.59,1.41,1,1,0,0,1-1,.73H28a1,1,0,0,0-1,1v2a1,1,0,0,0,1,1h1.46a1,1,0,0,1,1,.73A9.75,9.75,0,0,0,31,26.14a1,1,0,0,1-.16,1.18l-1,1a1,1,0,0,0,0,1.42l1.41,1.41a1,1,0,0,0,1.42,0l1-1A1,1,0,0,1,34.86,30a9.75,9.75,0,0,0,1.41.59,1,1,0,0,1,.73,1V33a1,1,0,0,0,1,1h2a1,1,0,0,0,1-1V31.54a1,1,0,0,1,.73-1A9.75,9.75,0,0,0,43.14,30a1,1,0,0,1,1.18.16l1,1a1,1,0,0,0,1.42,0l1.41-1.41a1,1,0,0,0,0-1.42l-1-1A1,1,0,0,1,47,26.14a9.75,9.75,0,0,0,.59-1.41,1,1,0,0,1,1-.73H50a1,1,0,0,0,1-1V21A1,1,0,0,0,50,20Zm-7.49,5.77c-5.26,3.83-11.11-2-7.28-7.28a1.07,1.07,0,0,1,.26-.26c5.26-3.83,11.11,2,7.28,7.28A1.07,1.07,0,0,1,42.51,25.77Z"/><path class="cls-3" d="M23,11v2a3,3,0,0,1-.76,2l-.12.13a3,3,0,0,1-2.34.87,2.85,2.85,0,0,1-.78-.17,3.18,3.18,0,0,1-2-3V11a1,1,0,0,1,1-1h4A1,1,0,0,1,23,11Z"/><path class="cls-1" d="M21,11v2a3,3,0,0,1-.76,2l-.12.13a2.84,2.84,0,0,1-1.12.7,3.18,3.18,0,0,1-2-3V11a1,1,0,0,1,1-1h2A1,1,0,0,1,21,11Z"/><path class="cls-8" d="M44,61H20a1,1,0,0,1,0-2H44a1,1,0,0,1,0,2Z"/><path class="cls-8" d="M33,42H31a1,1,0,0,0,0,2h2a1,1,0,0,0,0-2Z"/><path class="cls-8" d="M54,3H10a7,7,0,0,0-7,7V42a7,7,0,0,0,7,7H24.43L20.77,59.68a1,1,0,0,0,.13.9,1,1,0,0,0,.81.42H42.29a1,1,0,0,0,.81-.42,1,1,0,0,0,.13-.9L39.57,49H54a7,7,0,0,0,7-7V10A7,7,0,0,0,54,3ZM10,5H54a5,5,0,0,1,5,5V37H5V10A5,5,0,0,1,10,5ZM40.89,59H23.11l3.43-10H37.46ZM54,47H10a5,5,0,0,1-5-5V39H59v3A5,5,0,0,1,54,47Z"/><path class="cls-8" d="M20,35a4,4,0,0,0,4-4V25a1,1,0,0,0-1-1V21a1,1,0,0,0-1-1H21V16.86A4,4,0,0,0,24,13V10a1,1,0,0,0-1-1H17a1,1,0,0,0-1,1v3a4,4,0,0,0,3,3.86V20H18a1,1,0,0,0-1,1v3a1,1,0,0,0-1,1v6A4,4,0,0,0,20,35ZM18,13V11h4v2a2,2,0,0,1-4,0Zm4,18a2,2,0,0,1-4,0V26h4Zm-3-9h2v2H19Z"/><path class="cls-8" d="M28,25h1.46a10.42,10.42,0,0,0,.67,1.62l-1,1a2,2,0,0,0,0,2.84l1.41,1.41a2,2,0,0,0,2.84,0l1-1a10.42,10.42,0,0,0,1.62.67V33a2,2,0,0,0,2,2h2a2,2,0,0,0,2-2V31.54a10.42,10.42,0,0,0,1.62-.67l1,1a2,2,0,0,0,2.84,0l1.41-1.41a2,2,0,0,0,0-2.84l-1-1A10.42,10.42,0,0,0,48.54,25H50a2,2,0,0,0,2-2V21a2,2,0,0,0-2-2H48.54a10.42,10.42,0,0,0-.67-1.62l1-1a2,2,0,0,0,0-2.84L47.49,12.1a2,2,0,0,0-2.84,0l-1,1A10.42,10.42,0,0,0,42,12.46V11a2,2,0,0,0-2-2H38a2,2,0,0,0-2,2v1.46a10.42,10.42,0,0,0-1.62.67l-1-1a2,2,0,0,0-2.84,0L29.1,13.51a2,2,0,0,0,0,2.84l1,1A10.42,10.42,0,0,0,29.46,19H28a2,2,0,0,0-2,2v2A2,2,0,0,0,28,25Zm0-4h2.22a1,1,0,0,0,.36-.07l.11-.06.19-.13a.52.52,0,0,0,.1-.11l.12-.18.06-.13s0-.06,0-.1a8.22,8.22,0,0,1,1-2.48.41.41,0,0,1,0-.08,1.07,1.07,0,0,0,.07-.19.57.57,0,0,0,0-.18.6.6,0,0,0,0-.19,1.62,1.62,0,0,0,0-.19.77.77,0,0,0-.07-.16.66.66,0,0,0-.12-.17.2.2,0,0,0,0-.08l-1.57-1.57,1.41-1.41,1.57,1.57h0a1.08,1.08,0,0,0,.29.2l.08,0a1.14,1.14,0,0,0,.33.06h0a.93.93,0,0,0,.33-.07l.09,0,.11,0a8.22,8.22,0,0,1,2.48-1,.19.19,0,0,0,.08,0l.19-.08.15-.11a.86.86,0,0,0,.13-.14l.11-.15a1.27,1.27,0,0,0,.06-.18.65.65,0,0,0,0-.2.24.24,0,0,0,0-.08V11h2v2.22a.24.24,0,0,0,0,.08.65.65,0,0,0,0,.2,1.27,1.27,0,0,0,.06.18l.11.15a.86.86,0,0,0,.13.14l.15.11.19.08a.19.19,0,0,0,.08,0,8.22,8.22,0,0,1,2.48,1l.11,0,.09,0a.93.93,0,0,0,.33.07h0a1.14,1.14,0,0,0,.33-.06l.08,0a1.08,1.08,0,0,0,.29-.2h0l1.57-1.57,1.41,1.41L45.91,16.5a.56.56,0,0,0,0,.08,1,1,0,0,0-.11.17.77.77,0,0,0-.07.16,1.62,1.62,0,0,0,0,.19.6.6,0,0,0,0,.19.57.57,0,0,0,0,.18,1.07,1.07,0,0,0,.07.19.41.41,0,0,1,0,.08,8.22,8.22,0,0,1,1,2.48s0,.06,0,.1l.06.13a1.4,1.4,0,0,0,.12.18.52.52,0,0,0,.1.11l.19.13.11.06a1,1,0,0,0,.36.07H50v2H47.78l-.09,0a.72.72,0,0,0-.19,0,.67.67,0,0,0-.18.07.65.65,0,0,0-.15.1.86.86,0,0,0-.14.13l-.1.15a.66.66,0,0,0-.09.19.19.19,0,0,0,0,.08,8.22,8.22,0,0,1-1,2.48.41.41,0,0,1,0,.08,1.07,1.07,0,0,0-.07.19.57.57,0,0,0,0,.18.6.6,0,0,0,0,.19,1.62,1.62,0,0,0,0,.19.77.77,0,0,0,.07.16,1,1,0,0,0,.11.17.56.56,0,0,0,0,.08l1.57,1.57-1.41,1.41L44.5,28.91l-.08-.05-.16-.11-.18-.07-.18,0a.61.61,0,0,0-.19,0,.57.57,0,0,0-.18,0l-.19.07-.08,0a8.22,8.22,0,0,1-2.48,1,.19.19,0,0,0-.08,0l-.19.08-.15.11a.86.86,0,0,0-.13.14l-.11.15a1.27,1.27,0,0,0-.06.18.65.65,0,0,0,0,.2.24.24,0,0,0,0,.08V33H38V30.78a.24.24,0,0,0,0-.08.65.65,0,0,0,0-.2,1.27,1.27,0,0,0-.06-.18l-.11-.15a.86.86,0,0,0-.13-.14l-.15-.11-.19-.08a.19.19,0,0,0-.08,0,8.22,8.22,0,0,1-2.48-1l-.08,0-.19-.07a.57.57,0,0,0-.18,0,.61.61,0,0,0-.19,0l-.18,0-.18.07-.16.11-.08.05-1.57,1.57-1.41-1.41,1.57-1.57a.2.2,0,0,0,0-.08.66.66,0,0,0,.12-.17.77.77,0,0,0,.07-.16,1.62,1.62,0,0,0,0-.19.6.6,0,0,0,0-.19.57.57,0,0,0,0-.18,1.07,1.07,0,0,0-.07-.19.41.41,0,0,1,0-.08,8.22,8.22,0,0,1-1-2.48.19.19,0,0,0,0-.08,1.08,1.08,0,0,0-.08-.19L31,23.36a.86.86,0,0,0-.14-.13.65.65,0,0,0-.15-.1.67.67,0,0,0-.18-.07.72.72,0,0,0-.19,0l-.09,0H28Z"/><path class="cls-8" d="M36.1,19.25A3.93,3.93,0,0,1,39,18a4,4,0,1,1-2,7.46,1,1,0,0,0-1.36.36A1,1,0,0,0,36,27.19,5.91,5.91,0,0,0,39,28a6,6,0,1,0-4.36-10.13,1,1,0,1,0,1.46,1.38Z"/><path class="cls-8" d="M34.15,24.19l.26,0a1,1,0,0,0,.71-1.22A3.61,3.61,0,0,1,35,22a1,1,0,0,0-2,0,5.82,5.82,0,0,0,.18,1.45A1,1,0,0,0,34.15,24.19Z"/></g></svg>