<svg xmlns="http://www.w3.org/2000/svg" viewBox="0 0 64 64"><defs><style>.cls-1{fill:#bec3d2;}.cls-2{fill:#f6fafd;}.cls-3{fill:#9196aa;}.cls-4{fill:#ffc247;}.cls-5{fill:#ffa426;}.cls-6{fill:#f5cd62;}.cls-7{fill:#f5d882;}.cls-8{fill:#f5e3a7;}</style></defs><title>49-Coding</title><g id="_49-Coding" data-name="49-Coding"><path class="cls-1" d="M61,29l2,3-2,3-6.26.43a22.722,22.722,0,0,1-4.23,10.22l4.12,4.73-.71,3.54-3.54.71-4.73-4.12a22.722,22.722,0,0,1-10.22,4.23L35,61l-3,2-3-2-.43-6.26a22.722,22.722,0,0,1-10.22-4.23l-4.73,4.12-3.54-.71-.71-3.54,4.12-4.73A22.722,22.722,0,0,1,9.26,35.43L3,35,1,32l2-3,6.26-.43a22.722,22.722,0,0,1,4.23-10.22L9.37,13.62l.71-3.54,3.54-.71,4.73,4.12A22.722,22.722,0,0,1,28.57,9.26L29,3l3-2,3,2,.43,6.26a22.722,22.722,0,0,1,10.22,4.23l4.73-4.12,3.54.71.71,3.54-4.12,4.73a22.722,22.722,0,0,1,4.23,10.22Z"/><path class="cls-2" d="M27.394,10c-.871,0-1.632.029-2.326.075A22.746,22.746,0,0,0,18.35,13.49l-2.012-1.752A29.25,29.25,0,0,1,12.2,12c-.939,0-1.747-.034-2.482-.088L9.37,13.62l4.12,4.73a22.738,22.738,0,0,0-3.672,7.569c.71.049,1.481.081,2.377.081,7.6,0,7.6-2,15.2-2s7.6,2,15.2,2c5.891,0,7.228-1.2,11.065-1.739a22.731,22.731,0,0,0-3.15-5.911l4.12-4.73-.682-3.4c-2.495.319-3.94.914-6.072,1.329L45.65,13.49a22.955,22.955,0,0,0-2.3-1.5c-.248.005-.484.013-.75.013C34.995,12,34.995,10,27.394,10Z"/><path class="cls-3" d="M16.338,11.738,13.62,9.37l-3.54.71-.367,1.832c.735.054,1.543.088,2.482.088A29.25,29.25,0,0,0,16.338,11.738Z"/><path class="cls-3" d="M35.43,9.26,35.343,8,35,3,32,1,29,3l-.343,5L28.57,9.26a22.835,22.835,0,0,0-3.5.815c.694-.046,1.455-.075,2.326-.075,7.6,0,7.6,2,15.2,2,.266,0,.5-.008.75-.013A22.731,22.731,0,0,0,35.43,9.26Z"/><path class="cls-3" d="M53.92,10.08l-3.54-.71-2.5,2.181c2.132-.415,3.577-1.01,6.072-1.329Z"/><path class="cls-3" d="M46.718,23.077A2.418,2.418,0,0,0,44.705,22H25.3a2.418,2.418,0,0,0-2.013,1.077l-2.439,3.659a2.418,2.418,0,0,0-.07,2.572L32.3,48.811A2.418,2.418,0,0,0,34.381,50h1.238A2.418,2.418,0,0,0,37.7,48.811l11.525-19.5a2.418,2.418,0,0,0-.07-2.572Z"/><polygon class="cls-4" points="47 25 34 47 32 47 38 25 47 25"/><polygon class="cls-4" points="43 19 47 25 38 25 43 19"/><polygon class="cls-5" points="43 19 38 25 32 19 43 19"/><polygon class="cls-4" points="27 25 17 25 21 19 27 25"/><polygon class="cls-5" points="32 19 27 25 21 19 32 19"/><polygon class="cls-4" points="38 25 27 25 32 19 38 25"/><polygon class="cls-5" points="38 25 32 47 27 25 38 25"/><polygon class="cls-4" points="27 25 32 47 30 47 17 25 27 25"/><path class="cls-6" d="M42.6,30a25.883,25.883,0,0,1-5.806-.56L35,36a25.2,25.2,0,0,0,4.966.9l4.1-6.933C43.6,29.989,43.121,30,42.6,30Z"/><path class="cls-7" d="M29.285,35.052A25.159,25.159,0,0,1,35,36l1.789-6.561c-2.652-.579-4.381-1.4-9.106-1.435Z"/><path class="cls-8" d="M29.285,35.052l-1.6-7.047c-.1,0-.186,0-.289,0a26.29,26.29,0,0,0-7.973,1.1l3.657,6.189A28.748,28.748,0,0,1,27.394,35C28.09,35,28.7,35.022,29.285,35.052Z"/><path d="M63.832,31.445l-2-3A1,1,0,0,0,61.068,28l-5.47-.376a23.846,23.846,0,0,0-3.815-9.215l3.6-4.134a1,1,0,0,0,.226-.854l-.71-3.54a1,1,0,0,0-.784-.783l-3.54-.71a1,1,0,0,0-.853.226l-4.134,3.6A23.841,23.841,0,0,0,36.373,8.4L36,2.932a1,1,0,0,0-.443-.764l-3-2a1,1,0,0,0-1.11,0l-3,2A1,1,0,0,0,28,2.932L27.627,8.4a23.841,23.841,0,0,0-9.216,3.815l-4.134-3.6a1,1,0,0,0-.853-.226l-3.54.71a1,1,0,0,0-.784.783l-.71,3.54a1,1,0,0,0,.226.854l3.6,4.134A23.846,23.846,0,0,0,8.4,27.626L2.932,28a1,1,0,0,0-.764.443l-2,3a1,1,0,0,0,0,1.11l2,3A1,1,0,0,0,2.932,36l5.47.376a23.846,23.846,0,0,0,3.815,9.215l-3.6,4.134a1,1,0,0,0-.226.854l.71,3.54a1,1,0,0,0,.784.783l3.54.71a.987.987,0,0,0,.853-.226l4.134-3.6A23.841,23.841,0,0,0,27.627,55.6L28,61.068a1,1,0,0,0,.443.764l3,2a1,1,0,0,0,1.11,0l3-2A1,1,0,0,0,36,61.068l.375-5.47a23.841,23.841,0,0,0,9.216-3.815l4.134,3.6a.991.991,0,0,0,.853.226l3.54-.71a1,1,0,0,0,.784-.783l.71-3.54a1,1,0,0,0-.226-.854l-3.6-4.134A23.846,23.846,0,0,0,55.6,36.374L61.068,36a1,1,0,0,0,.764-.443l2-3A1,1,0,0,0,63.832,31.445ZM60.44,34.036l-5.768.4a1,1,0,0,0-.921.851,21.816,21.816,0,0,1-4.044,9.77,1,1,0,0,0,.049,1.253l3.8,4.359-.483,2.4-2.4.483-4.358-3.8a1,1,0,0,0-1.253-.049,21.822,21.822,0,0,1-9.772,4.044,1,1,0,0,0-.851.921l-.4,5.769L32,61.8l-2.036-1.357-.4-5.769a1,1,0,0,0-.851-.921,21.822,21.822,0,0,1-9.772-4.044,1,1,0,0,0-1.253.049l-4.358,3.8-2.4-.483-.483-2.4,3.8-4.359a1,1,0,0,0,.049-1.253,21.816,21.816,0,0,1-4.044-9.77,1,1,0,0,0-.921-.851l-5.768-.4L2.2,32,3.56,29.964l5.768-.4a1,1,0,0,0,.921-.851,21.816,21.816,0,0,1,4.044-9.77,1,1,0,0,0-.049-1.253l-3.8-4.359.483-2.4,2.4-.483,4.358,3.8a1,1,0,0,0,1.253.049,21.822,21.822,0,0,1,9.772-4.044,1,1,0,0,0,.851-.921l.4-5.769L32,2.2l2.036,1.357.4,5.769a1,1,0,0,0,.851.921,21.822,21.822,0,0,1,9.772,4.044,1,1,0,0,0,1.253-.049l4.358-3.8,2.4.483.483,2.4-3.8,4.359a1,1,0,0,0-.049,1.253,21.816,21.816,0,0,1,4.044,9.77,1,1,0,0,0,.921.851l5.768.4L61.8,32Z"/><path d="M36.1,45.417,47.861,25.509a1,1,0,0,0-.029-1.064l-4-6A1,1,0,0,0,43,18H21a1,1,0,0,0-.832.445l-4,6a1,1,0,0,0-.029,1.064L27.9,45.417A15.016,15.016,0,0,1,17,31H15A17.012,17.012,0,0,0,29.384,47.777.991.991,0,0,0,30,48h4a.991.991,0,0,0,.616-.223A17.012,17.012,0,0,0,49,31H47A15.016,15.016,0,0,1,36.1,45.417Zm-4.03-24.936L35.586,24H29.135Zm-5.134,3.038L23.414,20h6.451ZM34.414,20h6.451l-2.932,3.519Zm2.277,6-4.6,16.876L28.253,26ZM33.328,45.933,38.764,26h6.483L33.474,45.925C33.426,45.93,33.376,45.929,33.328,45.933ZM45.131,24h-5l2.776-3.331ZM21.156,20.57,24.586,24H18.869ZM18.753,26H26.2l4.531,19.936c-.068-.006-.138,0-.206-.011Z"/></g></svg>