<svg xmlns="http://www.w3.org/2000/svg" width="96" height="96" viewBox="0 0 96 96"><defs><style>.cls-1{fill:#f2f7ff;}.cls-2{fill:#c3d4ef;}.cls-3{fill:#e5eefd;}.cls-4{fill:#a9ebc8;}.cls-5{fill:#96c0ff;}.cls-6{fill:#283d54;}</style></defs><title>7.Network</title><g id="_7.Network" data-name="7.Network"><circle class="cls-1" cx="48" cy="48" r="37"/><polygon class="cls-2" points="32 91 35 95 5 95 8 91 32 91"/><polygon class="cls-2" points="32 75 35 79 5 79 8 75 32 75"/><polygon class="cls-2" points="32 59 35 63 5 63 8 59 32 59"/><path class="cls-3" d="M39,82v6a3,3,0,0,1-3,3H4a3,3,0,0,1-3-3V82a3,3,0,0,1,3-3H36A3,3,0,0,1,39,82Z"/><path class="cls-3" d="M39,66v6a3,3,0,0,1-3,3H4a3,3,0,0,1-3-3V66a3,3,0,0,1,3-3H36A3,3,0,0,1,39,66Z"/><path class="cls-3" d="M39,50v6a3,3,0,0,1-3,3H4a3,3,0,0,1-3-3V50a3,3,0,0,1,3-3H36A3,3,0,0,1,39,50Z"/><polygon class="cls-2" points="88 45 91 49 61 49 64 45 88 45"/><polygon class="cls-2" points="88 29 91 33 61 33 64 29 88 29"/><polygon class="cls-2" points="88 13 91 17 61 17 64 13 88 13"/><path class="cls-3" d="M95,36v6a3,3,0,0,1-3,3H60a3,3,0,0,1-3-3V36a3,3,0,0,1,3-3H92A3,3,0,0,1,95,36Z"/><path class="cls-3" d="M95,20v6a3,3,0,0,1-3,3H60a3,3,0,0,1-3-3V20a3,3,0,0,1,3-3H92A3,3,0,0,1,95,20Z"/><path class="cls-3" d="M95,4v6a3,3,0,0,1-3,3H60a3,3,0,0,1-3-3V4a3,3,0,0,1,3-3H92A3,3,0,0,1,95,4Z"/><circle class="cls-4" cx="61" cy="79" r="7"/><circle class="cls-5" cx="35" cy="17" r="7"/><path class="cls-6" d="M36,46H9a1,1,0,0,0,0,2H36a2,2,0,0,1,2,2v6a2,2,0,0,1-2,2H4a2,2,0,0,1-2-2V50a2,2,0,0,1,2-2,1,1,0,0,0,0-2,4,4,0,0,0-4,4v6a4,4,0,0,0,4,4H6L4.5,62H4a4,4,0,0,0-4,4v6a4,4,0,0,0,4,4H6L4.5,78H4a4,4,0,0,0-4,4v6a4,4,0,0,0,4,4H6L4.5,94H1a1,1,0,0,0,0,2H39a1,1,0,0,0,0-2H35.5L34,92h2a4,4,0,0,0,4-4V82a4,4,0,0,0-4-4h-.5L34,76h2a4,4,0,0,0,4-4V66a4,4,0,0,0-4-4h-.5L34,60h2a4,4,0,0,0,4-4V50A4,4,0,0,0,36,46ZM33,94H7l1.5-2h23Zm5-12v6a2,2,0,0,1-2,2H4a2,2,0,0,1-2-2V82a2,2,0,0,1,2-2H36A2,2,0,0,1,38,82Zm-5-4H7l1.5-2h23Zm5-12v6a2,2,0,0,1-2,2H4a2,2,0,0,1-2-2V66a2,2,0,0,1,2-2H36A2,2,0,0,1,38,66Zm-5-4H7l1.5-2h23Z"/><path class="cls-6" d="M5,54a1,1,0,0,0,2,0V52a1,1,0,0,0-2,0Z"/><path class="cls-6" d="M12,54V52a1,1,0,0,0-2,0v2a1,1,0,0,0,2,0Z"/><path class="cls-6" d="M17,54V52a1,1,0,0,0-2,0v2a1,1,0,0,0,2,0Z"/><path class="cls-6" d="M34,54a1,1,0,0,0,0-2H22a1,1,0,0,0,0,2Z"/><path class="cls-6" d="M6,67a1,1,0,0,0-1,1v2a1,1,0,0,0,2,0V68A1,1,0,0,0,6,67Z"/><path class="cls-6" d="M11,67a1,1,0,0,0-1,1v2a1,1,0,0,0,2,0V68A1,1,0,0,0,11,67Z"/><path class="cls-6" d="M16,67a1,1,0,0,0-1,1v2a1,1,0,0,0,2,0V68A1,1,0,0,0,16,67Z"/><path class="cls-6" d="M34,68H22a1,1,0,0,0,0,2H34a1,1,0,0,0,0-2Z"/><path class="cls-6" d="M6,83a1,1,0,0,0-1,1v2a1,1,0,0,0,2,0V84A1,1,0,0,0,6,83Z"/><path class="cls-6" d="M11,83a1,1,0,0,0-1,1v2a1,1,0,0,0,2,0V84A1,1,0,0,0,11,83Z"/><path class="cls-6" d="M16,83a1,1,0,0,0-1,1v2a1,1,0,0,0,2,0V84A1,1,0,0,0,16,83Z"/><path class="cls-6" d="M34,84H22a1,1,0,0,0,0,2H34a1,1,0,0,0,0-2Z"/><path class="cls-6" d="M92,14a4,4,0,0,0,4-4V4a4,4,0,0,0-4-4H60a4,4,0,0,0-4,4v6a4,4,0,0,0,4,4h2l-1.5,2H60a4,4,0,0,0-4,4v6a4,4,0,0,0,4,4h2l-1.5,2H60a4,4,0,0,0-4,4v6a4,4,0,0,0,4,4h2l-1.5,2H57a1,1,0,0,0,0,2H82a1,1,0,0,0,0-2H63l1.5-2h23L89,48H87a1,1,0,0,0,0,2h8a1,1,0,0,0,0-2H91.5L90,46h2a4,4,0,0,0,4-4V36a4,4,0,0,0-4-4h-.5L90,30h2a4,4,0,0,0,4-4V20a4,4,0,0,0-4-4h-.5L90,14ZM58,10V4a2,2,0,0,1,2-2H92a2,2,0,0,1,2,2v6a2,2,0,0,1-2,2H60A2,2,0,0,1,58,10ZM94,36v6a2,2,0,0,1-2,2H60a2,2,0,0,1-2-2V36a2,2,0,0,1,2-2H92A2,2,0,0,1,94,36Zm-5-4H63l1.5-2h23Zm5-12v6a2,2,0,0,1-2,2H60a2,2,0,0,1-2-2V20a2,2,0,0,1,2-2H92A2,2,0,0,1,94,20Zm-5-4H63l1.5-2h23Z"/><path class="cls-6" d="M62,5a1,1,0,0,0-1,1V8a1,1,0,0,0,2,0V6A1,1,0,0,0,62,5Z"/><path class="cls-6" d="M67,5a1,1,0,0,0-1,1V8a1,1,0,0,0,2,0V6A1,1,0,0,0,67,5Z"/><path class="cls-6" d="M72,5a1,1,0,0,0-1,1V8a1,1,0,0,0,2,0V6A1,1,0,0,0,72,5Z"/><path class="cls-6" d="M90,6H78a1,1,0,0,0,0,2H90a1,1,0,0,0,0-2Z"/><path class="cls-6" d="M62,21a1,1,0,0,0-1,1v2a1,1,0,0,0,2,0V22A1,1,0,0,0,62,21Z"/><path class="cls-6" d="M67,21a1,1,0,0,0-1,1v2a1,1,0,0,0,2,0V22A1,1,0,0,0,67,21Z"/><path class="cls-6" d="M72,21a1,1,0,0,0-1,1v2a1,1,0,0,0,2,0V22A1,1,0,0,0,72,21Z"/><path class="cls-6" d="M90,22H78a1,1,0,0,0,0,2H90a1,1,0,0,0,0-2Z"/><path class="cls-6" d="M62,37a1,1,0,0,0-1,1v2a1,1,0,0,0,2,0V38A1,1,0,0,0,62,37Z"/><path class="cls-6" d="M67,37a1,1,0,0,0-1,1v2a1,1,0,0,0,2,0V38A1,1,0,0,0,67,37Z"/><path class="cls-6" d="M72,37a1,1,0,0,0-1,1v2a1,1,0,0,0,2,0V38A1,1,0,0,0,72,37Z"/><path class="cls-6" d="M90,38H78a1,1,0,0,0,0,2H90a1,1,0,0,0,0-2Z"/><path class="cls-6" d="M52,18a1,1,0,0,0,0-2H42.931A8,8,0,1,0,34,24.931V42a1,1,0,0,0,2,0V24.931A8.008,8.008,0,0,0,42.931,18ZM35,23a6,6,0,1,1,6-6A6.006,6.006,0,0,1,35,23Z"/><path class="cls-6" d="M62,71.069V54a1,1,0,0,0-2,0V71.069A8.008,8.008,0,0,0,53.069,78H44a1,1,0,0,0,0,2h9.069A8,8,0,1,0,62,71.069ZM61,85a6,6,0,1,1,6-6A6.006,6.006,0,0,1,61,85Z"/><path class="cls-6" d="M36.707,14.293a1,1,0,0,0-1.414,0l-2,2a1,1,0,0,0,0,1.414l2,2a1,1,0,0,0,1.414-1.414L35.414,17l1.293-1.293A1,1,0,0,0,36.707,14.293Z"/><path class="cls-6" d="M60.707,76.293a1,1,0,0,0-1.414,1.414L60.586,79l-1.293,1.293a1,1,0,1,0,1.414,1.414l2-2a1,1,0,0,0,0-1.414Z"/></g></svg>