<svg xmlns="http://www.w3.org/2000/svg" viewBox="0 0 64 64"><defs><style>.cls-1{fill:#ccd3eb;}.cls-2{fill:#f5f7ff;}.cls-3{fill:#0074ff;}.cls-4{fill:#033c59;}.cls-5{fill:#eb7f58;}</style></defs><title>Warning</title><g id="Warning"><path class="cls-1" d="M60,13V51.1A2,2,0,0,1,58,53H6a2,2,0,0,1-2-1.9V13Z"/><path class="cls-2" d="M55,10.9V43.29A5.82,5.82,0,0,1,49.12,49H4V11H6l0-.1Z"/><path class="cls-3" d="M60,6v8H4V6A2,2,0,0,1,6,4H58A2,2,0,0,1,60,6Z"/><circle class="cls-2" cx="42" cy="9" r="2"/><circle class="cls-2" cx="48" cy="9" r="2"/><circle class="cls-2" cx="54" cy="9" r="2"/><path class="cls-2" d="M9,8a1,1,0,0,0,0,2H28a1,1,0,0,0,0-2Z"/><path class="cls-3" d="M44,61H20a3.88,3.88,0,0,1-2.63-1,4,4,0,0,1-.81-5l12-20.34a4,4,0,0,1,6.9,0L47.44,55A4,4,0,0,1,44,61Z"/><path class="cls-4" d="M39.89,40.2a1,1,0,0,0-1.72,1l.54.91a1,1,0,0,0,.86.48,1,1,0,0,0,.51-.14,1,1,0,0,0,.35-1.37Z"/><path class="cls-5" d="M32,52a1,1,0,0,1-1-1V40a1,1,0,0,1,2,0V51A1,1,0,0,1,32,52Z"/><path class="cls-5" d="M32,58a2,2,0,1,1,2-2A2,2,0,0,1,32,58Zm0-2Z"/><path class="cls-2" d="M32,52a1,1,0,0,0,1-1V40a1,1,0,0,0-2,0V51A1,1,0,0,0,32,52Z"/><circle class="cls-2" cx="32" cy="56" r="2"/><path class="cls-4" d="M58,3H6A3,3,0,0,0,3,6V51a3,3,0,0,0,3,3H16l-.27.46A5,5,0,0,0,20,62H44a5,5,0,0,0,4.3-7.54L48,54H58a3,3,0,0,0,3-3V6A3,3,0,0,0,58,3ZM6,5H58a1,1,0,0,1,1,1v7H5V6A1,1,0,0,1,6,5ZM58,52H46.85l-4.47-7.58a1,1,0,1,0-1.72,1l5.92,10A3,3,0,0,1,44,60H20a3,3,0,0,1-2.58-4.52l12-20.34a3,3,0,0,1,5.18,0l1.55,2.64a1,1,0,1,0,1.72-1l-1.55-2.64a5,5,0,0,0-8.62,0L17.15,52H6a1,1,0,0,1-1-1V15H59V51A1,1,0,0,1,58,52Z"/><circle class="cls-2" cx="42" cy="9" r="2"/><circle class="cls-2" cx="48" cy="9" r="2"/><circle class="cls-2" cx="54" cy="9" r="2"/><path class="cls-2" d="M9,10H28a1,1,0,0,0,0-2H9a1,1,0,0,0,0,2Z"/></g></svg>