<svg xmlns="http://www.w3.org/2000/svg" viewBox="0 0 64 64"><defs><style>.cls-1{fill:#0074ff;}.cls-2{fill:#ccd3eb;}.cls-3{fill:#f5f7ff;}.cls-4{fill:#033c59;}.cls-5{fill:#96a1c3;}</style></defs><title>Layer</title><g id="Layer"><path class="cls-1" d="M61,6V18H4V6A2,2,0,0,1,6,4H59A2,2,0,0,1,61,6Z"/><path class="cls-2" d="M61,18V58a2,2,0,0,1-2,2H7a2,2,0,0,1-2-2V18Z"/><path class="cls-3" d="M56,18.9V51.29A5.88,5.88,0,0,1,50,57H4V19H6v-.1Z"/><rect class="cls-3" x="8" y="8" width="30" height="6" rx="2"/><circle class="cls-3" cx="49" cy="11" r="2"/><circle class="cls-3" cx="43" cy="11" r="2"/><circle class="cls-3" cx="55" cy="11" r="2"/><path class="cls-4" d="M10,15H36a3,3,0,0,0,3-3V10a3,3,0,0,0-3-3H10a3,3,0,0,0-3,3v2A3,3,0,0,0,10,15ZM9,10a1,1,0,0,1,1-1H36a1,1,0,0,1,1,1v2a1,1,0,0,1-1,1H10a1,1,0,0,1-1-1Z"/><path class="cls-4" d="M58,3H6A3,3,0,0,0,3,6V58a3,3,0,0,0,3,3H58a3,3,0,0,0,3-3V6A3,3,0,0,0,58,3ZM6,5H58a1,1,0,0,1,1,1V17H5V6A1,1,0,0,1,6,5ZM58,59H6a1,1,0,0,1-1-1V19H59V58A1,1,0,0,1,58,59Z"/><path class="cls-5" d="M51,47a1.46,1.46,0,0,1-.93,1.36L33.93,54.64a5.35,5.35,0,0,1-3.86,0L28.38,54,13.93,48.36a1.46,1.46,0,0,1,0-2.72L20.71,43H43.29l6.78,2.64A1.46,1.46,0,0,1,51,47Z"/><path class="cls-2" d="M46,46a1.46,1.46,0,0,1-.93,1.36L28.93,53.64a5.12,5.12,0,0,1-1.55.34L12.93,48.36a1.46,1.46,0,0,1,0-2.72L19.71,43H40.86l4.21,1.64A1.46,1.46,0,0,1,46,46Z"/><path class="cls-5" d="M51,39a1.46,1.46,0,0,1-.93,1.36L43.29,43l-9.36,3.64a5.35,5.35,0,0,1-3.86,0L28.38,46l-7.67-3-6.78-2.64a1.46,1.46,0,0,1,0-2.72L20.71,35H43.29l6.78,2.64A1.46,1.46,0,0,1,51,39Z"/><path class="cls-2" d="M46,38a1.46,1.46,0,0,1-.93,1.36L38.29,42l-9.36,3.64a5.12,5.12,0,0,1-1.55.34l-7.67-3-6.78-2.64a1.46,1.46,0,0,1,0-2.72L19.71,35H40.86l4.21,1.64A1.46,1.46,0,0,1,46,38Z"/><path class="cls-5" d="M51,31a1.46,1.46,0,0,1-.93,1.36L43.29,35l-9.36,3.64a5.35,5.35,0,0,1-3.86,0L28.38,38l-7.67-3-6.78-2.64a1.46,1.46,0,0,1,0-2.72l16.14-6.28A5.12,5.12,0,0,1,31.62,23,2.36,2.36,0,0,1,32,23a5.29,5.29,0,0,1,1.93.36l16.14,6.28A1.46,1.46,0,0,1,51,31Z"/><path class="cls-2" d="M46,30a1.46,1.46,0,0,1-.93,1.36L38.29,34l-9.36,3.64a5.12,5.12,0,0,1-1.55.34l-7.67-3-6.78-2.64a1.46,1.46,0,0,1,0-2.72l16.14-6.28A5.12,5.12,0,0,1,30.62,23l14.45,5.62A1.46,1.46,0,0,1,46,30Z"/><path class="cls-4" d="M52,31a2.43,2.43,0,0,0-1.57-2.29L34.3,22.43a6.37,6.37,0,0,0-4.59,0L13.56,28.71a2.46,2.46,0,0,0,0,4.58L18,35l-4.4,1.71a2.46,2.46,0,0,0,0,4.58L18,43l-4.4,1.71a2.46,2.46,0,0,0,0,4.58L29.7,55.57A6.18,6.18,0,0,0,32,56a6.09,6.09,0,0,0,2.29-.43l16.15-6.28a2.46,2.46,0,0,0,0-4.58L46,43l4.4-1.71a2.46,2.46,0,0,0,0-4.58L46,35l4.4-1.71A2.44,2.44,0,0,0,52,31ZM49.7,46.57A.46.46,0,0,1,50,47a.47.47,0,0,1-.29.43L33.56,53.71a4.44,4.44,0,0,1-3.13,0L14.3,47.43A.46.46,0,0,1,14,47a.47.47,0,0,1,.29-.43l6.42-2.5,9,3.5A6.18,6.18,0,0,0,32,48a6.09,6.09,0,0,0,2.29-.43l9-3.5Zm0-15.14-7.25,2.82a1,1,0,1,0,.72,1.86l.11,0,6.41,2.5A.46.46,0,0,1,50,39a.47.47,0,0,1-.29.43L33.56,45.71a4.44,4.44,0,0,1-3.13,0L14.3,39.43A.46.46,0,0,1,14,39a.47.47,0,0,1,.29-.43l6.42-2.5,9,3.5a6.38,6.38,0,0,0,4.58,0l.16-.06a1,1,0,0,0-.7-1.88l-.18.07a4.44,4.44,0,0,1-3.13,0L14.3,31.43A.46.46,0,0,1,14,31a.47.47,0,0,1,.29-.43l16.15-6.28a4.44,4.44,0,0,1,3.13,0L49.7,30.57A.46.46,0,0,1,50,31,.47.47,0,0,1,49.71,31.43Z"/><path class="cls-4" d="M38.74,35.7l-1.3.5a1,1,0,0,0,.36,1.93.92.92,0,0,0,.36-.07l1.3-.5a1,1,0,1,0-.72-1.86Z"/></g></svg>