<svg xmlns="http://www.w3.org/2000/svg" viewBox="0 0 64 64"><defs><style>.cls-1{fill:#8dd5f6;}.cls-2{fill:#ffe4c2;}.cls-3{fill:#ffc247;}.cls-4{fill:#dfe1ea;}.cls-5{fill:#ffa426;}.cls-6{fill:#bec3d2;}.cls-7{fill:#adb2c7;}.cls-8{fill:#f5cd62;}.cls-9{fill:#f5d882;}.cls-10{fill:#f5e3a7;}.cls-11{fill:#fff;}.cls-12{fill:#aedff7;}</style></defs><title>56-Coding</title><g id="_56-Coding" data-name="56-Coding"><polygon class="cls-1" points="13 54 13 61 11 63 7 63 5 61 5 54 13 54"/><polygon class="cls-2" points="9 1 13 9 9 8 5 9 9 1"/><polygon class="cls-3" points="13 9 13 54 5 54 5 9 9 8 13 9"/><rect class="cls-4" x="17" y="1" width="46" height="62" rx="2" ry="2"/><path class="cls-5" d="M9,8,5,9v3.094c3.612.277,5.111,1.111,8,1.579V9Z"/><path class="cls-6" d="M46.6,34c-7.6,0-7.6-2-15.2-2C24.08,32,23.785,33.847,17,33.987V61a2.006,2.006,0,0,0,2,2H61a2.006,2.006,0,0,0,2-2V32.022c-.383-.012-.773-.022-1.2-.022C54.2,32,54.2,34,46.6,34Z"/><path class="cls-7" d="M54.718,11.077A2.418,2.418,0,0,0,52.705,10H33.3a2.418,2.418,0,0,0-2.013,1.077l-2.439,3.659a2.418,2.418,0,0,0-.07,2.572L40.3,36.811A2.418,2.418,0,0,0,42.381,38h1.238A2.418,2.418,0,0,0,45.7,36.811l11.525-19.5a2.418,2.418,0,0,0-.07-2.572Z"/><polygon class="cls-3" points="55 13 42 35 40 35 46 13 55 13"/><polygon class="cls-3" points="51 7 55 13 46 13 51 7"/><polygon class="cls-5" points="51 7 46 13 40 7 51 7"/><polygon class="cls-3" points="35 13 25 13 29 7 35 13"/><polygon class="cls-5" points="40 7 35 13 29 7 40 7"/><polygon class="cls-3" points="46 13 35 13 40 7 46 13"/><polygon class="cls-5" points="46 13 40 35 35 13 46 13"/><polygon class="cls-3" points="35 13 40 35 38 35 25 13 35 13"/><path class="cls-8" d="M50.6,18a25.883,25.883,0,0,1-5.806-.56L43,24a25.2,25.2,0,0,0,4.966.9l4.1-6.933C51.6,17.989,51.121,18,50.6,18Z"/><path class="cls-9" d="M37.285,23.052A25.159,25.159,0,0,1,43,24l1.789-6.561c-2.652-.579-4.381-1.4-9.106-1.435Z"/><path class="cls-10" d="M37.285,23.052l-1.6-7.047c-.1,0-.186,0-.289,0a26.29,26.29,0,0,0-7.973,1.1l3.657,6.189A28.748,28.748,0,0,1,35.394,23C36.09,23,36.7,23.022,37.285,23.052Z"/><path class="cls-7" d="M36.727,41.382a10,10,0,0,1-.091,19.263,9.923,9.923,0,0,1-4.427.191,9.975,9.975,0,0,1-8.164-8.927c-.027-.3-.045-.6-.045-.909A9.995,9.995,0,0,1,34,41,9.625,9.625,0,0,1,36.727,41.382Z"/><polygon class="cls-4" points="55 38 55 46 47 46 55 38"/><polygon class="cls-11" points="55 38 47 46 47 38 55 38"/><polygon class="cls-4" points="55 50 55 58 47 58 55 50"/><polygon class="cls-11" points="55 50 47 58 47 50 55 50"/><path class="cls-1" d="M34.727,38.382a10,10,0,0,1-.091,19.263,9.923,9.923,0,0,1-4.427.191,9.975,9.975,0,0,1-8.164-8.927c-.027-.3-.045-.6-.045-.909A9.995,9.995,0,0,1,32,38,9.625,9.625,0,0,1,34.727,38.382Z"/><path class="cls-12" d="M34.727,38.382A9.625,9.625,0,0,0,32,38a9.98,9.98,0,0,0-8.42,4.615c4.863.329,5.577,1.749,11.688,1.749a23.273,23.273,0,0,0,5.778-.618A9.993,9.993,0,0,0,34.727,38.382Z"/><path class="cls-11" d="M29.293,51.707l-3-3a1,1,0,0,1,0-1.414l3-3,1.414,1.414L28.414,48l2.293,2.293Z"/><path class="cls-11" d="M34.707,51.707l-1.414-1.414L35.586,48l-2.293-2.293,1.414-1.414,3,3a1,1,0,0,1,0,1.414Z"/><path d="M13.9,8.553l-4-8a1.042,1.042,0,0,0-1.79,0l-4,8,.012,0A.983.983,0,0,0,4,9V56H2V34H0V56a1.959,1.959,0,0,0,2,2H4v3a1,1,0,0,0,.293.707l2,2A1,1,0,0,0,7,64h4a1,1,0,0,0,.707-.293l2-2A1,1,0,0,0,14,61V9a.983.983,0,0,0-.117-.442ZM9,3.236,11.133,7.5,9.243,7.03a.976.976,0,0,0-.486,0L6.867,7.5ZM12,53H6V9.781l3-.75,3,.75Zm-1.414,9H7.414L6,60.586V55h6v5.586Z"/><rect x="8" y="12" width="2" height="39"/><path d="M61,0H19a3,3,0,0,0-3,3V61a3,3,0,0,0,3,3H61a3,3,0,0,0,3-3V3A3,3,0,0,0,61,0Zm1,61a1,1,0,0,1-1,1H19a1,1,0,0,1-1-1V3a1,1,0,0,1,1-1H61a1,1,0,0,1,1,1Z"/><path d="M37.139,35.509A1,1,0,0,0,38,36h4a1,1,0,0,0,.861-.491l13-22a1,1,0,0,0-.029-1.064l-4-6A1,1,0,0,0,51,6H29a1,1,0,0,0-.832.445l-4,6a1,1,0,0,0-.029,1.064ZM26.753,14H34.2l4.545,20h-.176ZM40.067,8.481,43.586,12H37.135Zm-5.134,3.038L31.414,8h6.451ZM42.414,8h6.451l-2.932,3.519Zm2.277,6-4.6,16.876L36.253,14ZM41.429,34h-.12l5.455-20h6.483Zm11.7-22h-5l2.776-3.331ZM29.156,8.57,32.586,12H26.869Z"/><path d="M32,37A11,11,0,1,0,43,48,11.013,11.013,0,0,0,32,37Zm0,20a9,9,0,1,1,9-9A9.01,9.01,0,0,1,32,57Z"/><path d="M55,37H47a1,1,0,0,0-1,1v8a1,1,0,0,0,1,1h8a1,1,0,0,0,1-1V38A1,1,0,0,0,55,37Zm-2.414,2L48,43.586V39Zm-3.172,6L54,40.414V45Z"/><path d="M55,49H47a1,1,0,0,0-1,1v8a1,1,0,0,0,1,1h8a1,1,0,0,0,1-1V50A1,1,0,0,0,55,49Zm-2.414,2L48,55.586V51Zm-3.172,6L54,52.414V57Z"/><rect x="22" y="33" width="10" height="2"/><rect x="22" y="29" width="7" height="2"/><rect x="22" y="25" width="5" height="2"/><rect x="22" y="21" width="3" height="2"/><rect x="48" y="33" width="10" height="2"/><rect x="51" y="29" width="7" height="2"/><rect x="53" y="25" width="5" height="2"/><rect x="55" y="21" width="3" height="2"/></g></svg>