<svg xmlns="http://www.w3.org/2000/svg" viewBox="0 0 64 64"><defs><style>.cls-1{fill:#dfe1ea;}.cls-2{fill:#adb2c7;}.cls-3{fill:#cdd2e1;}.cls-4{fill:#e9edf5;}.cls-5{fill:#ff636e;}.cls-6{fill:#f6fafd;}.cls-7{fill:#8dd5f6;}.cls-8{fill:#ffe4c2;}.cls-9{fill:#ffc247;}.cls-10{fill:#ffa426;}.cls-11{fill:#fff;}</style></defs><title>35-Development</title><g id="_35-Development" data-name="35-Development"><path class="cls-1" d="M63,11V61a2.006,2.006,0,0,1-2,2H3a2.006,2.006,0,0,1-2-2V11Z"/><path class="cls-2" d="M61,1a2.006,2.006,0,0,1,2,2v8H1V3A2.006,2.006,0,0,1,3,1Z"/><path class="cls-3" d="M39.6,21c-7.6,0-7.6-2-15.2-2s-7.6,2-15.2,2A26.743,26.743,0,0,1,1,19.844v8A26.743,26.743,0,0,0,9.2,29c7.6,0,7.6-2,15.2-2s7.6,2,15.2,2,7.6-2,15.2-2A26.787,26.787,0,0,1,63,28.157v-8A26.787,26.787,0,0,0,54.8,19C47.2,19,47.2,21,39.6,21Z"/><path class="cls-4" d="M1,11v8.844A26.743,26.743,0,0,0,9.2,21c7.6,0,7.6-2,15.2-2s7.6,2,15.2,2,7.6-2,15.2-2A26.787,26.787,0,0,1,63,20.157V11Z"/><polygon class="cls-2" points="53 34 33 34 13 34 9 34 7 36 7 38 9 40 13 40 33 40 53 40 61 37 53 34"/><circle class="cls-5" cx="31" cy="21" r="5"/><circle class="cls-6" cx="31" cy="21" r="2"/><g id="_Group_" data-name="&lt;Group&gt;"><polygon class="cls-7" points="11 31 11 37 7 37 5 35 5 33 7 31 11 31"/><polygon class="cls-8" points="59 34 51 37 52 34 51 31 59 34"/><polygon class="cls-9" points="51 31 52 34 51 37 31 37 11 37 11 31 31 31 51 31"/><path class="cls-10" d="M52,34l-1-3H44.306a24.977,24.977,0,0,1,.687,6H51Z"/><rect class="cls-11" x="5" y="5" width="2" height="2"/><rect class="cls-11" x="14" y="5" width="45" height="2"/><path d="M61,0H3A3,3,0,0,0,0,3V61a3,3,0,0,0,3,3H61a3,3,0,0,0,3-3V3A3,3,0,0,0,61,0ZM3,2H61a1,1,0,0,1,1,1v7H2V3A1,1,0,0,1,3,2ZM61,62H3a1,1,0,0,1-1-1V12H62V61A1,1,0,0,1,61,62Z"/><rect x="9" y="5" width="2" height="2"/><path d="M59.352,33.063l-8-3,0,.006A1,1,0,0,0,51,30H32V26.91a6,6,0,1,0-2,0V30H7a1,1,0,0,0-.707.293l-2,2A1,1,0,0,0,4,33v2a1,1,0,0,0,.293.707l2,2A1,1,0,0,0,7,38H30v3H26v2H36V41H32V38H51a1,1,0,0,0,.349-.069l0,.006,8-3a1,1,0,0,0,0-1.874ZM27,21a4,4,0,1,1,4,4A4,4,0,0,1,27,21ZM6,34.586V33.414L7.414,32H10v4H7.414ZM12,36V32H50.279l.667,2-.667,2Zm40.611-.672.337-1.012a.977.977,0,0,0,0-.632l-.337-1.012L56.152,34Z"/><path d="M42,50a.812.812,0,0,1-.71-.291c-.61-.742-.472-2.688-.31-3.514A1,1,0,0,0,40,45H38v2h.865a5.865,5.865,0,0,0,.877,3.977A2.715,2.715,0,0,0,41,51.845v.31a2.715,2.715,0,0,0-1.258.868A5.865,5.865,0,0,0,38.865,57H38v2h2a1,1,0,0,0,.98-1.2c-.162-.826-.3-2.772.31-3.514A.812.812,0,0,1,42,54a1,1,0,0,0,1-1V51A1,1,0,0,0,42,50Z"/><rect x="30" y="51" width="2" height="2"/><rect x="26" y="51" width="2" height="2"/><rect x="34" y="51" width="2" height="2"/><path d="M21.228,45.366a1,1,0,0,0-.208.829c.162.826.3,2.772-.31,3.514A.812.812,0,0,1,20,50a1,1,0,0,0-1,1v2a1,1,0,0,0,1,1,.812.812,0,0,1,.71.291c.61.742.472,2.688.31,3.514A1,1,0,0,0,22,59h2V57h-.865a5.865,5.865,0,0,0-.877-3.977A2.715,2.715,0,0,0,21,52.155v-.31a2.715,2.715,0,0,0,1.258-.868A5.865,5.865,0,0,0,23.135,47H24V45H22A1,1,0,0,0,21.228,45.366Z"/></g></g></svg>