<svg xmlns="http://www.w3.org/2000/svg" viewBox="0 0 64 64"><defs><style>.cls-1{fill:#adb2c7;}.cls-2{fill:#fff;}.cls-3{fill:#8dd5f6;}.cls-4{fill:#ff636e;}.cls-5{fill:#aedff7;}.cls-6{fill:#f6fafd;}.cls-7{fill:#73c6b2;}.cls-8{fill:#dfe1ea;}.cls-9{fill:#ffa426;}</style></defs><title>62-Flowchart</title><g id="_62-Flowchart" data-name="62-Flowchart"><polygon class="cls-1" points="21 12 21 20 13 20 21 12"/><polygon class="cls-2" points="21 12 13 20 13 12 21 12"/><polygon class="cls-1" points="51 12 51 20 43 20 51 12"/><polygon class="cls-2" points="51 12 43 20 43 12 51 12"/><path class="cls-3" d="M39.14,30.5a1,1,0,0,1-.87,1.5H25.73a1,1,0,0,1-.87-1.5l6.27-10.97a1,1,0,0,1,1.74,0Z"/><circle class="cls-4" cx="32" cy="6" r="5"/><path class="cls-5" d="M31.13,19.53l-2.63,4.6A25.259,25.259,0,0,0,35.6,25c.141,0,.262,0,.4-.006L32.87,19.53A1,1,0,0,0,31.13,19.53Z"/><path class="cls-2" d="M37.711,28H26.289L24.86,30.5a1,1,0,0,0,.87,1.5H38.27a1,1,0,0,0,.87-1.5Z"/><circle class="cls-6" cx="32" cy="6" r="2"/><rect class="cls-2" x="10" y="49" width="20" height="14"/><rect class="cls-7" x="10" y="41" width="20" height="8"/><rect class="cls-8" x="13" y="52" width="14" height="8"/><rect class="cls-2" x="34" y="49" width="20" height="14"/><rect class="cls-9" x="34" y="41" width="20" height="8"/><rect class="cls-8" x="37" y="52" width="14" height="8"/><rect class="cls-2" x="13" y="44" width="2" height="2"/><rect class="cls-2" x="17" y="44" width="2" height="2"/><rect class="cls-2" x="37" y="44" width="2" height="2"/><rect class="cls-2" x="41" y="44" width="2" height="2"/><path d="M17.293,52.293l-3,3a1,1,0,0,0,0,1.414l3,3,1.414-1.414L16.414,56l2.293-2.293Z"/><path d="M22.707,52.293l-1.414,1.414L23.586,56l-2.293,2.293,1.414,1.414,3-3a1,1,0,0,0,0-1.414Z"/><path d="M54,40H45V37a1,1,0,0,0-1-1H33V33h5.269a2,2,0,0,0,1.74-3L33.741,19.03A1.992,1.992,0,0,0,33,18.285V11.91a6,6,0,1,0-2,0v6.375a1.992,1.992,0,0,0-.741.745L23.991,30a2,2,0,0,0,1.74,3H31v3H20a1,1,0,0,0-1,1v3H10a1,1,0,0,0-1,1V63a1,1,0,0,0,1,1H30a1,1,0,0,0,1-1V41a1,1,0,0,0-1-1H21V38H43v2H34a1,1,0,0,0-1,1V63a1,1,0,0,0,1,1H54a1,1,0,0,0,1-1V41A1,1,0,0,0,54,40ZM28,6a4,4,0,1,1,4,4A4,4,0,0,1,28,6Zm4,14.022L35.99,27H28.012ZM25.727,30.993,26.867,29H37.133l1.142,2h-.006ZM11,62V50H29V62ZM29,48H11V42H29Zm24-6v6H35V42ZM35,62V50H53V62Z"/><path d="M41.293,52.293l-3,3a1,1,0,0,0,0,1.414l3,3,1.414-1.414L40.414,56l2.293-2.293Z"/><path d="M46.707,52.293l-1.414,1.414L47.586,56l-2.293,2.293,1.414,1.414,3-3a1,1,0,0,0,0-1.414Z"/><path d="M13,21h8a1,1,0,0,0,1-1V17h6V15H22V12a1,1,0,0,0-1-1H13a1,1,0,0,0-1,1v8A1,1,0,0,0,13,21Zm2.414-2L20,14.414V19Zm3.172-6L14,17.586V13Z"/><path d="M36,15v2h6v3a1,1,0,0,0,1,1h8a1,1,0,0,0,1-1V12a1,1,0,0,0-1-1H43a1,1,0,0,0-1,1v3Zm9.414,4L50,14.414V19Zm3.172-6L44,17.586V13Z"/></g></svg>