<svg xmlns="http://www.w3.org/2000/svg" xmlns:xlink="http://www.w3.org/1999/xlink" viewBox="0 0 64 64"><defs><style>.cls-1{fill:#96a1c3;}.cls-2{fill:#f0f7fc;}.cls-3{fill:#ccd3eb;}.cls-4{fill:#f5f7ff;}.cls-5{fill:url(#linear-gradient);}.cls-6{fill:url(#linear-gradient-2);}.cls-7{fill:url(#linear-gradient-3);}.cls-8{fill:url(#linear-gradient-4);}.cls-9{fill:url(#linear-gradient-5);}.cls-10{fill:url(#linear-gradient-6);}.cls-11{fill:#033c59;}.cls-12{fill:#0074ff;}</style><linearGradient id="linear-gradient" x1="7" y1="19" x2="18" y2="19" gradientUnits="userSpaceOnUse"><stop offset="0" stop-color="#fe9661"/><stop offset="1" stop-color="#ffb369"/></linearGradient><linearGradient id="linear-gradient-2" x1="11.54" y1="27.96" x2="21.46" y2="18.04" xlink:href="#linear-gradient"/><linearGradient id="linear-gradient-3" x1="25" y1="36" x2="36" y2="36" xlink:href="#linear-gradient"/><linearGradient id="linear-gradient-4" x1="29.04" y1="44.46" x2="37.96" y2="35.54" xlink:href="#linear-gradient"/><linearGradient id="linear-gradient-5" x1="48.5" y1="41" x2="48.5" y2="39" xlink:href="#linear-gradient"/><linearGradient id="linear-gradient-6" x1="38" y1="36" x2="46" y2="36" xlink:href="#linear-gradient"/></defs><title>Smartphone</title><g id="Smartphone"><path class="cls-1" d="M49,49v5.4A5.64,5.64,0,0,1,43.33,60H20.67A5.64,5.64,0,0,1,15,54.4V49Z"/><path class="cls-2" d="M33,55H31a1,1,0,0,1,0-2h2a1,1,0,0,1,0,2Z"/><path class="cls-3" d="M49,9V49H15V9.6A5.64,5.64,0,0,1,20.67,4H44A5,5,0,0,1,49,9Z"/><path class="cls-4" d="M46,9V49H15V9.6A5.64,5.64,0,0,1,20.67,4H41A5,5,0,0,1,46,9Z"/><path class="cls-1" d="M39,4V8a2,2,0,0,1-2,2H27a2,2,0,0,1-2-2V4Z"/><rect class="cls-1" x="4" y="15" width="32" height="12" rx="2"/><rect class="cls-1" x="22" y="32" width="38" height="12" rx="2"/><path class="cls-3" d="M34,15v8a2,2,0,0,1-2,2H4V17a2,2,0,0,1,2-2Z"/><path class="cls-3" d="M58,32v8a2,2,0,0,1-2,2H22V34a2,2,0,0,1,2-2Z"/><path class="cls-5" d="M17,20H8a1,1,0,0,1,0-2h9a1,1,0,0,1,0,2Z"/><path class="cls-6" d="M25,24H8a1,1,0,0,1,0-2H25a1,1,0,0,1,0,2Z"/><path class="cls-7" d="M35,37H26a1,1,0,0,1,0-2h9a1,1,0,0,1,0,2Z"/><path class="cls-8" d="M41,41H26a1,1,0,0,1,0-2H41a1,1,0,0,1,0,2Z"/><path class="cls-9" d="M52,41H45a1,1,0,0,1,0-2h7a1,1,0,0,1,0,2Z"/><path class="cls-10" d="M45,37H39a1,1,0,0,1,0-2h6a1,1,0,0,1,0,2Z"/><path class="cls-11" d="M31,55h2a1,1,0,0,0,0-2H31a1,1,0,0,0,0,2Z"/><path class="cls-11" d="M35,33h1a1,1,0,0,0,0-2H35a1,1,0,0,0,0,2Z"/><path class="cls-11" d="M58,31H50V9a6,6,0,0,0-6-6H20.67A6.64,6.64,0,0,0,14,9.6V14H6a3,3,0,0,0-3,3v8a3,3,0,0,0,3,3h8V54.4A6.64,6.64,0,0,0,20.67,61H43.33A6.64,6.64,0,0,0,50,54.4V45h8a3,3,0,0,0,3-3V34A3,3,0,0,0,58,31ZM26,5H38V8a1,1,0,0,1-1,1H27a1,1,0,0,1-1-1ZM6,26a1,1,0,0,1-1-1V17a1,1,0,0,1,1-1H34a1,1,0,0,1,1,1v8a1,1,0,0,1-1,1ZM48,54.4A4.64,4.64,0,0,1,43.33,59H20.67A4.64,4.64,0,0,1,16,54.4V50H48ZM59,42a1,1,0,0,1-1,1H24a1,1,0,0,1-1-1V34a1,1,0,0,1,1-1h7a1,1,0,0,0,0-2H24a3,3,0,0,0-3,3v8a3,3,0,0,0,3,3H48v3H16V28H34a3,3,0,0,0,3-3V17a3,3,0,0,0-3-3H16V9.6A4.64,4.64,0,0,1,20.67,5H24V8a3,3,0,0,0,3,3H37a3,3,0,0,0,3-3V5h4a4,4,0,0,1,4,4V31H40a1,1,0,0,0,0,2H58a1,1,0,0,1,1,1Z"/><path class="cls-12" d="M8,20h9a1,1,0,0,0,0-2H8a1,1,0,0,0,0,2Z"/><path class="cls-12" d="M25,22H8a1,1,0,0,0,0,2H25a1,1,0,0,0,0-2Z"/><path class="cls-12" d="M26,37h9a1,1,0,0,0,0-2H26a1,1,0,0,0,0,2Z"/><path class="cls-12" d="M41,39H26a1,1,0,0,0,0,2H41a1,1,0,0,0,0-2Z"/><path class="cls-12" d="M52,39H45a1,1,0,0,0,0,2h7a1,1,0,0,0,0-2Z"/><path class="cls-12" d="M39,37h6a1,1,0,0,0,0-2H39a1,1,0,0,0,0,2Z"/></g></svg>