<svg id="_1-App" data-name="1-App" xmlns="http://www.w3.org/2000/svg" viewBox="0 0 64 64"><defs><style>.cls-1{fill:#979faf;}.cls-2{fill:#adb2c7;}.cls-3{fill:#8dd5f6;}.cls-4{fill:#dfe1ea;}.cls-5{fill:#aedff7;}.cls-6{fill:#f6fafd;}.cls-7{fill:#7e8596;}.cls-8{fill:#0096cf;}.cls-9{fill:#fff;}.cls-10{fill:#73c6b2;}.cls-11{fill:#e9edf5;}</style></defs><title>1-App</title><rect class="cls-1" x="19" y="59" width="26" height="3"/><polygon class="cls-2" points="40 50 45 59 19 59 24 50 40 50"/><path class="cls-3" d="M63,4V42H1V4A2.006,2.006,0,0,1,3,2H61A2.006,2.006,0,0,1,63,4Z"/><path class="cls-4" d="M63,42v6a2.006,2.006,0,0,1-2,2H3a2.006,2.006,0,0,1-2-2V42Z"/><path class="cls-5" d="M61,2H3A2.006,2.006,0,0,0,1,4V18.844A26.743,26.743,0,0,0,9.2,20c7.6,0,7.6-2,15.2-2s7.6,2,15.2,2,7.6-2,15.2-2A26.787,26.787,0,0,1,63,19.157V4A2.006,2.006,0,0,0,61,2Z"/><path class="cls-6" d="M61,2H3A2.006,2.006,0,0,0,1,4v7.844A26.743,26.743,0,0,0,9.2,13c7.6,0,7.6-2,15.2-2s7.6,2,15.2,2,7.6-2,15.2-2A26.787,26.787,0,0,1,63,12.157V4A2.006,2.006,0,0,0,61,2Z"/><path class="cls-7" d="M24,50l-1.832,3.3A25.289,25.289,0,0,0,28.6,54c6.6,0,7.475-1.507,12.57-1.9L40,50Z"/><rect class="cls-8" x="42" y="20" width="20" height="22" rx="0.99" ry="0.99"/><rect class="cls-8" x="7" y="22" width="15" height="15" rx="0.99" ry="0.99"/><rect class="cls-8" x="19" y="8" width="17" height="15" rx="0.99" ry="0.99"/><rect class="cls-9" x="39" y="24" width="20" height="14"/><rect class="cls-10" x="39" y="16" width="20" height="8"/><polygon class="cls-11" points="32.5 7 19 20 19 6 33 6 33 7 32.5 7"/><polygon class="cls-9" points="33 6 33 20 18.481 20 32.481 6 33 6"/><polygon class="cls-11" points="19 20 19 34 4.481 34 18.481 20 19 20"/><polygon class="cls-9" points="19 20 19 21 18.5 21 5 34 5 20 19 20"/><path d="M61,1H3A3,3,0,0,0,0,4V48a3,3,0,0,0,3,3H22.3l-4.175,7.514A1,1,0,0,0,18,59v2H16v2H48V61H46V59a1,1,0,0,0-.126-.486L41.7,51H61a3,3,0,0,0,3-3V4A3,3,0,0,0,61,1ZM3,3H61a1,1,0,0,1,1,1V41H2V4A1,1,0,0,1,3,3ZM20,61V60H44v1Zm23.3-3H20.7l3.888-7H39.412ZM61,49H3a1,1,0,0,1-1-1V43H62v5A1,1,0,0,1,61,49Z"/><path d="M5,35H19a1,1,0,0,0,1-1V21H33a1,1,0,0,0,1-1V6a1,1,0,0,0-1-1H19a1,1,0,0,0-1,1V19H5a1,1,0,0,0-1,1V34A1,1,0,0,0,5,35Zm2.414-2L18,22.414V33Zm14-14L32,8.414V19ZM30.586,7,20,17.586V7Zm-14,14L6,31.586V21Z"/><path d="M39,39H59a1,1,0,0,0,1-1V16a1,1,0,0,0-1-1H39a1,1,0,0,0-1,1V38A1,1,0,0,0,39,39Zm1-2V25H58V37ZM58,17v6H40V17Z"/><path d="M30.707,31.293l-1.414,1.414L30.586,34H24v2h6.586l-1.293,1.293,1.414,1.414,3-3a1,1,0,0,0,0-1.414Z"/><path d="M30.707,22.293l-1.414,1.414L30.586,25H24v2h6.586l-1.293,1.293,1.414,1.414,3-3a1,1,0,0,0,0-1.414Z"/><rect class="cls-9" x="42" y="19" width="2" height="2"/><rect class="cls-9" x="46" y="19" width="2" height="2"/><rect class="cls-4" x="42" y="27" width="14" height="8"/></svg>