<svg xmlns="http://www.w3.org/2000/svg" viewBox="0 0 64 64"><defs><style>.cls-1{fill:#8dd5f6;}.cls-2{fill:#0096cf;}.cls-3{fill:#dfe1ea;}.cls-4{fill:#adb2c7;}.cls-5{fill:#aedff7;}.cls-6{fill:#f6fafd;}.cls-7{fill:#ffc247;}.cls-8{fill:#ffa426;}.cls-9{fill:#f5cd62;}.cls-10{fill:#f5d882;}.cls-11{fill:#f5e3a7;}.cls-12{fill:#fff;}.cls-13{fill:#73c6b2;}</style></defs><title>65-Coding</title><g id="_65-Coding" data-name="65-Coding"><rect class="cls-1" x="7" y="11" width="50" height="35" rx="1" ry="1"/><rect class="cls-2" x="35" y="25" width="22" height="21" rx="1.085" ry="1.085"/><path class="cls-3" d="M61,8V50H40v2a1,1,0,0,1-1,1H25a1,1,0,0,1-1-1V50H3V8L4,7H60ZM57,45V12a1,1,0,0,0-1-1H8a1,1,0,0,0-1,1V45a1,1,0,0,0,1,1H56A1,1,0,0,0,57,45Z"/><path class="cls-4" d="M63,50v6l-1,1H2L1,56V50H24v2a1,1,0,0,0,1,1H39a1,1,0,0,0,1-1V50H63Z"/><path class="cls-5" d="M55.8,19c-7.6,0-7.6,2-15.2,2s-7.6-2-15.2-2-7.6,2-15.2,2A31.65,31.65,0,0,1,7,20.85v7a31.65,31.65,0,0,0,3.2.15c7.6,0,7.6-2,15.2-2s7.6,2,15.2,2,7.6-2,15.2-2c.43,0,.82.01,1.2.022v-7C56.617,19.01,56.227,19,55.8,19Z"/><path class="cls-6" d="M25.394,19c7.6,0,7.6,2,15.2,2s7.6-2,15.2-2c.43,0,.82.01,1.2.022V12a1,1,0,0,0-1-1H8a1,1,0,0,0-1,1v8.85a31.65,31.65,0,0,0,3.2.15C17.794,21,17.794,19,25.394,19Z"/><path class="cls-2" d="M39.718,19.077A2.418,2.418,0,0,0,37.705,18H18.3a2.418,2.418,0,0,0-2.013,1.077l-2.439,3.659a2.418,2.418,0,0,0-.07,2.572L25.3,44.811A2.418,2.418,0,0,0,27.381,46h1.238A2.418,2.418,0,0,0,30.7,44.811l11.525-19.5a2.418,2.418,0,0,0-.07-2.572Z"/><polygon class="cls-7" points="41 21 28 42 26 42 32 21 41 21"/><polygon class="cls-7" points="37 15 41 21 32 21 37 15"/><polygon class="cls-8" points="37 15 32 21 26 15 37 15"/><polygon class="cls-7" points="21 21 11 21 15 15 21 21"/><polygon class="cls-8" points="26 15 21 21 15 15 26 15"/><polygon class="cls-7" points="32 21 21 21 26 15 32 21"/><polygon class="cls-8" points="32 21 26 42 21 21 32 21"/><polygon class="cls-7" points="21 21 26 42 24 42 11 21 21 21"/><path class="cls-9" d="M36.6,26a25.883,25.883,0,0,1-5.806-.56L29,32a25.2,25.2,0,0,0,4.966.9l4.1-6.933C37.6,25.989,37.121,26,36.6,26Z"/><path class="cls-10" d="M23.285,31.052A25.159,25.159,0,0,1,29,32l1.789-6.561c-2.652-.579-4.381-1.4-9.106-1.435Z"/><path class="cls-11" d="M23.285,31.052l-1.6-7.047c-.1,0-.186,0-.289,0a26.29,26.29,0,0,0-7.973,1.1l3.657,6.189A28.748,28.748,0,0,1,21.394,31C22.09,31,22.7,31.022,23.285,31.052Z"/><rect class="cls-12" x="35" y="33" width="18" height="9"/><rect class="cls-13" x="35" y="25" width="18" height="8"/><rect class="cls-3" x="38" y="35.576" width="14" height="6.424"/><rect class="cls-12" x="38" y="28" width="2" height="2"/><rect class="cls-12" x="42" y="28" width="2" height="2"/><path d="M63,49H62V8a1,1,0,0,0-.293-.707l-1-1A1,1,0,0,0,60,6H4a1,1,0,0,0-.707.293l-1,1A1,1,0,0,0,2,8V49H1a1,1,0,0,0-1,1v6a1,1,0,0,0,.293.707l1,1A1,1,0,0,0,2,58H62a1,1,0,0,0,.707-.293l1-1A1,1,0,0,0,64,56V50A1,1,0,0,0,63,49ZM4,8.414,4.414,8H59.586L60,8.414V49H40a1,1,0,0,0-1,1v2H25V50a1,1,0,0,0-1-1H4ZM62,55.586,61.586,56H2.414L2,55.586V51H23v1a2,2,0,0,0,2,2H39a2,2,0,0,0,2-2V51H62Z"/><path d="M58,45V12a2,2,0,0,0-2-2H8a2,2,0,0,0-2,2V45a2,2,0,0,0,2,2H56A2,2,0,0,0,58,45ZM8,12H56V45L8,45Z"/><path d="M27.443,41h-.117l5.429-19H41a1,1,0,0,0,.832-1.555l-4-6A1,1,0,0,0,37,14H15a1,1,0,0,0-.832.445l-4,6a1,1,0,0,0-.019,1.081l13,21A1,1,0,0,0,24,43h4a1,1,0,0,0,.851-.474l4-6.462-1.7-1.052ZM26.067,16.481,29.586,20h-6.45Zm-5.134,3.038L17.414,16h6.45ZM28.414,16h6.45l-2.931,3.519Zm2.26,6L26.088,38.052,22.266,22Zm8.458-2h-5l2.775-3.331ZM15.155,16.57,18.586,20H12.868ZM12.8,22H20.21l4.524,19h-.177Z"/><path d="M53,24H35a1,1,0,0,0-1,1V42a1,1,0,0,0,1,1H53a1,1,0,0,0,1-1V25A1,1,0,0,0,53,24Zm-1,2v6H36V26ZM36,41V34H52v7Z"/><path d="M46.293,21.707l1.414-1.414L45.414,18l2.293-2.293-1.414-1.414-3,3a1,1,0,0,0,0,1.414Z"/><path d="M50.707,14.293l-1.414,1.414L51.586,18l-2.293,2.293,1.414,1.414,3-3a1,1,0,0,0,0-1.414Z"/></g></svg>