<svg xmlns="http://www.w3.org/2000/svg" width="96" height="96" viewBox="0 0 96 96"><defs><style>.cls-1{fill:#e5eefd;}.cls-2{fill:#96c0ff;}.cls-3{fill:#c3d4ef;}.cls-4{fill:#283d54;}</style></defs><title>8.Sync</title><g id="_8.Sync" data-name="8.Sync"><path class="cls-1" d="M59,14v3H40V12H57A1.959,1.959,0,0,1,59,14Z"/><path class="cls-2" d="M11,17V9.98S11,6,14.98,6H39.01a.97.97,0,0,1,.99.99V17H67a4,4,0,0,1,4,4L67,71a4,4,0,0,1-4,4H9a4,4,0,0,1-4-4L3.32,49.97,1,21a4,4,0,0,1,4-4Z"/><polygon class="cls-3" points="88 86 91 90 61 90 64 86 88 86"/><polygon class="cls-3" points="88 70 91 74 61 74 64 70 88 70"/><polygon class="cls-3" points="88 54 91 58 61 58 64 54 88 54"/><path class="cls-1" d="M95,77v6a3,3,0,0,1-3,3H60a3,3,0,0,1-3-3V77a3,3,0,0,1,3-3H92A3,3,0,0,1,95,77Z"/><path class="cls-1" d="M95,61v6a3,3,0,0,1-3,3H60a3,3,0,0,1-3-3V61a3,3,0,0,1,3-3H92A3,3,0,0,1,95,61Z"/><path class="cls-1" d="M95,45v6a3,3,0,0,1-3,3H60a3,3,0,0,1-3-3V45a3,3,0,0,1,3-3H92A3,3,0,0,1,95,45Z"/><circle class="cls-1" cx="32" cy="45" r="17"/><path class="cls-4" d="M24,7l15,.019V17a1,1,0,0,0,1,1H54a1,1,0,0,0,0-2H41V13H56.988A.919.919,0,0,1,58,14v3a1,1,0,0,0,1,1h8a2.993,2.993,0,0,1,3,2.92L68.634,38.036a1,1,0,0,0,.917,1.076l.081,0a1,1,0,0,0,1-.92L72,21a5.006,5.006,0,0,0-5-5H60V14a2.916,2.916,0,0,0-3-3H41V6.99A1.949,1.949,0,0,0,39.01,5H24a1,1,0,0,0,0,2Z"/><path class="cls-4" d="M92,55a4,4,0,0,0,4-4V45a4,4,0,0,0-4-4H60a4,4,0,0,0-4,4v6a4,4,0,0,0,4,4h2l-1.5,2H60a4,4,0,0,0-4,4v6a4,4,0,0,0,4,4h2l-1.5,2H60a3.966,3.966,0,0,0-2.618,1H9a3.026,3.026,0,0,1-3-3.08L2,21a3,3,0,0,1,3-3H27a1,1,0,0,0,0-2H12V9.98A2.845,2.845,0,0,1,14.98,7H18a1,1,0,0,0,0-2H14.98A4.8,4.8,0,0,0,10,9.98V16H5a5.019,5.019,0,0,0-5,5.08L4,71a5.006,5.006,0,0,0,5,5H56.142A3.939,3.939,0,0,0,56,77v6a4,4,0,0,0,4,4h2l-1.5,2H57a1,1,0,0,0,0,2H82a1,1,0,0,0,0-2H63l1.5-2h23L89,89H87a1,1,0,0,0,0,2h8a1,1,0,0,0,0-2H91.5L90,87h2a4,4,0,0,0,4-4V77a4,4,0,0,0-4-4h-.5L90,71h2a4,4,0,0,0,4-4V61a4,4,0,0,0-4-4h-.5L90,55ZM58,51V45a2,2,0,0,1,2-2H92a2,2,0,0,1,2,2v6a2,2,0,0,1-2,2H60A2,2,0,0,1,58,51ZM94,77v6a2,2,0,0,1-2,2H60a2,2,0,0,1-2-2V77a1.983,1.983,0,0,1,.312-1.063.978.978,0,0,0,.625-.625A1.985,1.985,0,0,1,60,75H92A2,2,0,0,1,94,77Zm-5-4H63l1.5-2h23Zm5-12v6a2,2,0,0,1-2,2H60a2,2,0,0,1-2-2V61a2,2,0,0,1,2-2H92A2,2,0,0,1,94,61Zm-5-4H63l1.5-2h23Z"/><path class="cls-4" d="M62,46a1,1,0,0,0-1,1v2a1,1,0,0,0,2,0V47A1,1,0,0,0,62,46Z"/><path class="cls-4" d="M67,46a1,1,0,0,0-1,1v2a1,1,0,0,0,2,0V47A1,1,0,0,0,67,46Z"/><path class="cls-4" d="M72,46a1,1,0,0,0-1,1v2a1,1,0,0,0,2,0V47A1,1,0,0,0,72,46Z"/><path class="cls-4" d="M90,47H78a1,1,0,0,0,0,2H90a1,1,0,0,0,0-2Z"/><path class="cls-4" d="M62,62a1,1,0,0,0-1,1v2a1,1,0,0,0,2,0V63A1,1,0,0,0,62,62Z"/><path class="cls-4" d="M67,62a1,1,0,0,0-1,1v2a1,1,0,0,0,2,0V63A1,1,0,0,0,67,62Z"/><path class="cls-4" d="M72,62a1,1,0,0,0-1,1v2a1,1,0,0,0,2,0V63A1,1,0,0,0,72,62Z"/><path class="cls-4" d="M90,63H78a1,1,0,0,0,0,2H90a1,1,0,0,0,0-2Z"/><path class="cls-4" d="M62,78a1,1,0,0,0-1,1v2a1,1,0,0,0,2,0V79A1,1,0,0,0,62,78Z"/><path class="cls-4" d="M67,78a1,1,0,0,0-1,1v2a1,1,0,0,0,2,0V79A1,1,0,0,0,67,78Z"/><path class="cls-4" d="M72,78a1,1,0,0,0-1,1v2a1,1,0,0,0,2,0V79A1,1,0,0,0,72,78Z"/><path class="cls-4" d="M90,79H78a1,1,0,0,0,0,2H90a1,1,0,0,0,0-2Z"/><path class="cls-4" d="M14,45A18,18,0,1,0,32,27,18.021,18.021,0,0,0,14,45Zm34,0A16,16,0,1,1,32,29,16.019,16.019,0,0,1,48,45Z"/><path class="cls-4" d="M32,36a1,1,0,0,0,0,2,6.513,6.513,0,0,1,5.059,1.942,8.805,8.805,0,0,1,1.93,5.182l-1.434-.956a1,1,0,0,0-1.11,1.664l3,2c.016.011.035.014.052.024s.055.026.084.04a.971.971,0,0,0,.269.082c.019,0,.034.014.052.016a.838.838,0,0,0,.086,0L40,48a.737.737,0,0,0,.079-.016,1,1,0,0,0,.29-.056c.031-.013.056-.038.086-.053a1.034,1.034,0,0,0,.231-.154c.006-.006.015-.008.021-.014l3-3a1,1,0,0,0-1.414-1.414l-1.335,1.335a10.56,10.56,0,0,0-2.41-6.021A8.419,8.419,0,0,0,32,36Z"/><path class="cls-4" d="M32,52a6.513,6.513,0,0,1-5.059-1.942,8.805,8.805,0,0,1-1.93-5.182l1.434.956a1,1,0,1,0,1.11-1.664l-3-2c-.015-.01-.032-.012-.048-.021a.959.959,0,0,0-.118-.052.976.976,0,0,0-.238-.073c-.019,0-.034-.014-.053-.016s-.05.008-.076.007a.943.943,0,0,0-.231.022.853.853,0,0,0-.152.042.9.9,0,0,0-.164.088.957.957,0,0,0-.146.1c-.011.01-.025.014-.036.025l-3,3a1,1,0,1,0,1.414,1.414l1.335-1.335a10.56,10.56,0,0,0,2.41,6.021A8.419,8.419,0,0,0,32,54a1,1,0,0,0,0-2Z"/></g></svg>