<svg xmlns="http://www.w3.org/2000/svg" viewBox="0 0 64 64"><defs><style>.cls-1{fill:#ff636e;}.cls-2{fill:#dfe1ea;}.cls-3{fill:#adb2c7;}.cls-4{fill:#f6fafd;}.cls-5{fill:#f03049;}.cls-6{fill:#fff;}</style></defs><title>90-Pho File</title><g id="_90-Pho_File" data-name="90-Pho File"><polygon class="cls-1" points="19 1 19 13 8 13 19 1"/><path class="cls-2" d="M56,3V61a2.006,2.006,0,0,1-2,2H10a2.006,2.006,0,0,1-2-2V13H19V1H54A2.006,2.006,0,0,1,56,3Z"/><path class="cls-3" d="M41.6,12c-7.6,0-7.6-2-15.2-2A25.445,25.445,0,0,0,19,10.946V13H8v5.85a31.65,31.65,0,0,0,3.2.15c7.6,0,7.6-2,15.2-2s7.6,2,15.2,2c7.318,0,7.611-1.849,14.405-1.987v-7C49.206,10.151,48.913,12,41.6,12Z"/><path class="cls-4" d="M26.394,10c7.6,0,7.6,2,15.2,2,7.318,0,7.611-1.849,14.405-1.987V3a2.006,2.006,0,0,0-2-2H19v9.946A25.445,25.445,0,0,1,26.394,10Z"/><path class="cls-5" d="M8,13H19V10.813c-3.122-.363-4.6-1.159-7.561-1.564Z"/><path d="M54,0H19a1,1,0,0,0-.737.324l-11,12A1,1,0,0,0,7,13V61a3,3,0,0,0,3,3H54a3,3,0,0,0,3-3V3A3,3,0,0,0,54,0ZM18,3.57V12H10.273ZM55,61a1,1,0,0,1-1,1H10a1,1,0,0,1-1-1V14H19a1,1,0,0,0,1-1V2H54a1,1,0,0,1,1,1Z"/><path d="M51,9a.811.811,0,0,1-.71-.29c-.61-.743-.472-2.689-.31-3.516A1,1,0,0,0,49,4H47V6h.865a5.866,5.866,0,0,0,.877,3.977A2.717,2.717,0,0,0,50,10.846v.308a2.717,2.717,0,0,0-1.258.869A5.866,5.866,0,0,0,47.865,16H47v2h2a1,1,0,0,0,.98-1.194c-.162-.827-.3-2.773.31-3.516A.811.811,0,0,1,51,13a1,1,0,0,0,1-1V10A1,1,0,0,0,51,9Z"/><path d="M14.228,44.365a1,1,0,0,0-.208.829c.162.827.3,2.773-.31,3.516A.811.811,0,0,1,13,49a1,1,0,0,0-1,1v2a1,1,0,0,0,1,1,.811.811,0,0,1,.71.29c.61.743.472,2.689.31,3.516A1,1,0,0,0,15,58h2V56h-.865a5.866,5.866,0,0,0-.877-3.977A2.717,2.717,0,0,0,14,51.154v-.308a2.717,2.717,0,0,0,1.258-.869A5.866,5.866,0,0,0,16.135,46H17V44H15A1,1,0,0,0,14.228,44.365Z"/><rect x="27" y="14" width="15" height="2"/><rect x="27" y="10" width="15" height="2"/><rect x="36" y="6" width="6" height="2"/><rect x="20" y="46" width="15" height="2"/><rect x="20" y="50" width="15" height="2"/><rect x="20" y="54" width="6" height="2"/><path class="cls-6" d="M21,22H17a1,1,0,0,0-1,1V40h2V32.062a8.063,8.063,0,0,0,5.162-1.6A5.621,5.621,0,0,0,25,26,3.888,3.888,0,0,0,21,22Zm.856,6.95A6.132,6.132,0,0,1,18,30.062V24h3a1.883,1.883,0,0,1,2,2A3.671,3.671,0,0,1,21.856,28.95Z"/><path class="cls-6" d="M44,22H40a1,1,0,0,0-1,1V40h2V32.062a8.044,8.044,0,0,0,5.162-1.6A5.621,5.621,0,0,0,48,26,3.888,3.888,0,0,0,44,22Zm.856,6.95A6.142,6.142,0,0,1,41,30.062V24h3a1.883,1.883,0,0,1,2,2A3.671,3.671,0,0,1,44.856,28.95Z"/><polygon class="cls-6" points="35 30 29 30 29 22 27 22 27 40 29 40 29 32 35 32 35 40 37 40 37 22 35 22 35 30"/></g></svg>