<svg xmlns="http://www.w3.org/2000/svg" viewBox="0 0 64 64"><defs><style>.cls-1{fill:#ffc247;}.cls-2{fill:#adb2c7;}.cls-3{fill:#ffa426;}.cls-4{fill:#bec3d2;}.cls-5{fill:#f6fafd;}.cls-6{fill:#7e8596;}.cls-7{fill:#fff;}.cls-8{fill:#73c6b2;}.cls-9{fill:#8dd5f6;}.cls-10{fill:#ff636e;}.cls-11{fill:#aedff7;}</style></defs><title>34-Flowchart</title><g id="_34-Flowchart" data-name="34-Flowchart"><polygon class="cls-1" points="19 1 19 13 8 13 19 1"/><path class="cls-2" d="M56,3V61a2.006,2.006,0,0,1-2,2H10a2.006,2.006,0,0,1-2-2V13H19V1H54A2.006,2.006,0,0,1,56,3Z"/><path class="cls-3" d="M8,13H19V10.813c-3.122-.363-4.6-1.159-7.561-1.564Z"/><path class="cls-4" d="M25.394,46c7.6,0,7.6,2,15.2,2s7.6-2,15.2-2c.073,0,.132,0,.2,0V3a2.006,2.006,0,0,0-2-2H19V13H8V47.93c.663.041,1.374.07,2.2.07C17.794,48,17.794,46,25.394,46Z"/><path class="cls-5" d="M26.394,10c7.6,0,7.6,2,15.2,2,7.318,0,7.611-1.849,14.405-1.987V3a2.006,2.006,0,0,0-2-2H19v9.946A25.445,25.445,0,0,1,26.394,10Z"/><rect class="cls-6" x="13" y="22" width="11" height="11" rx="0.561" ry="0.561"/><rect class="cls-6" x="43" y="22" width="11" height="11" rx="0.561" ry="0.561"/><path class="cls-6" d="M44.14,45.5a1,1,0,0,1-.87,1.5H35c-.77,0-3.38-3.33-3-4l4.13-8.47a1,1,0,0,1,1.74,0Z"/><rect class="cls-6" x="32" y="19" width="3" height="32"/><circle class="cls-6" cx="34" cy="18" r="5"/><rect class="cls-6" x="24" y="54" width="22" height="6" rx="0.927" ry="0.927"/><polygon class="cls-2" points="21 22 21 30 13 30 21 22"/><polygon class="cls-7" points="21 22 13 30 13 22 21 22"/><polygon class="cls-2" points="51 22 51 30 43 30 51 22"/><polygon class="cls-7" points="51 22 43 30 43 22 51 22"/><rect class="cls-8" x="21" y="51" width="22" height="6"/><path class="cls-9" d="M39.14,42.5a1,1,0,0,1-.87,1.5H25.73a1,1,0,0,1-.87-1.5l6.27-10.97a1,1,0,0,1,1.74,0Z"/><circle class="cls-10" cx="32" cy="16" r="5"/><path class="cls-11" d="M31.13,31.53l-2.63,4.6A25.259,25.259,0,0,0,35.6,37c.141,0,.262-.005.4-.006L32.87,31.53A1,1,0,0,0,31.13,31.53Z"/><path class="cls-7" d="M37.711,40H26.289L24.86,42.5a1,1,0,0,0,.87,1.5H38.27a1,1,0,0,0,.87-1.5Z"/><rect class="cls-5" x="21" y="51" width="6" height="6"/><path d="M54,0H19a1,1,0,0,0-.737.324l-11,12A1,1,0,0,0,7,13V61a3,3,0,0,0,3,3H54a3,3,0,0,0,3-3V3A3,3,0,0,0,54,0ZM18,3.57V12H10.273ZM55,61a1,1,0,0,1-1,1H10a1,1,0,0,1-1-1V14H19a1,1,0,0,0,1-1V2H54a1,1,0,0,1,1,1Z"/><path d="M13,31h8a1,1,0,0,0,1-1V27h6V25H22V22a1,1,0,0,0-1-1H13a1,1,0,0,0-1,1v8A1,1,0,0,0,13,31Zm2.414-2L20,24.414V29Zm3.172-6L14,27.586V23Z"/><path d="M51,21H43a1,1,0,0,0-1,1v3H36v2h6v3a1,1,0,0,0,1,1h8a1,1,0,0,0,1-1V22A1,1,0,0,0,51,21Zm-2.414,2L44,27.586V23Zm-3.172,6L50,24.414V29Z"/><path d="M43,50H33V45h5.27a2,2,0,0,0,1.738-3L33.743,31.042A1.987,1.987,0,0,0,33,30.29V21.91a6,6,0,1,0-2,0v8.379a1.963,1.963,0,0,0-.738.745L23.99,42.007A2,2,0,0,0,25.73,45H31v5H21a1,1,0,0,0-1,1v6a1,1,0,0,0,1,1H43a1,1,0,0,0,1-1V51A1,1,0,0,0,43,50ZM28,16a4,4,0,1,1,4,4A4,4,0,0,1,28,16Zm4,16.026L35.989,39H28.014ZM25.729,43l1.141-2H37.132l1.143,2h0ZM42,56H22V52H42Z"/><path d="M51,9a.812.812,0,0,1-.71-.291c-.61-.742-.472-2.688-.31-3.514A1,1,0,0,0,49,4H47V6h.865a5.865,5.865,0,0,0,.877,3.977A2.715,2.715,0,0,0,50,10.845v.31a2.715,2.715,0,0,0-1.258.868A5.865,5.865,0,0,0,47.865,16H47v2h2a1,1,0,0,0,.98-1.2c-.162-.826-.3-2.772.31-3.514A.812.812,0,0,1,51,13a1,1,0,0,0,1-1V10A1,1,0,0,0,51,9Z"/><path d="M14.228,44.366a1,1,0,0,0-.208.829c.162.826.3,2.772-.31,3.514A.812.812,0,0,1,13,49a1,1,0,0,0-1,1v2a1,1,0,0,0,1,1,.812.812,0,0,1,.71.291c.61.742.472,2.688.31,3.514A1,1,0,0,0,15,58h2V56h-.865a5.865,5.865,0,0,0-.877-3.977A2.715,2.715,0,0,0,14,51.155v-.31a2.715,2.715,0,0,0,1.258-.868A5.865,5.865,0,0,0,16.135,46H17V44H15A1,1,0,0,0,14.228,44.366Z"/><circle class="cls-5" cx="32" cy="16" r="2"/></g></svg>