<svg xmlns="http://www.w3.org/2000/svg" viewBox="0 0 64 64"><defs><style>.cls-1{fill:#8dd5f6;}.cls-2{fill:#dfe1ea;}.cls-3{fill:#adb2c7;}.cls-4{fill:#aedff7;}.cls-5{fill:#f6fafd;}.cls-6{fill:#0096cf;}.cls-7{fill:#fff;}.cls-8{fill:#ff636e;}.cls-9{fill:#11a892;}.cls-10{fill:#ffc247;}.cls-11{fill:#73c6b2;}</style></defs><title>66-Flowchart</title><g id="_66-Flowchart" data-name="66-Flowchart"><rect class="cls-1" x="7" y="17" width="50" height="35" rx="1" ry="1"/><path class="cls-2" d="M61,14V56H40v2a1,1,0,0,1-1,1H25a1,1,0,0,1-1-1V56H3V14l1-1H60ZM57,51V18a1,1,0,0,0-1-1H8a1,1,0,0,0-1,1V51a1,1,0,0,0,1,1H56A1,1,0,0,0,57,51Z"/><path class="cls-3" d="M63,56v6l-1,1H2L1,62V56H24v2a1,1,0,0,0,1,1H39a1,1,0,0,0,1-1V56H63Z"/><path class="cls-4" d="M55.8,25c-7.6,0-7.6,2-15.2,2s-7.6-2-15.2-2-7.6,2-15.2,2A31.65,31.65,0,0,1,7,26.85v7a31.65,31.65,0,0,0,3.2.15c7.6,0,7.6-2,15.2-2s7.6,2,15.2,2,7.6-2,15.2-2c.43,0,.82.01,1.2.022v-7C56.617,25.01,56.227,25,55.8,25Z"/><path class="cls-5" d="M25.394,25c7.6,0,7.6,2,15.2,2s7.6-2,15.2-2c.43,0,.82.01,1.2.022V18a1,1,0,0,0-1-1H8a1,1,0,0,0-1,1v8.85a31.65,31.65,0,0,0,3.2.15C17.794,27,17.794,25,25.394,25Z"/><rect class="cls-3" x="32" y="13" width="3" height="4"/><path class="cls-6" d="M13,17v5.439a.561.561,0,0,0,.561.561h9.878A.561.561,0,0,0,24,22.439V17Z"/><path class="cls-6" d="M43,17v5.439a.561.561,0,0,0,.561.561h9.878A.561.561,0,0,0,54,22.439V17Z"/><path class="cls-6" d="M43.14,32.5a1,1,0,0,1-.87,1.5H34c-.77,0-3.38-3.33-3-4l4.13-8.47a1,1,0,0,1,1.74,0Z"/><rect class="cls-6" x="32" y="17" width="3" height="24"/><rect class="cls-6" x="25" y="42" width="17" height="6" rx="0.513" ry="0.513"/><polygon class="cls-3" points="21 12 21 20 13 20 21 12"/><polygon class="cls-7" points="21 12 13 20 13 12 21 12"/><polygon class="cls-3" points="51 12 51 20 43 20 51 12"/><polygon class="cls-7" points="51 12 43 20 43 12 51 12"/><rect class="cls-8" x="24" y="39" width="15" height="6"/><path class="cls-9" d="M39.14,30.5a1,1,0,0,1-.87,1.5H25.73a1,1,0,0,1-.87-1.5l6.27-10.97a1,1,0,0,1,1.74,0Z"/><circle class="cls-10" cx="32" cy="6" r="5"/><path class="cls-11" d="M31.13,19.53l-2.63,4.6A25.259,25.259,0,0,0,35.6,25c.141,0,.262,0,.4-.006L32.87,19.53A1,1,0,0,0,31.13,19.53Z"/><path class="cls-7" d="M37.711,28H26.289L24.86,30.5a1,1,0,0,0,.87,1.5H38.27a1,1,0,0,0,.87-1.5Z"/><rect class="cls-5" x="25" y="39" width="6" height="6"/><circle class="cls-5" cx="32" cy="6" r="2"/><rect class="cls-7" x="42" y="34" width="2" height="2"/><path d="M63,55H62V14a1,1,0,0,0-.293-.707l-1-1A1,1,0,0,0,60,12H54v2h5.586l.414.414V55H40a1,1,0,0,0-1,1v2H25V56a1,1,0,0,0-1-1H4V14.414L4.414,14H10V12H4a1,1,0,0,0-.707.293l-1,1A1,1,0,0,0,2,14V55H1a1,1,0,0,0-1,1v6a1,1,0,0,0,.293.707l1,1A1,1,0,0,0,2,64H62a1,1,0,0,0,.707-.293l1-1A1,1,0,0,0,64,62V56A1,1,0,0,0,63,55Zm-1,6.586L61.586,62H2.414L2,61.586V57H23v1a2,2,0,0,0,2,2H39a2,2,0,0,0,2-2V57H62Z"/><path d="M56,51H8V18h2V16H8a2,2,0,0,0-2,2V51a2,2,0,0,0,2,2H56a2,2,0,0,0,2-2V18a2,2,0,0,0-2-2H54v2h2Z"/><path d="M31,11.91v6.375a1.992,1.992,0,0,0-.741.745L23.991,30a2,2,0,0,0,1.74,3H31v5H25a1,1,0,0,0-1,1v6a1,1,0,0,0,1,1H39a1,1,0,0,0,1-1V39a1,1,0,0,0-1-1H33V33h5.269a2,2,0,0,0,1.74-3L33.741,19.03A1.992,1.992,0,0,0,33,18.285V11.91a6,6,0,1,0-2,0ZM38,44H26V40H38Zm.269-13-12.542-.007L26.867,29H37.133l1.142,2ZM35.99,27H28.012L32,20.022ZM32,2a4,4,0,1,1-4,4A4,4,0,0,1,32,2Z"/><path d="M13,21h8a1,1,0,0,0,1-1V17h6V15H22V12a1,1,0,0,0-1-1H13a1,1,0,0,0-1,1v8A1,1,0,0,0,13,21Zm2.414-2L20,14.414V19Zm3.172-6L14,17.586V13Z"/><path d="M36,15v2h6v3a1,1,0,0,0,1,1h8a1,1,0,0,0,1-1V12a1,1,0,0,0-1-1H43a1,1,0,0,0-1,1v3Zm9.414,4L50,14.414V19Zm3.172-6L44,17.586V13Z"/><path d="M51.981,29.194A1,1,0,0,0,51,28H49v2h.865a5.872,5.872,0,0,0,.877,3.977A2.717,2.717,0,0,0,52,34.846v.308a2.717,2.717,0,0,0-1.258.869A5.872,5.872,0,0,0,49.865,40H49v2h2a1,1,0,0,0,.981-1.194c-.163-.827-.3-2.773.309-3.516A.81.81,0,0,1,53,37a1,1,0,0,0,1-1V34a1,1,0,0,0-1-1,.81.81,0,0,1-.71-.29C51.679,31.967,51.818,30.021,51.981,29.194Z"/><rect x="46" y="34" width="2" height="2"/><path d="M10,35v1a1,1,0,0,0,1,1,.81.81,0,0,1,.71.29c.611.743.472,2.689.309,3.516A1,1,0,0,0,13,42h2V40h-.865a5.872,5.872,0,0,0-.877-3.977A2.717,2.717,0,0,0,12,35.154v-.308a2.717,2.717,0,0,0,1.258-.869A5.872,5.872,0,0,0,14.135,30H15V28H13a1,1,0,0,0-.981,1.194c.163.827.3,2.773-.309,3.516A.81.81,0,0,1,11,33a1,1,0,0,0-1,1Z"/><rect x="16" y="34" width="2" height="2"/><rect class="cls-7" x="20" y="34" width="2" height="2"/></g></svg>