<svg xmlns="http://www.w3.org/2000/svg" viewBox="0 0 64 64"><defs><style>.cls-1{fill:#adb2c7;}.cls-2{fill:#dfe1ea;}.cls-3{fill:#ffc247;}.cls-4{fill:#cdd2e1;}.cls-5{fill:#f6fafd;}.cls-6{fill:#ffdfb0;}.cls-7{fill:#7e8596;}.cls-8{fill:#fff;}</style></defs><title>16-Development</title><g id="_16-Development" data-name="16-Development"><g id="_Group_" data-name="&lt;Group&gt;"><path class="cls-1" d="M46,57v5H1V17H4.05a10.917,10.917,0,0,0,3.17,6.78L7,24V57Z"/><path class="cls-2" d="M7.22,23.78a10.919,10.919,0,0,0,5.81,3.04L13,27V52H52v5H7V24Z"/><path class="cls-1" d="M15,27a10.685,10.685,0,0,0,2.9-.39L18,27V45a2.006,2.006,0,0,0,2,2H58v5H13V27l.03-.18A10.694,10.694,0,0,0,15,27Z"/><path class="cls-3" d="M18,5.42a11,11,0,0,1-.1,21.19,10.934,10.934,0,0,1-4.87.21A10.974,10.974,0,0,1,4.05,17c-.03-.33-.05-.66-.05-1A10.994,10.994,0,0,1,15,5,10.609,10.609,0,0,1,18,5.42Z"/><path class="cls-2" d="M63,4V45a2.006,2.006,0,0,1-2,2H20a2.006,2.006,0,0,1-2-2V27l-.1-.39A11,11,0,0,0,18,5.42V4a2.006,2.006,0,0,1,2-2H61A2.006,2.006,0,0,1,63,4Z"/><path class="cls-4" d="M49.6,13c-7.6,0-7.6-2-15.2-2a29.717,29.717,0,0,0-9.013,1.357,10.968,10.968,0,0,1,.1,6.976A29.285,29.285,0,0,1,34.394,18c7.6,0,7.6,2,15.2,2,6.942,0,7.561-1.664,13.405-1.953v-7C57.156,11.336,56.537,13,49.6,13Z"/><path class="cls-5" d="M18,4V5.42a10.994,10.994,0,0,1,7.381,6.937A29.717,29.717,0,0,1,34.394,11c7.6,0,7.6,2,15.2,2,6.942,0,7.561-1.664,13.405-1.953V4a2.006,2.006,0,0,0-2-2H20A2.006,2.006,0,0,0,18,4Z"/><path class="cls-6" d="M18,5.42A10.609,10.609,0,0,0,15,5a10.978,10.978,0,0,0-9.261,5.076C11.087,10.438,11.873,12,18.6,12a25.541,25.541,0,0,0,6.356-.68A11,11,0,0,0,18,5.42Z"/><path class="cls-1" d="M13,30.578V27l.03-.18a10.919,10.919,0,0,1-5.81-3.04L7,24v2.329A11.066,11.066,0,0,0,8.22,27.78,10.938,10.938,0,0,0,13,30.578Z"/><path class="cls-7" d="M17.9,26.61a10.934,10.934,0,0,1-4.87.21L13,27v3.578c.338.095.68.18,1.03.242A10.694,10.694,0,0,0,16,31a10.843,10.843,0,0,0,2-.2V27Z"/><path class="cls-1" d="M17.9,26.61,18,27v3.8c.3-.056.608-.1.9-.185a10.993,10.993,0,0,0,7.074-15.243c.012.21.026.42.026.633A10.988,10.988,0,0,1,17.9,26.61Z"/><path class="cls-1" d="M61,24l1,2-1,2-4.32.58a10.8,10.8,0,0,1-1.3,3.15l2.64,3.46-.71,2.12-2.12.71-3.46-2.64a10.8,10.8,0,0,1-3.15,1.3L48,41l-2,1-2-1-.58-4.32a10.8,10.8,0,0,1-3.15-1.3l-3.46,2.64-2.12-.71-.71-2.12,2.64-3.46a10.8,10.8,0,0,1-1.3-3.15L31,28l-1-2,1-2,4.32-.58a10.8,10.8,0,0,1,1.3-3.15l-2.64-3.46.71-2.12,2.12-.71,3.46,2.64a10.8,10.8,0,0,1,3.15-1.3L44,11l2-1,2,1,.58,4.32a10.8,10.8,0,0,1,3.15,1.3l3.46-2.64,2.12.71.71,2.12-2.64,3.46a10.8,10.8,0,0,1,1.3,3.15Zm-9,2a6,6,0,1,0-6,6A6,6,0,0,0,52,26Z"/><path class="cls-8" d="M58,23l1,2-1,2-4.32.58a10.8,10.8,0,0,1-1.3,3.15l2.64,3.46-.71,2.12-2.12.71-3.46-2.64a10.8,10.8,0,0,1-3.15,1.3L45,40l-2,1-2-1-.58-4.32a10.8,10.8,0,0,1-3.15-1.3l-3.46,2.64-2.12-.71-.71-2.12,2.64-3.46a10.8,10.8,0,0,1-1.3-3.15L28,27l-1-2,1-2,4.32-.58a10.8,10.8,0,0,1,1.3-3.15l-2.64-3.46.71-2.12,2.12-.71,3.46,2.64a10.8,10.8,0,0,1,3.15-1.3L41,10l2-1,2,1,.58,4.32a10.8,10.8,0,0,1,3.15,1.3l3.46-2.64,2.12.71.71,2.12-2.64,3.46a10.8,10.8,0,0,1,1.3,3.15Zm-9,2a6,6,0,1,0-6,6A6,6,0,0,0,49,25Z"/></g><rect class="cls-8" x="11.36" y="15.5" width="7.28" height="2" transform="matrix(0.275, -0.961, 0.961, 0.275, -4.988, 26.386)"/><path d="M61,1H20a3,3,0,0,0-3,3v.172A11.977,11.977,0,0,0,3,16H1a1,1,0,0,0-1,1V62a1,1,0,0,0,1,1H46a1,1,0,0,0,1-1V58h5a1,1,0,0,0,1-1V53h5a1,1,0,0,0,1-1V48h2a3,3,0,0,0,3-3V4A3,3,0,0,0,61,1ZM15,6a9.608,9.608,0,0,1,2.718.379l.011,0a10,10,0,0,1-.1,19.265A9.985,9.985,0,0,1,5.046,16.91C5.019,16.61,5,16.309,5,16A10.011,10.011,0,0,1,15,6ZM45,61H2V18H3.174a11.952,11.952,0,0,0,2.893,6H6V57a1,1,0,0,0,1,1H45Zm6-5H8V25.748a11.8,11.8,0,0,0,4,1.871V52a1,1,0,0,0,1,1H51Zm6-5H14V27.955c.331.027.664.045,1,.045a11.936,11.936,0,0,0,2-.185V45a3,3,0,0,0,3,3H57Zm5-6a1,1,0,0,1-1,1H20a1,1,0,0,1-1-1V27.309A11.99,11.99,0,0,0,19,4.7V4a1,1,0,0,1,1-1H61a1,1,0,0,1,1,1Z"/><path d="M58.9,22.553a1,1,0,0,0-.763-.544l-3.657-.488a11.954,11.954,0,0,0-.9-2.174l2.242-2.932a1,1,0,0,0,.155-.924l-.708-2.121a1,1,0,0,0-.632-.632l-2.121-.708a1,1,0,0,0-.924.155l-2.932,2.242a11.954,11.954,0,0,0-2.174-.9l-.488-3.657a1,1,0,0,0-.544-.763l-2-1a1,1,0,0,0-.894,0l-2,1a1,1,0,0,0-.544.763l-.488,3.657a11.954,11.954,0,0,0-2.174.9l-2.932-2.242a1,1,0,0,0-.924-.155l-2.121.708a1,1,0,0,0-.632.632l-.708,2.121a1,1,0,0,0,.155.924l2.242,2.932a11.954,11.954,0,0,0-.9,2.174l-3.657.488a1,1,0,0,0-.763.544l-1,2a1,1,0,0,0,0,.894l1,2a1,1,0,0,0,.763.544l3.657.488a11.954,11.954,0,0,0,.9,2.174l-2.242,2.932a1,1,0,0,0-.155.924l.708,2.121a1,1,0,0,0,.632.632l2.121.708a1.008,1.008,0,0,0,.924-.155l2.932-2.242a11.954,11.954,0,0,0,2.174.9l.488,3.657a1,1,0,0,0,.544.763l2,1a1,1,0,0,0,.894,0l2-1a1,1,0,0,0,.544-.763l.488-3.657a11.954,11.954,0,0,0,2.174-.9l2.932,2.242a1.007,1.007,0,0,0,.924.155l2.121-.708a1,1,0,0,0,.632-.632l.708-2.121a1,1,0,0,0-.155-.924l-2.242-2.932a11.954,11.954,0,0,0,.9-2.174l3.657-.488a1,1,0,0,0,.763-.544l1-2a1,1,0,0,0,0-.894Zm-1.552,3.526-3.791.5a1,1,0,0,0-.84.757,9.934,9.934,0,0,1-1.19,2.869,1,1,0,0,0,.059,1.13l2.324,3.039-.382,1.144-1.144.382L49.34,33.581a1,1,0,0,0-1.13-.059,9.934,9.934,0,0,1-2.869,1.19,1,1,0,0,0-.757.84l-.505,3.791L43,39.882l-1.079-.539-.505-3.791a1,1,0,0,0-.757-.84,9.934,9.934,0,0,1-2.869-1.19,1,1,0,0,0-1.13.059l-3.039,2.324-1.144-.382L32.1,34.379l2.324-3.039a1,1,0,0,0,.059-1.13,9.934,9.934,0,0,1-1.19-2.869,1,1,0,0,0-.84-.757l-3.791-.5L28.118,25l.539-1.079,3.791-.5a1,1,0,0,0,.84-.757,9.934,9.934,0,0,1,1.19-2.869,1,1,0,0,0-.059-1.13L32.1,15.621l.382-1.144,1.144-.382,3.039,2.324a1,1,0,0,0,1.13.059,9.934,9.934,0,0,1,2.869-1.19,1,1,0,0,0,.757-.84l.505-3.791L43,10.118l1.079.539.505,3.791a1,1,0,0,0,.757.84,9.934,9.934,0,0,1,2.869,1.19,1,1,0,0,0,1.13-.059L52.379,14.1l1.144.382.382,1.144L51.581,18.66a1,1,0,0,0-.059,1.13,9.934,9.934,0,0,1,1.19,2.869,1,1,0,0,0,.84.757l3.791.5L57.882,25Z"/><path d="M43,18a7,7,0,1,0,7,7A7.008,7.008,0,0,0,43,18Zm0,12a5,5,0,1,1,5-5A5.006,5.006,0,0,1,43,30Z"/><path d="M10.293,19.707l1.414-1.414L9.414,16l2.293-2.293-1.414-1.414-3,3a1,1,0,0,0,0,1.414Z"/><path d="M19.707,19.707l3-3a1,1,0,0,0,0-1.414l-3-3-1.414,1.414L20.586,16l-2.293,2.293Z"/><rect x="57" y="6" width="2" height="2"/><rect x="53" y="6" width="2" height="2"/><rect x="26" y="41" width="2" height="2"/><rect x="22" y="41" width="2" height="2"/></g></svg>