<svg xmlns="http://www.w3.org/2000/svg" xmlns:xlink="http://www.w3.org/1999/xlink" viewBox="0 0 64 64"><defs><style>.cls-1{fill:#ccd3eb;}.cls-2{fill:#f5f7ff;}.cls-3{fill:#96a1c3;}.cls-4{fill:#647499;}.cls-5{fill:url(#linear-gradient);}.cls-6{fill:#0668cb;}.cls-7{fill:url(#linear-gradient-2);}.cls-8{fill:#0074ff;}.cls-9{fill:#f0f7fc;}.cls-10{fill:#033c59;}</style><linearGradient id="linear-gradient" x1="30" y1="43" x2="34" y2="43" gradientUnits="userSpaceOnUse"><stop offset="0" stop-color="#d3e6f5"/><stop offset="1" stop-color="#f0f7fc"/></linearGradient><linearGradient id="linear-gradient-2" x1="13" y1="14.5" x2="27" y2="14.5" gradientUnits="userSpaceOnUse"><stop offset="0" stop-color="#fe9661"/><stop offset="1" stop-color="#ffb369"/></linearGradient></defs><title>Support</title><g id="Support"><path class="cls-1" d="M60,10V38H4V10A6,6,0,0,1,8,4.35,5.8,5.8,0,0,1,10,4H54A6,6,0,0,1,60,10Z"/><path class="cls-2" d="M57,10V38H4V10A6,6,0,0,1,8,4.35,5.8,5.8,0,0,1,10,4H51A6,6,0,0,1,57,10Z"/><path class="cls-3" d="M60,38v4a6,6,0,0,1-6,6H10a6,6,0,0,1-6-6V38Z"/><polygon class="cls-4" points="42.29 60 21.71 60 25.83 48 38.17 48 42.29 60"/><path class="cls-5" d="M33,44H31a1,1,0,0,1,0-2h2a1,1,0,0,1,0,2Z"/><path class="cls-6" d="M44,61H20a1,1,0,0,1,0-2H44a1,1,0,0,1,0,2Z"/><path class="cls-3" d="M28,34.27V37a1,1,0,0,1-1,1H13a1,1,0,0,1-1-1V34a8,8,0,0,1,8.53-8,7.61,7.61,0,0,1,3.38,1A8.35,8.35,0,0,1,28,34.27Z"/><path class="cls-1" d="M25,34.27V37a1,1,0,0,1-1,1H12V35a8,8,0,0,1,8.53-8l.38,0A8.35,8.35,0,0,1,25,34.27Z"/><path class="cls-3" d="M24,20v2a4,4,0,0,1-1.17,2.83l-.11.1A4,4,0,0,1,16,22V20a4,4,0,0,1,3.28-3.93A3.38,3.38,0,0,1,20,16,4,4,0,0,1,24,20Z"/><path class="cls-1" d="M22,20v2a4,4,0,0,1-1.17,2.83l-.11.1A3.38,3.38,0,0,1,20,25a4,4,0,0,1-4-4V19a4,4,0,0,1,1.28-2.93A3.38,3.38,0,0,1,18,16,4,4,0,0,1,22,20Z"/><path class="cls-7" d="M26,19a1,1,0,0,1-1-1V17a5,5,0,0,0-10,0v1a1,1,0,0,1-2,0V17a7,7,0,0,1,14,0v1A1,1,0,0,1,26,19Z"/><path class="cls-3" d="M28,19v2a1,1,0,0,1-1,1H24V18h3A1,1,0,0,1,28,19Z"/><path class="cls-3" d="M16,18.46v3.08a.47.47,0,0,1-.46.46H13a1,1,0,0,1-1-1V19a1,1,0,0,1,1-1h2.54A.47.47,0,0,1,16,18.46Z"/><path class="cls-8" d="M53,10v8a2,2,0,0,1-2,2H41l-4,4V20H36a2,2,0,0,1-2-2V10a2,2,0,0,1,2-2H51A2,2,0,0,1,53,10Z"/><path class="cls-9" d="M44,13H38a1,1,0,0,1,0-2h6a1,1,0,0,1,0,2Z"/><path class="cls-9" d="M49,17H38a1,1,0,0,1,0-2H49a1,1,0,0,1,0,2Z"/><path class="cls-10" d="M33,42H31a1,1,0,0,0,0,2h2a1,1,0,0,0,0-2Z"/><path class="cls-10" d="M54,3H10a7,7,0,0,0-7,7V42a7,7,0,0,0,7,7H24.43L21,59H20a1,1,0,0,0,0,2H44a1,1,0,0,0,0-2H43L39.57,49H54a7,7,0,0,0,7-7V10A7,7,0,0,0,54,3ZM10,5H54a5,5,0,0,1,5,5V37H29V34a9,9,0,0,0-5.62-8.34A5,5,0,0,0,24.9,23H27a2,2,0,0,0,2-2V19a2,2,0,0,0-2-2,7,7,0,0,0-14,0,2,2,0,0,0-2,2v2a2,2,0,0,0,2,2h2.1a5,5,0,0,0,1.52,2.66A9,9,0,0,0,11,34v3H5V10A5,5,0,0,1,10,5Zm7,17V20a3,3,0,0,1,6,0v2a3,3,0,0,1-6,0Zm-2-1H13V19h2v2Zm.54-4H15a5,5,0,0,1,10,0H24a5,5,0,0,0-8,.07A1.55,1.55,0,0,0,15.54,17ZM25,20V19h2v2H25Zm2,17H13V34a7,7,0,0,1,14,0ZM40.89,59H23.11l3.43-10H37.46ZM54,47H10a5,5,0,0,1-5-5V39H59v3A5,5,0,0,1,54,47Z"/><path class="cls-10" d="M45,9h1a1,1,0,0,0,0-2H45a1,1,0,0,0,0,2Z"/><path class="cls-10" d="M36,21v3a1,1,0,0,0,.62.92A.84.84,0,0,0,37,25a1,1,0,0,0,.71-.29L41.41,21H51a3,3,0,0,0,3-3V10a3,3,0,0,0-3-3H50a1,1,0,0,0,0,2h1a1,1,0,0,1,1,1v8a1,1,0,0,1-1,1H41a1,1,0,0,0-.38.08,1,1,0,0,0-.33.21L38,21.59V20a1,1,0,0,0-1-1H36a1,1,0,0,1-1-1V10a1,1,0,0,1,1-1h5a1,1,0,0,0,0-2H36a3,3,0,0,0-3,3v8A3,3,0,0,0,36,21Z"/><path class="cls-2" d="M37,12a1,1,0,0,0,1,1h6a1,1,0,0,0,0-2H38A1,1,0,0,0,37,12Z"/><path class="cls-2" d="M37,16a1,1,0,0,0,1,1H49a1,1,0,0,0,0-2H38A1,1,0,0,0,37,16Z"/></g></svg>