<svg xmlns="http://www.w3.org/2000/svg" width="96" height="96" viewBox="0 0 96 96"><defs><style>.cls-1{fill:#96c0ff;}.cls-2{fill:#fff;}.cls-3{fill:#ebf4ff;}.cls-4{fill:#b8d4ff;}.cls-5{fill:#c3d4ef;}.cls-6{fill:#e5eefd;}.cls-7{fill:#f8fafd;}.cls-8{fill:#283d54;}</style></defs><title>19.Network</title><g id="_19.Network" data-name="19.Network"><path class="cls-1" d="M95,8V65H1V8A4,4,0,0,1,5,4H91A4,4,0,0,1,95,8Z"/><polygon class="cls-2" points="58 80 67 92 29 92 38 80 58 80"/><path class="cls-3" d="M95,65V76a4,4,0,0,1-4,4H5a4,4,0,0,1-4-4V65Z"/><circle class="cls-4" cx="48" cy="33" r="25"/><polygon class="cls-5" points="58 80 38 80 35 84 61 84 58 80"/><polygon class="cls-5" points="60 56 63 60 33 60 36 56 60 56"/><polygon class="cls-5" points="60 40 63 44 33 44 36 40 60 40"/><polygon class="cls-5" points="60 24 63 28 33 28 36 24 60 24"/><path class="cls-6" d="M67,47v6a3,3,0,0,1-3,3H32a3,3,0,0,1-3-3V47a3,3,0,0,1,3-3H64A3,3,0,0,1,67,47Z"/><path class="cls-6" d="M67,31v6a3,3,0,0,1-3,3H32a3,3,0,0,1-3-3V31a3,3,0,0,1,3-3H64A3,3,0,0,1,67,31Z"/><path class="cls-6" d="M67,15v6a3,3,0,0,1-3,3H32a3,3,0,0,1-3-3V15a3,3,0,0,1,3-3H64A3,3,0,0,1,67,15Z"/><circle class="cls-7" cx="83" cy="20" r="2"/><circle class="cls-7" cx="86" cy="48" r="2"/><circle class="cls-7" cx="13" cy="48" r="2"/><g id="_Group_" data-name="&lt;Group&gt;"><circle class="cls-7" cx="10" cy="20" r="2"/><path class="cls-8" d="M91,3H5A5.006,5.006,0,0,0,0,8V76a5.006,5.006,0,0,0,5,5,1,1,0,0,0,0-2,3,3,0,0,1-3-3V66H94V76a3,3,0,0,1-3,3H11a1,1,0,0,0,0,2H36L28.5,91H25a1,1,0,0,0,0,2H71a1,1,0,0,0,0-2H67.5L60,81H91a5.006,5.006,0,0,0,5-5V8A5.006,5.006,0,0,0,91,3ZM65,91H31l7.5-10h19ZM2,64V8A3,3,0,0,1,5,5H91a3,3,0,0,1,3,3V64Z"/><path class="cls-8" d="M50,73a1,1,0,0,0,0-2H46a1,1,0,0,0,0,2Z"/><path class="cls-8" d="M64,11H37a1,1,0,0,0,0,2H64a2,2,0,0,1,2,2v6a2,2,0,0,1-2,2H32a2,2,0,0,1-2-2V15a2,2,0,0,1,2-2,1,1,0,0,0,0-2,4,4,0,0,0-4,4v6a4,4,0,0,0,4,4h2l-1.5,2H32a4,4,0,0,0-4,4v6a4,4,0,0,0,4,4h2l-1.5,2H32a4,4,0,0,0-4,4v6a4,4,0,0,0,4,4h2l-1.5,2H29a1,1,0,0,0,0,2H67a1,1,0,0,0,0-2H63.5L62,57h2a4,4,0,0,0,4-4V47a4,4,0,0,0-4-4h-.5L62,41h2a4,4,0,0,0,4-4V31a4,4,0,0,0-4-4h-.5L62,25h2a4,4,0,0,0,4-4V15A4,4,0,0,0,64,11ZM61,59H35l1.5-2h23Zm5-12v6a2,2,0,0,1-2,2H32a2,2,0,0,1-2-2V47a2,2,0,0,1,2-2H64A2,2,0,0,1,66,47Zm-5-4H35l1.5-2h23Zm5-12v6a2,2,0,0,1-2,2H32a2,2,0,0,1-2-2V31a2,2,0,0,1,2-2H64A2,2,0,0,1,66,31Zm-5-4H35l1.5-2h23Z"/><path class="cls-8" d="M33,19a1,1,0,0,0,2,0V17a1,1,0,0,0-2,0Z"/><path class="cls-8" d="M40,19V17a1,1,0,0,0-2,0v2a1,1,0,0,0,2,0Z"/><path class="cls-8" d="M45,19V17a1,1,0,0,0-2,0v2a1,1,0,0,0,2,0Z"/><path class="cls-8" d="M62,19a1,1,0,0,0,0-2H50a1,1,0,0,0,0,2Z"/><path class="cls-8" d="M34,32a1,1,0,0,0-1,1v2a1,1,0,0,0,2,0V33A1,1,0,0,0,34,32Z"/><path class="cls-8" d="M39,32a1,1,0,0,0-1,1v2a1,1,0,0,0,2,0V33A1,1,0,0,0,39,32Z"/><path class="cls-8" d="M44,32a1,1,0,0,0-1,1v2a1,1,0,0,0,2,0V33A1,1,0,0,0,44,32Z"/><path class="cls-8" d="M62,33H50a1,1,0,0,0,0,2H62a1,1,0,0,0,0-2Z"/><path class="cls-8" d="M34,48a1,1,0,0,0-1,1v2a1,1,0,0,0,2,0V49A1,1,0,0,0,34,48Z"/><path class="cls-8" d="M39,48a1,1,0,0,0-1,1v2a1,1,0,0,0,2,0V49A1,1,0,0,0,39,48Z"/><path class="cls-8" d="M44,48a1,1,0,0,0-1,1v2a1,1,0,0,0,2,0V49A1,1,0,0,0,44,48Z"/><path class="cls-8" d="M62,49H50a1,1,0,0,0,0,2H62a1,1,0,0,0,0-2Z"/><path class="cls-8" d="M86,45a3,3,0,0,0-2.816,2H80a1.883,1.883,0,0,1-2-2V35h2a3.888,3.888,0,0,0,4-4V22.816a3,3,0,1,0-2,0V31a1.883,1.883,0,0,1-2,2H72a1,1,0,0,0,0,2h4V45a3.888,3.888,0,0,0,4,4h3.184A2.995,2.995,0,1,0,86,45ZM83,19a1,1,0,1,1-1,1A1,1,0,0,1,83,19Zm3,30a1,1,0,1,1,1-1A1,1,0,0,1,86,49Z"/><path class="cls-8" d="M24,33H20V23a3.888,3.888,0,0,0-4-4H12.816a3,3,0,1,0,0,2H16a1.883,1.883,0,0,1,2,2V33H16a3.888,3.888,0,0,0-4,4v8.184a3,3,0,1,0,2,0V37a1.883,1.883,0,0,1,2-2h8a1,1,0,0,0,0-2ZM10,21a1,1,0,1,1,1-1A1,1,0,0,1,10,21Zm3,28a1,1,0,1,1,1-1A1,1,0,0,1,13,49Z"/></g></g></svg>