<svg xmlns="http://www.w3.org/2000/svg" viewBox="0 0 64 64"><defs><style>.cls-1{fill:#dfe1ea;}.cls-2{fill:#adb2c7;}.cls-3{fill:#cdd2e1;}.cls-4{fill:#f6fafd;}.cls-5{fill:#fff;}.cls-6{fill:#ffcdbe;}.cls-7{fill:#ffbeaa;}</style></defs><title>76-Interface</title><g id="_76-Interface" data-name="76-Interface"><path class="cls-1" d="M63,11V61a2.006,2.006,0,0,1-2,2H3a2.006,2.006,0,0,1-2-2V11Z"/><path class="cls-2" d="M61,1a2.006,2.006,0,0,1,2,2v8H1V3A2.006,2.006,0,0,1,3,1Z"/><path class="cls-3" d="M39.6,21c-7.6,0-7.6-2-15.2-2s-7.6,2-15.2,2A26.743,26.743,0,0,1,1,19.844v8A26.743,26.743,0,0,0,9.2,29c7.6,0,7.6-2,15.2-2s7.6,2,15.2,2,7.6-2,15.2-2A26.787,26.787,0,0,1,63,28.157v-8A26.787,26.787,0,0,0,54.8,19C47.2,19,47.2,21,39.6,21Z"/><path class="cls-4" d="M1,11v8.844A26.743,26.743,0,0,0,9.2,21c7.6,0,7.6-2,15.2-2s7.6,2,15.2,2,7.6-2,15.2-2A26.787,26.787,0,0,1,63,20.157V11Z"/><rect class="cls-2" x="6" y="37" width="11" height="11" rx="0.561" ry="0.561"/><polygon class="cls-1" points="14 37 14 45 6 45 14 37"/><polygon class="cls-5" points="14 37 6 45 6 37 14 37"/><rect class="cls-2" x="19" y="37" width="11" height="11" rx="0.561" ry="0.561"/><polygon class="cls-1" points="27 37 27 45 19 45 27 37"/><polygon class="cls-5" points="27 37 19 45 19 37 27 37"/><rect class="cls-2" x="19" y="50" width="11" height="11" rx="0.561" ry="0.561"/><polygon class="cls-1" points="27 50 27 58 19 58 27 50"/><polygon class="cls-5" points="27 50 19 58 19 50 27 50"/><rect class="cls-2" x="6" y="50" width="11" height="11" rx="0.561" ry="0.561"/><polygon class="cls-1" points="14 50 14 58 6 58 14 50"/><polygon class="cls-5" points="14 50 6 58 6 50 14 50"/><path class="cls-2" d="M46,30V19a1.959,1.959,0,0,0-2-2H43a1.959,1.959,0,0,0-2,2V33.5L42,36Z"/><rect class="cls-5" x="5" y="5" width="2" height="2"/><rect class="cls-5" x="14" y="5" width="45" height="2"/><path class="cls-6" d="M53,35a1.959,1.959,0,0,1,2-2h1a1.959,1.959,0,0,1,2,2V45s0,6-4,6v8H39V51l-2-1-5-5V32a1.959,1.959,0,0,1,2-2h1s3,3,3,4V19a1.959,1.959,0,0,1,2-2h1a1.959,1.959,0,0,1,2,2V30a1.959,1.959,0,0,1,2-2h1a1.959,1.959,0,0,1,2,2v3a1.959,1.959,0,0,1,2-2h1a1.959,1.959,0,0,1,2,2Z"/><path class="cls-7" d="M54,59V52.7A28.636,28.636,0,0,1,49.6,53c-5.648,0-7.1-1.1-10.595-1.671V59Z"/><rect class="cls-5" x="12" y="23" width="2" height="2"/><rect class="cls-5" x="20" y="23" width="2" height="2"/><path d="M61,0H3A3,3,0,0,0,0,3V61a3,3,0,0,0,3,3H61a3,3,0,0,0,3-3V3A3,3,0,0,0,61,0ZM3,2H61a1,1,0,0,1,1,1v7H2V3A1,1,0,0,1,3,2ZM61,62H3a1,1,0,0,1-1-1V12H62V61A1,1,0,0,1,61,62Z"/><rect x="9" y="5" width="2" height="2"/><path d="M56.25,32.02V32H55a3.207,3.207,0,0,0-1.095.2A2.893,2.893,0,0,0,51.25,30.02V30H50a3.253,3.253,0,0,0-1,.162V30a2.88,2.88,0,0,0-2.75-2.98V27H45a3.253,3.253,0,0,0-1,.162V19a2.916,2.916,0,0,0-3-3H40a2.916,2.916,0,0,0-3,3V30.664c-.424-.478-.868-.946-1.293-1.371A1,1,0,0,0,35,29H34a2.916,2.916,0,0,0-3,3V45a1,1,0,0,0,.293.707l5,5a1,1,0,0,0,.26.188L38,51.618V59h2V51a1,1,0,0,0-.553-.9l-1.855-.927L33,44.586V32.012A.919.919,0,0,1,34,31h.581A14.838,14.838,0,0,1,37,34v7h2V19.012A.919.919,0,0,1,40,18h.988A.918.918,0,0,1,42,19V34h2V30.012A.919.919,0,0,1,45,29h.988A.918.918,0,0,1,47,30v5h2V33.012A.919.919,0,0,1,50,32h.988A.918.918,0,0,1,52,33v4h2V35.012A.919.919,0,0,1,55,34h.988A.918.918,0,0,1,57,35V45c0,.051-.05,5-3,5a1,1,0,0,0-1,1v8h2V51.894c3.135-.7,4-4.691,4-6.894V35A2.88,2.88,0,0,0,56.25,32.02Z"/><path d="M14,49H6a1,1,0,0,0-1,1v8a1,1,0,0,0,1,1h8a1,1,0,0,0,1-1V50A1,1,0,0,0,14,49Zm-2.414,2L7,55.586V51ZM8.414,57,13,52.414V57Z"/><path d="M27,49H19a1,1,0,0,0-1,1v8a1,1,0,0,0,1,1h8a1,1,0,0,0,1-1V50A1,1,0,0,0,27,49Zm-2.414,2L20,55.586V51Zm-3.172,6L26,52.414V57Z"/><path d="M14,36H6a1,1,0,0,0-1,1v8a1,1,0,0,0,1,1h8a1,1,0,0,0,1-1V37A1,1,0,0,0,14,36Zm-2.414,2L7,42.586V38ZM8.414,44,13,39.414V44Z"/><path d="M27,36H19a1,1,0,0,0-1,1v8a1,1,0,0,0,1,1h8a1,1,0,0,0,1-1V37A1,1,0,0,0,27,36Zm-2.414,2L20,42.586V38Zm-3.172,6L26,39.414V44Z"/><path d="M27,22a.81.81,0,0,1-.71-.29c-.611-.743-.472-2.689-.309-3.516A1,1,0,0,0,25,17H23v2h.865a5.872,5.872,0,0,0,.877,3.977A2.717,2.717,0,0,0,26,23.846v.308a2.717,2.717,0,0,0-1.258.869A5.872,5.872,0,0,0,23.865,29H23v2h2a1,1,0,0,0,.981-1.194c-.163-.827-.3-2.773.309-3.516A.81.81,0,0,1,27,26a1,1,0,0,0,1-1V23A1,1,0,0,0,27,22Z"/><path d="M7,26a.81.81,0,0,1,.71.29c.611.743.472,2.689.309,3.516A1,1,0,0,0,9,31h2V29h-.865a5.872,5.872,0,0,0-.877-3.977A2.717,2.717,0,0,0,8,24.154v-.308a2.717,2.717,0,0,0,1.258-.869A5.872,5.872,0,0,0,10.135,19H11V17H9a1,1,0,0,0-.981,1.194c.163.827.3,2.773-.309,3.516A.81.81,0,0,1,7,22a1,1,0,0,0-1,1v2A1,1,0,0,0,7,26Z"/><rect x="16" y="23" width="2" height="2"/></g></svg>