<svg xmlns="http://www.w3.org/2000/svg" viewBox="0 0 64 64"><defs><style>.cls-1{fill:#73c6b2;}.cls-2{fill:#ffc247;}.cls-3{fill:#f5f5fc;}.cls-4{fill:#dfe1ea;}.cls-5{fill:#adb2c7;}</style></defs><title>40-Coding</title><g id="_40-Coding" data-name="40-Coding"><circle class="cls-1" cx="59" cy="21" r="3"/><circle class="cls-2" cx="4" cy="38" r="3"/><polygon class="cls-3" points="47 1 47 23 21 23 16 28 16 23 1 23 1 1 47 1"/><polygon class="cls-3" points="63 34 63 58 43 58 38 63 38 58 15 58 15 34 63 34"/><path class="cls-4" d="M2.195,13c7.6,0,7.6-2,15.2-2s7.6,2,15.2,2c7.318,0,7.611-1.849,14.405-1.987v-7C40.206,4.151,39.913,6,32.6,6,25,6,25,4,17.394,4s-7.6,2-15.2,2C1.768,6,1.381,5.99,1,5.978v7C1.381,12.99,1.768,13,2.195,13Z"/><path class="cls-5" d="M17.394,4C25,4,25,6,32.6,6,39.913,6,40.206,4.151,47,4.013V1H1V5.978C1.381,5.99,1.768,6,2.195,6,9.794,6,9.794,4,17.394,4Z"/><path class="cls-4" d="M19.2,46c7.6,0,7.6-2,15.2-2s7.6,2,15.2,2c6.942,0,7.561-1.664,13.405-1.953v-7C57.156,37.336,56.537,39,49.6,39c-7.6,0-7.6-2-15.2-2s-7.6,2-15.2,2A28.99,28.99,0,0,1,15,38.73v7A28.99,28.99,0,0,0,19.2,46Z"/><path class="cls-5" d="M34.394,37c7.6,0,7.6,2,15.2,2,6.942,0,7.561-1.664,13.405-1.953V34H15v4.73a28.99,28.99,0,0,0,4.2.27C26.794,39,26.794,37,34.394,37Z"/><polygon points="12 11 8 11 8 5 6 5 6 19 8 19 8 13 12 13 12 19 14 19 14 5 12 5 12 11"/><polygon points="19 19 21 19 21 7 24 7 24 5 16 5 16 7 19 7 19 19"/><path d="M28,11.515l1.063,2.836a1,1,0,0,0,1.874,0L32,11.515V19h2V6a1,1,0,0,0-1.937-.351L30,11.152l-2.063-5.5A1,1,0,0,0,26,6V19h2Z"/><path d="M39,19h4V17H39a.915.915,0,0,1-1-1V5H36V16A2.916,2.916,0,0,0,39,19Z"/><path d="M1,24H15v4a1,1,0,0,0,1.707.707L21.414,24H47a1,1,0,0,0,1-1V1a1,1,0,0,0-1-1H1A1,1,0,0,0,0,1V23A1,1,0,0,0,1,24ZM2,2H46V22H21a1,1,0,0,0-.707.293L17,25.586V23a1,1,0,0,0-1-1H2Z"/><path d="M63,33H15a1,1,0,0,0-1,1V58a1,1,0,0,0,1,1H37v4a1,1,0,0,0,1.707.707L43.414,59H63a1,1,0,0,0,1-1V34A1,1,0,0,0,63,33ZM62,57H43a1,1,0,0,0-.707.293L39,60.586V58a1,1,0,0,0-1-1H16V35H62Z"/><path d="M51,53a3,3,0,0,1-3-3H46a5,5,0,1,0,5-5,3,3,0,1,1,3-3h2a5,5,0,1,0-5,5,3,3,0,0,1,0,6Z"/><path d="M39,53a3,3,0,0,1-3-3H34a5,5,0,1,0,5-5,3,3,0,1,1,3-3h2a5,5,0,1,0-5,5,3,3,0,0,1,0,6Z"/><path d="M27,55a5.006,5.006,0,0,0,5-5H30a3,3,0,0,1-6,0V42a3,3,0,0,1,6,0h2a5,5,0,0,0-10,0v8A5.006,5.006,0,0,0,27,55Z"/><path d="M58,16v1.142a3.981,3.981,0,0,0,0,7.716V25a2.853,2.853,0,0,1-3,3H22v2H55a4.821,4.821,0,0,0,5-5v-.142a3.981,3.981,0,0,0,0-7.716V16a4.821,4.821,0,0,0-5-5H50v2h4.994A2.854,2.854,0,0,1,58,16Zm3,5a2,2,0,1,1-2-2A2,2,0,0,1,61,21Z"/><path d="M3,34v.142a3.981,3.981,0,0,0,0,7.716V42a5.785,5.785,0,0,0,6,6h3V46H9a3.85,3.85,0,0,1-4-4v-.142a3.981,3.981,0,0,0,0-7.716V34a3.85,3.85,0,0,1,4-4h3V28H9A5.785,5.785,0,0,0,3,34Zm3,4a2,2,0,1,1-2-2A2,2,0,0,1,6,38Z"/></g></svg>