<svg xmlns="http://www.w3.org/2000/svg" viewBox="0 0 64 64"><defs><style>.cls-1{fill:#73c6b2;}.cls-2{fill:#11a892;}.cls-3{fill:#dfe1ea;}.cls-4{fill:#ffcdbe;}.cls-5{fill:#b46e5a;}.cls-6{fill:#ffbeaa;}.cls-7{fill:#f2f6fc;}.cls-8{fill:#bec3d2;}.cls-9{fill:#915041;}.cls-10{fill:#7e8596;}</style></defs><title>53-Programmer</title><g id="_53-Programmer" data-name="53-Programmer"><circle class="cls-1" cx="32" cy="28" r="27"/><path class="cls-2" d="M34,40H29V37.33A6.592,6.592,0,0,0,31,36c2-2,2-3,2-3V31h1a2,2,0,0,0,0-4H33V24h3s0-8-7-8H24s-5,0-5,6v5H18a2,2,0,0,0,0,4h1v2s0,1,2,3a6.592,6.592,0,0,0,2,1.33V40H18s-5,0-5,5V55H39V45C39,40,34,40,34,40Z"/><path class="cls-2" d="M54,22l1,2-1,2-4.32.58a10.8,10.8,0,0,1-1.3,3.15l2.64,3.46-.71,2.12-2.12.71-3.46-2.64a10.8,10.8,0,0,1-3.15,1.3L41,39l-2,1-2-1-.58-4.32a10.8,10.8,0,0,1-3.15-1.3l-3.46,2.64-2.12-.71-.71-2.12,2.64-3.46a10.8,10.8,0,0,1-1.3-3.15L24,26l-1-2,1-2,4.32-.58a10.8,10.8,0,0,1,1.3-3.15l-2.64-3.46.71-2.12,2.12-.71,3.46,2.64a10.8,10.8,0,0,1,3.15-1.3L37,9l2-1,2,1,.58,4.32a10.8,10.8,0,0,1,3.15,1.3l3.46-2.64,2.12.71.71,2.12-2.64,3.46a10.8,10.8,0,0,1,1.3,3.15Zm-9,2a6,6,0,1,0-6,6A6,6,0,0,0,45,24Z"/><path class="cls-3" d="M51,21l1,2-1,2-4.32.58a10.8,10.8,0,0,1-1.3,3.15l2.64,3.46-.71,2.12-2.12.71-3.46-2.64a10.8,10.8,0,0,1-3.15,1.3L38,38l-2,1-2-1-.58-4.32a10.8,10.8,0,0,1-3.15-1.3l-3.46,2.64-2.12-.71-.71-2.12,2.64-3.46a10.8,10.8,0,0,1-1.3-3.15L21,25l-1-2,1-2,4.32-.58a10.8,10.8,0,0,1,1.3-3.15l-2.64-3.46.71-2.12,2.12-.71,3.46,2.64a10.8,10.8,0,0,1,3.15-1.3L34,8l2-1,2,1,.58,4.32a10.8,10.8,0,0,1,3.15,1.3l3.46-2.64,2.12.71.71,2.12-2.64,3.46a10.8,10.8,0,0,1,1.3,3.15Zm-9,2a6,6,0,1,0-6,6A6,6,0,0,0,42,23Z"/><path class="cls-4" d="M30,28a2,2,0,0,1,0,4H29V28Z"/><path class="cls-5" d="M15,29V23c0-6,5-6,5-6h5c7,0,7,8,7,8H21C21,28,15,29,15,29Z"/><path class="cls-4" d="M15,29v3H14a2,2,0,0,1,0-4h1Z"/><path class="cls-4" d="M19,38.33A6.592,6.592,0,0,1,17,37c-2-2-2-3-2-3V29s6-1,6-4h8v9s0,1-2,3a6.592,6.592,0,0,1-2,1.33A8.459,8.459,0,0,1,22,39,8.459,8.459,0,0,1,19,38.33Z"/><path class="cls-6" d="M25,41v1a3,3,0,0,1-6,0V38.33A8.459,8.459,0,0,0,22,39a8.459,8.459,0,0,0,3-.67Z"/><path class="cls-7" d="M22,45a2.938,2.938,0,0,0,3-3l3,3s-2,4-6,4Z"/><path class="cls-7" d="M22,45v4c-4,0-6-4-6-4l3-3A2.938,2.938,0,0,0,22,45Z"/><path class="cls-8" d="M16,45s2,4,6,4,6-4,6-4l-3-3V41h5s5,0,5,5V63H9V46c0-5,5-5,5-5h5v1Z"/><path class="cls-6" d="M29,25H21c0,3-6,4-6,4v.168A31.293,31.293,0,0,1,18.394,29C24.049,29,25.5,30.106,29,30.673V25Z"/><path class="cls-9" d="M15,28v1s6-1,6-4H15Z"/><path class="cls-10" d="M14,41s-5,0-5,5V63h6V41Z"/><path class="cls-10" d="M30,41H29V63h6V46C35,41,30,41,30,41Z"/><path d="M60,28A28,28,0,1,0,8.548,43.285,6.478,6.478,0,0,0,8,46V63a1,1,0,0,0,1,1H35a1,1,0,0,0,1-1V55.709A27.945,27.945,0,0,0,60,28ZM34,62H30V50H28V62H16V50H14V62H10V46a3.85,3.85,0,0,1,4-4h3.586l-2.293,2.293a1,1,0,0,0-.188,1.154c.087.172,2,3.9,5.9,4.473V59h2V49.92c3.89-.57,5.808-4.3,5.9-4.473a1,1,0,0,0-.188-1.154L26.414,42H30c.163,0,4,.046,4,4ZM30.922,24H21a1,1,0,0,0-1,1c0,1.3-2.243,2.272-4,2.752V23c0-4.809,3.6-5,4-5h5C29.589,18,30.668,22.06,30.922,24ZM30,29a1,1,0,0,1,0,2Zm-8.157-3H28l0,7.919c0,.008-.144.808-1.711,2.374A6.8,6.8,0,0,1,22,38a6.8,6.8,0,0,1-4.293-1.707A6.466,6.466,0,0,1,16,33.995V29.816C17.652,29.431,21.07,28.36,21.843,26ZM18.477,43.937A3.633,3.633,0,0,0,21,45.9v2a6.472,6.472,0,0,1-3.736-2.744ZM23,45.9a3.633,3.633,0,0,0,2.523-1.959l1.213,1.213A6.474,6.474,0,0,1,23,47.894ZM22,40a8.515,8.515,0,0,0,2-.291V42a1.882,1.882,0,0,1-2,2,1.882,1.882,0,0,1-2-2V39.709A8.515,8.515,0,0,0,22,40ZM36,53.692V46a5.785,5.785,0,0,0-6-6H26V38.938a7.034,7.034,0,0,0,1.707-1.231C29.834,35.579,30,34.332,30,34V33a3,3,0,0,0,0-6V26h2a1,1,0,0,0,1-1,11.165,11.165,0,0,0-1.139-4.8A5,5,0,1,1,36,28v2a7,7,0,1,0-5.312-11.559,6.869,6.869,0,0,0-3.583-2.192L25.1,13.621l.382-1.143,1.144-.382,3.039,2.323a1,1,0,0,0,1.131.059,9.894,9.894,0,0,1,2.868-1.19,1,1,0,0,0,.757-.841l.505-3.79L36,8.118l1.079.539.505,3.79a1,1,0,0,0,.757.841,9.911,9.911,0,0,1,2.869,1.19,1,1,0,0,0,1.13-.059L45.379,12.1l1.143.382.382,1.143L44.581,16.66a1,1,0,0,0-.059,1.13,9.911,9.911,0,0,1,1.19,2.869,1,1,0,0,0,.841.757l3.79.5L50.882,23l-.539,1.079-3.79.5a1,1,0,0,0-.841.757,9.911,9.911,0,0,1-1.19,2.869,1,1,0,0,0,.059,1.13L46.9,32.379l-.382,1.143-1.143.382L42.34,31.581a1,1,0,0,0-1.13-.059,9.911,9.911,0,0,1-2.869,1.19,1,1,0,0,0-.757.841l-.575,4.315,1.982.264.488-3.657a11.867,11.867,0,0,0,2.174-.9l2.932,2.241a.993.993,0,0,0,.924.155l2.121-.707a.994.994,0,0,0,.632-.632l.707-2.121a1,1,0,0,0-.155-.924l-2.241-2.932a11.867,11.867,0,0,0,.9-2.174l3.657-.488a1,1,0,0,0,.763-.544l1-2a1,1,0,0,0,0-.894l-1-2a1,1,0,0,0-.763-.544l-3.657-.488a11.867,11.867,0,0,0-.9-2.174l2.241-2.932a1,1,0,0,0,.155-.924l-.707-2.121a.994.994,0,0,0-.632-.632l-2.121-.707a.99.99,0,0,0-.924.155l-2.932,2.241a11.867,11.867,0,0,0-2.174-.9l-.488-3.657a1,1,0,0,0-.544-.763l-2-1a1,1,0,0,0-.894,0l-2,1a1,1,0,0,0-.544.763l-.488,3.657a11.9,11.9,0,0,0-2.174.9l-2.932-2.241a.989.989,0,0,0-.924-.155l-2.121.707a1,1,0,0,0-.632.632l-.708,2.121a1,1,0,0,0,.155.924L24.4,16H20c-2.075,0-6,1.463-6,7v4a3,3,0,0,0,0,6v1c0,.332.166,1.579,2.293,3.707A7.034,7.034,0,0,0,18,38.938V40H14a6.554,6.554,0,0,0-4.177,1.545A25.99,25.99,0,1,1,36,53.692ZM14,31a1,1,0,0,1,0-2Z"/></g></svg>