<svg xmlns="http://www.w3.org/2000/svg" viewBox="0 0 64 64"><defs><style>.cls-1{fill:#7e8596;}.cls-2{fill:#cdd2e1;}.cls-3{fill:#8dd5f6;}.cls-4{fill:#dfe1ea;}.cls-5{fill:#e9edf5;}.cls-6{fill:#aedff7;}.cls-7{fill:#f6fafd;}.cls-8{fill:#fff;}</style></defs><title>79-Coding</title><g id="_79-Coding" data-name="79-Coding"><path class="cls-1" d="M36,51V64H28V51a4,4,0,0,0,8,0Z"/><circle class="cls-2" cx="32" cy="51" r="4"/><circle class="cls-3" cx="32" cy="24" r="18"/><path class="cls-4" d="M32,1A23,23,0,1,1,9,24,23,23,0,0,1,32,1ZM50,24A18,18,0,1,0,32,42,18,18,0,0,0,50,24Z"/><rect class="cls-5" x="28" y="59" width="8" height="5"/><path class="cls-6" d="M38.6,15c-7.6,0-7.6-2-15.2-2a25.633,25.633,0,0,0-6.082.619,17.886,17.886,0,0,0-3.1,7.776C16.8,20.806,18.565,20,23.394,20c7.6,0,7.6,2,15.2,2,5.864,0,7.215-1.188,11.012-1.732a17.884,17.884,0,0,0-2.761-6.437A26.948,26.948,0,0,1,38.6,15Z"/><path class="cls-7" d="M38.6,15a26.948,26.948,0,0,0,8.251-1.169,17.978,17.978,0,0,0-29.534-.212A25.633,25.633,0,0,1,23.394,13C31,13,31,15,38.6,15Z"/><rect class="cls-8" x="27" y="23" width="2" height="2"/><rect class="cls-8" x="35" y="23" width="2" height="2"/><path d="M56,24A24,24,0,1,0,28.267,47.708,4.956,4.956,0,0,0,27,51V64h2V60h6v4h2V51a4.956,4.956,0,0,0-1.267-3.292A24.037,24.037,0,0,0,56,24ZM29,58V54.974a4.9,4.9,0,0,0,6,0V58Zm6-7a3,3,0,1,1-3-3A3,3,0,0,1,35,51Zm-3-5A22,22,0,1,1,54,24,22.025,22.025,0,0,1,32,46Z"/><path d="M32,5A19,19,0,1,0,51,24,19.021,19.021,0,0,0,32,5Zm0,36A17,17,0,1,1,49,24,17.019,17.019,0,0,1,32,41Z"/><path d="M42,22a.811.811,0,0,1-.71-.29c-.61-.743-.472-2.689-.31-3.516A1,1,0,0,0,40,17H38v2h.865a5.866,5.866,0,0,0,.877,3.977A2.717,2.717,0,0,0,41,23.846v.308a2.717,2.717,0,0,0-1.258.869A5.866,5.866,0,0,0,38.865,29H38v2h2a1,1,0,0,0,.98-1.194c-.162-.827-.3-2.773.31-3.516A.811.811,0,0,1,42,26a1,1,0,0,0,1-1V23A1,1,0,0,0,42,22Z"/><path d="M23.228,17.365a1,1,0,0,0-.208.829c.162.827.3,2.773-.31,3.516A.811.811,0,0,1,22,22a1,1,0,0,0-1,1v2a1,1,0,0,0,1,1,.811.811,0,0,1,.71.29c.61.743.472,2.689.31,3.516A1,1,0,0,0,24,31h2V29h-.865a5.866,5.866,0,0,0-.877-3.977A2.717,2.717,0,0,0,23,24.154v-.308a2.717,2.717,0,0,0,1.258-.869A5.866,5.866,0,0,0,25.135,19H26V17H24A1,1,0,0,0,23.228,17.365Z"/><rect x="31" y="23" width="2" height="2"/><circle class="cls-5" cx="32" cy="51" r="2"/></g></svg>