<svg xmlns="http://www.w3.org/2000/svg" width="96" height="96" viewBox="0 0 96 96"><defs><style>.cls-1{fill:#e5eefd;}.cls-2{fill:#c3d4ef;}.cls-3{fill:#fff;}.cls-4{fill:#dfecfd;}.cls-5{fill:#fc9a9a;}.cls-6{fill:#283d54;}</style></defs><title>18.Server Security</title><g id="_18.Server_Security" data-name="18.Server Security"><path class="cls-1" d="M85,35V55a3,3,0,0,1-3,3H12a3,3,0,0,1-3-3V35a3,3,0,0,1,3-3H82A3,3,0,0,1,85,35Z"/><polygon class="cls-2" points="79 32 15 32 20 27 74 27 79 32"/><circle class="cls-3" cx="21" cy="45" r="6"/><circle class="cls-3" cx="39" cy="45" r="6"/><g id="_Group_" data-name="&lt;Group&gt;"><path class="cls-1" d="M85,66V86a3,3,0,0,1-3,3H12a3,3,0,0,1-3-3V66a3,3,0,0,1,3-3H82A3,3,0,0,1,85,66Z"/><polygon class="cls-1" points="79 63 15 63 20 58 74 58 79 63"/><polygon class="cls-1" points="80 95 14 95 20 89 74 89 80 95"/><polygon class="cls-2" points="74 58 20 58 18 60 76 60 74 58"/><polygon class="cls-2" points="74 89 20 89 18 91 76 91 74 89"/></g><circle class="cls-3" cx="39" cy="76" r="6"/><circle class="cls-3" cx="21" cy="76" r="6"/><path class="cls-4" d="M87,3V7H55V3a1.959,1.959,0,0,1,2-2H85A1.959,1.959,0,0,1,87,3Z"/><path class="cls-5" d="M87,7V29s-4,5-16,11C59,34,55,29,55,29V7Z"/><path class="cls-6" d="M85,37a1,1,0,0,0-1,1V55a2,2,0,0,1-2,2H12a2,2,0,0,1-2-2V35a2,2,0,0,1,2-2H51a1,1,0,0,0,0-2H17.414l3-3H49a1,1,0,0,0,0-2H20a1,1,0,0,0-.707.293L14.586,31H12a4,4,0,0,0-4,4V55a4,4,0,0,0,4,4h5.586l-3,3H12a4,4,0,0,0-4,4V86a4,4,0,0,0,4,4h5.586l-4,4H9a1,1,0,0,0,0,2H26a1,1,0,0,0,0-2H16.414l4-4H73.586l4,4H32a1,1,0,0,0,0,2H85a1,1,0,0,0,0-2H80.414l-4-4H82a4,4,0,0,0,4-4V66a4,4,0,0,0-4-4H79.414l-3-3H82a4,4,0,0,0,4-4V38A1,1,0,0,0,85,37ZM84,66V86a2,2,0,0,1-2,2H12a2,2,0,0,1-2-2V66a2,2,0,0,1,2-2H82A2,2,0,0,1,84,66Zm-7.414-4H17.414l3-3H73.586Z"/><path class="cls-6" d="M14,45a7,7,0,1,0,7-7A7.008,7.008,0,0,0,14,45Zm12,0a5,5,0,1,1-5-5A5.006,5.006,0,0,1,26,45Z"/><path class="cls-6" d="M21,69a7,7,0,1,0,7,7A7.008,7.008,0,0,0,21,69Zm0,12a5,5,0,1,1,5-5A5.006,5.006,0,0,1,21,81Z"/><path class="cls-6" d="M32,45a7,7,0,1,0,7-7A7.008,7.008,0,0,0,32,45Zm12,0a5,5,0,1,1-5-5A5.006,5.006,0,0,1,44,45Z"/><path class="cls-6" d="M39,69a7,7,0,1,0,7,7A7.008,7.008,0,0,0,39,69Zm0,12a5,5,0,1,1,5-5A5.006,5.006,0,0,1,39,81Z"/><path class="cls-6" d="M19,45a1,1,0,0,0,1,1h2a1,1,0,0,0,0-2H20A1,1,0,0,0,19,45Z"/><path class="cls-6" d="M22,75H20a1,1,0,0,0,0,2h2a1,1,0,0,0,0-2Z"/><path class="cls-6" d="M37,45a1,1,0,0,0,1,1h2a1,1,0,0,0,0-2H38A1,1,0,0,0,37,45Z"/><path class="cls-6" d="M40,75H38a1,1,0,0,0,0,2h2a1,1,0,0,0,0-2Z"/><path class="cls-6" d="M51,42v6a1,1,0,0,0,2,0V42a1,1,0,0,0-2,0Z"/><path class="cls-6" d="M59,48V46a1,1,0,0,0-2,0v2a1,1,0,0,0,2,0Z"/><path class="cls-6" d="M65,48V46a1,1,0,0,0-2,0v2a1,1,0,0,0,2,0Z"/><path class="cls-6" d="M71,48V46a1,1,0,0,0-2,0v2a1,1,0,0,0,2,0Z"/><path class="cls-6" d="M77,48V46a1,1,0,0,0-2,0v2a1,1,0,0,0,2,0Z"/><path class="cls-6" d="M52,72a1,1,0,0,0-1,1v6a1,1,0,0,0,2,0V73A1,1,0,0,0,52,72Z"/><path class="cls-6" d="M58,72a1,1,0,0,0-1,1v6a1,1,0,0,0,2,0V73A1,1,0,0,0,58,72Z"/><path class="cls-6" d="M64,72a1,1,0,0,0-1,1v6a1,1,0,0,0,2,0V73A1,1,0,0,0,64,72Z"/><path class="cls-6" d="M70,72a1,1,0,0,0-1,1v6a1,1,0,0,0,2,0V73A1,1,0,0,0,70,72Z"/><path class="cls-6" d="M76,72a1,1,0,0,0-1,1v6a1,1,0,0,0,2,0V73A1,1,0,0,0,76,72Z"/><path class="cls-6" d="M85,0H57a2.916,2.916,0,0,0-3,3V29a1,1,0,0,0,.219.625c.169.211,4.276,5.24,16.334,11.27a1,1,0,0,0,.894,0c12.058-6.03,16.165-11.059,16.334-11.27A1,1,0,0,0,88,29V16a1,1,0,0,0-2,0V28.624c-.965,1.053-5.208,5.3-15,10.257-9.8-4.961-14.038-9.207-15-10.257V8H86v3a1,1,0,0,0,2,0V3A2.916,2.916,0,0,0,85,0ZM56,6V3.012A.918.918,0,0,1,57,2H84.988A.918.918,0,0,1,86,3V6Z"/><path class="cls-6" d="M70,12V34a1,1,0,0,0,2,0V12a1,1,0,0,0-2,0Z"/></g></svg>