<svg xmlns="http://www.w3.org/2000/svg" xmlns:xlink="http://www.w3.org/1999/xlink" viewBox="0 0 64 64"><defs><style>.cls-1{fill:#0074ff;}.cls-2{fill:#ccd3eb;}.cls-3{fill:#f5f7ff;}.cls-4{fill:#96a1c3;}.cls-5{fill:url(#linear-gradient);}.cls-6{fill:#e0633d;}.cls-7{fill:#033c59;}</style><linearGradient id="linear-gradient" x1="27.78" y1="37.19" x2="36.23" y2="28.74" gradientUnits="userSpaceOnUse"><stop offset="0" stop-color="#fe9661"/><stop offset="1" stop-color="#ffb369"/></linearGradient></defs><title>Security guard</title><g id="Security_guard" data-name="Security guard"><path class="cls-1" d="M61,6V18H4V6A2,2,0,0,1,6,4H59A2,2,0,0,1,61,6Z"/><path class="cls-2" d="M61,18V58a2,2,0,0,1-2,2H6a2,2,0,0,1-2-2V18Z"/><path class="cls-3" d="M56,18.9V51.29A5.88,5.88,0,0,1,50,57H5V19H6v-.1Z"/><rect class="cls-3" x="8" y="8" width="30" height="6" rx="2"/><path class="cls-4" d="M47,29.35v7.13A20.19,20.19,0,0,1,32,56,20.2,20.2,0,0,1,17,36.48V29.35a2,2,0,0,1,1.26-1.85l13-5.2a2,2,0,0,1,1.48,0l13,5.2A2,2,0,0,1,47,29.35Z"/><path class="cls-5" d="M37,36H27a1,1,0,0,1-1-1V33a6,6,0,1,1,12,0v2A1,1,0,0,1,37,36Zm-9-2h8V33a4,4,0,0,0-4-4,4,4,0,0,0-4,4Z"/><rect class="cls-1" x="25" y="35" width="14" height="12" rx="1.73"/><path class="cls-6" d="M34,40a2,2,0,1,0-3,1.72V43a1,1,0,0,0,2,0V41.72A2,2,0,0,0,34,40Z"/><circle class="cls-3" cx="49" cy="11" r="2"/><circle class="cls-3" cx="43" cy="11" r="2"/><circle class="cls-3" cx="55" cy="11" r="2"/><path class="cls-7" d="M46.11,26.57l-13-5.2a3,3,0,0,0-2.22,0l-13,5.2A3,3,0,0,0,16,29.35v7.13A21.24,21.24,0,0,0,31.74,57a1.14,1.14,0,0,0,.52,0A21.33,21.33,0,0,0,43.61,49.4a21.57,21.57,0,0,0,3.87-8.25,1,1,0,1,0-2-.44A19.13,19.13,0,0,1,32,55,19.21,19.21,0,0,1,18,36.48V29.35a1,1,0,0,1,.63-.92l13-5.2a1,1,0,0,1,.74,0l13,5.2a1,1,0,0,1,.63.92V32a1,1,0,0,0,2,0V29.35A3,3,0,0,0,46.11,26.57Z"/><path class="cls-7" d="M47,35a1,1,0,0,0-1,1v.48c0,.15,0,.31,0,.46A1,1,0,0,0,46.93,38H47a1,1,0,0,0,1-.94c0-.19,0-.39,0-.58V36A1,1,0,0,0,47,35Z"/><path class="cls-7" d="M32,27a6,6,0,0,0-6,6v1.11a2.73,2.73,0,0,0-2,2.62v8.54A2.74,2.74,0,0,0,26.73,48H37.27A2.74,2.74,0,0,0,40,45.27V36.73a2.73,2.73,0,0,0-2-2.62V33A6,6,0,0,0,32,27Zm-4,6a4,4,0,0,1,8,0v1H28ZM38,45.27a.73.73,0,0,1-.73.73H26.73a.73.73,0,0,1-.73-.73V36.73a.73.73,0,0,1,.73-.73H37.27a.73.73,0,0,1,.73.73Z"/><path class="cls-3" d="M32,38a2,2,0,0,0-1,3.72V43a1,1,0,0,0,2,0V41.72A2,2,0,0,0,32,38Z"/><path class="cls-7" d="M10,15H36a3,3,0,0,0,3-3V10a3,3,0,0,0-3-3H10a3,3,0,0,0-3,3v2A3,3,0,0,0,10,15ZM9,10a1,1,0,0,1,1-1H36a1,1,0,0,1,1,1v2a1,1,0,0,1-1,1H10a1,1,0,0,1-1-1Z"/><circle class="cls-3" cx="49" cy="11" r="2"/><circle class="cls-3" cx="43" cy="11" r="2"/><circle class="cls-3" cx="55" cy="11" r="2"/><path class="cls-7" d="M58,3H6A3,3,0,0,0,3,6V58a3,3,0,0,0,3,3H58a3,3,0,0,0,3-3V6A3,3,0,0,0,58,3ZM6,5H58a1,1,0,0,1,1,1V17H5V6A1,1,0,0,1,6,5ZM58,59H6a1,1,0,0,1-1-1V19H59V58A1,1,0,0,1,58,59Z"/></g></svg>