<svg xmlns="http://www.w3.org/2000/svg" viewBox="0 0 64 64"><defs><style>.cls-1{fill:#bec3d2;}.cls-2{fill:#f6fafd;}.cls-3{fill:#9196aa;}.cls-4{fill:#ffcf94;}.cls-5{fill:#ffa426;}.cls-6{fill:#ffc247;}.cls-7{fill:#fff;}</style></defs><title>48-Develop</title><g id="_48-Develop" data-name="48-Develop"><path class="cls-1" d="M61,29l2,3-2,3-6.26.43a22.722,22.722,0,0,1-4.23,10.22l4.12,4.73-.71,3.54-3.54.71-4.73-4.12a22.722,22.722,0,0,1-10.22,4.23L35,61l-3,2-3-2-.43-6.26a22.722,22.722,0,0,1-10.22-4.23l-4.73,4.12-3.54-.71-.71-3.54,4.12-4.73A22.722,22.722,0,0,1,9.26,35.43L3,35,1,32l2-3,6.26-.43a22.722,22.722,0,0,1,4.23-10.22L9.37,13.62l.71-3.54,3.54-.71,4.73,4.12A22.722,22.722,0,0,1,28.57,9.26L29,3l3-2,3,2,.43,6.26a22.722,22.722,0,0,1,10.22,4.23l4.73-4.12,3.54.71.71,3.54-4.12,4.73a22.722,22.722,0,0,1,4.23,10.22Z"/><path class="cls-2" d="M27.394,10c-.871,0-1.632.029-2.326.075A22.746,22.746,0,0,0,18.35,13.49l-2.012-1.752A29.25,29.25,0,0,1,12.2,12c-.939,0-1.747-.034-2.482-.088L9.37,13.62l4.12,4.73a22.738,22.738,0,0,0-3.672,7.569c.71.049,1.481.081,2.377.081,7.6,0,7.6-2,15.2-2s7.6,2,15.2,2c5.891,0,7.228-1.2,11.065-1.739a22.731,22.731,0,0,0-3.15-5.911l4.12-4.73-.682-3.4c-2.495.319-3.94.914-6.072,1.329L45.65,13.49a22.955,22.955,0,0,0-2.3-1.5c-.248.005-.484.013-.75.013C34.995,12,34.995,10,27.394,10Z"/><path class="cls-3" d="M16.338,11.738,13.62,9.37l-3.54.71-.367,1.832c.735.054,1.543.088,2.482.088A29.25,29.25,0,0,0,16.338,11.738Z"/><path class="cls-3" d="M35.43,9.26,35.343,8,35,3,32,1,29,3l-.343,5L28.57,9.26a22.835,22.835,0,0,0-3.5.815c.694-.046,1.455-.075,2.326-.075,7.6,0,7.6,2,15.2,2,.266,0,.5-.008.75-.013A22.731,22.731,0,0,0,35.43,9.26Z"/><path class="cls-3" d="M53.92,10.08l-3.54-.71-2.5,2.181c2.132-.415,3.577-1.01,6.072-1.329Z"/><circle class="cls-4" cx="32" cy="32" r="18"/><circle class="cls-5" cx="32" cy="32" r="15"/><path class="cls-6" d="M44.994,24.528A26.584,26.584,0,0,1,39.6,25c-7.6,0-7.6-2-15.2-2a28.129,28.129,0,0,0-4.622.332A14.914,14.914,0,0,0,17,31.946,25.426,25.426,0,0,1,24.394,31c7.6,0,7.6,2,15.2,2a25.438,25.438,0,0,0,7.4-.948c0-.018,0-.035,0-.052A14.911,14.911,0,0,0,44.994,24.528Z"/><rect class="cls-7" x="27" y="31" width="2" height="2"/><rect class="cls-7" x="35" y="31" width="2" height="2"/><path d="M63.832,31.445l-2-3A1,1,0,0,0,61.068,28L55.6,27.625a24.013,24.013,0,0,0-3.821-9.217l3.6-4.136a1,1,0,0,0,.226-.853L54.9,9.883a1,1,0,0,0-.784-.784l-3.535-.707a1,1,0,0,0-.853.227l-4.135,3.6A24.021,24.021,0,0,0,36.375,8.4L36,2.931a1,1,0,0,0-.443-.763l-3-2a1,1,0,0,0-1.11,0l-3,2A1,1,0,0,0,28,2.931L27.625,8.4a24.01,24.01,0,0,0-9.217,3.821l-4.136-3.6a1,1,0,0,0-.853-.227L9.883,9.1a1,1,0,0,0-.784.784l-.707,3.536a1,1,0,0,0,.227.853l3.6,4.136A24.01,24.01,0,0,0,8.4,27.625L2.931,28a1,1,0,0,0-.763.443l-2,3a1,1,0,0,0,0,1.11l2,3A1,1,0,0,0,2.931,36l5.469.377a24.01,24.01,0,0,0,3.821,9.217l-3.6,4.136a1,1,0,0,0-.227.853L9.1,54.117a1,1,0,0,0,.784.784l3.536.707a.994.994,0,0,0,.853-.227l4.136-3.6A24.01,24.01,0,0,0,27.625,55.6L28,61.069a1,1,0,0,0,.443.763l3,2a1,1,0,0,0,1.11,0l3-2A1,1,0,0,0,36,61.069l.377-5.469a24.021,24.021,0,0,0,9.218-3.821l4.135,3.6a1,1,0,0,0,.853.227l3.535-.707a1,1,0,0,0,.784-.784l.707-3.536a1,1,0,0,0-.226-.853l-3.6-4.136A24.013,24.013,0,0,0,55.6,36.375L61.068,36a1,1,0,0,0,.764-.443l2-3A1,1,0,0,0,63.832,31.445ZM60.44,34.036l-5.764.4a1,1,0,0,0-.921.85A22,22,0,0,1,49.7,45.06a1,1,0,0,0,.05,1.251l3.8,4.36-.48,2.4-2.4.479-4.359-3.8a1,1,0,0,0-1.252-.05,21.976,21.976,0,0,1-9.777,4.052,1,1,0,0,0-.849.92l-.4,5.766L32,61.8l-2.036-1.357-.4-5.766a1,1,0,0,0-.85-.92A21.981,21.981,0,0,1,18.94,49.7a1,1,0,0,0-1.251.05l-4.36,3.8-2.4-.48-.48-2.4,3.8-4.36a1,1,0,0,0,.05-1.251,21.981,21.981,0,0,1-4.052-9.776,1,1,0,0,0-.92-.85l-5.766-.4L2.2,32l1.357-2.036,5.766-.4a1,1,0,0,0,.92-.85A21.981,21.981,0,0,1,14.3,18.94a1,1,0,0,0-.05-1.251l-3.8-4.36.48-2.4,2.4-.48,4.36,3.8a1,1,0,0,0,1.251.05,21.981,21.981,0,0,1,9.776-4.052,1,1,0,0,0,.85-.92l.4-5.766L32,2.2l2.036,1.357.4,5.766a1,1,0,0,0,.849.92A21.976,21.976,0,0,1,45.06,14.3a1,1,0,0,0,1.252-.05l4.359-3.8,2.4.479.48,2.4-3.8,4.36a1,1,0,0,0-.05,1.251,22,22,0,0,1,4.052,9.776,1,1,0,0,0,.921.85l5.764.4L61.8,32Z"/><path d="M32,13A19,19,0,1,0,51,32,19.021,19.021,0,0,0,32,13Zm0,36A17,17,0,1,1,49,32,17.019,17.019,0,0,1,32,49Z"/><path d="M43,30a.812.812,0,0,1-.71-.291c-.61-.742-.472-2.688-.31-3.514A1,1,0,0,0,41,25H39v2h.865a5.865,5.865,0,0,0,.877,3.977A2.715,2.715,0,0,0,42,31.845v.31a2.715,2.715,0,0,0-1.258.868A5.865,5.865,0,0,0,39.865,37H39v2h2a1,1,0,0,0,.98-1.2c-.162-.826-.3-2.772.31-3.514A.812.812,0,0,1,43,34a1,1,0,0,0,1-1V31A1,1,0,0,0,43,30Z"/><rect x="31" y="31" width="2" height="2"/><path d="M22.228,25.366a1,1,0,0,0-.209.829c.163.826.3,2.772-.309,3.514A.81.81,0,0,1,21,30a1,1,0,0,0-1,1v2a1,1,0,0,0,1,1,.81.81,0,0,1,.71.291c.611.742.472,2.688.309,3.514A1,1,0,0,0,23,39h2V37h-.865a5.871,5.871,0,0,0-.877-3.977A2.715,2.715,0,0,0,22,32.155v-.31a2.715,2.715,0,0,0,1.258-.868A5.871,5.871,0,0,0,24.135,27H25V25H23A1,1,0,0,0,22.228,25.366Z"/></g></svg>