<svg xmlns="http://www.w3.org/2000/svg" viewBox="0 0 64 64"><defs><style>.cls-1{fill:#ffc247;}.cls-2{fill:#dfe1ea;}.cls-3{fill:#adb2c7;}.cls-4{fill:#f6fafd;}.cls-5{fill:#ffa426;}.cls-6{fill:#f5cd62;}.cls-7{fill:#f5d882;}.cls-8{fill:#f5e3a7;}.cls-9{fill:#fff;}</style></defs><title>36-File</title><g id="_36-File" data-name="36-File"><g id="_Group_" data-name="&lt;Group&gt;"><polygon class="cls-1" points="19 1 19 13 8 13 19 1"/><path class="cls-2" d="M56,3V61a2.006,2.006,0,0,1-2,2H10a2.006,2.006,0,0,1-2-2V13H19V1H54A2.006,2.006,0,0,1,56,3Z"/><path class="cls-3" d="M41.6,12c-7.6,0-7.6-2-15.2-2A25.445,25.445,0,0,0,19,10.946V13H8v5.85a31.65,31.65,0,0,0,3.2.15c7.6,0,7.6-2,15.2-2s7.6,2,15.2,2c7.318,0,7.611-1.849,14.405-1.987v-7C49.206,10.151,48.913,12,41.6,12Z"/><path class="cls-4" d="M26.394,10c7.6,0,7.6,2,15.2,2,7.318,0,7.611-1.849,14.405-1.987V3a2.006,2.006,0,0,0-2-2H19v9.946A25.445,25.445,0,0,1,26.394,10Z"/><path class="cls-5" d="M8,13H19V10.813c-3.122-.363-4.6-1.159-7.561-1.564Z"/><path class="cls-3" d="M46.718,26.077A2.418,2.418,0,0,0,44.705,25H25.3a2.418,2.418,0,0,0-2.013,1.077l-2.439,3.659a2.418,2.418,0,0,0-.07,2.572L32.3,51.811A2.418,2.418,0,0,0,34.381,53h1.238A2.418,2.418,0,0,0,37.7,51.811l11.525-19.5a2.418,2.418,0,0,0-.07-2.572Z"/></g><polygon class="cls-1" points="47 28 34 50 32 50 38 28 47 28"/><polygon class="cls-1" points="43 22 47 28 38 28 43 22"/><polygon class="cls-5" points="43 22 38 28 32 22 43 22"/><polygon class="cls-1" points="27 28 17 28 21 22 27 28"/><polygon class="cls-5" points="32 22 27 28 21 22 32 22"/><polygon class="cls-1" points="38 28 27 28 32 22 38 28"/><polygon class="cls-5" points="38 28 32 50 27 28 38 28"/><polygon class="cls-1" points="27 28 32 50 30 50 17 28 27 28"/><path class="cls-6" d="M42.6,33a25.883,25.883,0,0,1-5.806-.56L35,39a25.2,25.2,0,0,0,4.966.9l4.1-6.933C43.6,32.989,43.121,33,42.6,33Z"/><path class="cls-7" d="M29.285,38.052A25.159,25.159,0,0,1,35,39l1.789-6.561c-2.652-.579-4.381-1.4-9.106-1.435Z"/><path class="cls-8" d="M29.285,38.052l-1.6-7.047c-.1,0-.186,0-.289,0a26.29,26.29,0,0,0-7.973,1.1l3.657,6.189A28.748,28.748,0,0,1,27.394,38C28.09,38,28.7,38.022,29.285,38.052Z"/><rect class="cls-9" x="41" y="46" width="2" height="2"/><rect class="cls-9" x="21" y="46" width="2" height="2"/><path d="M54,0H19a1,1,0,0,0-.737.324l-11,12A1,1,0,0,0,7,13V61a3,3,0,0,0,3,3H54a3,3,0,0,0,3-3V3A3,3,0,0,0,54,0ZM18,3.571V12H10.273ZM55,61a1,1,0,0,1-1,1H10a1,1,0,0,1-1-1V14H19a1,1,0,0,0,1-1V2H54a1,1,0,0,1,1,1Z"/><path d="M47.832,27.445l-4-6A1,1,0,0,0,43,21H21a1,1,0,0,0-.832.445l-4,6a1,1,0,0,0-.029,1.064l13,22A1,1,0,0,0,30,51h4a1,1,0,0,0,.861-.491l13-22A1,1,0,0,0,47.832,27.445ZM32.067,23.481,35.586,27H29.135Zm-5.134,3.038L23.414,23h6.451ZM34.414,23h6.451l-2.932,3.519Zm2.277,6-4.6,16.876L28.253,29Zm6.22-5.331L45.131,27h-5Zm-21.755-.1L24.586,27H18.869ZM18.753,29H26.2l4.545,20h-.176ZM33.429,49h-.12l5.455-20h6.483Z"/><path d="M49,45a.81.81,0,0,1-.71-.291c-.611-.742-.472-2.688-.309-3.514A1,1,0,0,0,47,40H45v2h.865a5.871,5.871,0,0,0,.877,3.977A2.715,2.715,0,0,0,48,46.845v.31a2.715,2.715,0,0,0-1.258.868A5.871,5.871,0,0,0,45.865,52H45v2h2a1,1,0,0,0,.981-1.2c-.163-.826-.3-2.772.309-3.514A.81.81,0,0,1,49,49a1,1,0,0,0,1-1V46A1,1,0,0,0,49,45Z"/><path d="M16.228,40.366a1,1,0,0,0-.209.829c.163.826.3,2.772-.309,3.514A.81.81,0,0,1,15,45a1,1,0,0,0-1,1v2a1,1,0,0,0,1,1,.81.81,0,0,1,.71.291c.611.742.472,2.688.309,3.514A1,1,0,0,0,17,54h2V52h-.865a5.871,5.871,0,0,0-.877-3.977A2.715,2.715,0,0,0,16,47.155v-.31a2.715,2.715,0,0,0,1.258-.868A5.871,5.871,0,0,0,18.135,42H19V40H17A1,1,0,0,0,16.228,40.366Z"/></g></svg>