<svg xmlns="http://www.w3.org/2000/svg" viewBox="0 0 64 64"><defs><style>.cls-1{fill:#fff;}.cls-2{fill:#ffa426;}.cls-3{fill:#dfe1ea;}.cls-4{fill:#73c6b2;}.cls-5{fill:#ffcdbe;}.cls-6{fill:#b46e5a;}.cls-7{fill:#ffbeaa;}.cls-8{fill:#f2f6fc;}.cls-9{fill:#bec3d2;}.cls-10{fill:#915041;}.cls-11{fill:#7e8596;}</style></defs><title>54-Programmer</title><g id="_54-Programmer" data-name="54-Programmer"><polygon class="cls-1" points="53 9 53 23 45 23 39 27 39 23 33 23 33 9 53 9"/><rect class="cls-1" x="36" y="57" width="20" height="6"/><rect class="cls-2" x="36" y="49" width="20" height="8"/><rect class="cls-3" x="39" y="60" width="14" height="3"/><rect class="cls-4" x="33" y="1" width="20" height="8"/><rect class="cls-3" x="36" y="12" width="14" height="8"/><g id="_Group_" data-name="&lt;Group&gt;"><path class="cls-5" d="M26,28a2,2,0,0,1,0,4H25V28Z"/><path class="cls-6" d="M11,29V23c0-6,5-6,5-6h5c7,0,7,8,7,8H17C17,28,11,29,11,29Z"/><path class="cls-5" d="M11,29v3H10a2,2,0,0,1,0-4h1Z"/><path class="cls-5" d="M15,38.33A6.592,6.592,0,0,1,13,37c-2-2-2-3-2-3V29s6-1,6-4h8v9s0,1-2,3a6.592,6.592,0,0,1-2,1.33A8.459,8.459,0,0,1,18,39,8.459,8.459,0,0,1,15,38.33Z"/><path class="cls-7" d="M21,41v1a3,3,0,0,1-6,0V38.33A8.459,8.459,0,0,0,18,39a8.459,8.459,0,0,0,3-.67Z"/><path class="cls-8" d="M18,45a2.938,2.938,0,0,0,3-3l3,3s-2,4-6,4Z"/><path class="cls-8" d="M18,45v4c-4,0-6-4-6-4l3-3A2.938,2.938,0,0,0,18,45Z"/><path class="cls-9" d="M12,45s2,4,6,4,6-4,6-4l-3-3V41h5s5,0,5,5V63H5V46c0-5,5-5,5-5h5v1Z"/><path class="cls-7" d="M25,25H17c0,3-6,4-6,4v.168A31.293,31.293,0,0,1,14.394,29C20.049,29,21.5,30.106,25,30.673V25Z"/><path class="cls-10" d="M11,28v1s6-1,6-4H11Z"/><path class="cls-11" d="M10,41s-5,0-5,5V63h6V41Z"/><path class="cls-11" d="M26,41H25V63h6V46C31,41,26,41,26,41Z"/><rect class="cls-1" x="36" y="4" width="2" height="2"/><rect class="cls-1" x="40" y="4" width="2" height="2"/><rect class="cls-1" x="39" y="52" width="2" height="2"/><rect class="cls-1" x="43" y="52" width="2" height="2"/><path d="M26,40H22V38.951a7.225,7.225,0,0,0,1.707-1.244C25.835,35.579,26,34.332,26,34V33a3,3,0,0,0,0-6V26h2a1,1,0,0,0,1-1c0-3.113-1.672-9-8-9H16c-2.075,0-6,1.463-6,7v4a3,3,0,0,0,0,6v1c0,.332.165,1.579,2.293,3.707A7.221,7.221,0,0,0,14,38.951V40H10a5.785,5.785,0,0,0-6,6V63a1,1,0,0,0,1,1H31a1,1,0,0,0,1-1V46A5.785,5.785,0,0,0,26,40ZM9,30a1,1,0,0,1,1-1v2A1,1,0,0,1,9,30Zm9,10a8.62,8.62,0,0,0,2-.3V42a1.883,1.883,0,0,1-2,2,1.883,1.883,0,0,1-2-2v-2.3A8.635,8.635,0,0,0,18,40Zm-3.523,3.937A3.633,3.633,0,0,0,17,45.9v1.988a6.473,6.473,0,0,1-3.736-2.734ZM19,45.9a3.633,3.633,0,0,0,2.523-1.959l1.213,1.213A6.474,6.474,0,0,1,19,47.894ZM27,30a1,1,0,0,1-1,1V29A1,1,0,0,1,27,30ZM12,23c0-4.809,3.6-5,4-5h5c4.59,0,5.669,4.06,5.922,6H17a1,1,0,0,0-1,1c0,1.3-2.243,2.272-4,2.752Zm0,10.995V29.816c1.652-.385,5.07-1.456,5.843-3.816H24l0,7.919c0,.008-.145.808-1.711,2.374a5.581,5.581,0,0,1-1.681,1.115A7.471,7.471,0,0,1,18,38a7.452,7.452,0,0,1-2.6-.584,5.622,5.622,0,0,1-1.7-1.123A6.466,6.466,0,0,1,12,33.995ZM30,62H26V50H24V62H12V50H10V62H6V46a3.85,3.85,0,0,1,4-4h3.586l-2.293,2.293a1,1,0,0,0-.188,1.154c.086.172,2,3.9,5.9,4.473V59h2V49.92c3.89-.57,5.809-4.3,5.9-4.473a1,1,0,0,0-.188-1.154L22.414,42H26c.163,0,4,.046,4,4Z"/><path d="M41.707,18.293,39.414,16l2.293-2.293-1.414-1.414-3,3a1,1,0,0,0,0,1.414l3,3Z"/><path d="M45.707,19.707l3-3a1,1,0,0,0,0-1.414l-3-3-1.414,1.414L46.586,16l-2.293,2.293Z"/><path d="M38,27a1,1,0,0,0,1.555.832L45.3,24H53a1,1,0,0,0,1-1V1a1,1,0,0,0-1-1H33a1,1,0,0,0-1,1V23a1,1,0,0,0,1,1h5ZM52,2V8H34V2ZM34,22V10H52V22H45a1.006,1.006,0,0,0-.555.168L40,25.132V23a1,1,0,0,0-1-1Z"/><path d="M59,36a.811.811,0,0,1-.71-.29c-.61-.743-.472-2.689-.31-3.516A1,1,0,0,0,57,31H55v2h.865a5.866,5.866,0,0,0,.877,3.977A2.717,2.717,0,0,0,58,37.846v.308a2.717,2.717,0,0,0-1.258.869A5.866,5.866,0,0,0,55.865,43H55v2h2a1,1,0,0,0,.98-1.194c-.162-.827-.3-2.773.31-3.516A.811.811,0,0,1,59,40a1,1,0,0,0,1-1V37A1,1,0,0,0,59,36Z"/><rect x="47" y="37" width="2" height="2"/><rect x="43" y="37" width="2" height="2"/><rect x="51" y="37" width="2" height="2"/><path d="M41,31H39a1,1,0,0,0-.98,1.194c.162.827.3,2.773-.31,3.516A.811.811,0,0,1,37,36a1,1,0,0,0-1,1v2a1,1,0,0,0,1,1,.811.811,0,0,1,.71.29c.61.743.472,2.689.31,3.516A1,1,0,0,0,39,45h2V43h-.865a5.866,5.866,0,0,0-.877-3.977A2.717,2.717,0,0,0,38,38.154v-.308a2.717,2.717,0,0,0,1.258-.869A5.866,5.866,0,0,0,40.135,33H41Z"/><path d="M56,48H36a1,1,0,0,0-1,1V63a1,1,0,0,0,1,1H56a1,1,0,0,0,1-1V49A1,1,0,0,0,56,48Zm-1,2v6H37V50ZM37,62V58H55v4Z"/></g></g></svg>