<svg xmlns="http://www.w3.org/2000/svg" viewBox="0 0 64 64"><defs><style>.cls-1{fill:#dfe1ea;}.cls-2{fill:#bec3d2;}.cls-3{fill:#adb2c7;}.cls-4{fill:#707789;}.cls-5{fill:#fff;}.cls-6{fill:#ff636e;}</style></defs><title>25-Programming</title><g id="_25-Programming" data-name="25-Programming"><rect class="cls-1" x="2" y="1" width="48" height="62" rx="2" ry="2"/><path class="cls-2" d="M31.6,34c-7.6,0-7.6-2-15.2-2C9.08,32,8.785,33.847,2,33.987V61a2.006,2.006,0,0,0,2,2H48a2.006,2.006,0,0,0,2-2V32c-.383-.012-2.773,0-3.2,0C39.2,32,39.2,34,31.6,34Z"/><rect class="cls-3" x="8" y="10" width="41" height="12" rx="0.808" ry="0.808"/><rect class="cls-3" x="9" y="25" width="17" height="18" rx="0.853" ry="0.853"/><rect class="cls-3" x="31" y="25" width="17" height="18" rx="0.853" ry="0.853"/><polygon class="cls-1" points="45 24 45 40 29 40 45 24"/><rect class="cls-4" x="42" y="60" width="8" height="3" rx="0.661" ry="0.661"/><rect class="cls-5" x="42" y="46" width="20" height="14"/><rect class="cls-6" x="42" y="38" width="20" height="8"/><rect class="cls-1" x="45" y="49" width="14" height="8"/><rect class="cls-5" x="45" y="41" width="2" height="2"/><rect class="cls-5" x="49" y="41" width="2" height="2"/><polygon class="cls-5" points="26 12 6 19 6 5 26 12"/><polygon class="cls-1" points="46 5 26 12 6 5 46 5"/><polygon class="cls-5" points="46 5 46 19 26 12 46 5"/><polygon class="cls-1" points="46 19 6 19 26 12 46 19"/><polygon class="cls-3" points="45 24 29 40 29 24 45 24"/><polygon class="cls-1" points="23 24 23 40 7 40 23 24"/><polygon class="cls-5" points="23 24 7 40 7 24 23 24"/><rect class="cls-5" x="23" y="50" width="2" height="2"/><rect class="cls-5" x="31" y="50" width="2" height="2"/><rect class="cls-5" x="6" y="52" width="9" height="2"/><path d="M62,37H51V3a3,3,0,0,0-3-3H4A3,3,0,0,0,1,3V61a3,3,0,0,0,3,3H48a3,3,0,0,0,3-3H62a1,1,0,0,0,1-1V38A1,1,0,0,0,62,37Zm-1,8H43V39H61ZM48,62H4a1,1,0,0,1-1-1V3A1,1,0,0,1,4,2H48a1,1,0,0,1,1,1V37H42a1,1,0,0,0-1,1v1H31.414L44,26.414V35h2V24a1,1,0,0,0-1-1H29a1,1,0,0,0-1,1V40a1,1,0,0,0,1,1H41V60a1,1,0,0,0,1,1h7A1,1,0,0,1,48,62ZM30,37.586V25H42.586ZM43,59V47H61V59Z"/><path d="M49.293,49.293l-3,3a1,1,0,0,0,0,1.414l3,3,1.414-1.414L48.414,53l2.293-2.293Z"/><path d="M54.707,49.293l-1.414,1.414L55.586,53l-2.293,2.293,1.414,1.414,3-3a1,1,0,0,0,0-1.414Z"/><path d="M46,20a1,1,0,0,0,1-1V5a1,1,0,0,0-1-1H6A1,1,0,0,0,5,5V19a1,1,0,0,0,1,1ZM29.027,12,45,6.409V17.591Zm11.089,6H11.884L26,13.059ZM26,10.941,11.884,6H40.116ZM22.973,12,7,17.591V6.409Z"/><path d="M23,23H7a1,1,0,0,0-1,1V40a1,1,0,0,0,1,1H23a1,1,0,0,0,1-1V24A1,1,0,0,0,23,23Zm-2.414,2L8,37.586V25ZM9.414,39,22,26.414V39Z"/><path d="M20.228,44.366a1,1,0,0,0-.208.829c.162.826.3,2.772-.31,3.514A.812.812,0,0,1,19,49a1,1,0,0,0-1,1v2a1,1,0,0,0,1,1,.812.812,0,0,1,.71.291c.61.742.472,2.688.31,3.514A1,1,0,0,0,21,58h2V56h-.865a5.865,5.865,0,0,0-.877-3.977A2.715,2.715,0,0,0,20,51.155v-.31a2.715,2.715,0,0,0,1.258-.868A5.865,5.865,0,0,0,22.135,46H23V44H21A1,1,0,0,0,20.228,44.366Z"/><path d="M37,49a.812.812,0,0,1-.71-.291c-.61-.742-.472-2.688-.31-3.514A1,1,0,0,0,35,44H33v2h.865a5.865,5.865,0,0,0,.877,3.977A2.715,2.715,0,0,0,36,50.845v.31a2.715,2.715,0,0,0-1.258.868A5.865,5.865,0,0,0,33.865,56H33v2h2a1,1,0,0,0,.98-1.2c-.162-.826-.3-2.772.31-3.514A.812.812,0,0,1,37,53a1,1,0,0,0,1-1V50A1,1,0,0,0,37,49Z"/><rect x="27" y="50" width="2" height="2"/><rect x="6" y="56" width="9" height="2"/><rect x="6" y="48" width="9" height="2"/><rect class="cls-5" x="10" y="44" width="5" height="2"/></g></svg>