<svg xmlns="http://www.w3.org/2000/svg" viewBox="0 0 64 64"><defs><style>.cls-1{fill:#8dd5f6;}.cls-2{fill:#aedff7;}.cls-3{fill:#f6fafd;}</style></defs><title>86-Cloud</title><g id="_86-Cloud" data-name="86-Cloud"><g id="_Group_" data-name="&lt;Group&gt;"><path class="cls-1" d="M54.2,21.45A11.991,11.991,0,0,1,51,45H13a12,12,0,0,1,0-24,12.17,12.17,0,0,1,4.02.7A11.977,11.977,0,0,1,29,10a12.405,12.405,0,0,1,1.95.17A12.984,12.984,0,0,1,54.2,21.45Z"/></g><path class="cls-2" d="M54.2,21.45A13.157,13.157,0,0,0,54.831,19H54.8c-7.6,0-7.6,2-15.2,2s-7.6-2-15.2-2a25.277,25.277,0,0,0-7.181.891A11.976,11.976,0,0,0,17.02,21.7,12.17,12.17,0,0,0,13,21,11.991,11.991,0,0,0,2.479,27.228,25.227,25.227,0,0,0,9.2,28c7.6,0,7.6-2,15.2-2s7.6,2,15.2,2,7.6-2,15.2-2a25.376,25.376,0,0,1,6.4.7A12.029,12.029,0,0,0,54.2,21.45Z"/><path class="cls-3" d="M52.943,10a12.974,12.974,0,0,0-21.88,0c-.037.057-.077.112-.113.17A12.405,12.405,0,0,0,29,10a11.969,11.969,0,0,0-11.787,9.891A25.277,25.277,0,0,1,24.394,19c7.6,0,7.6,2,15.2,2s7.6-2,15.2-2h.034A12.712,12.712,0,0,0,55,17,12.926,12.926,0,0,0,52.943,10Z"/><circle class="cls-3" cx="51.5" cy="33.5" r="8.5"/><circle class="cls-3" cx="30.5" cy="25.5" r="8.5"/><path d="M55.463,20.8A13.8,13.8,0,0,0,56,17,13.99,13.99,0,0,0,30.462,9.093,11.923,11.923,0,0,0,29,9,12.907,12.907,0,0,0,16.109,20.386,12.814,12.814,0,0,0,13,20a13,13,0,0,0,0,26h8V44H13a11,11,0,1,1,3.68-21.354,1,1,0,0,0,1.335-.918A10.93,10.93,0,0,1,29,11a11.048,11.048,0,0,1,1.79.159A.99.99,0,0,0,31.8,10.7,11.984,11.984,0,0,1,53.264,21.1a1,1,0,0,0,.673,1.306A10.995,10.995,0,0,1,51,44v2a12.994,12.994,0,0,0,4.463-25.2Z"/><path d="M17,27h1a2,2,0,0,1,2,2h2a4,4,0,0,0-4-4H17a4,4,0,0,0-4,4v8a4,4,0,0,0,4,4h1a4,4,0,0,0,4-4H20a2,2,0,0,1-2,2H17a2,2,0,0,1-2-2V29A2,2,0,0,1,17,27Z"/><path d="M33,29a4,4,0,0,0-4-4H28a4,4,0,0,0-4,4v8a4,4,0,0,0,4,4h1a4,4,0,0,0,4-4Zm-2,8a2,2,0,0,1-2,2H28a2,2,0,0,1-2-2V29a2,2,0,0,1,2-2h1a2,2,0,0,1,2,2Z"/><path d="M43,29a4,4,0,0,0-4-4H36a1,1,0,0,0-1,1V40a1,1,0,0,0,1,1h3a4,4,0,0,0,4-4Zm-2,8a2,2,0,0,1-2,2H37V27h2a2,2,0,0,1,2,2Z"/><path d="M52,27V25H46a1,1,0,0,0-1,1V40a1,1,0,0,0,1,1h6V39H47V34h5V32H47V27Z"/><rect x="28" y="53" width="2" height="7"/><rect x="14" y="53" width="2" height="7"/><rect x="37" y="43" width="2" height="7"/><rect x="32" y="43" width="2" height="7"/><path d="M23,53H21a2,2,0,0,0-2,2v3a2,2,0,0,0,2,2h2a2,2,0,0,0,2-2V55A2,2,0,0,0,23,53Zm0,5H21V55h2Z"/><path d="M46,43H44a2,2,0,0,0-2,2v3a2,2,0,0,0,2,2h2a2,2,0,0,0,2-2V45A2,2,0,0,0,46,43Zm0,5H44V45h2Z"/><path d="M29,48V45a2,2,0,0,0-2-2H25a2,2,0,0,0-2,2v3a2,2,0,0,0,2,2h2A2,2,0,0,0,29,48Zm-2,0H25V45h2Z"/><rect x="43" y="53" width="2" height="7"/><path d="M38,53H36a2,2,0,0,0-2,2v3a2,2,0,0,0,2,2h2a2,2,0,0,0,2-2V55A2,2,0,0,0,38,53Zm0,5H36V55h2Z"/></g></svg>