<svg xmlns="http://www.w3.org/2000/svg" viewBox="0 0 64 64"><defs><style>.cls-1{fill:#dfe1ea;}.cls-2{fill:#f6fafd;}.cls-3{fill:#bec3d2;}.cls-4{fill:#ffc247;}.cls-5{fill:#ffa426;}.cls-6{fill:#f5cd62;}.cls-7{fill:#f5d882;}.cls-8{fill:#f5e3a7;}.cls-9{fill:#fff;}</style></defs><title>81-Code</title><g id="_81-Code" data-name="81-Code"><circle class="cls-1" cx="32" cy="32" r="31"/><path class="cls-2" d="M22.394,17c7.6,0,7.6,2,15.2,2s7.6-2,15.2-2a25.238,25.238,0,0,1,6.746.779A31,31,0,0,0,3.929,18.843,31.551,31.551,0,0,0,7.2,19C14.794,19,14.794,17,22.394,17Z"/><path class="cls-3" d="M49.157,18.736l-2.439-3.659A2.418,2.418,0,0,0,44.705,14H29V35.231l3.3,5.58A2.418,2.418,0,0,0,34.381,42h1.238A2.418,2.418,0,0,0,37.7,40.811l11.525-19.5A2.418,2.418,0,0,0,49.157,18.736Z"/><polygon class="cls-4" points="47 16 34 38 32 38 38 16 47 16"/><polygon class="cls-4" points="43 10 47 16 38 16 43 10"/><polygon class="cls-5" points="43 10 38 16 32 10 43 10"/><polygon class="cls-4" points="27 16 17 16 21 10 27 16"/><polygon class="cls-5" points="32 10 27 16 21 10 32 10"/><polygon class="cls-4" points="38 16 27 16 32 10 38 16"/><polygon class="cls-5" points="38 16 32 38 27 16 38 16"/><polygon class="cls-4" points="27 16 32 38 30 38 17 16 27 16"/><path class="cls-6" d="M42.6,21a25.883,25.883,0,0,1-5.806-.56L35,27a25.2,25.2,0,0,0,4.966.9l4.1-6.933C43.6,20.989,43.121,21,42.6,21Z"/><path class="cls-7" d="M29.285,26.052A25.159,25.159,0,0,1,35,27l1.789-6.561c-2.652-.579-4.381-1.4-9.106-1.435Z"/><path class="cls-8" d="M29.285,26.052l-1.6-7.047c-.1,0-.186,0-.289,0a26.29,26.29,0,0,0-7.973,1.1l3.657,6.189A28.748,28.748,0,0,1,27.394,26C28.09,26,28.7,26.022,29.285,26.052Z"/><rect class="cls-9" x="41.379" y="30.5" width="4.243" height="2" transform="translate(-9.533 39.985) rotate(-45)"/><rect class="cls-9" x="47.379" y="30.5" width="4.243" height="2" transform="translate(-7.776 44.228) rotate(-45)"/><rect class="cls-9" x="20.5" y="29.379" width="2" height="4.243" transform="translate(-15.977 24.429) rotate(-45)"/><rect class="cls-9" x="14.5" y="29.379" width="2" height="4.243" transform="translate(-17.734 20.186) rotate(-45)"/><path d="M34.676,31.274,38.754,17h6.451L35.626,32.474l1.7,1.052,10.524-17a1,1,0,0,0-.018-1.081l-4-6A1,1,0,0,0,43,9H21a1,1,0,0,0-.832.445l-4,6a1,1,0,0,0-.018,1.081l10.524,17,1.7-1.052L18.8,17H26.21L29.6,31.231l1.945-.462L28.266,17h8.408L32.753,30.726ZM32.067,11.481,35.586,15H29.135Zm-5.134,3.038L23.414,11h6.451ZM34.414,11h6.451l-2.932,3.519Zm10.717,4h-5l2.776-3.331ZM21.156,11.57,24.586,15H18.869Z"/><path d="M32,0A32,32,0,1,0,64,32,32.036,32.036,0,0,0,32,0Zm0,62A30,30,0,1,1,62,32,30.034,30.034,0,0,1,32,62Z"/><path d="M16,38h1a2,2,0,0,1,2,2h2a4,4,0,0,0-4-4H16a4,4,0,0,0-4,4v8a4,4,0,0,0,4,4h1a4,4,0,0,0,4-4H19a2,2,0,0,1-2,2H16a2,2,0,0,1-2-2V40A2,2,0,0,1,16,38Z"/><path d="M28,36H27a4,4,0,0,0-4,4v8a4,4,0,0,0,4,4h1a4,4,0,0,0,4-4V40A4,4,0,0,0,28,36Zm2,12a2,2,0,0,1-2,2H27a2,2,0,0,1-2-2V40a2,2,0,0,1,2-2h1a2,2,0,0,1,2,2Z"/><path d="M38,36H35a1,1,0,0,0-1,1V51a1,1,0,0,0,1,1h3a4,4,0,0,0,4-4V40A4,4,0,0,0,38,36Zm2,12a2,2,0,0,1-2,2H36V38h2a2,2,0,0,1,2,2Z"/><path d="M44,37V51a1,1,0,0,0,1,1h6V50H46V45h5V43H46V38h5V36H45A1,1,0,0,0,44,37Z"/><rect x="45.586" y="27" width="2.828" height="2" transform="translate(-6.033 41.435) rotate(-45)"/><rect x="17" y="26.586" width="2" height="2.828" transform="translate(-14.527 20.929) rotate(-45)"/></g></svg>