<svg xmlns="http://www.w3.org/2000/svg" viewBox="0 0 64 64"><defs><style>.cls-1{fill:#8dd5f6;}.cls-2{fill:#dfe1ea;}.cls-3{fill:#adb2c7;}.cls-4{fill:#aedff7;}.cls-5{fill:#f6fafd;}.cls-6{fill:#0096cf;}.cls-7{fill:#73c6b2;}.cls-8{fill:#11a892;}.cls-9{fill:#7e8596;}.cls-10{fill:#afb4c8;}.cls-11{fill:#ff636e;}.cls-12{fill:#636978;}.cls-13{fill:#ff475a;}.cls-14{fill:#f03049;}.cls-15{fill:#f2f6fc;}.cls-16{fill:#fff;}</style></defs><title>99-Bug</title><g id="_99-Bug" data-name="99-Bug"><rect class="cls-1" x="7" y="15" width="50" height="35" rx="1" ry="1"/><path class="cls-2" d="M61,12V54H40v2a1,1,0,0,1-1,1H25a1,1,0,0,1-1-1V54H3V12l1-1H60ZM57,49V16a1,1,0,0,0-1-1H8a1,1,0,0,0-1,1V49a1,1,0,0,0,1,1H56A1,1,0,0,0,57,49Z"/><path class="cls-3" d="M63,54v6l-1,1H2L1,60V54H24v2a1,1,0,0,0,1,1H39a1,1,0,0,0,1-1V54H63Z"/><path class="cls-4" d="M55.8,23c-7.6,0-7.6,2-15.2,2s-7.6-2-15.2-2-7.6,2-15.2,2A31.65,31.65,0,0,1,7,24.85v7a31.65,31.65,0,0,0,3.2.15c7.6,0,7.6-2,15.2-2s7.6,2,15.2,2,7.6-2,15.2-2c.43,0,.82.01,1.2.022v-7C56.617,23.01,56.227,23,55.8,23Z"/><path class="cls-5" d="M25.394,23c7.6,0,7.6,2,15.2,2s7.6-2,15.2-2c.43,0,.82.01,1.2.022V16a1,1,0,0,0-1-1H8a1,1,0,0,0-1,1v8.85a31.65,31.65,0,0,0,3.2.15C17.794,25,17.794,23,25.394,23Z"/><circle class="cls-6" cx="29" cy="20" r="3"/><path class="cls-6" d="M33.99,24.03A11.59,11.59,0,0,0,29,23a11.59,11.59,0,0,0-4.99,1.03C19.84,26,18,30.62,18,36c0,0,3.89,7.13,8.02,9.9A5.458,5.458,0,0,0,29,47a5.458,5.458,0,0,0,2.98-1.1C36.11,43.13,40,36,40,36,40,30.62,38.16,26,33.99,24.03Z"/><circle class="cls-7" cx="47" cy="18" r="15"/><path class="cls-8" d="M47,3a14.986,14.986,0,0,0-13.545,8.588A25.8,25.8,0,0,1,39.394,11c7.6,0,7.6,2,15.2,2a25.406,25.406,0,0,0,6.289-.668A15,15,0,0,0,47,3Z"/><circle class="cls-9" cx="26" cy="19" r="3"/><path class="cls-10" d="M30.99,23.03C30.9,23.37,29.81,27,26,27s-4.9-3.63-4.99-3.97A11.59,11.59,0,0,1,26,22,11.59,11.59,0,0,1,30.99,23.03Z"/><path class="cls-11" d="M30.99,23.03C35.16,25,37,29.62,37,35c0,0-3.89,7.13-8.02,9.9L26,27C29.81,27,30.9,23.37,30.99,23.03Z"/><path class="cls-9" d="M26,27l2.98,17.9A5.458,5.458,0,0,1,26,46a5.458,5.458,0,0,1-2.98-1.1Z"/><path class="cls-11" d="M26,27,23.02,44.9C18.89,42.13,15,35,15,35c0-5.38,1.84-10,6.01-11.97C21.1,23.37,22.19,27,26,27Z"/><path class="cls-10" d="M26,16a2.986,2.986,0,0,0-2.839,2.07c.671-.042,1.4-.07,2.233-.07a30.939,30.939,0,0,1,3.477.176A2.985,2.985,0,0,0,26,16Z"/><path class="cls-12" d="M23.666,41.021a23.994,23.994,0,0,1,4.766.589L26,27Z"/><path class="cls-13" d="M36.2,29.364a27.746,27.746,0,0,0-4.8-.364,27.357,27.357,0,0,0-4.995.4l.974,5.848A29.449,29.449,0,0,1,31.394,35a26.726,26.726,0,0,1,5.345.461C36.9,35.177,37,35,37,35A18.627,18.627,0,0,0,36.2,29.364Z"/><path class="cls-13" d="M16.2,31c-.289,0-.541-.01-.808-.015A20.058,20.058,0,0,0,15,35s.45.819,1.194,2h0a27.18,27.18,0,0,0,8.339-1.192l1.039-6.245C22.875,30.155,21.141,31,16.2,31Z"/><path class="cls-14" d="M31.394,29a27.746,27.746,0,0,1,4.8.364A10.042,10.042,0,0,0,30.99,23.03C30.9,23.37,29.81,27,26,27l.4,2.4A27.357,27.357,0,0,1,31.394,29Z"/><path class="cls-14" d="M25.573,29.563,26,27c-3.81,0-4.9-3.63-4.99-3.97-3.083,1.457-4.89,4.365-5.623,7.955.267,0,.519.015.808.015C21.141,31,22.875,30.155,25.573,29.563Z"/><g id="_Group_" data-name="&lt;Group&gt;"><circle class="cls-15" cx="53" cy="15" r="2"/><circle class="cls-15" cx="42" cy="15" r="2"/><path d="M63,53H62V30H60V53H40a1,1,0,0,0-1,1v2H25V54a1,1,0,0,0-1-1H4V12.414L4.414,12H29V10H4a1,1,0,0,0-.707.293l-1,1A1,1,0,0,0,2,12V53H1a1,1,0,0,0-1,1v6a1,1,0,0,0,.293.707l1,1A1,1,0,0,0,2,62H62a1,1,0,0,0,.707-.293l1-1A1,1,0,0,0,64,60V54A1,1,0,0,0,63,53Zm-1,6.586L61.586,60H2.414L2,59.586V55H23v1a2,2,0,0,0,2,2H39a2,2,0,0,0,2-2V55H62Z"/><path d="M16,16V14H8a2,2,0,0,0-2,2V49a2,2,0,0,0,2,2H56a2,2,0,0,0,2-2V35H56V49H8V16Z"/><path d="M47,4a14,14,0,0,1,0,28v2A16,16,0,1,0,32.847,10.533l1.767.934A13.98,13.98,0,0,1,47,4Z"/><path d="M46,25c.388,0,.446.064.771.42C47.533,26.253,48.429,27,51,27h1V25H51c-1.9,0-2.315-.451-2.752-.93A2.737,2.737,0,0,0,46,23a4.693,4.693,0,0,0-3.9,2.553l1.787.9A2.723,2.723,0,0,1,46,25Z"/><path d="M26,15a3.967,3.967,0,0,0-2.353.781A5.864,5.864,0,0,1,20.9,13.553l-1.79.894a7.316,7.316,0,0,0,3.249,2.925,3.923,3.923,0,0,0,.443,4A10.505,10.505,0,0,0,18.078,23.8,5.92,5.92,0,0,0,13,21v2a4.023,4.023,0,0,1,3.68,2.369,13.817,13.817,0,0,0-2.335,5.746,4.778,4.778,0,0,0-3.661-.063.876.876,0,0,0-.131.053l-2,1,.894,1.79,1.934-.967c1.745-.558,2.469.165,2.674.446Q14,34.165,14,35a1,1,0,0,0,.122.479,46.022,46.022,0,0,0,2.841,4.49A4.221,4.221,0,0,1,13,43v2a6,6,0,0,0,5.34-3.226C20.538,44.473,23.313,47,26,47s5.447-2.514,7.642-5.2A6,6,0,0,0,38.97,45V43a4.21,4.21,0,0,1-3.953-3,46.422,46.422,0,0,0,2.861-4.519A1,1,0,0,0,38,35q0-.836-.055-1.628c.175-.248.884-1.018,2.674-.444l1.934.967.894-1.79-2-1a.876.876,0,0,0-.131-.053,4.779,4.779,0,0,0-3.661.063A13.784,13.784,0,0,0,35.3,25.346,4.018,4.018,0,0,1,38.97,23V21A5.919,5.919,0,0,0,33.9,23.781a10.5,10.5,0,0,0-4.7-2.41,3.923,3.923,0,0,0,.443-4A7.316,7.316,0,0,0,32.9,14.447l-1.79-.894a5.9,5.9,0,0,1-2.754,2.227A3.962,3.962,0,0,0,26,15Zm0,11a4.035,4.035,0,0,1-3.7-2.4,11.727,11.727,0,0,1,7.394,0A4.035,4.035,0,0,1,26,26ZM16,34.745c.029-2.324.481-6.306,2.946-8.982l.022-.005,0-.016A8.084,8.084,0,0,1,20.5,24.469a6.154,6.154,0,0,0,4.339,3.42l-2.533,15.2A36.736,36.736,0,0,1,16,34.745Zm8.109,9.672L26,33.083l1.888,11.324A3.919,3.919,0,0,1,26,45,3.986,3.986,0,0,1,24.111,44.417ZM33.06,25.773c2.457,2.675,2.909,6.652,2.938,8.973a35.375,35.375,0,0,1-6.308,8.313l-2.528-15.17a6.154,6.154,0,0,0,4.339-3.42,8.053,8.053,0,0,1,1.51,1.249l-.011.04ZM24,19a2,2,0,1,1,2,2A2,2,0,0,1,24,19Z"/><path d="M45,15a3,3,0,1,0-3,3A3,3,0,0,0,45,15Zm-3,1a1,1,0,1,1,1-1A1,1,0,0,1,42,16Z"/><path d="M56,15a3,3,0,1,0-3,3A3,3,0,0,0,56,15Zm-4,0a1,1,0,1,1,1,1A1,1,0,0,1,52,15Z"/></g><path class="cls-16" d="M45.293,45.707l-3-3a1,1,0,0,1,0-1.414l3-3,1.414,1.414L44.414,42l2.293,2.293Z"/><path class="cls-16" d="M50.707,45.707l-1.414-1.414L51.586,42l-2.293-2.293,1.414-1.414,3,3a1,1,0,0,1,0,1.414Z"/></g></svg>