<svg xmlns="http://www.w3.org/2000/svg" viewBox="0 0 64 64"><defs><style>.cls-1{fill:#979faf;}.cls-2{fill:#adb2c7;}.cls-3{fill:#8dd5f6;}.cls-4{fill:#dfe1ea;}.cls-5{fill:#aedff7;}.cls-6{fill:#f6fafd;}.cls-7{fill:#7e8596;}.cls-8{fill:#0096cf;}.cls-9{fill:#ffc247;}.cls-10{fill:#ffa426;}.cls-11{fill:#f5cd62;}.cls-12{fill:#f5d882;}.cls-13{fill:#f5e3a7;}.cls-14{fill:#fff;}</style></defs><title>33-Development</title><g id="_33-Development" data-name="33-Development"><rect class="cls-1" x="19" y="59" width="26" height="3"/><polygon class="cls-2" points="40 50 45 59 19 59 24 50 40 50"/><path class="cls-3" d="M63,4V42H1V4A2.006,2.006,0,0,1,3,2H61A2.006,2.006,0,0,1,63,4Z"/><path class="cls-4" d="M63,42v6a2.006,2.006,0,0,1-2,2H3a2.006,2.006,0,0,1-2-2V42Z"/><path class="cls-5" d="M61,2H3A2.006,2.006,0,0,0,1,4V18.844A26.743,26.743,0,0,0,9.2,20c7.6,0,7.6-2,15.2-2s7.6,2,15.2,2,7.6-2,15.2-2A26.787,26.787,0,0,1,63,19.157V4A2.006,2.006,0,0,0,61,2Z"/><path class="cls-6" d="M61,2H3A2.006,2.006,0,0,0,1,4v7.844A26.743,26.743,0,0,0,9.2,13c7.6,0,7.6-2,15.2-2s7.6,2,15.2,2,7.6-2,15.2-2A26.787,26.787,0,0,1,63,12.157V4A2.006,2.006,0,0,0,61,2Z"/><path class="cls-7" d="M24,50l-1.832,3.3A25.289,25.289,0,0,0,28.6,54c6.6,0,7.475-1.507,12.57-1.9L40,50Z"/><path class="cls-8" d="M45.718,12.077A2.418,2.418,0,0,0,43.705,11H24.3a2.418,2.418,0,0,0-2.013,1.077l-2.439,3.659a2.418,2.418,0,0,0-.07,2.572L31.3,37.811A2.418,2.418,0,0,0,33.381,39h1.238A2.418,2.418,0,0,0,36.7,37.811l11.525-19.5a2.418,2.418,0,0,0-.07-2.572Z"/><g id="_Group_" data-name="&lt;Group&gt;"><polygon class="cls-9" points="47 14 34 36 32 36 38 14 47 14"/><polygon class="cls-9" points="43 8 47 14 38 14 43 8"/><polygon class="cls-10" points="43 8 38 14 32 8 43 8"/><polygon class="cls-9" points="27 14 17 14 21 8 27 14"/><polygon class="cls-10" points="32 8 27 14 21 8 32 8"/><polygon class="cls-9" points="38 14 27 14 32 8 38 14"/><polygon class="cls-10" points="38 14 32 36 27 14 38 14"/><polygon class="cls-9" points="27 14 32 36 30 36 17 14 27 14"/><path class="cls-11" d="M42.6,19a25.883,25.883,0,0,1-5.806-.56L35,25a25.2,25.2,0,0,0,4.966.9l4.1-6.933C43.6,18.989,43.121,19,42.6,19Z"/><path class="cls-12" d="M29.285,24.052A25.159,25.159,0,0,1,35,25l1.789-6.561c-2.652-.579-4.381-1.4-9.106-1.435Z"/><path class="cls-13" d="M29.285,24.052l-1.6-7.047c-.1,0-.186,0-.289,0a26.29,26.29,0,0,0-7.973,1.1l3.657,6.189A28.748,28.748,0,0,1,27.394,24C28.09,24,28.7,24.022,29.285,24.052Z"/><rect class="cls-14" x="45" y="26" width="2" height="2"/><rect class="cls-14" x="49" y="26" width="2" height="2"/><rect class="cls-14" x="13" y="26" width="2" height="2"/><rect class="cls-14" x="17" y="26" width="2" height="2"/><path d="M61,1H3A3,3,0,0,0,0,4V48a3,3,0,0,0,3,3H22.3l-4.175,7.514A1,1,0,0,0,18,59v2H16v2H48V61H46V59a1,1,0,0,0-.126-.486L41.7,51H61a3,3,0,0,0,3-3V4A3,3,0,0,0,61,1ZM3,3H61a1,1,0,0,1,1,1V41H2V4A1,1,0,0,1,3,3ZM20,61V60H44v1Zm23.3-3H20.7l3.888-7H39.412ZM61,49H3a1,1,0,0,1-1-1V43H62v5A1,1,0,0,1,61,49Z"/><path d="M29.139,36.509A1,1,0,0,0,30,37h4a1,1,0,0,0,.861-.491l13-22a1,1,0,0,0-.029-1.064l-4-6A1,1,0,0,0,43,7H21a1,1,0,0,0-.832.445l-4,6a1,1,0,0,0-.029,1.064ZM18.753,15H26.2l4.545,20h-.176ZM32.067,9.481,35.586,13H29.135Zm-5.134,3.038L23.414,9h6.451ZM34.414,9h6.451l-2.932,3.519Zm2.277,6-4.6,16.876L28.253,15ZM33.43,35h-.121l5.455-20h6.483Zm11.7-22h-5l2.776-3.331ZM21.156,9.57,24.586,13H18.869Z"/><path d="M55.772,33.634a1,1,0,0,0,.208-.829c-.162-.826-.3-2.772.31-3.514A.812.812,0,0,1,57,29a1,1,0,0,0,1-1V26a1,1,0,0,0-1-1,.812.812,0,0,1-.71-.291c-.61-.742-.472-2.688-.31-3.514A1,1,0,0,0,55,20H53v2h.865a5.865,5.865,0,0,0,.877,3.977A2.715,2.715,0,0,0,56,26.845v.31a2.715,2.715,0,0,0-1.258.868A5.865,5.865,0,0,0,53.865,32H53v2h2A1,1,0,0,0,55.772,33.634Z"/><path d="M7,29a.81.81,0,0,1,.71.291c.611.742.472,2.688.309,3.514A1,1,0,0,0,9,34h2V32h-.865a5.871,5.871,0,0,0-.877-3.977A2.715,2.715,0,0,0,8,27.155v-.31a2.715,2.715,0,0,0,1.258-.868A5.871,5.871,0,0,0,10.135,22H11V20H9a1,1,0,0,0-.981,1.2c.163.826.3,2.772-.309,3.514A.81.81,0,0,1,7,25a1,1,0,0,0-1,1v2A1,1,0,0,0,7,29Z"/></g></g></svg>